<?xml version="1.0" standalone="no"?>
<!DOCTYPE svg PUBLIC "-//W3C//DTD SVG 20010904//EN"
 "http://www.w3.org/TR/2001/REC-SVG-20010904/DTD/svg10.dtd">
<svg version="1.0" xmlns="http://www.w3.org/2000/svg"
 width="1109.000000pt" height="1280.000000pt" viewBox="0 0 1109.000000 1280.000000"
 preserveAspectRatio="xMidYMid meet">
<metadata>
Created by potrace 1.15, written by Peter Selinger 2001-2017
</metadata>
<g transform="translate(0.000000,1280.000000) scale(0.100000,-0.100000)"
fill="#000000" stroke="none">
<path d="M5313 12778 c-32 -36 -34 -54 -17 -146 22 -124 11 -292 -21 -330 -20
-23 -25 -25 -39 -12 -29 23 -49 82 -51 146 -1 43 -7 69 -22 90 -11 16 -32 68
-47 116 -22 74 -31 90 -56 103 -37 19 -64 19 -80 0 -17 -20 -6 -120 26 -233
26 -95 28 -110 15 -130 -14 -23 -64 10 -99 65 -17 26 -47 64 -66 82 -20 19
-36 40 -36 47 0 26 -42 64 -71 64 -24 0 -31 -6 -44 -36 -8 -20 -15 -47 -15
-60 0 -13 38 -79 84 -146 107 -158 124 -192 136 -277 14 -101 -13 -157 -86
-181 -29 -10 -41 -8 -96 19 -84 41 -126 41 -167 -1 -23 -24 -30 -38 -26 -53 4
-11 9 -33 12 -50 6 -36 28 -55 64 -55 14 0 51 -13 81 -29 103 -55 223 -75 267
-45 27 19 63 14 114 -16 28 -16 39 -32 48 -63 6 -23 21 -62 34 -87 12 -25 25
-70 28 -100 3 -31 14 -74 25 -95 39 -77 62 -228 62 -413 l0 -168 49 -110 c26
-60 56 -132 65 -159 9 -28 34 -72 56 -99 22 -26 40 -52 40 -57 0 -4 -10 -23
-23 -42 -13 -19 -33 -72 -46 -118 -26 -94 -72 -191 -140 -294 -42 -65 -102
-191 -129 -274 -17 -53 -154 -259 -175 -265 -33 -8 -65 12 -86 53 -24 46 -51
67 -104 82 -21 5 -44 21 -54 35 -24 38 -30 166 -9 236 9 31 16 69 16 85 0 52
-31 135 -88 242 -44 80 -78 127 -151 203 -82 87 -99 100 -148 114 -30 9 -74
24 -96 34 -23 10 -85 25 -137 34 -53 9 -111 21 -130 26 -80 23 -207 -3 -340
-70 -41 -21 -95 -44 -120 -51 -60 -18 -133 -93 -187 -194 -48 -87 -51 -106
-27 -166 17 -40 16 -42 -11 -98 l-27 -57 21 -68 c12 -38 23 -108 26 -156 2
-48 7 -93 10 -101 3 -8 44 -32 92 -53 95 -44 135 -86 153 -160 5 -23 14 -53
19 -68 8 -25 5 -30 -63 -80 -39 -29 -82 -56 -96 -60 -51 -15 -99 10 -189 97
-48 45 -104 92 -126 103 -51 26 -76 54 -110 122 -41 81 -211 243 -285 271 -30
11 -71 30 -90 42 -19 12 -48 29 -65 37 -36 18 -71 69 -86 124 -34 129 -43 157
-67 221 -23 63 -26 81 -23 175 7 214 5 253 -17 326 -29 95 -30 223 -2 286 10
24 22 63 26 86 5 31 14 48 33 60 14 9 48 40 76 67 27 28 80 70 118 95 37 24
74 54 82 67 24 36 67 52 177 68 94 13 106 17 131 45 41 46 37 83 -15 120 -31
23 -52 30 -87 30 -51 0 -158 -25 -177 -41 -7 -6 -25 -9 -41 -7 -37 4 -68 52
-82 130 -16 81 -8 102 69 187 82 91 81 90 120 114 48 31 100 102 100 138 0 43
-44 63 -120 54 -56 -7 -61 -9 -122 -74 -35 -37 -72 -83 -83 -102 -11 -18 -24
-32 -30 -31 -17 5 -6 42 20 74 14 16 25 36 25 45 0 8 20 37 44 64 64 71 79
108 64 156 -17 49 -51 55 -113 19 -53 -31 -91 -33 -144 -5 -53 27 -130 31
-145 6 -6 -10 -28 -41 -48 -68 -21 -28 -40 -67 -44 -87 -4 -20 -13 -49 -20
-64 -18 -35 -18 -82 0 -97 34 -28 23 -130 -16 -154 -16 -10 -30 -2 -110 67
-31 27 -33 79 -4 142 34 73 34 107 0 133 -15 12 -32 21 -40 21 -21 0 -74 -50
-74 -70 0 -11 -16 -31 -36 -46 l-36 -28 5 -85 c7 -120 11 -139 39 -169 38 -40
46 -62 45 -120 -1 -40 4 -59 21 -80 33 -40 54 -92 49 -120 -2 -13 2 -45 10
-70 16 -52 10 -132 -13 -187 -8 -19 -14 -44 -14 -57 0 -12 -9 -31 -20 -43 -12
-12 -24 -40 -27 -61 -4 -26 -20 -54 -47 -85 -60 -66 -100 -150 -91 -189 11
-51 7 -122 -10 -170 -25 -70 -65 -254 -65 -299 0 -22 -5 -52 -11 -68 -6 -15
-15 -98 -19 -183 -5 -118 -11 -163 -24 -189 -15 -28 -16 -41 -7 -70 5 -20 13
-45 16 -57 3 -13 28 -32 63 -50 43 -22 59 -36 66 -59 15 -52 21 -59 75 -86 61
-29 72 -45 82 -117 7 -48 15 -62 71 -122 105 -114 135 -144 177 -178 22 -18
45 -48 51 -66 8 -26 32 -47 115 -101 78 -51 113 -80 135 -115 16 -25 47 -56
68 -67 20 -12 71 -55 113 -96 65 -65 82 -76 128 -86 28 -6 62 -11 75 -11 55 0
164 -97 186 -167 7 -21 25 -60 40 -88 23 -42 29 -66 33 -145 3 -68 11 -109 27
-145 39 -88 60 -192 60 -292 0 -106 7 -126 77 -212 25 -30 60 -85 79 -122 21
-43 49 -79 75 -101 87 -69 109 -94 109 -128 0 -71 42 -118 121 -134 22 -5 32
-21 68 -113 24 -60 60 -135 80 -168 21 -33 52 -91 69 -129 18 -38 46 -84 62
-103 27 -31 30 -40 30 -104 0 -38 10 -120 22 -181 l22 -111 -22 -38 c-41 -72
-55 -127 -42 -173 12 -46 15 -90 12 -187 -2 -62 -6 -72 -56 -148 -30 -45 -62
-105 -70 -134 -16 -55 -41 -84 -114 -130 -23 -15 -67 -61 -97 -101 -30 -41
-77 -93 -104 -116 -27 -23 -62 -61 -77 -84 -15 -22 -53 -71 -86 -108 -37 -41
-73 -97 -97 -150 -21 -46 -46 -90 -54 -97 -9 -7 -21 -29 -28 -49 -22 -70 -57
-119 -109 -151 -60 -37 -68 -62 -46 -132 10 -30 14 -63 11 -80 -5 -23 0 -37
23 -67 16 -20 32 -47 36 -60 4 -12 23 -34 42 -49 47 -35 66 -73 59 -120 -9
-62 76 -277 162 -413 33 -53 82 -138 108 -190 26 -52 53 -102 60 -110 7 -8 18
-76 25 -155 7 -77 20 -158 29 -180 12 -31 16 -72 15 -182 l-1 -142 30 -3 c26
-3 32 -9 43 -47 13 -43 12 -44 -28 -94 -22 -28 -56 -83 -75 -122 -36 -70 -36
-70 -25 -137 18 -104 -9 -208 -76 -291 -17 -21 -34 -47 -37 -58 -4 -10 -11
-19 -16 -19 -5 0 -26 -15 -46 -34 -21 -18 -54 -41 -74 -49 -32 -13 -39 -23
-58 -80 -12 -35 -28 -73 -36 -83 -18 -24 -20 -137 -2 -152 7 -6 35 -15 62 -19
46 -8 50 -11 56 -43 9 -41 37 -66 91 -81 38 -10 60 -27 100 -77 24 -30 61 -28
111 7 74 50 81 52 124 37 52 -18 134 1 177 43 17 16 49 38 71 49 37 18 48 34
112 159 124 240 170 313 257 403 56 59 85 97 93 125 9 28 22 46 45 60 39 22
113 98 133 137 8 14 15 41 16 60 1 38 31 165 60 253 10 33 19 72 19 86 0 27
-53 109 -70 109 -6 0 -20 15 -31 34 -16 27 -27 34 -60 39 -45 6 -86 38 -121
95 -16 25 -19 44 -15 78 4 37 -1 56 -23 97 -18 35 -30 75 -34 122 -4 39 -11
102 -17 142 -7 52 -7 92 1 145 7 40 14 116 15 168 2 52 7 166 10 252 l7 157
-41 80 c-23 45 -41 92 -41 105 0 14 12 52 26 85 22 51 25 65 16 91 -13 35 -15
32 75 90 34 23 123 99 198 171 75 71 152 141 170 155 l33 25 46 -46 c51 -51
54 -66 30 -143 -23 -70 -7 -125 54 -193 34 -38 50 -67 64 -117 10 -37 18 -77
18 -89 0 -12 9 -37 19 -55 20 -35 51 -197 51 -266 0 -22 5 -53 11 -69 6 -15
15 -76 19 -136 5 -59 13 -131 19 -160 6 -28 22 -115 36 -192 14 -77 31 -169
40 -205 8 -36 19 -96 25 -135 6 -38 25 -123 41 -189 20 -82 29 -146 29 -200 0
-44 7 -178 16 -297 14 -195 14 -227 1 -320 -13 -89 -13 -114 -2 -174 8 -39 19
-83 25 -100 8 -22 8 -46 -1 -95 -17 -90 -55 -205 -84 -258 -34 -60 -32 -88 5
-107 16 -8 42 -15 58 -15 28 0 29 -2 35 -60 6 -74 42 -139 92 -169 31 -18 34
-24 25 -40 -5 -11 -20 -21 -32 -23 -30 -4 -35 -51 -13 -104 25 -60 36 -121 26
-146 -11 -31 18 -117 61 -179 38 -55 172 -179 192 -179 21 0 37 -25 61 -94 36
-103 118 -206 195 -246 19 -10 46 -29 58 -43 21 -22 28 -24 53 -15 22 7 42 7
74 -2 55 -15 84 -9 158 37 41 24 76 37 116 42 68 8 106 34 122 81 6 19 29 52
51 73 28 27 38 43 33 55 -15 36 -17 105 -5 143 12 36 11 46 -8 102 -12 34 -22
78 -22 98 0 23 -19 78 -50 145 -29 64 -50 124 -50 144 0 19 -14 64 -30 98 -17
35 -30 68 -30 74 0 5 -16 43 -36 83 -20 41 -34 81 -30 90 10 27 35 16 56 -25
22 -43 80 -80 125 -80 32 0 69 36 60 58 -3 9 -9 31 -12 47 -3 17 -14 46 -23
65 -9 19 -20 47 -24 63 -6 25 -4 27 26 27 36 0 98 33 98 51 0 6 -14 27 -31 47
-27 30 -30 40 -25 73 6 37 5 38 -37 57 -26 12 -59 39 -82 68 -21 27 -58 69
-80 94 -52 56 -90 161 -82 224 5 34 0 53 -29 109 -36 70 -53 155 -54 270 0 91
-17 144 -56 174 l-34 25 0 103 c0 56 -5 127 -11 156 -5 30 -15 104 -20 164 -6
61 -13 131 -16 157 -3 30 1 65 11 95 22 65 20 112 -9 175 -29 63 -32 130 -9
208 9 29 13 63 11 74 -16 64 -60 163 -83 187 -27 28 -28 32 -40 236 -7 115
-16 224 -19 243 -3 19 -18 105 -32 190 -14 85 -29 162 -34 171 -7 14 -43 172
-56 250 -3 15 1 30 11 38 23 19 23 318 1 382 -18 51 -21 191 -6 233 18 45 13
85 -15 122 -23 30 -27 43 -25 99 1 35 -3 85 -9 112 -30 131 -31 133 -71 154
-21 10 -58 19 -82 19 -44 0 -45 0 -56 44 -14 55 -14 101 -1 146 13 44 40 338
40 431 0 48 6 81 19 107 14 29 20 71 25 197 5 115 12 181 27 234 22 77 22 100
-1 231 -6 36 -15 111 -19 167 -6 69 -15 115 -28 140 -11 21 -34 66 -52 100
-17 33 -38 90 -45 125 -8 36 -19 76 -26 89 -7 13 -21 55 -31 93 -16 61 -17 88
-9 216 11 165 20 206 62 272 16 26 42 84 58 129 23 63 38 89 67 114 21 18 53
58 71 88 29 48 35 68 39 139 3 46 14 112 25 148 11 36 23 88 28 115 9 58 28
137 71 286 22 80 28 116 23 148 -6 36 -3 46 19 69 25 27 50 95 39 106 -7 8
-22 240 -26 401 -2 66 -8 140 -14 165 -7 25 -12 64 -12 87 0 44 -20 103 -90
263 -43 98 -86 172 -179 312 -29 44 -62 107 -73 139 -11 32 -33 75 -49 95 -16
21 -32 49 -36 63 -3 14 -8 30 -11 35 -16 28 -15 277 1 303 4 6 8 31 10 56 4
48 30 98 71 136 29 28 42 61 63 169 25 131 26 144 4 179 -23 37 -66 53 -86 32
-26 -27 -79 -170 -90 -243 -7 -40 -43 -86 -70 -86 -12 0 -15 13 -15 65 0 35 5
76 12 89 9 21 7 45 -12 126 -18 82 -20 108 -12 142 16 62 -3 95 -75 132 -43
22 -66 20 -90 -6z m-2856 -640 c5 -33 1 -41 -36 -78 -34 -34 -45 -39 -56 -30
-30 25 -7 143 38 190 l21 24 14 -35 c8 -19 17 -51 19 -71z m1696 -2336 c9 -10
19 -36 23 -59 6 -41 6 -41 -32 -52 -55 -15 -96 -14 -122 5 l-22 15 25 49 c13
26 30 50 37 53 29 12 76 6 91 -11z m-448 -117 c35 -34 33 -78 -4 -116 -36 -36
-70 -37 -110 -3 -61 51 -26 144 54 144 25 0 44 -8 60 -25z"/>
<path d="M7949 12568 c-17 -32 -39 -200 -39 -304 0 -66 -6 -107 -21 -150 -11
-33 -24 -104 -28 -159 -8 -96 -10 -104 -66 -210 -32 -60 -74 -128 -92 -149
-27 -32 -33 -48 -33 -85 0 -29 -8 -59 -21 -81 -12 -19 -36 -75 -54 -125 -17
-49 -50 -127 -73 -171 -23 -45 -47 -104 -53 -130 -8 -30 -27 -66 -49 -91 -20
-23 -53 -82 -74 -130 -41 -100 -117 -193 -158 -193 -35 0 -112 -50 -153 -99
-42 -51 -85 -132 -85 -159 0 -27 -27 -47 -85 -62 -85 -22 -120 -42 -123 -71
-4 -33 12 -45 79 -62 30 -8 54 -18 54 -23 0 -5 -49 -56 -109 -113 -142 -135
-157 -152 -201 -240 -56 -112 -106 -182 -140 -197 -27 -11 -30 -17 -30 -61 -1
-48 -31 -136 -82 -236 -35 -70 -29 -115 19 -146 44 -28 43 -41 -4 -161 -28
-72 -41 -120 -55 -203 -5 -31 -2 -42 17 -62 13 -14 39 -28 57 -31 42 -8 49
-22 33 -69 -11 -33 -10 -39 11 -61 26 -28 41 -30 74 -8 13 9 29 13 35 9 15 -9
3 -63 -21 -93 -10 -13 -27 -52 -39 -87 -18 -55 -21 -78 -15 -152 6 -79 4 -97
-20 -173 -15 -47 -36 -102 -48 -123 l-21 -37 23 -23 22 -22 40 45 c22 24 70
88 105 142 36 54 70 98 76 98 5 0 24 11 40 25 17 14 35 24 41 22 6 -2 17 -32
24 -68 13 -60 12 -119 -2 -180 -7 -28 15 -59 41 -59 7 0 30 25 51 55 20 31 41
54 47 52 6 -2 24 -22 39 -44 l29 -40 -11 -99 c-20 -167 -20 -167 11 -178 21
-7 39 -4 88 17 34 15 65 27 71 27 17 0 69 -119 69 -160 0 -51 -27 -121 -72
-186 -31 -47 -35 -60 -41 -140 -5 -67 -3 -95 8 -118 8 -16 15 -32 15 -36 0 -3
-38 -49 -85 -101 -95 -104 -101 -125 -46 -149 32 -14 33 -16 27 -59 -3 -24 -6
-57 -6 -72 0 -23 -7 -31 -34 -43 -39 -16 -63 -48 -71 -92 -8 -42 7 -57 60 -63
l47 -6 2 -47 c1 -39 -4 -55 -34 -97 -20 -28 -61 -68 -90 -89 -29 -20 -71 -62
-92 -93 -35 -49 -40 -63 -41 -118 -2 -73 12 -91 75 -91 33 0 41 5 62 38 32 50
82 96 95 87 8 -4 8 -12 1 -25 -5 -10 -10 -30 -10 -43 0 -13 -8 -35 -18 -48
-10 -13 -40 -62 -66 -109 -53 -95 -97 -156 -173 -242 -48 -53 -53 -62 -53
-106 0 -62 20 -90 68 -94 l37 -3 -3 -55 c-2 -30 -10 -70 -18 -89 -10 -23 -14
-76 -14 -177 0 -131 2 -144 19 -154 11 -5 29 -10 40 -10 30 0 34 -32 10 -99
-23 -67 -17 -91 23 -91 22 0 100 43 118 65 22 27 30 16 30 -42 0 -32 5 -87 11
-123 6 -36 12 -150 13 -255 2 -183 3 -195 39 -335 21 -80 42 -154 47 -165 5
-11 16 -62 24 -113 9 -51 20 -101 26 -111 15 -29 15 -92 0 -248 -17 -170 -12
-194 41 -207 l36 -9 7 -81 c4 -45 11 -171 16 -281 5 -110 11 -209 14 -220 9
-33 36 -408 36 -499 0 -47 4 -96 10 -110 8 -21 2 -40 -31 -108 l-40 -83 6
-150 c4 -109 2 -189 -10 -295 -28 -243 -29 -287 -11 -315 20 -30 56 -33 81 -5
26 29 35 16 35 -55 0 -35 4 -67 10 -70 5 -3 10 -20 11 -38 5 -267 14 -317 60
-317 25 0 31 -14 18 -47 -9 -24 -8 -30 10 -43 12 -8 46 -34 76 -57 75 -56 109
-66 245 -67 115 -1 115 -1 175 -38 79 -50 120 -58 146 -29 25 26 66 27 139 1
42 -15 83 -19 170 -20 129 -1 179 -16 237 -72 l32 -31 29 24 c16 13 37 35 45
49 15 26 37 118 43 180 2 19 6 55 10 79 7 42 5 46 -35 85 -23 23 -56 63 -74
91 -18 27 -61 72 -96 101 -45 36 -67 62 -77 90 -8 21 -14 40 -14 41 0 0 -16
10 -35 22 -21 12 -42 36 -50 55 -24 57 -67 98 -132 128 -67 30 -67 30 -78 123
-3 28 -12 106 -19 175 -8 69 -22 152 -32 185 -25 92 -27 156 -9 283 l16 117
-25 78 c-38 113 -35 184 13 370 73 283 79 347 36 382 -31 26 -32 61 -3 92 21
22 21 25 9 175 -9 127 -9 177 4 298 12 121 13 179 4 350 -12 224 -13 246 -10
367 2 87 -10 221 -35 390 -9 57 -13 111 -9 122 8 25 63 45 81 30 8 -6 67 -39
131 -73 126 -66 129 -69 222 -219 19 -32 50 -64 73 -78 114 -69 131 -84 170
-154 22 -38 55 -90 74 -115 19 -24 37 -56 40 -70 21 -91 28 -106 84 -164 89
-95 98 -126 56 -199 -13 -23 -31 -66 -41 -95 -20 -63 -82 -148 -132 -182 -52
-36 -136 -149 -169 -228 -35 -83 -64 -130 -97 -159 -16 -13 -33 -45 -43 -79
-16 -56 -30 -75 -94 -123 -44 -33 -56 -68 -35 -103 14 -25 14 -32 -4 -98 -11
-40 -31 -91 -44 -114 -19 -33 -22 -46 -14 -67 8 -21 6 -34 -12 -62 -17 -28
-20 -40 -12 -56 6 -11 11 -35 11 -55 0 -50 59 -224 118 -347 51 -106 63 -121
208 -260 76 -73 203 -142 289 -158 28 -5 68 -17 90 -27 22 -9 69 -20 104 -24
52 -7 70 -14 100 -42 63 -59 145 -108 179 -108 64 0 124 54 208 185 59 92 59
124 2 195 -24 28 -59 60 -79 71 -39 19 -49 45 -65 164 -4 28 -17 66 -30 85
-13 19 -24 47 -24 62 0 18 -13 42 -34 65 -18 21 -44 58 -56 83 -12 24 -40 67
-61 96 -23 30 -39 62 -39 78 0 15 -5 37 -11 48 -13 24 -1 40 33 44 13 1 40 5
60 9 35 7 37 6 56 -31 28 -56 124 -144 157 -144 55 0 78 86 48 175 -41 116
-56 167 -68 220 -13 53 -12 63 2 84 13 20 14 32 4 77 -11 47 -10 59 13 128 46
135 60 215 60 341 1 119 1 121 42 210 48 103 81 210 87 276 3 25 11 57 18 70
7 13 15 58 19 100 5 59 15 93 44 151 25 51 39 94 42 132 2 32 12 85 20 119 32
123 31 127 -27 243 -54 105 -54 106 -174 202 -66 53 -153 130 -195 170 -41 41
-91 82 -110 92 -19 10 -64 49 -100 85 -44 46 -84 76 -126 95 -74 34 -108 72
-133 153 -11 34 -26 79 -35 99 -19 44 -20 102 -5 164 13 49 18 52 43 25 13
-14 30 -18 68 -18 69 1 75 13 82 177 10 221 15 246 67 325 26 39 66 112 90
163 36 78 41 97 31 113 -19 31 -14 51 30 125 45 74 78 152 78 183 0 20 24 42
93 87 30 19 47 23 72 18 40 -7 80 12 141 68 25 23 47 38 51 34 4 -4 6 -26 4
-50 -1 -24 4 -59 12 -79 30 -71 91 -54 131 37 14 32 38 64 59 80 20 15 39 36
42 46 3 10 22 24 41 30 36 12 68 49 103 118 16 32 27 42 46 42 33 0 39 -28 26
-110 -6 -36 -11 -91 -11 -122 0 -47 4 -59 22 -72 38 -27 56 -20 83 34 14 28
41 67 59 88 48 54 96 199 96 291 0 41 4 71 10 71 6 0 10 -7 10 -16 0 -18 65
-47 89 -39 10 3 31 29 47 58 27 50 29 58 34 223 3 106 9 176 17 185 21 26 73
127 73 143 0 19 30 36 63 36 34 0 46 18 58 86 13 69 21 87 54 133 33 44 33
104 0 196 -21 60 -22 73 -11 90 7 11 16 34 20 50 4 18 18 36 34 46 40 23 62
108 88 341 5 46 2 71 -16 125 -20 59 -22 79 -16 168 8 131 -7 188 -69 264 -25
31 -54 74 -64 96 -26 56 -58 168 -70 245 -16 100 -27 127 -85 225 -50 83 -55
97 -65 186 -14 113 -6 220 20 272 11 21 31 86 44 145 14 59 34 133 45 164 11
31 24 83 30 115 6 32 13 70 17 85 4 22 0 29 -27 43 l-32 17 -42 -44 c-26 -28
-69 -98 -115 -188 -85 -169 -94 -181 -117 -159 -26 27 1 188 67 394 34 105 35
126 11 148 -58 53 -122 -19 -167 -188 -53 -204 -96 -289 -134 -265 -11 6 -13
39 -7 166 8 178 -10 338 -42 362 -27 20 -51 14 -72 -20 -22 -37 -26 -79 -9
-110 23 -43 -22 -365 -53 -384 -4 -3 -31 18 -59 47 -37 39 -49 57 -45 73 4 16
-5 29 -33 53 -21 18 -50 35 -64 38 -32 9 -67 -10 -67 -36 0 -22 57 -116 83
-137 9 -8 26 -44 38 -80 12 -37 33 -89 46 -117 27 -58 30 -126 7 -149 -11 -12
-36 -16 -94 -16 -43 0 -81 4 -84 9 -10 15 -176 6 -191 -10 -13 -14 -41 -82
-52 -126 -3 -13 3 -29 17 -43 23 -23 17 -24 140 1 128 24 126 25 177 -15 25
-20 71 -43 102 -52 131 -38 131 -39 155 -194 8 -58 20 -121 26 -140 6 -19 15
-73 20 -120 6 -59 17 -105 38 -151 16 -36 33 -81 37 -100 4 -19 19 -59 32 -89
30 -66 49 -133 63 -219 6 -36 18 -77 27 -91 14 -25 14 -31 -1 -76 -8 -27 -22
-83 -30 -124 -15 -80 -74 -215 -105 -240 -10 -8 -31 -34 -45 -57 -29 -47 -32
-49 -60 -28 -11 8 -24 15 -28 15 -24 0 -110 -100 -190 -220 -95 -142 -110
-160 -141 -160 -35 0 -142 -58 -198 -109 -49 -44 -113 -79 -246 -137 -30 -13
-33 -12 -80 26 -26 23 -66 46 -88 52 -22 6 -48 18 -57 26 -10 8 -47 18 -83 21
-37 4 -72 14 -81 22 -14 14 -13 20 2 60 22 57 42 79 69 79 12 0 41 6 63 14 29
11 51 12 73 6 82 -24 135 22 160 139 9 45 8 55 -10 85 -39 63 -24 216 24 243
8 5 21 29 28 53 12 40 12 49 -4 85 -27 59 -23 88 16 139 24 32 35 57 35 80 0
18 10 55 21 81 18 41 20 53 10 85 -6 21 -11 52 -11 69 0 42 -23 84 -59 111
-26 18 -30 27 -29 66 0 33 -6 54 -25 81 -19 27 -23 40 -16 49 28 34 -40 117
-114 139 -79 23 -147 20 -188 -10 -56 -41 -94 -65 -101 -65 -4 0 -24 19 -45
42 -97 107 -102 109 -174 42 l-49 -47 -51 17 c-61 19 -99 19 -197 2 -63 -11
-79 -19 -113 -52 -43 -42 -47 -58 -23 -85 16 -17 15 -20 -15 -36 -18 -10 -56
-35 -84 -55 -28 -21 -60 -38 -72 -38 -45 0 -88 -42 -113 -110 -36 -97 -38
-133 -12 -170 16 -22 20 -39 16 -58 -4 -15 -11 -74 -16 -132 -25 -274 -25
-246 3 -274 14 -14 34 -26 44 -26 48 0 81 -58 51 -88 -19 -19 -39 -14 -87 18
-32 22 -56 30 -87 30 -41 0 -43 2 -81 63 -42 66 -56 98 -72 162 -8 30 -27 57
-70 98 -135 128 -201 267 -201 425 0 24 -8 57 -17 72 -15 27 -15 31 2 77 27
73 102 191 165 259 45 49 63 79 94 160 21 54 48 117 61 139 34 60 77 193 73
231 -1 18 1 36 5 40 3 4 4 17 1 29 -3 13 17 99 47 201 57 198 89 311 120 424
11 41 28 93 38 115 11 22 22 55 26 73 7 35 68 132 91 145 7 4 24 7 36 5 44 -5
183 15 212 29 17 9 68 18 115 21 104 6 126 19 165 96 29 57 30 98 3 109 -7 3
-75 -9 -151 -26 -107 -23 -140 -27 -149 -18 -19 19 -12 129 13 191 12 30 34
87 50 127 17 45 47 96 80 134 28 35 64 88 80 118 15 31 40 67 54 80 38 35 30
81 -14 81 -17 0 -121 -105 -173 -173 -21 -27 -35 -37 -56 -37 -50 0 -54 21
-16 74 19 27 42 71 51 100 9 28 24 65 33 81 10 17 25 64 35 105 10 41 22 90
28 109 9 29 8 36 -8 48 -34 25 -50 14 -93 -62 -13 -22 -51 -78 -86 -125 -34
-47 -85 -129 -114 -182 -29 -54 -57 -100 -62 -104 -19 -11 -21 4 -5 33 9 15
29 65 46 110 24 69 28 87 19 113 -6 17 -8 38 -4 48 4 9 9 32 12 51 2 18 13 51
24 73 34 66 16 99 -45 84 -14 -3 -30 -21 -41 -46 -10 -23 -58 -109 -107 -193
-48 -84 -88 -162 -88 -174 0 -30 -17 -73 -30 -73 -20 0 -12 171 11 238 20 59
20 70 10 179 -7 64 -14 120 -17 125 -11 17 -63 8 -75 -14z m1232 -3494 c30
-28 29 -54 -2 -54 -23 0 -53 44 -45 65 8 21 16 19 47 -11z m-389 -1 c34 -31
14 -123 -27 -123 -18 0 -45 45 -45 75 0 58 35 82 72 48z m-534 -680 c42 -109
40 -134 -4 -92 -37 34 -46 56 -39 90 8 37 29 38 43 2z"/>
<path d="M1769 8780 c-12 -7 -18 -33 -23 -102 -4 -51 -11 -109 -16 -128 -10
-38 -11 -56 -10 -224 1 -61 -3 -113 -9 -119 -7 -7 -22 -1 -46 17 -19 15 -35
28 -35 30 0 2 -5 28 -11 57 -5 30 -12 72 -14 94 -4 36 -18 88 -46 170 -6 17
-15 45 -19 64 -19 75 -84 94 -110 31 -14 -34 -1 -146 30 -256 13 -43 16 -81
12 -132 -5 -74 -12 -85 -34 -54 -7 10 -29 28 -49 40 -27 16 -48 44 -78 102
l-42 80 -43 0 c-71 0 -97 -46 -62 -112 12 -24 25 -63 29 -86 3 -29 20 -65 47
-104 24 -33 47 -79 52 -101 5 -23 18 -51 29 -63 10 -11 30 -52 43 -91 l24 -71
-24 -34 c-34 -46 -53 -58 -91 -58 -18 0 -60 -15 -95 -34 -35 -18 -75 -36 -89
-40 -14 -3 -31 -17 -37 -31 -17 -37 -15 -116 3 -142 35 -50 148 -52 260 -6 33
14 78 25 100 24 22 0 50 5 62 11 16 8 30 8 52 -1 49 -21 69 -51 86 -133 9 -43
29 -110 45 -150 17 -40 30 -83 30 -95 0 -30 17 -67 63 -138 52 -78 94 -122
138 -146 21 -10 47 -34 58 -53 27 -42 59 -190 71 -319 7 -84 12 -104 37 -138
15 -22 45 -68 66 -102 21 -34 61 -88 89 -120 l51 -58 -8 -77 c-4 -42 -9 -104
-10 -137 -2 -33 -11 -87 -20 -119 -17 -58 -17 -118 1 -226 5 -30 0 -44 -30
-85 -52 -72 -82 -133 -99 -198 -16 -61 -79 -146 -109 -147 -9 0 -39 29 -66 64
-37 47 -66 71 -106 91 -31 15 -54 31 -51 35 3 4 28 13 55 20 86 21 102 78 42
150 -38 44 -97 50 -209 20 -85 -23 -123 -18 -123 15 0 31 -38 55 -86 55 -54 0
-76 -10 -127 -59 l-39 -36 -15 23 c-12 16 -25 22 -54 22 -50 0 -71 -28 -63
-82 4 -21 3 -38 -1 -38 -4 0 -33 7 -65 15 -48 13 -79 13 -175 5 -187 -16 -269
-61 -263 -144 3 -40 4 -41 45 -44 29 -2 56 4 93 23 86 43 89 25 7 -37 -112
-85 -197 -250 -197 -382 0 -75 -17 -103 -68 -112 -52 -9 -117 -41 -153 -75
-24 -22 -30 -35 -27 -61 3 -32 4 -33 58 -36 30 -2 74 2 98 9 23 6 45 10 47 7
3 -3 -16 -40 -41 -83 -45 -75 -50 -79 -121 -111 -40 -19 -86 -37 -101 -40 -40
-10 -59 -31 -67 -72 -11 -57 -21 -70 -83 -101 -57 -29 -73 -49 -92 -111 -11
-38 5 -70 35 -70 35 0 38 -15 16 -84 -20 -64 -15 -129 14 -172 22 -34 19 -56
-17 -105 -17 -24 -35 -64 -40 -88 -4 -25 -17 -54 -28 -66 -25 -27 -25 -31 1
-94 25 -59 46 -69 114 -52 24 6 57 11 73 11 35 0 48 14 55 60 5 31 15 74 36
150 5 19 14 26 40 28 51 5 55 -8 21 -69 -21 -38 -30 -68 -30 -101 0 -53 17
-76 62 -85 27 -5 29 -9 27 -47 -5 -86 -1 -106 23 -106 12 0 29 7 38 15 15 13
19 13 37 -8 20 -23 43 -106 43 -159 0 -16 -9 -65 -20 -109 -14 -55 -22 -123
-24 -226 -6 -186 -21 -311 -48 -382 -92 -247 -108 -360 -67 -471 11 -30 23
-66 26 -80 3 -14 18 -37 34 -52 19 -18 29 -37 29 -56 0 -63 74 -95 293 -123
155 -20 186 -30 227 -74 28 -30 71 -55 95 -55 9 0 36 -9 60 -20 25 -11 68 -26
96 -33 28 -8 59 -23 68 -35 28 -37 95 -75 145 -83 32 -6 69 -22 107 -49 31
-22 91 -56 133 -75 41 -20 78 -39 80 -44 3 -4 8 -51 12 -103 6 -83 4 -100 -15
-143 -12 -27 -40 -66 -63 -86 -37 -35 -40 -42 -35 -75 7 -43 23 -64 48 -64 10
0 21 -4 24 -10 18 -29 138 2 150 39 4 12 25 33 48 48 62 38 87 64 87 89 0 43
10 54 50 54 41 0 38 6 59 -115 5 -27 14 -63 21 -79 7 -21 9 -68 4 -149 -8
-137 -8 -137 73 -137 45 0 54 4 77 30 14 17 28 47 31 68 3 20 13 62 22 94 10
37 13 71 9 102 -6 36 -4 46 7 46 14 0 47 -60 47 -88 0 -9 9 -39 19 -67 18 -47
35 -130 50 -240 5 -40 11 -52 34 -65 24 -13 30 -13 54 0 15 8 30 26 33 40 6
22 46 87 94 155 13 19 14 19 42 -11 35 -37 109 -67 155 -62 l34 3 3 79 c3 70
-22 233 -43 289 -4 9 -3 17 3 17 15 0 34 -28 27 -39 -21 -35 66 -91 141 -91
l46 0 -6 58 c-8 78 -8 83 0 118 4 21 0 43 -14 70 -11 21 -25 64 -31 94 -15 70
-90 185 -127 194 -14 4 -47 26 -72 50 -26 23 -65 48 -88 54 -22 7 -49 21 -59
32 -10 11 -25 20 -34 20 -14 0 -69 29 -258 136 -23 14 -56 43 -72 67 -16 23
-62 74 -103 114 -82 81 -150 116 -253 128 -63 8 -90 23 -210 115 -33 25 -92
67 -131 92 -39 25 -80 59 -92 75 -19 27 -20 33 -8 67 21 60 29 63 88 31 39
-21 73 -30 130 -35 66 -5 83 -11 115 -37 21 -16 48 -45 60 -64 55 -86 50 -83
169 -90 60 -3 125 -11 144 -17 19 -7 51 -12 70 -12 45 0 88 -26 134 -83 31
-37 50 -50 104 -68 37 -12 87 -22 112 -21 25 0 51 -2 57 -6 7 -4 19 -34 27
-66 22 -83 39 -106 80 -106 40 0 90 20 129 50 32 25 36 73 11 121 -18 35 -11
66 21 91 12 10 28 38 34 63 9 35 18 48 44 61 17 9 42 25 53 36 12 10 49 26 83
34 106 24 117 34 144 121 14 43 23 83 20 90 -8 20 -48 26 -85 14 -22 -7 -46
-7 -73 -1 -22 5 -59 10 -81 10 -33 0 -43 4 -47 20 -3 10 0 26 7 35 9 13 17 14
40 5 25 -9 36 -6 80 18 97 55 127 143 50 146 -16 0 -75 -3 -131 -8 l-102 -8
-16 31 c-8 17 -28 38 -43 48 -49 30 -72 56 -72 80 0 13 -10 42 -22 63 l-23 39
23 43 c13 24 23 54 21 68 -6 63 0 81 34 95 46 19 77 56 83 101 3 21 13 60 22
87 13 39 14 53 3 82 -9 25 -9 40 -2 54 6 11 11 77 11 147 0 120 -2 130 -30
191 -16 34 -30 70 -30 78 0 28 -50 116 -91 160 -21 23 -39 51 -39 62 0 29 -36
71 -78 91 -26 12 -39 26 -46 50 -5 19 -24 45 -42 58 -44 34 -63 65 -80 130
-19 73 -18 91 6 121 11 14 20 39 20 55 0 27 42 200 72 293 7 23 30 64 52 93
71 98 87 160 95 382 5 166 9 200 26 230 16 28 21 64 26 185 8 174 18 294 27
315 3 8 6 107 7 220 2 179 0 214 -18 273 -15 55 -17 74 -8 93 6 14 11 71 11
128 0 126 -18 174 -96 256 -33 35 -65 82 -84 125 -17 39 -44 84 -59 100 -16
17 -41 50 -56 75 -15 25 -47 66 -71 92 -24 26 -44 52 -44 58 0 5 -24 26 -54
45 -71 45 -151 136 -166 188 -20 72 -73 149 -133 195 -36 27 -59 54 -63 70 -4
15 -18 54 -31 87 -22 51 -23 64 -14 96 18 59 13 120 -13 165 -22 39 -23 45
-15 175 7 137 16 196 30 214 4 6 11 45 15 88 8 89 -1 107 -51 107 -38 0 -62
-24 -71 -71 -4 -19 -15 -68 -26 -109 -31 -124 -62 -132 -98 -25 -16 49 -21 79
-16 112 9 70 -5 242 -21 259 -16 16 -41 18 -64 4z m-55 -4111 c19 -15 26 -30
26 -54 0 -47 -8 -64 -41 -80 -42 -22 -67 -18 -100 14 -36 36 -37 70 -3 110 31
38 78 41 118 10z m-501 -41 c54 -28 63 -89 21 -132 -35 -35 -79 -35 -116 1
-37 35 -37 77 -1 115 28 30 61 35 96 16z"/>
</g>
</svg>
