<?xml version="1.0" standalone="no"?>
<!DOCTYPE svg PUBLIC "-//W3C//DTD SVG 20010904//EN"
 "http://www.w3.org/TR/2001/REC-SVG-20010904/DTD/svg10.dtd">
<svg version="1.0" xmlns="http://www.w3.org/2000/svg"
 width="979.000000pt" height="1280.000000pt" viewBox="0 0 979.000000 1280.000000"
 preserveAspectRatio="xMidYMid meet">
<metadata>
Created by potrace 1.15, written by Peter Selinger 2001-2017
</metadata>
<g transform="translate(0.000000,1280.000000) scale(0.100000,-0.100000)"
fill="#000000" stroke="none">
<path d="M5256 12749 c-176 -63 -384 -116 -506 -130 -212 -25 -528 -118 -726
-214 -254 -123 -401 -285 -447 -490 -9 -38 -26 -114 -37 -169 -13 -55 -36
-126 -55 -161 -46 -89 -55 -118 -70 -228 -11 -83 -18 -106 -45 -143 -19 -27
-34 -63 -37 -87 -7 -54 -52 -144 -114 -228 -27 -36 -62 -95 -78 -130 -29 -62
-37 -97 -62 -299 -6 -54 -24 -130 -41 -175 -26 -69 -29 -90 -26 -155 6 -90 28
-140 118 -255 136 -174 143 -251 39 -412 -54 -82 -79 -166 -79 -260 0 -66 4
-82 30 -129 17 -29 55 -122 83 -206 54 -157 88 -224 182 -362 30 -43 59 -95
65 -115 35 -125 -19 -489 -101 -687 -26 -63 -33 -94 -33 -149 -1 -87 23 -134
135 -268 80 -94 129 -176 129 -213 0 -31 33 -55 87 -65 35 -7 56 -18 79 -43
34 -38 72 -51 174 -62 115 -12 131 -27 86 -81 -36 -43 -111 -79 -204 -98 -46
-9 -100 -23 -119 -32 -27 -11 -55 -13 -107 -8 -96 9 -285 39 -435 70 -68 14
-140 25 -160 25 -40 0 -81 -23 -81 -45 0 -24 -49 -73 -80 -80 -16 -4 -59 -29
-96 -56 -94 -69 -215 -105 -424 -124 -94 -9 -215 9 -306 45 -144 57 -212 51
-296 -28 -64 -60 -121 -148 -212 -330 -145 -290 -217 -468 -236 -586 -5 -34
-14 -168 -19 -297 -11 -261 -24 -348 -81 -560 -47 -171 -92 -430 -115 -660
-79 -809 -133 -1105 -253 -1404 -67 -168 -136 -446 -181 -734 -7 -44 -28 -110
-50 -160 -78 -174 -229 -662 -236 -761 -3 -48 -7 -57 -29 -68 -15 -7 -33 -24
-42 -37 -46 -71 -156 -461 -158 -564 -1 -42 3 -55 16 -62 10 -5 26 -13 35 -18
10 -4 18 -19 18 -32 0 -24 -1 -25 -93 -49 -31 -8 -46 -18 -52 -36 -15 -39 -12
-80 9 -105 18 -23 27 -24 143 -27 141 -4 198 7 236 46 28 30 124 225 141 287
17 64 13 103 -14 139 -30 40 -34 91 -6 99 30 7 42 -7 57 -64 8 -30 19 -55 24
-57 29 -10 51 -42 59 -84 10 -57 46 -107 109 -153 91 -67 145 -69 182 -10 26
42 18 57 -39 81 -51 21 -89 62 -103 109 -15 50 -13 233 2 300 6 28 18 61 27
74 15 24 16 24 30 6 7 -11 18 -36 24 -57 13 -50 60 -103 117 -131 26 -13 53
-36 62 -52 11 -23 42 -43 123 -83 121 -59 125 -65 82 -138 -37 -63 -118 -128
-204 -165 -42 -18 -92 -44 -111 -59 -19 -15 -51 -35 -70 -46 l-35 -18 75 -9
c95 -11 714 -1 799 13 92 15 113 30 151 102 18 35 51 90 73 123 51 76 56 116
26 236 -19 80 -22 115 -19 234 7 295 5 309 -56 448 -19 43 -34 94 -34 114 0
22 -21 84 -50 152 -66 154 -84 210 -114 344 -92 415 -84 995 20 1464 30 134
46 176 79 205 35 30 31 44 -15 68 -55 28 -61 57 -44 211 7 68 18 264 24 434
20 578 25 613 76 547 58 -73 97 -61 147 46 46 101 82 149 121 162 43 14 62 36
70 80 7 39 65 132 121 195 l36 40 -8 -40 c-11 -56 -8 -119 7 -157 37 -94 107
-167 149 -153 10 3 80 71 156 150 75 80 151 152 169 160 18 9 77 57 132 108
108 100 162 142 171 133 25 -25 -199 -425 -319 -568 -45 -54 -128 -118 -152
-118 -41 0 -35 -94 10 -162 14 -22 44 -48 72 -62 55 -28 120 -90 128 -123 4
-13 3 -39 0 -59 -7 -34 -6 -35 14 -24 28 15 72 5 143 -33 54 -28 117 -86 117
-107 0 -16 -65 -59 -151 -99 -88 -41 -223 -85 -373 -120 -130 -30 -163 -58
-105 -89 37 -20 185 -8 320 27 64 16 139 33 168 37 52 7 69 20 122 96 11 15
27 23 46 24 43 1 53 11 53 50 0 19 7 67 16 105 9 39 14 73 11 75 -3 3 -15 -11
-27 -30 -26 -42 -40 -46 -40 -11 0 56 -65 138 -179 227 -99 77 -160 138 -171
173 -13 40 20 156 55 191 31 31 51 23 121 -47 48 -48 64 -59 92 -59 65 0 199
87 303 197 73 77 103 130 93 166 -6 27 28 118 53 139 30 24 35 -11 29 -222
-18 -632 -86 -1711 -122 -1904 -8 -45 -19 -106 -24 -136 -5 -30 -14 -192 -20
-360 -14 -434 -28 -691 -50 -960 -46 -544 -107 -995 -140 -1035 -9 -11 -15
-54 -40 -325 -6 -63 -18 -144 -26 -179 -24 -107 -14 -115 140 -109 120 4 126
10 161 142 15 58 37 118 55 144 16 25 32 64 35 91 11 81 25 133 66 228 21 51
43 114 49 140 5 27 14 75 20 108 7 33 43 133 81 223 87 203 145 375 158 470 5
40 17 83 25 95 9 12 23 32 32 44 9 12 20 54 25 94 5 40 27 124 50 188 111 313
247 727 267 816 28 119 31 126 65 143 21 10 25 17 18 30 -11 22 0 83 33 179
31 91 53 197 61 293 4 53 15 93 36 138 35 74 51 146 74 327 35 284 56 383 101
487 30 69 155 473 183 592 15 63 49 129 127 247 35 53 73 117 84 142 23 51 71
116 170 227 94 106 158 196 170 239 11 41 53 105 147 223 118 148 259 379 364
595 65 134 139 341 139 388 -1 29 -1 29 -16 10 -8 -11 -73 -135 -144 -275
-206 -406 -370 -669 -504 -805 -172 -175 -484 -628 -520 -756 -24 -82 -135
-247 -157 -234 -5 4 -9 26 -9 51 0 65 -31 144 -96 241 -81 120 -80 136 15 224
76 71 121 124 121 146 0 22 -16 15 -77 -36 -78 -65 -118 -84 -159 -78 -40 7
-43 0 -31 -68 18 -99 -6 -109 -88 -35 -46 42 -59 49 -74 40 -58 -31 -281 -385
-331 -528 -13 -34 -26 -62 -29 -62 -3 0 -22 45 -41 100 -19 55 -37 100 -40
100 -15 0 -85 -227 -126 -405 -49 -220 -65 -365 -44 -414 7 -17 17 -31 22 -31
30 0 116 135 160 252 25 67 31 99 32 168 0 47 -3 107 -8 134 l-9 49 47 -6 c44
-6 49 -5 81 28 20 19 41 32 49 29 41 -16 100 -257 94 -385 -3 -75 -5 -83 -33
-106 -24 -22 -36 -25 -74 -20 -25 3 -55 9 -66 12 -13 5 -9 -2 13 -20 17 -14
32 -35 32 -45 0 -10 -21 -46 -47 -81 -52 -72 -322 -349 -339 -349 -20 0 -24
69 -24 441 0 486 16 678 64 754 28 44 47 126 57 240 12 141 24 187 47 183 21
-4 41 -59 41 -115 1 -44 14 -62 28 -41 4 7 10 193 13 413 5 418 8 445 49 445
30 0 38 20 44 115 7 97 44 250 77 315 44 86 50 54 60 -300 5 -170 13 -301 20
-325 19 -63 66 -151 146 -272 96 -146 126 -166 153 -107 18 39 13 94 -14 175
-28 80 -30 144 -5 144 8 0 29 -28 47 -64 36 -73 75 -117 93 -106 18 11 6 68
-46 207 -38 101 -47 139 -52 210 -6 102 6 139 47 155 21 8 31 20 37 48 12 47
39 57 134 49 47 -5 82 -2 127 11 67 19 135 67 118 83 -6 6 -93 12 -195 15
-184 4 -243 14 -254 42 -12 31 21 38 148 31 175 -10 193 0 319 181 80 114 133
170 191 203 70 41 110 39 176 -6 28 -19 54 -33 57 -31 2 3 -1 32 -8 66 -6 33
-9 85 -7 115 4 45 12 64 44 104 21 27 95 121 164 208 142 181 231 274 262 274
18 0 20 4 15 33 -3 17 -8 40 -12 50 -11 27 26 21 71 -11 61 -45 67 -56 61
-111 -10 -81 -95 -326 -158 -452 -53 -104 -72 -131 -160 -224 -63 -66 -99
-112 -97 -123 3 -13 18 -18 72 -24 38 -4 73 -11 78 -16 13 -13 -22 -80 -111
-214 -161 -244 -308 -428 -530 -663 -161 -170 -257 -283 -248 -292 4 -3 35 8
70 25 44 22 107 72 212 169 280 256 355 350 544 675 69 117 166 278 216 358
50 80 104 175 120 213 35 79 67 117 100 117 30 0 85 -46 85 -71 0 -26 19 -24
60 6 40 30 61 31 83 7 33 -37 16 -92 -28 -92 -43 0 -79 -58 -120 -195 -64
-213 -80 -257 -145 -390 -46 -94 -95 -220 -148 -380 -86 -258 -110 -320 -144
-367 -19 -28 -25 -30 -70 -26 -37 4 -55 1 -71 -12 -18 -15 -19 -20 -8 -34 8
-9 29 -16 51 -16 65 0 74 -21 66 -152 -10 -179 -51 -347 -134 -554 -70 -174
-80 -282 -27 -306 13 -6 30 -8 38 -5 22 8 71 144 111 309 61 247 114 397 136
383 14 -9 12 -124 -5 -260 -19 -151 -19 -275 0 -390 21 -126 19 -177 -5 -208
-12 -14 -71 -56 -133 -93 -62 -37 -141 -90 -177 -118 -54 -42 -72 -50 -103
-49 -42 1 -74 -24 -151 -120 -21 -27 -53 -55 -71 -64 -31 -15 -36 -15 -59 1
-14 9 -42 48 -61 87 -41 80 -77 107 -101 74 -43 -59 7 -156 169 -323 176 -181
242 -228 510 -363 251 -126 307 -143 307 -97 0 30 -92 117 -160 150 -30 15
-103 49 -162 77 -164 77 -328 198 -328 242 0 22 29 39 67 39 57 0 237 128 430
305 121 112 169 184 178 267 18 159 119 364 169 345 22 -9 45 2 57 26 9 17 7
23 -11 37 -32 24 -39 78 -40 312 0 246 14 433 40 543 32 131 54 436 66 943 6
207 10 275 20 283 39 32 58 -21 78 -213 8 -75 20 -149 28 -164 9 -20 29 -34
68 -49 43 -16 60 -29 76 -59 41 -72 64 -241 64 -474 0 -241 29 -419 72 -446
46 -28 55 26 68 404 11 331 20 412 49 450 10 14 48 41 84 60 101 53 111 39
147 -203 28 -183 53 -288 101 -415 45 -118 51 -172 18 -172 -33 0 -70 32 -152
133 -73 90 -113 127 -137 127 -21 0 -8 -33 75 -195 47 -91 85 -176 85 -188 0
-28 -15 -47 -54 -72 l-30 -18 37 -33 c20 -19 43 -34 52 -34 8 0 23 17 32 38
27 57 65 70 236 83 209 15 223 9 378 -154 l95 -100 135 159 c233 273 320 391
335 448 20 82 -122 -48 -335 -306 l-121 -148 -93 94 c-101 102 -146 126 -239
126 -91 0 -111 21 -143 149 -22 85 -23 140 -5 151 38 25 131 0 275 -73 55 -27
118 -54 139 -58 62 -11 131 13 334 116 250 128 299 134 424 52 70 -46 99 -59
163 -73 62 -14 76 -40 153 -284 78 -246 168 -423 273 -535 36 -38 71 -80 78
-92 6 -12 11 -65 11 -118 0 -173 -75 -833 -120 -1049 -23 -111 -26 -196 -8
-214 20 -20 41 -14 111 28 150 91 182 58 141 -143 -18 -86 -15 -252 6 -387 5
-36 14 -242 19 -459 6 -217 13 -397 18 -401 4 -4 55 -20 113 -34 169 -44 180
-56 180 -193 0 -119 -19 -156 -119 -232 -324 -247 -943 -963 -883 -1023 18
-18 65 25 187 175 217 265 582 639 712 728 63 44 88 45 163 10 36 -17 70 -31
76 -31 7 0 15 19 18 43 8 52 33 400 41 562 3 66 8 135 11 154 l5 34 -106 -6
c-83 -5 -118 -11 -160 -31 -30 -14 -55 -30 -55 -35 0 -22 -21 -10 -31 17 -18
46 -38 251 -39 390 0 126 1 135 24 165 93 122 129 447 79 712 -21 113 -42 154
-122 239 -49 51 -73 87 -82 117 -10 33 -13 165 -14 534 0 468 -1 493 -21 557
-27 85 -66 150 -159 261 -79 96 -134 190 -159 277 -32 112 -172 307 -289 403
-82 67 -126 81 -257 80 -130 0 -270 -19 -510 -69 -177 -36 -289 -43 -343 -20
-40 16 -89 71 -121 135 -38 74 -73 111 -106 111 -31 0 -40 14 -40 68 -1 107
-110 212 -276 266 -28 9 -116 25 -197 36 -196 26 -213 35 -266 151 -41 92 -71
214 -81 338 -13 155 -28 191 -145 351 -90 123 -130 190 -169 283 -16 38 -49
92 -73 120 -79 93 -83 191 -13 323 38 73 41 84 38 144 -3 64 -3 65 22 62 77
-8 108 -4 156 21 111 57 203 151 225 229 7 27 34 65 83 117 140 151 338 537
366 718 6 37 28 122 50 188 58 179 64 221 64 490 0 330 -18 447 -107 699 -20
54 -38 128 -41 165 -12 130 -28 197 -68 284 -48 107 -64 160 -83 293 -8 56
-23 124 -33 152 -75 198 -259 403 -507 567 -128 85 -659 372 -724 392 -67 20
-94 16 -245 -38z m79 -163 c16 -12 17 -16 6 -30 -16 -19 -73 -36 -122 -36 -41
0 -156 -33 -272 -78 -43 -17 -124 -42 -180 -57 -127 -33 -207 -72 -289 -140
-102 -83 -149 -153 -163 -239 -4 -25 -17 -48 -38 -67 l-31 -29 47 0 c42 0 53
5 92 41 43 40 74 48 83 21 2 -7 -16 -32 -40 -56 -35 -35 -54 -46 -101 -56 -68
-14 -81 -32 -74 -103 3 -40 10 -56 31 -72 53 -42 3 -80 -124 -95 -126 -14
-342 -97 -357 -137 -7 -18 29 -52 91 -84 47 -25 86 -23 211 14 56 17 145 32
233 41 172 16 177 19 186 114 9 81 32 137 85 200 45 53 80 125 81 162 1 87
152 277 240 300 54 15 188 4 497 -41 239 -34 264 -32 314 30 17 22 39 41 49
44 21 5 80 -21 192 -85 43 -25 103 -53 134 -63 46 -14 72 -33 151 -108 139
-133 362 -392 429 -499 61 -96 -5 -111 -96 -22 -20 19 -39 34 -43 34 -4 0 17
-36 47 -79 72 -105 83 -139 62 -192 -21 -52 -11 -90 54 -213 56 -105 76 -178
60 -220 -9 -26 -13 -28 -48 -21 -20 4 -41 7 -47 8 -11 2 -10 -2 11 -82 10 -36
18 -135 23 -281 10 -274 20 -308 87 -274 16 9 41 27 56 41 35 33 48 23 48 -38
0 -66 -30 -99 -90 -99 -22 0 -57 -7 -76 -15 -28 -11 -35 -19 -32 -37 3 -20 10
-23 53 -26 54 -4 85 -24 85 -55 0 -37 -29 -57 -81 -57 l-48 0 24 -36 c34 -50
48 -131 43 -253 -7 -170 -62 -294 -192 -439 -75 -83 -104 -133 -113 -197 -3
-26 -18 -62 -33 -84 -51 -70 -199 -152 -278 -155 -68 -2 -75 14 -68 159 7 122
-2 168 -24 135 -17 -25 -39 -109 -61 -225 -38 -201 -77 -346 -104 -385 -16
-23 -30 -61 -35 -96 -11 -78 -32 -138 -90 -259 -56 -118 -101 -182 -136 -195
-45 -17 -106 -65 -219 -170 -111 -104 -181 -160 -197 -160 -14 0 6 29 78 115
70 83 114 162 114 206 0 40 29 118 67 181 19 31 32 61 28 67 -14 24 -95 5 -95
-23 0 -7 -23 -48 -51 -90 -89 -136 -248 -479 -279 -602 -14 -58 -48 -78 -130
-79 -57 0 -70 4 -103 29 -21 16 -40 26 -44 23 -3 -4 0 -34 6 -67 16 -79 8
-112 -37 -151 -86 -76 -219 -109 -436 -109 -265 0 -446 58 -446 144 0 29 -38
88 -53 83 -7 -2 -10 -11 -8 -18 10 -39 13 -89 5 -89 -5 0 -33 9 -62 20 -29 11
-63 20 -77 20 -30 0 -55 34 -55 78 0 24 -8 41 -29 60 -16 15 -35 41 -44 57
-26 54 -58 198 -63 290 -5 81 -3 94 18 130 18 30 34 43 65 53 63 20 69 68 12
97 -24 13 -29 22 -29 53 0 21 11 75 24 119 13 45 30 116 36 160 23 157 35 182
188 383 34 45 65 94 68 108 12 49 46 94 106 138 79 58 117 65 167 29 22 -14
57 -52 79 -83 50 -71 76 -95 98 -90 29 5 36 59 19 133 -21 91 -55 153 -130
237 -36 39 -65 77 -65 84 0 35 87 57 131 33 27 -14 49 4 49 41 0 15 9 38 19
51 26 32 48 18 72 -46 21 -54 83 -145 99 -145 16 0 11 62 -9 105 -27 60 -107
162 -131 170 -17 5 -30 -1 -54 -24 -29 -29 -37 -31 -74 -25 -37 6 -45 3 -76
-24 -25 -21 -49 -32 -88 -37 -29 -4 -59 -12 -65 -17 -8 -7 -12 -34 -11 -77 2
-87 -30 -146 -111 -199 -23 -15 -25 -14 -55 19 -17 19 -40 48 -51 63 -27 38
-49 30 -101 -36 -76 -98 -79 -106 -79 -268 0 -131 -2 -149 -23 -187 -12 -24
-27 -43 -32 -43 -5 0 -16 13 -25 29 -22 43 -65 198 -65 235 0 18 -6 40 -12 49
-11 15 -17 16 -46 5 -27 -11 -37 -10 -59 2 -77 44 -113 247 -79 442 19 106 50
167 139 278 43 52 82 111 88 130 16 49 23 53 50 31 27 -21 31 -70 15 -170 l-9
-54 44 6 c24 4 57 9 73 13 22 5 28 4 24 -7 -7 -21 -67 -59 -114 -70 -62 -16
-93 -54 -106 -131 -13 -76 -6 -114 24 -124 31 -10 98 -8 108 2 5 5 -7 34 -28
68 -35 57 -36 58 -17 73 29 21 123 46 174 47 43 1 45 0 54 -34 26 -109 42
-145 99 -224 33 -48 62 -85 64 -83 2 2 -10 82 -26 178 -38 225 -47 324 -30
344 24 29 75 18 120 -23 48 -47 50 -69 8 -103 -42 -35 -34 -64 18 -56 44 7
134 72 134 97 0 20 -32 47 -152 129 -43 30 -78 55 -78 57 0 2 59 33 131 69 84
43 140 65 157 63 19 -2 37 -19 64 -57 21 -30 38 -63 38 -73 0 -11 -15 -27 -35
-39 -19 -12 -35 -25 -35 -29 0 -5 28 -18 63 -29 82 -28 88 -32 96 -72 l7 -33
42 43 c60 62 57 81 -29 182 -125 144 -154 249 -70 249 18 0 42 18 83 60 31 33
59 60 62 60 3 0 6 -42 6 -92 0 -134 22 -237 55 -266 34 -29 69 -26 73 6 2 13
10 26 18 29 25 9 99 -25 162 -76 65 -52 98 -66 177 -76 94 -11 135 -27 178
-67 54 -53 84 -71 102 -64 11 4 14 13 10 29 -6 24 6 39 79 90 51 35 71 92 71
197 0 123 -19 173 -97 257 -63 68 -74 105 -31 111 20 3 25 -2 94 -90 11 -15
28 -21 62 -23 25 -1 53 -7 61 -14 8 -7 32 -47 51 -89 44 -94 58 -106 95 -87
14 7 32 21 39 29 26 31 31 15 7 -21 -30 -46 -45 -108 -46 -188 0 -69 17 -110
45 -110 14 0 24 11 32 35 8 26 16 34 32 33 12 -2 25 5 31 16 12 23 30 174 30
252 0 66 -4 69 -89 69 -82 0 -156 40 -259 139 -45 44 -82 86 -82 95 0 14 54
36 88 36 50 0 -62 92 -174 141 -67 30 -219 66 -309 74 -104 9 -168 -6 -207
-47 l-29 -31 -162 7 -161 7 22 -24 c26 -28 43 -78 35 -106 -3 -11 -19 -29 -37
-39 -21 -12 -45 -44 -70 -91 -73 -139 -164 -147 -249 -24 -77 112 -144 168
-336 282 -58 34 -123 78 -144 98 -30 26 -46 34 -66 30 -270 -48 -388 -61 -421
-44 -32 16 -36 45 -14 115 25 78 179 386 249 497 108 170 137 246 149 390 15
178 130 402 285 556 52 51 96 84 136 103 111 51 130 63 146 95 l17 32 22 -31
c27 -38 45 -38 58 -1 23 66 248 177 562 279 274 88 443 119 485 88z m-111
-252 c32 -12 3 -24 -60 -24 -91 0 -85 26 8 29 20 0 43 -2 52 -5z m-634 -154
c0 -22 -12 -43 -41 -75 -23 -25 -45 -45 -50 -45 -26 0 3 83 44 128 29 31 47
28 47 -8z m-1252 -1843 c2 -14 -3 -40 -11 -58 -22 -52 -90 -139 -109 -139 -18
0 -38 47 -38 92 0 52 55 135 100 151 23 7 55 -17 58 -46z m1941 -32 c44 -10
55 -27 41 -69 -18 -55 -31 -61 -98 -46 -31 7 -86 22 -122 33 l-65 20 53 12
c65 15 91 37 99 87 l6 39 28 -35 c16 -19 42 -37 58 -41z m-1471 -27 c5 -28
-43 -50 -118 -56 -38 -2 -77 -1 -87 2 -16 7 -14 10 12 23 94 50 187 65 193 31z
m956 -24 c35 -13 8 -66 -57 -114 -23 -16 -45 -30 -49 -30 -27 0 17 97 58 129
30 24 27 23 48 15z m-1234 -118 c0 -21 -72 -109 -103 -125 -29 -15 -57 -9 -57
12 0 27 115 124 148 126 6 1 12 -5 12 -13z m1509 -140 c26 -28 21 -46 -13 -46
-28 0 -46 18 -46 47 0 31 30 30 59 -1z m-665 -3407 c30 -23 34 -44 10 -53 -38
-14 -80 31 -59 63 9 16 19 14 49 -10z m57 -146 c11 -29 5 -73 -10 -73 -13 0
-21 39 -14 71 7 36 11 36 24 2z m-961 2 c0 -63 -337 -435 -394 -435 -30 0 -40
33 -21 71 40 75 240 274 352 348 52 35 63 38 63 16z m2684 -31 c23 -22 21 -28
-29 -84 -60 -67 -64 -77 -80 -183 -20 -134 -45 -187 -87 -187 -44 0 -43 97 3
146 29 31 37 77 25 147 -12 78 4 131 47 157 39 24 100 26 121 4z m-4263 -55
c22 -24 33 -29 51 -23 75 25 87 -11 33 -101 -36 -60 -92 -125 -107 -125 -4 0
-8 24 -8 54 0 30 -5 58 -11 61 -25 16 -97 -84 -174 -241 -91 -188 -134 -259
-148 -245 -22 22 63 311 126 422 69 124 160 228 200 229 5 0 22 -14 38 -31z
m559 -61 c0 -20 -151 -159 -169 -156 -27 5 -24 44 6 77 28 31 127 90 151 91 6
0 12 -6 12 -12z m960 -391 c0 -27 -46 -101 -83 -136 -23 -21 -27 -22 -33 -7
-8 22 41 120 73 146 33 26 43 25 43 -3z m-670 -155 c0 -79 -342 -427 -390
-397 -6 4 -28 4 -48 0 -30 -5 -69 -39 -223 -191 -103 -101 -193 -184 -199
-184 -22 0 30 126 134 325 145 276 198 347 273 361 20 4 94 4 163 0 153 -7
179 0 221 60 31 46 69 60 69 26z m-1232 -171 c2 -41 -4 -135 -13 -210 -43
-373 -39 -496 21 -619 32 -65 36 -81 35 -150 0 -82 -19 -163 -38 -169 -26 -9
-69 123 -104 322 -26 147 -38 506 -21 632 18 130 76 280 106 270 6 -2 12 -33
14 -76z m1695 15 c-2 -34 -29 -66 -55 -66 -25 0 -24 40 3 74 27 35 55 30 52
-8z m1106 -842 c50 -78 84 -173 85 -239 1 -54 -1 -60 -19 -60 -44 0 -135 198
-135 294 0 68 29 70 69 5z m296 -353 c12 -55 -38 -132 -67 -103 -15 15 -11
100 7 128 13 20 19 22 35 14 10 -5 21 -23 25 -39z m-3325 -115 c52 -113 73
-195 73 -291 1 -82 -12 -125 -38 -125 -17 0 -18 7 -15 73 1 38 -4 56 -24 85
-17 25 -29 61 -36 107 -10 75 -14 235 -4 235 3 0 23 -38 44 -84z m2780 -214
c0 -18 -170 -231 -234 -291 -82 -79 -40 10 69 146 83 104 165 176 165 145z
m-4 -527 c92 -31 180 -75 224 -111 30 -26 31 -29 14 -41 -39 -28 -120 -9 -145
36 -12 21 -36 36 -88 56 -80 30 -118 56 -107 73 10 16 17 15 102 -13z m-2693
-286 c24 -33 32 -124 22 -244 -4 -47 -9 -85 -11 -82 -13 13 -67 233 -72 290
-5 67 -4 69 18 65 13 -1 32 -15 43 -29z m-283 -69 c11 -22 38 -104 61 -182 42
-149 75 -223 98 -223 10 0 14 -18 15 -70 1 -65 4 -75 38 -122 78 -109 98 -175
99 -336 0 -56 4 -151 9 -212 10 -132 3 -145 -79 -153 -78 -7 -82 0 -74 129 6
105 5 111 -18 142 -20 27 -24 48 -29 132 -5 87 -10 109 -37 160 -52 101 -96
283 -122 510 -12 101 -14 248 -4 258 13 14 23 6 43 -33z m3150 -100 c13 -24 4
-60 -15 -60 -15 0 -45 43 -45 65 0 23 47 19 60 -5z m-173 -306 c6 -17 -42 -68
-55 -60 -16 9 -15 49 0 64 15 15 50 12 55 -4z m-3133 -264 c10 -26 20 -96 25
-188 5 -81 16 -169 25 -196 16 -53 60 -106 87 -106 37 0 75 -75 134 -260 32
-100 82 -200 101 -200 7 0 17 14 22 32 12 47 38 59 63 29 10 -13 19 -34 19
-46 0 -36 11 -56 36 -65 32 -13 87 -92 122 -175 40 -95 47 -139 27 -159 -51
-51 -284 -69 -361 -28 -59 30 -138 124 -185 216 -38 76 -40 83 -34 145 11 109
-61 488 -100 531 -37 41 -75 202 -82 345 -5 102 -4 112 17 138 33 41 64 36 84
-13z m3007 7 c51 -39 58 -95 21 -159 -26 -44 -39 -34 -56 41 -19 84 -20 103
-4 119 15 15 19 15 39 -1z m139 -203 c0 -59 -15 -94 -40 -94 -45 0 -51 99 -9
141 29 29 49 9 49 -47z m-3295 -668 c15 -19 56 -106 91 -193 69 -168 92 -210
156 -279 66 -72 131 -106 240 -129 15 -3 39 -17 52 -32 22 -24 32 -26 85 -25
78 2 98 -14 110 -88 16 -95 -8 -179 -62 -227 -85 -74 -254 -58 -286 27 -6 17
-16 45 -23 63 -7 17 -67 88 -134 157 -174 179 -204 248 -224 507 -10 127 -24
173 -55 173 -17 0 -28 33 -20 60 10 30 41 24 70 -14z m905 -1006 c15 -28 -4
-60 -35 -60 -14 0 -29 8 -35 20 -15 28 4 60 35 60 14 0 29 -8 35 -20z"/>
<path d="M5930 11790 c-15 -28 4 -60 35 -60 14 0 29 8 35 20 15 28 -4 60 -35
60 -14 0 -29 -8 -35 -20z"/>
<path d="M6119 11742 c-66 -34 -74 -52 -22 -51 80 1 143 44 101 70 -19 12 -20
12 -79 -19z"/>
<path d="M5833 11579 c-49 -50 -103 -98 -122 -106 -31 -13 -36 -13 -53 5 -13
13 -21 39 -25 81 -7 76 -18 70 -59 -31 -42 -105 -39 -160 13 -263 55 -110 76
-178 71 -230 -6 -47 -2 -58 24 -68 19 -7 38 -65 38 -115 0 -52 25 -89 78 -116
64 -32 71 -43 88 -123 24 -117 129 -303 170 -303 42 0 41 128 -1 168 -14 12
-26 24 -27 25 0 1 -4 133 -7 294 -3 160 -10 295 -14 300 -18 17 -36 -32 -42
-115 -8 -97 -17 -122 -44 -122 -47 0 -62 65 -49 215 10 101 9 117 -6 140 -9
14 -23 25 -30 25 -18 0 -27 23 -15 41 14 22 11 29 -16 41 -14 6 -25 15 -25 19
0 5 33 41 74 82 91 91 108 122 104 190 -5 79 -23 74 -125 -34z"/>
<path d="M6466 11652 c-11 -32 42 -119 57 -95 7 11 -19 83 -36 101 -13 12 -16
12 -21 -6z"/>
<path d="M6079 11595 c-94 -25 -89 -45 11 -45 76 0 120 12 120 34 0 28 -53 33
-131 11z"/>
<path d="M4858 11433 c-15 -33 -24 -76 -28 -138 -6 -102 -6 -102 -112 -104
-70 -1 -83 -16 -26 -31 95 -25 119 -30 273 -55 216 -35 344 -69 440 -116 85
-41 104 -45 136 -29 33 18 22 45 -51 125 -38 42 -70 83 -70 90 0 9 14 15 37
17 46 4 51 17 17 57 -42 50 -91 69 -206 80 -163 16 -317 68 -363 123 l-25 30
-22 -49z"/>
<path d="M5896 11355 c-18 -19 -20 -43 -6 -65 9 -13 14 -11 36 14 14 15 24 36
22 45 -4 22 -32 25 -52 6z"/>
<path d="M6519 11314 c-10 -12 -8 -20 8 -41 24 -33 41 -39 49 -19 17 44 -30
92 -57 60z"/>
<path d="M4363 11189 c-83 -24 -25 -43 116 -38 93 4 132 19 101 39 -19 12
-174 11 -217 -1z"/>
<path d="M4040 11176 c-16 -20 -9 -60 11 -64 19 -4 53 44 45 64 -7 18 -40 18
-56 0z"/>
<path d="M4192 11179 c-33 -13 -18 -29 28 -29 41 0 62 16 39 31 -17 11 -37 10
-67 -2z"/>
<path d="M4316 11039 c36 -14 629 -58 789 -59 28 0 45 4 40 9 -17 14 -124 31
-270 41 -175 12 -584 18 -559 9z"/>
<path d="M4017 10875 c-173 -24 -251 -63 -249 -124 2 -70 38 -81 285 -81 244
0 457 23 457 49 0 17 -66 21 -305 21 -240 0 -335 6 -335 20 0 17 55 42 118 55
37 8 156 18 266 23 109 6 203 15 208 20 32 32 -256 42 -445 17z"/>
<path d="M4640 10851 c34 -20 184 -43 313 -48 224 -9 166 21 -93 47 -120 12
-240 13 -220 1z"/>
<path d="M6383 10823 c-3 -9 17 -86 45 -172 55 -166 67 -220 81 -373 5 -53 15
-106 21 -118 11 -21 13 -21 28 -6 26 26 22 206 -6 316 -74 278 -143 422 -169
353z"/>
<path d="M5815 10333 c9 -16 57 -67 106 -114 106 -102 143 -171 158 -293 5
-43 13 -82 19 -88 14 -14 36 0 56 34 45 75 -18 244 -133 358 -63 63 -170 130
-206 130 -16 0 -16 -1 0 -27z"/>
<path d="M4210 10298 c0 -44 29 -124 54 -147 25 -23 66 -26 73 -5 5 14 -98
166 -115 172 -7 2 -12 -6 -12 -20z"/>
<path d="M6346 10262 c-13 -40 56 -212 84 -212 16 0 11 64 -10 125 -32 94 -61
128 -74 87z"/>
<path d="M6548 9803 c-109 -121 -138 -150 -185 -185 -64 -47 -103 -116 -103
-183 0 -44 1 -45 29 -43 16 1 37 -4 46 -12 26 -21 65 -105 71 -153 6 -48 -6
-74 -99 -221 -31 -49 -57 -95 -57 -103 0 -31 46 -11 97 43 65 69 135 207 163
322 28 112 62 180 126 252 30 34 54 68 54 76 0 9 -11 25 -25 36 -23 18 -25 24
-19 68 5 39 2 58 -16 94 -12 25 -28 46 -35 46 -7 0 -28 -17 -47 -37z"/>
<path d="M6020 9511 c-5 -11 -10 -63 -10 -116 0 -130 21 -169 57 -102 33 63
14 237 -27 237 -5 0 -14 -9 -20 -19z"/>
<path d="M4545 9496 c-11 -8 -16 -22 -13 -41 2 -24 8 -31 30 -33 19 -2 30 3
38 17 20 39 -21 82 -55 57z"/>
<path d="M5451 9443 c-17 -14 -22 -26 -18 -37 6 -16 16 -17 76 -11 67 7 69 6
105 -26 32 -28 39 -30 52 -18 12 13 12 18 -2 37 -21 31 -86 62 -142 69 -37 4
-52 1 -71 -14z"/>
<path d="M4655 9418 c15 -53 160 -165 257 -199 30 -10 40 -10 52 0 36 30 1 91
-51 91 -17 0 -66 25 -127 65 -105 70 -142 81 -131 43z"/>
<path d="M5116 9355 c-6 -17 41 -78 55 -69 13 8 11 58 -3 72 -17 17 -45 15
-52 -3z"/>
<path d="M5886 9353 c-3 -3 -6 -19 -6 -35 0 -60 -74 -158 -120 -158 -10 0 -27
12 -38 27 -11 16 -23 25 -27 22 -3 -4 0 -46 7 -94 18 -128 22 -124 -205 -230
-115 -54 -131 -75 -115 -154 14 -65 25 -71 45 -25 l17 39 6 -45 c3 -25 2 -101
-2 -170 -3 -69 -6 -179 -7 -246 -1 -142 6 -161 61 -150 72 13 121 90 133 206
17 167 78 290 217 436 54 57 98 109 98 115 0 7 -14 25 -32 39 -28 24 -32 32
-31 78 0 35 10 72 33 119 37 79 40 125 11 181 -22 43 -34 55 -45 45z"/>
<path d="M5280 9312 c0 -28 238 -88 261 -65 8 8 -3 19 -37 39 -40 24 -62 29
-136 32 -57 3 -88 1 -88 -6z"/>
<path d="M5070 9195 c0 -47 39 -88 78 -83 64 7 18 118 -50 118 -25 0 -28 -3
-28 -35z"/>
<path d="M4682 9140 c-45 -19 -39 -69 9 -80 23 -6 31 -21 44 -83 4 -18 18 -35
40 -49 27 -15 44 -40 74 -102 48 -101 58 -110 111 -101 37 6 41 5 50 -20 5
-14 10 -44 10 -65 0 -51 14 -57 56 -25 44 34 74 30 91 -13 13 -32 13 -34 -22
-64 -66 -59 -57 -140 26 -209 38 -32 49 -47 49 -70 0 -39 -10 -36 -43 13 -41
59 -53 40 -49 -80 4 -157 29 -279 52 -256 5 5 14 43 20 84 13 83 31 120 59
120 28 0 41 22 48 80 4 38 14 62 35 85 35 41 36 75 3 189 -34 116 -71 190 -92
182 -19 -8 -33 10 -33 40 0 70 -268 347 -401 414 -40 21 -99 25 -137 10z"/>
<path d="M4570 8979 c0 -19 120 -136 164 -160 71 -37 105 0 49 54 -77 73 -213
141 -213 106z"/>
<path d="M4012 8697 c-14 -16 22 -81 41 -74 20 6 21 59 1 74 -22 16 -29 16
-42 0z"/>
<path d="M4405 8640 c-11 -18 5 -97 24 -122 16 -19 21 -20 35 -9 23 19 20 62
-6 101 -25 37 -43 47 -53 30z"/>
<path d="M4796 8608 c23 -76 223 -272 250 -245 14 13 -105 172 -175 234 -44
40 -86 45 -75 11z"/>
<path d="M4750 8426 c0 -8 23 -41 50 -72 53 -61 57 -69 63 -151 3 -36 13 -66
35 -101 33 -50 39 -76 23 -87 -9 -5 -36 19 -123 113 -60 64 -154 112 -235 119
-47 4 -61 2 -72 -11 -20 -24 10 -53 62 -61 63 -10 77 -15 77 -30 0 -24 -31
-45 -66 -45 -46 0 -82 -20 -117 -64 -15 -20 -36 -36 -46 -36 -38 0 -41 59 -7
156 21 59 23 72 12 89 -27 41 -208 73 -234 42 -6 -7 -14 -39 -18 -70 -8 -71
-23 -94 -50 -79 -20 11 -36 42 -68 134 -24 65 -57 98 -100 98 -58 0 -75 -56
-31 -104 30 -32 40 -66 30 -103 -11 -46 -33 -73 -61 -73 -21 0 -29 9 -45 48
-41 100 -53 117 -79 117 -33 0 -70 -56 -70 -107 0 -24 12 -60 30 -95 17 -31
30 -68 30 -82 1 -63 61 -143 155 -205 62 -41 81 -36 100 26 19 66 40 88 81 88
55 0 74 -36 74 -136 0 -103 10 -107 70 -28 29 38 47 54 61 52 10 -2 40 -30 66
-63 57 -71 108 -107 143 -103 20 2 26 9 28 36 3 29 0 35 -27 45 -29 11 -51 43
-51 75 0 22 27 62 42 62 6 0 34 -25 63 -55 53 -55 53 -55 114 -55 86 0 142 28
180 91 23 36 39 50 63 57 57 14 70 55 65 197 -6 159 -31 239 -95 307 -62 67
-122 98 -122 64z m-2 -579 c9 -10 7 -19 -4 -36 -33 -47 -94 -44 -94 4 0 13 8
29 18 34 24 15 68 13 80 -2z"/>
<path d="M3645 7721 c14 -105 156 -297 254 -344 32 -15 47 -29 49 -44 4 -30
26 -29 97 3 63 29 119 29 200 -1 65 -23 114 -19 147 12 58 55 41 64 -131 74
-169 9 -214 25 -341 120 -52 40 -113 80 -136 90 -44 20 -73 45 -117 99 l-28
35 6 -44z"/>
<path d="M4831 7533 c-25 -89 -3 -157 47 -151 26 3 27 5 26 60 -1 56 -26 117
-51 125 -7 3 -16 -12 -22 -34z"/>
<path d="M4486 7355 c-10 -27 15 -67 61 -98 32 -21 45 -38 54 -70 7 -23 16
-46 20 -50 13 -16 47 3 59 34 11 26 10 34 -7 57 -11 14 -39 37 -64 50 -24 12
-60 39 -80 58 -31 30 -37 33 -43 19z"/>
<path d="M3745 7334 c-29 -45 -46 -105 -34 -120 19 -23 49 -16 59 12 12 32 13
134 1 134 -5 0 -16 -12 -26 -26z"/>
<path d="M5546 7278 c-8 -18 -17 -44 -20 -58 -7 -23 -4 -21 28 12 37 39 48 78
20 78 -8 0 -21 -15 -28 -32z"/>
<path d="M5320 6720 c0 -101 13 -116 38 -42 12 36 12 49 0 84 -24 75 -38 60
-38 -42z"/>
<path d="M6356 6508 c-10 -13 -16 -44 -16 -74 0 -40 6 -60 30 -95 38 -56 39
-102 5 -239 -44 -185 -59 -530 -26 -613 47 -118 89 165 98 658 5 269 4 315
-10 348 -12 29 -22 37 -41 37 -14 0 -31 -9 -40 -22z"/>
<path d="M4655 6376 c-93 -28 -25 -73 94 -63 104 9 162 46 105 67 -34 13 -150
11 -199 -4z"/>
<path d="M4530 6218 c0 -49 107 -117 185 -118 51 0 105 27 125 62 24 43 5 53
-72 38 -58 -11 -68 -11 -123 10 -33 12 -72 24 -87 27 -24 5 -28 2 -28 -19z"/>
<path d="M4616 5971 c-8 -12 32 -37 91 -56 55 -18 154 -17 160 1 10 29 -234
82 -251 55z"/>
<path d="M8439 5899 c-156 -112 -283 -276 -419 -544 -105 -206 -149 -329 -204
-570 -9 -41 -39 -116 -72 -180 -32 -60 -70 -141 -85 -178 -36 -86 -65 -127
-91 -127 -18 0 -19 5 -15 43 3 23 11 72 18 109 10 54 11 80 1 126 -32 154 6
358 81 440 27 29 27 85 1 138 -42 85 -68 51 -108 -140 -27 -128 -36 -149 -71
-172 -24 -16 -25 -19 -25 -144 0 -128 -12 -226 -30 -244 -17 -17 -51 26 -100
129 -62 129 -100 242 -100 299 0 40 -3 46 -22 46 -48 0 -143 143 -201 305 -14
39 -28 78 -32 87 -9 23 -66 48 -108 48 -41 0 -67 -21 -67 -56 0 -14 -16 -41
-37 -65 l-37 -41 35 7 c49 8 87 -19 149 -107 118 -166 228 -424 325 -763 43
-149 63 -202 100 -265 56 -95 -45 -1007 -121 -1091 -21 -24 -33 -166 -34 -429
-1 -113 -5 -214 -9 -225 -8 -19 -8 -19 -18 0 -55 106 -181 842 -253 1488 -24
217 -30 237 -63 237 -29 0 -107 -54 -107 -75 0 -7 12 -27 26 -42 43 -46 66
-109 72 -198 6 -107 -2 -148 -39 -190 l-30 -34 25 -7 c39 -9 51 -59 51 -214 0
-145 -14 -221 -46 -244 -25 -17 -14 -26 32 -26 53 0 57 -16 12 -55 -38 -34
-38 -34 -12 -35 35 0 45 -15 51 -70 4 -33 18 -65 51 -113 64 -93 76 -142 87
-349 23 -435 107 -825 205 -954 36 -48 33 -72 -11 -80 -20 -4 -122 -4 -227 -1
-323 9 -379 35 -665 310 -150 145 -231 211 -282 228 -28 10 -35 10 -46 -6 -18
-24 -4 -55 60 -140 63 -82 96 -135 96 -153 0 -25 46 -75 140 -151 52 -42 126
-104 165 -139 38 -35 109 -90 156 -122 182 -125 194 -187 46 -236 -73 -24
-135 -56 -272 -142 -66 -41 -145 -85 -175 -97 -41 -16 -56 -27 -60 -45 -6 -23
-10 -25 -61 -22 -45 2 -59 -1 -73 -17 -10 -11 -16 -27 -13 -36 17 -43 216 13
445 125 162 79 263 140 391 238 162 122 286 175 324 137 9 -9 17 -22 17 -30 0
-41 -263 -336 -665 -745 l-310 -315 100 -3 c152 -5 177 1 235 57 27 26 109 87
182 136 128 86 205 154 296 263 24 29 64 64 88 78 94 55 71 8 -118 -244 -148
-196 -187 -256 -176 -267 15 -15 90 -25 188 -25 111 0 150 6 150 22 0 5 -10
18 -22 28 -13 10 -20 21 -17 24 4 4 32 11 64 16 79 13 147 60 225 154 35 42
64 75 66 73 2 -1 -14 -63 -36 -137 -30 -105 -36 -138 -27 -147 31 -31 506 -44
847 -23 224 15 231 17 259 84 12 29 47 96 77 147 83 139 129 234 158 327 51
164 25 223 -70 154 -86 -63 -252 -261 -322 -384 -17 -29 -42 -93 -55 -142 -24
-84 -53 -141 -73 -141 -16 0 -15 97 2 174 21 98 47 162 87 220 27 39 31 54 30
97 -2 44 3 58 39 115 23 35 66 120 95 189 81 190 117 260 202 398 157 251 341
495 441 583 107 93 136 125 159 174 64 135 -51 91 -234 -90 -109 -109 -190
-212 -320 -404 -201 -301 -359 -591 -395 -728 -15 -54 -38 -105 -76 -165 -61
-97 -92 -166 -123 -275 -36 -122 -85 -158 -156 -114 -64 38 -260 261 -252 285
2 6 27 14 56 18 119 18 180 77 331 328 122 202 165 288 200 395 12 39 66 183
120 320 54 138 117 304 141 370 103 285 364 756 472 851 73 64 85 115 31 128
-33 9 -51 -3 -120 -76 -174 -188 -486 -724 -530 -913 -26 -111 -73 -232 -193
-495 -138 -301 -290 -600 -313 -614 -25 -15 -56 19 -111 118 -49 90 -68 107
-94 89 -10 -7 -30 -20 -46 -28 -24 -14 -28 -14 -33 -1 -5 14 -1 24 39 94 16
29 16 34 1 78 -9 26 -51 106 -94 178 -92 156 -204 359 -225 408 -17 43 -12 50
81 97 66 32 101 68 110 110 10 49 23 69 46 73 14 2 25 12 30 28 33 120 67 211
117 314 66 140 113 215 165 269 l37 37 -7 103 c-8 124 -3 137 93 265 76 101
173 276 173 312 0 33 -20 13 -66 -67 -87 -148 -150 -82 -90 94 41 121 87 181
424 557 207 230 333 382 358 429 32 60 4 48 -85 -38 -251 -242 -760 -841 -812
-955 -58 -129 -116 -219 -274 -429 -110 -146 -201 -251 -216 -251 -19 0 -8 49
16 71 34 33 62 131 75 266 18 197 69 441 126 613 36 105 64 228 134 590 67
343 112 535 167 705 46 142 136 383 167 443 43 84 122 186 236 306 107 113
170 190 170 208 0 16 -28 7 -71 -23z m-843 -1690 c7 -12 -25 -60 -44 -67 -16
-5 -26 23 -18 53 5 18 13 25 31 25 13 0 27 -5 31 -11z m164 -1424 c0 -22 -30
-65 -45 -65 -19 0 -28 36 -15 60 13 24 60 28 60 5z m-190 -1970 c0 -26 44 -44
129 -54 90 -10 112 -21 91 -46 -26 -31 -178 -50 -262 -32 -32 7 -38 12 -38 34
0 33 46 113 65 113 8 0 15 -7 15 -15z m-321 -104 c20 -13 6 -55 -24 -71 -50
-27 -89 32 -43 64 25 18 46 20 67 7z m429 -583 c32 -32 -14 -86 -62 -74 -35 9
-40 33 -11 62 26 26 54 31 73 12z"/>
<path d="M4047 5721 c-9 -41 -7 -175 2 -216 13 -52 25 97 15 178 -8 65 -10 69
-17 38z"/>
<path d="M7504 5316 c-8 -20 26 -68 45 -64 20 4 27 44 11 64 -16 18 -49 18
-56 0z"/>
<path d="M8760 5210 c-65 -92 -262 -548 -286 -663 -23 -110 -65 -176 -580
-920 -344 -496 -403 -597 -346 -597 26 0 71 51 146 168 36 57 128 190 203 295
308 432 565 843 722 1157 115 231 168 380 177 503 8 96 0 108 -36 57z"/>
<path d="M2228 4903 c-17 -21 -41 -84 -33 -91 8 -9 43 28 56 59 15 37 0 58
-23 32z"/>
<path d="M3225 4700 c-9 -15 28 -71 45 -68 19 4 25 45 10 64 -14 16 -46 19
-55 4z"/>
<path d="M6684 4483 c-11 -78 9 -433 26 -433 4 0 24 15 45 33 52 45 56 96 21
232 -14 54 -26 116 -26 138 0 48 -15 77 -40 77 -15 0 -20 -10 -26 -47z"/>
<path d="M3346 4255 c-9 -9 -16 -21 -16 -26 0 -23 22 -49 41 -49 21 0 34 -24
44 -83 4 -23 11 -37 18 -34 30 9 15 108 -25 167 -28 41 -41 46 -62 25z"/>
<path d="M6333 4096 c10 -102 143 -390 186 -404 11 -4 13 6 8 49 -13 130 -143
409 -189 409 -7 0 -9 -19 -5 -54z"/>
<path d="M3300 4045 c0 -36 4 -65 9 -65 13 0 22 61 15 98 -11 54 -24 36 -24
-33z"/>
<path d="M2330 3855 c-32 -39 -27 -349 9 -565 26 -156 144 -653 182 -770 17
-52 52 -140 76 -195 102 -224 195 -741 197 -1090 1 -156 -7 -205 -34 -205 -32
0 -182 443 -213 631 -11 63 -16 74 -33 77 -23 3 -44 40 -44 76 0 41 -30 110
-62 143 -40 41 -53 41 -67 2 -10 -30 -12 -31 -59 -24 -61 8 -66 -1 -46 -85 28
-121 80 -201 121 -186 23 9 67 -43 92 -109 34 -91 50 -161 60 -266 13 -126 42
-205 214 -579 42 -91 82 -188 88 -217 11 -46 10 -57 -9 -102 -12 -27 -22 -65
-22 -84 0 -46 34 -176 59 -226 28 -53 56 -71 113 -71 40 0 50 4 64 26 21 32
21 26 -36 1281 -17 358 -26 404 -144 688 -52 127 -103 296 -141 475 -15 69
-52 224 -82 345 -88 352 -102 414 -118 530 -38 277 -48 331 -70 397 -21 63
-56 118 -76 118 -3 0 -12 -7 -19 -15z m38 -1997 c13 -13 16 -66 6 -92 -10 -26
-31 -18 -48 19 -28 58 3 112 42 73z"/>
<path d="M2102 3610 c-25 -11 -42 -25 -40 -32 5 -15 50 -22 84 -14 27 7 42 45
23 57 -18 11 -17 12 -67 -11z"/>
<path d="M2006 3398 c-24 -34 -20 -58 9 -58 28 0 49 31 40 60 -8 26 -30 25
-49 -2z"/>
<path d="M5677 3379 c-10 -6 -97 -117 -194 -247 -191 -257 -270 -356 -463
-587 -179 -215 -250 -317 -250 -364 0 -11 -11 -28 -25 -37 -51 -34 -223 -333
-284 -495 -52 -138 -102 -246 -145 -311 -44 -67 -118 -237 -149 -348 -18 -61
-30 -87 -45 -93 -27 -12 -68 -92 -135 -262 -68 -173 -117 -326 -117 -365 0
-36 -19 -80 -35 -80 -48 0 -68 -128 -25 -162 14 -11 39 -18 66 -18 86 0 123
56 264 390 172 408 295 671 415 885 24 44 47 99 51 123 13 90 228 459 381 655
29 38 58 87 64 110 23 90 23 90 58 100 47 12 130 98 218 228 72 106 131 169
158 169 66 0 269 325 297 477 13 70 -2 155 -35 205 -25 36 -43 43 -70 27z"/>
<path d="M1874 2793 c3 -16 26 -67 50 -115 29 -57 41 -89 34 -96 -11 -11 23
-85 73 -158 55 -80 68 -39 27 85 -11 35 -23 101 -27 147 -7 93 -18 111 -85
144 -61 29 -80 27 -72 -7z"/>
<path d="M8077 2653 c-16 -16 -4 -39 47 -88 49 -46 56 -58 62 -104 4 -28 10
-51 14 -51 14 0 60 61 60 79 0 45 -123 171 -168 171 -5 0 -12 -3 -15 -7z"/>
<path d="M6631 2522 c-14 -26 -3 -58 25 -77 30 -19 49 -56 63 -124 6 -29 24
-86 40 -126 16 -39 37 -118 46 -175 19 -125 42 -196 100 -315 110 -225 207
-259 145 -52 -60 200 -304 764 -372 860 -23 32 -34 34 -47 9z"/>
<path d="M8211 2279 c-107 -152 -253 -340 -381 -490 -114 -134 -208 -261 -216
-294 -8 -31 12 -65 37 -65 44 0 101 43 186 140 79 91 96 104 170 140 86 41 82
36 99 120 3 13 24 44 46 68 69 76 198 371 198 455 0 34 -13 48 -43 47 -7 -1
-50 -55 -96 -121z"/>
<path d="M7826 2343 c-10 -11 -7 -48 6 -61 16 -16 43 -15 57 1 8 11 5 19 -12
34 -30 27 -43 34 -51 26z"/>
<path d="M1860 2195 c0 -21 33 -239 41 -270 6 -22 24 -68 40 -101 16 -34 41
-113 54 -175 13 -63 34 -158 45 -212 23 -107 53 -187 70 -187 20 0 32 55 27
122 -15 186 -222 828 -267 828 -6 0 -10 -2 -10 -5z"/>
<path d="M2285 2170 c-17 -27 30 -120 60 -120 20 0 27 33 15 66 -20 53 -59 80
-75 54z"/>
<path d="M2154 2125 c-7 -18 34 -77 50 -72 19 6 20 60 0 74 -23 17 -43 16 -50
-2z"/>
<path d="M5361 1856 c-7 -8 -11 -32 -9 -52 3 -40 5 -42 89 -77 25 -11 44 -30
60 -58 13 -24 35 -49 49 -55 14 -7 41 -20 61 -29 20 -10 69 -45 110 -77 109
-88 156 -109 183 -83 9 9 16 32 16 51 0 31 -3 34 -29 34 -22 0 -56 25 -152
111 -127 112 -293 233 -340 244 -17 4 -30 1 -38 -9z"/>
<path d="M5724 1785 c-9 -23 38 -85 133 -175 102 -96 158 -136 226 -160 54
-19 67 -18 67 6 0 68 -148 210 -310 297 -86 46 -108 53 -116 32z"/>
<path d="M9760 1400 c0 -60 4 -100 10 -100 6 0 10 40 10 100 0 60 -4 100 -10
100 -6 0 -10 -40 -10 -100z"/>
<path d="M2185 1275 c111 -502 131 -573 171 -612 36 -37 78 -43 93 -15 10 20
-68 304 -114 412 -27 64 -92 170 -135 220 l-22 25 7 -30z"/>
<path d="M9760 1030 c0 -53 4 -90 10 -90 6 0 10 37 10 90 0 53 -4 90 -10 90
-6 0 -10 -37 -10 -90z"/>
<path d="M9316 851 c-28 -24 -57 -41 -72 -41 -116 0 -454 -335 -558 -554 -55
-114 -93 -233 -79 -247 30 -30 125 35 201 138 63 84 98 107 153 98 l40 -7 -26
37 c-57 85 -18 174 141 324 96 91 176 149 255 184 101 45 117 99 32 105 -35 3
-47 -2 -87 -37z"/>
<path d="M6135 474 c-88 -41 -230 -105 -315 -140 -176 -74 -270 -122 -277
-141 -9 -23 18 -43 57 -43 124 0 550 216 698 354 74 69 31 61 -163 -30z"/>
<path d="M9615 380 c-99 -26 -184 -59 -303 -119 -57 -28 -131 -59 -165 -67
-70 -18 -127 -56 -174 -116 -48 -60 -45 -68 32 -68 77 0 116 14 168 63 84 76
368 190 510 203 48 4 74 11 88 25 21 21 25 69 7 87 -17 17 -81 14 -163 -8z"/>
<path d="M2076 183 c-15 -4 -17 -11 -13 -38 9 -54 37 -105 68 -120 36 -19 98
-20 105 -1 10 27 -47 117 -94 148 -28 18 -33 19 -66 11z"/>
</g>
</svg>
