<?xml version="1.0" standalone="no"?>
<!DOCTYPE svg PUBLIC "-//W3C//DTD SVG 20010904//EN"
 "http://www.w3.org/TR/2001/REC-SVG-20010904/DTD/svg10.dtd">
<svg version="1.0" xmlns="http://www.w3.org/2000/svg"
 width="1280.000000pt" height="1174.000000pt" viewBox="0 0 1280.000000 1174.000000"
 preserveAspectRatio="xMidYMid meet">
<metadata>
Created by potrace 1.15, written by Peter Selinger 2001-2017
</metadata>
<g transform="translate(0.000000,1174.000000) scale(0.100000,-0.100000)"
fill="#000000" stroke="none">
<path d="M6580 11725 c-102 -13 -294 -24 -780 -45 -253 -11 -346 -24 -630 -88
-96 -22 -229 -50 -295 -62 -333 -62 -627 -156 -751 -240 -81 -56 -145 -121
-139 -141 7 -22 -181 -175 -380 -308 -189 -126 -254 -181 -419 -351 -211 -217
-244 -248 -326 -306 -81 -56 -167 -142 -242 -240 -25 -34 -75 -85 -110 -113
-131 -106 -160 -136 -213 -215 -107 -161 -529 -583 -563 -563 -4 3 -8 -9 -8
-27 0 -21 -15 -56 -42 -98 -34 -55 -111 -194 -203 -366 -10 -19 -21 -59 -24
-90 -15 -128 -40 -215 -120 -411 -142 -353 -165 -448 -195 -808 -11 -131 -25
-269 -31 -308 -5 -38 -14 -99 -19 -135 -13 -97 -38 -561 -55 -1030 -14 -393
-18 -469 -31 -618 -5 -55 -8 -62 -24 -57 -23 7 -27 -3 -40 -134 -23 -231 -11
-305 55 -355 59 -46 75 -78 95 -198 21 -127 38 -188 151 -548 90 -284 129
-424 129 -458 0 -33 -32 -91 -125 -227 -45 -66 -107 -163 -137 -215 -31 -53
-96 -150 -144 -215 -212 -290 -268 -371 -289 -419 -29 -63 -60 -243 -75 -436
-11 -132 -17 -160 -67 -315 -58 -179 -82 -233 -170 -383 -119 -203 -207 -409
-263 -622 -22 -80 -51 -179 -65 -220 -14 -41 -28 -101 -32 -132 -6 -55 -5 -59
30 -97 31 -34 35 -45 30 -75 -5 -32 -3 -37 23 -47 30 -11 173 -7 206 6 10 4
18 13 18 21 0 16 12 18 26 4 19 -19 155 -30 469 -36 l320 -7 38 60 c39 65 59
80 76 59 9 -10 5 -17 -14 -30 -33 -22 -34 -62 0 -78 31 -14 51 1 60 43 5 21
11 29 22 25 8 -3 27 1 43 9 39 20 39 20 30 -20 -12 -55 1 -60 169 -59 128 0
152 3 195 22 58 26 56 26 56 7 0 -28 28 -15 69 32 42 50 47 49 32 -4 -6 -21
-5 -35 2 -42 14 -14 187 -15 187 -1 0 6 -4 10 -10 10 -16 0 -22 47 -9 72 35
66 130 153 159 146 14 -3 26 25 35 83 5 36 44 89 65 89 17 0 11 -22 -17 -63
-26 -37 -26 -39 -10 -67 27 -44 21 -55 -36 -73 -70 -22 -146 -73 -153 -102 -3
-13 -3 -33 1 -44 21 -67 -11 -66 3125 -65 2802 1 3202 5 3221 36 7 10 11 10
17 0 17 -26 84 -33 347 -39 316 -6 520 6 538 32 25 33 149 32 183 -2 25 -25
183 -39 299 -26 106 11 128 22 102 51 -9 10 -17 22 -17 25 0 16 41 5 69 -19
18 -14 48 -30 69 -35 102 -24 731 -34 787 -13 22 9 18 48 -19 195 -37 146 -51
260 -66 564 -5 110 -16 224 -23 252 -12 47 -12 55 2 75 13 18 17 62 22 213 3
105 9 198 14 207 22 53 40 -7 55 -192 16 -195 42 -294 84 -329 20 -17 27 0 56
144 25 126 71 256 142 402 57 116 72 135 91 109 7 -9 23 -22 37 -29 13 -7 27
-23 31 -37 4 -14 8 -104 8 -200 2 -235 15 -400 36 -440 15 -29 20 -32 51 -27
31 5 36 3 45 -20 5 -15 12 -218 16 -464 l6 -439 66 0 c83 0 111 14 137 69 12
25 30 50 40 58 42 31 84 3 84 -56 0 -53 16 -62 97 -59 l68 3 -1 205 c-1 113
-4 257 -8 320 -6 124 0 153 31 134 49 -30 71 -152 79 -449 l7 -225 62 0 c93 0
98 6 105 144 4 64 9 118 12 121 20 21 138 -56 164 -107 9 -18 19 -55 23 -82 5
-40 11 -53 31 -63 32 -16 300 -18 300 -2 0 6 -11 56 -26 111 -25 101 -29 178
-8 185 6 2 25 -24 43 -57 18 -33 37 -60 43 -60 18 0 1 55 -57 184 -44 98 -57
141 -70 224 -20 134 -19 158 7 199 20 33 20 40 9 100 -16 86 -52 156 -94 182
-57 35 -80 21 -33 -20 29 -26 63 -100 76 -169 11 -58 5 -80 -21 -80 -17 0 -18
-6 -12 -80 5 -64 3 -84 -11 -104 -20 -31 -20 -53 -1 -99 31 -74 57 -307 35
-307 -26 0 -186 230 -218 315 -21 54 -50 195 -41 200 4 3 19 3 32 0 36 -9 53
16 33 52 -41 75 -47 95 -40 139 3 24 9 44 12 44 3 0 28 -17 56 -39 88 -66 106
-76 119 -62 9 10 5 18 -20 39 -111 93 -136 119 -155 155 -39 77 -63 337 -37
404 l11 28 24 -30 c35 -44 113 -197 122 -241 15 -71 72 -47 72 29 -1 76 -29
278 -46 333 -19 61 -61 104 -100 104 -31 0 -30 -4 9 -51 36 -42 55 -92 63
-167 9 -83 -35 -97 -51 -16 -4 23 -21 50 -46 75 -34 33 -39 44 -39 84 0 63 22
109 80 171 75 79 75 107 4 204 -22 30 -25 43 -22 91 3 36 12 66 26 86 l21 30
-23 -4 c-18 -4 -25 1 -30 21 -8 32 -68 91 -107 105 -24 8 -30 7 -39 -10 -6
-10 -18 -19 -26 -19 -13 0 -14 8 -9 41 6 36 4 44 -21 70 -26 27 -27 30 -14 68
15 47 9 154 -11 197 -8 17 -24 30 -37 32 -14 2 -22 10 -22 23 0 25 -63 93
-101 109 -27 12 -32 11 -45 -9 -22 -31 -34 -17 -34 38 0 41 -4 51 -25 65 -15
10 -25 26 -25 41 0 16 -12 33 -35 51 -25 19 -39 39 -46 70 -10 37 -15 44 -35
44 -17 0 -24 6 -24 19 0 29 -46 78 -85 91 -19 6 -50 8 -70 4 l-36 -6 6 33 c9
46 -31 100 -132 180 -43 33 -86 67 -95 75 -10 7 -18 26 -18 41 0 37 -11 52
-35 50 -12 -1 -21 5 -23 18 -10 51 -83 98 -145 93 -40 -3 -42 -2 -39 24 5 38
-26 91 -106 184 -38 45 -78 97 -90 116 -12 19 -44 55 -72 80 -43 39 -50 51
-50 83 0 47 -22 124 -72 249 -49 125 -78 243 -78 325 0 102 28 193 113 366
112 226 145 331 181 570 33 224 42 339 61 790 15 381 29 591 45 730 14 114 12
279 -5 355 -19 85 -18 204 1 310 16 90 14 118 -17 239 -14 56 -19 111 -19 220
0 80 -5 166 -10 191 -6 25 -46 117 -90 205 -80 160 -80 160 -90 267 -9 106
-21 148 -41 148 -24 0 -113 100 -182 204 -42 62 -97 140 -123 172 -66 80 -124
179 -234 396 -110 217 -133 253 -217 336 -35 35 -71 81 -80 103 -14 36 -24 44
-127 93 -61 29 -169 88 -241 130 -145 86 -275 151 -380 191 -94 35 -241 114
-405 217 -74 47 -158 97 -185 111 -48 24 -78 53 -169 162 -47 57 -60 62 -211
86 -204 33 -317 68 -495 151 -107 50 -170 68 -265 78 -50 5 -110 17 -135 29
-65 29 -252 78 -343 90 -102 14 -265 12 -397 -4z m-769 -295 c9 -38 14 -72 11
-75 -12 -12 -38 -3 -64 22 -30 29 -37 53 -14 53 17 0 28 24 20 45 -4 8 -3 23
0 32 11 28 29 -1 47 -77z m187 13 c-2 -46 -6 -57 -22 -59 -10 -1 -35 -19 -55
-38 -34 -33 -61 -46 -61 -29 0 4 12 24 26 44 23 33 24 41 15 75 -6 21 -8 40
-5 43 3 3 20 4 39 3 18 -2 36 1 40 7 16 27 26 7 23 -46z m-332 -8 c20 -77 19
-85 -16 -85 -24 0 -33 6 -40 26 -13 32 -13 56 0 89 16 41 41 28 56 -30z m-371
-45 c16 -31 20 -90 6 -90 -16 0 -46 101 -34 114 10 9 11 8 28 -24z m-67 -17
c4 -27 -15 -30 -34 -5 -19 25 -17 34 9 30 14 -2 23 -11 25 -25z m-73 -103 c0
-80 1 -87 17 -79 9 5 20 14 23 19 3 6 13 10 21 10 22 0 17 -52 -8 -90 -30 -44
-43 -47 -64 -15 -23 36 -74 190 -74 225 0 35 17 40 22 8 2 -13 11 -24 22 -26
16 -3 18 1 14 32 -4 33 -3 35 11 21 12 -12 16 -38 16 -105z m-317 -30 c36
-104 45 -150 32 -170 -9 -13 -12 -12 -25 4 -8 11 -15 32 -15 47 0 16 -11 40
-25 55 -20 21 -25 37 -25 78 0 28 3 62 7 75 8 29 12 22 51 -89z m144 11 c15
-55 15 -63 2 -68 -18 -7 -60 22 -83 56 -15 23 -15 24 6 13 32 -17 35 -15 28
18 -4 16 -3 34 0 40 14 22 31 1 47 -59z m728 50 c13 -26 13 -33 -4 -56 -12
-16 -16 -17 -30 -6 -19 16 -21 52 -4 69 17 17 26 15 38 -7z m400 -25 c16 -21
60 -184 53 -202 -12 -31 -43 -3 -43 38 0 18 -11 40 -30 60 -32 33 -40 84 -18
106 16 16 23 15 38 -2z m164 -18 c20 -28 20 -67 1 -74 -22 -9 -63 4 -86 27
-23 23 -16 43 12 36 12 -3 23 2 29 14 14 25 25 24 44 -3z m377 -14 c11 -14 10
-18 -6 -30 -32 -24 -87 5 -63 33 15 18 53 16 69 -3z m133 7 c9 -14 -4 -41 -19
-41 -17 0 -38 27 -30 40 8 12 42 13 49 1z m-2226 -83 c17 -17 15 -46 -5 -56
-27 -15 -100 -24 -123 -17 -29 9 -25 30 13 59 35 28 94 35 115 14z m2442 -21
c0 -25 -17 -47 -37 -47 -13 0 -19 51 -6 63 16 17 43 6 43 -16z m-318 -12 c8
-19 8 -29 0 -37 -23 -23 -61 14 -48 47 9 23 35 18 48 -10z m-92 -119 c0 -19
-38 -46 -56 -39 -14 5 -19 35 -7 46 13 13 63 7 63 -7z m1010 -102 c21 -58 26
-99 11 -108 -17 -11 -31 21 -41 93 -6 41 -13 78 -17 85 -4 6 1 5 10 -2 9 -8
25 -38 37 -68z m-53 -17 c7 -46 -12 -56 -62 -32 -47 22 -69 17 -73 -18 -3 -23
6 -37 47 -74 28 -26 51 -50 51 -55 0 -4 -9 -17 -20 -28 -40 -40 -13 -125 65
-209 46 -50 51 -71 15 -71 -10 0 -27 -11 -38 -25 -25 -31 -28 -31 -47 3 -15
26 -16 23 -11 -63 l5 -90 -40 83 c-22 45 -44 82 -49 82 -13 0 -13 -7 0 -30 8
-15 5 -20 -22 -29 -55 -19 -67 -15 -89 35 -19 46 -20 46 -39 29 -11 -10 -22
-16 -24 -14 -2 2 -17 27 -35 54 l-31 50 0 -40 c0 -47 -8 -61 -35 -66 -13 -3
-22 -16 -27 -44 -11 -53 -28 -95 -39 -95 -5 0 -7 11 -4 25 3 14 8 37 11 53 3
15 9 91 14 169 6 122 11 146 29 169 11 15 21 38 21 51 0 15 12 36 30 53 19 18
32 41 36 68 4 23 12 49 19 58 11 15 15 13 40 -20 34 -45 45 -46 38 -3 -7 46 8
54 105 59 59 3 88 9 100 21 15 16 18 16 35 -1 9 -10 20 -35 24 -55z m121 8 c4
-38 2 -47 -9 -43 -20 7 -33 50 -25 83 10 39 27 19 34 -40z m-1010 28 c-2 -20
-9 -29 -26 -31 -17 -3 -25 -14 -33 -49 -13 -51 -29 -41 -29 19 0 28 7 42 31
62 41 35 61 34 57 -1z m-141 -65 c4 -36 2 -58 -6 -62 -21 -13 -11 -45 24 -73
43 -34 44 -43 6 -43 -31 0 -91 42 -91 64 0 6 9 29 20 51 12 24 20 59 20 89 0
67 19 48 27 -26z m366 36 c-1 -5 -11 -10 -21 -12 -20 -3 -37 22 -26 39 7 12
50 -14 47 -27z m-431 -56 c-15 -15 -27 14 -17 40 6 15 8 15 18 -6 7 -16 7 -26
-1 -34z m-68 6 c24 -9 19 -33 -7 -39 -40 -10 -91 17 -70 38 8 9 56 9 77 1z
m1106 -18 c0 -22 -29 -41 -42 -28 -9 9 -7 17 7 32 18 20 35 18 35 -4z m-2380
-37 c0 -24 -4 -38 -10 -34 -5 3 -10 22 -10 41 0 19 5 34 10 34 6 0 10 -18 10
-41z m-1180 23 c0 -4 -9 -13 -20 -20 -11 -7 -20 -22 -20 -35 0 -29 -9 -40 -42
-54 -40 -18 -114 -89 -128 -123 -9 -21 -19 -30 -36 -30 -18 0 -24 -6 -24 -22
0 -24 -13 -50 -24 -49 -3 1 -10 1 -15 1 -5 0 -39 -27 -75 -60 -37 -33 -71 -61
-76 -61 -6 -1 -16 -2 -22 -3 -7 0 -15 -14 -18 -31 -5 -24 -10 -30 -29 -27 -21
2 -23 -1 -18 -30 3 -18 8 -42 12 -53 4 -11 -11 -1 -34 25 -37 40 -41 42 -41
22 0 -30 -18 -64 -30 -57 -6 3 -31 -14 -57 -38 -27 -24 -59 -47 -74 -50 -26
-7 -169 -146 -169 -166 0 -6 7 -11 15 -11 38 0 76 -86 45 -105 -5 -3 -33 8
-63 25 -100 56 -122 45 -347 -174 -99 -97 -187 -176 -195 -176 -23 0 -18 36
11 83 42 66 593 610 754 744 266 220 524 407 635 459 50 24 85 31 85 16z
m2833 2 c9 -9 -16 -44 -30 -44 -14 0 -18 32 -6 43 8 9 28 9 36 1z m1008 -84
c14 0 49 -39 49 -55 0 -21 -7 -19 -70 17 -47 27 -52 32 -35 39 11 4 26 6 33 3
8 -2 18 -4 23 -4z m-160 -68 c24 -16 53 -39 64 -51 27 -31 8 -41 -77 -41 -64
0 -68 1 -68 23 0 31 19 97 29 97 4 0 27 -13 52 -28z m-3246 -12 c0 -29 -32
-41 -41 -16 -9 24 4 48 23 44 12 -2 18 -12 18 -28z m3725 6 c0 -8 -9 -24 -19
-37 -15 -19 -22 -21 -32 -12 -9 9 -8 17 5 37 18 28 46 35 46 12z m-316 -21 c6
-17 -21 -48 -35 -40 -13 8 -11 29 3 43 16 16 25 15 32 -3z m-976 -12 c11 -10
23 -31 27 -48 l7 -30 -26 24 c-29 28 -53 23 -62 -14 -3 -14 -10 -25 -14 -25
-16 0 -28 89 -13 103 13 13 61 7 81 -10z m1215 -74 c31 -79 47 -179 29 -179
-5 0 -17 19 -27 43 -9 23 -25 51 -35 62 -33 36 -38 163 -7 152 7 -2 25 -37 40
-78z m-3343 14 c0 -14 -6 -23 -15 -23 -17 0 -30 42 -20 67 6 17 7 17 21 -1 8
-11 14 -30 14 -43z m2016 2 c3 -14 3 -33 -1 -42 -6 -17 -7 -17 -21 1 -19 26
-18 66 1 66 8 0 17 -11 21 -25z m-2141 -39 c17 -26 34 -196 20 -196 -5 0 -17
7 -27 17 -16 15 -18 15 -18 0 0 -35 -24 -66 -63 -82 -47 -19 -57 -11 -57 48 0
36 -12 48 -26 26 -3 -6 -20 -19 -37 -29 -27 -17 -33 -17 -59 -4 l-28 15 0 -57
c0 -59 -23 -122 -48 -131 -8 -4 -23 -1 -33 5 -18 11 -19 8 -18 -59 1 -79 -14
-110 -31 -64 -6 16 -12 83 -13 149 l-2 121 33 44 c17 24 32 55 32 68 0 28 4
29 30 3 30 -30 77 -26 108 10 18 21 36 30 56 30 32 0 66 24 66 47 0 23 47 63
74 63 16 0 32 -9 41 -24z m-578 -61 c5 -30 3 -37 -8 -33 -16 5 -42 75 -33 90
11 17 34 -16 41 -57z m657 -107 c-6 -19 -7 -19 -16 -4 -5 9 -6 26 -2 38 6 19
7 19 16 4 5 -9 6 -26 2 -38z m86 11 c0 -18 -4 -28 -10 -24 -5 3 -10 20 -10 36
0 18 4 28 10 24 6 -3 10 -20 10 -36z m2016 6 c15 -38 19 -85 6 -85 -12 0 -29
40 -37 84 -9 47 11 48 31 1z m-2726 -42 c0 -12 -4 -25 -10 -28 -6 -4 -10 11
-10 37 0 31 3 39 10 28 5 -8 10 -25 10 -37z m1227 31 c5 -14 -81 -49 -96 -39
-19 11 -12 26 22 40 36 16 69 16 74 -1z m1593 1 c16 -19 9 -49 -13 -53 -18 -4
-38 33 -30 56 7 16 28 15 43 -3z m-280 -40 c0 -17 -36 -20 -45 -5 -4 6 -4 18
-1 26 4 12 10 13 26 4 11 -6 20 -17 20 -25z m-89 -42 c-8 -14 -10 -9 -10 27 1
42 1 43 10 18 7 -18 7 -33 0 -45z m207 40 c2 -7 -2 -13 -9 -13 -7 0 -26 -12
-41 -27 l-28 -27 0 30 c0 17 6 36 12 42 16 16 60 12 66 -5z m1152 -94 c0 -62
-7 -79 -34 -79 -12 0 -27 -5 -34 -12 -9 -9 -12 -7 -12 10 0 30 21 123 32 145
9 18 11 18 29 1 14 -12 19 -30 19 -65z m143 53 c22 -24 13 -32 -34 -32 -44 0
-56 12 -33 34 21 21 47 20 67 -2z m-297 -69 c4 -19 2 -49 -3 -66 l-10 -32 -16
54 c-18 59 -21 93 -10 105 11 11 32 -22 39 -61z m-3749 -63 c3 -33 3 -60 -1
-60 -20 0 -55 148 -40 172 12 18 33 -42 41 -112z m2949 85 c4 -8 3 -23 -1 -32
-6 -16 -8 -16 -26 6 -10 12 -16 27 -13 32 8 14 34 10 40 -6z m-3390 -30 c16
-38 19 -85 5 -85 -15 0 -46 94 -36 110 10 16 15 12 31 -25z m571 -25 c4 -30 3
-41 -5 -36 -14 8 -33 76 -25 88 10 17 24 -8 30 -52z m3543 0 c22 -44 25 -60 9
-60 -11 0 -39 60 -39 85 0 24 8 18 30 -25z m-2293 -21 c7 -13 13 -37 13 -54
l-1 -30 -24 40 c-27 43 -33 79 -12 73 6 -3 18 -15 24 -29z m-1523 -40 c9 -25
28 -55 41 -67 33 -29 33 -75 0 -107 -43 -44 -56 -35 -98 73 -21 53 -37 100
-37 105 0 4 15 6 33 5 30 -3 32 -1 30 26 -3 37 9 24 31 -35z m3684 49 c18 -18
14 -28 -12 -28 -13 0 -26 6 -29 14 -10 26 19 36 41 14z m-4008 -106 c12 -30
26 -77 31 -104 18 -81 -7 -105 -32 -30 -6 20 -21 47 -32 59 -22 24 -35 117
-22 150 6 17 7 17 21 -1 8 -11 23 -44 34 -74z m1669 54 c33 -34 35 -60 3 -49
-30 11 -52 36 -52 60 0 31 10 29 49 -11z m-1554 16 c6 -4 18 -33 27 -65 13
-50 14 -59 2 -64 -18 -7 -69 14 -86 34 -10 12 -8 18 11 32 13 10 22 26 21 37
-4 35 3 42 25 26z m4433 -65 c-3 -22 -4 -21 -22 5 -10 16 -15 35 -12 45 6 15
8 14 22 -5 8 -12 14 -32 12 -45z m-3158 -61 c0 -47 -9 -66 -31 -66 -23 0 -25
29 -4 70 21 40 35 38 35 -4z m2559 3 c69 -30 111 -66 111 -95 0 -18 5 -24 23
-24 24 0 97 -45 97 -60 0 -5 -15 -20 -32 -35 l-33 -27 56 7 c53 6 58 4 100
-29 101 -80 108 -87 102 -102 -4 -10 2 -17 17 -21 15 -4 20 -11 17 -25 -4 -15
2 -23 28 -34 25 -10 32 -18 28 -32 -3 -15 2 -21 21 -26 38 -9 176 -144 183
-178 6 -32 20 -47 122 -137 41 -36 80 -79 87 -97 8 -18 23 -38 35 -45 17 -8
20 -17 15 -40 -5 -27 -4 -28 30 -27 50 2 63 -16 35 -46 l-22 -23 30 -6 c23 -5
32 -13 37 -34 10 -43 30 -60 104 -88 71 -27 96 -47 85 -65 -3 -5 -22 -10 -41
-10 -68 0 -91 -31 -58 -78 23 -33 68 -27 72 9 5 42 36 63 92 63 69 0 123 -40
172 -124 21 -36 51 -77 68 -91 27 -23 29 -28 15 -39 -8 -7 -30 -10 -51 -8
l-37 4 23 -18 c14 -11 39 -18 66 -18 34 0 51 -6 79 -31 19 -17 35 -40 35 -50
0 -13 7 -19 22 -19 35 0 58 -29 58 -71 0 -35 3 -39 35 -48 78 -21 275 -192
329 -284 48 -81 64 -176 81 -470 8 -149 18 -285 21 -302 12 -67 22 -843 14
-1076 -20 -531 -76 -712 -417 -1336 -110 -201 -186 -380 -253 -594 -26 -82
-46 -129 -54 -129 -20 0 -26 23 -26 103 0 55 -5 80 -21 107 -22 38 -370 388
-432 434 -21 16 -40 26 -44 23 -13 -14 -15 -111 -3 -167 11 -52 10 -62 -6 -96
-46 -93 -53 -45 -42 311 8 250 16 326 34 332 20 7 55 -32 63 -67 11 -58 35
-51 115 32 84 87 151 183 233 333 119 216 183 379 183 465 0 46 -21 90 -43 90
-7 0 -35 -23 -62 -50 -59 -60 -143 -118 -284 -194 -131 -72 -166 -99 -196
-150 -53 -90 -68 -209 -90 -699 -16 -362 -31 -500 -71 -641 -45 -160 -47 -205
-41 -1144 4 -562 2 -917 -4 -975 -15 -134 -36 -229 -56 -249 -26 -25 -147 -90
-318 -170 -323 -152 -453 -190 -865 -257 -135 -22 -335 -58 -444 -80 -110 -21
-205 -37 -213 -34 -33 13 18 40 212 113 214 80 286 121 388 220 48 47 87 91
87 97 0 15 -14 13 -225 -39 -274 -68 -337 -77 -575 -89 -295 -14 -1179 -7
-1235 11 -38 12 -125 86 -125 108 0 16 24 20 70 12 52 -9 67 -5 96 29 l22 26
238 7 c212 6 255 10 384 38 317 67 395 80 529 90 77 5 220 24 318 41 98 17
250 41 338 55 344 52 623 181 820 379 90 89 137 168 159 265 14 57 14 67 -1
97 -11 25 -14 50 -10 93 3 33 1 60 -3 60 -13 0 -60 -60 -60 -76 0 -8 7 -29 16
-46 47 -91 -61 -310 -180 -367 -25 -11 -60 -36 -79 -55 -37 -37 -107 -76 -197
-109 -51 -20 -81 -21 -410 -25 -370 -4 -648 8 -787 32 -45 8 -155 33 -245 55
-236 57 -295 65 -468 65 -131 0 -181 -5 -325 -32 l-170 -32 -17 22 c-41 52
-108 294 -111 393 -1 43 5 61 32 104 19 28 35 50 37 48 2 -2 -1 -19 -6 -38
-13 -45 -13 -98 1 -138 8 -24 17 -31 36 -31 23 0 25 -2 19 -36 -4 -19 -10 -42
-13 -50 -10 -26 14 -15 46 21 17 20 31 39 31 43 0 5 -15 23 -34 41 -25 25 -39
31 -55 26 -30 -9 -28 26 4 60 18 20 23 34 18 55 -8 43 24 129 54 143 20 9 32
8 61 -8 35 -19 48 -35 103 -128 67 -112 313 -159 849 -161 209 -1 239 1 268
17 18 10 37 29 42 43 10 25 14 104 6 104 -2 0 -20 -16 -39 -35 -35 -35 -36
-35 -120 -35 -75 0 -88 -3 -100 -20 -20 -28 -118 -36 -262 -21 -127 14 -183
27 -207 48 -23 21 -58 98 -58 128 0 23 2 24 20 15 27 -14 26 -7 -12 114 l-33
101 -7 -45 c-3 -25 -7 -76 -8 -115 -2 -76 -12 -117 -24 -97 -12 20 -30 13 -48
-18 -16 -28 -21 -30 -73 -30 -42 0 -55 -3 -55 -15 0 -19 -33 -19 -70 0 -42 22
-54 70 -54 220 0 134 10 182 51 227 26 29 81 39 148 27 33 -5 129 -10 213 -9
161 0 188 -6 224 -49 23 -28 40 -27 124 9 99 41 193 54 301 41 149 -18 196
-15 269 20 57 27 79 32 187 39 131 8 161 17 238 73 35 26 65 37 122 47 42 7
83 10 91 7 23 -9 20 -81 -9 -222 -32 -153 -32 -160 10 -257 6 -15 1 -17 -42
-12 -38 5 -52 3 -62 -10 -16 -19 -82 -21 -129 -5 -37 13 -46 39 -57 158 -7 84
-12 101 -30 101 -36 0 -83 -106 -92 -209 -7 -80 -17 -101 -46 -101 -50 0 -187
-83 -187 -113 0 -6 41 -7 104 -2 l105 7 14 -29 c9 -17 30 -34 53 -42 21 -8 75
-36 121 -63 93 -55 135 -67 160 -47 12 10 49 14 137 14 144 0 173 11 274 109
74 70 122 147 122 193 0 22 8 40 25 56 16 14 28 39 32 63 3 22 17 51 32 67 37
41 21 60 -58 69 -68 8 -91 20 -91 49 0 27 -6 24 -62 -26 -51 -46 -134 -80
-165 -68 -21 8 -54 85 -88 207 -32 116 -35 111 75 146 91 29 119 20 149 -50
12 -27 21 -53 21 -59 0 -16 33 -81 41 -81 17 0 17 18 -2 59 -10 24 -19 49 -19
55 0 20 126 88 157 84 30 -3 30 -3 22 -112 -3 -32 0 -50 8 -53 20 -7 26 82 20
282 -8 231 -32 440 -58 515 -26 73 -27 75 -7 72 35 -6 42 42 68 418 13 181 24
266 51 372 20 75 20 80 3 140 -42 151 -26 217 65 262 49 26 54 31 66 94 15 73
135 152 232 152 28 0 64 5 80 11 15 6 106 26 202 45 257 51 415 119 533 232
63 60 87 102 96 170 14 93 49 53 77 -88 29 -144 54 -186 115 -196 20 -3 59
-19 86 -35 91 -52 114 -63 121 -55 5 5 0 13 -10 20 -51 31 -54 35 -33 51 11 8
38 15 60 15 52 0 73 12 52 29 -14 12 -119 34 -220 47 -56 6 -96 39 -96 77 0
14 14 68 30 122 37 120 37 170 4 277 -35 110 -58 153 -110 210 -69 75 -70 81
-24 219 43 128 48 163 27 188 -8 9 -19 40 -25 70 -15 66 -55 118 -136 175 -80
57 -121 77 -246 120 -123 42 -171 72 -193 119 -21 43 -35 187 -19 187 6 0 35
-48 65 -107 62 -120 82 -151 92 -141 11 10 -32 129 -97 273 -67 147 -82 199
-98 340 -21 186 -53 235 -196 301 -110 51 -186 68 -230 52 -25 -9 -40 -9 -52
-2 -28 17 -52 76 -52 125 0 158 -110 244 -392 304 -80 17 -141 49 -146 78 -2
9 6 29 18 44 19 24 20 35 14 90 -6 56 -3 71 21 125 29 64 65 260 65 354 0 145
-72 368 -166 515 -10 15 -14 34 -10 44 5 14 14 16 54 10 26 -4 67 -15 91 -26z
m-2741 -25 c32 -22 57 -73 42 -88 -18 -18 -194 -13 -224 7 -33 22 -43 55 -22
75 14 15 18 14 45 -6 39 -28 55 -28 75 3 19 29 51 32 84 9z m1771 -7 c-2 -2
-29 -21 -59 -42 -135 -97 -187 -167 -214 -287 -21 -93 -26 -163 -36 -488 l-9
-295 136 -136 135 -136 -11 -153 c-6 -85 -16 -171 -23 -192 -13 -44 -49 -78
-83 -78 -95 0 -139 -80 -101 -187 36 -103 27 -270 -20 -350 -13 -23 -59 -79
-103 -125 -43 -46 -85 -96 -93 -113 -12 -22 -17 -77 -21 -215 -4 -162 -7 -192
-27 -243 l-23 -58 21 -45 c12 -24 22 -52 22 -61 0 -10 -22 -39 -50 -65 -38
-36 -51 -57 -56 -87 -6 -38 -17 -59 -69 -129 -47 -65 -45 -185 6 -335 23 -66
29 -102 27 -145 l-3 -57 -52 -25 c-29 -14 -65 -37 -81 -52 -46 -45 -63 -38
-131 55 -74 103 -124 199 -146 282 -20 71 -15 111 14 120 11 3 38 38 59 78 22
40 61 101 88 137 169 229 286 456 309 600 9 60 2 51 -86 -100 -95 -165 -205
-328 -337 -501 -130 -170 -139 -187 -147 -258 -12 -105 -46 -206 -117 -346
-84 -166 -88 -194 -39 -297 47 -98 63 -108 181 -108 128 0 169 20 217 105 39
71 42 106 11 128 -23 16 -23 16 -2 16 12 1 36 -10 55 -23 19 -14 62 -44 96
-67 97 -65 95 -88 -16 -163 -99 -67 -155 -148 -168 -241 -5 -39 -1 -55 26
-109 18 -35 46 -78 62 -96 l30 -32 50 98 c28 55 62 120 75 147 62 123 84 274
93 638 6 294 9 309 56 309 49 0 46 -16 86 505 12 160 27 304 34 321 9 23 21
33 44 37 23 5 39 19 61 54 40 62 57 125 70 245 6 57 20 124 35 165 15 38 30
105 34 153 11 106 20 129 75 188 93 100 120 207 121 477 0 150 -3 185 -17 211
-9 16 -64 81 -123 143 -124 130 -139 158 -124 228 5 26 12 136 15 243 6 241 6
240 43 240 19 0 46 13 73 35 73 58 128 88 182 97 28 5 69 22 91 37 40 28 95
49 189 71 74 17 97 32 206 135 55 52 114 102 131 110 28 15 32 15 49 0 45 -41
117 -273 141 -452 27 -205 -45 -513 -163 -695 -86 -132 -128 -259 -127 -378
l1 -55 14 33 c8 18 21 65 29 103 8 39 20 79 26 90 12 24 32 15 24 -11 -8 -26
-8 -127 0 -140 12 -19 35 10 35 45 0 51 21 61 57 26 40 -38 152 -75 230 -76
65 0 100 17 130 62 13 19 11 24 -18 51 -39 36 -31 52 25 52 58 0 119 -42 168
-116 41 -64 47 -88 22 -98 -13 -5 -15 -16 -11 -52 10 -96 103 -191 224 -229
57 -18 57 -18 94 3 52 30 62 28 101 -17 99 -117 173 -286 202 -466 31 -193 37
-207 130 -304 108 -114 110 -118 114 -300 2 -91 -1 -180 -8 -215 -48 -254
-182 -457 -421 -635 l-82 -61 84 0 c104 0 138 15 239 102 94 81 125 122 134
176 3 24 20 84 36 135 40 125 59 222 69 344 6 78 12 108 26 123 23 25 151 89
185 92 25 3 25 2 24 -67 -2 -82 -35 -202 -95 -338 -22 -50 -41 -107 -41 -128
0 -46 27 -94 68 -120 38 -23 72 -24 121 -4 43 18 63 7 63 -35 0 -37 -44 -204
-69 -262 -62 -146 -221 -222 -521 -249 -134 -12 -262 -8 -530 17 -216 21 -667
24 -730 6 -25 -8 -76 -32 -114 -55 -81 -48 -98 -44 -108 28 -8 53 -11 60 -32
52 -32 -12 -33 -268 -1 -344 11 -25 20 -33 39 -33 33 0 35 5 42 97 8 90 20
109 75 118 23 4 43 14 49 26 9 16 22 19 85 19 64 0 76 3 85 20 26 48 67 -3 55
-68 -8 -43 -27 -49 -70 -23 l-35 20 0 -25 c0 -17 -8 -27 -24 -34 -48 -18 -89
-199 -106 -471 -7 -95 -18 -192 -26 -216 -9 -25 -12 -57 -8 -80 4 -29 1 -47
-15 -74 -11 -19 -27 -67 -35 -106 -9 -40 -32 -114 -52 -165 -32 -80 -37 -104
-36 -170 0 -55 -4 -80 -14 -89 -8 -6 -62 -14 -122 -17 -122 -5 -244 15 -284
48 -22 18 -22 19 -5 51 9 19 32 54 50 77 31 43 32 46 32 150 0 103 -1 110 -36
182 -35 71 -119 180 -140 180 -18 0 -8 -26 31 -85 47 -70 81 -166 83 -233 l2
-47 -65 1 c-36 1 -106 5 -156 9 -104 9 -139 3 -154 -25 -11 -21 -2 -43 45
-109 33 -45 33 -79 0 -87 -34 -9 -69 -52 -91 -116 -13 -35 -35 -68 -65 -98
-25 -25 -44 -51 -42 -57 3 -8 22 -13 48 -13 32 0 55 8 91 33 72 48 101 58 182
64 l74 6 -4 -179 c-4 -208 -7 -218 -91 -261 -43 -22 -64 -26 -124 -25 -52 1
-84 -4 -115 -18 -24 -11 -51 -20 -61 -20 -27 0 -32 28 -7 48 21 17 21 21 11
97 -6 44 -16 161 -22 260 l-12 180 -39 45 c-52 60 -85 77 -105 57 -18 -18 -32
-83 -33 -149 0 -62 -15 -100 -37 -96 -10 2 -32 30 -50 62 -19 33 -63 91 -99
129 -69 73 -114 152 -114 201 0 16 9 44 21 62 18 30 19 34 4 34 -33 0 -137
-64 -175 -108 -51 -57 -83 -140 -83 -217 -1 -69 17 -110 63 -149 60 -50 62
-44 54 127 -7 159 -1 197 32 197 8 0 23 -14 32 -31 9 -18 29 -46 43 -63 41
-48 49 -71 49 -130 0 -98 -105 -467 -171 -602 -17 -34 -64 -99 -106 -145 -112
-125 -202 -249 -286 -397 -124 -216 -156 -255 -240 -292 -61 -27 -180 -37
-232 -20 -45 15 -130 91 -151 135 -9 16 -42 55 -75 85 -65 60 -78 91 -79 186
0 57 -12 74 -51 74 -46 0 -67 28 -79 104 -6 38 -9 70 -7 73 6 5 164 -14 235
-28 30 -6 56 -17 61 -27 5 -10 7 -47 4 -84 -4 -50 -1 -78 11 -110 23 -58 73
-108 106 -108 66 0 270 199 270 264 0 10 23 63 50 118 28 55 55 122 60 150 6
28 27 92 49 142 64 150 76 209 36 176 -8 -7 -30 -40 -48 -74 -99 -187 -384
-347 -619 -346 -138 1 -283 58 -371 146 -65 64 -93 119 -123 242 -20 84 -28
101 -59 128 -40 35 -44 50 -16 59 22 7 91 -19 91 -33 0 -12 73 -42 103 -42 33
0 134 -52 201 -103 73 -56 125 -71 215 -65 118 9 200 67 260 186 32 64 74 120
174 231 78 86 115 147 153 251 14 41 51 131 82 200 30 69 72 168 94 220 21 52
57 126 79 163 39 66 61 137 42 137 -31 0 -121 -138 -198 -305 -50 -108 -131
-338 -145 -415 -8 -42 -19 -63 -46 -90 l-36 -35 6 45 7 45 -53 -60 c-111 -127
-179 -185 -272 -230 -107 -53 -175 -71 -311 -86 -141 -16 -244 -7 -298 24 -68
41 -299 283 -330 347 -58 121 -113 396 -147 745 -11 116 -23 215 -25 220 -3 6
-3 -89 -1 -210 5 -204 23 -439 47 -595 22 -145 23 -180 5 -180 -19 0 -36 38
-36 80 0 72 -48 35 -147 -112 -35 -54 -76 -107 -90 -118 -100 -78 -215 88
-258 370 -8 52 -15 129 -15 170 0 175 -36 285 -122 377 -95 102 -140 222 -123
325 6 32 19 54 61 95 32 32 61 53 75 53 20 0 21 -3 15 -47 -18 -125 -19 -183
-4 -183 16 0 38 40 38 67 0 56 131 223 174 223 56 0 60 -47 8 -109 -64 -76
-67 -85 -67 -211 0 -127 7 -149 58 -180 57 -35 98 -27 161 31 67 61 102 107
90 119 -5 5 -53 15 -107 23 -104 16 -137 33 -137 72 0 24 36 82 79 130 50 54
61 76 50 97 -15 28 -99 78 -131 78 -24 0 -28 4 -28 29 0 46 -17 53 -91 35 -70
-18 -222 -84 -233 -103 -15 -24 -47 -11 -62 25 -19 46 -23 267 -5 340 24 101
96 154 296 219 177 57 185 64 200 165 8 53 29 80 61 80 68 0 297 119 391 204
28 25 58 46 67 46 10 0 21 -19 31 -57 24 -88 45 -130 99 -202 27 -36 62 -95
78 -131 59 -130 74 -155 133 -215 65 -65 108 -91 179 -104 55 -10 71 -22 97
-74 30 -57 34 -122 14 -197 -35 -128 -34 -135 27 -194 43 -42 66 -56 107 -66
121 -29 240 40 301 174 15 33 54 91 86 128 33 37 90 102 128 145 38 43 77 98
88 121 11 25 33 51 49 60 16 10 29 21 29 26 0 14 -32 46 -46 46 -9 0 -318
-353 -339 -387 -1 -2 -42 11 -91 28 -62 21 -110 31 -161 33 -54 1 -76 6 -92
20 -12 11 -64 104 -117 207 -82 163 -102 195 -150 238 -31 28 -61 51 -68 51
-27 0 -96 61 -130 114 -19 30 -43 59 -54 65 -26 14 -46 -1 -37 -29 13 -41 -33
-4 -59 48 -33 67 -69 180 -62 198 8 21 56 14 67 -8 5 -10 13 -25 17 -35 4 -9
27 -22 49 -28 108 -32 339 -184 472 -309 130 -122 157 -131 396 -130 255 1
341 31 475 164 70 70 126 164 276 457 42 84 97 176 120 204 24 27 52 70 63 93
10 24 24 47 30 51 7 3 36 -4 66 -16 64 -26 102 -20 122 20 9 20 9 30 -3 53
-32 62 -212 172 -319 196 -79 18 -233 30 -460 37 -115 3 -248 11 -294 16 -83
10 -85 10 -105 -15 -27 -32 -64 -46 -126 -46 -37 0 -55 -6 -78 -25 -21 -17
-46 -26 -88 -30 -89 -9 -98 -12 -132 -44 -19 -19 -53 -36 -89 -46 -119 -31
-136 -39 -153 -70 -18 -32 -43 -42 -106 -44 -43 -1 -59 -12 -65 -46 -3 -16
-17 -22 -69 -31 -36 -7 -66 -12 -68 -13 -2 -1 6 -16 17 -35 26 -41 18 -46 -64
-46 -61 0 -73 -9 -44 -33 10 -9 19 -21 19 -26 0 -20 -32 -40 -76 -47 -44 -6
-45 -7 -42 -40 1 -18 -1 -36 -4 -39 -8 -8 -135 33 -144 46 -8 13 36 104 96
197 56 88 157 190 312 315 282 226 493 317 778 336 118 8 170 20 170 40 0 45
-370 4 -600 -66 -63 -19 -148 -41 -189 -49 -88 -17 -197 -72 -303 -153 -65
-50 -86 -75 -195 -241 -138 -208 -197 -280 -214 -263 -25 25 61 216 164 367
76 110 253 297 357 375 81 61 236 141 356 184 132 47 205 57 504 68 307 11
345 15 319 29 -39 22 -169 32 -329 27 -180 -7 -309 -24 -469 -62 -117 -28
-170 -50 -234 -94 -24 -16 -68 -41 -98 -54 -55 -25 -81 -44 -188 -135 -65 -54
-81 -58 -81 -17 0 29 49 95 146 197 77 81 90 104 52 92 l-23 -7 20 23 c11 12
46 42 78 66 68 51 67 54 -6 18 -76 -38 -112 -68 -159 -132 -23 -31 -85 -104
-138 -162 -52 -58 -110 -123 -129 -144 l-33 -39 7 77 c7 69 5 79 -11 91 -16
11 -19 26 -18 92 3 172 36 241 167 350 45 38 152 129 237 204 231 202 385 326
480 388 115 74 278 157 326 164 67 11 468 260 721 448 59 43 127 85 152 93 25
8 113 27 194 41 104 17 181 37 255 66 101 39 143 52 322 98 41 10 95 26 120
35 62 22 282 50 259 33z m1511 -16 c31 -22 52 -63 44 -85 -15 -40 -96 -26
-134 22 -55 70 13 117 90 63z m98 1 c4 -24 -7 -29 -26 -10 -18 18 -15 40 6 36
9 -2 18 -13 20 -26z m-1361 -17 c2 -6 -27 -23 -64 -39 -38 -16 -110 -51 -161
-78 -93 -48 -122 -57 -122 -37 0 31 148 121 253 155 47 15 89 14 94 -1z
m-2537 -53 c0 -19 -18 -42 -32 -42 -13 0 -9 48 5 53 22 9 27 7 27 -11z m4316
-126 c30 -97 40 -161 26 -170 -14 -9 -42 33 -42 63 0 14 -9 34 -20 46 -23 25
-37 107 -25 152 6 27 7 27 21 8 8 -11 26 -55 40 -99z m-5228 42 c15 -15 16
-54 2 -63 -10 -6 -70 52 -70 67 0 13 55 9 68 -4z m156 -4 c23 -23 20 -34 -12
-34 -32 0 -53 16 -45 36 7 19 38 18 57 -2z m3956 -93 c36 -119 44 -207 17
-198 -22 7 -77 208 -77 280 l1 32 19 -24 c11 -13 29 -53 40 -90z m-2740 89
c29 -18 -14 -36 -78 -32 -31 3 -19 19 21 31 42 12 40 12 57 1z m3521 -99 c38
-39 38 -61 0 -61 -42 0 -86 39 -77 68 10 31 42 28 77 -7z m-4696 -108 c4 -14
2 -23 -4 -23 -13 0 -31 33 -31 56 0 16 2 16 14 4 8 -8 17 -25 21 -37z m5275
-34 c0 -20 -37 -7 -49 17 -17 39 -2 52 26 20 12 -15 23 -31 23 -37z m-463 -64
c5 -30 3 -37 -8 -33 -16 5 -42 75 -33 90 11 17 34 -16 41 -57z m164 35 c21 0
8 -40 -15 -46 -36 -9 -71 -1 -71 16 0 17 44 42 63 35 8 -3 18 -5 23 -5z
m-1021 -110 c0 -22 -4 -40 -10 -40 -5 0 -10 18 -10 40 0 22 5 40 10 40 6 0 10
-18 10 -40z m1040 -89 c5 -11 10 -28 10 -38 -1 -16 -3 -15 -20 6 -21 25 -26
51 -10 51 5 0 14 -9 20 -19z m48 -139 c2 -14 -2 -22 -12 -22 -17 0 -39 34 -29
44 14 13 38 0 41 -22z m447 -162 c-14 -27 -73 -80 -88 -80 -21 0 -1 39 38 77
50 48 74 49 50 3z m-7076 -131 c-31 -61 -70 -119 -80 -119 -12 0 35 94 68 138
33 44 40 34 12 -19z m7157 25 c18 -71 -23 -170 -82 -196 -34 -16 -74 22 -74
70 0 28 10 44 59 93 65 65 87 72 97 33z m420 -189 c15 -23 15 -27 -2 -60 -22
-42 -64 -71 -89 -61 -14 5 -16 13 -10 44 9 50 42 102 66 102 10 0 26 -11 35
-25z m-1773 -47 c47 -24 -14 -45 -85 -29 -25 6 -58 16 -74 23 l-29 12 40 6
c46 8 122 1 148 -12z m2159 -69 c16 -20 31 -52 35 -72 5 -33 3 -37 -15 -37
-20 0 -24 6 -37 65 -3 17 -16 37 -27 46 -12 9 -18 21 -14 28 11 17 26 9 58
-30z m-8124 -51 c32 -32 2 -125 -65 -198 -48 -54 -68 -53 -59 1 9 56 52 158
78 186 25 26 29 28 46 11z m7570 -50 c25 -25 13 -38 -33 -38 -30 0 -45 4 -45
13 0 19 21 37 45 37 12 0 26 -5 33 -12z m306 -69 c30 -24 37 -73 9 -67 -20 4
-65 66 -57 79 8 14 19 11 48 -12z m191 -12 c42 -31 -37 -61 -82 -32 -25 17
-26 18 -8 31 24 18 66 18 90 1z m-1611 -159 c76 -29 129 -71 158 -125 46 -83
50 -183 8 -183 -14 0 -22 11 -31 43 -15 57 -141 181 -221 220 -41 19 -58 32
-58 46 0 11 6 22 13 24 18 8 75 -3 131 -25z m1631 -38 c18 -34 18 -40 5 -40
-14 0 -43 48 -35 60 9 15 13 13 30 -20z m-3438 -196 c2 -6 -6 -23 -17 -37 -40
-50 -90 -24 -55 29 12 18 23 24 42 22 15 -2 28 -8 30 -14z m-1407 -524 c177
-12 311 -29 327 -42 34 -27 -101 -241 -228 -363 -85 -81 -191 -152 -264 -175
-104 -34 -342 0 -495 71 -76 35 -111 67 -164 152 -89 139 -102 230 -38 255 33
13 375 99 417 105 59 8 303 7 445 -3z m547 -86 c3 -8 -2 -23 -11 -32 -15 -15
-17 -15 -33 0 -13 14 -14 20 -3 32 16 20 39 20 47 0z m-1459 -388 c-5 -32 -36
-32 -48 -1 -15 39 5 63 32 38 10 -9 18 -26 16 -37z m-713 -28 c32 -14 32 -36
0 -48 -42 -16 -94 13 -81 45 7 18 46 19 81 3z m5680 -168 c-1 -80 -5 -113 -18
-137 -19 -36 -34 -42 -44 -16 -6 15 12 207 24 246 2 10 12 17 21 15 15 -3 17
-18 17 -108z m-5768 63 c7 -18 -13 -33 -43 -33 -25 0 -46 21 -36 36 16 26 69
23 79 -3z m1087 -110 c10 -26 -23 -48 -42 -29 -8 8 -12 22 -9 30 8 21 43 20
51 -1z m771 -39 c0 -12 -8 -20 -22 -22 -26 -4 -28 1 -12 29 13 24 34 20 34 -7z
m5715 -44 c0 -5 -13 -10 -30 -10 -16 0 -30 5 -30 10 0 6 14 10 30 10 17 0 30
-4 30 -10z m-410 -80 c0 -30 -53 -100 -66 -87 -6 5 20 61 38 85 13 15 28 16
28 2z m-7364 -34 c8 -20 -13 -56 -32 -56 -20 0 -28 24 -14 49 12 24 38 28 46
7z m2309 -583 c-17 -40 -26 -54 -64 -95 -40 -45 -45 -32 -11 30 52 93 106 140
75 65z m63 -85 c-2 -15 -10 -23 -23 -23 -13 0 -21 8 -23 23 -3 18 1 22 23 22
22 0 26 -4 23 -22z m-942 -20 c10 -17 -40 -56 -82 -64 -63 -12 -73 33 -13 63
30 16 86 17 95 1z m880 -86 c-12 -12 -19 -13 -28 -4 -9 9 -7 16 7 32 17 19 20
19 28 4 6 -11 4 -21 -7 -32z m2120 3 c9 -24 -28 -90 -51 -90 -16 0 -21 8 -23
38 -2 21 2 45 9 53 15 18 58 18 65 -1z m84 0 c18 -21 4 -65 -20 -65 -24 0 -38
44 -20 65 7 8 16 15 20 15 4 0 13 -7 20 -15z m90 -39 c0 -27 -28 -43 -36 -21
-6 16 12 45 27 45 5 0 9 -11 9 -24z m101 -2 c8 -10 25 -14 52 -12 49 4 61 -17
20 -33 -35 -14 -110 -6 -130 13 -13 13 -12 17 2 32 21 20 39 20 56 0z m-2446
-30 c0 -12 -8 -20 -22 -22 -26 -4 -28 1 -12 29 13 24 34 20 34 -7z m2795 -18
c0 -7 -7 -19 -16 -27 -13 -10 -17 -10 -24 1 -4 7 -6 19 -3 27 7 17 43 17 43
-1z m-2830 -80 c0 -20 -25 -37 -44 -30 -19 7 -22 50 -3 57 17 6 47 -11 47 -27z
m2160 -120 c0 -13 -11 -55 -25 -95 -13 -40 -34 -119 -45 -175 -12 -55 -25
-111 -30 -123 -11 -26 -41 -287 -70 -608 -23 -243 -46 -430 -55 -446 -4 -5
-19 -9 -35 -9 -38 0 -53 -23 -90 -142 -33 -104 -52 -129 -119 -153 -64 -22
-84 -19 -131 20 -23 19 -49 35 -58 35 -45 0 -172 -77 -172 -105 0 -6 -7 -21
-16 -33 -43 -62 -69 57 -69 313 0 269 9 286 135 249 31 -9 115 -19 200 -23
125 -6 151 -10 183 -29 21 -12 45 -22 53 -22 21 0 17 37 -8 70 -24 33 -26 21
33 185 29 82 64 266 89 475 70 579 66 559 121 612 56 54 109 55 109 4z m187
27 c8 -21 -40 -63 -73 -63 -33 0 -32 32 2 59 32 25 62 27 71 4z m853 -398
c-14 -17 -40 -8 -40 14 0 9 10 32 23 51 l22 35 3 -43 c2 -24 -2 -50 -8 -57z
m-6616 -575 c17 -42 22 -115 8 -124 -4 -2 -15 33 -23 80 -16 91 -11 108 15 44z
m4476 -165 c7 -8 9 -22 6 -32 -6 -15 -9 -15 -28 4 -11 12 -17 26 -14 32 10 15
21 14 36 -4z m2334 9 c21 -8 21 -43 0 -51 -9 -3 -24 3 -36 15 -31 30 -8 53 36
36z m1703 -140 c-5 -52 -32 -89 -46 -65 -14 23 18 111 41 111 7 0 9 -16 5 -46z
m-1676 10 c13 -14 47 -39 74 -55 132 -75 143 -131 46 -240 l-48 -53 -75 63
c-94 79 -138 108 -138 90 0 -18 184 -197 214 -209 18 -6 27 -19 32 -46 10 -52
-5 -87 -41 -97 -109 -32 -130 -63 -130 -193 0 -83 2 -94 28 -130 32 -47 35
-74 9 -74 -11 0 -56 27 -102 60 -45 33 -98 65 -117 72 l-35 13 7 94 7 94 -31
-6 c-24 -5 -36 -2 -51 13 -36 36 -24 77 40 145 21 22 42 54 47 70 11 34 37 44
47 18 21 -53 25 -115 11 -143 -11 -21 -12 -36 -6 -53 15 -38 31 -43 31 -10 0
53 43 72 60 27 7 -17 16 -24 28 -22 24 5 20 72 -9 133 -30 64 -84 115 -164
156 -69 36 -80 49 -42 49 23 0 117 53 117 66 0 4 -7 12 -16 18 -12 10 -13 17
-4 41 27 71 102 134 161 135 15 0 35 -11 50 -26z m-2735 -198 c17 -13 19 -27
19 -155 0 -102 -4 -144 -13 -153 -11 -11 -15 -10 -23 5 -8 14 -25 17 -102 17
-99 0 -108 3 -126 37 -31 60 -64 253 -43 253 4 0 29 -18 56 -40 26 -22 52 -40
56 -40 5 0 15 -3 23 -6 19 -7 47 22 47 50 0 12 5 27 12 34 16 16 70 15 94 -2z
m1648 -102 c10 -4 16 -18 16 -39 0 -35 -22 -61 -41 -50 -15 10 -41 74 -34 85
7 11 36 13 59 4z m-4529 -50 c0 -12 -8 -20 -22 -22 -26 -4 -28 1 -12 29 13 24
34 20 34 -7z m-747 -48 l18 -46 18 55 c9 30 20 55 23 55 11 0 -7 -103 -22
-127 -21 -31 -38 -19 -59 44 -32 94 -12 110 22 19z m682 -49 c0 -7 -7 -22 -15
-33 -12 -16 -16 -17 -24 -5 -6 10 -6 22 0 33 11 21 39 24 39 5z m7774 -9 c9
-12 27 -57 42 -100 14 -43 30 -81 35 -84 6 -3 18 1 28 10 16 15 19 13 38 -27
12 -23 62 -89 112 -147 50 -58 103 -127 118 -155 27 -48 28 -56 27 -175 -1
-127 -17 -264 -37 -307 -5 -12 -18 -23 -28 -23 -30 0 -165 154 -204 233 -46
95 -63 166 -74 322 -13 164 -23 215 -66 341 -32 93 -37 134 -14 134 4 0 15
-10 23 -22z m-3996 -104 c4 -37 -21 -71 -77 -102 l-41 -23 -12 25 c-15 35 4
99 34 114 65 31 92 27 96 -14z m-3298 11 c17 -20 5 -77 -21 -101 -20 -18 -21
-18 -36 1 -25 34 -2 115 32 115 7 0 18 -7 25 -15z m-560 -31 c11 -27 4 -70
-12 -80 -16 -10 -38 17 -38 46 0 61 32 83 50 34z m769 -59 c-21 -75 -69 -149
-85 -132 -11 10 34 142 57 165 29 31 41 16 28 -33z m-309 -101 c0 -23 -4 -34
-12 -32 -33 11 -36 68 -3 68 11 0 15 -10 15 -36z m4000 19 c0 -28 -31 -53 -67
-53 -41 0 -42 11 -2 44 35 30 69 34 69 9z m230 2 c0 -34 -138 -145 -180 -145
-17 0 -11 36 11 64 12 15 44 42 72 61 55 37 97 46 97 20z m-4460 -50 c0 -13
-4 -27 -10 -30 -6 -4 -10 8 -10 30 0 22 4 34 10 30 6 -3 10 -17 10 -30z m2957
-27 c-14 -35 -37 -49 -37 -23 0 25 19 55 35 55 13 0 13 -5 2 -32z m-181 1 c8
-13 -22 -55 -59 -83 -39 -29 -51 -12 -35 47 12 45 13 47 49 47 21 0 41 -5 45
-11z m-2596 -83 c0 -24 -25 -47 -43 -40 -22 8 -22 32 0 56 12 14 19 15 30 7 7
-6 13 -17 13 -23z m5140 -18 c34 -18 80 -49 101 -70 22 -21 46 -38 54 -38 24
0 65 -46 65 -74 0 -32 -25 -40 -85 -26 -57 13 -87 28 -139 69 -21 17 -43 31
-47 31 -19 0 -7 -33 26 -77 19 -25 35 -52 35 -60 0 -7 -14 -38 -31 -69 -27
-48 -31 -62 -27 -110 4 -42 11 -61 31 -82 45 -47 30 -116 -37 -167 -47 -35
-57 -71 -47 -154 9 -70 5 -121 -10 -121 -14 0 -19 17 -34 117 -19 130 -33 504
-25 668 11 204 38 230 170 163z m630 -158 c0 -10 -4 -22 -10 -25 -6 -4 -10 7
-10 25 0 18 4 29 10 25 6 -3 10 -15 10 -25z m-5840 -26 c11 -12 11 -18 -2 -30
-20 -20 -58 -3 -58 26 0 25 41 28 60 4z m6675 -24 c4 -6 -14 -10 -47 -9 -39 0
-48 3 -33 9 28 12 73 12 80 0z m64 -90 c-23 -13 -157 -33 -176 -26 -19 8 -8
22 22 29 39 9 171 7 154 -3z m-2515 -26 c19 -18 19 -14 5 -52 -11 -31 -40 -49
-59 -37 -18 11 -12 83 8 94 23 14 28 14 46 -5z m-676 -48 c-5 -31 -36 -32 -44
-2 -3 14 -3 33 0 42 6 15 8 15 27 -2 11 -10 19 -27 17 -38z m-2614 -20 c29
-45 22 -73 -54 -206 -22 -38 -26 -93 -10 -135 17 -44 70 -102 115 -126 l42
-22 34 19 c24 14 46 43 74 97 45 87 58 102 75 92 18 -11 5 -59 -34 -129 -45
-80 -184 -276 -196 -276 -5 0 -53 34 -107 75 -54 42 -133 100 -175 131 -43 31
-78 62 -78 70 0 8 22 58 49 112 27 53 65 138 86 187 45 109 70 152 93 158 24
5 66 -18 86 -47z m7436 -166 c110 -210 348 -580 372 -580 3 0 -9 44 -28 98
-34 98 -42 142 -25 142 14 0 50 -54 66 -100 30 -86 29 -237 -2 -247 -7 -3 -26
25 -44 62 -34 72 -135 188 -195 226 -39 24 -76 20 -110 -12 -17 -16 -23 -17
-32 -6 -17 20 -30 92 -37 202 -9 130 -27 211 -70 306 -19 42 -35 87 -35 100 1
23 3 22 33 -13 18 -20 66 -100 107 -178z m-1275 121 c-10 -25 -28 14 -19 42
l7 22 9 -25 c5 -13 6 -31 3 -39z m-8985 25 c-23 -62 -89 -174 -90 -154 0 14
42 113 62 146 23 38 42 43 28 8z m9957 -40 c-3 -8 -11 -43 -18 -77 -14 -75
-26 -102 -41 -93 -26 16 23 184 53 184 6 0 9 -6 6 -14z m-8016 -89 c30 -29
115 -97 189 -149 74 -53 162 -117 195 -143 33 -25 121 -92 195 -147 203 -152
480 -430 480 -480 0 -23 -36 -68 -55 -68 -6 0 -20 19 -31 42 -13 29 -27 44
-44 48 -15 4 -32 20 -45 45 -14 28 -30 43 -54 51 -19 6 -38 20 -42 32 -5 12
-21 23 -39 27 -21 5 -38 17 -49 37 -29 53 -52 78 -73 78 -11 0 -37 17 -56 38
-20 20 -41 36 -48 34 -8 -1 -25 5 -39 14 l-25 16 0 -33 c-1 -33 -2 -33 -31 24
-34 66 -63 97 -278 291 -157 142 -231 224 -231 255 0 13 17 41 25 41 1 0 26
-24 56 -53z m-1021 13 c0 -16 -4 -30 -10 -30 -5 0 -10 14 -10 30 0 17 5 30 10
30 6 0 10 -13 10 -30z m9129 -187 c1 -109 -10 -154 -23 -92 -8 43 -8 243 1
266 12 29 22 -48 22 -174z m-4181 140 c3 -33 -38 -93 -64 -93 -26 0 -10 75 23
113 22 24 37 17 41 -20z m4660 -16 c4 -21 -15 -47 -34 -47 -15 0 -18 27 -8 55
8 21 38 15 42 -8z m-1932 -2 c14 -35 -46 -61 -74 -33 -19 19 -14 26 13 20 17
-3 27 1 31 12 8 20 23 21 30 1z m-2836 -30 c0 -24 -40 -59 -52 -47 -8 8 -6 19
6 36 18 28 46 35 46 11z m-1665 -51 c0 -22 -5 -30 -21 -32 -28 -4 -37 20 -17
47 20 29 38 22 38 -15z m5801 -5 c3 -6 6 -32 6 -57 -2 -78 -52 -99 -52 -22 0
66 26 111 46 79z m-6646 -79 c-36 -86 -232 -342 -283 -369 -40 -21 -44 -7 -12
41 40 62 233 318 263 351 33 34 50 21 32 -23z m105 -81 c4 -5 -17 -41 -47 -78
-142 -180 -193 -241 -201 -241 -16 0 2 62 28 100 38 53 123 161 157 198 30 33
52 40 63 21z m55 -121 c0 -11 -19 -46 -42 -75 -30 -39 -42 -64 -42 -89 -1 -30
-4 -34 -20 -30 -14 4 -30 -6 -53 -34 -35 -41 -100 -86 -110 -77 -8 8 42 91 81
136 18 20 47 56 66 81 77 102 120 134 120 88z m5115 -78 c4 -6 -9 -10 -32 -10
-28 0 -34 3 -23 10 20 13 47 13 55 0z m-208 -82 c24 -22 31 -48 13 -48 -15 0
-50 38 -50 55 0 21 10 19 37 -7z m2070 -8 c66 -40 127 -195 104 -263 -13 -36
-58 -87 -78 -87 -8 0 -20 15 -27 33 -23 54 -79 305 -73 321 8 21 35 20 74 -4z
m-6986 -58 c-35 -69 -152 -212 -173 -212 -18 0 -6 44 23 87 43 62 163 187 167
175 2 -6 -6 -28 -17 -50z m-3261 -45 c6 -24 10 -59 8 -78 l-3 -34 -17 31 c-21
38 -41 121 -32 135 10 17 31 -9 44 -54z m9435 4 c34 -72 34 -91 2 -206 -29
-106 -57 -261 -57 -321 0 -46 -24 -80 -36 -50 -3 9 3 92 14 184 26 208 31 266
33 370 1 45 5 82 9 82 3 0 19 -27 35 -59z m-675 5 c0 -27 -28 -43 -36 -21 -6
16 12 45 27 45 5 0 9 -11 9 -24z m-5352 -18 c18 -18 14 -34 -12 -46 -13 -6
-56 -55 -94 -109 -84 -118 -118 -151 -133 -136 -7 7 -9 22 -6 35 16 62 182
268 216 268 9 0 22 -5 29 -12z m4827 2 c4 -6 -7 -10 -25 -10 -18 0 -29 4 -25
10 3 6 15 10 25 10 10 0 22 -4 25 -10z m-5995 -35 c0 -13 -4 -27 -10 -30 -6
-4 -10 8 -10 30 0 22 4 34 10 30 6 -3 10 -17 10 -30z m218 23 c19 -19 14 -28
-13 -28 -18 0 -25 5 -25 20 0 22 20 26 38 8z m-1103 -28 c3 -10 1 -29 -6 -41
-11 -22 -12 -22 -25 -4 -21 29 -18 65 5 65 11 0 22 -9 26 -20z m2743 -6 c2
-15 -3 -23 -17 -27 -12 -3 -29 -20 -38 -38 -24 -45 -60 -78 -108 -100 -128
-59 -109 20 33 133 56 44 81 58 101 56 18 -2 27 -10 29 -24z m-558 9 c0 -18
-75 -135 -119 -186 -28 -32 -55 -74 -61 -96 -10 -36 -66 -99 -77 -87 -3 3 -5
24 -5 47 1 32 8 49 30 73 16 17 52 65 79 106 62 93 153 178 153 143z m800 -33
c153 -36 173 -54 86 -76 -69 -18 -216 -37 -251 -32 -38 4 -42 24 -16 83 19 42
22 45 58 45 21 0 76 -9 123 -20z m-4994 -24 c3 -8 -1 -39 -10 -68 -17 -57 -94
-223 -101 -217 -2 3 2 31 10 64 7 33 21 91 29 129 20 86 56 133 72 92z m4344
8 c0 -25 -148 -194 -169 -194 -37 0 23 98 103 168 33 28 66 42 66 26z m4524
-103 c25 -6 58 -11 74 -11 29 0 58 -21 45 -33 -16 -17 -92 -6 -128 19 l-38 25
6 -31 c4 -19 1 -45 -8 -66 -18 -43 -25 -43 -18 0 4 26 0 42 -16 62 -14 18 -21
41 -21 73 l0 46 30 -36 c20 -26 43 -40 74 -48z m-7390 53 c21 -8 21 -43 0 -51
-9 -3 -24 3 -36 15 -31 30 -8 53 36 36z m6216 -37 c0 -8 -9 -22 -19 -31 -22
-20 -36 -7 -26 24 7 22 45 28 45 7z m1378 -15 c2 -14 -2 -22 -12 -22 -17 0
-39 34 -29 44 14 13 38 0 41 -22z m-438 -31 c5 -11 10 -49 10 -85 0 -126 -39
-155 -48 -35 -4 52 -8 62 -28 69 -28 11 -29 18 -8 48 19 27 60 29 74 3z
m-6141 -37 c23 -29 27 -49 10 -59 -14 -10 -46 21 -52 50 -8 43 12 47 42 9z
m6931 -23 c15 -29 12 -41 -10 -41 -14 0 -22 -11 -30 -40 -15 -55 -24 -50 -17
10 10 80 35 112 57 71z m-482 0 c10 -6 7 -12 -11 -24 -39 -25 -73 -31 -80 -13
-12 30 58 59 91 37z m2434 -62 c29 -36 42 -86 23 -90 -15 -4 -89 107 -80 121
10 16 25 8 57 -31z m-7252 -8 c0 -29 -16 -51 -37 -51 -19 0 -16 50 3 71 21 23
34 16 34 -20z m4725 -22 c12 -18 -4 -61 -22 -57 -22 4 -38 32 -30 52 7 18 42
22 52 5z m130 1 c4 -6 -9 -10 -32 -9 -30 0 -34 2 -18 9 27 12 43 12 50 0z
m-1145 -95 c6 -22 10 -59 8 -80 l-4 -40 -13 30 c-11 26 -23 70 -47 170 -10 39
44 -37 56 -80z m700 -2 c0 -14 -49 -69 -50 -56 0 22 23 63 37 63 7 0 13 -3 13
-7z m108 -25 c-3 -36 -15 -42 -31 -17 -13 21 -2 49 18 49 12 0 15 -8 13 -32z
m2632 -8 c0 -16 -4 -32 -10 -35 -6 -4 -10 10 -10 35 0 25 4 39 10 35 6 -3 10
-19 10 -35z m-7535 6 c15 -11 17 -21 12 -59 -9 -63 -33 -117 -51 -117 -42 0
-75 140 -41 173 20 20 54 22 80 3z m5125 -84 c0 -47 -3 -63 -12 -60 -15 5 -23
88 -13 127 11 42 25 4 25 -67z m108 63 c-6 -28 5 -39 45 -49 31 -7 38 -42 10
-48 -29 -7 -77 10 -95 33 -33 39 -16 88 31 89 9 0 12 -8 9 -25z m-5366 -67
c-9 -20 -11 -18 -11 22 0 40 2 42 11 23 8 -17 8 -29 0 -45z m-2572 32 c0 -31
-161 -290 -181 -290 -14 0 -11 91 6 148 17 57 53 105 100 133 33 21 75 25 75
9z m1842 -7 c17 -15 25 -53 11 -53 -14 0 -43 34 -43 52 0 22 8 23 32 1z m7968
-24 c0 -16 -4 -29 -10 -29 -5 0 -10 16 -10 36 0 21 4 33 10 29 6 -3 10 -19 10
-36z m-2200 -79 c0 -23 -6 -33 -25 -40 -19 -7 -25 -17 -25 -39 0 -29 22 -61
41 -61 18 0 9 -19 -13 -25 -15 -5 -26 -2 -37 13 -9 11 -27 22 -41 24 -20 2
-26 9 -28 36 -4 41 -16 41 -108 -3 -40 -19 -76 -35 -80 -35 -10 0 4 102 16
114 7 7 10 6 10 -4 0 -17 29 -50 44 -50 6 0 16 10 21 23 7 15 23 25 50 30 22
4 65 16 95 26 77 26 80 25 80 -9z m-5621 -117 c21 -136 9 -149 -28 -29 -21 69
-27 127 -14 140 12 12 30 -36 42 -111z m-99 51 c0 -24 -4 -44 -10 -44 -5 0
-10 23 -10 51 0 31 4 48 10 44 6 -3 10 -26 10 -51z m-1090 21 c42 -27 60 -52
60 -84 0 -27 -16 -27 -23 -1 -5 19 -12 20 -74 18 -55 -2 -68 0 -68 12 0 10 12
16 34 18 31 3 33 5 27 33 -3 16 -3 29 -1 29 3 0 23 -11 45 -25z m8877 -94 c19
-98 12 -136 -27 -136 -22 0 -26 6 -32 45 -7 44 0 177 9 193 12 21 35 -26 50
-102z m-9252 59 c6 -10 -29 -50 -44 -50 -20 0 -22 22 -5 41 19 21 39 25 49 9z
m521 -5 c4 -8 3 -23 -1 -32 -6 -16 -8 -16 -26 6 -10 12 -16 27 -13 32 8 14 34
10 40 -6z m1139 -32 c3 -14 3 -34 0 -45 -9 -28 3 -68 20 -68 8 0 15 5 15 10 0
46 88 -114 125 -228 16 -50 16 -54 0 -72 -36 -39 -110 -30 -121 15 -7 29 7 50
34 50 23 0 28 59 7 91 -17 26 -41 32 -48 12 -5 -18 -29 31 -66 135 -30 86 -37
127 -25 140 12 12 53 -16 59 -40z m-1990 -23 c14 -27 22 -151 9 -137 -5 5 -34
140 -34 160 0 15 10 6 25 -23z m2918 -5 c18 -39 22 -81 8 -89 -5 -3 -12 16
-16 42 -4 26 -11 55 -16 65 -5 9 -6 17 -1 17 4 0 16 -16 25 -35z m-2378 5 c9
-15 -14 -40 -36 -40 -21 0 -25 20 -7 38 15 15 35 15 43 2z m6535 -3 c0 -14
-20 -37 -32 -37 -10 0 -11 34 -1 43 11 12 33 8 33 -6z m780 3 c0 -13 -75 -34
-95 -26 -14 5 -15 9 -5 21 14 17 100 21 100 5z m420 1 c0 -21 -13 -41 -26 -41
-14 0 -19 31 -7 43 10 10 33 8 33 -2z m-7620 -62 l22 -30 -36 7 c-36 6 -37 6
-30 -20 5 -22 3 -26 -15 -26 -26 0 -28 28 -6 70 20 38 38 38 65 -1z m6679 14
c-7 -10 -26 -33 -41 -51 -58 -68 -17 -73 47 -5 l44 48 30 -18 c16 -9 40 -16
53 -15 21 3 23 -1 29 -62 4 -36 7 -104 8 -153 1 -83 0 -88 -22 -98 -28 -12
-108 0 -114 17 -2 6 8 26 23 43 21 25 33 31 58 29 43 -4 42 24 -2 37 -24 7
-31 13 -25 25 13 29 15 120 3 136 -11 12 -21 6 -71 -41 -62 -59 -73 -64 -87
-39 -7 13 -19 16 -51 11 -22 -3 -41 -4 -41 -2 0 1 18 25 40 51 45 54 55 93 19
74 -11 -7 -23 -9 -26 -6 -10 10 61 35 101 36 35 0 37 -2 25 -17z m-5566 -38
c20 -43 34 -145 20 -145 -21 0 -93 89 -93 115 0 68 46 87 73 30z m82 5 c25
-49 15 -139 -12 -98 -9 14 -32 96 -33 116 0 23 30 12 45 -18z m4605 -16 c0
-13 -4 -24 -10 -24 -5 0 -10 14 -10 31 0 17 4 28 10 24 6 -3 10 -17 10 -31z
m1464 27 c19 -31 -80 -46 -169 -27 l-40 9 50 13 c60 14 152 18 159 5z m-7713
-40 c-7 -12 -16 -21 -20 -21 -17 0 -20 30 -4 45 21 22 39 4 24 -24z m5758 -23
c0 -35 -2 -39 -9 -21 -8 19 -3 63 6 63 2 0 4 -19 3 -42z m1080 -44 c-22 -26
-69 -10 -69 24 0 10 7 13 21 9 16 -4 25 2 37 24 l17 29 3 -36 c2 -19 -2 -42
-9 -50z m-2375 67 c6 -9 -25 -24 -81 -40 -64 -18 -28 20 36 40 36 10 39 10 45
0z m3570 -38 c-13 -38 -34 -41 -34 -6 0 34 19 58 34 43 6 -6 7 -19 0 -37z
m-7809 -62 c-9 -18 -23 -31 -35 -31 -38 0 -36 38 3 55 12 6 23 19 25 30 7 43
16 49 20 13 2 -21 -4 -50 -13 -67z m3769 90 c10 -16 -30 -40 -94 -55 -82 -20
-140 -20 -167 -1 -19 14 -21 13 -27 -8 -12 -48 -106 -77 -248 -77 -67 0 -111
-5 -138 -16 -55 -22 -102 -14 -202 34 -79 38 -128 75 -116 88 9 8 372 23 618
25 184 1 317 8 362 17 4 1 9 -2 12 -7z m4116 -33 c0 -9 -4 -20 -10 -23 -6 -4
-10 9 -10 32 0 28 3 34 10 23 5 -8 10 -23 10 -32z m-8473 -25 c2 -6 -8 -19
-22 -29 -24 -16 -28 -16 -42 -1 -14 13 -14 19 -3 32 15 18 61 17 67 -2z m767
11 c31 -12 18 -34 -19 -34 l-36 0 7 -50 c7 -56 1 -61 -40 -29 -64 50 9 143 88
113z m7304 -10 c40 -28 15 -104 -26 -78 -26 17 -25 32 3 27 34 -7 33 19 -2 46
-33 24 -10 29 25 5z m-115 -26 c31 -32 31 -33 10 -36 -27 -4 -83 33 -83 54 0
25 41 15 73 -18z m2370 2 c42 -50 107 -244 107 -320 0 -19 -11 -68 -25 -108
-14 -41 -26 -81 -26 -90 -3 -36 -17 46 -18 104 -1 83 -17 164 -51 264 -15 47
-29 99 -30 115 -5 74 4 82 43 35z m-10053 -5 c0 -18 -19 -50 -94 -153 -33 -45
-63 -82 -68 -82 -14 0 -52 22 -60 34 -15 22 -7 36 25 44 22 6 33 15 35 30 2
13 12 28 23 35 45 28 9 58 -40 33 -16 -9 -41 -16 -55 -16 -29 0 -76 19 -76 31
0 13 37 29 54 23 8 -3 41 2 73 11 l57 17 26 -31 c14 -17 30 -31 36 -31 14 0
26 28 18 41 -8 14 5 29 27 29 10 0 19 -7 19 -15z m5492 -13 c-18 -14 -21 -23
-16 -51 6 -30 5 -33 -17 -29 -16 2 -25 11 -27 26 -4 28 -6 27 -35 -2 -14 -14
-48 -32 -78 -40 -29 -9 -63 -23 -77 -32 -29 -19 -79 -12 -112 14 -18 15 -20
20 -9 29 27 22 304 101 359 102 l35 1 -23 -18z m-3642 -33 c8 -30 -4 -91 -13
-69 -20 48 -26 72 -20 85 8 22 26 13 33 -16z m5085 6 c0 -16 -8 -20 -40 -23
-52 -3 -74 10 -55 33 9 11 26 15 54 13 33 -2 41 -7 41 -23z m1204 -20 c34 -39
41 -68 15 -63 -19 3 -49 42 -59 76 -9 32 8 27 44 -13z m-8497 3 c12 -36 -29
-105 -56 -95 -22 9 -20 33 5 73 21 34 44 44 51 22z m7491 -2 c3 -8 1 -44 -4
-81 -6 -36 -8 -72 -6 -79 3 -7 23 -16 46 -20 47 -7 61 -24 36 -43 -26 -18 -69
-16 -88 5 -28 31 -48 171 -31 216 8 20 40 21 47 2z m-6223 -4 c0 -12 -56 -98
-69 -106 -23 -14 -11 53 15 83 24 29 54 41 54 23z m2110 -22 c0 -16 -4 -30
-10 -30 -5 0 -10 14 -10 30 0 17 5 30 10 30 6 0 10 -13 10 -30z m4210 -16 c0
-41 -31 -105 -49 -102 -20 5 -17 82 4 115 19 28 45 20 45 -13z m600 -33 c0
-35 -26 -62 -36 -36 -8 19 11 65 26 65 5 0 10 -13 10 -29z m-1005 -29 c-6 -16
-7 -16 -16 0 -5 9 -6 24 -3 33 7 16 8 16 16 0 5 -9 7 -24 3 -33z m-7117 7 c4
-32 -24 -58 -72 -66 -30 -5 -36 -3 -36 12 0 23 68 87 89 83 9 -2 17 -15 19
-29z m7217 -1 c-4 -18 -10 -77 -14 -131 -4 -71 -10 -100 -21 -107 -37 -24 -51
15 -24 66 l18 34 -31 32 -31 33 24 18 c13 10 24 23 24 30 0 21 30 57 47 57 12
0 14 -6 8 -32z m-6665 -18 c22 -22 27 -50 8 -50 -16 0 -58 41 -58 57 0 19 27
16 50 -7z m7785 -3 c19 -15 13 -37 -9 -37 -18 0 -39 27 -31 40 8 13 17 13 40
-3z m115 -2 c9 -11 10 -19 3 -26 -14 -14 -43 0 -43 22 0 23 23 25 40 4z
m-8605 -48 c14 -34 10 -57 -9 -57 -23 0 -47 76 -30 93 11 10 25 -3 39 -36z
m8269 4 c3 -5 -10 -12 -29 -15 -34 -7 -53 -22 -41 -34 4 -3 27 -5 51 -3 49 2
54 -3 28 -31 -19 -21 -42 -23 -77 -6 -28 12 -61 56 -51 66 22 23 109 39 119
23z m-8043 -24 c45 -30 47 -50 7 -98 -88 -107 -94 -111 -138 -104 -38 6 -55
-5 -29 -20 15 -10 29 -53 23 -70 -8 -20 -27 -19 -48 4 -19 21 -77 35 -105 26
-11 -3 -21 -15 -24 -25 -4 -16 -14 -20 -46 -20 -44 0 -54 -17 -26 -40 21 -17
19 -40 -3 -40 -43 0 -54 50 -26 119 9 22 25 43 35 46 18 6 19 8 2 35 -22 38
-8 70 45 105 l40 26 68 -34 c90 -46 128 -53 159 -33 35 23 31 43 -16 88 -40
38 -40 38 -17 47 37 16 63 12 99 -12z m-1451 -140 c-8 -37 -22 -63 -53 -96
-24 -26 -48 -55 -54 -66 -7 -11 -14 -17 -18 -14 -10 11 46 171 89 254 l41 80
3 -54 c2 -29 -2 -76 -8 -104z m1935 119 c51 -27 52 -50 4 -54 -27 -2 -44 3
-67 23 -50 42 -75 26 -84 -55 -3 -22 -57 -70 -79 -70 -18 0 -8 28 16 44 14 9
25 25 25 35 0 41 23 83 54 97 37 16 76 10 131 -20z m7789 8 c3 -9 6 -30 6 -48
0 -38 24 -76 49 -76 22 0 45 -25 36 -40 -7 -11 -35 -13 -60 -4 -23 9 -53 73
-61 133 -5 42 -4 51 9 51 8 0 18 -7 21 -16z m-654 -25 c0 -44 -15 -65 -50 -72
-22 -5 -30 -12 -30 -27 0 -18 5 -20 38 -18 34 3 37 1 37 -22 0 -22 -4 -25 -31
-23 -25 2 -36 -3 -49 -23 -14 -23 -21 -25 -55 -19 -22 4 -44 4 -50 0 -18 -11
9 -35 41 -35 37 0 37 -15 -1 -35 -47 -24 -67 -19 -100 27 -38 52 -46 83 -30
113 7 13 9 35 5 53 -7 36 -4 38 104 51 50 7 84 17 109 35 49 33 62 32 62 -5z
m-2496 -17 c6 -11 -21 -52 -35 -52 -14 0 -11 48 4 53 19 8 25 8 31 -1z m615
-11 c36 -23 -44 -80 -82 -59 -28 14 -33 39 -12 54 21 16 73 18 94 5z m2337
-43 c4 -6 -3 -19 -16 -30 -27 -22 -111 -22 -118 0 -9 28 118 57 134 30z
m-2888 -21 c2 -9 -6 -37 -18 -63 -20 -46 -21 -47 -35 -27 -9 13 -31 24 -54 28
-39 7 -70 29 -57 42 4 4 23 6 44 5 23 -1 48 5 67 18 33 22 48 21 53 -3z m437
-31 l50 -24 -52 -1 c-64 -1 -83 6 -83 30 0 26 24 24 85 -5z m-5157 -28 c-2
-13 -11 -24 -20 -26 -21 -4 -24 18 -6 36 19 19 30 14 26 -10z m6572 -22 c-23
-22 -70 -31 -70 -14 0 22 10 28 49 28 31 0 33 -2 21 -14z m989 -12 c40 -33 39
-49 -1 -64 l-33 -12 60 -29 60 -29 -59 0 c-48 0 -64 4 -83 22 -26 24 -30 71
-11 113 14 32 29 32 67 -1z m283 9 c29 -26 22 -33 -32 -33 -54 0 -59 4 -33 32
20 22 41 23 65 1z m-7444 -15 c3 -14 -3 -18 -27 -18 -31 0 -47 13 -36 31 11
16 59 6 63 -13z m-123 -72 c-10 -14 -21 -26 -26 -26 -12 0 -11 6 7 42 11 20
19 27 26 20 7 -7 4 -18 -7 -36z m-365 9 c7 -8 9 -22 6 -32 -6 -15 -9 -15 -28
4 -11 12 -17 26 -14 32 10 15 21 14 36 -4z m7230 6 c0 -13 -41 -41 -60 -41
-10 1 -6 9 13 25 29 26 47 32 47 16z m663 -38 c-12 -70 -10 -78 17 -78 34 0
50 -12 50 -39 0 -32 -7 -36 -43 -24 -64 21 -86 83 -52 148 21 41 35 37 28 -7z
m-8031 -10 c6 -16 30 -47 52 -70 l40 -43 -30 0 c-16 0 -40 7 -52 16 -27 19
-65 91 -58 110 9 23 36 16 48 -13z m6738 18 c0 -21 -13 -41 -26 -41 -14 0 -19
31 -7 43 10 10 33 8 33 -2z m-6189 -54 c-27 -27 -29 -3 -4 33 16 23 18 23 21
6 2 -10 -5 -28 -17 -39z m-978 21 c7 -21 -4 -38 -23 -38 -23 0 -34 16 -26 35
7 18 43 20 49 3z m10690 -75 c50 -135 57 -163 42 -163 -18 0 -52 48 -70 101
-17 46 -20 129 -6 129 5 0 20 -30 34 -67z m-10965 -8 c4 -38 2 -47 -9 -43 -20
7 -33 50 -25 83 10 39 27 19 34 -40z m7922 50 c17 -9 30 -20 30 -25 0 -6 -1
-10 -3 -10 -1 0 -16 -4 -34 -9 -41 -12 -69 6 -59 37 9 26 26 28 66 7z m190
-42 c0 -22 -28 -15 -46 12 -23 35 -8 52 22 24 13 -12 24 -28 24 -36z m-4060 8
c0 -24 -15 -35 -36 -27 -12 4 -13 10 -4 26 14 26 40 26 40 1z m4467 -3 l48
-22 -44 -4 c-62 -5 -91 4 -91 28 0 26 26 26 87 -2z m-932 -18 c-4 -19 -2 -36
6 -46 8 -10 10 -33 5 -75 -9 -91 -22 -103 -29 -28 -8 68 -33 122 -61 127 -14
3 -17 -1 -12 -16 5 -16 1 -22 -16 -27 -13 -3 -49 -18 -80 -32 -56 -26 -58 -26
-78 -8 -20 18 -28 69 -11 79 4 3 16 -3 26 -14 10 -11 23 -20 30 -20 6 0 50 20
98 45 48 25 97 45 108 45 18 0 20 -4 14 -30z m-3625 -19 c0 -14 -4 -32 -9 -40
-7 -11 -11 -10 -20 7 -12 22 -15 55 -5 65 13 13 34 -7 34 -32z m-3747 -7 c-1
-5 -11 -10 -21 -12 -20 -3 -37 22 -26 39 7 12 50 -14 47 -27z m475 -4 c23 -17
42 -34 42 -38 0 -29 -36 -18 -82 26 -54 50 -24 58 40 12z m7344 -7 c22 -19 24
-53 3 -53 -16 0 -35 30 -35 54 0 20 9 20 32 -1z m-4302 -23 c0 -16 -4 -30 -10
-30 -5 0 -10 14 -10 30 0 17 5 30 10 30 6 0 10 -13 10 -30z m-3610 -61 c0 -89
-17 -152 -50 -182 -35 -31 -53 -28 -44 9 10 38 -2 67 -56 134 -60 75 -64 95
-18 86 18 -3 43 -13 56 -22 20 -13 23 -22 19 -50 -3 -19 -2 -34 3 -34 15 0 40
43 46 80 3 19 8 42 10 50 10 29 34 -21 34 -71z m8375 70 c4 -6 11 -40 15 -76
9 -74 13 -81 36 -62 13 11 15 25 9 76 -17 158 52 -5 73 -173 l7 -58 60 -11
c65 -11 80 -29 48 -57 -54 -48 -133 -5 -133 72 0 38 -2 40 -30 40 -34 0 -39
14 -10 30 26 14 27 50 1 50 -10 0 -31 -10 -46 -21 -34 -27 -45 -15 -45 51 0
25 -5 64 -10 88 -10 43 -7 62 10 62 5 0 12 -5 15 -11z m-571 -5 c21 -8 21 -30
0 -38 -16 -6 -54 9 -54 23 0 20 24 26 54 15z m812 -61 c8 -18 13 -50 12 -73
-2 -46 4 -55 28 -46 12 5 15 14 10 36 -7 36 1 60 20 60 10 0 14 -13 14 -40 0
-61 -45 -140 -79 -140 -16 0 -21 23 -48 240 -4 34 -3 34 13 15 9 -11 22 -34
30 -52z m-4836 1 c0 -21 -4 -33 -10 -29 -17 10 -11 65 7 65 2 0 3 -16 3 -36z
m-3287 -1 c8 -10 17 -27 19 -38 2 -17 -2 -19 -26 -17 -26 3 -28 1 -21 -20 26
-82 14 -98 -36 -49 -20 21 -29 39 -29 63 0 66 55 102 93 61z m7397 -38 c0 -31
22 -33 42 -3 15 23 16 23 51 6 53 -25 63 -91 21 -133 -20 -20 -44 -4 -44 30 0
12 -7 29 -16 36 -14 11 -18 10 -30 -6 -8 -10 -14 -23 -14 -28 0 -5 -18 7 -40
27 -22 19 -51 38 -65 42 -14 3 -25 10 -25 15 0 17 46 39 82 39 34 0 38 -3 38
-25z m-930 -82 c0 -17 -4 -35 -10 -38 -6 -4 -10 14 -10 47 0 38 3 49 10 38 5
-8 10 -29 10 -47z m-6551 -44 c17 -17 31 -39 31 -49 0 -16 -6 -18 -33 -13 -29
4 -37 0 -60 -26 -31 -38 -37 -39 -37 -5 0 16 11 36 25 50 14 13 25 34 25 49 0
33 12 32 49 -6z m7082 -30 c23 -23 39 -47 37 -57 -9 -43 -98 21 -98 70 0 38
13 35 61 -13z m-281 -35 c0 -21 -4 -33 -10 -29 -17 10 -11 65 7 65 2 0 3 -16
3 -36z m703 14 c26 -13 10 -29 -21 -22 -40 10 -63 24 -57 35 6 9 47 3 78 -13z
m-588 -23 c0 -15 -8 -21 -29 -23 -33 -4 -51 10 -42 33 9 25 71 16 71 -10z
m1415 -50 c15 -45 1 -65 -46 -65 -41 0 -41 3 -9 42 14 16 25 36 25 44 0 27 18
14 30 -21z m-1215 -35 c0 -29 -32 -41 -41 -16 -9 24 4 48 23 44 12 -2 18 -12
18 -28z m-1545 10 c0 -5 -13 -10 -30 -10 -16 0 -30 5 -30 10 0 6 14 10 30 10
17 0 30 -4 30 -10z"/>
<path d="M7313 10759 c-13 -4 -23 -13 -23 -19 0 -11 7 -14 52 -24 17 -4 30
-16 36 -33 9 -25 10 -26 18 -9 16 41 -43 101 -83 85z"/>
<path d="M7362 10588 c-7 -7 -12 -21 -12 -32 0 -29 -16 -51 -37 -51 -15 0 -18
-8 -17 -45 0 -25 8 -61 16 -80 14 -31 16 -33 23 -15 15 44 29 65 41 65 20 0
27 42 14 90 -6 23 -9 44 -7 46 3 3 17 -16 31 -41 44 -74 64 -50 26 33 -14 32
-25 42 -43 42 -12 0 -28 -5 -35 -12z"/>
<path d="M4440 10362 c0 -5 6 -17 14 -28 11 -15 17 -16 27 -7 16 16 4 43 -21
43 -11 0 -20 -4 -20 -8z"/>
<path d="M8497 8526 c-7 -17 19 -56 37 -56 26 0 37 25 20 48 -17 25 -49 29
-57 8z"/>
<path d="M8610 8424 c0 -65 43 -146 69 -129 19 11 12 48 -19 103 -33 57 -50
66 -50 26z"/>
<path d="M8670 8130 c-6 -12 -8 -29 -5 -40 7 -23 43 -36 57 -22 15 15 1 60
-22 72 -15 8 -21 6 -30 -10z"/>
<path d="M9156 7184 c-16 -41 -3 -94 23 -94 40 0 54 48 25 88 -18 26 -39 29
-48 6z"/>
<path d="M9293 7154 c-3 -8 0 -21 6 -27 10 -9 16 -8 27 7 8 11 14 23 14 28 0
15 -41 8 -47 -8z"/>
<path d="M9477 5765 c-9 -8 -37 -56 -64 -106 -57 -108 -144 -211 -164 -192
-10 10 -6 24 19 73 52 98 36 123 -26 39 -18 -24 -63 -79 -100 -121 -37 -43
-82 -104 -99 -135 -58 -102 -42 -109 50 -23 36 33 67 60 71 60 15 0 3 -29 -35
-85 -117 -174 -211 -441 -225 -645 -6 -74 -4 -93 14 -132 21 -48 49 -72 70
-59 7 4 37 74 66 154 80 217 206 496 296 653 131 229 204 426 183 498 -10 35
-33 44 -56 21z m-231 -330 c16 -13 17 -16 4 -25 -23 -15 -50 -12 -57 6 -3 9 0
20 8 25 19 12 22 11 45 -6z"/>
<path d="M8125 5551 c-35 -21 -95 -86 -95 -104 0 -7 -27 -59 -60 -117 -33 -58
-60 -114 -60 -126 0 -12 7 -39 16 -60 15 -35 15 -62 5 -269 -6 -126 -18 -480
-26 -785 -17 -661 -24 -859 -31 -923 -6 -44 -4 -48 12 -45 21 4 28 23 44 128
7 41 16 97 21 124 13 79 28 544 35 1146 l6 555 82 130 c115 182 123 196 134
236 11 40 -2 82 -35 111 -18 16 -20 16 -48 -1z"/>
<path d="M8227 5224 c-28 -38 -38 -81 -25 -110 13 -29 34 -31 48 -5 11 22 14
141 3 141 -5 0 -16 -12 -26 -26z"/>
<path d="M8936 5221 c-7 -11 13 -71 24 -71 15 0 21 39 10 60 -11 21 -25 26
-34 11z"/>
<path d="M8770 4998 c-11 -18 -20 -38 -20 -44 0 -6 -14 -37 -31 -70 -27 -49
-30 -65 -26 -105 11 -89 73 -175 95 -132 5 10 12 52 15 93 4 42 13 95 22 119
27 77 16 171 -20 171 -9 0 -24 -15 -35 -32z"/>
<path d="M8202 4988 c-18 -18 -15 -40 6 -36 9 2 18 13 20 26 4 24 -7 29 -26
10z"/>
<path d="M8180 4531 c0 -17 5 -31 10 -31 6 0 10 11 10 24 0 14 -4 28 -10 31
-6 4 -10 -7 -10 -24z"/>
<path d="M7801 4478 c-13 -37 -14 -88 -2 -107 14 -22 31 20 31 78 0 59 -14 73
-29 29z"/>
<path d="M8150 4402 c0 -21 18 -42 37 -42 19 0 16 24 -5 43 -24 22 -32 21 -32
-1z"/>
<path d="M6336 3098 c-34 -73 -51 -153 -42 -201 9 -48 65 -113 89 -104 23 9
21 35 -8 82 -17 27 -25 54 -25 85 l1 45 20 -24 c11 -13 21 -22 23 -20 4 4 -20
164 -28 183 -2 6 -16 -15 -30 -46z"/>
<path d="M5780 3070 c-15 -28 -3 -59 27 -71 30 -11 28 -43 -5 -47 -12 -2 -29
-13 -37 -25 -25 -35 -17 -97 12 -97 11 0 13 -7 9 -25 -9 -35 18 -33 41 2 26
39 26 217 0 256 -21 32 -33 34 -47 7z"/>
<path d="M4924 2555 c-9 -24 5 -35 46 -35 45 0 61 17 35 37 -25 17 -74 17 -81
-2z"/>
<path d="M7979 2122 c-19 -52 -34 -76 -89 -135 -62 -68 -99 -87 -164 -87 -122
0 -186 -75 -115 -134 70 -59 118 -42 260 92 131 123 172 190 155 256 -9 36
-35 41 -47 8z"/>
<path d="M7080 9498 c-47 -24 -62 -60 -27 -66 18 -4 87 57 87 77 0 16 -10 14
-60 -11z"/>
<path d="M5353 9454 c-32 -25 -44 -54 -23 -54 17 0 60 47 60 65 0 19 1 19 -37
-11z"/>
<path d="M5741 9404 c-31 -22 -81 -102 -81 -130 0 -12 7 -28 16 -35 14 -11 18
-10 30 6 8 10 14 26 14 35 0 10 13 37 30 61 28 42 39 79 22 79 -4 0 -18 -7
-31 -16z"/>
<path d="M6986 9308 c-11 -16 -13 -25 -4 -35 23 -28 48 -8 48 38 0 26 -25 24
-44 -3z"/>
<path d="M6273 9260 c0 -25 2 -35 4 -22 2 12 2 32 0 45 -2 12 -4 2 -4 -23z"/>
<path d="M6425 9270 c-14 -15 -16 -23 -7 -32 13 -13 42 6 42 28 0 22 -17 24
-35 4z"/>
<path d="M6747 9283 c-24 -6 -11 -23 18 -23 29 0 41 16 19 24 -9 3 -16 5 -17
5 -1 -1 -10 -3 -20 -6z"/>
<path d="M5746 9159 c-26 -30 -36 -89 -16 -89 12 0 70 88 70 107 0 23 -27 14
-54 -18z"/>
<path d="M4717 9102 c-15 -15 -27 -36 -27 -45 0 -15 3 -16 23 -6 26 13 56 49
57 67 0 21 -25 13 -53 -16z"/>
<path d="M6650 9100 c0 -5 14 -10 30 -10 17 0 30 5 30 10 0 6 -13 10 -30 10
-16 0 -30 -4 -30 -10z"/>
<path d="M5805 9080 c-8 -12 -34 -229 -35 -282 0 -46 21 -51 47 -12 35 54 55
221 33 278 -10 26 -34 34 -45 16z"/>
<path d="M5267 8963 c-10 -9 -9 -43 1 -43 10 0 42 33 42 43 0 9 -35 9 -43 0z"/>
<path d="M5368 8943 c-22 -5 -24 -41 -3 -49 23 -9 65 5 65 21 0 12 -32 38 -42
34 -2 -1 -11 -3 -20 -6z"/>
<path d="M4810 8896 c0 -34 80 -103 103 -89 11 7 -25 62 -55 84 -31 23 -48 24
-48 5z"/>
<path d="M5387 8799 c-20 -27 -11 -51 17 -47 16 2 21 10 21 32 0 37 -18 44
-38 15z"/>
<path d="M4891 8705 c-32 -37 -39 -59 -21 -70 16 -10 70 51 70 79 0 35 -12 33
-49 -9z"/>
<path d="M5800 8710 c-24 -24 -24 -30 -7 -54 11 -15 17 -16 35 -7 26 14 37 48
22 66 -16 20 -26 19 -50 -5z"/>
<path d="M6946 8638 c-19 -93 -31 -257 -18 -243 5 6 15 35 21 65 14 63 27 250
18 250 -3 0 -12 -33 -21 -72z"/>
<path d="M5470 8677 c0 -8 8 -22 19 -31 17 -16 19 -16 25 0 7 19 -10 44 -30
44 -8 0 -14 -6 -14 -13z"/>
<path d="M4583 8669 c-45 -13 -41 -24 14 -43 63 -22 90 -20 104 6 22 41 -39
60 -118 37z"/>
<path d="M5803 8554 c-3 -8 0 -21 6 -27 10 -9 16 -8 27 7 8 11 14 23 14 28 0
15 -41 8 -47 -8z"/>
<path d="M6842 8500 c-1 -46 1 -52 10 -33 8 16 8 32 0 55 -9 32 -10 31 -10
-22z"/>
<path d="M6673 8490 c0 -25 2 -35 4 -22 2 12 2 32 0 45 -2 12 -4 2 -4 -23z"/>
<path d="M5440 8505 c-15 -18 -6 -45 13 -45 8 0 20 7 27 15 10 12 10 18 0 30
-16 19 -24 19 -40 0z"/>
<path d="M5617 8424 c-10 -11 11 -41 32 -47 28 -7 48 18 31 38 -13 15 -51 20
-63 9z"/>
<path d="M6810 8302 c0 -33 4 -51 10 -47 13 8 13 65 0 85 -7 11 -10 0 -10 -38z"/>
<path d="M7305 7984 c-340 -55 -630 -301 -712 -604 -26 -97 -24 -271 6 -375
62 -219 216 -428 411 -557 291 -192 587 -269 853 -223 257 45 471 189 562 379
45 94 52 151 31 258 -9 45 -20 146 -25 223 -11 159 -26 217 -84 330 -71 136
-210 305 -251 305 -8 0 -33 16 -56 35 -42 35 -50 38 -122 50 -24 4 -45 16 -58
33 -27 33 -57 51 -89 52 -13 0 -45 12 -69 26 -73 43 -157 65 -267 69 -55 2
-113 1 -130 -1z m73 -430 c120 -17 248 -55 308 -90 77 -44 134 -161 134 -274
0 -70 -33 -202 -59 -239 -52 -72 -194 -113 -401 -114 -146 -1 -202 10 -262 49
-124 80 -154 304 -67 489 43 91 162 195 223 195 10 0 66 -7 124 -16z"/>
<path d="M7405 7320 c-66 -14 -115 -64 -135 -139 -30 -112 47 -225 173 -255
37 -9 83 19 131 81 67 86 72 163 14 228 -61 70 -122 98 -183 85z m168 -146
c12 -63 -32 -114 -53 -60 l-9 26 -35 -21 c-42 -25 -66 -17 -39 13 19 21 100
67 119 68 7 0 14 -12 17 -26z m-203 -35 c0 -34 -4 -49 -12 -47 -24 8 -32 35
-18 67 18 45 30 38 30 -20z"/>
<path d="M4696 7961 c6 -7 60 -21 120 -31 60 -11 119 -25 130 -31 12 -6 30 -9
39 -7 17 3 17 4 2 20 -31 31 -320 79 -291 49z"/>
<path d="M6462 7598 c-6 -26 -14 -34 -35 -36 -17 -2 -27 -9 -27 -20 0 -9 -20
-46 -45 -82 -87 -127 -115 -261 -80 -394 20 -77 76 -196 104 -221 23 -20 23
-20 38 0 12 16 13 39 6 125 -4 58 -8 148 -8 200 l0 95 58 121 c32 67 60 137
64 157 11 73 -57 123 -75 55z"/>
<path d="M5569 7213 c-63 -59 -142 -176 -165 -245 -9 -29 -39 -98 -66 -152
-78 -162 -54 -167 33 -8 61 110 107 177 184 262 72 80 112 148 102 174 -11 27
-36 18 -88 -31z"/>
<path d="M6176 6738 c-9 -20 -20 -78 -26 -130 -10 -86 -32 -200 -82 -423 -14
-64 -20 -132 -21 -235 -2 -120 -5 -149 -19 -170 -10 -13 -18 -32 -18 -41 0
-22 32 -49 58 -49 11 0 41 -16 66 -35 79 -60 148 -43 244 59 72 76 92 122 92
217 0 87 -21 167 -80 299 -21 47 -49 121 -63 165 -76 247 -108 342 -121 360
-14 19 -15 19 -30 -17z m84 -631 c0 -58 -18 -117 -35 -117 -24 0 -23 96 1 143
20 37 34 26 34 -26z"/>
<path d="M3860 6725 c0 -8 26 -32 58 -53 71 -49 131 -113 206 -220 66 -94 110
-132 152 -132 l29 0 -38 31 c-21 17 -71 75 -111 128 -129 169 -296 308 -296
246z"/>
<path d="M5234 6669 c-10 -16 22 -43 42 -35 16 6 16 8 -1 26 -20 23 -31 25
-41 9z"/>
<path d="M3615 6619 c-13 -20 5 -59 30 -65 48 -12 58 14 20 51 -26 27 -40 31
-50 14z"/>
<path d="M3434 6564 c19 -103 117 -233 237 -315 89 -60 174 -87 204 -65 17 12
16 14 -11 33 -16 11 -79 46 -140 77 -61 31 -127 71 -145 89 -19 18 -54 73 -79
122 -50 99 -77 123 -66 59z"/>
<path d="M3387 6292 c15 -61 204 -262 329 -353 46 -33 85 -68 89 -78 3 -10 37
-35 75 -55 38 -20 109 -68 157 -106 87 -69 150 -107 160 -97 10 10 -8 27 -178
163 -191 153 -330 274 -469 409 -132 127 -174 158 -163 117z"/>
<path d="M4414 6225 c-16 -40 46 -59 92 -28 25 16 25 17 8 30 -25 18 -93 17
-100 -2z"/>
<path d="M6587 6133 c-3 -5 -1 -29 5 -54 12 -53 16 -282 5 -322 -23 -81 -155
-169 -321 -212 -148 -38 -314 -111 -323 -142 -2 -6 10 -26 26 -45 26 -28 32
-31 41 -18 5 8 10 23 10 33 0 30 19 56 51 73 38 19 210 33 412 34 l148 0 19
43 c31 69 53 175 53 257 1 64 -5 89 -37 170 -21 52 -41 115 -45 140 -4 30 -12
46 -23 48 -9 2 -19 -1 -21 -5z"/>
<path d="M5563 6113 c-18 -7 -16 -42 2 -49 23 -9 65 5 65 21 0 24 -39 40 -67
28z"/>
<path d="M4806 5813 c-9 -24 9 -39 29 -23 8 7 15 19 15 26 0 20 -37 17 -44 -3z"/>
<path d="M3520 5746 c0 -27 47 -72 85 -82 30 -7 67 12 63 34 -2 8 -17 19 -34
24 -19 5 -34 16 -37 28 -4 15 -14 20 -41 20 -31 0 -36 -3 -36 -24z"/>
<path d="M3720 5571 c0 -25 37 -51 72 -51 38 0 35 14 -9 45 -45 30 -63 32 -63
6z"/>
<path d="M3890 5486 c0 -35 56 -87 149 -135 160 -83 178 -73 39 20 -51 34
-114 80 -140 102 -48 39 -48 39 -48 13z"/>
<path d="M6869 5373 c-6 -16 -13 -51 -16 -79 -6 -53 6 -75 26 -51 13 17 42
138 35 149 -11 17 -35 7 -45 -19z"/>
<path d="M6368 5343 c-19 -22 -48 -78 -48 -93 0 -22 20 -8 49 37 31 46 39 73
23 73 -5 0 -16 -8 -24 -17z"/>
<path d="M4700 5218 c0 -16 19 -38 33 -38 4 0 7 10 5 22 -3 25 -38 39 -38 16z"/>
<path d="M6646 5201 c-18 -19 -22 -51 -6 -51 13 0 42 58 31 64 -4 3 -16 -3
-25 -13z"/>
<path d="M5954 5109 c-255 -12 -269 -31 -19 -24 241 6 364 16 320 26 -38 8
-87 8 -301 -2z"/>
<path d="M4598 5065 c-31 -30 -56 -45 -73 -45 -26 0 -32 -10 -59 -84 -6 -18
-8 -18 -31 4 -28 27 -39 22 -66 -33 -27 -52 -39 -60 -60 -41 -23 21 -34 18
-63 -21 -15 -19 -31 -35 -37 -35 -5 0 -9 16 -9 35 0 41 -11 44 -37 12 -26 -33
-70 -60 -88 -53 -9 3 -15 18 -15 41 0 42 -7 44 -36 8 l-23 -28 -28 34 c-25 29
-30 31 -41 18 -15 -17 -40 -143 -34 -170 7 -34 36 -14 45 31 4 23 12 42 17 42
17 0 39 -57 47 -117 l6 -58 12 58 c13 64 24 81 51 75 17 -3 19 -13 16 -97 l-3
-93 33 20 c20 12 58 21 98 24 39 3 83 14 109 27 98 51 202 182 247 313 15 47
35 82 54 100 27 24 43 78 23 78 -5 0 -29 -21 -55 -45z m-288 -315 c14 -26 -4
-63 -28 -58 -18 3 -28 39 -18 64 8 20 34 17 46 -6z"/>
<path d="M3248 5078 c-6 -13 -26 -52 -44 -88 -17 -36 -45 -78 -62 -94 -27 -25
-36 -28 -71 -22 -50 8 -54 -7 -15 -53 48 -57 60 -58 109 -8 56 59 105 158 112
230 6 61 -6 76 -29 35z"/>
<path d="M5267 5013 c-23 -23 10 -145 44 -164 17 -8 19 -6 19 19 0 16 -5 44
-11 63 -28 87 -36 99 -52 82z"/>
<path d="M5635 4888 c-27 -15 -36 -31 -24 -43 5 -5 74 -12 153 -15 120 -4 147
-8 164 -23 12 -11 31 -17 48 -15 44 5 40 26 -8 38 -24 6 -79 24 -124 40 -86
32 -172 39 -209 18z"/>
<path d="M6620 4870 c0 -5 14 -10 30 -10 17 0 30 5 30 10 0 6 -13 10 -30 10
-16 0 -30 -4 -30 -10z"/>
<path d="M6759 4708 c-23 -46 -52 -97 -65 -115 -18 -24 -22 -39 -18 -63 5 -24
2 -36 -15 -54 -41 -44 -37 -130 5 -95 38 31 124 248 149 377 12 57 -13 35 -56
-50z"/>
<path d="M3843 4685 c0 -44 2 -61 4 -37 2 23 2 59 0 80 -2 20 -4 1 -4 -43z"/>
<path d="M3895 4620 c-9 -15 15 -72 29 -67 18 6 14 71 -6 75 -9 2 -19 -2 -23
-8z"/>
<path d="M5021 3624 c-52 -59 -83 -112 -74 -127 3 -4 6 -7 8 -5 17 21 124 188
121 188 -2 0 -27 -25 -55 -56z"/>
<path d="M4656 3009 c-28 -22 -35 -49 -12 -49 18 0 67 50 60 61 -8 14 -19 11
-48 -12z"/>
<path d="M4421 2984 c42 -45 137 -84 127 -51 -6 17 -108 77 -132 77 -18 0 -18
-2 5 -26z"/>
<path d="M4495 7346 c-49 -50 -40 -146 18 -190 24 -17 42 -21 105 -20 109 1
122 10 122 84 0 52 -3 60 -19 60 -10 0 -35 -13 -56 -30 -76 -60 -111 -49 -65
20 47 71 37 100 -37 100 -33 0 -50 -6 -68 -24z"/>
<path d="M8636 4181 c-6 -9 18 -32 52 -50 29 -15 28 -1 -3 33 -25 27 -40 32
-49 17z"/>
<path d="M8435 3640 c-8 -13 13 -40 31 -40 22 0 28 22 9 37 -23 16 -32 16 -40
3z"/>
<path d="M1230 8016 c0 -20 5 -36 10 -36 6 0 10 13 10 29 0 17 -4 33 -10 36
-6 4 -10 -8 -10 -29z"/>
<path d="M11063 973 c-20 -70 2 -411 48 -742 27 -192 45 -231 107 -231 32 0
42 21 32 65 -5 22 -18 115 -30 206 -11 92 -30 197 -40 235 -11 38 -27 128 -35
199 -28 233 -61 343 -82 268z"/>
<path d="M12500 732 c0 -10 33 -42 44 -42 4 0 6 10 4 23 -2 14 -11 23 -25 25
-13 2 -23 -1 -23 -6z"/>
<path d="M12480 527 c0 -16 42 -57 58 -57 17 0 15 21 -4 48 -17 24 -54 30 -54
9z"/>
</g>
</svg>
