<?xml version="1.0" standalone="no"?>
<!DOCTYPE svg PUBLIC "-//W3C//DTD SVG 20010904//EN"
 "http://www.w3.org/TR/2001/REC-SVG-20010904/DTD/svg10.dtd">
<svg version="1.0" xmlns="http://www.w3.org/2000/svg"
 width="1280.000000pt" height="1015.000000pt" viewBox="0 0 1280.000000 1015.000000"
 preserveAspectRatio="xMidYMid meet">
<metadata>
Created by potrace 1.15, written by Peter Selinger 2001-2017
</metadata>
<g transform="translate(0.000000,1015.000000) scale(0.100000,-0.100000)"
fill="#000000" stroke="none">
<path d="M9150 10140 c-117 -12 -182 -25 -345 -70 -293 -80 -547 -167 -850
-293 -99 -41 -205 -83 -235 -93 -36 -13 -58 -27 -65 -42 -7 -15 -18 -22 -36
-22 -16 0 -59 -21 -103 -52 -75 -50 -77 -51 -114 -39 -32 11 -44 10 -92 -8
-94 -35 -162 -109 -116 -127 13 -5 274 96 461 179 164 73 217 82 460 82 266
-1 400 -19 830 -113 231 -51 416 -105 403 -117 -3 -3 -85 10 -184 29 -384 75
-555 92 -813 83 -344 -12 -572 -58 -921 -187 -302 -112 -823 -330 -848 -354
-10 -11 6 -16 179 -56 299 -70 763 -210 1224 -370 248 -86 336 -110 403 -110
71 0 265 82 817 345 554 264 681 315 805 322 67 4 81 2 130 -24 92 -47 76 -72
-45 -73 -81 0 -177 -22 -271 -61 -133 -55 -1122 -525 -1193 -568 -130 -77
-231 -186 -231 -249 l0 -35 48 7 c26 3 73 12 105 20 31 8 57 11 57 7 0 -4 -37
-25 -82 -47 -71 -33 -92 -39 -148 -38 -70 1 -140 23 -684 218 -272 98 -401
129 -181 43 714 -277 771 -297 855 -297 113 0 246 59 349 155 46 43 62 54 57
38 -9 -29 6 -30 76 -2 66 26 118 64 118 88 0 21 22 42 68 65 54 28 57 13 5
-24 -36 -25 -44 -35 -30 -38 29 -6 154 58 191 98 27 30 45 39 83 45 47 6 209
77 248 108 17 14 18 16 3 17 -9 0 -28 -4 -43 -10 -14 -5 -24 -6 -21 -1 8 12
104 66 135 76 22 7 23 5 17 -19 -5 -22 -3 -26 14 -26 15 0 26 11 37 38 18 43
28 52 63 52 15 0 38 13 56 33 35 35 180 114 191 104 3 -4 -2 -16 -12 -27 -16
-18 -17 -20 -1 -20 32 0 137 60 148 86 6 13 21 26 32 28 109 21 137 30 160 51
47 44 41 53 -129 187 -133 105 -150 122 -139 139 11 18 299 155 379 180 78 25
95 39 88 72 -12 46 -71 87 -128 87 -37 0 -31 -17 15 -40 22 -11 40 -27 40 -35
0 -16 -101 -69 -331 -174 l-137 -62 -283 81 c-567 163 -669 196 -669 211 0 13
25 11 86 -7 62 -18 94 -13 74 11 -7 8 -21 15 -32 15 -11 0 -28 5 -39 11 -16 8
-18 13 -9 24 16 19 128 64 300 120 l145 47 365 -96 c361 -95 403 -104 385 -87
-24 21 -470 148 -624 177 -111 21 -242 15 -331 -16 -36 -12 -135 -55 -220 -94
-240 -113 -196 -106 -405 -66 -238 45 -507 81 -637 87 -76 3 -138 9 -138 12 0
38 719 276 1045 346 390 84 882 39 1595 -146 574 -149 1191 -356 1508 -505
215 -101 312 -184 312 -266 0 -52 -58 -185 -91 -208 -14 -11 -60 -33 -103 -49
-90 -36 -168 -75 -250 -125 -33 -20 -74 -38 -92 -42 -19 -3 -40 -16 -49 -30
-8 -13 -25 -24 -36 -24 -11 0 -31 -12 -44 -26 -13 -14 -58 -37 -102 -53 -43
-15 -114 -50 -158 -78 -136 -85 -1018 -540 -2600 -1341 -433 -219 -726 -374
-752 -396 -23 -20 -50 -36 -61 -36 -11 0 -27 -11 -36 -25 -10 -16 -26 -25 -42
-25 -37 0 -61 -16 -72 -50 -10 -27 -15 -30 -56 -30 -54 0 -76 -8 -76 -26 0
-29 -223 -141 -302 -151 -33 -5 -38 -9 -32 -25 10 -32 -41 -78 -88 -78 -32 0
-40 -5 -53 -30 -18 -35 -61 -44 -52 -10 3 11 2 22 -2 25 -13 8 -50 -24 -53
-47 -2 -14 -13 -24 -30 -29 -15 -4 -41 -20 -56 -36 -41 -41 -249 -152 -837
-449 -658 -332 -781 -388 -855 -389 l-55 -1 -37 -75 c-37 -75 -101 -258 -202
-579 -79 -253 -245 -795 -310 -1010 -30 -102 -71 -231 -90 -287 -23 -68 -31
-103 -23 -103 7 0 59 27 117 61 58 33 213 120 345 193 735 406 1554 862 1652
919 154 90 443 248 1008 552 890 477 1542 844 2970 1670 402 232 936 540 1188
683 728 415 787 461 787 613 0 58 -28 119 -54 119 -20 0 -46 -39 -46 -68 0
-20 4 -23 38 -20 36 3 37 2 37 -31 0 -53 -25 -62 -69 -24 l-35 31 -53 -15
c-29 -8 -65 -17 -80 -20 -53 -10 -32 29 68 123 l96 92 -7 63 c-24 225 -49 352
-122 614 -24 88 -52 201 -63 250 l-18 90 -76 71 c-63 60 -98 83 -218 142 -523
259 -1706 611 -2328 693 -166 22 -556 33 -690 19z m-689 -721 c8 -16 8 -24 -1
-33 -14 -14 -42 18 -33 40 7 20 21 17 34 -7z m-636 -34 c0 -21 -31 -33 -46
-18 -5 5 -7 17 -3 27 9 24 49 17 49 -9z m735 -40 c0 -13 -4 -27 -10 -30 -6 -4
-10 8 -10 30 0 22 4 34 10 30 6 -3 10 -17 10 -30z m-421 -82 c23 -6 23 -7 6
-13 -24 -8 -57 -1 -49 11 6 11 11 11 43 2z m-736 -35 c7 -21 -4 -38 -23 -38
-23 0 -34 16 -26 35 7 18 43 20 49 3z m1410 -1 c7 -18 -3 -67 -14 -67 -14 0
-32 47 -26 64 8 19 33 21 40 3z m-1739 -129 c20 -29 21 -78 2 -78 -21 0 -46
40 -46 72 0 34 22 37 44 6z m3216 -113 c0 -6 -9 -20 -21 -31 -17 -16 -22 -16
-29 -4 -14 22 -12 36 6 55 12 12 19 13 30 4 8 -6 14 -17 14 -24z m2160 -13 c0
-7 -46 -75 -99 -147 l-30 -40 20 -175 c38 -334 35 -528 -12 -770 l-11 -55
-221 -125 c-122 -68 -337 -189 -477 -268 -294 -166 -843 -467 -1040 -570 -204
-107 -245 -118 -108 -28 34 22 72 55 83 73 25 40 177 140 405 268 215 120 276
161 327 219 46 52 63 101 63 178 0 58 -53 497 -71 585 -20 103 -65 124 -171
82 -100 -39 -484 -240 -641 -335 -65 -40 -84 -83 -92 -209 -8 -123 -12 -137
-30 -112 -24 33 -25 -7 -4 -220 27 -279 29 -449 4 -527 -23 -71 -88 -146 -177
-204 -92 -59 -730 -428 -811 -468 -38 -20 -72 -33 -75 -30 -7 7 -14 1 86 71
46 31 100 77 120 102 45 54 134 113 407 273 301 175 427 260 388 260 -5 0 -23
-9 -40 -20 -40 -24 -42 -13 -12 55 19 42 21 62 17 149 -6 114 -20 154 -57 163
-64 16 -286 -71 -286 -112 0 -14 8 -21 27 -23 31 -4 53 -26 43 -43 -5 -8 -33
-10 -85 -7 -82 5 -130 25 -130 54 0 14 8 15 47 9 l48 -7 -19 21 c-19 20 -18
21 30 42 30 14 43 24 33 26 -9 2 -43 -8 -75 -22 -99 -45 -136 -56 -200 -59
-46 -3 -84 -14 -151 -45 -50 -22 -95 -41 -101 -41 -17 0 -15 75 3 90 16 13 35
6 35 -15 0 -21 19 -28 36 -14 10 8 13 21 9 37 -5 20 -3 23 14 17 19 -6 59 6
184 55 53 21 58 22 75 6 26 -22 39 -20 67 10 17 19 25 38 25 64 0 72 80 127
166 114 40 -6 42 -5 37 16 -5 19 -3 21 14 16 27 -9 72 9 106 42 27 25 28 30
25 113 -2 48 1 91 5 95 19 20 49 -73 51 -160 1 -54 -1 -60 -31 -85 -18 -15
-33 -30 -33 -34 0 -4 16 -13 35 -22 47 -19 60 -52 80 -210 18 -136 33 -198 50
-196 16 3 7 137 -25 391 -40 310 -48 355 -72 385 -40 51 -91 36 -438 -130
-257 -123 -311 -147 -317 -141 -9 9 132 84 967 516 551 285 1841 984 1950
1057 35 23 60 30 60 15z m62 -153 c30 -108 69 -358 75 -479 5 -104 4 -119 -15
-156 -26 -51 -78 -96 -106 -92 -30 4 -42 51 -60 222 -25 231 -31 416 -16 460
14 43 77 119 94 113 6 -2 19 -33 28 -68z m-1259 -929 c32 -284 34 -487 6 -516
-15 -15 -19 -15 -48 1 -22 11 -43 14 -63 10 -27 -6 -35 -2 -78 44 l-49 52
-133 -70 c-130 -68 -419 -204 -423 -199 -8 9 -26 121 -31 192 -7 85 8 228 28
272 12 26 53 33 89 14 33 -18 21 -30 -30 -30 -72 0 -80 -39 -13 -61 60 -19 65
-27 34 -55 l-27 -24 34 2 c33 3 43 12 55 52 6 18 7 18 26 1 14 -12 27 -15 52
-10 l33 6 -40 -34 c-69 -61 -15 -58 65 3 25 19 25 19 5 34 -20 16 -19 16 15
46 l35 30 -48 -20 c-68 -28 -79 -27 -75 12 2 25 14 41 53 70 28 21 56 52 64
70 7 18 19 47 27 65 17 42 63 66 110 57 l36 -7 -16 31 c-29 55 -18 82 34 82
13 0 19 -11 25 -45 4 -33 13 -50 31 -62 14 -8 27 -13 31 -10 3 4 -2 9 -11 13
-18 7 -22 39 -5 50 6 3 34 10 63 14 l51 7 -37 17 c-46 20 -47 29 -8 53 35 20
37 29 10 38 -11 3 -20 13 -20 20 0 22 31 35 75 32 l40 -2 28 -245z m1287 37
c0 -19 -21 -37 -42 -37 -21 0 -24 20 -6 38 16 16 48 15 48 -1z m-1777 -113
c13 -13 -34 -63 -78 -84 -42 -20 -45 -24 -45 -61 0 -42 0 -42 -24 -33 -20 8
-21 55 -2 92 19 38 46 59 92 76 47 17 49 18 57 10z m-662 -304 c12 -7 19 -21
19 -40 0 -34 -14 -38 -50 -13 -34 23 -41 35 -28 50 13 16 33 17 59 3z m-97
-85 c-4 -8 -37 -31 -75 -51 -38 -20 -69 -41 -69 -46 0 -12 -63 -38 -95 -38
-17 0 -29 -8 -37 -25 -12 -27 -58 -36 -58 -12 0 24 77 89 134 113 31 13 82 35
114 49 66 29 94 32 86 10z m-664 -137 c-52 -71 -62 -105 -68 -222 l-5 -109
-19 24 c-20 24 -20 24 -14 -116 3 -77 19 -239 36 -359 18 -131 28 -234 24
-255 -10 -55 -58 -143 -101 -185 -69 -69 -206 -154 -693 -433 -330 -190 -403
-228 -409 -212 -5 16 26 39 128 97 46 26 86 53 89 60 2 8 -4 32 -16 55 -40 82
-84 375 -104 689 -12 195 -7 267 18 275 7 3 13 -57 17 -189 9 -280 56 -680 87
-738 13 -24 27 -19 160 52 134 72 269 165 280 192 14 37 173 156 208 156 25 0
-3 -24 -99 -86 -53 -34 -85 -60 -76 -62 19 -4 265 117 360 177 44 28 67 49 67
62 0 28 -31 24 -75 -11 -51 -40 -71 -41 -50 -1 8 17 20 33 26 37 28 17 43 83
49 219 6 152 8 150 40 -32 28 -157 46 -156 36 1 -11 181 -56 564 -77 645 -24
95 -53 126 -108 116 -20 -4 -120 -47 -222 -96 -102 -48 -199 -93 -215 -98
l-29 -11 24 18 c81 59 754 406 759 392 2 -5 -11 -28 -28 -52z m1806 3 c-14
-22 -359 -213 -519 -288 -86 -40 -45 -1 65 62 123 70 151 93 145 116 -4 14 5
18 48 21 37 3 83 19 147 50 91 46 125 57 114 39z m-1557 -77 c-14 -17 -62 -44
-79 -44 -5 0 -10 5 -10 10 0 14 60 50 84 50 16 0 16 -2 5 -16z m-129 -78 c0
-21 -26 -38 -52 -34 l-23 3 23 23 c25 25 52 29 52 8z m-349 -123 c28 -75 54
-434 30 -419 -5 3 -12 48 -16 100 -8 117 -18 133 -68 117 -19 -7 -41 -19 -48
-28 -11 -13 -10 -17 5 -29 11 -7 16 -20 13 -29 -8 -20 -20 -19 -42 5 -23 25
-40 25 -104 -1 -54 -23 -78 -19 -45 6 10 9 60 40 110 71 125 75 137 90 142
169 2 36 6 65 8 65 3 0 9 -12 15 -27z m-581 -112 c0 -19 -137 -97 -200 -116
-22 -6 -21 -3 13 29 20 19 37 42 37 50 0 11 10 16 33 16 17 1 46 7 62 15 36
16 55 18 55 6z m-260 -71 c0 -11 -81 -52 -88 -45 -8 8 12 28 42 41 38 16 46
17 46 4z m590 -5 c-22 -26 -114 -74 -156 -81 -29 -4 -50 -1 -73 11 -41 21 -36
28 9 15 46 -13 67 -5 86 33 l17 31 17 -22 c21 -26 30 -28 30 -7 0 18 28 34 59
35 20 0 21 -2 11 -15z m-505 -139 c16 -12 17 -16 6 -30 -17 -20 -24 -20 -51 2
-40 33 3 59 45 28z m190 -46 c-44 -44 -85 -65 -85 -42 0 18 100 92 125 92 5 0
-13 -22 -40 -50z m-155 -109 c-14 -9 -42 -31 -62 -50 l-38 -33 0 29 c0 37 29
64 78 73 47 8 54 2 22 -19z m-322 -171 c44 -267 77 -671 62 -750 -20 -107
-114 -251 -174 -266 -13 -3 -33 -18 -44 -33 -11 -15 -42 -36 -69 -46 -53 -19
-89 -38 -493 -258 -373 -202 -400 -221 -400 -289 0 -20 -1 -20 -20 -3 -14 13
-28 16 -54 11 -51 -10 -274 -122 -576 -291 -146 -81 -422 -235 -615 -342 -693
-385 -657 -362 -735 -477 -25 -36 -48 -66 -52 -66 -12 0 -8 51 6 93 22 60 57
105 114 145 68 46 82 69 49 81 -43 17 -50 35 -44 124 5 87 42 212 244 837 52
162 102 316 109 343 18 58 39 64 30 7 -7 -45 -23 -98 -146 -480 -155 -481
-194 -627 -188 -691 6 -64 82 -65 184 -3 32 20 154 89 269 154 325 182 409
234 422 260 19 38 15 110 -17 295 -102 579 -120 705 -102 705 22 0 51 -127
117 -520 33 -197 64 -365 76 -413 l10 -37 42 21 c23 12 105 57 182 99 163 91
256 132 302 133 26 1 30 4 21 14 -8 10 -3 24 22 59 52 73 52 75 -11 652 -31
293 -34 336 -20 328 13 -8 26 -99 61 -410 33 -288 60 -450 78 -468 16 -16 15
0 -3 142 -8 63 -24 210 -35 325 -19 183 -44 355 -66 448 -5 21 -3 27 10 27 25
0 52 -53 70 -138 21 -99 61 -440 77 -650 10 -146 10 -170 -6 -233 -9 -39 -14
-73 -11 -76 3 -3 38 13 78 37 40 24 104 60 143 82 77 43 86 52 84 88 -2 44 0
48 39 63 42 17 58 32 64 62 2 14 14 21 45 27 22 3 76 21 120 39 130 54 485
235 526 268 21 16 47 33 58 36 11 4 32 32 48 63 36 70 87 142 102 142 6 0 13
-9 16 -20 3 -11 10 -20 16 -20 14 0 4 160 -33 527 -17 164 -30 325 -30 358 1
56 2 58 14 35 8 -14 23 -81 34 -150z m-94 -25 c14 -82 38 -297 49 -452 3 -35
1 -63 -4 -63 -5 0 -9 6 -9 13 0 6 -7 50 -16 97 -20 115 -54 413 -54 475 1 70
15 40 34 -70z m-514 -120 c0 -17 -30 -35 -59 -35 -25 0 -26 8 -4 32 20 22 63
24 63 3z m-490 -398 c0 -62 14 -260 30 -442 33 -371 33 -368 21 -361 -17 11
-42 185 -71 497 -29 316 -26 446 12 423 4 -3 8 -56 8 -117z m1658 38 c-7 -7
-24 -16 -38 -19 l-25 -7 28 26 c28 25 62 25 35 0z m-118 -60 c-21 -25 -79 -57
-97 -53 -12 3 2 14 42 36 70 36 71 37 55 17z m-2135 -1026 c36 -32 44 -68 17
-77 -17 -5 -82 64 -82 89 0 28 24 23 65 -12z m-86 -39 c57 -53 21 -94 -38 -44
-33 27 -64 77 -55 87 10 10 60 -13 93 -43z m-1067 -567 c35 -31 13 -105 -27
-90 -18 8 -29 49 -21 82 7 29 22 32 48 8z"/>
<path d="M12120 8740 c-52 -16 -123 -51 -306 -150 -341 -185 -379 -211 -409
-282 -19 -48 -20 -193 0 -393 24 -249 21 -330 -20 -475 -43 -151 -43 -152 -9
-140 61 24 194 130 194 156 0 23 73 70 325 209 378 209 366 201 382 260 21 75
27 276 14 405 -26 243 -56 367 -98 400 -28 22 -35 23 -73 10z m58 -77 c26 -49
52 -329 52 -557 l0 -159 -36 -34 c-79 -74 -579 -349 -654 -359 -19 -3 -41 -1
-48 4 -14 10 -34 166 -57 461 -21 271 -25 245 42 283 32 18 78 54 103 80 42
44 50 48 93 48 37 0 49 4 53 18 11 35 21 46 56 58 19 6 57 28 83 49 55 41 127
80 200 106 65 23 102 24 113 2z"/>
<path d="M11891 8483 c-15 -10 -19 -19 -13 -25 13 -13 52 0 52 17 0 22 -15 25
-39 8z"/>
<path d="M11906 8109 c-27 -16 -46 -32 -43 -35 6 -7 117 48 117 58 0 16 -27 7
-74 -23z"/>
<path d="M11586 7944 c-18 -10 -25 -19 -19 -25 13 -13 63 9 63 28 0 17 -8 16
-44 -3z"/>
<path d="M9975 7270 c-67 -5 -70 -6 -67 -30 2 -16 -5 -31 -20 -43 l-23 -18 30
7 c30 7 195 74 195 79 0 7 -52 10 -115 5z"/>
<path d="M10117 7242 c-25 -28 -20 -34 13 -17 17 9 30 20 30 25 0 16 -26 11
-43 -8z"/>
<path d="M10852 7858 c-16 -16 -15 -33 2 -47 15 -13 29 -1 40 37 6 17 3 22
-11 22 -11 0 -24 -5 -31 -12z"/>
<path d="M10840 7733 c-24 -15 -39 -28 -32 -31 12 -4 102 44 102 53 0 12 -29
3 -70 -22z"/>
<path d="M10959 7740 l-24 -19 26 -1 c24 0 49 16 49 32 0 15 -27 8 -51 -12z"/>
<path d="M10964 7614 c-41 -20 -84 -64 -63 -64 20 0 109 57 109 70 0 14 -9 12
-46 -6z"/>
<path d="M10834 7610 c-33 -13 -39 -30 -12 -30 24 0 48 16 48 32 0 10 -9 9
-36 -2z"/>
<path d="M10747 7494 c-29 -16 -36 -34 -13 -34 19 0 61 36 50 42 -5 4 -21 0
-37 -8z"/>
<path d="M10540 7457 c-53 -28 -67 -52 -20 -34 34 13 91 56 74 57 -6 0 -30
-10 -54 -23z"/>
<path d="M10575 7404 c-16 -8 -37 -22 -45 -31 -13 -14 -12 -14 10 -8 26 8 90
44 90 51 0 9 -26 3 -55 -12z"/>
<path d="M7967 5492 c-22 -24 -21 -32 2 -32 20 0 51 25 51 41 0 16 -36 10 -53
-9z"/>
<path d="M6250 4522 c-210 -115 -498 -275 -770 -427 -85 -48 -147 -95 -125
-95 34 0 1145 626 1145 645 0 12 -30 -3 -250 -123z"/>
<path d="M9220 9571 c59 -35 581 -186 617 -179 27 5 -287 104 -531 167 -85 22
-110 26 -86 12z"/>
<path d="M10260 9496 c-145 -60 -286 -129 -272 -134 20 -6 374 147 401 174 14
13 -37 -2 -129 -40z"/>
<path d="M6988 9390 c-57 -12 -164 -51 -320 -118 -128 -55 -280 -116 -338
-137 -58 -21 -145 -58 -195 -83 -88 -44 -233 -103 -530 -217 -82 -32 -242 -97
-355 -145 -113 -48 -230 -95 -260 -105 -54 -17 -605 -250 -868 -366 -73 -33
-336 -142 -585 -243 -630 -257 -694 -286 -1010 -463 -222 -124 -342 -199 -469
-294 -207 -154 -338 -289 -394 -406 -20 -40 -43 -77 -53 -83 -10 -5 -27 -38
-39 -73 -47 -144 -466 -989 -643 -1297 -193 -336 -242 -464 -220 -578 11 -55
15 -58 92 -87 l64 -24 -71 6 c-49 4 -73 2 -78 -6 -9 -14 19 -111 50 -173 50
-99 107 -90 213 36 25 30 50 56 55 58 10 3 37 -78 28 -87 -3 -3 -16 -5 -28 -5
-22 0 -44 -25 -44 -49 0 -22 38 -10 78 25 56 48 77 41 69 -21 l-7 -45 54 6
c50 6 55 5 71 -20 10 -14 26 -26 36 -26 26 0 104 -40 203 -104 45 -29 113 -71
152 -94 74 -43 84 -55 84 -100 0 -24 1 -25 13 -7 11 14 22 17 56 12 53 -7 186
-69 202 -95 8 -12 20 -17 35 -14 25 4 74 -21 74 -38 0 -6 -15 -24 -33 -40
l-32 -30 40 2 c31 2 40 7 39 21 -1 10 5 17 15 17 20 0 184 -68 371 -155 190
-87 267 -118 430 -170 74 -24 263 -86 420 -140 273 -92 576 -185 605 -185 21
0 38 66 33 126 -6 76 -22 88 -57 45 -31 -38 -51 -35 -51 8 0 53 24 63 144 55
117 -8 128 -2 74 39 -49 36 -110 61 -285 113 -87 26 -270 88 -408 139 -137 51
-280 102 -316 114 -53 17 -82 36 -142 90 -41 38 -95 83 -121 100 -81 56 -166
87 -166 61 0 -9 29 -29 140 -99 l35 -22 -33 6 c-103 21 -863 383 -1158 553
-84 48 -85 65 -5 42 56 -16 47 -4 -21 29 -48 24 -85 33 -159 41 -146 15 -186
36 -127 66 18 9 43 26 56 37 l23 22 98 -53 c79 -41 108 -52 145 -52 43 0 51
-4 84 -41 44 -49 112 -96 247 -170 60 -33 120 -74 151 -106 53 -53 204 -137
356 -197 127 -50 128 -20 1 40 -40 19 -71 40 -67 45 7 12 28 6 119 -34 97 -42
170 -40 329 7 66 20 129 36 140 36 20 -1 21 -1 2 -15 -11 -8 -44 -22 -75 -30
-128 -36 -214 -82 -153 -82 15 0 46 -12 68 -27 22 -14 100 -53 172 -86 140
-63 182 -87 182 -101 0 -15 -49 0 -151 47 -96 44 -119 51 -119 35 0 -17 79
-60 196 -105 65 -26 148 -60 184 -77 52 -24 73 -29 102 -24 22 4 38 3 43 -4
14 -23 207 -101 251 -101 8 0 44 -14 79 -31 38 -18 75 -29 92 -27 26 3 28 6
29 48 1 25 11 67 23 93 25 57 26 76 6 83 -19 8 -19 23 -1 43 13 14 7 16 -58
16 -65 0 -81 4 -160 43 -63 31 -109 64 -162 114 -41 39 -74 73 -74 77 0 4 32
19 72 35 133 51 383 46 459 -10 40 -29 59 -18 59 36 0 35 11 70 71 237 28 78
32 186 24 606 l-7 377 -33 -6 c-70 -13 -104 -8 -168 25 -59 30 -74 33 -168 36
-79 2 -123 9 -184 29 -44 14 -98 26 -121 26 -53 0 -144 27 -144 43 0 7 5 18
12 25 8 8 5 14 -16 22 -34 13 -32 13 -51 -6 -32 -32 -95 -14 -95 28 0 16 -6
19 -47 16 -45 -3 -47 -2 -55 30 l-9 34 -62 -7 -62 -6 25 20 c19 15 22 21 10
24 -8 3 -30 10 -49 16 -44 14 -44 14 -38 -9 4 -14 0 -20 -13 -20 -18 0 -37 18
-55 53 -5 11 -32 32 -60 46 -39 20 -65 26 -121 26 -60 0 -80 6 -135 34 -71 36
-115 68 -106 77 3 4 20 2 36 -4 17 -6 31 -7 31 -3 0 18 -27 30 -66 29 -82 -1
-341 138 -424 227 -22 24 -23 27 -5 23 32 -5 30 29 -2 46 -15 8 -71 53 -123
101 -52 48 -112 98 -133 112 -37 25 -38 26 -58 7 -21 -19 -22 -19 -16 1 22 74
22 78 -7 71 -21 -5 -26 -3 -26 12 0 24 48 98 123 192 222 277 454 440 1047
740 455 229 662 312 786 314 74 1 101 -17 110 -76 4 -25 17 -47 34 -62 17 -14
115 -52 247 -95 217 -71 289 -102 278 -121 -3 -6 -20 -10 -36 -10 -74 0 -399
-142 -481 -211 -45 -36 -51 -76 -17 -110 29 -29 163 -90 282 -128 110 -35 160
-40 155 -15 -2 11 -55 35 -158 73 -226 84 -253 101 -232 145 20 44 295 168
439 197 78 16 88 14 418 -101 276 -95 427 -141 474 -142 17 -1 31 -2 31 -4 0
-12 -59 -53 -135 -92 -72 -38 -85 -48 -65 -50 14 -2 56 11 92 28 74 33 108 39
89 17 -14 -18 -166 -93 -321 -158 -104 -43 -136 -52 -188 -53 -67 -1 -84 10
-74 46 4 18 2 19 -16 9 -41 -22 -272 47 -272 81 0 10 53 7 110 -8 14 -4 -2 11
-38 35 -68 45 -81 67 -83 139 -1 26 -5 58 -9 72 -13 40 -13 -60 -14 -2055 -1
-1746 -2 -1885 -18 -1949 -10 -38 -25 -80 -34 -94 -16 -24 -18 -25 -123 -19
-186 9 -342 56 -772 231 -182 74 -364 136 -400 136 -10 0 -22 7 -27 16 -8 14
-13 14 -33 4 -36 -20 -48 -41 -49 -82 0 -32 -3 -38 -21 -38 -52 0 -276 141
-286 180 -4 16 -9 17 -34 8 -53 -18 -75 19 -42 70 l18 27 -29 -19 c-69 -44
-191 24 -131 74 25 21 17 32 -10 14 -40 -26 -84 -14 -275 74 -96 44 -193 85
-214 92 -22 7 -83 32 -135 55 -125 56 -250 97 -441 147 -215 56 -234 67 -283
163 l-26 50 -1 -46 c0 -33 7 -54 25 -79 14 -19 25 -42 25 -52 0 -32 26 -83 97
-192 37 -58 85 -133 106 -166 68 -107 434 -564 547 -684 72 -76 120 -103 205
-115 268 -38 1197 -59 1500 -33 83 6 229 19 326 27 96 7 188 19 205 25 16 7
46 9 67 6 25 -4 48 -1 69 10 17 9 63 20 102 26 39 5 96 16 126 25 76 21 358
132 366 144 3 5 32 91 64 192 32 100 118 367 190 592 327 1020 388 1237 364
1300 -6 14 -11 12 -34 -14 -36 -39 -95 -55 -205 -54 -70 1 -106 6 -161 27 -40
14 -159 41 -265 61 -107 19 -215 40 -240 46 l-46 10 -7 122 c-12 233 -28 1023
-24 1209 2 118 7 191 14 198 8 8 61 -9 193 -59 l181 -71 194 94 c207 100 328
172 346 206 7 12 9 32 6 44 -3 13 -3 26 0 29 7 7 144 -55 494 -223 346 -166
467 -220 493 -220 12 0 39 18 62 39 23 23 119 83 225 141 229 125 931 478
1021 513 37 15 169 77 295 138 282 136 435 201 539 229 105 28 309 119 810
362 714 347 1322 660 1413 728 74 56 70 120 -9 160 -49 26 -241 95 -289 105
-72 15 -6 -25 125 -75 144 -56 171 -71 187 -105 9 -21 8 -29 -8 -46 -24 -28
-2159 -1089 -2189 -1089 -3 0 -11 15 -18 33 -11 24 -33 43 -90 75 -164 94
-582 265 -982 402 -246 84 -335 122 -335 141 0 7 14 10 36 7 32 -4 34 -3 18 9
-27 19 -144 55 -392 119 -119 30 -263 69 -318 85 -56 16 -105 29 -109 29 -3 0
5 -15 19 -33 33 -43 33 -47 -4 -47 -25 0 -33 6 -47 38 -14 28 -24 37 -43 37
-20 0 -25 -5 -23 -22 3 -28 2 -28 -107 -2 -100 23 -130 39 -113 61 14 16 108
51 124 46 6 -2 17 -19 23 -38 16 -49 33 -48 55 2 20 47 67 93 116 114 50 21
61 -6 24 -57 -11 -16 -19 -37 -17 -46 6 -33 26 -23 56 30 63 112 247 229 646
411 44 20 77 39 74 42 -8 7 -77 -14 -242 -75 -163 -61 -212 -64 -76 -4 156 68
267 103 377 118 109 15 143 27 143 49 0 13 -31 26 -60 25 -8 0 -54 -9 -102
-19z m-498 -250 c0 -20 -154 -77 -165 -60 -5 9 0 11 90 46 69 26 75 28 75 14z
m-176 -106 c22 -8 20 -31 -3 -44 -30 -15 -124 -12 -147 5 -19 15 -19 15 0 30
20 15 119 21 150 9z m-599 -224 c-19 -21 -55 -27 -55 -10 0 12 31 29 54 30 18
0 18 -1 1 -20z m-121 -46 c-25 -20 -157 -85 -162 -79 -13 13 68 67 136 91 43
14 53 10 26 -12z m196 4 c0 -16 -55 -100 -82 -125 -13 -11 -43 -27 -68 -35
-25 -9 -164 -69 -310 -133 -721 -320 -1210 -522 -1343 -556 -47 -11 -83 -7
-73 10 10 15 95 60 196 103 236 100 759 334 795 356 22 14 54 40 71 58 22 23
41 34 60 34 75 0 506 169 674 263 71 40 80 43 80 25z m-440 -107 c-28 -22
-292 -140 -320 -144 -40 -5 -22 19 38 51 76 41 259 111 287 111 18 1 18 -1 -5
-18z m540 -51 c13 -7 34 -7 65 0 56 12 73 5 49 -21 -25 -27 -268 -144 -684
-329 -796 -354 -1080 -469 -1080 -440 0 16 76 59 225 130 180 85 212 102 199
107 -13 4 -302 -115 -419 -173 -44 -21 -81 -44 -83 -51 -4 -15 11 -21 308
-133 356 -134 1055 -418 1230 -500 272 -127 442 -225 462 -268 9 -18 23 -29
43 -32 17 -3 29 -9 28 -13 -2 -4 -3 -11 -3 -15 0 -4 -14 -16 -30 -26 -57 -33
-96 -20 -464 153 -312 147 -362 169 -666 293 -476 193 -767 303 -1035 389
-231 74 -293 105 -268 130 29 29 526 -138 1193 -401 207 -82 389 -151 405
-155 l30 -7 -32 22 c-17 12 -89 45 -160 74 -70 29 -200 85 -288 123 -208 91
-396 162 -795 298 -232 79 -325 114 -325 125 0 22 52 14 148 -21 85 -31 174
-43 170 -22 -4 18 97 75 247 138 74 32 414 179 755 327 341 149 640 279 665
289 52 21 83 23 110 9z m892 -46 c32 -9 56 -20 53 -24 -6 -9 -97 5 -124 20
-47 25 -12 27 71 4z m-347 -59 c185 -40 313 -74 405 -107 61 -22 65 -25 68
-57 6 -61 -17 -119 -62 -157 -91 -78 -810 -413 -835 -388 -7 7 -7 16 9 349 14
316 24 360 93 391 43 19 122 12 322 -31z m-634 -425 c-15 -293 -33 -431 -61
-470 -33 -46 -105 -97 -215 -151 -93 -46 -166 -64 -149 -38 3 6 65 39 138 74
213 101 215 107 241 510 8 127 20 260 25 297 6 37 10 70 11 75 1 4 6 -10 12
-32 7 -29 7 -105 -2 -265z m-1181 275 c0 -17 -547 -260 -784 -350 -105 -39
-153 -44 -103 -10 34 22 676 294 792 336 83 29 95 32 95 24z m1100 -375 c-13
-220 -29 -309 -66 -357 -16 -21 -55 -47 -107 -73 -105 -50 -270 -110 -305
-110 -27 0 -369 133 -386 150 -5 5 -4 82 2 187 11 168 13 179 35 196 37 29
619 294 772 352 l60 23 3 -87 c2 -47 -2 -174 -8 -281z m1260 318 c0 -138 -69
-195 -442 -370 -259 -121 -468 -210 -482 -205 -11 5 191 106 504 252 276 129
345 178 380 272 11 30 20 63 20 73 0 11 5 20 10 20 6 0 10 -19 10 -42z m542
-194 c197 -67 359 -138 365 -160 2 -6 -8 -16 -22 -22 -14 -6 -25 -19 -25 -27
0 -20 -4 -19 -250 61 -447 144 -447 144 -504 94 -47 -42 -66 -86 -82 -201 -14
-105 -37 -168 -49 -137 -9 23 19 179 50 277 31 96 67 139 147 170 80 32 136
24 370 -55z m698 -212 c0 -22 -96 -81 -305 -185 -329 -164 -1517 -732 -1602
-766 -17 -7 -42 -11 -55 -9 l-23 3 29 27 c41 39 104 72 551 288 1081 521 1372
659 1393 660 6 0 12 -8 12 -18z m-280 -21 c0 -12 -23 -31 -37 -31 -17 0 -17
37 0 43 14 5 37 -2 37 -12z m-3310 -100 c0 -63 -14 -96 -29 -71 -17 25 -23
104 -11 135 11 29 12 29 26 11 8 -12 14 -43 14 -75z m-80 -3 c0 -25 -5 -41
-15 -44 -18 -7 -116 27 -119 40 0 6 23 23 53 38 64 33 81 26 81 -34z m-139
-248 c10 -6 19 -15 19 -20 0 -16 -26 -11 -51 10 -21 17 -22 19 -6 20 10 0 27
-5 38 -10z m194 -81 c124 -42 201 -77 192 -86 -12 -11 -317 103 -317 120 0 10
-4 11 125 -34z m-2687 -1071 c23 -14 30 -24 23 -31 -16 -16 -83 19 -132 70
l-44 45 60 -32 c33 -18 75 -41 93 -52z m-283 -21 c28 -13 120 -67 205 -119 85
-52 209 -126 275 -163 195 -110 244 -150 216 -178 -8 -8 -19 -3 -39 16 -34 32
-36 33 -73 6 -16 -11 -36 -19 -43 -16 -7 3 -26 -3 -42 -14 -36 -24 -44 -24
-44 0 0 30 -11 51 -26 51 -18 0 -34 -32 -34 -70 0 -19 -9 -40 -24 -55 -26 -26
-112 -55 -164 -55 -24 0 -45 -10 -73 -33 -55 -47 -200 -126 -383 -208 -190
-84 -210 -89 -226 -59 -31 58 6 160 215 585 138 279 170 335 193 335 9 0 40
-11 67 -23z m988 -569 c7 -21 -4 -38 -23 -38 -23 0 -34 16 -26 35 7 18 43 20
49 3z m97 -48 c12 -7 12 -12 -4 -29 -22 -24 -39 -27 -55 -7 -9 11 -8 18 4 30
19 18 33 20 55 6z m162 -67 c10 -9 18 -19 18 -23 0 -15 -40 -17 -60 -3 -17 12
-19 18 -9 29 15 18 28 18 51 -3z m158 -82 c0 -60 -49 -205 -64 -190 -7 7 18
202 28 217 16 27 36 12 36 -27z m-1500 -89 c0 -16 -25 -32 -49 -32 l-26 1 24
19 c24 20 51 27 51 12z m730 -71 c18 -35 12 -88 -14 -118 -13 -15 -27 -25 -31
-22 -13 14 -16 77 -6 117 13 45 34 55 51 23z m-785 -31 c6 -10 -29 -50 -44
-50 -22 0 -23 24 -1 42 25 20 36 22 45 8z m-265 -30 c13 -8 13 -11 0 -24 -24
-22 -54 -27 -75 -12 -16 12 -17 16 -6 30 15 18 58 21 81 6z m-250 -85 c-15
-39 -32 -278 -28 -395 3 -104 -2 -98 70 -83 35 7 121 -22 158 -53 30 -26 49
-79 32 -96 -6 -6 -23 9 -47 41 -20 28 -44 51 -52 51 -8 0 -31 -13 -50 -30 -18
-16 -44 -30 -56 -30 -66 0 -207 140 -207 207 0 62 167 439 186 420 3 -2 0 -17
-6 -32z m1994 13 c-2 -13 -18 -99 -34 -193 -26 -142 -39 -303 -30 -350 5 -22
-1 -27 -15 -15 -37 31 -6 319 61 558 3 12 10 22 14 22 4 0 6 -10 4 -22z
m-1532 -28 c-2 -18 -17 -76 -33 -129 -44 -141 -51 -178 -50 -264 1 -93 -10
-102 -70 -63 -118 78 -259 261 -259 335 0 42 37 45 45 4 14 -65 66 -133 101
-133 24 0 15 20 -26 61 -36 36 -50 59 -35 59 13 0 62 -30 75 -45 22 -26 71
-48 82 -37 7 7 -3 25 -29 54 -45 49 -55 69 -43 88 12 19 38 5 58 -30 9 -16 22
-30 28 -30 17 0 76 70 71 83 -2 7 -18 11 -35 9 -30 -3 -31 -2 -23 20 6 18 18
24 55 28 25 3 51 11 58 18 20 20 33 7 30 -28z m3236 -51 c-29 -16 -21 -37 20
-48 60 -17 91 -13 117 15 13 14 28 24 32 21 4 -3 32 -52 62 -109 l55 -103 -93
-285 c-192 -590 -327 -910 -417 -989 -51 -45 -150 -98 -162 -86 -4 3 -7 244
-7 533 0 604 -3 579 91 787 62 138 116 223 154 242 25 11 106 29 145 31 18 1
19 1 3 -9z m-3778 -585 c0 -3 -10 -14 -22 -24 l-23 -18 25 -27 25 -27 -24 -19
c-26 -21 -37 -17 -43 16 -2 14 -13 22 -37 25 l-33 5 24 21 c37 32 72 53 91 53
9 1 17 -2 17 -5z m3154 -34 c26 -25 -68 -43 -104 -20 -13 9 -12 12 5 26 20 15
80 12 99 -6z m-1734 -50 c0 -13 -75 -34 -95 -26 -14 5 -15 9 -5 21 14 17 100
21 100 5z m1400 -39 c-52 -30 -370 -126 -370 -112 0 5 22 18 50 30 105 45 377
115 320 82z m1179 -126 c-31 -107 -184 -571 -246 -745 -59 -166 -82 -217 -120
-267 -24 -33 -176 -153 -192 -153 -11 0 -35 51 -51 105 -6 22 -10 67 -8 100 3
69 9 74 117 99 78 18 77 6 -2 -47 -50 -34 -57 -43 -57 -71 0 -47 19 -96 37
-96 34 0 113 65 113 92 0 13 -29 9 -61 -8 -57 -29 -52 -8 14 66 41 45 74 93
86 124 11 28 45 104 75 169 31 64 106 238 167 385 115 275 138 327 144 320 3
-2 -5 -35 -16 -73z m-939 26 c0 -14 -83 -52 -93 -42 -12 12 0 30 27 41 28 12
66 12 66 1z m-155 -61 c4 -6 -7 -10 -24 -10 -17 0 -31 5 -31 10 0 6 11 10 24
10 14 0 28 -4 31 -10z m-454 -694 c13 -3 35 -7 49 -8 35 -4 33 -39 -2 -56 -37
-17 -91 5 -112 47 -9 17 -50 71 -91 121 -41 49 -75 93 -75 96 0 4 47 -38 104
-94 57 -56 114 -103 127 -106z m534 104 c-19 -21 -55 -27 -55 -10 0 12 31 29
54 30 18 0 18 -1 1 -20z m-1906 -35 c40 -20 64 -74 50 -113 -19 -54 -53 -50
-126 13 -32 27 -43 44 -43 65 0 48 61 66 119 35z m2436 -110 c-46 -39 -114
-77 -127 -69 -21 13 -4 35 45 57 124 57 137 59 82 12z m-1455 -124 c-5 -11
-15 -23 -20 -26 -6 -3 -10 -13 -10 -21 0 -22 43 -17 85 11 41 28 52 27 36 -3
-11 -20 -33 -31 -111 -54 -27 -8 -45 -19 -45 -28 0 -12 12 -14 62 -12 58 3 62
2 75 -24 17 -36 32 -40 57 -15 16 16 19 29 15 53 l-5 33 20 -24 c28 -31 27
-42 -11 -78 -48 -44 -79 -63 -105 -63 -20 0 -223 157 -231 179 -3 8 166 91
186 91 9 0 10 -5 2 -19z m270 -325 c44 -29 64 -63 48 -83 -24 -30 -112 2 -172
61 -50 51 -47 59 23 54 43 -3 71 -12 101 -32z m240 -36 c0 -5 -13 -10 -30 -10
-16 0 -30 5 -30 10 0 6 14 10 30 10 17 0 30 -4 30 -10z"/>
<path d="M5100 8258 c-23 -14 -30 -23 -21 -26 16 -5 81 26 81 40 0 14 -24 9
-60 -14z"/>
<path d="M4943 8195 c-60 -30 -95 -63 -53 -50 32 10 90 39 115 59 33 25 -4 20
-62 -9z"/>
<path d="M4763 8119 c-48 -23 -47 -44 0 -35 36 7 57 23 57 42 0 19 -8 18 -57
-7z"/>
<path d="M7555 8010 c3 -5 19 -10 36 -10 16 0 29 5 29 10 0 6 -16 10 -36 10
-21 0 -33 -4 -29 -10z"/>
<path d="M7665 7990 c-8 -13 48 -47 92 -55 61 -11 57 13 -7 45 -43 22 -75 26
-85 10z"/>
<path d="M1922 5963 c-5 -10 -17 -41 -26 -69 -9 -28 -28 -61 -42 -73 -22 -19
-24 -25 -13 -36 12 -11 23 -11 64 -1 45 12 51 16 59 49 11 42 -3 139 -21 144
-6 2 -16 -4 -21 -14z"/>
<path d="M6335 8852 c-61 -38 -70 -74 -23 -84 66 -15 496 -136 648 -183 358
-111 836 -277 1084 -377 83 -33 175 -69 205 -79 l54 -19 -5 48 c-3 26 -14 68
-26 94 -17 40 -29 51 -84 79 -230 116 -905 364 -1238 454 -222 60 -316 77
-455 82 -116 4 -133 2 -160 -15z"/>
<path d="M10600 8826 c-214 -93 -614 -307 -634 -339 -17 -26 19 -82 88 -136
93 -74 98 -75 134 -43 17 16 161 95 319 176 304 157 403 212 403 225 0 5 -18
20 -40 35 -39 26 -53 56 -26 56 8 0 40 -13 71 -30 57 -30 95 -38 95 -21 0 33
-204 111 -286 110 -32 0 -75 -12 -124 -33z"/>
<path d="M9852 8738 c-19 -19 -14 -28 13 -28 18 0 25 5 25 20 0 22 -20 26 -38
8z"/>
<path d="M3817 8648 c-9 -32 15 -55 33 -33 10 12 11 21 4 33 -16 25 -31 25
-37 0z"/>
<path d="M11060 8654 c0 -8 11 -32 25 -52 29 -42 32 -80 9 -89 -21 -8 -44 21
-44 54 0 13 -5 23 -12 23 -6 0 -156 -70 -332 -156 -320 -156 -450 -214 -480
-214 -32 0 -15 -43 41 -101 31 -32 64 -59 73 -59 9 0 134 59 276 131 441 224
544 292 544 361 0 43 -51 118 -80 118 -11 0 -20 -7 -20 -16z"/>
<path d="M7126 8471 c56 -26 189 -71 206 -71 39 2 -188 90 -229 90 -10 0 1 -9
23 -19z"/>
<path d="M9640 8336 c-104 -37 -240 -100 -460 -212 -228 -115 -330 -177 -330
-197 0 -21 126 -142 174 -168 l43 -22 44 30 c24 17 170 95 324 173 343 175
430 222 473 253 29 22 38 24 74 16 22 -6 43 -7 46 -4 12 11 -76 87 -133 116
-85 42 -169 47 -255 15z"/>
<path d="M10030 8109 c-19 -17 -75 -53 -125 -81 -140 -80 -665 -342 -715 -358
-25 -7 -49 -17 -53 -21 -14 -11 18 -60 72 -114 l51 -50 173 88 c180 91 502
264 623 335 74 43 102 81 90 119 -9 28 -64 113 -73 113 -5 -1 -24 -14 -43 -31z"/>
<path d="M8543 7795 c-93 -32 -217 -88 -504 -228 -255 -124 -297 -154 -285
-204 8 -31 91 -116 154 -158 l41 -27 38 30 c37 30 110 70 533 291 235 123 315
174 306 197 -7 19 -3 18 40 -11 41 -28 74 -33 74 -11 0 21 -83 91 -143 121
-68 34 -155 34 -254 0z"/>
<path d="M12744 7759 c-4 -7 -12 -155 -16 -329 -9 -326 -16 -446 -25 -436 -3
3 -9 90 -14 193 -11 260 -21 423 -26 423 -2 0 -23 -18 -46 -39 -90 -84 -149
-123 -502 -326 -132 -76 -748 -434 -1370 -795 -1247 -725 -1755 -1013 -2298
-1304 -120 -65 -258 -141 -305 -170 -48 -29 -157 -90 -242 -136 -85 -46 -202
-111 -260 -145 -140 -83 -575 -328 -623 -351 -38 -18 -39 -18 -53 1 -9 12 -14
45 -14 94 0 41 -2 72 -5 70 -2 -3 -11 -54 -20 -114 -8 -59 -16 -109 -17 -111
-12 -10 -1105 -629 -1408 -796 -297 -164 -551 -300 -644 -344 -65 -31 -71 -33
-88 -17 -14 12 -21 13 -32 4 -8 -7 -12 -20 -9 -28 8 -21 -23 -43 -61 -43 -40
0 -53 9 -61 42 -17 66 -56 28 -52 -51 1 -29 -5 -47 -19 -61 -19 -19 -209 -92
-407 -156 -49 -16 -93 -36 -97 -44 -28 -53 -92 -275 -100 -349 -5 -47 -16
-135 -24 -196 -9 -60 -16 -132 -16 -160 0 -74 -12 -86 -49 -51 -17 16 -37 44
-46 62 -14 30 -18 32 -42 23 -14 -5 -37 -18 -52 -28 -14 -10 -37 -24 -51 -31
l-24 -13 18 27 c28 43 15 47 -48 16 -65 -32 -75 -30 -102 21 -24 47 -16 55 21
19 19 -18 37 -31 40 -28 3 3 -1 24 -10 46 -13 32 -25 44 -58 57 -46 18 -87 52
-87 70 0 9 20 11 70 7 78 -5 120 7 150 45 10 13 16 31 13 39 -10 27 7 65 39
84 38 23 59 15 88 -33 25 -40 26 -67 2 -67 -25 0 -62 -28 -62 -48 1 -61 66
-47 99 22 11 22 34 122 52 221 46 263 45 250 23 241 -52 -21 -99 -28 -349 -51
-401 -36 -650 -45 -1271 -45 l-560 0 -105 123 c-338 395 -615 781 -931 1297
-20 33 -41 60 -46 60 -6 0 -13 -11 -16 -25 -4 -14 -18 -36 -33 -48 -32 -27
-73 -112 -73 -151 0 -18 16 -54 39 -90 65 -100 79 -196 31 -209 -21 -5 -21 -6
6 -57 31 -59 44 -143 24 -155 -8 -5 -18 -1 -25 8 -7 10 -22 17 -34 17 -26 0
-47 -43 -56 -112 -4 -30 -16 -59 -32 -79 -24 -29 -31 -31 -75 -27 -33 4 -65
16 -103 42 -67 44 -77 45 -64 6 15 -43 104 -127 270 -256 234 -182 221 -183
-73 -6 -174 105 -221 132 -236 132 -5 0 -24 -60 -42 -132 -18 -73 -53 -196
-77 -273 -63 -198 -62 -206 61 -450 53 -104 97 -198 96 -209 0 -10 -11 -31
-25 -47 -35 -43 -46 -89 -52 -220 -7 -142 9 -207 61 -261 49 -51 93 -64 143
-42 l38 16 -50 12 c-70 17 -92 34 -120 90 -27 53 -32 116 -14 163 14 37 25 43
87 43 56 0 62 7 37 50 -18 31 -19 50 -2 50 21 0 97 -53 103 -73 3 -10 19 -20
34 -24 56 -11 81 -73 30 -73 -17 0 -19 -3 -10 -19 16 -31 46 -35 86 -11 74 46
50 -8 -31 -69 -53 -40 -68 -61 -44 -61 7 0 49 16 95 36 95 40 115 40 187 -6
81 -51 107 -137 66 -214 -16 -31 -18 -40 -7 -47 10 -6 9 -11 -7 -23 -44 -33
-194 -106 -216 -106 -26 1 -52 20 -87 64 -29 37 -29 58 0 54 15 -2 24 -13 30
-35 9 -36 48 -54 76 -36 26 16 25 31 -8 65 -25 26 -29 34 -16 36 9 2 30 -8 47
-22 32 -27 76 -34 110 -16 45 25 5 80 -58 80 -30 0 -33 3 -33 29 0 55 23 57
80 6 58 -52 72 -50 74 12 l1 38 -100 5 -100 5 -3 38 c-3 29 -7 37 -23 37 -29
0 -88 -33 -139 -77 -67 -58 -91 -73 -122 -73 -15 0 -30 -5 -34 -11 -10 -16 26
-48 64 -55 29 -6 32 -4 32 18 0 48 65 88 142 88 95 0 103 -29 21 -76 -119 -67
-152 -88 -147 -96 3 -5 47 -36 97 -70 51 -34 133 -93 182 -131 87 -68 193
-127 226 -127 31 0 69 40 69 72 0 27 -3 30 -23 23 -51 -15 -112 -16 -132 0
-17 13 -18 17 -5 25 10 6 16 36 21 95 10 133 32 137 42 7 2 -29 6 -55 9 -58 3
-2 18 2 34 10 16 9 45 18 65 21 49 7 328 147 358 179 23 24 23 26 7 51 -10 15
-16 28 -14 31 7 6 80 -17 122 -38 l38 -19 -23 -26 -24 -25 32 6 c18 3 46 9 63
12 73 14 1 -41 -158 -120 -102 -51 -120 -43 -41 18 35 27 58 51 52 53 -34 12
-259 -99 -328 -161 -39 -35 -40 -36 -20 -52 11 -9 74 -43 140 -76 66 -33 199
-107 295 -164 96 -56 187 -106 202 -109 15 -4 34 -18 43 -31 19 -29 65 -53
172 -88 45 -15 87 -34 94 -42 21 -26 133 -83 240 -123 71 -27 106 -46 113 -60
12 -26 57 -28 79 -3 43 47 23 119 -30 109 -12 -2 -23 -2 -23 1 0 3 20 27 45
53 42 45 59 89 35 89 -6 0 -33 -11 -60 -25 -57 -29 -60 -29 -60 -12 0 19 53
67 75 67 22 0 155 -60 155 -70 0 -4 -20 -15 -44 -24 -60 -23 -81 -48 -64 -75
19 -31 61 -44 121 -37 l52 7 -38 -33 c-21 -18 -41 -46 -46 -63 -7 -27 -11 -30
-40 -27 -20 2 -37 -2 -44 -11 -7 -9 -21 -17 -32 -19 -22 -4 -31 -35 -21 -74 8
-30 58 -56 171 -89 99 -28 150 -31 191 -11 24 13 32 13 63 0 79 -34 76 -34
122 -3 53 35 59 36 59 6 0 -18 5 -23 28 -22 40 0 44 -41 7 -71 -30 -24 -26
-49 7 -41 14 4 22 -2 31 -21 11 -25 12 -21 15 43 2 45 8 76 18 87 9 9 23 32
32 50 26 52 82 47 82 -8 0 -20 4 -22 34 -17 29 4 39 1 59 -21 13 -14 29 -26
36 -26 19 0 91 72 91 91 0 31 -27 33 -75 5 -42 -25 -65 -27 -65 -6 0 5 14 17
30 25 29 15 58 17 160 13 37 -2 67 8 165 55 80 38 133 57 158 57 34 0 37 2 37
28 0 17 10 37 23 50 27 26 47 28 47 7 0 -23 14 -19 116 36 97 52 118 55 62 8
l-33 -27 20 -22 19 -21 -26 6 c-57 14 -172 -47 -166 -88 4 -30 41 -33 77 -8
16 12 37 21 48 21 15 -1 12 -6 -13 -29 -63 -57 -263 -159 -285 -146 -16 11
-75 -14 -100 -42 l-24 -26 27 7 c29 7 98 -16 98 -32 0 -10 -126 -26 -140 -17
-5 3 -7 12 -3 20 9 26 -23 16 -86 -26 -59 -39 -80 -59 -64 -59 4 0 41 7 81 15
40 9 98 15 129 14 50 -2 59 1 80 26 17 19 23 35 19 50 -5 20 -2 22 33 21 48
-1 179 62 214 104 14 16 41 36 62 44 20 9 83 46 138 82 129 85 191 114 243
114 47 0 64 15 104 88 28 53 66 69 72 32 5 -34 22 -26 45 21 23 48 89 129 144
177 67 58 216 85 239 42 13 -25 25 -25 50 0 24 24 26 70 4 112 -13 25 -15 47
-9 102 11 121 66 359 85 371 14 8 23 -40 16 -78 -4 -17 -9 -59 -13 -92 -3 -35
-12 -64 -20 -70 -20 -15 -35 -100 -28 -157 7 -45 8 -47 43 -50 55 -5 54 -9
-23 -115 -15 -19 -15 -24 -1 -51 15 -29 75 -62 141 -77 17 -4 44 -16 62 -27
38 -23 138 -44 251 -54 79 -6 82 -6 82 15 0 11 -7 38 -15 58 -53 135 -67 378
-41 708 10 116 19 226 22 245 l4 35 -19 -39 c-11 -22 -27 -89 -36 -150 -20
-136 -35 -196 -46 -196 -12 0 -11 50 6 220 12 131 13 161 1 149 -2 -2 -21 -98
-41 -214 -20 -115 -39 -212 -41 -214 -10 -10 -3 133 12 247 17 133 12 185 -12
119 -7 -21 -21 -95 -30 -165 -20 -151 -36 -193 -28 -72 8 121 39 304 78 461
42 170 58 209 83 203 14 -4 25 7 46 48 l27 53 -6 -97 c-4 -54 -4 -98 -1 -98 3
0 12 30 21 68 22 87 29 100 50 83 22 -18 29 -10 60 68 15 39 30 71 33 71 10 0
-8 -102 -52 -288 -83 -359 -109 -552 -108 -827 0 -149 4 -219 17 -274 31 -138
79 -202 140 -187 61 15 212 199 326 397 63 110 130 264 130 302 0 26 -17 47
-38 47 -12 0 -14 -12 -8 -62 6 -58 5 -60 -11 -46 -26 23 -39 14 -92 -66 -56
-83 -75 -101 -97 -92 -20 8 -13 31 42 126 44 77 98 199 91 206 -2 3 -32 -38
-66 -89 -96 -147 -138 -176 -168 -117 -28 55 -17 92 47 170 33 39 80 111 104
158 80 159 149 373 131 402 -18 29 -63 -35 -100 -143 -9 -26 -33 -70 -52 -99
-48 -70 -73 -126 -73 -169 0 -47 -19 -101 -34 -96 -53 17 45 523 147 750 16
37 34 67 38 67 11 0 11 -3 -2 -37 -6 -15 -12 -58 -15 -96 -2 -47 -13 -89 -34
-138 -17 -39 -29 -78 -27 -87 3 -12 8 -7 20 18 17 40 42 65 74 74 20 6 22 14
25 88 2 47 8 83 14 85 6 2 17 -25 26 -59 l16 -63 1 115 c1 120 -5 140 -40 140
-10 0 -21 5 -24 11 -9 14 34 59 57 59 34 0 43 -45 42 -230 0 -174 -15 -304
-49 -430 -17 -63 -19 -110 -6 -110 19 0 60 156 91 340 21 131 33 170 50 170
26 0 47 -131 25 -154 -19 -19 -30 -143 -20 -222 l7 -59 24 65 c25 70 78 130
114 130 12 0 39 -9 62 -21 28 -15 52 -19 75 -16 28 5 35 2 42 -16 11 -28 33
-47 96 -82 28 -16 62 -39 76 -52 l27 -25 25 28 c27 28 64 28 53 -1 -3 -8 -2
-15 2 -15 35 0 983 613 1542 996 333 228 794 523 876 561 30 13 54 31 54 39 0
8 8 17 18 21 52 17 105 49 165 98 37 31 67 59 67 64 0 4 -19 16 -42 27 -33 14
-43 24 -42 42 1 27 -12 29 -26 3 -16 -30 -12 -78 6 -85 23 -9 1 -33 -38 -41
-21 -5 -35 -2 -47 9 -15 15 -15 19 2 48 10 17 15 33 13 36 -8 7 -85 -42 -146
-92 -30 -25 -60 -46 -66 -46 -16 0 -137 -90 -131 -97 7 -7 96 45 129 75 18 17
50 28 103 39 43 8 79 12 82 9 8 -8 -17 -45 -39 -57 -12 -6 -44 -14 -72 -18
-43 -5 -51 -9 -54 -29 -3 -20 -7 -22 -39 -16 -33 6 -35 5 -28 -15 5 -18 2 -21
-23 -21 -18 0 -54 -16 -90 -40 -58 -39 -75 -59 -76 -90 -1 -10 -17 -17 -48
-22 -62 -8 -113 -41 -127 -78 -9 -27 -14 -30 -55 -30 -26 0 -47 -4 -47 -10 -1
-5 -3 -14 -4 -20 -1 -5 -3 -14 -4 -20 0 -5 -23 -10 -51 -10 -27 0 -50 -3 -50
-6 0 -3 10 -15 23 -25 l22 -20 -33 6 c-58 12 -112 -27 -112 -80 0 -14 -37 -45
-53 -45 -5 0 -6 11 -3 25 7 29 3 31 -18 9 -10 -9 -14 -24 -10 -38 3 -14 -1
-27 -10 -35 -17 -14 -36 -7 -36 15 0 16 -9 18 -29 5 -9 -6 -12 -19 -9 -36 5
-26 4 -27 -28 -20 -29 5 -34 3 -34 -13 0 -14 -11 -21 -42 -28 -31 -7 -44 -15
-46 -29 -5 -26 -49 -72 -86 -92 -27 -14 -28 -14 -22 3 5 13 0 23 -15 35 l-22
16 22 22 c28 28 47 22 43 -13 -3 -29 13 -34 43 -12 17 13 18 17 6 40 -18 33
-13 39 97 114 48 33 98 71 111 85 27 30 22 57 -10 57 -17 0 -20 -5 -17 -25 5
-23 2 -25 -32 -25 -33 0 -44 -8 -111 -79 l-75 -78 -60 -5 c-58 -4 -124 -35
-124 -59 0 -17 28 -9 58 16 34 29 84 36 62 9 -20 -23 -42 -33 -122 -53 -40
-11 -94 -27 -120 -37 -46 -17 -48 -17 -61 -1 -8 12 -19 16 -30 11 -20 -7 -23
-30 -4 -37 18 -7 -38 -62 -104 -103 -67 -40 -85 -44 -68 -12 10 18 9 20 -6 15
-9 -4 -19 -7 -21 -7 -2 0 -4 -13 -4 -30 l0 -30 -60 0 c-60 0 -70 -6 -48 -28
24 -24 74 -11 193 47 66 33 121 58 123 56 2 -2 -13 -19 -34 -38 -44 -40 -32
-57 16 -22 52 38 181 33 135 -5 -9 -7 -26 -10 -40 -6 -16 4 -42 -1 -70 -13
-38 -17 -45 -24 -45 -48 0 -28 -15 -53 -32 -53 -5 0 -4 9 2 19 14 27 0 32 -38
14 -42 -20 -72 -59 -72 -91 0 -25 -24 -51 -48 -52 -9 0 -11 7 -7 20 10 32 -17
25 -87 -23 -41 -28 -69 -56 -82 -81 -28 -57 -301 -253 -391 -281 -40 -13 65
73 135 109 67 36 87 56 55 56 -24 0 -92 -37 -175 -95 -96 -67 -140 -90 -140
-73 0 7 7 22 15 32 30 40 5 50 -38 16 -33 -26 -34 -26 -34 10 0 17 6 30 12 30
7 0 15 20 18 46 6 53 34 98 66 102 25 4 27 -8 5 -49 -22 -43 -15 -93 13 -97
29 -4 120 43 218 113 104 74 145 114 145 140 0 25 29 55 54 55 14 0 14 -4 -5
-30 -13 -16 -19 -33 -15 -37 9 -10 64 21 104 58 38 36 41 48 7 41 -24 -4 -25
-2 -25 42 0 31 -4 46 -13 46 -19 0 -37 -21 -37 -42 0 -13 -8 -18 -31 -18 -34
0 -92 -24 -110 -46 -9 -11 -9 -18 1 -29 11 -13 4 -23 -39 -67 -60 -59 -77 -58
-32 4 55 74 32 86 -41 22 -40 -35 -158 -100 -158 -86 0 12 81 71 260 187 91
59 244 160 340 225 211 142 268 172 308 164 53 -11 151 59 182 129 l17 38 21
-26 21 -27 7 29 c12 56 16 63 36 74 28 15 37 -2 30 -55 -5 -37 -4 -40 11 -28
9 8 19 35 22 60 11 78 11 79 65 85 80 10 190 78 190 118 0 13 8 20 23 21 46 3
82 -4 90 -18 10 -18 87 -19 112 0 18 13 18 14 -3 25 -11 6 -34 11 -50 11 -36
0 -57 21 -40 38 7 7 20 12 29 12 9 0 65 30 125 66 137 83 167 94 266 94 57 0
79 3 76 12 -2 6 -12 15 -21 20 -9 4 -25 12 -34 17 -10 4 -19 21 -21 36 -3 25
-1 27 20 20 71 -23 94 -19 142 25 25 24 46 48 46 56 0 8 15 14 37 16 30 2 38
8 43 28 5 20 13 26 43 28 35 3 37 5 37 38 0 34 0 35 35 28 73 -13 134 27 160
106 12 35 31 62 67 95 57 51 72 56 58 20 -7 -19 -6 -26 7 -33 22 -13 67 1 175
54 98 47 128 53 148 29 10 -13 10 -19 -4 -33 -9 -10 -16 -30 -16 -45 0 -18 -7
-28 -22 -33 -30 -9 -34 -7 -30 18 4 20 3 20 -34 -3 -20 -12 -76 -52 -122 -87
-47 -35 -101 -71 -121 -80 -20 -9 -38 -18 -40 -19 -10 -7 36 -32 59 -32 49 -1
397 207 459 272 29 32 23 43 -30 51 -50 8 -95 30 -131 64 -52 48 -23 107 36
76 36 -18 64 -18 110 1 36 15 37 15 66 -13 37 -38 136 -77 245 -99 80 -15 89
-15 118 0 19 9 64 17 107 19 64 3 88 9 163 45 233 112 335 219 489 511 86 164
111 198 161 220 23 11 65 37 92 59 52 41 80 58 155 92 115 53 384 290 434 381
18 33 31 77 37 123 11 84 16 90 150 192 117 90 196 175 242 263 46 89 61 136
92 289 14 70 42 177 62 236 30 91 35 114 27 145 -5 20 -13 35 -19 33 -5 -2
-19 -27 -29 -55 -26 -71 -62 -119 -147 -202 -172 -166 -513 -391 -1654 -1092
-574 -353 -1645 -1021 -1723 -1075 -135 -93 -95 -89 68 8 125 74 190 108 196
102 8 -8 -113 -89 -401 -268 -350 -218 -494 -303 -502 -296 -6 6 82 65 272
182 134 82 265 175 265 187 0 14 -101 -44 -385 -220 -137 -85 -488 -302 -780
-482 -964 -594 -1055 -652 -1055 -675 0 -8 2 -15 5 -15 17 0 122 62 268 159
92 61 199 127 237 146 39 20 74 43 77 51 7 18 118 74 146 74 23 0 22 -17 -3
-25 -11 -3 -59 -32 -107 -64 -241 -158 -458 -290 -563 -342 -71 -35 -120 -39
-120 -9 0 24 -25 27 -34 4 -15 -40 11 -114 40 -114 26 0 91 37 364 210 146 92
517 325 825 517 308 193 641 402 740 465 99 63 285 178 413 257 262 159 714
444 988 622 200 129 241 153 247 141 12 -19 -51 -300 -81 -362 -30 -60 -81
-94 -1927 -1270 -1498 -954 -1449 -921 -1540 -1023 -47 -52 -62 -23 -64 123
-2 114 -16 196 -54 313 -24 75 -29 102 -21 115 18 28 185 150 259 189 39 20
160 93 270 163 110 70 484 300 831 512 346 212 857 529 1134 703 940 591 1404
881 1775 1110 958 590 1251 786 1493 995 81 70 187 193 216 248 37 72 59 386
60 852 1 251 -2 371 -10 384 -9 15 -13 16 -20 5z m-94 -1662 c0 -41 -30 -141
-64 -212 -43 -92 -116 -178 -220 -261 -117 -93 -689 -476 -697 -466 -3 4 -9
69 -12 145 l-6 137 62 52 c34 28 226 160 427 293 201 133 394 265 429 294 65
52 81 56 81 18z m-1177 -919 c10 -38 -48 -321 -92 -451 -64 -186 -179 -344
-339 -466 -74 -57 -200 -92 -267 -73 -50 14 -34 27 40 33 78 7 161 43 249 109
81 59 178 171 163 186 -2 3 -26 -14 -53 -36 -160 -133 -241 -180 -307 -180
-38 0 -97 23 -97 39 0 17 37 40 83 52 87 21 247 145 247 190 0 33 -33 21 -82
-29 -93 -95 -203 -132 -293 -98 -55 21 -127 98 -143 154 -12 41 -16 112 -6
112 3 0 25 -16 48 -35 51 -41 121 -74 159 -75 42 0 76 21 137 86 67 71 92 110
125 199 39 103 52 123 95 145 37 19 40 24 40 61 0 44 14 79 32 79 23 0 2 -197
-38 -352 -37 -142 -39 -178 -9 -147 18 18 68 162 105 302 37 140 69 191 84
135 18 -67 -8 -295 -43 -389 -26 -67 -12 -89 19 -30 27 55 54 164 81 331 21
133 31 170 48 170 5 0 11 -10 14 -22z m-423 -102 c0 -116 -69 -261 -142 -299
-50 -25 -113 -33 -133 -17 -27 22 -17 37 29 44 60 9 129 56 160 108 13 24 30
74 36 111 17 111 50 145 50 53z m755 -56 c8 -13 -10 -42 -54 -89 -25 -26 -35
-31 -41 -21 -12 20 8 67 42 95 32 27 43 30 53 15z m-185 -140 c-17 -32 -92
-82 -104 -70 -16 16 3 40 60 78 49 34 65 31 44 -8z m-1030 -4 c0 -14 -36 -46
-52 -46 -15 0 -8 39 10 49 25 15 42 13 42 -3z m-510 -313 c0 -12 -33 -43 -46
-43 -26 0 -24 19 3 34 31 17 43 19 43 9z m404 -59 c3 -9 6 -25 6 -36 0 -11 16
-56 36 -101 62 -139 65 -147 54 -147 -31 0 -129 206 -130 273 0 30 24 38 34
11z m-594 -53 c0 -21 -273 -191 -286 -178 -7 6 64 56 185 130 103 62 101 61
101 48z m-3121 -316 c43 -21 43 -39 4 -84 -57 -67 -166 -121 -214 -106 -26 9
-12 27 50 62 70 40 91 62 91 98 0 49 18 57 69 30z m3696 -95 c54 -54 96 -102
93 -105 -17 -17 -131 72 -179 138 -28 39 -37 67 -21 67 4 0 52 -45 107 -100z
m-1905 -439 c0 -12 -99 -75 -416 -266 -142 -85 -264 -155 -272 -155 -27 0 -6
33 30 46 20 7 103 57 185 112 81 55 207 134 280 176 159 92 193 107 193 87z
m589 -155 c-33 -47 -43 -54 -54 -36 -12 20 7 51 43 69 20 11 39 18 41 16 2 -2
-12 -24 -30 -49z m-2234 -81 c0 -15 -8 -21 -32 -23 -37 -4 -41 3 -16 30 21 23
48 19 48 -7z m-155 -80 c-19 -22 -100 -69 -107 -61 -7 7 37 44 81 68 35 18 45
16 26 -7z m-6180 1 c0 -23 -45 -70 -58 -62 -18 11 -14 34 8 56 23 23 50 26 50
6z m5984 -117 c-41 -45 -274 -173 -274 -150 0 18 254 171 283 171 6 0 2 -9 -9
-21z m1232 -38 c-30 -32 -126 -87 -126 -73 0 19 113 102 139 102 10 0 6 -10
-13 -29z m-7533 -113 c32 -94 32 -95 -1 -133 -17 -19 -34 -52 -38 -72 -20
-116 -18 -115 -42 -26 -28 101 -28 152 -1 206 22 44 47 77 59 77 3 0 14 -24
23 -52z m98 -55 c21 -56 39 -138 60 -277 24 -162 31 -181 59 -166 26 14 68
108 78 172 6 43 11 54 28 56 20 3 93 -47 174 -117 35 -31 35 -31 -52 10 -86
41 -118 44 -118 15 0 -40 162 -169 247 -196 21 -7 85 -45 143 -85 138 -95 165
-108 230 -115 47 -4 55 -8 58 -27 2 -13 23 -39 46 -58 55 -45 170 -105 202
-105 13 0 41 -15 61 -33 54 -47 113 -86 228 -147 55 -29 130 -70 167 -92 113
-65 165 -88 196 -88 20 0 45 -13 78 -41 27 -22 103 -66 169 -98 432 -209 662
-319 677 -324 25 -9 35 16 43 111 11 122 13 124 126 77 231 -94 295 -140 324
-231 61 -194 -86 -376 -216 -267 l-30 26 7 -27 c6 -25 4 -26 -33 -26 -105 0
-503 170 -1148 491 -386 191 -495 251 -940 514 -392 231 -455 275 -348 246 21
-6 41 -7 46 -2 17 17 -184 138 -206 124 -4 -2 4 -20 18 -39 14 -19 22 -34 17
-34 -17 0 -150 85 -262 168 -157 117 -217 175 -231 224 -9 36 -3 71 8 40 7
-18 32 -42 45 -42 7 0 8 14 5 37 -4 25 0 51 15 85 16 38 19 60 14 101 -18 154
-19 167 -7 167 6 0 16 -12 22 -27z m5784 -42 c-3 -5 -67 -51 -143 -102 -196
-132 -276 -195 -368 -290 -137 -142 -235 -313 -353 -619 -96 -248 -112 -288
-126 -307 -13 -17 -14 -16 -9 7 11 47 26 95 70 219 102 283 190 461 303 612
126 168 236 260 505 423 105 63 134 77 121 57z m-5407 -53 c18 -18 14 -38 -7
-38 -21 0 -31 17 -23 38 5 15 15 15 30 0z m5611 -35 c-13 -16 -81 -61 -451
-301 -325 -210 -394 -301 -578 -753 -66 -161 -90 -211 -90 -182 0 21 50 170
95 286 152 392 245 496 695 778 250 157 302 187 324 188 16 1 17 -1 5 -16z
m-5501 -44 c26 -39 17 -47 -27 -24 -29 14 -40 42 -24 59 12 11 27 1 51 -35z
m532 15 c0 -4 -10 -22 -21 -41 -25 -39 -16 -53 33 -53 41 0 76 -20 90 -52 7
-15 16 -28 19 -28 4 0 15 19 25 43 l18 42 6 -44 c8 -51 23 -65 98 -88 31 -10
61 -27 68 -39 10 -15 22 -20 38 -17 17 4 25 -1 28 -15 3 -12 17 -21 37 -25 18
-4 47 -21 64 -39 28 -28 30 -33 13 -36 -35 -7 -105 20 -209 82 -56 33 -178 97
-270 141 -92 44 -165 85 -164 90 5 14 100 85 115 85 6 0 12 -3 12 -6z m3296
-446 c7 -328 -13 -896 -27 -743 -9 100 -10 929 -2 1076 l8 124 7 -75 c4 -41
10 -213 14 -382z m-4503 319 c101 -183 191 -274 482 -492 292 -218 327 -265
329 -437 1 -115 -10 -135 -66 -124 -42 8 -128 61 -128 78 0 7 10 18 23 23 20
9 22 17 22 76 0 52 -4 72 -19 88 -25 27 -50 28 -41 1 11 -34 -13 -24 -131 55
-173 116 -181 142 -18 54 92 -50 120 -55 66 -13 -77 61 -265 194 -273 194 -5
0 -2 -11 6 -24 23 -34 1 -44 -36 -17 -15 11 -30 21 -33 21 -3 0 -19 -14 -35
-32 -45 -48 -50 -26 -8 35 21 30 37 58 37 64 0 18 -70 103 -85 103 -21 0 -19
-8 11 -52 15 -21 24 -41 21 -45 -11 -10 -86 47 -106 81 -10 17 -19 45 -19 62
0 17 -23 75 -51 130 -42 81 -51 107 -51 151 0 61 16 103 40 103 10 0 34 -31
63 -83z m3975 31 c4 -30 -26 -63 -65 -73 -31 -7 -44 3 -21 16 31 17 48 40 48
65 0 36 34 28 38 -8z m2418 -13 c37 -41 86 -140 82 -163 -3 -14 -130 -102
-148 -102 -3 0 -2 42 2 93 7 96 2 169 -14 201 -17 33 42 11 78 -29z m-5553
-12 c44 -23 140 -94 134 -100 -9 -9 -187 98 -187 112 0 10 22 5 53 -12z m2602
-45 c48 -68 73 -114 67 -119 -21 -19 -51 -19 -70 1 -22 23 -55 117 -46 131 9
16 33 10 49 -13z m4470 -82 c-10 -14 -15 -32 -12 -40 9 -22 -68 -58 -138 -64
-136 -10 -154 24 -46 88 102 59 113 58 47 -4 -33 -31 -55 -56 -49 -56 5 0 38
18 73 41 129 83 162 93 125 35z m-7212 18 c31 -17 31 -17 9 -25 -35 -13 -76
13 -55 34 9 9 10 9 46 -9z m3231 -30 c20 -20 20 -26 -3 -66 -13 -22 -25 -78
-35 -163 -20 -158 -55 -355 -68 -375 -17 -28 -2 308 18 398 16 70 16 87 5 115
-23 57 -23 65 -2 86 25 25 63 27 85 5z m-3004 -100 c64 -35 121 -64 126 -64
17 0 47 -38 39 -49 -10 -18 -35 -13 -65 13 -16 13 -64 42 -107 66 -96 53 -163
98 -163 110 0 14 43 -5 170 -76z m2710 57 c0 -12 -23 -31 -37 -31 -16 0 -17
22 -2 37 11 11 39 7 39 -6z m2883 -88 c17 -14 24 -28 20 -41 -3 -14 1 -22 16
-27 12 -3 21 -12 21 -20 0 -16 -22 -25 -63 -25 -56 0 -59 -14 -9 -32 62 -22
97 -54 81 -74 -6 -8 -20 -14 -31 -14 -17 0 -19 4 -13 27 5 23 4 25 -9 14 -19
-16 -8 -50 46 -138 22 -36 40 -79 40 -95 1 -21 7 -32 20 -36 20 -5 25 -22 7
-22 -6 0 -33 8 -60 17 -40 15 -54 15 -82 5 -18 -7 -43 -12 -55 -12 -28 0 -38
35 -18 65 20 31 56 34 56 5 0 -17 7 -20 40 -20 22 0 40 3 40 8 0 10 -81 62
-97 62 -21 0 -15 14 17 45 32 31 38 45 17 45 -7 0 -23 7 -35 16 l-23 16 21 32
c25 42 25 43 -5 48 -14 3 -25 2 -25 -2 0 -3 -16 -25 -35 -47 -42 -49 -43 -57
-10 -49 49 12 84 -26 50 -54 -8 -7 -15 -24 -15 -39 0 -14 -6 -33 -13 -42 -20
-26 -88 -69 -110 -69 -17 0 -19 5 -14 38 4 20 9 71 13 112 6 65 10 79 37 108
24 24 27 32 14 32 -21 0 -31 39 -24 92 10 72 42 80 39 9 -2 -47 7 -56 36 -35
14 10 22 26 22 45 0 32 13 63 38 92 16 18 16 18 23 0 4 -10 18 -28 32 -40z
m-5147 -25 c31 -18 54 -45 54 -63 0 -8 -59 23 -97 52 -63 46 -30 54 43 11z
m1671 -47 c112 -51 220 -208 277 -400 20 -70 20 -140 0 -191 -26 -64 -39 -51
-36 36 6 122 -47 264 -98 264 -11 0 -32 16 -47 36 -93 122 -143 152 -236 140
-28 -3 -62 -9 -74 -12 -31 -9 -30 12 6 67 48 76 124 98 208 60z m2789 -247
c-35 -143 -71 -295 -80 -339 -43 -218 -65 -519 -47 -650 5 -44 13 -102 17
-130 l7 -50 -21 19 c-33 29 -52 141 -61 352 -5 104 -13 206 -19 227 -11 42 -6
77 13 77 8 0 14 30 19 98 12 182 64 374 115 421 19 17 36 51 49 93 22 72 60
153 68 145 3 -2 -24 -121 -60 -263z m-4565 140 l22 -24 -23 0 c-27 0 -93 47
-85 60 8 13 60 -8 86 -36z m430 -25 c11 -11 18 -23 16 -26 -6 -6 -64 23 -72
37 -12 19 35 10 56 -11z m-289 -39 c54 -36 87 -70 68 -70 -19 0 -150 79 -150
90 0 19 37 10 82 -20z m395 -14 c15 -13 26 -27 23 -30 -8 -7 -70 31 -70 44 0
17 17 11 47 -14z m-1527 -113 c18 -14 43 -44 56 -65 19 -30 31 -38 53 -38 16
0 34 -6 40 -14 10 -12 7 -15 -19 -18 -31 -3 -29 -5 72 -88 71 -59 98 -86 86
-88 -42 -8 -298 207 -298 250 0 14 -5 18 -19 13 -26 -8 -77 36 -68 58 10 26
61 21 97 -10z m1359 2 c30 -14 75 -41 100 -59 59 -43 503 -276 708 -370 200
-93 284 -126 318 -126 19 0 29 -6 32 -20 3 -11 17 -23 32 -26 56 -13 95 -54
50 -54 -63 0 -1212 575 -1302 652 -28 23 -29 27 -12 27 11 1 44 -10 74 -24z
m5271 6 c0 -22 -124 -110 -137 -97 -12 12 9 37 59 70 52 36 78 44 78 27z
m-3862 -26 c30 -9 71 -32 97 -55 37 -32 51 -38 75 -34 l29 6 -28 -90 c-34
-108 -57 -142 -110 -166 l-39 -18 -54 28 c-108 58 -208 191 -208 276 0 34 4
41 33 53 43 19 141 19 205 0z m-2938 -7 c0 -19 -31 -48 -52 -48 -22 0 -23 18
-1 42 18 20 53 24 53 6z m3297 -10 c-1 -16 5 -23 31 -30 26 -7 33 -13 30 -30
-4 -31 -22 -32 -57 -2 -54 45 -64 84 -21 84 14 0 19 -6 17 -22z m1889 -160
c-20 -97 -44 -179 -59 -193 -12 -13 -3 53 23 155 37 151 63 179 36 38z m-2466
-188 c12 0 70 -50 70 -61 0 -14 -12 -11 -68 21 -29 17 -50 35 -46 41 3 6 13 8
21 5 8 -3 18 -6 23 -6z m-1860 -45 c10 -12 6 -18 -22 -35 -64 -39 -134 -16
-88 30 24 24 92 27 110 5z m-565 -45 c-10 -17 -65 -41 -83 -38 -12 3 -5 11 23
26 43 23 70 28 60 12z m4845 -4 c0 -15 -37 -32 -47 -22 -3 3 -3 12 0 21 8 19
47 20 47 1z m-4424 -70 c3 -8 -6 -25 -20 -39 -14 -15 -26 -35 -26 -47 0 -33
-19 -23 -26 15 -4 25 -1 43 10 60 18 27 53 33 62 11z m2369 2 c28 -13 33 -28
9 -28 -21 0 -54 18 -54 30 0 13 14 13 45 -2z m1756 -46 c-13 -25 -59 -59 -162
-120 -166 -97 -189 -102 -78 -16 67 52 227 154 241 154 5 0 4 -8 -1 -18z
m-1563 -23 c73 -21 104 -45 134 -104 24 -45 37 -165 19 -165 -11 0 -27 21
-102 138 -24 36 -65 81 -100 108 -63 48 -72 59 -38 49 12 -4 51 -15 87 -26z
m1152 -74 c0 -21 -39 -44 -80 -47 -47 -4 -47 21 0 44 43 22 80 23 80 3z
m-3691 -81 c-28 -30 -72 -31 -99 -4 -20 20 -27 50 -12 50 5 0 17 -7 28 -15 26
-20 47 -19 75 4 20 17 25 17 27 4 2 -8 -6 -26 -19 -39z m783 -2 c13 -13 -69
-54 -99 -50 -29 3 -40 25 -29 55 5 13 17 15 64 9 31 -4 60 -10 64 -14z m4373
-81 c-37 -71 -79 -120 -92 -107 -9 9 36 95 85 162 50 68 54 35 7 -55z m-4561
34 c105 -62 113 -63 184 -24 l59 33 36 -27 c20 -15 47 -27 60 -27 23 0 25 -4
31 -76 8 -88 1 -102 -41 -82 -29 14 -33 31 -18 89 6 23 3 27 -19 33 -38 9
-153 -11 -212 -38 -28 -13 -76 -40 -107 -59 -80 -52 -96 -52 -127 -2 -26 42
-28 96 -6 130 17 26 76 95 81 95 2 0 37 -20 79 -45z m3946 5 c0 -16 -4 -30
-10 -30 -5 0 -10 14 -10 30 0 17 5 30 10 30 6 0 10 -13 10 -30z m-4802 -43 c2
-9 -4 -20 -13 -23 -20 -8 -50 19 -40 36 10 17 49 8 53 -13z m1687 -33 c563
-234 772 -304 970 -325 210 -23 524 20 771 104 95 33 386 157 401 171 6 6 15
26 20 44 18 72 28 29 31 -134 2 -155 1 -168 -20 -205 -26 -47 -83 -85 -199
-133 -200 -82 -465 -155 -641 -177 -132 -16 -495 -7 -613 15 -181 34 -635 205
-789 296 -85 51 -108 97 -114 234 -5 121 5 156 45 156 16 0 78 -21 138 -46z
m-1065 -21 c0 -18 -28 -53 -42 -53 -15 0 -8 49 10 59 24 15 32 13 32 -6z m467
-59 c9 -24 -24 -44 -72 -44 -32 0 -47 -6 -66 -26 -24 -26 -171 -104 -196 -104
-29 0 -9 23 58 66 80 52 225 123 252 124 10 0 20 -7 24 -16z m328 -90 c18 -39
12 -62 -12 -42 -21 17 -45 76 -37 89 8 14 29 -5 49 -47z m-767 20 c12 -8 22
-21 22 -29 0 -11 -8 -10 -35 6 -35 21 -46 39 -22 39 7 0 23 -7 35 -16z m398
-50 c18 -15 18 -15 -8 -10 -22 5 -31 0 -53 -26 -25 -32 -26 -32 -40 -14 -19
25 -19 31 1 50 20 20 75 21 100 0z m44 -174 c0 -15 -47 -23 -77 -12 l-28 10
35 15 c35 15 70 8 70 -13z m409 21 c27 -17 -4 -57 -91 -113 -46 -30 -91 -58
-100 -61 -41 -14 -46 54 -6 89 19 18 19 18 12 -10 -7 -28 -6 -29 22 -22 37 9
66 43 58 68 -13 42 61 76 105 49z m2391 -77 c0 -12 -35 -33 -55 -33 -19 0 -19
1 4 19 22 19 51 27 51 14z m-2402 -150 c-21 -22 -43 -35 -54 -32 -14 2 -7 11
31 39 28 20 52 34 55 32 2 -2 -12 -20 -32 -39z m471 11 c12 -12 9 -18 -20 -44
-42 -39 -51 -39 -37 0 14 40 5 46 -28 20 -15 -11 -33 -21 -41 -21 -26 0 -9 35
27 53 37 19 75 16 99 -8z m205 -97 c9 -12 16 -33 16 -46 0 -15 7 -26 20 -29
37 -10 19 -93 -20 -93 -13 0 -27 14 -39 38 -27 53 -44 65 -80 57 -23 -5 -35
-1 -51 15 -25 25 -19 39 15 32 19 -3 30 2 46 22 26 33 71 35 93 4z m180 -31
c16 -16 25 -41 30 -81 7 -52 9 -56 29 -50 34 10 77 34 138 75 31 21 68 41 83
45 25 6 26 4 21 -18 -6 -23 -4 -24 24 -20 19 2 41 -2 56 -12 34 -23 54 -20
122 15 97 50 112 33 23 -27 -41 -28 -96 -63 -122 -78 -45 -26 -66 -24 -47 4
28 46 -6 39 -94 -20 -76 -51 -104 -59 -125 -38 -17 17 -15 33 3 18 17 -14 31
-8 20 9 -20 34 -159 -27 -171 -74 -3 -14 -8 -25 -11 -25 -11 0 -43 22 -43 29
0 5 18 35 40 67 40 59 49 84 30 84 -5 0 -55 -43 -111 -96 -103 -97 -129 -110
-153 -72 -8 13 -6 21 7 36 21 23 22 51 2 59 -10 3 -38 -16 -80 -56 -70 -67
-65 -67 -155 -21 -22 11 -54 22 -72 24 -31 4 -58 28 -58 51 0 19 32 42 75 54
56 15 264 14 295 -2 22 -11 60 -58 74 -90 3 -8 12 -3 26 13 12 14 41 46 66 72
44 47 45 49 38 98 -8 57 3 64 40 27z m149 -31 c3 -7 -1 -23 -10 -35 -12 -17
-18 -20 -29 -10 -15 12 -19 41 -7 52 11 12 41 7 46 -7z"/>
<path d="M12444 5929 c-16 -17 -163 -121 -326 -230 -164 -110 -298 -204 -298
-209 0 -29 420 226 633 384 40 29 67 57 67 68 0 29 -43 22 -76 -13z"/>
<path d="M12357 5706 c-37 -29 -161 -108 -275 -176 -221 -132 -258 -158 -243
-173 13 -13 59 12 276 152 198 128 335 227 335 242 0 19 -27 6 -93 -45z"/>
<path d="M340 2541 c0 -20 229 -189 318 -235 60 -31 45 -9 -40 56 -162 126
-278 200 -278 179z"/>
<path d="M542 2500 c-11 -29 -9 -31 46 -68 117 -79 173 -105 236 -111 59 -6
60 -7 67 -41 9 -43 59 -88 142 -130 73 -37 85 -37 93 -5 4 14 11 24 17 22 17
-5 46 -68 53 -116 l7 -45 -49 29 c-89 53 -189 104 -203 105 -22 0 16 -37 79
-78 30 -19 208 -122 395 -229 508 -290 1436 -748 1738 -858 100 -36 137 -43
137 -25 0 16 -40 36 -149 75 -347 124 -1403 639 -1591 777 -51 37 -5 30 77
-12 81 -42 91 -45 166 -45 l80 0 1 -45 c1 -38 5 -47 34 -67 58 -39 138 -63
207 -63 l65 0 0 -29 c0 -22 9 -37 34 -56 50 -38 153 -77 221 -83 34 -3 64 -11
70 -19 6 -9 23 -13 40 -11 21 2 29 -1 27 -11 -11 -54 177 -151 295 -151 36 0
45 -4 57 -28 21 -41 47 -60 111 -82 80 -27 85 -26 85 15 0 31 -6 40 -46 68
-25 17 -172 93 -327 167 -569 274 -1104 564 -1752 950 -414 247 -443 260 -463
200z m758 -510 c21 -21 19 -40 -4 -40 -18 0 -49 37 -41 49 9 16 23 13 45 -9z
m221 -70 c24 -20 24 -20 5 -35 -20 -15 -81 -20 -110 -9 -24 9 -19 43 7 54 37
15 73 11 98 -10z"/>
<path d="M3239 1319 c-27 -27 -59 -97 -59 -129 0 -113 106 -214 206 -196 52
10 113 70 125 124 10 47 -1 107 -28 149 -21 31 -37 30 -29 -3 17 -67 -32 -99
-135 -89 -64 7 -69 6 -69 -13 0 -28 38 -72 77 -88 46 -20 43 -38 -4 -31 -80
13 -124 104 -86 176 29 55 44 59 103 27 28 -15 56 -26 62 -24 15 5 -57 85 -93
104 -37 19 -45 18 -70 -7z"/>
<path d="M6570 2566 c0 -22 11 -46 21 -46 5 0 9 14 9 30 0 20 -5 30 -15 30 -8
0 -15 -6 -15 -14z"/>
<path d="M6541 2103 c-12 -10 -23 -31 -24 -48 -2 -26 1 -30 23 -27 36 4 50 21
22 28 -27 8 -27 12 0 41 25 27 10 31 -21 6z"/>
<path d="M3110 1968 c0 -42 13 -63 34 -55 20 8 20 36 0 65 -22 31 -34 27 -34
-10z"/>
<path d="M1528 1193 c-33 -5 -35 -14 -8 -31 11 -7 20 -16 20 -21 0 -5 -9 -11
-20 -14 -15 -4 -20 -14 -20 -41 0 -30 4 -36 21 -36 33 0 99 72 99 108 0 40
-16 46 -92 35z"/>
<path d="M2327 1004 c-4 -4 -7 -24 -7 -45 0 -70 70 -120 298 -214 149 -60 262
-89 321 -80 46 7 46 7 27 -14 -18 -20 -18 -20 5 -31 42 -18 270 -69 379 -85
130 -20 236 -17 233 5 -10 70 -19 85 -63 107 -25 13 -90 30 -145 38 -55 9
-131 22 -170 30 -38 7 -71 12 -73 10 -2 -2 17 -15 42 -30 25 -15 46 -28 46
-30 0 -4 -186 42 -199 49 -9 6 -9 11 -1 21 16 20 -5 31 -161 86 -79 27 -216
79 -304 113 -167 66 -216 81 -228 70z m205 -99 c62 -25 128 -68 118 -78 -7 -7
-185 78 -194 92 -11 17 8 14 76 -14z m339 -126 c19 -7 41 -18 49 -25 12 -12
11 -14 -13 -14 -30 0 -117 27 -131 41 -14 13 54 11 95 -2z m492 -186 c30 -16
31 -18 9 -21 -23 -4 -52 13 -52 29 0 13 7 11 43 -8z m122 -13 c4 -6 -7 -10
-24 -10 -17 0 -31 5 -31 10 0 6 11 10 24 10 14 0 28 -4 31 -10z"/>
<path d="M4425 884 c-209 -78 -488 -171 -538 -178 -33 -5 -59 -17 -83 -38 -35
-31 -35 -32 -16 -47 11 -9 23 -26 27 -38 5 -18 14 -23 42 -23 80 0 389 102
587 194 101 47 117 65 131 139 9 49 2 48 -150 -9z"/>
<path d="M3341 360 c-8 -24 -16 -30 -38 -30 l-27 0 22 -22 23 -23 20 24 c10
13 19 36 19 52 0 37 -5 37 -19 -1z"/>
<path d="M2578 324 c-24 -12 -38 -34 -23 -34 16 0 55 26 55 37 0 16 2 16 -32
-3z"/>
<path d="M2683 316 l-28 -24 28 -7 c35 -9 78 1 71 18 -2 7 -13 18 -24 25 -16
10 -24 8 -47 -12z"/>
<path d="M8970 7562 c0 -37 -1 -37 -64 -59 -35 -12 -200 -88 -367 -169 -369
-177 -486 -227 -516 -219 -30 7 -29 -10 3 -52 34 -45 73 -81 107 -99 25 -13
33 -12 95 12 132 52 781 384 817 418 38 36 44 70 24 123 -14 37 -58 83 -81 83
-14 0 -18 -8 -18 -38z"/>
<path d="M7455 7265 c-140 -44 -823 -367 -943 -445 -81 -53 -82 -94 -5 -137
21 -12 65 -45 97 -73 31 -27 61 -50 65 -50 5 0 38 20 74 44 37 25 221 122 409
217 189 94 390 198 448 229 97 54 109 58 153 53 30 -4 47 -2 47 5 0 17 -79 81
-160 128 -80 47 -112 52 -185 29z m188 -87 c22 -26 22 -38 -1 -38 -24 0 -94
49 -86 61 9 15 67 0 87 -23z"/>
<path d="M3830 7246 c13 -17 78 -41 87 -33 8 8 -59 47 -81 47 -15 0 -16 -3 -6
-14z"/>
<path d="M3990 7186 c17 -17 113 -56 136 -56 26 0 7 16 -51 44 -63 29 -110 36
-85 12z"/>
<path d="M4742 7020 c-23 -11 -42 -24 -42 -30 0 -24 84 -1 94 26 9 22 -8 24
-52 4z"/>
<path d="M7842 6950 l5 -79 -23 24 c-35 38 -81 33 -156 -16 -76 -50 -598 -310
-748 -374 -59 -25 -119 -45 -134 -45 -21 0 -26 -5 -26 -25 0 -35 31 -94 69
-129 26 -25 35 -28 67 -23 44 7 399 182 664 327 213 117 344 201 367 237 16
24 16 29 -1 77 -23 63 -52 106 -73 106 -13 0 -15 -12 -11 -80z"/>
<path d="M546 4787 c-76 -129 -150 -333 -222 -616 -46 -178 -61 -217 -88 -240
-38 -32 -11 -71 50 -71 48 0 85 -23 192 -118 40 -36 75 -63 77 -60 7 7 -70
115 -120 169 -65 70 -68 80 -39 121 26 36 26 39 53 269 5 48 26 135 45 194 44
132 99 395 83 395 -4 0 -17 -19 -31 -43z"/>
<path d="M10226 4509 c-32 -17 -248 -151 -480 -298 -232 -148 -700 -443 -1041
-656 -1003 -628 -1333 -841 -1320 -853 3 -3 60 29 127 70 261 160 1464 910
1877 1170 723 456 773 487 846 525 39 20 73 41 77 47 24 36 -10 34 -86 -5z"/>
<path d="M10134 4302 c-87 -54 -301 -189 -474 -299 -173 -110 -414 -262 -535
-338 -267 -168 -310 -195 -1290 -817 -429 -272 -801 -506 -827 -519 -47 -24
-60 -39 -35 -39 29 0 438 249 1072 653 457 292 1337 846 1785 1124 190 118
374 236 409 261 60 44 85 72 63 72 -5 0 -80 -44 -168 -98z"/>
<path d="M520 4371 c-12 -24 -13 -138 -1 -146 16 -9 51 46 51 81 0 39 -16 84
-29 84 -6 0 -15 -9 -21 -19z"/>
<path d="M1125 4300 c-11 -13 -14 -20 -6 -20 18 0 51 19 51 30 0 17 -26 11
-45 -10z"/>
<path d="M3620 4187 c-61 -31 -23 -80 115 -148 56 -28 108 -50 115 -47 7 2
-17 23 -54 47 -77 51 -101 78 -84 98 16 19 104 16 200 -7 127 -30 182 -25 139
14 -47 43 -369 75 -431 43z"/>
<path d="M510 4155 c0 -22 4 -26 23 -23 14 2 22 10 22 23 0 13 -8 21 -22 23
-19 3 -23 -1 -23 -23z"/>
<path d="M3805 4095 c83 -70 171 -97 210 -65 29 24 16 38 -42 50 -32 6 -86 18
-121 26 -82 18 -82 18 -47 -11z"/>
<path d="M9835 3764 c-146 -93 -201 -134 -179 -134 16 0 165 91 243 149 61 46
100 81 90 81 -3 0 -72 -43 -154 -96z"/>
<path d="M166 3769 c-52 -41 -74 -131 -42 -174 13 -18 20 -19 124 -7 60 7 117
9 126 6 8 -3 29 -28 46 -55 16 -27 35 -49 41 -49 16 0 1 57 -26 106 -43 75
-187 194 -233 194 -5 0 -21 -9 -36 -21z"/>
<path d="M9641 3744 c-53 -44 -33 -71 28 -39 30 15 45 40 35 56 -9 16 -31 10
-63 -17z"/>
<path d="M2673 3613 c-7 -2 -13 -13 -13 -24 0 -27 46 -37 68 -15 16 16 16 18
-2 32 -20 14 -32 16 -53 7z"/>
<path d="M250 3531 c0 -33 19 -71 35 -71 19 0 19 23 0 60 -18 34 -35 39 -35
11z"/>
<path d="M4640 3261 c-18 -34 11 -81 37 -59 16 13 17 50 1 66 -17 17 -26 15
-38 -7z"/>
<path d="M8925 3209 c-29 -26 -41 -30 -67 -25 l-32 6 23 -23 22 -24 -62 -7
c-69 -7 -91 -20 -87 -50 5 -37 43 -30 120 19 92 60 168 117 168 127 0 20 -53
5 -85 -23z"/>
<path d="M8500 2949 c-29 -56 -21 -75 22 -53 41 21 110 75 104 81 -2 2 -18 -3
-35 -11 -37 -20 -51 -20 -51 -2 0 32 -20 24 -40 -15z"/>
<path d="M7264 2640 c-64 -35 -108 -70 -89 -70 13 0 120 60 150 85 44 36 20
30 -61 -15z"/>
<path d="M7044 2509 c-63 -32 -102 -64 -92 -75 9 -9 122 53 149 82 30 32 13
30 -57 -7z"/>
<path d="M7687 2510 c-50 -31 -63 -56 -24 -44 26 8 68 37 87 59 21 26 -11 18
-63 -15z"/>
<path d="M3674 2415 c-9 -22 24 -51 40 -35 7 7 3 17 -11 32 -21 20 -23 21 -29
3z"/>
<path d="M7617 2335 c-59 -29 -72 -32 -100 -23 -65 20 -77 21 -77 5 0 -25 50
-77 73 -77 37 0 187 98 187 122 0 13 -11 9 -83 -27z"/>
<path d="M3636 2283 c-10 -11 -7 -20 20 -52 25 -30 66 -41 79 -22 11 18 -84
89 -99 74z"/>
<path d="M7267 2029 c-26 -17 -47 -35 -47 -40 0 -20 52 -7 85 22 63 56 37 68
-38 18z"/>
<path d="M5562 1913 c-26 -61 -52 -163 -42 -163 16 0 80 193 68 206 -3 2 -14
-17 -26 -43z"/>
<path d="M305 1790 c-24 -26 -8 -45 30 -36 20 5 26 12 23 29 -4 29 -30 33 -53
7z"/>
<path d="M322 1673 c-34 -20 -62 -40 -62 -45 0 -14 79 -9 110 7 27 14 60 51
60 67 0 19 -50 5 -108 -29z"/>
<path d="M6329 1623 c-22 -59 -39 -137 -30 -146 11 -11 41 65 48 125 6 53 -2
63 -18 21z"/>
<path d="M678 1629 c-18 -10 -25 -49 -10 -49 16 0 52 32 52 46 0 16 -17 18
-42 3z"/>
<path d="M4786 722 c-10 -17 11 -66 36 -85 29 -21 68 -16 68 10 0 19 -66 83
-85 83 -8 0 -16 -4 -19 -8z"/>
<path d="M4700 587 c-51 -113 -40 -127 51 -65 57 39 64 53 14 32 -40 -16 -40
-16 -19 30 17 35 14 66 -6 66 -6 0 -24 -28 -40 -63z"/>
<path d="M4503 406 c-96 -98 -97 -136 -3 -115 64 14 140 50 140 64 0 8 -7 26
-15 42 -8 15 -17 40 -20 56 -3 15 -11 27 -17 27 -7 0 -45 -33 -85 -74z"/>
<path d="M4366 442 c-11 -18 12 -35 38 -28 36 9 34 36 -3 36 -17 0 -32 -4 -35
-8z"/>
<path d="M4275 351 c-33 -16 -136 -76 -229 -135 -93 -58 -174 -106 -180 -106
-7 0 -27 -16 -46 -35 -42 -43 -31 -44 52 -5 34 16 79 30 98 30 19 0 58 12 85
27 35 18 64 26 97 25 38 -1 54 5 84 28 36 30 90 50 130 50 12 0 32 8 45 19 20
16 21 21 10 35 -19 23 -49 20 -103 -9 -26 -14 -52 -25 -58 -25 -5 0 -10 11
-10 25 0 20 5 25 25 25 32 0 81 24 88 43 5 13 -10 37 -22 37 -4 0 -33 -13 -66
-29z m-79 -97 c-4 -11 1 -18 14 -21 46 -12 -2 -47 -62 -45 -20 1 -57 -7 -82
-18 -25 -10 -46 -18 -46 -16 0 6 104 82 135 99 38 21 49 21 41 1z"/>
<path d="M3732 312 c-34 -20 -117 -73 -185 -117 -67 -43 -153 -95 -192 -115
-51 -26 -70 -41 -70 -55 0 -36 58 -22 144 34 42 28 82 51 88 51 6 0 48 29 94
65 45 36 89 65 98 65 9 0 35 9 59 20 42 19 56 14 26 -10 -8 -8 -20 -22 -25
-32 -16 -29 15 -22 56 13 41 37 49 91 16 109 -29 15 -40 12 -109 -28z"/>
<path d="M3228 113 c-2 -22 -10 -30 -38 -39 -37 -12 -44 -22 -31 -43 12 -19
58 0 96 39 31 32 30 64 -2 68 -17 3 -22 -3 -25 -25z"/>
<path d="M2810 102 c0 -19 60 -46 73 -33 15 15 -1 29 -41 37 -20 4 -32 3 -32
-4z"/>
</g>
</svg>
