<?xml version="1.0" standalone="no"?>
<!DOCTYPE svg PUBLIC "-//W3C//DTD SVG 20010904//EN"
 "http://www.w3.org/TR/2001/REC-SVG-20010904/DTD/svg10.dtd">
<svg version="1.0" xmlns="http://www.w3.org/2000/svg"
 width="1280.000000pt" height="1073.000000pt" viewBox="0 0 1280.000000 1073.000000"
 preserveAspectRatio="xMidYMid meet">
<metadata>
Created by potrace 1.15, written by Peter Selinger 2001-2017
</metadata>
<g transform="translate(0.000000,1073.000000) scale(0.100000,-0.100000)"
fill="#000000" stroke="none">
<path d="M11147 10723 l-77 -4 5 -67 c17 -245 17 -242 -10 -252 -23 -9 -154
-34 -165 -32 -3 1 -7 16 -10 33 -4 25 -29 54 -113 132 l-107 100 -131 -58
c-160 -72 -280 -149 -377 -241 l-73 -69 12 -141 c11 -132 11 -148 -9 -250 -12
-60 -27 -152 -32 -204 -13 -126 -13 -421 1 -612 10 -149 11 -154 44 -204 18
-29 60 -74 92 -102 32 -28 70 -61 85 -74 l27 -23 -17 -535 -17 -535 -194 -55
-194 -54 7 -168 c5 -132 4 -168 -6 -168 -7 1 -43 6 -79 13 -50 10 -101 33
-214 97 -82 46 -154 83 -160 83 -15 0 -678 -263 -689 -273 -5 -5 -3 -55 6
-122 9 -62 13 -116 9 -120 -3 -3 -34 -12 -67 -19 l-62 -13 -143 80 c-79 43
-145 78 -148 78 -52 -13 -647 -168 -649 -170 -3 -2 33 -253 44 -301 4 -23 3
-23 -90 -23 l-94 0 -119 73 c-65 41 -128 79 -141 86 -20 11 -59 0 -307 -80
-252 -82 -285 -95 -285 -113 0 -12 7 -61 15 -111 8 -49 15 -97 15 -106 0 -11
-23 -19 -100 -31 l-100 -16 -143 79 c-78 43 -147 79 -154 79 -13 0 -514 -130
-524 -136 -3 -2 3 -65 13 -141 10 -75 15 -140 11 -143 -5 -4 -66 -23 -136 -43
l-129 -36 -153 76 -153 77 -276 -80 -277 -79 2 -125 1 -124 -78 -18 c-44 -10
-121 -27 -173 -37 l-94 -20 -142 84 -141 84 -229 -55 c-126 -30 -268 -64 -317
-75 l-88 -21 6 -127 7 -127 -136 -43 -136 -43 -33 25 c-18 13 -92 56 -164 95
l-130 70 -120 -34 c-65 -18 -122 -34 -126 -34 -5 0 -8 12 -8 26 0 19 19 47 64
95 35 37 77 89 92 114 l27 47 -7 502 c-7 517 -13 615 -41 701 -52 153 -129
253 -268 349 -97 66 -72 66 -244 4 l-83 -30 0 -39 c0 -21 -1 -39 -2 -39 -2 0
-25 7 -52 15 -27 8 -73 15 -101 15 -52 0 -52 0 -61 38 -5 20 -38 92 -73 159
-52 96 -70 123 -90 128 -42 10 -482 18 -567 10 l-77 -7 6 -153 7 -153 -28 -10
c-24 -10 -132 -32 -154 -32 -4 0 -8 12 -8 28 0 22 -22 48 -116 134 l-115 106
-146 -69 c-177 -84 -254 -134 -354 -231 l-77 -73 12 -145 c7 -84 9 -158 4
-175 -49 -172 -67 -486 -49 -815 11 -195 15 -219 36 -255 27 -47 112 -134 173
-178 31 -22 42 -37 42 -56 0 -14 -7 -215 -15 -446 -8 -231 -19 -557 -25 -725
-6 -168 -15 -433 -20 -590 -5 -157 -14 -422 -20 -590 -30 -897 -32 -948 -66
-1923 l-16 -458 34 -37 c58 -65 177 -165 266 -225 526 -351 1291 -394 1900
-107 163 77 357 213 427 300 15 18 21 44 25 108 l5 83 1228 439 c676 242 1238
442 1248 445 18 6 19 18 19 195 l0 188 135 45 135 45 0 -114 c0 -110 1 -114
25 -130 50 -32 108 -13 145 49 17 27 20 51 20 142 l0 110 246 80 c135 44 252
81 260 83 11 3 14 -15 14 -97 0 -96 1 -100 26 -120 38 -30 78 -27 102 7 49 70
62 109 62 194 l0 83 213 69 c116 38 220 71 230 73 15 5 17 -3 17 -74 0 -69 3
-83 21 -99 32 -29 110 -26 144 6 41 38 47 55 54 153 l6 91 130 42 c197 65 175
70 175 -36 l0 -90 35 -17 c33 -16 37 -16 70 0 19 9 50 38 69 64 34 45 36 52
36 128 l0 80 203 64 c111 35 208 66 215 68 9 4 12 -19 12 -91 l0 -95 43 -6
c120 -18 149 10 157 149 l5 93 163 -73 164 -74 1021 371 c562 205 1036 376
1054 382 27 9 46 5 127 -26 561 -215 1269 -147 1754 169 98 64 122 83 205 161
l57 55 -55 1076 c-30 593 -59 1163 -65 1267 -5 105 -33 636 -60 1180 -28 545
-54 1058 -58 1140 l-8 150 62 65 c34 36 76 88 93 115 l31 49 0 255 c-1 402
-17 830 -35 908 -22 96 -89 224 -150 287 -27 28 -88 78 -134 109 l-84 58 -118
-42 -119 -42 0 -43 0 -43 -34 14 c-19 8 -66 18 -105 21 -69 7 -71 7 -77 38 -3
17 -36 87 -73 156 -62 113 -72 125 -102 133 -39 9 -445 16 -562 10z m473 -53
c41 -6 81 -12 90 -15 17 -6 96 -145 82 -145 -6 0 -53 9 -106 20 -135 28 -238
34 -326 21 -41 -6 -82 -14 -90 -16 -10 -3 -26 15 -48 55 -18 33 -33 63 -33 67
0 21 299 30 431 13z m-396 -262 c8 -56 14 -104 12 -105 -1 -2 -26 26 -55 62
-51 65 -52 65 -61 162 -5 54 -10 104 -10 112 0 8 22 -18 49 -57 46 -67 51 -79
65 -174z m-495 98 l63 -64 -87 -27 c-107 -34 -183 -83 -257 -164 l-57 -63 -96
52 -96 52 23 26 c81 89 160 142 303 204 61 26 117 48 125 48 9 0 44 -29 79
-64z m1005 -44 c49 -11 92 -26 97 -33 5 -8 9 -39 9 -69 1 -114 4 -121 83 -164
181 -97 207 -109 213 -103 3 3 1 72 -5 153 -6 81 -9 149 -7 151 3 3 44 -35 93
-84 119 -119 148 -177 148 -293 0 -47 -4 -120 -8 -163 l-9 -77 -75 70 c-195
182 -437 270 -743 270 -164 0 -239 -10 -405 -52 -228 -58 -368 -127 -522 -255
l-52 -44 -64 41 -64 40 -7 76 c-12 151 -9 187 23 231 63 88 162 152 309 204
75 26 95 30 102 19 5 -8 12 -55 15 -105 4 -51 11 -98 15 -105 12 -20 178 -6
294 24 54 14 100 27 102 28 2 3 -11 150 -20 215 -4 31 -3 33 37 42 66 16 338
5 441 -17z m686 -79 c51 -31 108 -73 127 -92 47 -48 91 -138 109 -220 23 -109
32 -101 -111 -101 l-125 0 0 53 c0 82 -84 243 -178 339 -32 34 -41 49 -31 52
12 4 87 21 110 25 4 1 48 -25 99 -56z m-1272 -74 c23 -33 42 -64 42 -69 0 -14
-123 -51 -192 -57 l-68 -6 0 77 0 76 43 0 c23 0 60 9 82 19 22 11 43 20 46 20
3 1 24 -26 47 -60z m907 6 l40 -20 3 -72 3 -72 -72 44 c-40 25 -87 50 -106 56
-30 10 -33 14 -33 51 l0 40 63 -4 c34 -2 80 -13 102 -23z m-1801 -127 c119
-59 116 -54 116 -200 0 -58 -3 -78 -13 -78 -23 0 -120 31 -159 51 -34 17 -37
23 -42 71 -7 73 -14 208 -10 208 2 0 51 -23 108 -52z m1601 -162 c55 -14 136
-43 180 -64 131 -63 296 -207 295 -258 0 -11 -7 -27 -15 -38 -13 -17 -17 -11
-59 73 l-46 91 -58 -26 c-273 -125 -514 -194 -678 -194 l-41 0 -12 -127 c-7
-71 -15 -148 -18 -172 l-6 -44 -121 6 c-96 4 -216 26 -233 41 -1 1 -9 62 -18
136 -9 74 -17 135 -19 137 -2 2 -48 14 -102 28 -111 27 -160 43 -246 82 l-59
26 32 34 c108 110 337 218 594 279 92 22 117 23 315 20 194 -3 225 -6 315 -30z
m825 -226 c0 -153 17 -141 -160 -110 -63 11 -118 20 -122 20 -10 0 -10 66 -2
148 l7 61 91 4 c50 1 112 4 139 5 l47 2 0 -130z m-2306 50 c16 -16 -4 -26
-104 -50 -52 -13 -98 -28 -102 -34 -4 -5 -10 -31 -13 -56 -3 -25 -11 -52 -16
-60 -14 -20 -5 148 11 211 l12 46 101 -24 c56 -13 106 -28 111 -33z m112 -109
c69 -64 182 -113 374 -162 l45 -11 -88 -45 c-78 -39 -92 -43 -120 -34 -18 5
-76 17 -130 26 -118 19 -183 42 -235 83 -40 32 -99 109 -90 117 7 8 170 63
187 64 8 1 33 -17 57 -38z m1745 -81 c21 -57 36 -106 34 -108 -6 -7 -257 -83
-375 -113 -81 -22 -149 -32 -230 -36 l-115 -6 -23 76 c-12 42 -22 81 -22 87 0
5 13 10 29 10 108 0 419 88 566 159 44 22 84 38 89 37 5 -1 26 -49 47 -106z
m322 -22 l129 -12 -7 -35 c-16 -87 -96 -196 -210 -286 -82 -65 -77 -70 -95 95
-6 63 -18 130 -26 149 -18 42 -18 51 1 51 8 0 22 11 32 25 21 29 14 28 176 13z
m-2317 -58 c58 -53 130 -84 295 -125 74 -19 146 -38 160 -43 l24 -9 -4 -156
-3 -155 59 -17 c142 -42 346 -67 634 -79 l126 -5 7 67 c3 37 6 108 6 158 l0
91 93 7 c126 10 238 35 472 110 110 35 201 62 203 60 2 -1 14 -72 26 -158 12
-86 25 -159 29 -162 9 -10 156 95 214 154 29 28 66 75 81 102 l29 51 7 -78 c3
-43 1 -157 -5 -253 -11 -172 -11 -176 -43 -225 -113 -174 -336 -331 -581 -410
-226 -73 -526 -107 -777 -87 -522 40 -867 178 -1083 433 -52 62 -53 63 -65
158 -6 53 -18 139 -26 191 -20 127 -28 315 -16 365 l9 40 23 -53 c26 -60 35
-55 45 20 4 26 9 48 12 48 3 0 25 -18 49 -40z m744 -78 c0 -16 3 -63 6 -104
l7 -75 -109 -66 -109 -66 -3 32 c-2 18 -1 65 3 104 l7 73 91 64 c51 36 95 65
100 65 4 1 7 -12 7 -27z m515 -252 c-9 -160 -15 -171 -36 -65 -19 95 -23 194
-12 284 l6 55 24 -80 c22 -71 23 -91 18 -194z m-404 4 c24 -8 106 -20 181 -26
l137 -12 13 -75 13 -76 -135 -3 c-91 -2 -167 2 -235 14 -104 17 -255 60 -255
72 1 10 202 120 221 121 9 1 36 -6 60 -15z m-386 -773 c124 -42 269 -77 405
-98 162 -25 567 -25 730 0 230 36 444 110 593 204 21 13 40 23 42 21 6 -6 35
-324 55 -608 39 -566 75 -1223 135 -2485 19 -407 44 -915 55 -1130 11 -214 20
-415 20 -446 l0 -57 -127 -85 c-280 -186 -545 -302 -822 -358 -164 -34 -427
-38 -593 -10 -131 23 -282 65 -375 106 l-53 24 0 1963 0 1963 -153 78 -152 77
-67 -19 c-38 -10 -68 -15 -68 -12 0 50 33 742 40 846 5 77 10 147 10 156 0 13
26 4 118 -41 64 -32 158 -72 207 -89z m-192 -925 c45 -19 105 -44 132 -56 l50
-22 -245 -80 -244 -80 -108 53 c-59 29 -108 56 -108 59 0 6 415 158 433 160 5
0 45 -15 90 -34z m207 -370 l0 -254 -32 -11 c-18 -5 -1255 -393 -2748 -862
-1493 -468 -3313 -1039 -4045 -1269 l-1330 -417 -6 26 c-7 29 -33 531 -27 535
2 1 106 39 233 83 140 50 232 78 236 72 3 -6 12 -64 19 -130 7 -65 16 -119 20
-119 9 0 714 171 717 174 2 1 -5 60 -14 130 -9 74 -12 131 -7 135 9 8 491 121
517 121 11 0 16 -25 21 -112 4 -62 9 -114 11 -117 4 -4 706 186 711 192 1 1
-5 55 -13 120 -8 66 -12 121 -10 124 7 6 439 143 454 143 7 0 14 -37 18 -109
4 -60 11 -114 15 -121 5 -9 89 11 320 77 l312 88 -6 130 -7 131 212 67 c117
37 214 65 217 63 2 -3 9 -48 16 -100 7 -53 15 -99 19 -102 6 -6 547 74 556 82
2 2 -2 67 -8 145 -7 77 -11 143 -8 145 6 6 449 126 452 122 2 -2 12 -50 24
-107 12 -58 23 -107 26 -109 3 -3 116 15 253 39 l247 45 0 159 0 158 240 68
c132 37 249 70 261 73 19 5 24 -4 54 -104 21 -68 39 -110 47 -110 7 0 114 25
237 56 l223 56 7 51 c3 29 6 93 6 143 l0 91 223 93 c122 51 227 94 233 96 6 3
18 -57 32 -163 13 -92 24 -168 25 -170 2 -1 136 35 298 81 l294 83 5 184 5
184 215 87 c118 48 218 87 223 88 4 0 7 -114 7 -254z m-628 130 l105 -49 7
-125 c3 -69 5 -126 4 -128 -2 -1 -58 25 -126 59 l-122 62 0 80 c0 89 9 157 20
153 4 -2 54 -25 112 -52z m-8447 -3 c22 -7 40 -26 69 -77 21 -37 37 -69 35
-71 -2 -2 -47 6 -99 17 -102 22 -291 29 -390 15 l-55 -8 -37 63 -36 63 31 7
c45 9 446 2 482 -9z m-531 -81 c42 -61 48 -78 61 -163 8 -52 15 -100 15 -108
0 -7 -24 17 -54 54 -53 66 -55 71 -61 144 -3 42 -8 91 -11 109 -3 17 -3 32 -1
32 3 0 26 -31 51 -68z m8328 -11 c46 -22 116 -53 154 -71 l69 -31 -280 -100
c-154 -55 -288 -98 -297 -95 -9 2 -65 30 -123 61 l-107 57 244 108 c133 60
246 109 249 109 3 1 44 -17 91 -38z m-8702 -122 c0 -3 -33 -15 -72 -28 -116
-37 -182 -77 -258 -157 l-69 -73 -94 52 -95 51 25 31 c67 80 184 155 347 220
l80 33 68 -62 c37 -33 68 -63 68 -67z m925 17 l120 -22 7 -100 c5 -61 13 -102
20 -107 50 -31 215 -121 244 -133 l37 -15 -7 123 c-4 68 -9 138 -13 157 l-6
34 29 -20 c128 -91 227 -242 226 -345 0 -59 -14 -258 -18 -258 -1 0 -27 24
-56 53 -267 266 -685 358 -1133 248 -253 -62 -447 -156 -580 -282 l-30 -28
-65 42 -65 42 -8 128 c-10 148 -6 160 87 244 63 58 141 100 259 142 99 35 92
38 101 -59 4 -36 9 -85 13 -109 l6 -44 91 6 c71 5 290 49 304 62 1 1 -3 55 -9
119 -8 81 -9 120 -2 127 16 16 147 28 243 22 47 -2 139 -14 205 -27z m8187
-36 c73 -14 137 -35 220 -72 65 -29 118 -55 118 -58 0 -3 -103 -34 -228 -69
-125 -35 -232 -66 -238 -68 -8 -3 -10 23 -7 89 6 134 13 198 23 198 5 0 56 -9
112 -20z m-7484 -42 c112 -67 152 -105 190 -176 32 -59 62 -163 62 -214 l0
-28 -102 0 c-128 0 -151 6 -144 33 16 61 -76 253 -170 354 -29 31 -52 58 -51
59 3 2 99 21 116 23 7 0 52 -22 99 -51z m-1266 -79 c24 -34 42 -65 41 -68 -4
-14 -144 -52 -198 -54 l-60 -2 -3 71 -3 71 48 5 c27 3 62 12 78 20 17 9 35 16
42 17 6 1 31 -27 55 -60z m903 10 l45 -21 0 -69 c0 -38 -3 -69 -6 -69 -3 0
-25 14 -50 31 -25 17 -69 41 -99 55 -51 22 -55 26 -55 57 0 19 3 37 8 41 12
13 110 -3 157 -25z m6947 -34 l93 -46 12 -82 c7 -45 12 -90 13 -99 0 -14 -23
-5 -110 40 l-110 57 0 88 c0 48 2 87 4 87 3 0 47 -20 98 -45z m-8740 -97 l108
-52 0 -113 0 -113 -27 6 c-55 12 -69 16 -125 41 -55 24 -58 28 -59 62 0 20 -4
78 -7 129 -4 50 -5 92 -2 92 3 0 53 -23 112 -52z m10501 -1605 c-3 -907 -8
-1651 -12 -1654 -3 -3 -127 -49 -276 -102 -148 -53 -553 -198 -899 -322 -346
-124 -631 -225 -633 -225 -1 0 -4 523 -5 1162 l-3 1163 -157 32 c-597 120
-1197 121 -1748 2 -599 -130 -1108 -370 -1574 -743 -112 -90 -349 -321 -446
-435 l-63 -75 4 -1265 4 -1264 -1082 -387 c-815 -291 -1083 -383 -1083 -372 0
21 -55 1098 -80 1567 -40 741 -102 2006 -99 2009 10 7 8126 2555 8141 2555 16
1 17 -102 11 -1646z m-2297 1573 l117 -54 -39 -11 c-305 -80 -426 -111 -437
-111 -8 0 -58 23 -113 52 l-98 52 220 62 c120 35 222 63 227 63 4 1 59 -23
123 -53z m544 -115 l115 -59 -60 -12 c-33 -6 -107 -22 -163 -35 l-104 -22 -29
64 c-47 106 -47 111 -2 116 110 11 124 8 243 -52z m-7331 19 c167 -17 309 -61
428 -131 31 -19 96 -72 145 -119 72 -70 87 -89 82 -107 -4 -12 -12 -27 -19
-33 -10 -9 -22 6 -54 67 -23 43 -41 81 -41 85 0 14 -13 9 -139 -48 -210 -95
-378 -141 -582 -159 l-66 -6 -12 -142 c-7 -78 -15 -155 -18 -171 l-6 -29 -111
7 c-103 7 -222 29 -238 44 -4 4 -11 54 -17 112 -17 159 -19 170 -40 170 -56 0
-313 83 -371 120 -21 13 23 57 128 127 105 70 254 133 407 173 184 48 334 59
524 40z m6264 -60 c120 -56 105 -31 132 -217 8 -57 15 -110 15 -118 0 -11 -37
4 -130 52 l-130 68 0 65 c0 36 -3 95 -7 133 -4 42 -2 67 4 67 6 0 58 -22 116
-50z m-5263 -200 c0 -71 -3 -130 -7 -130 -5 0 -70 10 -147 22 l-138 23 6 59
c3 32 6 78 6 102 l0 43 53 4 c28 2 91 4 140 5 l87 2 0 -130z m-2423 89 c121
-28 123 -29 123 -44 0 -14 -12 -18 -142 -51 l-67 -16 -10 -50 c-6 -27 -11 -56
-11 -63 0 -8 -5 -15 -11 -15 -8 0 -9 23 -5 78 7 78 24 182 31 182 2 0 43 -9
92 -21z m7139 -64 c60 -31 99 -57 92 -60 -8 -3 -95 -32 -195 -64 l-180 -58
-124 63 c-76 38 -118 64 -109 68 35 13 377 105 393 105 10 1 66 -24 123 -54z
m-6808 -148 c65 -34 255 -97 293 -97 11 0 19 -4 19 -8 0 -9 -159 -88 -170 -85
-4 1 -68 13 -143 27 -74 13 -156 33 -180 44 -79 35 -189 154 -155 167 7 3 51
18 98 33 l85 29 43 -37 c23 -21 72 -53 110 -73z m1646 -13 c20 -58 36 -107 34
-109 -9 -9 -378 -116 -450 -131 -45 -9 -125 -17 -176 -18 l-94 -1 -24 75 c-13
41 -24 78 -24 81 0 4 26 10 58 14 164 19 381 82 542 158 41 19 80 36 86 36 5
1 27 -47 48 -105z m5670 24 c61 -28 115 -55 120 -59 4 -4 -18 -12 -50 -19 -33
-6 -105 -22 -162 -34 -56 -13 -104 -20 -106 -17 -8 13 -46 149 -46 165 0 13
11 16 66 16 59 0 79 -6 178 -52z m-957 -16 l109 -54 16 -116 c9 -65 15 -119
13 -120 -2 -2 -57 21 -122 52 l-118 56 -6 52 c-12 100 -17 189 -9 186 4 -2 56
-27 117 -56z m-4289 -41 c16 -1 22 -7 22 -23 0 -37 -53 -139 -100 -193 -42
-48 -180 -168 -187 -161 -2 1 -10 61 -18 132 -9 71 -22 147 -30 169 -12 31
-13 41 -3 44 7 2 24 16 37 30 l24 27 116 -13 c64 -6 126 -12 139 -12z m-2324
-110 c33 -16 124 -46 201 -65 77 -20 151 -39 164 -42 l23 -7 -7 -157 -7 -156
78 -22 c150 -41 398 -69 649 -73 l100 -2 5 159 5 159 101 6 c131 8 216 27 459
105 110 35 203 60 206 56 3 -4 14 -68 24 -142 27 -202 17 -189 104 -130 93 61
185 150 221 213 l27 48 7 -32 c9 -47 7 -174 -5 -337 l-12 -147 -55 -73 c-224
-298 -648 -465 -1182 -465 -408 0 -788 95 -1034 258 -71 47 -177 145 -219 203
-28 37 -36 60 -42 112 -4 36 -15 121 -25 190 -10 69 -22 162 -26 207 -7 86 2
213 15 213 5 0 17 -24 28 -52 l21 -53 10 40 c5 22 13 52 16 67 l6 28 41 -40
c23 -22 69 -53 103 -69z m6051 14 c66 -30 113 -56 105 -59 -8 -3 -106 -29
-218 -57 l-203 -52 -99 48 c-55 27 -97 51 -94 54 9 9 348 119 369 120 11 0 74
-24 140 -54z m-5401 -42 c3 -21 6 -68 6 -105 l0 -67 -107 -65 c-60 -35 -109
-63 -111 -61 -1 1 0 49 4 106 l7 104 91 62 c50 34 94 62 97 62 4 1 9 -16 13
-36z m515 -182 c-2 -99 -14 -208 -21 -191 -25 57 -38 181 -32 294 l7 120 24
-79 c15 -52 23 -102 22 -144z m5395 94 c65 -33 114 -61 110 -62 -18 -6 -339
-61 -342 -58 -3 3 -52 168 -52 179 0 4 37 6 83 4 76 -4 90 -8 201 -63z m-832
-93 c9 -9 37 -202 30 -202 -3 0 -63 30 -133 68 l-129 67 0 55 c0 30 -3 72 -6
93 l-7 38 119 -56 c66 -31 122 -59 126 -63z m-4972 -53 c46 -15 102 -23 192
-26 l127 -6 5 -26 c3 -14 8 -44 12 -66 3 -22 8 -49 11 -59 5 -18 -1 -19 -168
-13 -96 3 -205 13 -244 21 -95 21 -215 58 -215 65 0 3 49 34 108 68 59 33 107
61 107 62 0 0 29 -9 65 -20z m4319 -119 c21 -14 11 -19 -200 -80 l-222 -64
-124 63 c-68 35 -122 65 -119 68 3 3 101 36 218 73 l213 67 106 -56 c58 -31
116 -63 128 -71z m527 -12 c79 -37 122 -63 111 -66 -10 -2 -123 -32 -252 -66
l-234 -62 -10 45 c-5 25 -12 71 -16 101 l-7 56 129 26 c70 14 133 26 139 27 6
0 69 -27 140 -61z m-997 -162 l31 -17 0 -93 0 -94 -114 61 c-127 67 -118 55
-132 185 l-7 62 95 -44 c53 -24 109 -51 127 -60z m-810 -98 c69 -29 118 -54
110 -56 -7 -2 -125 -29 -260 -61 l-247 -57 -108 55 c-60 30 -102 56 -94 58 11
3 309 74 470 112 2 1 60 -23 129 -51z m645 -64 c66 -32 125 -60 129 -64 6 -5
-456 -127 -507 -134 -8 -1 -50 194 -43 200 2 3 258 49 291 53 4 1 63 -24 130
-55z m-1182 -98 l115 -54 6 -68 c4 -38 7 -83 7 -100 l0 -32 -114 61 -114 61
-6 65 c-4 36 -9 78 -12 94 -3 15 -4 27 -1 27 2 0 56 -24 119 -54z m4788 -30
c199 -26 502 -87 523 -105 4 -4 4 -525 0 -1158 l-6 -1152 -86 -30 c-47 -16
-94 -33 -103 -36 -17 -7 -18 49 -18 1093 l0 1100 -27 6 c-158 31 -416 63 -634
77 -225 15 -494 1 -736 -36 -722 -113 -1355 -438 -1950 -1001 l-133 -125 -2
-1182 -3 -1181 -106 -37 -106 -37 -6 536 c-4 295 -8 856 -8 1247 l-1 710 73
88 c206 247 510 505 809 685 527 319 1108 496 1820 556 109 9 582 -3 700 -18z
m-7870 -107 c63 -31 156 -70 207 -88 547 -187 1267 -151 1675 84 43 25 79 45
82 45 28 0 105 -1228 191 -3035 51 -1087 74 -1552 79 -1621 l5 -61 -62 -45
c-286 -205 -577 -339 -877 -404 -144 -32 -407 -43 -557 -24 -328 41 -643 181
-912 405 -47 39 -92 79 -99 87 -10 13 -11 79 -2 339 5 178 17 617 25 974 42
1805 77 2877 105 3225 5 63 10 130 10 148 0 19 3 32 8 30 4 -2 59 -29 122 -59z
m2377 -11 c75 -28 132 -53 127 -55 -5 -1 -105 -32 -223 -68 -117 -36 -215 -65
-216 -63 -2 2 -4 39 -6 82 l-4 79 85 38 c47 21 88 39 93 39 4 0 69 -23 144
-52z m695 -75 c75 -37 137 -70 137 -73 1 -4 -517 -129 -554 -134 -5 0 -15 35
-22 79 -21 142 -35 126 135 162 81 17 152 32 157 33 6 1 72 -29 147 -67z
m4048 -1026 c0 -508 -3 -1066 -7 -1241 l-6 -316 -32 -37 c-26 -30 -35 -35 -58
-29 l-27 6 0 619 c0 340 3 908 7 1264 l6 646 36 4 c20 2 46 4 59 5 l22 2 0
-923z m334 917 l46 -7 0 -67 0 -67 -162 -47 c-90 -25 -166 -46 -170 -46 -5 0
-8 54 -8 120 l0 120 124 0 c68 0 144 -3 170 -6z m-494 -151 l0 -148 -173 -51
-172 -51 -8 165 c-6 117 -6 167 2 171 11 7 160 33 286 50 33 5 61 9 63 10 1 0
2 -65 2 -146z m620 81 c0 -47 -2 -54 -20 -54 -17 0 -20 7 -20 53 0 58 4 68 26
60 10 -3 14 -22 14 -59z m123 41 l37 -6 0 -903 c0 -496 3 -1004 7 -1127 l6
-224 -25 -29 c-25 -29 -26 -29 -71 -16 l-47 13 0 1154 0 1155 28 -6 c15 -2 44
-7 65 -11z m102 -15 c3 -5 -1 -10 -9 -10 -9 0 -16 5 -16 10 0 6 4 10 9 10 6 0
13 -4 16 -10z m-1221 -665 c3 -286 11 -835 17 -1221 10 -653 10 -703 -6 -734
-16 -32 -18 -32 -67 -27 -28 4 -53 8 -55 11 -6 6 -21 1221 -25 1985 l-3 594
60 17 60 17 6 -61 c4 -34 9 -295 13 -581z m1331 619 c31 -48 -6 -88 -102 -109
l-33 -7 0 56 0 55 48 14 c65 21 68 20 87 -9z m155 1 c4 -2 10 -204 14 -447 3
-244 11 -712 17 -1041 6 -330 8 -601 6 -603 -8 -8 -237 87 -232 96 3 4 20 11
40 14 79 15 124 91 90 155 -25 49 -58 57 -136 32 -36 -12 -68 -21 -72 -21 -4
0 -7 62 -7 138 l0 138 84 27 c46 15 91 36 101 47 21 24 30 96 16 132 -18 47
-67 45 -194 -7 -16 -7 -17 2 -15 131 l3 138 69 22 c48 15 79 31 97 52 50 56
47 133 -6 168 -25 16 -29 16 -83 -1 -31 -10 -63 -20 -69 -22 -10 -4 -13 27
-13 136 l0 140 76 23 c86 25 104 42 112 113 5 50 -13 89 -47 100 -11 3 -44 -1
-72 -9 -29 -9 -56 -16 -61 -16 -4 0 -8 47 -8 104 0 91 2 105 18 110 9 3 42 12
73 21 64 18 79 39 79 109 l0 43 57 -9 c31 -5 59 -11 63 -13z m-1660 -203 l0
-167 -228 -68 c-125 -37 -230 -67 -234 -67 -5 0 -8 69 -8 154 l0 154 113 48
c128 54 338 125 349 118 4 -3 8 -80 8 -172z m1170 81 l0 -58 -198 -59 c-108
-32 -203 -60 -210 -63 -10 -4 -12 10 -10 58 l3 63 200 57 c110 31 203 57 208
58 4 1 7 -25 7 -56z m-12 -314 c-7 -4 -13 -7 -14 -6 -1 1 -4 50 -7 109 -4 94
-3 107 12 110 14 3 16 -11 19 -101 2 -76 -1 -107 -10 -112z m-1665 -726 c4
-516 7 -1092 7 -1279 l0 -342 -29 -31 c-17 -18 -39 -31 -53 -31 l-25 0 -6 563
c-4 309 -10 887 -14 1284 l-6 723 54 24 c30 14 57 25 60 25 3 1 9 -421 12
-936z m1590 706 c-7 -6 -314 -99 -329 -99 -2 0 -3 48 -2 107 l3 108 165 50
165 51 3 -105 c1 -57 -1 -108 -5 -112z m-533 154 l0 -58 -162 -49 c-90 -26
-169 -51 -176 -53 -10 -4 -12 9 -10 57 l3 63 160 47 c88 27 166 49 173 49 8 1
12 -17 12 -56z m-1216 -80 c11 -135 8 -181 -11 -187 -104 -31 -502 -146 -507
-146 -3 0 -6 15 -6 34 0 31 8 40 93 103 138 104 396 272 418 273 3 0 9 -34 13
-77z m2175 -9 c49 -62 34 -92 -58 -118 -83 -23 -81 -24 -81 48 l0 63 53 15
c28 9 55 16 59 17 4 0 16 -11 27 -25z m-1509 -74 l0 -59 -72 -22 c-40 -12
-144 -43 -231 -69 l-158 -48 3 65 3 66 210 62 c116 35 218 63 228 64 14 1 17
-8 17 -59z m550 -48 l0 -107 -162 -49 c-90 -27 -169 -52 -176 -54 -10 -3 -12
20 -10 109 l3 113 155 47 c85 26 163 47 173 48 15 1 17 -10 17 -107z m622 -17
l-4 -65 -111 -34 c-62 -19 -155 -48 -207 -64 l-95 -29 -3 60 c-2 33 1 63 5 68
8 7 388 127 408 128 6 1 9 -25 7 -64z m-1174 -147 l-3 -113 -205 -62 c-113
-34 -215 -65 -227 -68 -23 -5 -23 -5 -23 108 l0 113 218 66 c119 37 223 67
230 67 10 1 12 -25 10 -111z m-660 20 l-3 -62 -240 -73 c-132 -39 -250 -75
-263 -78 -22 -5 -23 -4 -20 61 l3 67 255 73 c140 40 259 73 263 73 4 1 7 -27
5 -61z m1828 -265 c-3 -7 -10 -13 -16 -13 -16 0 -14 287 3 293 9 3 13 -29 15
-132 1 -74 0 -141 -2 -148z m-616 202 l0 -64 -97 -30 c-142 -43 -239 -71 -247
-71 -3 0 -6 29 -6 64 l0 64 88 26 c48 15 119 38 157 51 106 36 105 36 105 -40z
m540 -89 l0 -144 -166 -56 c-91 -31 -167 -56 -170 -56 -2 0 -3 68 -2 152 l3
152 155 47 c85 26 161 48 168 48 9 1 12 -34 12 -143z m-2321 -461 c6 -314 16
-839 22 -1169 l11 -598 -30 -37 c-16 -20 -38 -37 -49 -39 -20 -3 -21 3 -27
210 -5 188 -26 1855 -26 2063 l0 81 42 32 c23 17 43 31 44 29 1 -1 7 -259 13
-572z m571 401 l0 -115 -82 -25 c-317 -95 -422 -126 -434 -126 -11 0 -14 24
-14 113 l0 112 258 77 c141 42 260 76 265 77 4 1 7 -50 7 -113z m-702 2 l-3
-62 -94 -28 c-52 -15 -96 -26 -98 -24 -5 5 177 176 188 176 6 0 9 -25 7 -62z
m1362 -16 l0 -68 -224 -67 c-123 -37 -226 -67 -230 -67 -3 0 -6 29 -6 65 l0
64 73 22 c67 19 379 115 385 118 1 0 2 -30 2 -67z m548 -98 l-3 -156 -154 -54
c-84 -30 -159 -54 -166 -54 -10 0 -14 37 -17 153 -2 83 -1 155 2 159 5 6 308
104 333 107 4 1 6 -69 5 -155z m982 81 c19 -67 6 -88 -71 -114 -91 -30 -89
-31 -89 49 l0 69 63 20 c34 11 67 20 73 20 6 1 17 -19 24 -44z m-2892 -181
l-3 -116 -110 -34 c-60 -18 -120 -36 -133 -39 l-23 -6 3 118 3 117 120 37 c66
21 126 38 133 38 10 1 12 -26 10 -115z m2529 -20 c-2 -2 -91 -32 -197 -65
-107 -34 -199 -63 -207 -66 -10 -4 -13 10 -13 60 l0 65 208 70 207 69 3 -65
c2 -35 1 -66 -1 -68z m-1167 -58 l0 -164 -217 -73 c-120 -39 -224 -74 -230
-77 -10 -3 -13 35 -13 170 l0 174 218 66 c119 37 223 67 230 67 9 1 12 -38 12
-163z m-660 76 l0 -67 -253 -78 c-139 -42 -257 -77 -263 -77 -5 0 -7 28 -4 67
l5 67 250 77 c138 43 253 78 258 78 4 1 7 -29 7 -67z m1834 -74 c3 -13 6 -75
6 -139 0 -108 -1 -117 -20 -122 -19 -5 -20 0 -20 132 0 76 3 141 7 144 12 12
21 7 27 -15z m-84 -146 l0 -137 -170 -57 -170 -56 0 142 0 141 153 52 c83 28
160 52 170 52 15 1 17 -12 17 -137z m-542 66 l-3 -62 -145 -47 c-80 -25 -155
-49 -167 -53 -22 -7 -23 -5 -23 51 l0 58 163 57 c89 31 166 57 170 57 4 1 7
-27 5 -61z m-1205 -25 c4 -38 7 -115 7 -173 l0 -105 -258 -88 c-141 -48 -260
-87 -264 -87 -5 0 -8 82 -8 183 l0 182 248 77 c136 42 252 77 258 77 7 1 14
-27 17 -66z m-703 -31 l0 -68 -130 -41 c-71 -22 -132 -38 -135 -35 -3 3 -5 33
-5 68 l0 62 73 22 c39 11 97 29 127 40 30 10 58 19 63 19 4 1 7 -30 7 -67z
m1910 -184 l0 -143 -166 -56 c-91 -30 -167 -53 -169 -50 -1 3 -4 69 -4 146
l-2 140 153 52 c84 28 161 52 171 52 15 1 17 -12 17 -141z m1000 95 c13 -39
13 -44 -3 -60 -9 -9 -50 -29 -91 -43 l-74 -26 -7 59 c-3 33 -2 64 2 68 14 14
116 48 138 46 14 -1 25 -15 35 -44z m-1540 -33 c0 -37 -4 -52 -17 -58 -18 -10
-437 -142 -448 -142 -3 0 -5 23 -3 52 l3 51 215 73 c118 40 223 73 233 73 14
1 17 -8 17 -49z m-1372 -177 l-3 -187 -120 -43 c-66 -23 -126 -42 -132 -42
-10 -1 -13 43 -13 187 l0 188 123 41 c67 23 128 42 135 42 10 1 12 -40 10
-186z m2542 83 l0 -64 -72 -26 c-40 -14 -137 -48 -215 -74 l-143 -48 0 66 0
66 208 71 c114 40 210 72 215 72 4 1 7 -28 7 -63z m-1172 -143 l-3 -147 -225
-78 c-124 -42 -228 -77 -232 -77 -5 -1 -8 68 -8 152 l0 154 223 71 c122 39
228 71 235 71 10 1 12 -32 10 -146z m-660 25 l-3 -52 -255 -82 c-140 -46 -258
-83 -262 -83 -5 -1 -8 19 -8 43 l0 44 73 26 c113 41 441 153 450 155 4 0 7
-22 5 -51z m1832 -123 c0 -74 -4 -135 -8 -135 -25 0 -32 30 -32 140 0 118 3
130 27 130 10 0 13 -29 13 -135z m-98 -30 c2 -74 2 -135 1 -135 -1 0 -73 -22
-160 -50 -87 -27 -162 -50 -166 -50 -4 0 -6 59 -5 132 l3 131 155 53 c85 29
158 53 162 53 4 1 8 -60 10 -134z m-534 53 l-3 -61 -145 -49 c-80 -26 -153
-51 -162 -54 -16 -5 -18 2 -18 60 l0 65 148 49 c81 27 155 50 165 51 16 1 18
-7 15 -61z m-1198 -135 l0 -158 -248 -84 c-136 -46 -253 -86 -259 -88 -10 -4
-13 31 -13 156 l0 160 258 85 c141 46 258 85 260 85 1 1 2 -70 2 -156z m2188
37 c40 -25 42 -57 4 -93 -29 -28 -99 -57 -139 -57 -23 0 -24 2 -21 67 l3 66
50 18 c64 22 64 22 103 -1z m-2898 -34 l0 -44 -127 -40 c-70 -23 -128 -40
-129 -39 -1 1 -4 20 -5 41 l-4 39 125 43 c69 23 128 43 133 43 4 1 7 -19 7
-43z m1903 -93 c-3 -71 -8 -131 -12 -134 -6 -6 -293 -99 -305 -99 -4 0 -5 57
-4 126 l3 126 150 53 c83 30 155 54 161 54 9 1 10 -34 7 -126z m-535 45 l-3
-63 -225 -77 c-124 -42 -229 -77 -233 -77 -4 -1 -7 29 -5 66 l3 66 215 73
c118 40 223 73 233 73 16 1 18 -7 15 -61z m1172 -78 c0 -38 -2 -70 -5 -70 -2
0 -97 -29 -209 -65 -112 -36 -207 -65 -210 -65 -3 0 -6 31 -6 70 l0 69 198 65
c108 35 205 65 215 65 15 1 17 -9 17 -69z m-2538 -75 c1 -69 2 -141 3 -162 l0
-36 -115 -39 c-63 -21 -123 -41 -132 -44 -17 -5 -18 7 -18 160 l0 165 123 40
c67 22 125 41 130 41 4 0 8 -56 9 -125z m1368 -70 l0 -124 -222 -72 c-123 -40
-229 -74 -236 -77 -10 -3 -12 22 -10 118 l3 123 220 77 c121 43 226 78 233 79
9 1 12 -30 12 -124z m-660 10 c0 -30 0 -58 0 -62 0 -5 -109 -45 -243 -89 -133
-45 -250 -85 -259 -89 -16 -6 -18 0 -18 58 l0 65 93 31 c50 17 162 56 247 86
85 29 161 54 168 54 8 1 12 -16 12 -54z m1188 -66 l-3 -70 -132 -43 c-72 -24
-143 -46 -157 -50 l-26 -6 0 68 0 67 153 52 c83 28 156 52 160 52 4 1 7 -31 5
-70z m-1178 -158 l0 -120 -222 -71 c-123 -39 -240 -77 -261 -85 -48 -18 -49
-17 -45 115 l3 103 255 88 c140 48 258 88 263 88 4 1 7 -53 7 -118z m650 -11
l0 -69 -227 -74 -228 -74 -6 26 c-4 14 -7 45 -8 68 l-1 42 228 75 c125 41 230
75 235 75 4 1 7 -30 7 -69z m-1360 -9 l0 -59 -117 -40 c-65 -22 -126 -44 -135
-47 -16 -6 -18 0 -18 58 l0 65 118 40 c157 54 152 55 152 -17z m-2 -213 l-3
-111 -115 -39 c-63 -21 -123 -41 -132 -44 -16 -5 -18 4 -18 104 l0 109 128 46
c70 25 131 46 135 46 4 1 6 -49 5 -111z m712 12 l0 -69 -97 -30 c-54 -17 -171
-55 -260 -85 l-163 -54 0 72 0 71 253 82 c138 45 255 82 260 82 4 1 7 -30 7
-69z m-712 -227 l-3 -66 -115 -39 c-63 -21 -123 -41 -132 -44 -16 -5 -18 2
-18 63 l0 68 128 42 c70 22 131 41 135 42 4 0 7 -29 5 -66z"/>
<path d="M11888 7193 c-127 -246 -159 -385 -162 -685 0 -102 2 -189 5 -193 6
-5 615 138 625 147 2 3 -11 61 -29 129 -19 68 -49 183 -67 254 -44 178 -89
267 -195 393 -48 56 -90 102 -94 102 -4 0 -41 -66 -83 -147z m134 22 c94 -106
141 -214 213 -498 30 -116 53 -212 52 -212 -1 -1 -114 -31 -251 -67 l-249 -65
7 143 c11 256 44 445 101 588 32 80 75 158 84 154 4 -2 23 -21 43 -43z"/>
<path d="M1947 3938 c-114 -212 -155 -315 -182 -463 -18 -102 -31 -440 -19
-470 9 -20 16 -19 322 55 292 70 313 76 307 95 -3 11 -34 132 -69 268 -43 169
-75 271 -99 321 -29 57 -122 179 -207 269 -4 5 -28 -29 -53 -75z m152 -120
c22 -33 53 -92 70 -133 31 -74 145 -494 137 -503 -9 -8 -489 -132 -494 -127
-9 9 18 359 34 457 23 133 59 250 106 345 l42 84 33 -33 c18 -17 51 -58 72
-90z"/>
</g>
</svg>
