<?xml version="1.0" standalone="no"?>
<!DOCTYPE svg PUBLIC "-//W3C//DTD SVG 20010904//EN"
 "http://www.w3.org/TR/2001/REC-SVG-20010904/DTD/svg10.dtd">
<svg version="1.0" xmlns="http://www.w3.org/2000/svg"
 width="1280.000000pt" height="1162.000000pt" viewBox="0 0 1280.000000 1162.000000"
 preserveAspectRatio="xMidYMid meet">
<metadata>
Created by potrace 1.15, written by Peter Selinger 2001-2017
</metadata>
<g transform="translate(0.000000,1162.000000) scale(0.100000,-0.100000)"
fill="#000000" stroke="none">
<path d="M6467 11552 c-142 -63 -149 -67 -144 -91 3 -14 9 -53 12 -86 l7 -60
-56 -27 c-31 -16 -58 -28 -61 -28 -2 0 -5 21 -7 47 l-3 48 -73 27 -72 28 -160
-67 -160 -67 7 -55 c15 -118 15 -120 -49 -146 l-58 -24 0 22 c-1 15 -23 39
-72 77 -39 30 -76 54 -82 52 -6 -1 -100 -35 -208 -75 l-198 -72 0 -587 0 -586
-46 -18 -47 -18 5 -127 c5 -110 3 -129 -10 -134 -9 -3 -81 23 -163 60 l-148
66 -262 -90 c-144 -50 -263 -92 -264 -93 -1 -2 3 -59 10 -128 7 -69 11 -127 9
-128 -1 -2 -77 13 -168 34 l-165 37 -158 -47 c-87 -26 -202 -61 -256 -78 l-99
-30 3 -127 c2 -100 0 -125 -11 -123 -7 2 -86 32 -175 67 l-162 63 -247 -106
-246 -106 0 -128 0 -129 -37 7 c-21 4 -104 19 -185 34 l-147 27 -98 -48 c-54
-27 -134 -65 -179 -85 l-81 -36 -113 81 c-68 49 -120 79 -129 76 -9 -3 -77
-31 -151 -64 -152 -66 -142 -52 -126 -176 l8 -60 -56 -27 c-31 -16 -59 -28
-61 -28 -3 0 -5 20 -5 44 0 24 -6 48 -13 53 -6 6 -42 20 -78 32 l-66 22 -157
-67 -158 -67 6 -31 c3 -17 8 -56 11 -87 l7 -56 -52 -21 c-64 -27 -70 -27 -70
-4 0 19 -133 128 -153 126 -7 -1 -102 -34 -211 -75 l-199 -73 6 -1080 c4 -593
7 -1422 7 -1840 l1 -761 649 -482 649 -482 138 62 c76 34 141 65 144 70 3 5
680 -470 1503 -1054 l1496 -1063 0 -251 0 -251 645 -479 c355 -264 649 -480
654 -480 5 0 362 160 794 355 l786 355 3 179 3 179 512 203 512 204 72 -25
c40 -14 82 -25 93 -25 12 0 359 137 771 303 l750 303 3 56 3 57 407 162 c224
89 414 164 423 166 8 3 51 -22 95 -54 43 -33 84 -62 90 -65 5 -4 365 154 800
351 l789 357 -3 325 c-1 178 -7 605 -12 949 -5 344 -14 949 -20 1345 -6 396
-13 820 -16 941 l-6 222 -174 66 -174 66 -93 -44 -93 -43 -42 20 -42 21 6 100
6 101 -143 90 c-78 50 -146 91 -150 93 -3 2 -39 -16 -78 -40 -61 -36 -71 -47
-68 -66 3 -14 0 -21 -7 -19 -6 2 -15 49 -21 110 l-10 105 -108 77 -108 76
-154 -67 c-138 -59 -154 -69 -150 -88 9 -38 25 -150 22 -153 -2 -1 -29 -14
-60 -27 l-56 -25 -7 48 -6 49 -72 25 c-39 14 -82 23 -96 21 -20 -4 -67 22
-223 125 l-198 131 -82 -59 -82 -59 -6 91 c-4 51 -7 160 -8 244 l-1 151 -205
132 -205 131 -110 -75 c-80 -54 -110 -70 -110 -58 0 9 -5 82 -10 161 -7 120
-12 145 -27 156 -10 7 -110 85 -223 173 l-204 161 -102 -52 -102 -53 -6 66
c-3 36 -6 90 -6 121 l0 57 -245 150 -246 151 -81 -35 c-72 -30 -85 -33 -110
-23 -26 11 -28 15 -29 78 -1 36 -4 117 -8 180 l-6 115 -135 83 -135 83 -7 83
c-4 45 -10 323 -14 617 l-6 536 -179 67 -180 67 -87 -44 -87 -43 -44 18 -43
19 3 102 4 102 -147 93 -147 93 -70 -41 c-63 -36 -71 -44 -71 -71 0 -26 -2
-29 -15 -18 -11 10 -15 36 -15 111 l0 98 -106 76 c-58 42 -111 78 -118 80 -6
2 -78 -26 -159 -63z m254 -22 c52 -39 95 -74 96 -78 2 -4 -23 -22 -54 -40
l-56 -33 -54 53 -53 52 -67 -36 -68 -37 -58 32 -59 31 84 38 c45 21 106 49
133 62 28 14 53 25 56 25 3 1 48 -31 100 -69z m-121 -705 l1 -330 -74 -29 -75
-28 -61 41 -61 42 -96 -52 c-77 -42 -95 -55 -91 -70 6 -22 -11 -25 -36 -6 -13
10 -17 33 -19 122 l-3 110 -135 67 c-74 36 -145 67 -157 67 -12 1 -59 -12
-105 -29 -45 -16 -83 -30 -85 -30 -2 0 -3 24 -4 53 -1 116 -6 125 -96 181 -45
28 -82 55 -83 60 -1 5 44 26 99 46 l101 37 1 -76 c0 -42 4 -95 7 -118 l7 -42
170 75 c94 42 172 78 174 80 2 2 -3 48 -12 101 -9 53 -15 98 -14 99 15 13 231
114 235 110 3 -3 10 -51 15 -106 6 -55 14 -100 19 -100 5 0 69 25 143 56 105
44 134 60 131 73 -14 48 -27 166 -20 168 5 2 32 17 59 33 l50 29 6 -152 c4
-84 7 -300 9 -482z m-195 600 c50 -29 51 -31 60 -119 l8 -68 -51 37 c-47 36
-51 42 -61 100 -16 90 -18 87 44 50z m279 -99 c3 -28 6 -73 6 -101 l1 -50 107
-72 c60 -40 110 -73 113 -73 2 0 3 48 1 107 l-4 107 23 -15 c13 -9 61 -39 107
-69 l83 -53 -2 -100 -2 -100 89 -54 c83 -49 110 -73 85 -73 -7 0 -11 -31 -11
-85 0 -61 -3 -85 -12 -85 -7 0 -60 13 -118 30 -58 16 -114 30 -125 30 -11 0
-77 -23 -147 -51 l-126 -51 -7 -73 -7 -74 -53 37 -53 37 -6 200 c-3 110 -7
325 -9 478 l-2 278 31 -37 c23 -27 33 -51 38 -88z m146 85 c0 -10 3 -45 6 -77
l6 -59 -60 -32 c-33 -18 -62 -33 -66 -33 -3 0 -6 35 -6 78 l1 77 52 32 c61 38
67 39 67 14z m-693 -42 l57 -22 -139 -69 -139 -70 -58 28 c-32 15 -58 30 -58
33 1 7 250 120 267 120 7 1 38 -9 70 -20z m1010 -86 c65 -42 122 -80 127 -84
10 -9 -120 -72 -139 -67 -18 5 -235 142 -235 150 0 5 116 76 127 78 1 0 55
-34 120 -77z m-735 -24 c26 -17 48 -32 48 -34 0 -4 -215 -95 -224 -95 -3 0 -6
25 -6 55 l0 55 53 24 c68 32 72 31 129 -5z m456 -29 c21 -17 23 -26 20 -90
l-3 -71 -78 58 -77 57 52 33 c29 18 55 33 58 32 3 0 15 -8 28 -19z m-1003 -23
c60 -32 60 -32 73 -95 8 -35 12 -65 9 -68 -3 -4 -135 51 -144 60 -2 2 -7 33
-11 70 -6 45 -5 66 2 66 6 0 38 -15 71 -33z m-304 -64 c26 -21 48 -40 49 -44
0 -3 -57 -26 -127 -51 l-127 -45 88 -59 88 -58 -86 -20 -85 -19 -120 89 c-66
49 -120 91 -121 94 0 6 360 148 378 149 8 1 36 -16 63 -36z m1733 -60 l-7 -90
-73 -36 -74 -37 0 93 0 93 78 35 c42 20 78 35 80 34 1 -1 -1 -42 -4 -92z
m-1410 -36 l68 -32 -130 -58 c-72 -31 -138 -60 -146 -63 -14 -5 -16 4 -16 60
l0 67 63 29 c34 17 69 30 77 29 8 0 46 -15 84 -32z m1864 -94 l164 -67 -165
-82 -165 -83 -109 20 c-59 11 -115 23 -123 25 -8 3 26 21 77 41 51 20 90 39
88 43 -3 5 -34 19 -70 32 -36 12 -65 25 -65 28 0 5 190 109 200 110 2 0 78
-30 168 -67z m-2471 -86 l52 -41 -6 -106 -6 -106 133 -82 c73 -45 135 -81 137
-79 2 2 7 45 12 96 5 50 10 93 12 96 2 2 57 -28 122 -66 l118 -70 -8 -62 c-4
-34 -8 -82 -8 -106 l0 -44 159 -73 c88 -41 161 -72 163 -70 3 2 7 54 10 115 3
61 8 111 11 111 2 0 56 -28 119 -62 l115 -63 -6 -130 c-3 -71 -9 -503 -12
-960 -3 -456 -9 -855 -13 -886 l-6 -57 -106 68 -106 68 -194 -47 -194 -47 -3
836 -2 835 -190 41 -190 40 -131 -58 c-72 -32 -133 -58 -135 -58 -2 0 -4 246
-4 546 l0 546 53 -42 c28 -23 75 -61 104 -83z m2063 84 l24 -19 -27 -13 c-23
-11 -27 -18 -27 -56 0 -25 -4 -43 -8 -41 -5 2 -38 21 -75 43 l-68 39 63 33
c74 38 85 39 118 14z m66 -77 c27 -9 53 -20 57 -24 5 -4 -15 -16 -45 -25 -29
-10 -59 -20 -65 -23 -9 -3 -13 9 -13 42 0 25 4 46 8 46 5 0 31 -7 58 -16z
m-1832 -85 c4 -39 6 -73 4 -75 -2 -2 -55 -21 -117 -42 l-113 -39 7 91 c4 50 8
92 9 93 1 1 177 39 197 42 4 1 10 -31 13 -70z m2316 -518 c6 -304 9 -555 7
-557 -2 -3 -17 3 -33 12 -29 16 -38 15 -290 -40 -144 -31 -264 -56 -267 -56
-4 0 -8 -448 -9 -995 l-3 -994 -433 272 -433 272 7 1040 c3 572 9 1043 13
1046 3 4 63 25 132 46 l127 40 7 -99 c3 -54 8 -98 10 -98 2 0 79 33 172 74
l168 73 -1 39 c0 22 -2 57 -5 79 l-4 40 115 47 115 46 7 -100 c5 -56 10 -103
12 -105 2 -3 70 27 150 66 l146 70 0 98 0 98 138 71 c75 40 138 71 138 70 1 0
7 -250 14 -555z m-437 454 l117 -27 0 -84 0 -84 -27 6 c-121 30 -227 64 -234
76 -5 7 -9 44 -9 81 0 60 2 68 18 63 9 -2 70 -17 135 -31z m-1534 -41 c69 -31
129 -60 134 -64 7 -6 -156 -83 -178 -83 -14 0 -258 144 -252 149 3 3 149 50
166 53 1 1 60 -24 130 -55z m-344 -91 c-4 -54 -8 -99 -10 -101 -4 -4 -204 113
-205 120 0 6 191 75 213 77 5 1 6 -43 2 -96z m1579 27 c59 -16 110 -30 111
-32 2 -2 -50 -26 -114 -54 l-117 -51 -95 37 c-52 20 -103 40 -114 44 -16 6 0
15 75 46 52 21 106 38 120 39 14 0 74 -12 134 -29z m-1098 -221 c-13 -10 -196
-72 -201 -68 -4 4 12 160 17 164 2 2 44 23 93 48 l90 45 5 -92 c3 -50 1 -94
-4 -97z m1403 140 l114 -33 -121 -60 c-67 -33 -123 -58 -125 -56 -2 3 -7 47
-10 98 -5 84 -4 92 11 88 9 -3 68 -20 131 -37z m-554 -32 l120 -42 3 -69 c2
-53 0 -67 -10 -64 -7 3 -66 23 -130 44 l-118 38 0 68 c0 37 3 68 8 68 4 -1 61
-20 127 -43z m-495 -64 c19 -12 40 -23 46 -23 6 0 44 14 84 30 40 17 76 30 79
30 4 0 28 -18 54 -40 l48 -39 -33 -14 c-18 -8 -88 -35 -155 -61 l-122 -48 -68
38 c-37 20 -92 50 -122 67 l-53 30 78 42 c87 46 77 47 164 -12z m480 -89 c63
-20 119 -39 124 -42 5 -3 -35 -23 -90 -44 -54 -21 -116 -45 -136 -53 l-38 -15
0 100 c0 75 3 98 13 95 6 -2 64 -20 127 -41z m-779 -1 c28 -17 29 -20 29 -90
0 -40 -2 -73 -4 -73 -7 0 -231 103 -239 110 -8 7 144 68 171 69 8 1 27 -7 43
-16z m-447 -425 l59 -13 -208 -86 -207 -86 -130 51 c-94 36 -124 52 -111 57
10 4 87 36 172 72 l154 64 106 -23 c58 -12 133 -29 165 -36z m69 -1669 c-5 -3
-172 -45 -373 -93 -201 -48 -376 -91 -390 -97 -14 -6 -480 -256 -1037 -557
l-1012 -546 4 -60 c9 -115 28 -1087 22 -1092 -3 -4 -21 3 -40 15 l-34 21 -7
377 c-4 208 -11 605 -16 883 -5 278 -10 580 -10 671 l0 165 -179 68 -179 67
-88 -44 -89 -44 -44 21 -44 21 6 100 6 100 -95 59 c-52 32 -94 62 -94 65 0 4
96 47 212 97 l213 91 7 -156 c4 -86 9 -163 10 -172 2 -12 41 0 195 65 l192 80
-7 110 c-4 61 -7 135 -7 164 l0 53 220 95 c121 53 225 98 231 100 8 4 15 -49
24 -169 l13 -175 106 48 c58 26 165 73 236 105 72 32 133 61 136 64 3 3 -1 75
-10 159 -9 84 -13 156 -8 159 17 11 371 162 374 160 1 -2 5 -75 9 -162 4 -88
10 -169 13 -181 6 -19 19 -14 209 76 111 53 204 99 207 101 2 3 -4 81 -15 174
-11 93 -18 171 -16 173 2 1 93 32 202 67 133 43 202 61 209 54 5 -5 12 -74 15
-152 4 -119 7 -141 20 -139 24 5 314 115 323 122 4 4 1 82 -7 175 -8 93 -13
171 -10 174 2 3 93 42 202 86 l197 82 3 -811 c1 -445 -1 -813 -5 -817z m-533
1500 c41 -17 79 -34 84 -39 7 -7 35 -226 36 -281 0 -13 -33 1 -137 56 l-138
72 -7 64 c-3 35 -8 94 -11 131 l-5 67 52 -20 c28 -11 85 -34 126 -50z m2805
-155 c97 -59 173 -110 168 -114 -18 -15 -444 -162 -457 -157 -18 7 -370 267
-374 276 -2 6 430 97 475 100 6 1 91 -47 188 -105z m-3180 21 c72 -30 128 -55
125 -55 -3 0 -92 -29 -199 -65 l-194 -64 -169 42 c-92 23 -168 44 -168 47 1 7
431 148 455 149 11 0 79 -24 150 -54z m2679 -182 c198 -143 207 -151 201 -177
-2 -12 -6 -96 -10 -187 l-6 -166 208 -166 c114 -92 208 -165 210 -163 2 1 -1
88 -6 192 -6 103 -9 189 -8 190 1 1 84 -55 183 -124 l181 -127 7 -89 c3 -49 6
-137 7 -195 l0 -106 152 -121 c84 -67 153 -118 155 -114 2 5 -1 89 -7 187 -5
98 -9 178 -8 179 1 1 95 -67 210 -152 l207 -155 0 -174 0 -173 151 -112 c83
-61 154 -109 157 -106 3 3 7 73 10 155 l5 150 174 -132 173 -132 -7 -140 c-4
-77 -8 -160 -8 -184 l0 -44 152 -81 c84 -45 153 -83 153 -86 0 -5 -46 -24
-174 -71 l-59 -22 7 -536 c3 -295 9 -621 13 -724 l6 -189 -56 32 -55 31 -119
-46 c-65 -25 -121 -45 -124 -45 -3 0 -9 154 -13 343 -6 242 -11 344 -19 349
-7 3 -507 321 -1112 705 l-1100 698 0 973 c-1 534 1 972 3 972 3 0 77 -52 166
-117z m-2201 -42 c4 -4 -50 -33 -120 -64 l-128 -56 -6 57 c-4 31 -7 90 -8 130
l-1 74 128 -67 c70 -37 131 -70 135 -74z m-908 39 l150 -35 16 -145 c9 -80 16
-146 15 -147 -1 -1 -82 33 -181 76 l-180 77 -12 79 c-6 44 -12 95 -12 113 -1
30 1 32 27 25 15 -3 95 -23 177 -43z m3803 -139 c6 -80 10 -146 9 -146 -2 -2
-437 -169 -469 -180 -15 -6 -16 7 -11 152 3 87 7 159 8 161 9 10 441 169 446
163 3 -3 11 -71 17 -150z m-4207 -16 c73 -20 134 -37 136 -39 2 -1 -76 -38
-172 -81 l-176 -78 -189 49 c-105 26 -187 51 -182 55 10 10 403 128 429 128
12 1 81 -15 154 -34z m392 -110 c87 -35 164 -68 173 -73 17 -10 -44 -46 -232
-140 l-82 -41 -6 52 c-9 87 -19 267 -14 267 3 0 75 -29 161 -65z m4291 -150
c163 -101 204 -130 190 -136 -11 -4 -98 -39 -194 -78 -95 -39 -180 -71 -187
-71 -7 0 -94 59 -194 130 l-181 130 53 24 c30 13 108 49 174 79 66 30 122 54
125 52 3 -1 99 -60 214 -130z m-5096 78 c103 -25 188 -47 190 -49 5 -3 31
-268 27 -272 -2 -2 -101 19 -219 48 l-216 52 0 112 c0 115 6 156 21 156 5 0
94 -21 197 -47z m4662 7 c14 -9 -4 -19 -122 -67 -21 -8 -39 -20 -39 -27 -1 -6
-4 -88 -8 -182 l-6 -171 -162 126 c-89 69 -162 128 -162 131 -1 4 463 197 479
199 3 0 12 -3 20 -9z m-5102 -137 c72 -31 132 -58 132 -62 0 -3 -69 -35 -153
-70 -83 -35 -184 -77 -223 -94 l-70 -29 -137 63 c-75 35 -137 66 -137 69 0 10
425 188 440 183 8 -2 75 -29 148 -60z m5791 -273 l1 -85 -95 -48 c-71 -35 -95
-52 -95 -66 0 -14 -29 -35 -114 -80 -63 -34 -117 -61 -120 -61 -4 0 -5 79 -4
176 l3 175 205 84 205 83 7 -47 c3 -25 7 -84 7 -131z m-5381 114 c103 -25 194
-48 202 -50 11 -4 -305 -148 -370 -169 -16 -5 -18 6 -24 112 -4 65 -10 126
-12 136 -3 9 0 17 6 17 5 0 95 -21 198 -46z m-874 -61 l134 -67 6 -68 c3 -37
9 -100 12 -139 l6 -71 -43 26 c-24 14 -92 54 -151 88 l-107 63 -3 117 c-2 65
0 118 4 118 4 0 68 -30 142 -67z m6696 -198 c104 -83 189 -152 189 -155 0 -3
-72 -50 -161 -105 -88 -55 -171 -106 -182 -114 -21 -12 -36 -2 -234 152 l-212
166 102 54 c57 30 146 77 198 105 52 28 99 50 104 48 4 -1 93 -69 196 -151z
m-7731 10 c50 -37 91 -68 91 -70 0 -2 -26 -20 -57 -39 l-57 -36 -53 52 -54 53
-65 -34 -66 -34 -60 29 -60 30 133 62 c74 34 139 60 145 58 6 -3 52 -34 103
-71z m649 39 c73 -15 129 -31 125 -35 -4 -3 -98 -48 -208 -99 l-200 -93 -38
22 -38 22 -70 -41 c-55 -33 -69 -46 -69 -65 0 -18 -4 -23 -15 -19 -12 5 -15
24 -15 85 l0 79 178 90 c100 51 186 88 197 86 11 -3 80 -17 153 -32z m530
-219 c1 -1 -64 -32 -145 -68 -81 -36 -148 -65 -149 -64 -1 1 -5 71 -8 154 l-7
153 153 -86 c84 -47 154 -87 156 -89z m-1460 59 c6 -4 23 -146 18 -151 -2 -3
-25 10 -49 29 -41 30 -46 38 -56 94 -6 33 -11 66 -11 72 0 8 70 -23 98 -44z
m153 -568 l4 -338 -78 -29 -78 -29 -60 41 -60 40 -92 -48 c-74 -40 -92 -53
-91 -71 1 -24 -8 -27 -37 -12 -15 9 -19 22 -19 64 0 29 -3 81 -7 116 l-6 63
-144 68 -144 68 -81 -29 c-45 -17 -88 -30 -95 -30 -8 0 -13 13 -13 38 0 20 -3
60 -6 87 l-6 50 -90 54 c-49 30 -85 57 -81 62 4 4 44 21 88 37 44 16 88 33 98
37 15 7 17 -2 17 -91 0 -159 -16 -154 183 -66 95 42 174 77 176 79 2 2 -3 47
-12 100 -9 53 -15 98 -14 99 15 13 231 114 234 110 3 -3 10 -49 16 -103 5 -54
11 -99 12 -101 2 -3 277 106 281 111 1 1 -4 36 -12 77 -19 108 -20 104 44 138
l57 31 6 -142 c4 -78 8 -294 10 -481z m52 577 c21 -32 26 -55 32 -136 l7 -98
104 -72 c58 -40 108 -73 112 -75 4 -1 6 45 4 103 -3 58 -2 105 1 105 4 0 52
-30 107 -66 l102 -65 -3 -100 -3 -100 99 -59 c73 -44 95 -61 82 -66 -14 -5
-17 -20 -17 -90 0 -46 -3 -84 -8 -84 -4 0 -62 15 -130 34 l-123 33 -132 -51
c-145 -57 -144 -56 -146 -151 l-1 -49 -38 37 c-21 20 -45 37 -53 37 -13 0 -17
24 -22 152 -7 158 -10 798 -3 798 2 0 15 -17 29 -37z m183 -128 c-4 -12 -115
-79 -121 -73 -2 2 -5 36 -6 77 l-2 73 59 38 59 38 8 -71 c4 -38 6 -75 3 -82z
m-715 90 c24 -9 51 -18 59 -21 9 -4 -39 -33 -124 -76 l-140 -70 -58 28 c-31
16 -57 31 -58 34 0 8 242 118 261 119 9 1 36 -6 60 -14z m7714 -87 c4 -57 5
-119 3 -139 l-3 -37 -113 90 c-63 49 -112 92 -110 94 6 5 202 93 210 93 3 1 9
-45 13 -101z m-6680 -9 c70 -45 123 -85 118 -89 -20 -17 -136 -59 -146 -54 -7
4 -63 39 -125 77 l-112 71 62 37 c35 21 66 38 70 38 4 1 64 -36 133 -80z
m7519 -11 c3 -35 8 -103 11 -153 l6 -90 -66 -50 c-57 -43 -66 -53 -62 -75 5
-24 -1 -27 -126 -76 l-132 -51 -8 91 c-4 50 -6 125 -5 166 l3 74 180 113 c99
61 183 112 187 112 3 1 9 -27 12 -61z m-8219 -38 c4 -6 -216 -103 -220 -98 -1
2 -5 26 -7 55 l-5 52 65 29 65 29 49 -30 c27 -17 51 -33 53 -37z m6420 -980
c887 -564 1612 -1026 1610 -1028 -1 -1 -220 4 -486 12 -266 8 -758 23 -1094
32 l-610 18 -1102 865 c-606 476 -1097 868 -1090 871 44 16 1108 258 1130 257
19 -1 574 -349 1642 -1027z m-6938 870 c7 -30 12 -60 10 -67 -1 -7 -27 -1 -74
20 l-72 31 -6 45 c-4 26 -9 59 -12 75 l-5 28 73 -38 c74 -39 74 -39 86 -94z
m931 110 c21 -17 23 -26 20 -90 l-3 -71 -74 55 c-41 31 -76 58 -78 60 -5 4 96
66 107 66 3 -1 15 -9 28 -20z m-1258 -130 c0 -3 -56 -25 -125 -49 -69 -24
-125 -44 -125 -46 0 -1 36 -26 80 -55 44 -29 80 -56 80 -59 0 -4 -36 -14 -80
-24 l-80 -17 -120 88 c-65 48 -119 90 -119 93 -1 3 86 40 191 81 l193 75 52
-41 c29 -22 53 -43 53 -46z m1682 -15 l-7 -89 -73 -38 -73 -37 3 95 3 95 75
34 c41 19 76 33 77 31 2 -1 0 -43 -5 -91z m7886 -80 c63 -42 110 -81 105 -85
-4 -4 -83 -69 -175 -144 l-167 -137 -180 128 c-99 70 -179 131 -178 135 1 3
83 65 182 136 l180 130 60 -42 c33 -24 111 -78 173 -121z m-9273 35 l50 -21
-125 -56 c-69 -30 -135 -59 -147 -64 -22 -8 -23 -7 -23 59 l0 67 68 31 c73 33
60 34 177 -16z m1837 -82 c87 -35 158 -65 158 -68 0 -3 -71 -42 -157 -87
l-158 -81 -118 23 c-65 13 -121 25 -123 28 -3 2 36 20 86 38 49 18 90 36 90
39 0 4 -29 17 -65 29 -36 13 -67 26 -69 30 -5 7 171 110 189 111 6 0 81 -28
167 -62z m3461 -857 c1030 -813 1067 -844 1054 -865 -20 -30 -802 -1307 -815
-1331 -9 -17 -11 -9 -12 42 l0 61 -114 82 -115 81 -148 -65 -148 -64 3 -62 3
-62 -73 51 c-1167 822 -2758 1947 -2758 1951 0 3 444 249 987 547 l987 542 41
-33 c22 -18 521 -412 1108 -875z m-5961 795 l85 -69 -5 -106 -5 -106 134 -82
134 -83 7 38 c4 20 7 65 7 100 1 34 4 62 8 62 5 0 224 -123 241 -136 2 -1 -3
-48 -11 -103 -9 -72 -10 -104 -3 -109 6 -4 81 -39 166 -79 l155 -72 9 118 8
118 117 -64 116 -64 -2 -212 c-7 -544 -24 -2108 -29 -2702 -4 -363 -9 -701
-13 -751 l-6 -92 -580 450 c-319 247 -590 457 -603 466 l-23 17 -9 1285 c-5
707 -12 1507 -15 1778 -5 481 -5 493 13 480 10 -7 57 -44 104 -82z m2097 58
l24 -17 -24 -13 c-18 -9 -25 -23 -29 -58 l-5 -46 -75 45 -74 44 64 30 c77 35
88 36 119 15z m131 -104 c0 -3 -29 -15 -65 -27 l-65 -21 0 47 0 47 65 -20 c35
-12 65 -23 65 -26z m7859 -205 l9 -220 -52 -47 c-43 -40 -66 -52 -151 -79 -55
-17 -120 -37 -144 -44 l-43 -15 7 113 c4 61 10 142 14 178 l6 67 170 141 c93
78 171 138 172 134 2 -4 7 -107 12 -228z m-9759 186 c0 -15 3 -48 6 -72 l6
-44 -112 -39 c-61 -21 -114 -36 -117 -33 -2 3 -2 44 2 91 l7 85 77 16 c42 9
81 18 86 20 32 11 45 4 45 -24z m8988 -102 c-4 -61 -9 -113 -12 -116 -2 -3
-50 28 -106 67 l-101 72 103 43 c57 23 108 43 113 44 7 1 8 -37 3 -110z
m-6668 -359 c20 -840 30 -1187 36 -1364 l6 -178 -42 25 -43 25 -84 -35 c-75
-32 -87 -34 -109 -23 -19 11 -24 22 -25 54 -1 23 -4 104 -8 180 l-6 139 -190
118 c-104 65 -197 118 -206 119 -15 0 -521 -109 -526 -114 -2 -2 -3 -613 -3
-1358 0 -1069 -3 -1358 -13 -1365 -11 -9 -235 -113 -243 -113 -6 0 -4 1744 3
2807 l6 990 131 40 131 39 9 -97 8 -98 32 13 c17 7 96 41 174 76 l144 63 -7
65 c-4 36 -9 71 -11 77 -3 7 39 29 103 54 59 24 113 45 119 48 7 2 13 -30 17
-98 4 -56 8 -103 10 -106 2 -2 70 29 151 68 l146 71 0 99 0 99 138 69 c77 39
138 64 139 57 1 -6 7 -207 13 -446z m-469 365 c63 -14 122 -28 132 -31 14 -5
17 -18 17 -89 l0 -83 -125 33 c-68 18 -129 36 -135 40 -9 5 -15 155 -6 155 2
0 55 -11 117 -25z m-1501 -50 c67 -31 127 -58 132 -61 10 -6 -156 -84 -178
-84 -6 0 -68 33 -138 74 l-127 74 73 21 c40 12 78 24 83 26 22 8 36 3 155 -50z
m-346 -92 c-4 -54 -7 -99 -9 -100 -1 -2 -48 25 -104 58 -57 33 -101 62 -99 65
7 6 192 73 206 73 11 1 12 -19 6 -96z m1574 31 c61 -16 112 -32 112 -35 0 -7
-213 -99 -229 -99 -18 0 -225 84 -216 87 6 2 53 21 105 42 52 22 100 38 105
36 6 -1 61 -15 123 -31z m-1095 -224 c-10 -9 -195 -71 -200 -67 -3 4 14 157
18 161 2 2 45 24 94 49 l90 45 3 -91 c1 -49 -1 -93 -5 -97z m1393 145 c65 -19
120 -35 123 -35 2 0 -51 -27 -119 -60 -67 -34 -124 -59 -125 -58 -7 9 -13 188
-6 188 4 0 61 -16 127 -35z m-416 -146 l0 -66 -130 41 -130 41 0 71 0 71 130
-46 130 -46 0 -66z m8682 4 c98 -65 178 -120 178 -123 0 -3 -51 -26 -113 -52
l-112 -46 2 -64 c1 -34 4 -75 7 -89 4 -21 0 -29 -19 -37 -22 -10 -38 1 -210
150 -102 89 -184 166 -182 171 2 8 257 205 267 206 2 1 84 -52 182 -116z
m-9303 44 l43 -29 95 37 95 37 44 -43 c24 -24 41 -46 36 -49 -4 -4 -75 -32
-158 -63 l-152 -56 -121 66 c-67 36 -120 67 -117 70 2 3 37 22 77 43 81 42 77
43 158 -13z m10223 -21 l98 -73 -58 -36 -57 -36 -35 32 c-83 76 -71 74 -144
36 l-65 -34 -57 28 c-31 15 -53 31 -50 35 10 9 248 120 261 121 6 0 54 -33
107 -73z m-9717 -77 c99 -34 107 -38 85 -48 -14 -6 -76 -30 -137 -55 l-113
-44 0 99 0 99 28 -6 c15 -4 76 -24 137 -45z m-805 6 c29 -15 30 -18 30 -91 0
-42 -4 -74 -9 -72 -58 22 -240 113 -235 117 9 9 147 58 167 60 10 0 31 -6 47
-14z m10392 -355 c2 -198 3 -417 3 -486 l0 -127 -75 -23 -74 -24 -62 41 -62
40 -95 -51 c-79 -42 -94 -54 -90 -70 6 -23 3 -24 -31 -9 -25 12 -25 15 -28
126 l-3 113 -144 69 -145 69 -92 -32 -92 -32 -6 35 c-3 20 -6 59 -6 88 l0 52
-94 58 c-69 42 -91 60 -80 66 32 18 193 74 199 69 3 -3 5 -57 5 -120 0 -87 3
-113 13 -109 82 35 334 150 339 155 3 4 0 41 -7 82 -23 124 -29 113 95 175 60
30 114 55 118 55 5 0 14 -45 20 -101 6 -56 13 -103 15 -106 5 -4 264 100 274
111 3 2 0 38 -7 78 -6 40 -12 79 -13 87 -2 12 95 80 116 81 4 0 8 -162 9 -360z
m-188 325 c43 -25 43 -26 54 -102 6 -43 10 -79 9 -80 -2 -1 -25 15 -52 36 -48
36 -50 41 -61 105 -6 38 -7 66 -2 66 5 0 29 -11 52 -25z m276 -149 l0 -94 103
-69 c56 -38 108 -73 115 -77 11 -7 13 13 10 98 -2 68 1 105 7 102 6 -2 52 -31
104 -65 l95 -61 -3 -99 -3 -99 96 -59 c94 -57 112 -73 80 -73 -14 0 -15 -10
-9 -85 5 -68 4 -85 -7 -85 -7 0 -62 14 -123 31 -60 17 -117 31 -125 32 -9 0
-75 -23 -148 -52 l-132 -53 0 -69 c0 -38 -4 -69 -8 -69 -5 0 -27 16 -49 35
-23 19 -48 35 -57 35 -14 0 -16 47 -16 473 l1 472 34 -37 c35 -37 35 -38 35
-132z m150 82 l0 -83 -57 -33 c-30 -18 -57 -31 -59 -30 -1 2 -6 37 -9 78 l-6
75 63 37 c35 20 64 37 66 38 1 0 2 -37 2 -82z m-705 10 l57 -21 -133 -68 -133
-67 -63 32 -64 32 133 56 c73 31 136 57 140 57 3 1 32 -9 63 -21z m-805 -92
l0 -105 -113 67 c-63 37 -114 72 -115 77 -1 9 173 62 211 64 15 1 17 -10 17
-103z m223 -66 c143 -125 162 -149 120 -150 -7 0 -13 6 -13 14 0 8 -33 42 -74
75 l-74 61 -81 -30 -81 -29 0 48 c0 26 3 76 6 110 8 74 -13 84 197 -99z m1610
67 l128 -84 -74 -32 -75 -33 -122 77 c-66 43 -119 80 -115 83 7 8 119 71 125
72 3 0 63 -38 133 -83z m-726 -30 l34 -20 -112 -48 c-62 -27 -114 -47 -116
-45 -2 2 -6 26 -10 53 l-5 50 63 30 c59 28 66 30 88 15 13 -8 40 -24 58 -35z
m430 -12 c16 -12 22 -30 28 -85 4 -39 5 -74 2 -76 -5 -5 -157 103 -157 111 0
5 92 65 100 65 3 0 15 -7 27 -15z m-1004 -26 c34 -17 64 -33 66 -35 5 -4 30
-128 27 -132 -2 -1 -38 13 -80 32 -56 26 -76 40 -76 54 0 11 -3 40 -6 66 -4
25 -4 46 0 46 4 0 35 -14 69 -31z m-292 -69 l50 -39 -33 -14 c-18 -7 -75 -28
-125 -46 -51 -18 -91 -37 -88 -41 2 -4 38 -29 80 -56 41 -27 75 -51 75 -54 0
-10 -162 -40 -174 -33 -6 4 -62 45 -124 92 l-114 85 164 63 c90 35 172 67 183
72 36 17 55 12 106 -29z m1724 -96 l-6 -50 -74 -37 -75 -37 1 43 c1 23 4 66 7
95 l7 54 70 32 70 32 3 -40 c2 -23 1 -64 -3 -92z m-1409 6 c37 -17 65 -33 62
-35 -5 -5 -277 -125 -284 -125 -2 0 -4 30 -4 66 l0 65 63 29 c34 16 69 29 79
30 9 0 46 -14 84 -30z m1849 -88 c77 -32 149 -62 160 -66 16 -6 -14 -25 -143
-91 l-163 -84 -120 24 c-67 13 -122 25 -125 27 -2 2 39 20 90 38 52 19 93 37
91 40 -2 3 -33 16 -69 30 -36 13 -66 27 -66 30 0 8 181 109 195 110 6 0 73
-26 150 -58z m-8078 -1025 c749 -529 1363 -964 1363 -967 0 -5 -105 -60 -114
-60 -2 0 -6 22 -10 49 l-6 48 -73 27 -73 27 -158 -67 -158 -67 7 -56 c3 -31 8
-70 11 -87 5 -29 3 -31 -55 -56 l-61 -27 0 22 c-1 15 -24 40 -74 79 l-73 57
-206 -76 -207 -76 -1 -221 c-1 -146 -4 -204 -9 -171 -5 28 -9 136 -9 240 -1
105 -5 195 -9 201 -4 7 -96 69 -205 138 l-198 126 -105 -71 c-58 -39 -108 -68
-111 -65 -3 2 -9 71 -14 152 -7 121 -12 151 -26 165 -10 10 -110 90 -223 177
l-205 160 -99 -50 c-54 -27 -100 -47 -103 -44 -3 3 -8 57 -11 120 l-5 115
-123 76 c-68 41 -126 80 -129 85 -6 9 -34 898 -35 1073 l0 88 73 -51 c39 -28
685 -484 1434 -1013z m5670 783 l-5 -105 130 -80 c71 -44 133 -81 138 -83 4
-1 10 41 14 95 4 53 8 99 10 100 2 2 25 -9 52 -25 27 -15 81 -47 120 -69 l70
-42 -13 -102 c-7 -56 -12 -104 -10 -105 5 -5 328 -154 333 -154 2 0 4 52 4
115 0 68 4 115 10 115 5 0 59 -27 120 -61 l111 -61 -7 -1881 c-4 -1035 -8
-1884 -10 -1886 -4 -5 -82 41 -114 67 l-25 20 -3 1526 c-1 839 -6 1526 -10
1526 -4 0 -90 18 -192 40 l-184 39 -191 -84 -190 -83 -3 -126 c-1 -69 -7 -126
-11 -126 -5 0 -30 9 -55 20 l-46 19 0 73 0 73 -113 61 -112 62 -6 363 c-3 200
-7 514 -8 697 l-1 333 101 -83 102 -83 -6 -105z m2016 234 l32 -17 -32 -15
c-28 -13 -32 -21 -35 -58 l-3 -44 -69 44 -70 44 60 30 c69 36 75 37 117 16z
m127 -100 c10 -4 -3 -12 -35 -24 -104 -36 -95 -38 -95 19 l0 50 58 -20 c31
-10 64 -22 72 -25z m-1890 -68 l0 -74 -111 -37 c-60 -20 -112 -35 -114 -34 -4
5 13 170 18 175 5 6 166 42 190 43 15 1 17 -9 17 -73z m2320 -741 c6 -335 15
-810 20 -1055 10 -476 28 -1390 32 -1658 l3 -163 -758 -345 c-417 -191 -759
-345 -760 -343 -1 2 0 857 3 1899 l5 1894 115 37 c63 20 125 39 138 43 22 7
22 7 22 -94 0 -78 3 -101 13 -97 6 2 88 37 180 77 l169 73 -6 31 c-3 17 -8 51
-11 76 l-7 45 114 46 113 46 6 -26 c4 -14 7 -61 8 -103 0 -43 4 -78 9 -78 4 0
71 31 150 70 l142 69 0 98 0 98 138 70 137 71 7 -86 c3 -47 11 -359 18 -695z
m-437 680 l117 -27 0 -85 c0 -76 -2 -84 -17 -79 -10 3 -70 19 -133 36 -63 17
-115 32 -116 33 -1 1 -4 37 -8 81 -6 77 -6 78 17 73 12 -3 75 -17 140 -32z
m-1533 -42 c71 -32 130 -61 130 -64 0 -7 -164 -79 -181 -79 -13 0 -260 142
-256 147 5 4 151 51 164 52 7 1 71 -25 143 -56z m-350 -93 c0 -55 -3 -100 -6
-100 -11 0 -215 122 -211 126 5 5 198 72 210 73 4 1 7 -44 7 -99z m1571 34
c57 -15 107 -30 111 -34 8 -6 -206 -100 -227 -100 -14 0 -198 71 -208 80 -9 8
193 91 209 85 7 -2 58 -16 115 -31z m-1082 -155 c1 -55 -2 -68 -16 -74 -55
-22 -187 -64 -191 -61 -2 3 -1 40 3 84 l7 78 91 46 92 46 6 -27 c4 -14 7 -56
8 -92z m1312 95 c30 -8 85 -25 124 -36 l70 -20 -119 -60 c-65 -32 -121 -57
-124 -53 -7 7 -17 185 -10 185 2 0 29 -7 59 -16z m-346 -161 c4 -35 5 -66 3
-69 -3 -2 -63 16 -134 39 l-129 44 -3 70 -3 70 130 -44 129 -45 7 -65z m-9539
-9 c126 -77 172 -109 162 -115 -40 -22 -441 -160 -452 -156 -8 3 -98 68 -201
143 l-188 138 234 47 c129 26 242 47 251 48 9 0 96 -47 194 -105z m9042 55
c42 17 81 31 85 31 16 0 98 -73 90 -81 -4 -4 -73 -32 -152 -63 l-143 -55 -102
54 c-158 84 -153 76 -61 122 l79 40 63 -40 63 -39 78 31z m370 -97 c61 -20
112 -39 112 -42 0 -9 -251 -102 -258 -95 -4 4 -9 47 -11 97 l-3 90 23 -7 c13
-4 75 -23 137 -43z m-788 1 c30 -17 31 -20 26 -68 -3 -27 -6 -60 -6 -72 l0
-22 -62 28 c-35 16 -92 41 -128 58 l-64 29 84 31 c100 37 109 38 150 16z
m-9108 -135 l181 -131 -7 -192 -7 -192 207 -166 c115 -91 209 -165 210 -164 1
1 -2 87 -7 191 -5 104 -8 190 -7 192 2 1 85 -55 184 -124 l182 -127 7 -195 7
-196 151 -121 c84 -67 153 -120 155 -118 1 1 -2 84 -8 185 -6 101 -9 184 -8
186 2 1 97 -67 211 -153 l207 -155 0 -173 0 -173 151 -112 c83 -61 152 -110
154 -108 2 2 8 72 12 155 l8 151 172 -132 172 -131 -7 -125 c-4 -69 -7 -151
-7 -184 l0 -59 169 -103 c93 -57 170 -104 173 -104 2 0 1 60 -3 133 l-6 132
55 -55 55 -55 6 -1209 c6 -985 4 -1207 -6 -1199 -7 5 -673 479 -1480 1052
l-1468 1043 0 1334 c0 734 3 1334 6 1334 3 0 87 -59 186 -132z m5918 112 c157
-5 564 -19 905 -30 664 -22 839 -30 815 -38 -8 -3 -638 -293 -1400 -645 -762
-352 -1396 -644 -1410 -650 -22 -8 -34 -4 -84 28 l-58 37 -71 -44 c-60 -36
-71 -47 -69 -67 4 -27 -21 -25 -26 2 -2 10 191 335 429 723 l433 705 125 -6
c69 -3 254 -10 411 -15z m-5244 -232 c6 -79 9 -146 5 -150 -9 -10 -474 -188
-478 -184 -3 2 -1 74 3 160 l7 156 91 35 c259 99 351 133 355 129 2 -2 10 -68
17 -146z m7028 -65 c3 -120 9 -275 12 -344 l5 -127 -126 -48 -127 -49 6 -75
c4 -41 9 -100 12 -130 l6 -55 -108 -46 -108 -46 -139 85 -139 85 -132 -54
c-72 -29 -223 -92 -336 -139 l-205 -86 -7 -45 c-3 -24 -7 -92 -7 -150 l-1
-106 -181 -79 -180 -78 6 -117 c4 -64 5 -121 2 -126 -5 -8 -225 26 -333 52
-20 4 -22 14 -29 104 -7 95 -8 100 -34 110 -14 6 -92 35 -174 66 l-147 55 -90
-45 -90 -45 -44 22 -44 21 4 76 c3 42 6 86 8 99 3 19 -10 32 -77 74 l-80 52
49 21 c27 12 407 185 844 385 437 199 1020 465 1295 590 275 125 538 246 585
268 47 22 88 41 91 41 4 1 10 -97 13 -216z m-6557 -215 l214 -131 -183 -74
c-101 -40 -193 -76 -205 -79 -16 -4 -64 25 -203 125 l-182 131 108 50 c60 27
136 63 169 79 33 17 62 30 64 30 3 1 101 -58 218 -131z m-427 82 c12 -7 10
-11 -11 -18 -14 -6 -55 -24 -92 -40 l-67 -31 -2 -179 -3 -179 -162 126 c-89
69 -162 129 -163 132 0 4 462 195 480 198 3 0 12 -3 20 -9z m8298 -254 c84
-19 155 -36 157 -38 5 -4 -386 -168 -401 -168 -5 0 -65 22 -134 49 -113 45
-123 50 -100 59 14 6 90 38 170 71 80 33 147 60 150 60 3 1 74 -15 158 -33z
m-7609 -171 l1 -70 -95 -48 c-73 -36 -95 -52 -95 -67 0 -15 -26 -33 -112 -77
-62 -32 -116 -59 -121 -61 -4 -2 -6 76 -5 174 l3 178 205 82 205 82 6 -61 c4
-34 7 -94 8 -132z m6794 45 c71 -39 127 -74 125 -76 -2 -2 -114 -50 -248 -107
l-245 -104 -3 -85 -3 -86 -152 72 -152 73 -11 104 c-5 57 -7 108 -3 113 5 5
115 55 246 112 l238 103 40 -23 c22 -13 98 -56 168 -96z m1007 -517 c0 -318 3
-992 6 -1498 l7 -920 -424 -167 c-233 -92 -424 -166 -425 -165 -1 1 -5 669 -9
1483 l-8 1481 49 17 c26 9 51 16 55 16 3 0 10 -70 14 -155 4 -85 11 -155 16
-155 10 0 292 106 317 119 16 9 17 18 5 148 -6 76 -12 154 -12 173 l-1 36 198
81 c108 45 200 82 205 82 4 1 7 -259 7 -576z m-527 442 c38 -15 70 -33 73 -39
5 -16 32 -280 28 -285 -2 -2 -63 28 -136 67 -100 53 -134 76 -139 94 -3 12 -9
71 -13 131 l-7 107 63 -24 c35 -13 94 -36 131 -51z m-6840 -96 c103 -83 187
-155 187 -159 0 -4 -81 -58 -179 -119 l-179 -112 -211 163 c-115 90 -210 165
-210 168 0 5 388 208 399 209 3 1 90 -67 193 -150z m6499 -1459 c2 -841 3
-1583 3 -1647 l0 -117 -100 -43 c-55 -23 -106 -42 -112 -43 -10 0 -13 141 -13
673 0 371 -3 709 -7 752 l-6 77 -56 45 c-99 78 -242 136 -387 157 -35 5 -48 1
-87 -25 -110 -73 -215 -220 -312 -438 l-55 -122 -1 -547 c-1 -301 -5 -638 -8
-750 l-6 -203 -143 -59 c-78 -32 -150 -61 -160 -64 -21 -7 -17 -185 -42 2014
-6 487 -11 956 -13 1042 l-3 157 256 113 c140 62 257 113 260 113 3 0 11 -42
17 -94 7 -52 15 -96 17 -98 2 -2 108 48 235 111 l231 116 0 94 c0 65 4 97 13
103 18 11 461 212 470 212 4 1 8 -687 9 -1529z m97 1379 c10 -2 -42 -17 -61
-18 -13 -1 -18 6 -18 24 0 25 0 25 36 10 20 -8 39 -15 43 -16z m-4046 -93 l98
-74 -58 -35 -58 -36 -53 52 -53 52 -68 -36 -67 -36 -58 29 c-32 16 -56 31 -54
33 6 6 262 125 268 125 3 0 49 -34 103 -74z m2783 -38 c95 -62 174 -116 174
-119 0 -7 -523 -239 -538 -239 -5 0 -108 48 -228 106 -154 74 -214 108 -204
114 8 4 143 59 300 120 157 62 292 116 300 121 8 5 16 9 18 9 2 0 82 -51 178
-112z m1542 -15 l63 -35 -123 -54 c-68 -29 -129 -53 -135 -54 -10 0 -13 32
-13 125 l0 125 73 -36 c39 -20 100 -52 135 -71z m-7498 40 c0 -32 3 -96 7
-142 l6 -85 -79 62 c-44 34 -97 76 -118 95 l-39 33 104 47 c57 26 107 47 112
47 4 0 7 -26 7 -57z m6460 -55 c83 -39 147 -74 143 -78 -21 -17 -405 -191
-411 -186 -3 4 -8 50 -10 102 l-4 95 -42 21 -41 21 100 48 c55 27 103 49 107
49 4 0 75 -32 158 -72z m-5616 -45 c4 -54 9 -123 12 -153 l4 -55 -70 -53 c-60
-46 -69 -56 -60 -72 12 -23 19 -19 -132 -78 l-125 -49 -7 75 c-3 41 -6 116 -6
166 l1 91 182 112 c100 62 185 113 189 113 3 0 9 -44 12 -97z m2194 -440 l-3
-486 -69 -24 -70 -23 -60 40 -60 39 -91 -47 c-67 -36 -91 -53 -93 -70 -4 -26
-3 -25 -36 -11 -25 12 -25 15 -28 126 l-3 114 -144 69 -144 68 -93 -34 -93
-33 -7 90 -7 89 -93 59 -94 58 93 36 c50 19 100 38 110 42 16 7 17 -3 17 -115
0 -94 3 -121 13 -117 15 6 341 150 345 152 1 1 -5 46 -13 100 -9 53 -15 99
-13 100 11 10 231 116 234 113 2 -2 8 -49 15 -104 6 -54 12 -101 14 -103 2 -2
64 22 137 52 l133 55 -1 34 c0 18 -4 60 -8 93 l-8 60 54 32 c29 17 56 32 61
32 4 1 6 -218 5 -486z m-183 452 c37 -22 44 -32 49 -65 3 -22 9 -59 12 -81 l6
-42 -48 37 c-27 21 -52 43 -55 49 -10 18 -21 127 -14 127 4 0 26 -11 50 -25z
m275 -130 c0 -44 3 -89 6 -100 3 -11 53 -53 112 -93 l107 -73 5 105 5 105 103
-67 104 -66 -7 -97 -7 -96 84 -51 c120 -74 115 -70 99 -81 -10 -7 -13 -30 -12
-90 2 -61 -1 -81 -11 -81 -7 0 -62 14 -123 31 -60 17 -117 31 -125 31 -8 0
-75 -23 -147 -51 l-133 -53 0 -75 0 -75 -49 41 c-27 23 -58 41 -70 41 l-21 0
0 477 0 477 40 -39 40 -39 0 -81z m151 61 l2 -78 -57 -35 c-31 -20 -59 -34
-60 -32 -2 2 -5 37 -7 78 l-4 74 60 37 c33 21 61 37 62 36 1 -1 3 -37 4 -80z
m-694 13 l57 -22 -139 -69 -139 -70 -58 28 c-32 15 -58 30 -58 34 0 8 241 118
262 119 10 1 43 -9 75 -20z m1017 -93 l130 -84 -40 -17 c-21 -9 -55 -23 -76
-32 l-36 -14 -122 77 -121 77 63 38 c35 21 65 38 68 39 3 0 63 -38 134 -84z
m-2286 -71 c78 -54 141 -99 140 -100 -2 -1 -81 -66 -176 -144 l-172 -142 -180
128 c-98 70 -178 131 -177 135 1 4 83 66 181 138 l180 130 30 -23 c17 -13 95
-67 174 -122z m4031 -2 c124 -59 227 -108 229 -109 2 -1 7 -415 12 -920 5
-506 12 -1230 16 -1611 l7 -691 -44 9 c-24 5 -58 16 -75 24 l-32 15 -1 212
c-3 522 -22 2287 -27 2515 l-6 253 -142 76 c-77 42 -146 81 -152 88 -12 12
-29 246 -17 246 3 0 108 -48 232 -107z m-2489 56 c28 -17 50 -33 48 -34 -7 -6
-221 -95 -223 -93 -2 2 -6 26 -10 54 l-6 50 58 27 c32 15 64 27 70 27 7 0 35
-14 63 -31z m451 -28 c19 -16 24 -30 27 -90 2 -39 1 -71 -2 -71 -13 0 -156
113 -150 119 9 10 88 60 95 60 4 1 17 -7 30 -18z m-1006 -23 c57 -28 67 -37
74 -68 16 -63 23 -100 17 -100 -3 0 -39 15 -80 34 -73 34 -76 36 -76 69 0 19
-3 49 -6 66 -4 17 -4 31 0 31 3 0 35 -15 71 -32z m-294 -65 c26 -21 48 -40 49
-43 0 -3 -56 -25 -125 -49 -69 -24 -123 -47 -120 -51 2 -4 38 -29 80 -56 41
-27 75 -52 75 -55 0 -10 -160 -40 -173 -32 -34 20 -227 168 -227 174 0 7 358
148 378 149 8 0 36 -17 63 -37z m1729 -56 c-4 -48 -9 -89 -11 -91 -11 -9 -141
-77 -142 -74 -1 2 -1 44 1 94 l3 91 77 36 c42 20 77 35 78 34 1 -1 -2 -41 -6
-90z m-1411 -39 l72 -31 -143 -63 -143 -63 -6 27 c-4 15 -7 44 -8 64 -1 37 1
39 62 67 34 16 69 30 78 30 9 1 49 -13 88 -31z m-838 -55 c1 -38 4 -142 8
-232 l6 -163 -57 -47 c-54 -43 -66 -48 -195 -77 -76 -17 -139 -30 -141 -29 -2
2 4 77 12 167 l16 163 36 30 c20 17 95 80 168 142 72 61 134 112 139 112 4 1
7 -29 8 -66z m3741 -34 c67 -39 124 -72 126 -74 1 -1 -63 -30 -142 -64 l-145
-61 -136 64 c-75 35 -138 66 -140 68 -3 3 287 131 312 138 0 0 57 -32 125 -71z
m-4505 -51 c-4 -61 -9 -113 -11 -115 -3 -3 -51 28 -107 68 -83 59 -98 74 -83
80 10 4 57 23 104 42 47 20 89 36 94 36 5 1 6 -46 3 -111z m3457 51 c83 -34
154 -65 158 -68 4 -4 -63 -43 -150 -88 l-157 -82 -117 22 c-64 12 -119 25
-123 28 -3 4 35 21 84 40 49 18 88 36 85 40 -2 4 -33 17 -69 30 -36 12 -65 25
-65 28 0 7 181 110 194 111 6 0 78 -28 160 -61z m-2414 -239 l0 -109 130 -80
c72 -45 132 -81 134 -81 3 0 8 45 11 100 4 55 9 100 12 100 2 0 58 -32 123
-71 111 -65 119 -72 115 -97 -9 -49 -24 -176 -22 -178 6 -7 331 -154 333 -151
2 1 4 53 5 115 1 62 5 112 10 112 5 0 59 -28 120 -62 l112 -61 -6 -571 c-4
-314 -12 -1037 -18 -1606 -6 -569 -14 -1158 -17 -1308 l-7 -273 -602 466 -601
466 -6 122 c-3 67 -8 606 -11 1197 -3 591 -8 1338 -12 1659 l-6 585 101 -83
102 -82 0 -109z m2013 234 l32 -17 -34 -16 c-32 -15 -33 -18 -27 -58 3 -24 2
-43 -2 -43 -4 0 -38 20 -77 45 l-70 44 65 30 c77 36 73 35 113 15z m68 -79
c24 -9 51 -18 59 -21 9 -4 -10 -15 -50 -29 -72 -24 -80 -21 -80 33 0 37 8 39
71 17z m1214 -277 c4 -71 5 -131 3 -134 -3 -2 -68 32 -144 77 -76 46 -140 83
-141 83 0 1 -4 56 -8 124 l-8 123 146 -72 145 -73 7 -128z m-3045 188 c0 -61
-3 -75 -17 -81 -43 -17 -188 -65 -198 -65 -8 0 -9 25 -3 87 5 48 10 88 12 90
3 3 174 40 194 42 8 1 12 -20 12 -73z m3390 -153 c0 -191 8 -1005 23 -2435 l3
-277 -66 -25 c-36 -13 -260 -102 -498 -196 -239 -94 -437 -169 -440 -165 -4 4
-10 203 -14 443 -18 1187 -29 1972 -31 2210 l-2 263 160 68 c88 38 163 67 168
64 4 -2 7 -78 7 -169 0 -90 3 -164 8 -164 4 0 92 35 196 77 l188 78 -7 155
c-4 85 -8 159 -8 163 -2 7 286 135 306 137 4 0 7 -102 7 -227z m-1066 -165
c23 -1303 45 -2706 48 -3027 l3 -273 -754 -344 c-414 -189 -755 -344 -757
-344 -7 0 -4 3298 3 3551 l6 246 131 40 131 39 3 -98 c3 -94 4 -99 23 -93 11
4 92 38 180 77 l161 71 -7 46 c-3 25 -8 60 -11 76 l-5 31 115 46 c64 25 116
45 117 45 0 -1 4 -46 8 -99 4 -54 10 -100 13 -103 3 -3 69 25 146 62 l141 68
2 80 c0 44 4 90 7 103 5 16 44 43 142 97 74 41 138 74 141 75 3 0 9 -168 13
-372z m-441 257 l117 -27 0 -84 c0 -77 -2 -85 -17 -80 -36 11 -243 66 -248 66
-3 0 -5 36 -5 81 0 72 2 80 18 76 9 -3 70 -17 135 -32z m-1534 -42 c69 -31
129 -59 133 -62 3 -3 -36 -25 -87 -47 l-93 -41 -132 76 -131 76 83 27 c46 14
87 27 92 27 5 1 66 -25 135 -56z m-347 -93 c-2 -55 -5 -100 -8 -100 -2 0 -52
28 -110 62 l-106 61 104 38 c56 21 108 38 113 38 6 1 9 -37 7 -99z m2518 55
c68 -14 125 -27 127 -28 2 -2 -218 -101 -279 -125 -4 -2 -8 40 -8 93 0 87 2
96 18 91 9 -3 73 -17 142 -31z m-837 -55 c8 -7 -201 -100 -225 -100 -14 0
-199 70 -211 80 -4 3 39 24 95 46 l103 40 115 -29 c63 -17 119 -33 123 -37z
m1225 -84 c67 -38 124 -72 127 -76 6 -10 -275 -134 -283 -125 -4 3 -8 72 -11
153 l-3 146 23 -15 c13 -9 79 -46 147 -83z m-3390 -62 l-3 -46 -57 47 -58 47
58 45 57 44 3 -45 c2 -25 2 -67 0 -92z m970 45 l-3 -92 -99 -34 c-54 -19 -100
-32 -102 -30 -2 2 -1 38 3 81 l6 77 86 44 c47 24 92 44 99 44 10 1 12 -21 10
-90z m1313 75 c30 -8 85 -25 124 -36 l70 -20 -119 -60 c-65 -32 -119 -58 -121
-56 -5 5 -18 188 -13 188 2 0 29 -7 59 -16z m-472 -55 c131 -45 131 -45 131
-141 0 -33 -3 -38 -17 -34 -10 3 -70 23 -133 44 l-115 39 -3 66 c-2 42 1 67 7
67 6 0 64 -18 130 -41z m-486 -67 l38 -25 77 31 c42 18 82 32 87 32 13 -1 101
-77 95 -82 -3 -3 -72 -30 -153 -61 l-148 -57 -102 55 c-157 83 -153 75 -61
123 88 45 70 47 167 -16z m-1464 -86 l2 -105 -124 72 c-69 40 -122 74 -120 77
5 6 201 58 224 59 14 1 17 -14 18 -103z m1949 -4 c61 -20 112 -39 112 -42 0
-4 -58 -29 -130 -57 l-130 -50 0 61 c0 33 -3 78 -7 100 -7 44 -24 46 155 -12z
m-787 1 c26 -16 29 -23 29 -68 0 -27 -3 -60 -6 -72 l-6 -21 -61 27 c-34 16
-91 42 -127 58 l-65 29 90 31 c108 37 109 38 146 16z m3964 -308 c81 -21 207
-83 283 -139 l62 -46 0 -744 0 -743 -407 -167 c-223 -91 -407 -165 -409 -164
-3 3 -19 638 -30 1158 l-6 305 51 104 c90 180 204 341 294 412 55 44 74 46
162 24z"/>
<path d="M5865 8139 c-156 -44 -290 -77 -303 -74 -13 3 -21 1 -20 -6 2 -6 -48
-26 -112 -46 -119 -36 -127 -39 -118 -49 3 -3 59 11 123 30 65 20 124 36 132
36 18 0 83 -50 290 -222 l162 -135 -80 -38 c-44 -21 -78 -40 -75 -42 3 -3 44
9 92 26 l86 31 70 -57 c81 -66 789 -669 922 -784 83 -73 107 -85 105 -56 0 7
-87 80 -192 164 -416 328 -870 726 -850 743 18 16 195 71 209 66 9 -3 58 -34
110 -67 52 -34 97 -59 100 -56 3 3 -35 36 -85 73 -56 42 -86 71 -78 75 6 3 75
28 152 54 l140 48 307 -214 c169 -118 304 -217 300 -220 -4 -4 -60 -19 -125
-35 l-117 -28 -58 27 -57 27 39 -33 39 -34 -29 -7 c-88 -21 -104 -28 -104 -42
0 -17 6 -16 104 21 l59 22 221 -175 c122 -96 223 -177 226 -179 3 -2 -6 -13
-20 -24 l-25 -21 44 6 c37 4 50 0 74 -20 37 -31 52 -31 31 1 -9 14 -15 27 -13
29 2 1 75 12 162 23 l158 20 297 -195 c163 -107 314 -205 335 -219 22 -13 37
-26 35 -28 -1 -1 -109 3 -238 11 -129 8 -433 25 -675 39 -242 13 -464 27 -492
30 -29 3 -53 2 -53 -3 0 -4 87 -13 193 -20 105 -6 444 -28 752 -48 l560 -36
100 -64 100 -65 -65 60 -65 61 113 0 c68 0 112 4 112 10 0 6 -12 10 -27 10
-16 0 -80 5 -143 10 -132 12 -66 -22 -539 273 -211 131 -269 172 -255 177 11
4 52 13 92 20 73 13 105 38 35 27 -126 -20 -169 -20 -216 1 -55 24 -64 14 -11
-12 20 -9 35 -19 32 -21 -2 -2 -78 -14 -170 -26 l-166 -22 -167 128 c-92 70
-198 150 -236 179 -37 28 -68 54 -68 57 -1 6 235 79 255 79 6 0 43 -25 82 -56
85 -65 94 -60 16 9 l-55 48 53 24 c41 18 47 24 28 24 -14 1 -46 -6 -71 -13
l-46 -14 -304 205 c-167 113 -308 209 -313 213 -4 5 17 16 49 26 50 16 54 19
36 28 -15 6 -39 4 -79 -8 l-59 -18 -52 27 c-65 32 -78 26 -22 -11 23 -14 41
-28 41 -30 0 -9 -284 -93 -294 -87 -6 4 -53 38 -104 76 -51 38 -95 67 -98 64
-3 -2 33 -37 78 -77 46 -40 84 -76 86 -80 1 -4 -47 -26 -108 -49 l-110 -42
-128 108 c-98 84 -277 233 -311 260 -10 7 18 16 265 88 280 82 317 93 294 93
-8 0 -141 -35 -295 -79z"/>
<path d="M4617 7724 c-75 -43 -79 -45 -103 -30 -69 45 -79 48 -41 15 l38 -34
-493 -272 c-271 -149 -566 -311 -655 -360 -89 -48 -162 -92 -163 -96 0 -5 19
2 43 16 23 13 322 176 665 362 430 233 626 334 635 327 29 -23 172 -135 175
-137 2 -2 -472 -288 -615 -370 -46 -25 -83 -49 -83 -51 0 -8 353 194 619 354
l84 51 61 -44 c34 -25 161 -115 283 -202 122 -87 222 -161 223 -164 0 -3 -52
-50 -116 -103 -63 -54 -113 -100 -110 -103 3 -3 57 36 121 86 l116 92 67 -47
67 -47 -55 57 -54 56 59 60 c33 33 56 60 51 60 -4 0 -36 -22 -71 -50 l-63 -50
-280 213 c-154 116 -278 215 -276 219 2 4 69 46 149 95 80 48 145 91 145 95 0
4 -63 -30 -139 -77 -77 -46 -149 -88 -159 -94 -17 -9 -34 0 -106 56 l-87 67
58 32 c57 32 103 63 93 63 -3 1 -40 -20 -83 -45z"/>
<path d="M4593 6902 l-83 -55 -44 37 c-24 20 -47 36 -50 36 -16 0 -2 -18 34
-44 22 -17 40 -33 40 -37 0 -9 -237 -185 -308 -229 -29 -18 -51 -34 -49 -37 7
-6 120 64 265 164 l122 84 323 -262 c177 -144 329 -268 337 -276 16 -15 20
-10 -114 -131 -82 -75 -44 -55 47 24 95 83 87 82 148 27 21 -20 28 -21 37 -10
9 11 3 20 -28 43 -22 16 -40 32 -40 36 0 3 110 106 245 229 135 122 245 224
245 226 0 9 -34 -19 -268 -220 -154 -132 -248 -207 -258 -203 -8 3 -158 121
-334 262 l-320 257 42 36 c129 110 133 125 11 43z"/>
<path d="M6230 6328 c-96 -88 -207 -189 -247 -224 l-72 -65 -141 127 c-78 69
-143 124 -146 122 -2 -3 56 -59 130 -124 74 -65 133 -123 132 -129 -1 -5 -118
-114 -259 -240 -272 -244 -299 -270 -280 -264 6 2 138 111 293 242 l281 239
52 -46 c29 -24 73 -63 100 -86 64 -56 60 -33 -5 27 -29 26 -72 66 -96 89 l-45
40 214 194 c255 230 287 260 274 259 -6 0 -89 -72 -185 -161z"/>
<path d="M6439 5913 c-13 -16 -12 -17 4 -4 9 7 17 15 17 17 0 8 -8 3 -21 -13z"/>
<path d="M6339 5803 l-34 -38 38 34 c20 19 37 36 37 38 0 8 -8 0 -41 -34z"/>
<path d="M6250 5705 c-24 -25 -42 -45 -39 -45 3 0 25 20 49 45 24 25 42 45 39
45 -3 0 -25 -20 -49 -45z"/>
<path d="M6054 5490 c-80 -89 -145 -162 -143 -164 2 -2 71 70 152 160 81 90
146 164 143 164 -3 0 -71 -72 -152 -160z"/>
<path d="M595 6763 c-100 -52 -145 -138 -170 -321 -11 -79 -14 -137 -9 -142
18 -17 448 -319 451 -316 7 7 -19 536 -28 576 -15 65 -54 116 -133 171 -38 27
-72 49 -75 49 -3 -1 -19 -8 -36 -17z m121 -86 c76 -79 88 -121 109 -380 9
-120 15 -220 12 -224 -6 -6 -377 244 -377 255 -1 29 45 284 56 310 15 35 94
92 128 92 11 0 43 -24 72 -53z"/>
<path d="M11933 5508 c-72 -76 -117 -164 -154 -303 -16 -62 -18 -94 -12 -276
l6 -205 276 109 c152 60 279 112 282 115 8 8 -11 141 -36 258 -20 93 -77 187
-159 261 -50 45 -116 82 -146 83 -9 0 -34 -19 -57 -42z m170 -58 c26 -23 61
-61 76 -84 38 -55 121 -312 121 -374 0 -17 -38 -35 -240 -116 -132 -53 -242
-96 -245 -96 -10 0 -5 360 6 412 14 71 78 200 134 271 45 56 46 57 73 43 15
-8 48 -33 75 -56z"/>
<path d="M8466 6178 c4 -7 20 -32 36 -55 26 -39 27 -43 11 -52 -40 -21 -425
-192 -427 -189 -1 2 -31 37 -66 78 -35 41 -68 79 -72 85 -5 5 -8 5 -8 -1 0 -6
27 -48 61 -93 33 -46 59 -84 57 -85 -11 -7 -454 -206 -459 -206 -4 0 -80 113
-170 250 -89 138 -167 250 -172 250 -4 0 -6 -3 -4 -7 251 -407 307 -498 307
-503 0 -11 -384 -180 -391 -172 -3 4 -28 50 -55 102 -27 52 -50 97 -51 99 -2
2 -5 2 -8 -1 -3 -3 15 -54 40 -113 24 -60 43 -110 42 -111 -1 -1 -90 -42 -197
-90 -211 -95 -205 -92 -199 -98 2 -2 94 36 204 85 109 48 200 87 201 86 1 -1
13 -24 27 -52 14 -27 33 -59 42 -70 l17 -20 -7 20 c-4 11 -16 46 -27 78 -11
32 -19 60 -17 62 2 2 92 42 199 89 l194 86 21 -20 c25 -23 39 -16 24 12 -6 11
-9 21 -7 22 8 7 450 206 456 206 4 0 24 -25 46 -56 49 -71 59 -63 12 11 l-36
56 62 29 c35 15 137 62 227 104 90 42 167 76 171 76 4 0 37 -38 74 -85 37 -47
72 -85 78 -85 6 0 -2 17 -18 38 -15 20 -43 57 -61 81 -18 24 -33 47 -33 51 0
3 31 24 70 46 38 21 70 42 70 46 0 4 -34 -8 -76 -27 -42 -19 -82 -35 -90 -35
-7 0 -29 20 -50 45 -33 41 -66 63 -48 33z"/>
<path d="M5158 3302 c-92 -53 -130 -130 -156 -312 -10 -74 -18 -136 -18 -136
3 -5 458 -324 462 -324 3 0 2 44 -1 98 -4 53 -10 183 -14 287 -9 209 -18 244
-74 304 -27 27 -139 111 -149 111 -2 0 -24 -13 -50 -28z m110 -52 c44 -32 96
-112 111 -170 5 -19 14 -107 20 -195 6 -88 14 -187 18 -219 l6 -59 -191 129
c-146 99 -191 134 -192 150 0 12 7 61 16 110 9 49 17 108 19 132 2 24 11 54
20 68 17 26 100 84 120 84 7 0 31 -13 53 -30z"/>
<path d="M6595 3148 c-53 -61 -117 -185 -140 -275 -12 -50 -15 -108 -13 -282
l3 -219 275 110 c151 60 279 113 283 117 4 4 0 52 -8 106 -36 225 -56 273
-158 381 -55 60 -140 114 -178 114 -10 0 -38 -24 -64 -52z m210 -80 c29 -31
62 -76 73 -100 20 -41 83 -249 95 -314 l6 -31 -242 -96 c-133 -54 -246 -97
-250 -97 -10 0 -8 300 2 383 11 82 66 202 135 295 l47 63 41 -23 c22 -13 64
-49 93 -80z"/>
<path d="M9567 3537 l6 -66 -59 -16 c-33 -9 -65 -18 -71 -20 -10 -3 -13 14
-13 65 0 39 -3 70 -6 70 -3 0 -30 -17 -60 -37 -48 -34 -54 -42 -54 -74 0 -24
-5 -39 -16 -43 -12 -4 -14 -19 -12 -63 3 -54 5 -58 26 -55 21 3 22 1 22 -86 0
-85 -1 -89 -25 -100 -14 -7 -28 -12 -30 -12 -3 0 -5 36 -5 80 0 44 -3 80 -8
80 -9 0 -104 -78 -114 -94 -4 -6 -8 -33 -8 -59 0 -37 -5 -53 -20 -65 -15 -12
-22 -34 -27 -80 -6 -61 -6 -62 18 -60 23 3 24 0 27 -59 3 -60 2 -63 -23 -69
-24 -6 -25 -10 -25 -75 l0 -69 30 0 c26 0 30 -3 30 -29 0 -69 -13 -119 -31
-124 -16 -4 -19 -15 -19 -75 0 -65 1 -70 20 -65 18 5 20 0 20 -60 0 -58 -2
-65 -21 -70 -18 -5 -21 -11 -15 -38 3 -17 6 -49 6 -71 0 -32 3 -39 15 -34 12
4 15 -6 15 -59 0 -51 -3 -65 -15 -65 -12 0 -15 -15 -15 -76 0 -64 2 -75 15
-70 12 4 15 -4 15 -38 0 -23 2 -45 5 -48 3 -3 33 5 67 17 l61 22 0 52 c-1 47
2 53 28 66 15 8 30 15 34 15 3 0 5 -21 5 -47 0 -72 7 -76 71 -55 l54 19 3 70
3 69 37 15 c20 7 40 15 44 17 4 2 8 -26 10 -61 l3 -65 63 26 62 26 0 61 c0 56
11 85 32 85 4 0 8 -19 8 -42 0 -24 3 -53 6 -65 l6 -21 59 26 58 27 1 66 c0 47
5 70 15 79 10 9 15 32 15 76 0 52 -3 62 -15 58 -12 -5 -15 2 -15 34 0 23 6 45
15 52 10 8 15 31 15 70 0 42 -4 59 -15 64 -11 4 -15 22 -15 70 0 47 4 65 15
70 11 4 15 21 15 66 0 47 -3 60 -15 60 -12 0 -15 16 -15 85 0 69 3 85 15 85
12 0 15 13 15 60 0 47 -3 60 -15 60 -12 0 -15 15 -15 75 0 58 4 77 15 81 21 8
22 134 1 134 -14 0 -26 29 -26 67 0 22 -9 27 -73 39 -37 6 -40 11 -49 69 -2
11 -14 22 -28 25 -18 4 -26 15 -31 38 -8 42 -7 41 -62 48 l-46 7 6 -66z m83 6
c0 -48 11 -73 31 -73 11 0 19 -6 19 -14 0 -8 2 -21 6 -29 3 -9 -6 -19 -25 -27
-31 -12 -31 -13 -31 -91 0 -86 0 -86 63 -68 l37 10 0 75 0 75 33 -3 c31 -3 32
-4 37 -58 5 -50 7 -55 28 -52 20 3 22 -1 22 -47 0 -39 -4 -53 -20 -64 -19 -13
-20 -21 -14 -96 4 -44 10 -81 14 -81 14 0 17 -74 4 -85 -8 -6 -13 -45 -16
-105 -3 -83 -1 -95 13 -92 27 4 33 -77 8 -104 -16 -17 -19 -35 -19 -103 0 -52
4 -80 10 -76 6 4 10 -13 10 -43 0 -35 -4 -52 -15 -56 -11 -4 -15 -22 -15 -72
0 -61 1 -66 20 -61 17 4 20 0 20 -33 0 -24 -5 -40 -15 -44 -11 -4 -15 -22 -15
-75 l0 -71 -40 -20 -40 -20 0 60 c0 65 -3 68 -58 49 -30 -10 -31 -12 -34 -81
l-3 -71 -37 -13 -38 -13 0 60 c0 32 -4 59 -10 59 -5 0 -39 -12 -75 -26 l-65
-26 0 -64 c0 -52 -3 -65 -19 -74 -39 -21 -47 -13 -50 47 -1 32 -4 59 -5 61 -2
1 -29 -8 -60 -22 l-56 -25 0 -50 c0 -49 -1 -51 -36 -66 -20 -8 -38 -15 -40
-15 -2 0 -4 23 -4 51 0 47 -2 51 -20 46 -19 -5 -21 -2 -18 46 3 45 6 52 26 55
20 3 22 9 22 61 0 79 -9 121 -25 115 -12 -5 -25 24 -25 59 0 9 11 23 25 29 24
11 25 15 25 96 l0 85 -30 -6 c-30 -6 -30 -6 -30 38 0 39 4 47 25 57 24 11 25
15 25 104 l0 94 -32 -7 c-31 -6 -31 -6 -25 27 4 18 7 41 7 51 0 12 7 19 20 19
19 0 20 7 20 91 0 86 -1 91 -20 86 -18 -5 -20 0 -20 39 0 38 4 46 25 54 22 8
24 15 27 80 3 69 4 72 37 92 l34 22 -6 -67 c-3 -37 -2 -67 3 -67 4 0 31 5 59
12 l51 11 0 91 c0 50 3 101 6 114 6 21 4 22 -20 16 -22 -5 -26 -3 -26 14 0 12
9 27 19 34 15 11 21 28 23 72 2 48 7 61 26 74 l22 14 0 -66 c0 -36 3 -66 8
-66 4 0 23 4 42 9 19 5 60 14 90 21 l56 11 -4 64 -4 65 31 0 c27 0 31 -3 31
-27z m58 -284 c-24 -16 -28 -9 -28 55 0 54 3 65 18 68 14 3 17 -6 20 -56 2
-40 -1 -62 -10 -67z"/>
<path d="M9498 3353 l-78 -15 0 -97 0 -98 80 26 80 25 0 88 c0 48 -1 87 -2 87
-2 -1 -38 -8 -80 -16z m52 -82 l0 -69 -45 -15 c-44 -16 -45 -15 -45 6 0 12 -3
45 -6 73 -6 50 -6 50 27 61 67 22 69 20 69 -56z"/>
<path d="M9703 3123 l-43 -15 0 -79 c0 -43 1 -79 3 -79 1 0 22 6 47 14 l45 13
3 82 c2 44 -1 81 -5 80 -4 0 -27 -7 -50 -16z m27 -72 c0 -49 -3 -59 -19 -64
-17 -4 -20 2 -23 55 -3 66 -3 68 24 68 15 0 18 -8 18 -59z"/>
<path d="M9505 3061 l-70 -29 -3 -81 c-2 -44 -2 -81 0 -81 2 0 37 11 78 24
l75 24 3 86 c1 47 -1 86 -5 85 -4 0 -39 -13 -78 -28z m45 -71 c0 -65 1 -63
-67 -84 -22 -7 -23 -5 -23 57 0 64 0 64 33 75 56 18 57 17 57 -48z"/>
<path d="M9293 2982 l-53 -15 0 -83 0 -84 53 21 c28 11 53 22 55 24 2 1 2 36
0 77 l-3 75 -52 -15z m27 -77 c0 -36 -4 -65 -9 -65 -5 0 -16 -3 -25 -6 -14 -5
-16 4 -16 59 0 66 2 70 43 76 4 0 7 -28 7 -64z"/>
<path d="M9703 2853 l-43 -15 0 -93 0 -93 50 16 50 16 0 93 c0 51 -3 93 -7 92
-5 0 -27 -7 -50 -16z m25 -85 c-2 -60 -6 -73 -20 -76 -16 -3 -18 5 -18 66 0
71 4 82 27 82 11 0 13 -16 11 -72z"/>
<path d="M9498 2783 l-68 -26 0 -94 c0 -86 2 -95 18 -89 9 4 42 17 73 28 l57
22 6 51 c10 83 7 135 -6 134 -7 0 -43 -12 -80 -26z m62 -77 l0 -74 -47 -16
c-26 -9 -48 -16 -50 -16 -2 0 -3 33 -3 74 l0 74 43 15 c23 9 45 16 50 16 4 1
7 -32 7 -73z"/>
<path d="M9290 2706 c-39 -14 -48 -42 -49 -143 -1 -60 1 -61 72 -37 l47 16 0
89 c0 99 -1 100 -70 75z m38 -77 c4 -73 -3 -88 -38 -89 -20 0 -19 138 2 151
27 18 33 7 36 -62z"/>
<path d="M9702 2556 l-34 -12 -1 -82 c-1 -45 2 -82 7 -82 5 0 26 5 47 12 l39
11 0 84 c0 90 0 90 -58 69z m26 -73 c-2 -55 -6 -68 -20 -71 -16 -3 -18 5 -18
61 0 62 5 73 33 76 4 1 7 -29 5 -66z"/>
<path d="M9508 2492 l-68 -26 0 -84 c0 -76 2 -83 18 -77 9 3 43 13 75 22 l57
16 0 89 c0 48 -3 88 -7 87 -5 -1 -38 -13 -75 -27z m50 -69 l-3 -66 -39 -14
c-22 -7 -40 -12 -41 -11 -1 2 -5 31 -9 65 l-7 61 43 15 c24 9 47 16 51 16 4 1
7 -29 5 -66z"/>
<path d="M9300 2412 l-45 -18 -7 -79 c-4 -43 -6 -80 -4 -82 1 -2 27 5 57 15
l54 19 3 81 c2 45 -1 82 -5 81 -4 0 -28 -8 -53 -17z m30 -72 c0 -56 -2 -61
-26 -70 -14 -6 -26 -10 -27 -10 -1 0 -2 28 -2 62 0 64 6 78 38 78 14 0 17 -9
17 -60z"/>
<path d="M9698 2278 c-27 -9 -28 -13 -28 -74 0 -35 3 -64 6 -64 4 0 24 5 46
12 33 10 38 15 34 32 -3 12 -6 40 -6 64 0 45 -5 48 -52 30z m32 -53 c0 -25 -2
-45 -4 -45 -2 0 -11 -3 -20 -6 -13 -5 -16 2 -16 39 0 41 7 54 33 56 4 1 7 -19
7 -44z"/>
<path d="M9510 2216 l-65 -23 -3 -78 c-2 -60 0 -76 10 -72 7 3 41 17 76 32
l62 28 0 68 c0 38 -3 69 -7 68 -5 0 -37 -11 -73 -23z m50 -55 c0 -44 -3 -50
-27 -59 -16 -5 -36 -13 -46 -17 -16 -7 -18 -2 -15 45 3 51 5 54 38 66 51 18
50 19 50 -35z"/>
<path d="M9287 2142 c-48 -16 -49 -17 -43 -52 3 -19 6 -54 6 -77 l0 -42 60 21
60 20 0 74 c0 84 0 84 -83 56z m43 -66 c0 -43 -4 -56 -17 -60 -33 -10 -36 -6
-36 46 0 41 4 53 19 59 32 13 34 11 34 -45z"/>
</g>
</svg>
