<?xml version="1.0" standalone="no"?>
<!DOCTYPE svg PUBLIC "-//W3C//DTD SVG 20010904//EN"
 "http://www.w3.org/TR/2001/REC-SVG-20010904/DTD/svg10.dtd">
<svg version="1.0" xmlns="http://www.w3.org/2000/svg"
 width="1280.000000pt" height="1011.000000pt" viewBox="0 0 1280.000000 1011.000000"
 preserveAspectRatio="xMidYMid meet">
<metadata>
Created by potrace 1.15, written by Peter Selinger 2001-2017
</metadata>
<g transform="translate(0.000000,1011.000000) scale(0.100000,-0.100000)"
fill="#000000" stroke="none">
<path d="M10730 10053 c0 -32 5 -65 10 -73 7 -11 10 5 10 52 0 37 -4 70 -10
73 -6 4 -10 -16 -10 -52z"/>
<path d="M10609 10096 c-2 -3 -1 -47 3 -98 5 -51 7 -118 6 -148 -3 -53 -4 -54
-43 -69 -22 -8 -41 -15 -42 -16 -3 -1 17 -137 23 -154 3 -11 10 -9 27 8 36 33
54 27 62 -21 11 -65 19 -70 68 -42 23 13 74 35 112 49 90 34 102 46 29 29 -69
-16 -97 -6 -92 32 3 21 14 29 72 49 38 13 74 29 80 35 10 10 -11 5 -151 -40
-91 -28 -105 -24 -101 32 3 36 7 44 31 52 20 7 34 7 47 -2 19 -11 20 -9 20 29
0 41 -1 42 -19 25 -11 -10 -37 -20 -59 -23 l-39 -5 -7 108 c-7 113 -17 180
-27 170z"/>
<path d="M11885 10071 c-16 -4 -43 -15 -60 -25 l-30 -17 34 7 c55 10 140 43
111 42 -14 0 -38 -3 -55 -7z"/>
<path d="M11591 9984 c-19 -8 -32 -17 -29 -19 6 -6 69 14 83 26 14 14 -16 10
-54 -7z"/>
<path d="M11500 9950 c-13 -8 -13 -10 2 -10 9 0 20 5 23 10 8 13 -5 13 -25 0z"/>
<path d="M11395 9920 c-8 -13 15 -13 35 0 12 8 11 10 -7 10 -12 0 -25 -4 -28
-10z"/>
<path d="M11315 9890 c-8 -13 15 -13 35 0 12 8 11 10 -7 10 -12 0 -25 -4 -28
-10z"/>
<path d="M11250 9859 c0 -5 5 -7 10 -4 6 3 10 8 10 11 0 2 -4 4 -10 4 -5 0
-10 -5 -10 -11z"/>
<path d="M11153 9833 c9 -2 23 -2 30 0 6 3 -1 5 -18 5 -16 0 -22 -2 -12 -5z"/>
<path d="M4387 9823 c-10 -10 -8 -81 2 -101 5 -9 21 -53 35 -97 23 -71 26 -97
26 -218 0 -76 -7 -188 -16 -248 -15 -101 -15 -112 0 -128 11 -12 16 -36 16
-74 0 -31 7 -84 15 -119 8 -35 19 -152 26 -260 20 -341 3 -558 -42 -558 -7 0
-21 -8 -31 -17 -17 -15 -21 -15 -52 0 -68 32 -113 116 -191 354 -30 93 -61
178 -70 188 -13 19 -14 16 -14 -30 0 -27 3 -68 8 -90 5 -22 12 -71 15 -110 l6
-70 -31 60 c-78 148 -193 562 -243 875 -24 152 -27 177 -40 333 -15 161 -36
223 -36 102 1 -159 79 -791 131 -1055 31 -157 48 -295 49 -386 0 -80 -14 -144
-31 -144 -21 0 -220 173 -283 246 -181 209 -365 473 -454 652 -32 65 -61 127
-64 140 -8 28 -28 29 -28 1 0 -55 113 -257 295 -525 159 -234 215 -323 270
-433 40 -79 65 -150 54 -152 -2 0 -159 -6 -349 -14 -363 -14 -504 -30 -648
-71 -94 -27 -219 -81 -209 -90 3 -3 61 4 129 15 164 28 577 61 782 63 160 1
167 1 200 -23 44 -32 83 -79 91 -112 12 -46 -19 -52 -210 -37 -91 7 -168 10
-172 7 -3 -4 7 -11 23 -18 40 -15 234 -59 262 -59 13 0 21 -4 18 -9 -6 -8 -23
-11 -246 -36 -142 -17 -331 -54 -435 -87 -75 -24 -268 -119 -430 -213 -127
-73 -265 -164 -265 -174 0 -8 68 1 105 15 11 4 49 24 85 45 103 59 576 201
746 224 127 17 212 19 199 6 -10 -10 -133 -43 -214 -58 -25 -5 -46 -14 -49
-21 -4 -14 26 -15 83 -3 68 15 181 24 170 13 -5 -5 -48 -22 -95 -37 -161 -52
-315 -118 -535 -227 -121 -61 -245 -125 -276 -144 -113 -68 -206 -76 -390 -32
-98 23 -152 19 -170 -13 -10 -20 -11 -20 -37 -3 -28 18 -149 32 -179 19 -17
-7 -17 -8 2 -15 11 -5 41 -9 67 -9 60 -1 99 -16 105 -41 8 -29 25 -25 61 16
37 41 16 41 244 1 71 -12 128 -25 128 -29 0 -4 -33 -33 -72 -65 -64 -51 -70
-58 -49 -61 14 -2 44 10 75 29 115 74 162 91 335 124 59 11 111 30 171 62 73
38 99 46 156 50 70 4 156 -13 156 -32 1 -5 -65 -33 -146 -61 -80 -28 -149 -54
-153 -58 -7 -7 381 2 405 10 6 2 12 -1 12 -6 0 -5 -12 -12 -27 -16 -177 -39
-345 -100 -588 -212 -124 -57 -414 -212 -462 -247 -21 -14 -32 -45 -17 -45 3
0 55 28 116 61 318 176 739 334 946 355 82 9 90 -9 18 -42 -31 -14 -56 -30
-56 -35 0 -11 5 -11 53 0 20 5 37 6 37 2 -1 -12 -256 -150 -409 -221 -174 -81
-287 -142 -316 -172 l-20 -20 32 5 c18 4 126 51 240 106 270 128 478 210 580
226 l38 6 -78 -75 c-136 -132 -264 -198 -537 -279 -175 -51 -215 -60 -385 -82
-152 -19 -167 -23 -159 -36 9 -15 96 -6 404 43 140 22 323 57 407 78 133 33
167 46 271 103 65 36 131 69 145 72 25 7 27 5 27 -27 0 -41 -60 -168 -122
-258 -24 -36 -70 -110 -102 -165 -114 -194 -194 -287 -260 -299 -40 -8 -48
-23 -13 -28 18 -3 6 -15 -68 -70 -49 -37 -119 -82 -155 -100 -35 -17 -59 -33
-52 -36 23 -7 12 -22 -42 -52 -29 -17 -61 -39 -71 -50 -10 -11 -42 -26 -72
-35 -41 -12 -56 -22 -64 -41 -5 -15 -39 -58 -75 -98 -36 -39 -79 -99 -96 -134
-26 -53 -31 -74 -32 -143 -1 -76 1 -83 25 -101 25 -19 28 -19 65 -3 36 15 39
15 51 -1 15 -20 13 -21 35 26 9 20 47 74 85 120 39 47 78 101 88 120 10 19 27
46 38 60 l20 25 -7 -42 c-8 -56 10 -56 24 0 21 82 30 102 65 146 28 35 35 40
35 23 0 -29 11 -53 21 -46 5 3 9 19 9 35 0 16 6 44 14 62 16 39 80 102 94 93
6 -3 20 10 32 30 26 41 130 131 174 149 16 7 35 25 42 41 20 47 16 1 -5 -58
-29 -80 -61 -192 -61 -217 0 -44 20 -19 40 52 12 39 29 83 39 97 10 14 35 71
56 128 57 155 145 294 273 430 65 70 88 79 78 32 -8 -44 -54 -137 -82 -167
-13 -14 -24 -30 -24 -35 0 -5 -19 -41 -41 -79 -23 -38 -39 -72 -36 -76 4 -3
34 24 68 61 34 36 64 64 66 62 3 -2 -7 -22 -20 -43 -41 -64 -114 -216 -156
-320 -42 -106 -121 -347 -121 -369 0 -30 18 -11 40 44 35 87 118 252 153 302
17 25 75 113 130 195 119 178 117 176 117 142 0 -14 -10 -35 -21 -46 -15 -14
-28 -48 -40 -106 -21 -99 -93 -258 -133 -294 -14 -14 -26 -35 -26 -47 0 -13
-8 -25 -19 -29 -10 -3 -27 -15 -37 -27 -19 -21 -19 -21 4 -16 12 4 22 3 22 -2
0 -13 -76 -77 -100 -85 -14 -4 -19 -12 -15 -22 6 -18 -74 -103 -98 -103 -21 0
-32 -19 -19 -32 13 -13 -20 -68 -75 -124 -39 -39 -43 -48 -43 -91 0 -48 -27
-119 -45 -117 -6 1 -23 5 -40 9 l-30 7 25 -27 c21 -22 22 -28 10 -35 -8 -5
-29 -10 -46 -10 -31 0 -60 -21 -47 -33 3 -4 15 -7 25 -7 10 0 18 -3 18 -7 0
-3 -26 -34 -57 -68 -154 -166 -143 -148 -155 -261 -10 -99 -9 -103 17 -157 23
-51 25 -60 15 -99 -6 -24 -27 -71 -46 -106 -19 -34 -34 -69 -34 -78 0 -8 -12
-26 -26 -39 -14 -13 -23 -28 -20 -33 3 -5 -8 -22 -24 -37 -17 -16 -30 -36 -30
-44 0 -9 -24 -32 -52 -51 -61 -41 -254 -232 -263 -260 -7 -23 -131 -100 -161
-100 -22 0 -125 -128 -154 -193 -26 -56 -26 -142 -1 -183 27 -44 71 -60 130
-46 102 23 403 212 486 304 38 42 122 198 189 350 17 41 29 56 39 52 12 -4 17
7 22 47 5 35 15 60 31 76 13 13 24 35 24 50 0 14 16 67 35 119 19 52 49 150
65 220 34 144 36 147 105 234 29 36 75 100 104 143 29 42 61 81 71 87 11 6 20
20 20 32 0 33 132 270 144 258 19 -19 29 -10 23 19 -8 36 9 97 28 104 7 3 17
23 21 44 3 21 37 110 74 199 68 161 134 353 154 452 9 44 11 12 11 -185 0
-341 21 -415 44 -158 14 148 26 219 42 243 19 30 -3 -328 -27 -440 -4 -21 -2
-28 10 -28 23 0 43 46 65 155 11 53 22 100 25 103 13 12 5 -166 -9 -218 -20
-74 -20 -86 1 -69 29 24 52 83 78 204 31 142 75 277 76 230 0 -49 -27 -178
-55 -256 -16 -47 -22 -76 -15 -83 20 -20 68 46 100 136 l18 52 6 -34 c3 -19
13 -81 22 -138 9 -56 14 -105 10 -109 -3 -4 -20 7 -37 23 -25 24 -31 26 -39
14 -5 -8 -10 -18 -10 -22 0 -16 -41 -18 -64 -3 -32 21 -42 15 -50 -30 -9 -45
-28 -53 -74 -29 -21 10 -40 20 -44 22 -5 2 -8 -17 -8 -42 0 -62 -27 -91 -76
-81 -28 5 -35 3 -40 -12 -2 -10 -14 -36 -26 -58 -11 -22 -29 -56 -39 -76 -20
-39 -72 -89 -94 -89 -7 0 -18 -7 -25 -15 -11 -13 -9 -21 9 -45 l21 -30 -24
-39 c-33 -52 -91 -98 -148 -117 -26 -8 -51 -20 -54 -26 -4 -6 -10 -63 -15
-127 -4 -64 -17 -154 -29 -201 -13 -51 -19 -96 -15 -115 3 -16 11 -86 16 -155
12 -152 58 -474 104 -728 29 -158 35 -222 42 -414 5 -145 12 -231 20 -239 8
-8 29 -8 79 0 78 12 260 97 386 180 42 28 81 51 87 51 14 0 36 -80 57 -205 22
-132 49 -236 65 -246 7 -4 25 -5 40 -2 15 3 29 0 33 -5 9 -15 -42 -71 -83 -90
-33 -16 -36 -21 -39 -64 -3 -43 -6 -47 -33 -53 -41 -9 -308 -190 -406 -275
-86 -75 -121 -128 -130 -200 -4 -27 0 -47 11 -64 46 -71 15 -112 -306 -394
-106 -93 -222 -202 -257 -241 -35 -40 -87 -90 -117 -112 l-53 -41 -123 -8
c-80 -5 -146 -16 -188 -30 -58 -19 -98 -23 -375 -31 -170 -4 -391 -13 -490
-19 -99 -6 -286 -13 -415 -15 -233 -6 -423 -19 -490 -35 -19 -4 -48 -11 -64
-14 -60 -14 -17 -14 69 0 59 10 200 17 410 20 289 5 318 4 301 -10 -28 -23
-54 -25 -351 -30 -281 -4 -329 -10 -367 -48 -21 -21 -21 -21 -2 -35 21 -16 77
-14 199 7 99 18 292 8 375 -19 44 -14 92 -21 148 -21 60 0 83 -3 80 -12 -2 -6
-15 -15 -29 -19 -32 -9 -336 -27 -579 -35 -223 -6 -396 -31 -540 -76 -125 -40
-170 -63 -170 -88 0 -48 110 -49 320 -4 171 37 199 42 339 59 141 18 409 25
429 12 9 -6 9 -13 1 -29 -10 -18 -8 -24 7 -35 11 -8 28 -11 39 -8 11 3 79 23
150 43 l130 37 610 0 c601 0 636 2 850 35 33 5 148 16 255 25 346 27 613 66
721 104 63 23 194 37 419 46 354 14 677 47 839 84 203 47 287 59 408 60 213 2
468 33 551 67 57 23 34 52 -58 69 -19 4 -73 23 -120 43 l-85 36 -380 7 c-209
4 -423 12 -475 19 -75 10 -126 10 -240 1 -80 -6 -262 -16 -405 -21 -333 -13
-426 -22 -725 -70 -379 -60 -443 -69 -428 -55 7 7 56 38 108 70 96 58 341 236
545 395 162 127 252 187 433 291 349 201 406 224 721 289 261 54 250 50 476
152 209 94 410 175 705 285 374 138 457 158 740 173 338 19 572 50 641 85 29
15 69 12 69 -5 0 -4 14 -13 30 -19 17 -5 30 -15 30 -21 0 -15 -95 -220 -198
-425 -82 -164 -298 -524 -428 -711 -39 -55 -84 -107 -116 -131 -66 -50 -80
-57 -148 -73 -42 -10 -66 -24 -105 -60 -27 -26 -77 -63 -110 -81 -57 -32 -65
-34 -150 -32 -49 1 -111 7 -137 14 -40 9 -55 8 -88 -5 -22 -9 -71 -23 -110
-32 -38 -8 -70 -19 -70 -22 0 -4 116 -6 257 -5 233 2 256 1 238 -13 -16 -12
-37 -14 -100 -9 -66 5 -84 4 -100 -10 -20 -16 -19 -16 8 -12 22 3 25 2 16 -9
-13 -16 -45 -18 -54 -4 -3 5 -14 10 -23 10 -11 -1 0 -16 33 -46 85 -78 146
-124 156 -118 5 3 22 -4 38 -15 43 -31 73 -26 34 6 -47 37 -95 63 -117 63 -14
0 -28 5 -31 11 -4 6 -1 9 6 8 8 -1 21 1 30 5 8 4 29 0 45 -9 16 -8 37 -15 46
-15 11 0 15 -5 12 -15 -4 -9 10 -24 42 -45 41 -26 55 -30 90 -24 26 4 44 2 48
-5 5 -7 -5 -11 -28 -11 -45 0 -45 -11 -1 -44 39 -30 43 -42 18 -49 -10 -3 9
-3 42 0 56 5 59 4 40 -11 -20 -15 -19 -15 7 -16 15 0 30 -4 33 -10 3 -5 32
-10 63 -11 42 -1 51 -3 32 -9 l-25 -7 30 -12 c20 -9 31 -9 33 -2 4 13 56 14
80 2 28 -14 105 -33 137 -34 17 0 98 3 180 8 l150 7 40 38 c52 49 75 60 127
60 34 1 39 3 25 11 -22 13 -13 29 16 30 17 1 13 5 -16 16 -52 22 -42 37 26 41
31 2 57 7 57 12 0 6 -7 10 -16 10 -27 0 -94 23 -94 32 0 4 9 8 19 8 30 0 33
16 6 28 -31 15 -33 36 -2 29 12 -3 45 0 72 8 28 8 43 14 34 14 -24 1 -41 25
-28 38 8 8 5 13 -10 18 -24 7 -51 32 -51 46 0 6 8 5 20 -1 37 -20 35 15 -2 49
-44 41 -34 46 111 60 211 21 252 31 111 26 -69 -2 -209 -16 -313 -30 -235 -32
-306 -33 -348 -8 -18 10 -34 23 -36 30 -4 11 31 52 227 265 161 174 261 326
398 598 113 224 182 398 200 501 l8 44 79 0 c76 0 80 1 83 24 7 50 -6 70 -53
82 -25 6 -45 15 -45 19 0 13 69 103 98 127 l26 22 -26 6 c-39 10 -41 31 -13
92 14 31 25 60 25 67 -1 6 -20 28 -44 48 l-44 38 -37 -30 c-47 -37 -115 -43
-115 -10 0 17 -7 20 -47 20 -57 0 -238 -24 -308 -40 -162 -37 -522 -81 -750
-90 -377 -16 -477 -26 -598 -60 -59 -16 -114 -30 -122 -30 -9 0 -41 -9 -73
-21 -134 -49 -320 -110 -376 -125 -34 -8 -82 -28 -108 -44 -44 -26 -48 -27
-48 -10 0 13 -8 20 -27 22 -22 2 -33 13 -51 51 -21 43 -24 66 -26 193 l-2 143
27 12 c85 34 87 157 9 438 -16 58 -28 106 -27 108 2 1 20 -18 41 -43 l38 -45
8 -132 c9 -133 15 -166 31 -168 5 -1 15 -2 22 -3 6 0 20 -26 30 -57 19 -60 59
-113 80 -106 21 7 8 64 -42 185 -62 149 -81 213 -81 277 0 29 -11 84 -25 125
-35 104 -26 108 19 9 25 -54 43 -113 51 -164 15 -100 43 -165 84 -194 17 -13
45 -49 61 -81 37 -73 56 -88 47 -37 -4 21 -10 53 -14 73 l-6 37 34 -6 c47 -7
270 -57 279 -62 4 -2 10 -36 14 -74 3 -38 11 -82 16 -96 9 -23 13 -25 26 -14
13 10 15 31 12 108 l-3 96 103 11 c123 14 205 38 235 69 14 14 39 25 68 28 65
9 156 45 191 76 46 41 73 182 49 257 -5 16 -12 41 -15 56 -8 35 -53 88 -76 88
-21 0 -38 -19 -43 -48 -2 -12 -6 -24 -9 -27 -9 -9 -48 78 -48 107 0 29 -37 81
-53 75 -6 -2 -18 -16 -27 -32 -23 -41 -45 -46 -36 -9 3 16 9 52 12 81 6 46 4
54 -19 77 -33 33 -71 33 -103 1 -24 -24 -25 -30 -19 -90 11 -95 -3 -121 -74
-141 -70 -20 -250 -104 -274 -128 -16 -17 -17 -17 -24 1 -8 22 -23 33 -45 33
-23 0 -181 -142 -209 -187 -24 -38 -39 -31 -39 18 0 21 -6 28 -30 33 -26 5
-35 14 -52 58 -12 29 -48 103 -80 165 -32 61 -58 117 -58 124 0 8 16 10 58 6
94 -10 141 -32 207 -97 38 -37 72 -62 91 -66 53 -10 51 13 -7 72 -57 58 -59
77 -4 51 20 -9 49 -17 66 -17 16 0 44 -7 60 -16 29 -15 32 -14 97 22 149 84
198 122 178 141 -4 4 -30 -3 -58 -15 -28 -12 -53 -20 -56 -18 -2 3 34 45 81
94 64 68 89 102 102 141 16 50 13 91 -6 91 -17 0 -67 -61 -100 -124 -39 -73
-97 -156 -110 -156 -5 0 -8 3 -8 8 10 59 -19 44 -50 -27 -20 -48 -64 -100 -47
-56 71 179 59 224 -19 74 l-47 -91 -42 6 c-22 3 -77 12 -121 21 -44 8 -95 14
-112 15 -36 0 -38 2 -22 31 8 16 7 25 -7 40 -9 10 -23 19 -31 19 -7 0 -13 5
-13 10 0 13 -37 50 -49 50 -17 0 -41 -31 -41 -53 0 -12 -10 -35 -23 -51 -20
-25 -26 -27 -44 -17 -12 6 -30 11 -41 11 -29 0 -47 27 -87 130 -51 129 -73
217 -87 334 l-12 99 37 32 c36 32 349 193 452 233 28 11 104 45 171 76 66 31
152 63 190 72 119 28 195 55 300 110 57 28 125 57 153 63 27 6 92 33 143 60
51 28 141 68 200 90 146 55 343 151 679 329 156 83 313 164 349 181 62 28 68
29 129 19 94 -16 154 -1 320 81 142 70 182 96 204 136 15 27 28 118 27 182 -1
60 -15 45 165 180 140 106 171 142 144 168 -13 14 -20 14 -56 1 -22 -8 -94
-44 -159 -81 -139 -77 -338 -175 -358 -175 -8 0 -42 -19 -76 -41 l-61 -42 -29
28 c-27 26 -32 27 -56 16 -34 -15 -40 -7 -49 64 -8 63 -44 205 -56 225 -6 10
-7 -4 -3 -41 5 -47 3 -59 -15 -80 -11 -13 -31 -37 -44 -53 -19 -23 -29 -28
-50 -22 -34 8 -77 65 -88 117 -6 23 -19 55 -30 71 -12 16 -25 44 -30 63 -13
46 -36 45 -56 -2 l-16 -38 -23 70 c-13 38 -22 77 -19 86 4 10 -1 18 -13 21
-19 5 -47 78 -34 89 10 9 263 111 267 107 12 -15 25 -50 20 -57 -3 -5 -36 -26
-73 -47 -101 -56 -134 -76 -129 -81 3 -2 72 29 153 70 206 103 189 101 204 20
7 -37 16 -75 21 -83 17 -31 8 36 -30 228 -21 105 -35 192 -31 192 3 0 11 -5
16 -10 16 -16 41 -2 65 36 16 26 27 34 50 34 38 0 53 8 170 91 124 89 203 124
316 144 180 31 309 76 366 130 86 82 64 135 -56 135 -79 0 -424 -205 -632
-375 -128 -105 -135 -109 -165 -88 -23 16 -25 16 -44 -12 -55 -75 -50 -72 -84
-37 -35 36 -73 130 -75 187 l-2 40 60 13 c210 47 446 158 523 247 39 44 78
129 87 187 6 42 4 49 -19 73 -21 21 -33 25 -54 20 -41 -10 -66 -38 -158 -176
-120 -181 -173 -222 -340 -265 -114 -29 -149 -28 -150 1 0 11 -6 34 -13 50 -7
17 -20 63 -29 103 -15 69 -15 73 4 88 15 12 156 106 241 161 15 10 16 12 2 12
-9 1 -69 -30 -133 -69 -63 -38 -121 -71 -127 -72 -6 -2 -24 40 -40 97 -35 121
-46 195 -30 195 21 0 11 19 -11 22 -30 4 -37 52 -12 79 19 21 6 27 -14 7 -10
-10 -15 -10 -22 2 -15 23 -56 154 -90 282 -46 176 -76 236 -103 209 -8 -8 -5
-21 10 -48 29 -53 143 -422 143 -464 0 -9 -10 -21 -22 -26 -42 -20 -113 -76
-101 -80 7 -3 39 12 72 32 33 20 64 34 69 31 28 -17 10 -86 -22 -86 -16 0 -41
-28 -33 -36 3 -3 24 4 46 16 l41 21 11 -28 c14 -38 59 -224 59 -246 0 -9 -23
-33 -51 -53 -35 -26 -47 -39 -38 -45 13 -8 61 12 90 37 14 13 19 3 48 -96 18
-61 31 -118 29 -127 -4 -24 -84 -49 -103 -33 -8 7 -15 18 -15 25 0 23 -80 135
-96 135 -11 0 -14 -5 -9 -17 13 -31 19 -193 7 -193 -5 0 -8 8 -5 18 6 26 -18
42 -76 49 -48 5 -51 5 -61 -22 -12 -33 0 -52 44 -70 l30 -13 -42 -21 c-53 -27
-66 -27 -91 5 -28 35 -28 125 -1 196 11 29 16 56 11 61 -14 14 -48 -39 -71
-109 -21 -63 -22 -120 -4 -200 4 -17 -12 -32 -93 -85 -53 -35 -147 -99 -207
-142 -60 -44 -164 -110 -230 -147 -67 -38 -146 -87 -176 -110 l-55 -41 -13 31
c-16 39 -137 303 -159 348 -17 35 -33 42 -33 15 0 -9 50 -126 110 -260 61
-134 110 -250 110 -258 0 -7 -13 -42 -30 -77 -29 -62 -39 -118 -21 -118 5 0
12 15 16 33 10 51 37 107 51 107 19 0 66 -97 59 -120 -3 -10 -28 -32 -54 -49
-54 -35 -87 -68 -78 -78 8 -7 80 38 119 74 27 25 48 24 48 -3 0 -7 -16 -32
-36 -54 -20 -22 -35 -43 -32 -45 2 -2 21 7 41 20 20 14 38 25 41 25 6 0 32
-47 46 -85 9 -23 6 -28 -23 -45 -43 -27 -49 -26 -72 16 -19 35 -51 61 -62 50
-3 -3 4 -25 17 -49 28 -53 23 -70 -29 -97 -51 -26 -51 -26 -51 9 0 43 -30 76
-63 67 -17 -4 -27 -13 -27 -24 0 -48 -54 -55 -95 -12 -26 27 -30 28 -46 14
-39 -36 -26 -139 21 -164 12 -7 49 -13 82 -13 58 -2 61 -1 96 40 24 28 55 49
89 61 l52 20 -6 -32 c-14 -76 -87 -145 -182 -173 -70 -20 -130 -13 -188 23
-64 40 -84 70 -90 140 -6 70 19 147 73 221 19 27 41 58 50 71 22 30 11 39 -21
18 -39 -26 -98 -122 -192 -316 -92 -189 -152 -288 -202 -335 -35 -32 -41 -32
-154 12 -47 18 -49 18 -62 -1 -10 -14 -13 -35 -8 -77 5 -49 2 -62 -16 -88 -25
-34 -42 -39 -61 -16 -17 21 -29 19 -38 -6 -6 -14 -30 -28 -82 -46 -41 -14 -79
-29 -84 -34 -15 -13 6 -11 55 6 24 9 74 20 112 25 38 6 76 14 86 19 28 16 73
87 74 120 3 50 21 37 42 -31 l20 -63 5 70 5 70 33 -40 c17 -22 32 -46 32 -53
0 -8 13 0 29 17 24 26 37 31 74 31 48 0 61 9 71 52 4 18 19 33 51 48 45 22 47
22 108 5 73 -20 120 -17 125 7 2 13 -10 19 -55 28 -76 15 -126 31 -119 37 3 3
46 -2 95 -12 77 -16 100 -17 153 -7 90 17 176 62 236 125 49 53 61 79 77 169
4 29 13 42 36 54 17 8 37 13 45 10 7 -3 45 -71 83 -150 67 -141 108 -212 118
-203 2 3 -18 49 -45 103 -56 112 -76 156 -102 231 -17 47 -17 54 -4 68 25 24
48 17 69 -21 23 -44 75 -71 148 -80 64 -8 96 2 225 64 68 33 104 58 137 94 79
88 97 208 31 208 -40 0 -83 -46 -127 -135 -52 -106 -95 -147 -184 -174 -94
-29 -137 -28 -175 7 -19 16 -32 38 -33 56 -2 27 6 33 133 103 74 41 208 113
296 159 l162 85 27 -73 c46 -123 54 -138 65 -138 8 0 8 6 0 20 -6 10 -23 58
-39 105 l-30 86 22 19 c27 25 34 25 43 -2 5 -16 1 -27 -16 -40 -25 -20 -26
-15 35 -94 17 -22 33 -40 36 -42 40 -19 42 -27 18 -81 -25 -59 -19 -83 21 -89
31 -5 40 13 41 83 0 33 3 53 6 45 3 -8 24 -52 45 -97 40 -85 70 -113 118 -113
33 0 77 30 97 67 9 18 21 29 26 24 18 -18 7 -136 -21 -216 l-27 -80 -175 -88
c-201 -100 -361 -165 -575 -232 -200 -62 -222 -71 -275 -110 -58 -42 -182
-103 -230 -111 -19 -4 -49 -19 -67 -34 -40 -35 -169 -85 -259 -101 -38 -6 -91
-20 -117 -30 -26 -11 -104 -33 -172 -49 -68 -17 -157 -46 -197 -64 -41 -18
-88 -37 -106 -41 -18 -3 -45 -13 -60 -20 -15 -7 -95 -23 -179 -35 -139 -19
-154 -20 -182 -6 -16 9 -33 26 -36 38 -4 11 -50 63 -101 113 -52 51 -94 98
-94 105 0 7 -12 24 -26 37 -25 23 -26 27 -19 96 9 103 22 156 48 202 20 35 27
40 55 38 18 -2 46 -4 64 -5 26 -3 36 3 54 30 13 18 24 38 26 44 3 8 14 8 39
-1 32 -10 41 -9 81 14 41 23 48 33 77 105 17 43 31 86 31 94 0 9 9 25 19 35
11 11 23 43 28 73 8 50 10 53 36 50 21 -3 29 2 39 25 7 15 13 30 14 31 1 2 17
-7 34 -20 30 -22 32 -22 44 -5 16 21 30 209 21 271 -6 36 -3 55 15 91 12 25
25 45 29 45 5 0 15 -18 23 -39 22 -55 102 -188 143 -236 34 -40 61 -42 35 -2
-63 100 -96 159 -116 215 -34 89 -30 99 26 62 82 -54 90 -39 25 49 -25 34 -45
64 -45 67 0 3 34 -26 76 -65 93 -87 117 -95 74 -25 l-21 33 41 -16 c22 -9 43
-13 47 -10 3 4 -30 41 -74 84 -44 43 -86 89 -93 102 -12 23 -11 23 16 17 61
-14 104 -18 104 -11 0 5 -7 17 -17 27 -15 17 -14 18 18 18 40 0 123 35 115 48
-3 5 -32 15 -65 21 -71 14 -82 25 -41 40 35 12 40 37 9 46 -19 6 -17 8 13 23
24 13 33 24 33 42 0 22 -5 25 -43 28 -37 3 -42 6 -37 22 4 13 -3 25 -24 41
-36 27 -33 34 16 42 42 7 86 34 78 47 -3 4 -22 11 -42 15 -106 20 -127 75 -30
75 52 0 107 12 101 21 -3 5 -24 9 -47 10 -23 0 -60 3 -82 7 l-40 8 45 26 c25
15 94 47 153 72 60 24 111 47 115 50 15 16 -11 14 -69 -4 -79 -24 -76 -24 -53
1 38 43 208 138 419 235 101 46 81 56 -28 15 -118 -44 -452 -123 -507 -119
l-45 3 43 42 c81 78 699 494 972 654 63 38 124 75 135 84 19 15 18 16 -16 11
-90 -11 -285 -113 -581 -301 -235 -150 -369 -216 -452 -222 -53 -5 -63 -2 -80
16 -19 20 -19 23 -2 82 38 136 158 325 275 431 43 39 63 66 75 101 24 70 40
98 80 136 44 43 46 58 5 34 -48 -28 -87 -78 -103 -134 -18 -60 -32 -79 -56
-79 -11 0 -65 -53 -128 -124 -102 -113 -261 -268 -297 -289 -12 -6 -15 -2 -15
18 0 31 53 173 88 235 42 74 173 268 264 391 47 63 122 171 168 240 46 68 118
174 160 234 42 61 82 124 89 142 19 46 8 65 -14 23 -9 -19 -48 -78 -84 -130
-37 -52 -111 -158 -164 -235 -53 -77 -128 -178 -168 -225 -39 -47 -108 -141
-154 -210 -128 -191 -309 -381 -349 -367 -23 8 -5 67 59 192 100 197 91 201
-52 23 -90 -112 -116 -138 -129 -125 -9 8 53 266 91 380 20 60 63 170 96 244
33 75 57 138 54 141 -17 17 -102 -106 -241 -350 -49 -87 -92 -158 -96 -158
-17 0 55 173 172 415 225 465 294 600 364 703 81 121 95 154 45 106 -69 -65
-273 -400 -464 -759 -133 -251 -217 -395 -231 -395 -39 0 117 765 215 1053 19
54 26 87 18 84 -17 -5 -121 -245 -150 -347 -102 -350 -248 -773 -294 -852 -20
-34 -66 -64 -83 -53 -23 14 -3 336 31 507 24 119 79 285 153 457 80 187 76
195 -30 58 -95 -122 -117 -169 -159 -338 -20 -79 -45 -173 -56 -209 -11 -36
-24 -86 -29 -111 -5 -26 -20 -70 -33 -99 l-24 -52 -6 39 c-4 21 -7 55 -7 76 0
20 -4 37 -9 37 -6 0 -31 -66 -58 -147 -47 -147 -48 -148 -113 -215 -77 -79
-101 -85 -150 -37 -39 40 -64 89 -85 169 -26 101 -55 317 -55 413 0 61 -5 95
-15 111 -14 21 -14 26 0 52 20 39 19 47 -9 77 -29 31 -36 86 -35 247 1 146 -2
166 -62 332 -27 76 -49 141 -49 146 0 14 -26 33 -33 25z m4063 -2377 c0 -8 5
-16 12 -18 25 -9 -43 -77 -106 -107 -75 -35 -236 -93 -248 -89 -9 3 98 51 201
90 25 10 54 27 65 39 l21 22 -23 -6 -22 -5 21 29 c20 29 57 59 71 59 5 0 8 -6
8 -14z m418 -98 c-2 -7 11 -15 27 -18 25 -6 27 -8 12 -15 -9 -4 -26 -5 -37 -2
-24 6 -25 1 -4 -20 13 -13 13 -18 2 -23 -24 -14 -155 -42 -174 -38 -23 4 -32
38 -10 38 9 0 16 -4 16 -10 0 -23 19 -8 22 18 2 21 14 33 53 54 52 29 97 36
93 16z m-1108 -117 c0 -5 3 -16 6 -25 4 -11 1 -16 -10 -16 -10 0 -16 9 -16 25
0 14 5 25 10 25 6 0 10 -4 10 -9z m868 -3 c-3 -7 -13 -15 -24 -17 -16 -3 -17
-1 -5 13 16 19 34 21 29 4z m-628 -28 c-20 -13 -43 -13 -35 0 3 6 16 10 28 10
18 0 19 -2 7 -10z m-351 -9 c7 -5 10 -14 7 -20 -9 -14 -53 -15 -61 -1 -15 25
24 40 54 21z m-2989 -72 c-7 -24 -5 -34 11 -50 27 -27 44 -24 129 18 41 21 78
39 83 41 4 2 7 -12 7 -30 0 -19 5 -39 12 -46 21 -21 71 -13 118 18 25 16 51
30 57 30 7 0 25 -18 39 -40 26 -40 33 -41 66 -12 16 13 22 13 59 -3 22 -10 49
-31 60 -47 25 -35 35 -35 53 0 l14 27 11 -27 c6 -16 12 -28 15 -28 2 0 15 19
29 43 30 50 119 137 142 137 19 0 19 -3 -6 -52 -32 -64 -10 -65 58 -3 34 30
64 55 67 55 3 0 0 -14 -6 -31 -14 -39 -8 -43 37 -25 50 21 55 20 55 -8 0 -37
17 -40 51 -11 41 34 51 23 14 -15 -33 -35 -28 -49 8 -25 24 16 26 15 29 -6 3
-21 5 -20 52 16 l49 37 -5 -56 c-3 -35 -12 -67 -25 -84 -25 -35 -93 -72 -158
-88 l-50 -12 58 -1 c40 -1 70 5 98 20 22 11 53 19 67 17 25 -3 27 -7 30 -53 5
-75 -5 -115 -29 -115 -31 0 -41 -43 -35 -160 5 -98 5 -102 -7 -53 -7 29 -18
58 -26 65 -11 11 -13 7 -8 -27 5 -39 5 -39 -10 -17 -19 28 -37 29 -28 2 4 -12
2 -26 -3 -33 -5 -7 -12 -30 -15 -52 -19 -133 -18 -140 1 -202 11 -35 16 -61
12 -58 -5 3 -20 41 -35 84 -24 73 -38 95 -95 144 -12 10 -20 29 -20 47 0 40
-17 38 -25 -2 -6 -27 -9 -29 -17 -14 -6 10 -8 31 -6 47 6 36 -9 38 -23 3 -14
-39 6 -89 55 -137 22 -22 33 -38 24 -34 -24 9 -23 -3 7 -54 14 -24 25 -51 25
-60 0 -9 18 -39 40 -65 43 -52 53 -81 23 -65 -10 5 -26 12 -35 15 -20 6 -39
48 -58 125 -9 37 -25 67 -55 101 -24 27 -45 61 -48 77 -3 15 -8 45 -12 66 -9
54 -25 46 -25 -13 0 -61 19 -111 56 -145 15 -14 24 -28 21 -31 -3 -4 -17 7
-32 22 -14 16 -39 45 -56 63 -29 32 -31 39 -26 87 6 55 33 118 64 146 10 9 38
26 63 37 41 18 43 20 17 20 -35 1 -63 -13 -105 -53 -50 -46 -62 -77 -62 -154
0 -63 3 -75 35 -123 20 -30 51 -67 69 -84 40 -36 146 -190 146 -212 0 -14 -10
-15 -71 -10 -76 6 -144 33 -144 57 0 8 -4 16 -10 18 -5 1 -10 -10 -10 -24 0
-36 38 -63 100 -70 79 -9 95 -13 95 -29 0 -33 -22 -115 -30 -110 -12 8 -18 -6
-40 -89 -32 -124 -70 -178 -70 -98 0 60 -14 60 -25 0 -9 -48 -13 -53 -38 -56
-36 -4 -57 13 -57 47 -1 26 -1 25 -15 -6 -18 -41 -63 -64 -133 -66 -43 -2 -57
1 -58 13 -11 73 -16 90 -26 84 -6 -4 -9 -30 -5 -69 l5 -63 -64 -7 c-35 -3 -68
-4 -74 0 -5 3 -10 25 -10 48 0 23 -5 49 -10 57 -7 11 -10 3 -10 -28 0 -66 -23
-102 -67 -102 -30 0 -43 28 -43 89 0 27 -4 52 -9 55 -11 7 -21 -27 -21 -72 0
-66 -64 -44 -75 27 -11 66 -15 81 -24 81 -5 0 -7 -9 -4 -20 3 -11 3 -27 -1
-36 -5 -14 -7 -14 -22 0 -8 9 -25 16 -36 16 -12 0 -41 11 -65 25 -42 25 -52
46 -34 74 7 12 14 10 36 -8 15 -11 32 -21 36 -21 14 0 10 30 -8 61 -16 26 -16
31 -3 39 30 19 58 10 89 -27 34 -43 42 -26 11 25 -18 29 -18 33 -4 39 9 3 32
1 52 -5 40 -13 47 -10 39 13 -4 8 -17 15 -29 15 -62 -1 -182 -31 -243 -61 -61
-29 -76 -33 -144 -30 -87 2 -125 17 -129 49 -4 25 22 72 38 72 6 0 3 -12 -6
-26 -17 -25 -17 -25 9 -18 20 4 27 2 27 -9 0 -19 66 -51 88 -42 14 5 12 8 -8
19 -18 9 -24 19 -23 39 2 25 -1 26 -25 21 -27 -7 -27 -7 -8 15 19 21 19 21 -4
21 -19 0 -21 3 -12 12 18 18 15 25 -19 37 -28 9 -30 9 -24 -9 9 -28 -3 -44
-21 -29 -10 8 -17 9 -28 0 -20 -17 -44 14 -29 37 8 14 25 17 94 15 46 -1 105
-5 132 -9 40 -6 47 -4 47 10 0 22 24 31 165 62 66 14 140 35 165 45 132 58
175 200 104 347 -29 58 -58 78 -159 107 -33 10 -66 20 -74 23 -10 4 -13 1 -8
-11 10 -26 -7 -28 -49 -7 -46 24 -61 25 -44 5 19 -23 9 -25 -53 -11 -55 13
-56 13 -54 -8 2 -17 -4 -22 -31 -24 -22 -2 -34 2 -38 12 -10 26 -24 18 -24
-13 0 -36 -19 -50 -35 -28 -7 10 -19 17 -27 17 -8 0 -19 5 -26 12 -9 9 -12 9
-12 -3 0 -8 5 -20 12 -27 20 -20 2 -24 -30 -8 -30 15 -41 39 -42 86 -1 25 -1
25 -16 5 -19 -25 -12 -80 14 -109 18 -20 19 -34 13 -220 -4 -140 -10 -201 -18
-203 -9 -3 -9 3 -1 25 9 24 8 39 -6 76 -21 56 -36 59 -36 9 0 -51 -13 -71 -34
-54 -20 17 -46 7 -46 -18 0 -22 35 -51 62 -51 13 0 18 -8 18 -29 0 -59 31
-166 59 -201 41 -52 41 -52 21 -110 -22 -62 -25 -154 -9 -229 8 -39 22 -62 62
-104 119 -125 248 -443 209 -513 -10 -17 -13 -15 -28 21 -9 22 -20 72 -25 110
-4 39 -15 88 -24 110 -21 48 -76 127 -125 176 -92 94 -191 269 -151 269 6 0
11 -12 11 -27 1 -24 2 -26 11 -10 6 10 13 68 16 129 5 90 4 110 -7 106 -8 -2
-18 -17 -23 -34 -5 -16 -11 -36 -14 -44 -8 -21 -50 157 -63 264 -13 106 -55
253 -103 356 -26 54 -32 78 -25 87 12 14 2 30 -43 74 -25 24 -26 29 -15 63 6
21 12 30 14 22 2 -8 12 -18 23 -21 14 -5 18 -12 13 -31 -5 -19 -2 -24 13 -24
32 0 33 10 8 51 -14 21 -26 43 -27 48 -5 17 103 99 172 132 l65 30 -4 76 -3
76 35 -21 c31 -20 36 -21 48 -6 11 14 9 19 -11 34 l-25 19 23 30 c12 17 22 38
22 48 0 10 5 25 10 33 8 13 10 12 10 -3 0 -20 23 -32 40 -22 8 5 8 11 0 21 -9
10 -4 23 23 56 19 24 40 54 47 68 l13 25 10 -23 c6 -12 13 -22 17 -22 4 0 31
13 61 30 30 16 57 30 61 30 4 0 3 -14 -2 -31z m3294 4 c20 -41 66 -197 66
-227 0 -35 -10 -33 -43 9 -44 55 -56 48 -91 -50 -7 -19 -8 -19 -20 5 -8 14
-19 49 -26 78 -7 29 -20 62 -29 74 -16 20 -16 23 3 74 22 56 29 61 88 63 31 1
40 -4 52 -26z m-164 -14 c0 -26 -44 -81 -83 -103 -68 -39 -120 -51 -157 -36
-39 16 -65 50 -47 62 6 4 31 8 53 8 28 0 62 11 100 31 86 46 134 59 134 38z
m-160 -24 c-14 -8 -32 -14 -40 -14 -8 0 -1 7 15 14 39 18 57 18 25 0z m-1569
-15 l24 -20 -25 3 c-17 1 -25 -3 -25 -13 0 -10 19 -19 60 -28 87 -20 95 -25
46 -31 -56 -7 -61 -22 -19 -52 l33 -24 -65 -5 -65 -5 42 -22 c49 -27 60 -29
43 -8 -7 8 14 1 46 -15 33 -16 66 -30 74 -31 8 0 4 -5 -10 -9 -36 -12 -98 -12
-105 0 -8 13 -25 13 -25 -1 0 -6 9 -24 21 -40 17 -24 18 -29 5 -29 -27 0 -17
-28 18 -49 18 -12 40 -21 48 -21 8 0 23 -7 34 -16 18 -14 15 -15 -36 -9 -146
17 -155 19 -152 40 12 81 11 115 -6 234 -25 172 -18 199 39 151z m-1967 -85
c22 -56 31 -62 64 -38 39 28 62 35 62 18 0 -8 16 -26 35 -41 20 -15 33 -29 31
-32 -3 -3 -11 0 -18 5 -15 12 -88 22 -88 13 0 -4 11 -17 24 -29 14 -13 30 -45
36 -72 20 -83 -16 -116 -117 -106 -26 2 -58 8 -70 12 -33 11 -29 -12 8 -51
l30 -31 -35 -22 c-39 -25 -72 -66 -98 -123 -17 -37 -17 -38 10 -69 l26 -32
-25 9 c-31 11 -89 8 -102 -5 -8 -8 2 -11 32 -11 38 0 49 -5 85 -42 39 -40 40
-43 19 -46 -33 -5 -28 -16 13 -31 20 -7 43 -26 55 -44 25 -41 24 -55 -1 -32
-22 20 -19 24 -76 -119 -10 -26 -23 -48 -29 -47 -6 0 -13 47 -16 103 -3 57 -9
117 -13 134 -6 22 -4 34 8 43 18 15 21 31 7 31 -5 0 -39 -30 -76 -67 -70 -70
-74 -69 -18 5 32 42 42 72 24 72 -11 0 -57 -35 -104 -79 l-37 -35 2 61 c2 34
0 65 -4 69 -4 3 -20 -1 -35 -11 -24 -16 -23 -13 10 27 42 51 48 73 16 63 -31
-10 -22 5 50 85 35 39 61 73 59 76 -3 2 -26 -3 -52 -12 -26 -9 -49 -14 -51
-12 -2 2 32 28 77 57 66 44 88 54 120 53 46 -2 48 8 8 31 -16 10 -30 22 -30
28 0 17 -84 9 -162 -15 -43 -14 -78 -21 -78 -16 0 4 39 24 88 45 48 20 97 43
110 51 25 17 30 44 6 44 -20 0 75 109 96 110 8 0 33 16 55 35 22 19 43 34 46
35 4 0 14 -20 23 -45z m3723 -72 c17 -54 29 -103 26 -110 -12 -32 -69 -35
-313 -18 -216 14 -246 15 -327 1 -48 -9 -94 -16 -101 -16 -23 0 214 171 295
213 44 23 56 22 107 -15 35 -24 55 -31 91 -30 47 0 55 -7 30 -28 -18 -15 -10
-31 11 -23 8 3 21 -3 29 -13 13 -18 14 -18 20 1 4 11 11 30 15 42 6 15 5 23
-3 26 -8 3 -5 10 8 20 11 9 29 22 40 31 11 8 25 16 31 16 6 0 24 -44 41 -97z
m-5077 2 c0 -8 -54 -32 -107 -48 -75 -22 -66 -6 15 25 65 26 92 33 92 23z
m5228 -45 c13 -16 31 -30 42 -30 25 0 41 -31 42 -83 0 -23 7 -50 15 -59 20
-22 11 -33 -49 -64 -41 -21 -52 -23 -59 -12 -15 23 -10 42 19 66 20 18 22 22
7 17 -11 -4 -27 -8 -35 -9 -19 -1 -50 60 -50 101 0 32 28 103 40 103 3 0 16
-13 28 -30z m-78 -130 c11 -21 20 -44 20 -50 0 -6 -24 -21 -52 -34 -64 -28
-218 -79 -223 -75 -2 2 -20 40 -41 84 -46 99 -59 74 -15 -30 28 -64 29 -71 14
-82 -33 -25 -48 -14 -86 62 -20 41 -41 75 -47 75 -16 0 -12 -17 20 -80 17 -33
30 -66 30 -73 0 -8 -22 -24 -50 -36 -50 -21 -66 -41 -32 -41 9 1 28 7 42 15
44 25 68 19 89 -23 11 -21 16 -43 12 -50 -7 -12 -471 -274 -527 -298 -31 -13
-32 -12 -38 11 -4 14 -20 32 -37 41 -30 15 -50 15 -109 -1 -23 -6 -24 -6 -5 6
20 13 19 13 -4 19 -41 9 -49 35 -21 65 l24 25 -30 -6 c-36 -7 -43 0 -73 78
-22 54 -22 58 -6 91 26 55 232 261 285 284 48 22 209 57 236 51 26 -5 -17 -52
-70 -77 -46 -21 -80 -61 -53 -61 8 0 20 7 27 15 31 37 41 4 10 -35 -28 -35
-25 -43 12 -36 52 10 78 42 78 96 0 48 21 78 64 94 10 3 89 1 175 -5 227 -17
281 -16 316 3 41 23 42 23 65 -22z m-1063 -173 c-41 -46 -82 -96 -92 -111
l-18 -28 -15 27 c-27 53 -3 82 138 168 30 18 57 32 59 31 1 -2 -31 -40 -72
-87z m413 62 c-7 -11 -14 -19 -16 -16 -7 7 7 37 17 37 6 0 5 -9 -1 -21z
m-1134 -10 c3 -5 1 -9 -5 -9 -17 0 -41 12 -41 20 0 10 38 1 46 -11z m-42 -45
c4 -10 1 -14 -6 -12 -15 5 -23 28 -10 28 5 0 13 -7 16 -16z m21 -44 c3 -5 1
-10 -4 -10 -6 0 -11 5 -11 10 0 6 2 10 4 10 3 0 8 -4 11 -10z m1557 -39 c23
-46 4 -80 -36 -65 -22 9 -38 62 -25 86 15 27 41 19 61 -21z m-2770 20 c46 -17
109 -176 94 -237 -9 -35 -63 -33 -107 3 l-32 27 8 -25 c20 -63 55 -104 55 -63
0 12 7 14 33 9 40 -9 41 -10 33 -31 -3 -9 -13 -14 -21 -10 -17 6 -30 -10 -15
-19 26 -16 6 -35 -56 -55 -36 -11 -69 -18 -74 -15 -4 2 -10 18 -13 35 -4 16
-12 30 -18 30 -7 0 -9 -10 -6 -29 8 -36 -3 -46 -71 -60 -83 -17 -123 -15 -129
9 -3 11 -9 20 -13 20 -5 0 -12 -9 -15 -20 -3 -11 -15 -20 -26 -20 -22 0 -23 4
-9 31 14 25 -2 25 -25 -1 -17 -18 -20 -19 -36 -4 -25 23 -41 67 -37 105 2 26
9 35 28 40 l25 6 -27 11 c-31 13 -35 32 -16 94 14 48 30 56 63 34 32 -21 32
-6 0 24 -14 13 -25 27 -25 32 0 11 47 10 88 -1 36 -11 44 2 12 19 -29 15 -25
28 13 38 39 11 47 7 47 -21 1 -21 1 -21 15 -3 8 10 16 23 18 29 7 21 194 35
239 18z m1023 -201 c-19 -37 -24 -60 -20 -81 8 -34 -10 -40 -19 -6 -12 44 -6
70 24 104 17 18 30 39 31 46 0 9 2 9 5 0 3 -6 -7 -35 -21 -63z m-116 -71 c16
-46 27 -86 24 -89 -12 -12 -53 59 -58 100 -3 25 -8 56 -11 70 -11 52 17 3 45
-81z m1941 49 c0 -6 -7 -5 -15 2 -8 7 -15 17 -15 22 0 6 7 5 15 -2 8 -7 15
-17 15 -22z m1210 -73 c-26 -28 -98 -58 -126 -53 -15 2 -18 -2 -16 -20 2 -13
-2 -30 -10 -39 -26 -33 -92 -73 -117 -73 -15 0 -36 -7 -48 -15 -12 -8 -71 -40
-132 -70 -103 -52 -156 -94 -148 -119 2 -6 18 -16 35 -22 23 -7 29 -13 21 -21
-17 -17 -14 -71 5 -92 26 -29 16 -52 -37 -88 -81 -54 -207 -69 -207 -24 0 28
24 42 82 50 l53 7 -45 15 c-60 21 -62 41 -8 96 41 42 43 46 41 98 -2 49 0 56
28 80 35 29 92 60 148 80 20 7 61 22 91 34 53 21 54 21 30 1 -27 -21 -17 -26
24 -10 16 6 26 17 26 30 0 24 64 67 215 147 103 54 141 57 95 8z m-1400 -54
c-6 -22 -15 -43 -21 -47 -12 -7 -7 16 13 69 16 40 21 26 8 -22z m-3436 -100
c-4 -25 -13 -57 -20 -71 l-13 -25 -1 28 c0 18 -5 27 -16 27 -14 0 -16 9 -10
62 10 81 14 87 43 54 21 -24 23 -35 17 -75z m2861 66 c25 -19 13 -60 -25 -87
-36 -26 -46 -21 -61 30 -9 31 -9 43 1 55 15 19 60 20 85 2z m845 -16 c0 -26
-10 -51 -21 -51 -10 0 -12 31 -3 54 9 22 24 20 24 -3z m-1942 -23 c6 -18 13
-53 17 -78 9 -63 -10 -40 -29 36 -19 72 -19 74 -7 74 5 0 14 -15 19 -32z m-77
-115 c-9 -16 -10 -15 -11 9 0 14 3 35 8 45 6 15 8 14 10 -9 2 -15 -1 -35 -7
-45z m-1761 33 c0 -20 -62 -177 -67 -172 -8 7 26 158 38 173 15 17 29 17 29
-1z m4194 -65 c3 -4 -3 -16 -14 -26 -26 -23 -25 -35 0 -28 15 4 23 -2 34 -28
17 -41 13 -48 -13 -25 -25 23 -45 11 -37 -20 4 -13 2 -24 -3 -24 -20 0 -26 66
-9 107 6 15 10 34 9 41 -2 14 25 17 33 3z m379 -12 c23 -27 16 -33 -36 -34
-28 0 -53 -8 -74 -23 -19 -13 -33 -18 -33 -12 0 18 60 70 80 70 11 0 22 5 25
10 9 15 19 12 38 -11z m-4876 -81 c-3 -8 -6 -5 -6 6 -1 11 2 17 5 13 3 -3 4
-12 1 -19z m4893 6 c0 -3 -9 -19 -21 -35 -21 -30 -59 -40 -59 -14 0 27 -29 4
-36 -28 -8 -37 -19 -47 -56 -47 -24 0 -28 4 -27 28 1 17 3 21 6 9 3 -12 12
-17 26 -15 17 2 22 10 22 35 0 17 3 34 7 38 21 21 138 46 138 29z m-5399 -71
c-13 -24 -20 -31 -21 -20 0 22 33 82 38 68 2 -5 -6 -27 -17 -48z m4935 -30
c30 -67 4 -137 -61 -159 -37 -13 -41 -12 -57 6 -18 22 -22 19 -32 -23 -10 -44
-31 -26 -34 29 -3 67 8 83 42 60 31 -20 46 -14 46 20 0 17 8 27 24 33 26 11
36 30 36 70 0 35 14 50 18 19 2 -12 10 -37 18 -55z m-4016 2 c0 -18 -1 -18
-16 -3 -10 10 -14 23 -10 34 6 16 8 16 16 4 6 -8 10 -24 10 -35z m4490 5 c0
-12 -17 -32 -42 -50 -39 -29 -82 -44 -45 -16 24 18 21 29 -5 20 -21 -6 -20 -4
4 15 15 12 38 21 50 19 17 -2 22 1 20 15 -2 9 2 17 8 17 5 0 10 -9 10 -20z
m-4140 -25 c-7 -9 -15 -13 -17 -11 -7 7 7 26 19 26 6 0 6 -6 -2 -15z m145 6
c3 -5 1 -12 -5 -16 -5 -3 -10 1 -10 9 0 18 6 21 15 7z m-1455 -31 c0 -5 -4
-10 -9 -10 -5 0 -13 -9 -16 -20 -3 -11 -10 -20 -15 -20 -10 0 -3 28 13 48 11
14 27 16 27 2z m517 -52 c-3 -8 -6 -5 -6 6 -1 11 2 17 5 13 3 -3 4 -12 1 -19z
m694 -53 l-9 -40 -1 51 c-1 28 2 54 7 58 11 12 14 -25 3 -69z m239 51 c7 -9 5
-19 -5 -32 -12 -15 -14 -15 -9 -2 3 10 -2 20 -15 28 -12 6 -21 15 -21 19 0 12
37 2 50 -13z m72 -23 c9 -10 19 -29 23 -42 8 -27 -2 -140 -15 -161 -15 -25
-18 -7 -7 46 9 44 8 61 -10 113 -20 63 -18 74 9 44z m-222 -27 c-13 -34 -33
-66 -43 -66 -4 0 0 15 9 33 28 55 51 77 34 33z m3424 15 c10 -16 -55 -131 -87
-155 -82 -60 -91 -39 -17 41 39 41 60 72 60 88 0 28 32 47 44 26z m-4814 -27
c0 -8 -5 -12 -10 -9 -6 4 -8 11 -5 16 9 14 15 11 15 -7z m1575 -25 c4 -16 2
-30 -4 -33 -6 -4 -11 1 -11 11 0 10 -3 29 -6 43 -5 17 -4 22 4 15 6 -5 14 -22
17 -36z m-985 16 c0 -8 -4 -15 -10 -15 -5 0 -7 7 -4 15 4 8 8 15 10 15 2 0 4
-7 4 -15z m1100 -5 c0 -5 -5 -10 -11 -10 -5 0 -7 5 -4 10 3 6 8 10 11 10 2 0
4 -4 4 -10z m-1740 -36 c0 -16 -9 -18 -30 -4 -13 9 -13 11 0 19 17 12 30 5 30
-15z m2500 16 c0 -5 -4 -10 -9 -10 -6 0 -13 5 -16 10 -3 6 1 10 9 10 9 0 16
-4 16 -10z m-195 -31 c4 -11 4 -23 1 -27 -10 -9 -39 25 -32 37 11 17 24 13 31
-10z m45 -11 c0 -25 -3 -29 -10 -18 -13 20 -13 50 0 50 6 0 10 -15 10 -32z
m40 17 c0 -8 -4 -15 -10 -15 -5 0 -10 7 -10 15 0 8 5 15 10 15 6 0 10 -7 10
-15z m2250 -30 c-49 -51 -133 -74 -104 -28 8 13 104 60 128 62 6 1 -5 -15 -24
-34z m-4720 -10 c0 -19 -36 -39 -45 -25 -8 13 13 40 31 40 8 0 14 -7 14 -15z
m1803 -56 c-5 -5 -7 7 -4 29 5 34 6 35 9 8 2 -16 0 -32 -5 -37z m-1142 -44
c-29 -64 -49 -87 -36 -42 17 55 60 140 63 124 2 -10 -10 -47 -27 -82z m1234
85 c3 -5 1 -10 -4 -10 -6 0 -11 5 -11 10 0 6 2 10 4 10 3 0 8 -4 11 -10z m275
-31 c0 -52 -24 -48 -28 4 -2 28 1 37 12 37 12 0 16 -11 16 -41z m68 -8 c-2
-15 -10 -27 -20 -29 -14 -3 -18 4 -18 31 0 18 3 37 7 40 12 13 34 -16 31 -42z
m-303 30 c3 -5 1 -12 -5 -16 -5 -3 -10 1 -10 9 0 18 6 21 15 7z m120 -21 c-3
-5 -10 -10 -16 -10 -5 0 -9 5 -9 10 0 6 7 10 16 10 8 0 12 -4 9 -10z m-2151
-33 c-3 -9 -10 -17 -15 -17 -11 0 -12 34 -2 43 11 12 24 -8 17 -26z m2030 3
c17 0 42 -9 56 -20 31 -24 17 -25 -70 -2 -71 19 -90 28 -90 43 0 5 16 2 36 -6
20 -8 51 -15 68 -15z m2626 15 c0 -16 -27 -32 -37 -21 -7 7 16 36 28 36 5 0 9
-7 9 -15z m91 -18 c-1 -4 -1 -17 -1 -28 0 -12 -16 -37 -35 -55 -32 -30 -133
-93 -177 -109 -33 -13 -7 34 56 101 60 63 63 64 73 42 10 -22 11 -21 37 20 15
24 32 42 37 40 6 -2 10 -7 10 -11z m-3307 -76 c25 -38 46 -74 46 -81 0 -6 11
-26 24 -43 14 -18 52 -88 85 -157 l61 -125 -7 -81 c-6 -84 0 -134 17 -134 6 0
10 31 10 70 0 39 4 70 8 70 10 0 80 -146 84 -175 4 -28 -38 -151 -63 -186 -23
-33 -19 -50 6 -29 24 20 41 59 55 123 6 31 16 55 21 51 12 -7 44 -72 53 -106
7 -31 -14 -58 -45 -58 -17 0 -19 5 -14 38 6 37 6 37 -9 12 -8 -14 -15 -36 -16
-49 0 -27 -36 -71 -57 -71 -8 0 -27 10 -43 21 -24 18 -36 20 -77 14 -26 -4
-60 -13 -75 -21 -15 -8 -42 -14 -61 -14 -27 0 -36 5 -45 25 -16 35 -16 36 14
25 39 -15 39 -13 1 30 -104 115 -148 322 -98 467 17 50 21 87 21 180 0 175 18
273 50 273 4 0 28 -31 54 -69z m3032 37 c-11 -15 -16 -18 -16 -7 0 16 21 42
28 34 2 -2 -3 -14 -12 -27z m-2529 -14 c57 -28 180 -136 202 -177 11 -21 11
-29 2 -41 -10 -11 -8 -17 10 -29 20 -15 21 -17 5 -48 -9 -18 -16 -45 -16 -60
0 -17 -8 -34 -22 -43 -23 -16 -68 -22 -68 -8 -4 141 -90 311 -183 358 -35 19
-112 20 -133 3 -23 -19 -29 -2 -8 22 47 54 132 63 211 23z m230 -26 c-2 -13
-4 -5 -4 17 -1 22 1 32 4 23 2 -10 2 -28 0 -40z m54 15 c-9 -16 -10 -14 -11
12 0 21 3 26 11 18 8 -8 8 -16 0 -30z m-2281 6 c0 -11 -4 -17 -10 -14 -5 3
-10 13 -10 21 0 8 5 14 10 14 6 0 10 -9 10 -21z m4596 -5 c-11 -7 -22 -12 -25
-9 -2 3 4 12 15 19 10 8 21 12 24 9 3 -2 -4 -11 -14 -19z m-2240 -26 c-8 -47
-26 -76 -26 -41 0 37 12 83 23 83 6 0 7 -16 3 -42z m-2434 -26 c-4 -57 -20
-65 -36 -19 -8 22 -6 31 14 52 13 14 24 24 25 22 1 -1 -1 -26 -3 -55z m784 -9
c-40 -79 -79 -133 -45 -63 27 57 70 130 75 130 2 0 -11 -30 -30 -67z m1507
-12 c35 -39 92 -139 84 -147 -2 -2 -24 26 -50 64 -25 37 -64 85 -86 107 -23
21 -41 43 -41 48 0 13 53 -28 93 -72z m2165 47 c6 -46 62 -46 86 0 l13 26 8
-23 c10 -32 -18 -58 -82 -77 -29 -8 -55 -20 -58 -25 -11 -17 42 -9 109 16 69
26 76 23 51 -24 -17 -35 -63 -57 -134 -67 l-54 -7 6 37 c3 20 2 36 -3 36 -14
0 -30 -35 -36 -83 l-6 -44 -102 -6 c-116 -7 -188 -26 -222 -58 -24 -23 -32
-49 -14 -49 5 0 40 16 79 36 51 27 76 35 95 30 14 -3 26 -10 26 -15 0 -16
-185 -89 -197 -77 -4 3 -12 1 -19 -5 -32 -26 -124 19 -111 54 3 8 29 22 59 32
62 20 261 120 333 167 27 18 64 55 81 81 51 78 86 95 92 45z m-3029 -141 c1
-37 -3 -56 -9 -52 -6 3 -9 43 -9 88 2 93 16 64 18 -36z m501 86 c0 -20 -3 -24
-9 -14 -12 19 -20 0 -10 -26 9 -26 19 -29 37 -11 6 6 14 9 17 6 4 -3 -4 -15
-16 -27 l-23 -21 22 -29 c11 -16 41 -64 65 -107 25 -44 65 -115 91 -159 25
-44 46 -85 46 -92 0 -39 -65 17 -84 72 -9 26 -19 40 -30 39 -9 -1 -16 4 -16
12 0 8 -4 14 -10 14 -25 0 -140 235 -140 286 0 27 35 84 51 84 5 0 9 -12 9
-27z m-1994 -8 c3 -14 3 -33 -1 -42 -6 -17 -7 -17 -21 1 -19 26 -18 66 1 66 8
0 17 -11 21 -25z m913 -30 c-8 -32 -14 -42 -20 -33 -14 21 -10 50 8 70 23 26
26 18 12 -37z m3441 4 c-30 -25 -180 -102 -186 -96 -11 10 60 57 85 57 15 0
45 13 67 30 44 33 73 41 34 9z m-4420 -56 c0 -47 -3 -63 -10 -53 -13 20 -24
96 -15 109 16 27 25 6 25 -56z m1873 -39 c16 -36 26 -68 23 -71 -3 -3 -10 5
-15 18 -5 13 -18 45 -30 72 -11 26 -17 47 -13 47 4 0 20 -30 35 -66z m-1934
38 c13 -25 18 -96 6 -101 -14 -6 -49 83 -42 103 8 21 24 20 36 -2z m105 -8
c11 -28 6 -39 -9 -20 -8 11 -15 23 -15 28 0 14 18 9 24 -8z m-158 -86 l3 -53
-14 40 c-17 51 -20 94 -4 78 7 -7 13 -36 15 -65z m946 50 c-6 -6 -15 -8 -19
-4 -4 4 -1 11 7 16 19 12 27 3 12 -12z m77 -38 c1 -13 0 -13 -9 0 -5 8 -9 26
-9 40 l1 25 8 -25 c4 -14 8 -32 9 -40z m3277 31 c-25 -27 -84 -54 -103 -47
-21 8 -13 15 49 42 67 28 75 29 54 5z m-4326 -112 c19 -113 -4 -131 -42 -32
-21 56 -23 104 -6 121 19 19 35 -9 48 -89z m1010 30 c0 -30 -4 -48 -10 -44
-12 8 -24 71 -16 91 11 29 26 3 26 -47z m1733 39 c9 -7 25 -35 36 -63 10 -27
22 -58 26 -67 8 -19 -9 -25 -20 -8 -9 15 -25 12 -19 -3 6 -18 -20 -52 -34 -43
-7 4 -12 16 -12 26 0 24 -21 70 -32 70 -10 0 -11 3 8 -60 9 -32 12 -56 6 -58
-5 -1 -18 -10 -28 -18 -18 -14 -16 -15 24 -10 39 6 59 -6 30 -17 -10 -3 -10
-9 -1 -24 9 -16 9 -25 -3 -42 -21 -29 -42 -26 -62 9 -18 32 -39 42 -27 13 4
-10 10 -27 13 -38 5 -17 3 -18 -9 -8 -12 10 -20 9 -38 -3 -28 -20 -61 -8 -87
30 -18 29 -35 26 -27 -4 9 -35 -17 -22 -33 16 -8 20 -14 38 -12 39 2 2 25 -2
51 -8 35 -8 50 -8 59 1 18 18 -9 42 -40 36 -31 -6 -69 17 -58 34 4 7 21 12 37
12 36 0 118 73 171 151 34 50 52 58 81 37z m-1813 -7 c0 -13 -29 -35 -37 -28
-7 8 15 37 28 37 5 0 9 -4 9 -9z m3220 -10 c0 -5 -7 -12 -16 -15 -24 -9 -28
-7 -14 9 14 17 30 20 30 6z m-4240 -54 c0 -13 -5 -28 -11 -34 -14 -14 -3 -34
16 -27 9 4 17 -6 24 -34 11 -39 7 -72 -9 -72 -14 0 -48 63 -62 114 -12 44 -11
49 7 62 27 20 35 18 35 -9z m1058 -57 l0 -45 -15 48 c-15 51 -9 102 7 62 5
-11 8 -40 8 -65z m-875 64 c7 -7 -14 -44 -25 -44 -5 0 -8 11 -8 25 0 23 18 34
33 19z m792 -3 c3 -5 1 -12 -5 -16 -6 -4 -8 -11 -5 -16 4 -5 2 -9 -3 -9 -10 0
-22 23 -22 41 0 12 27 12 35 0z m3118 -42 c43 -60 49 -107 17 -137 -11 -10
-57 -31 -103 -47 -134 -46 -357 -142 -677 -290 -120 -55 -188 -80 -196 -72 -3
3 9 9 25 15 17 6 31 16 31 21 0 17 -13 13 -71 -22 -30 -18 -61 -37 -69 -41 -8
-5 6 10 32 32 28 25 45 49 43 60 -4 23 -20 18 -79 -25 -30 -21 -47 -29 -43
-19 12 30 -11 16 -34 -20 -21 -35 -23 -36 -36 -18 -32 42 -35 54 -16 60 45 14
158 71 179 91 20 18 24 32 24 76 0 80 10 116 36 133 12 9 71 24 131 35 59 10
131 25 158 33 83 23 137 28 146 14 6 -9 18 -9 45 -2 43 10 55 29 25 39 -49 15
-13 33 124 61 114 23 119 23 123 -4 2 -13 -5 -33 -15 -44 -23 -27 -302 -162
-391 -189 -72 -22 -271 -106 -286 -120 -24 -22 41 -6 121 30 49 22 109 45 135
50 27 6 87 27 135 47 127 53 211 75 268 72 45 -3 50 -1 53 19 2 13 8 20 16 17
7 -3 18 2 25 10 6 7 20 12 29 9 24 -6 54 30 50 58 -2 13 -22 38 -46 56 l-42
32 27 15 c47 26 65 19 106 -35z m-3158 -28 c-10 -16 -25 -3 -25 22 0 20 1 20
16 5 9 -9 13 -21 9 -27z m80 -45 c10 -95 2 -110 -19 -34 -10 37 -16 74 -13 82
13 33 26 14 32 -48z m-1041 -36 c43 -61 44 -66 28 -82 -24 -24 -72 -34 -72
-16 0 8 7 23 15 34 27 36 15 38 -21 3 l-37 -34 7 55 c11 92 18 122 27 113 4
-4 28 -37 53 -73z m926 60 c6 -11 7 -20 2 -20 -10 0 -32 21 -32 32 0 16 19 8
30 -12z m-25 -41 c8 -23 -1 -39 -20 -39 -16 0 -31 43 -21 59 9 15 34 2 41 -20z
m2164 -3 c17 -20 6 -48 -16 -44 -20 4 -47 53 -38 68 7 12 35 -1 54 -24z
m-2959 -12 c0 -8 -4 -14 -10 -14 -5 0 -10 9 -10 21 0 11 5 17 10 14 6 -3 10
-13 10 -21z m895 -52 c15 -60 13 -108 -4 -97 -15 9 -43 127 -36 153 9 35 21
18 40 -56z m1889 42 c10 -25 -1 -29 -14 -5 -6 12 -7 21 -1 21 5 0 12 -7 15
-16z m-539 -24 c-5 -8 -11 -8 -17 -2 -6 6 -7 16 -3 22 5 8 11 8 17 2 6 -6 7
-16 3 -22z m-1500 -1 c10 -16 -14 -66 -41 -84 -22 -14 -24 -14 -24 0 0 22 38
95 50 95 5 0 12 -5 15 -11z m3045 1 c-8 -5 -24 -10 -35 -10 -17 0 -17 2 -5 10
8 5 24 10 35 10 17 0 17 -2 5 -10z m-2960 -97 c0 -47 -2 -84 -5 -82 -2 3 -12
33 -20 67 -17 66 -13 102 11 102 11 0 14 -18 14 -87z m772 65 c-7 -7 -12 -8
-12 -2 0 6 3 14 7 17 3 4 9 5 12 2 2 -3 -1 -11 -7 -17z m-948 -23 c-4 -8 -10
-15 -15 -15 -4 0 -6 7 -3 15 4 8 10 15 15 15 4 0 6 -7 3 -15z m1584 -45 c2
-35 9 -58 18 -63 8 -4 14 -16 14 -27 0 -12 5 -17 18 -13 10 2 26 -5 36 -16 11
-12 31 -21 46 -21 15 0 44 -11 64 -25 43 -29 56 -26 56 16 l0 29 75 2 c41 0
81 1 87 2 7 1 14 -8 16 -19 10 -51 31 -34 47 38 5 27 6 27 35 12 16 -8 42 -15
57 -15 32 0 48 -9 55 -30 7 -19 28 31 28 66 0 13 4 24 10 24 5 0 7 -23 4 -52
-4 -52 -4 -53 10 -23 9 17 15 38 16 47 1 38 40 32 59 -8 10 -23 7 -30 -41 -81
-66 -69 -93 -83 -163 -83 -42 0 -70 -7 -116 -31 -33 -16 -70 -28 -82 -26 -18
3 -11 9 31 27 49 23 73 47 35 36 -75 -21 -110 -26 -144 -21 -38 7 -49 -1 -29
-21 5 -5 6 -15 1 -23 -7 -11 -14 -10 -38 7 -17 12 -38 18 -53 16 -51 -9 -81
25 -142 159 -64 139 -72 180 -35 175 19 -3 22 -10 25 -58z m749 -7 c-11 -10
-27 8 -27 30 l0 21 16 -22 c9 -13 14 -26 11 -29z m-182 27 c-3 -5 8 -16 25
-25 32 -16 38 -33 18 -53 -15 -15 -38 -16 -38 -2 0 6 7 10 15 10 17 0 20 16 6
25 -5 3 -19 -7 -30 -21 -19 -24 -26 -24 -22 0 1 5 -1 16 -4 24 -5 13 -8 12
-19 -3 -9 -12 -15 -14 -20 -7 -9 14 37 62 59 62 9 0 14 -4 10 -10z m-2031 -31
c9 -47 7 -151 -3 -145 -11 7 -34 153 -26 166 11 18 22 10 29 -21z m1634 13 c2
-7 -5 -16 -17 -19 -18 -5 -20 -10 -15 -44 8 -48 -1 -50 -20 -4 -8 19 -22 35
-30 35 -17 0 -20 9 -10 35 8 20 85 17 92 -3z m-928 4 c0 -3 -4 -8 -10 -11 -5
-3 -10 -1 -10 4 0 6 5 11 10 11 6 0 10 -2 10 -4z m-824 -44 c-17 -16 -18 -16
-5 5 7 12 15 20 18 17 3 -2 -3 -12 -13 -22z m964 13 c0 -8 -4 -15 -10 -15 -5
0 -10 7 -10 15 0 8 5 15 10 15 6 0 10 -7 10 -15z m942 -25 c12 -11 32 -20 45
-20 27 0 29 8 6 26 -17 12 -17 13 3 14 29 0 51 -27 36 -42 -15 -15 -122 -22
-141 -10 -10 7 -11 14 -2 31 14 26 26 26 53 1z m-1852 -91 c0 -53 -4 -89 -10
-89 -6 0 -10 27 -10 61 0 33 -5 69 -11 80 -7 15 -7 24 1 35 22 26 30 3 30 -87z
m670 81 c0 -5 -4 -10 -10 -10 -5 0 -10 5 -10 10 0 6 5 10 10 10 6 0 10 -4 10
-10z m950 -6 c0 -8 -4 -12 -10 -9 -5 3 -10 10 -10 16 0 5 5 9 10 9 6 0 10 -7
10 -16z m-695 -29 c-47 -41 -52 -42 -60 -14 -9 26 -4 30 42 39 60 12 60 11 18
-25z m785 7 c0 -13 -12 -22 -22 -16 -10 6 -1 24 13 24 5 0 9 -4 9 -8z m-1766
-39 c-10 -33 -11 -156 -1 -196 10 -38 27 -34 27 8 0 26 3 33 15 29 19 -8 35
32 36 89 l1 42 13 -30 c8 -16 14 -43 15 -58 0 -32 -26 -77 -45 -77 -7 0 -16
-17 -20 -37 -3 -21 -21 -56 -40 -78 l-35 -40 7 111 c5 97 4 112 -10 117 -20 8
-29 -8 -52 -91 -19 -68 -43 -100 -31 -41 13 65 18 135 8 119 -42 -65 -67 -235
-38 -259 17 -15 27 0 47 69 l12 45 9 -53 c10 -68 -4 -96 -79 -157 -51 -42
-122 -85 -139 -85 -4 0 -4 14 0 30 7 39 1 38 -20 -2 -16 -30 -17 -31 -30 -13
-21 28 -17 65 11 110 28 46 32 63 10 45 -9 -7 -17 -11 -20 -9 -9 9 46 111 87
164 45 58 64 70 54 33 -23 -80 -36 -153 -31 -167 9 -23 25 5 25 46 0 17 13 67
29 111 17 44 27 82 24 85 -6 7 146 167 159 167 6 0 7 -10 2 -27z m556 17 c0
-5 -4 -10 -10 -10 -5 0 -10 5 -10 10 0 6 5 10 10 10 6 0 10 -4 10 -10z m-380
-40 c0 -3 -7 -15 -15 -26 -13 -18 -14 -16 -14 26 0 42 1 44 14 26 8 -11 15
-23 15 -26z m705 -7 c-4 -10 -10 -27 -13 -38 -3 -11 -18 -38 -33 -59 -16 -22
-29 -48 -29 -58 0 -19 -12 -22 -43 -10 -16 7 -14 10 13 30 16 12 30 31 30 42
0 13 7 20 20 20 22 0 26 20 8 38 -8 8 -5 16 13 31 30 25 43 26 34 4z m-233
-18 c0 -5 -5 -11 -11 -13 -6 -2 -11 4 -11 13 0 9 5 15 11 13 6 -2 11 -8 11
-13z m298 1 c0 -8 -4 -17 -9 -21 -12 -7 -24 12 -16 25 9 15 25 12 25 -4z
m-175 -86 c-6 -9 -9 -9 -16 1 -10 17 0 34 13 21 6 -6 7 -16 3 -22z m235 0 c0
-5 -5 -10 -11 -10 -5 0 -7 5 -4 10 3 6 8 10 11 10 2 0 4 -4 4 -10z m638 -29
c21 -11 64 -27 95 -36 61 -17 69 -34 25 -46 -39 -10 -118 -51 -118 -61 0 -11
11 -9 40 7 28 16 60 20 60 7 0 -5 -7 -17 -16 -28 -8 -10 -12 -13 -9 -6 5 10 2
13 -11 10 -11 -2 -29 -24 -41 -51 -22 -45 -46 -61 -56 -34 -4 9 -7 9 -18 -1
-11 -10 -16 -7 -25 20 -15 46 -28 41 -32 -12 -4 -54 -17 -72 -26 -36 -7 28
-25 33 -44 14 -9 -9 -12 -6 -12 14 0 39 -16 42 -41 8 l-23 -30 -33 32 c-30 29
-33 30 -33 11 0 -31 -12 -34 -40 -12 -21 16 -23 20 -10 29 8 5 32 10 53 10 25
0 36 4 31 11 -4 6 -31 9 -68 7 l-61 -3 -19 36 c-11 20 -17 43 -13 52 8 21 59
42 122 50 45 6 55 4 85 -18 19 -14 40 -25 47 -25 7 0 30 16 51 35 32 28 87 65
100 65 1 0 20 -9 40 -19z m-768 0 c0 -5 -7 -14 -15 -21 -12 -10 -15 -10 -15 2
0 8 3 18 7 21 9 10 23 9 23 -2z m1279 -30 c12 -16 20 -42 20 -58 l-2 -28 -4
27 c-2 15 -15 37 -28 50 -26 24 -31 38 -16 38 5 0 19 -13 30 -29z m-1684 -80
c-3 -10 1 -24 10 -31 8 -7 15 -21 15 -32 0 -11 13 -30 28 -43 36 -30 80 -111
93 -172 5 -26 15 -66 21 -88 6 -22 11 -59 12 -82 1 -23 9 -50 19 -61 10 -11
17 -35 17 -61 0 -23 5 -51 11 -63 17 -32 13 -110 -6 -124 -10 -8 -14 -20 -11
-31 5 -16 0 -18 -42 -18 -55 0 -72 9 -72 36 0 15 7 19 36 19 45 0 83 18 63 31
-8 5 -30 9 -50 9 -39 0 -69 24 -52 41 5 5 28 15 52 22 23 6 42 17 42 22 0 6
-29 12 -63 15 l-63 5 33 18 c32 17 45 58 22 72 -5 3 -7 12 -3 20 3 10 -1 15
-15 15 -11 0 -23 7 -26 16 -6 15 -8 15 -25 0 -11 -10 -22 -34 -26 -54 -21
-110 -95 -272 -95 -206 0 26 -16 7 -30 -37 -8 -23 -22 -46 -32 -53 -13 -8 -18
-23 -18 -61 0 -58 9 -95 21 -95 5 0 9 14 9 32 0 30 1 31 15 12 11 -15 14 -55
15 -184 0 -167 19 -373 44 -481 10 -47 11 -59 1 -59 -15 0 -24 31 -26 85 l-1
40 -13 -49 c-15 -55 -27 -71 -47 -63 -14 5 -93 426 -122 652 -33 253 -53 631
-34 650 3 4 15 2 27 -4 23 -13 43 6 21 19 -13 8 -10 54 6 94 6 16 4 18 -10 13
-27 -10 -30 17 -7 62 26 49 26 60 4 77 -16 11 -15 13 12 19 55 11 97 39 148
97 l50 58 24 -40 c14 -23 22 -48 18 -59z m235 38 c30 -15 48 -28 40 -28 -8 0
-44 16 -80 35 -36 19 -54 32 -40 28 14 -4 50 -19 80 -35z m1366 2 c6 -19 20
-40 30 -48 16 -12 17 -15 4 -23 -24 -15 -38 -12 -51 11 -8 17 -17 20 -40 15
-32 -6 -38 4 -14 24 8 7 15 20 15 30 0 44 41 37 56 -9z m-2119 7 c-3 -8 -6 -5
-6 6 -1 11 2 17 5 13 3 -3 4 -12 1 -19z m1965 -5 c8 -10 18 -25 22 -33 3 -8
17 -34 30 -57 26 -47 25 -49 -23 -32 -45 16 -72 -9 -69 -64 3 -37 -1 -43 -50
-84 l-53 -43 -30 17 c-22 13 -34 15 -47 7 -22 -14 -27 -51 -11 -80 18 -34 5
-40 -30 -14 -34 23 -39 38 -17 46 8 3 24 31 37 62 30 76 34 80 54 43 21 -42
61 -40 86 4 17 29 17 31 -1 55 -17 22 -22 24 -49 14 -29 -12 -30 -11 -20 15 6
14 18 34 26 44 15 16 18 16 43 -14 23 -28 29 -30 48 -20 41 22 37 91 -5 91
-19 0 -28 27 -13 45 17 20 54 19 72 -2z m58 -8 c0 -8 -2 -15 -4 -15 -2 0 -6 7
-10 15 -3 8 -1 15 4 15 6 0 10 -7 10 -15z m-1040 -18 c0 -8 -3 -17 -7 -20 -9
-9 -34 13 -27 24 8 14 34 11 34 -4z m-127 -66 c8 -36 -3 -102 -14 -95 -5 3 -9
34 -9 70 0 66 12 79 23 25z m205 8 c-2 -6 -8 -10 -13 -10 -5 0 -11 4 -13 10
-2 6 4 11 13 11 9 0 15 -5 13 -11z m852 -8 c0 -6 -4 -13 -10 -16 -5 -3 -10 1
-10 9 0 9 5 16 10 16 6 0 10 -4 10 -9z m-720 -31 c0 -5 -2 -10 -4 -10 -3 0 -8
5 -11 10 -3 6 -1 10 4 10 6 0 11 -4 11 -10z m790 -40 c0 -5 -4 -10 -10 -10 -5
0 -10 5 -10 10 0 6 5 10 10 10 6 0 10 -4 10 -10z m-859 -29 c80 -21 154 -49
147 -57 -3 -2 -25 3 -49 12 -64 24 -228 24 -297 0 -29 -10 -56 -16 -59 -13 -7
7 93 58 132 68 45 11 46 10 126 -10z m711 -16 c0 -5 -5 -11 -11 -13 -6 -2 -11
4 -11 13 0 9 5 15 11 13 6 -2 11 -8 11 -13z m-291 -35 c13 -19 17 -19 54 -5
22 8 51 14 65 15 l25 0 -28 -25 c-19 -18 -27 -36 -27 -59 0 -38 -27 -136 -42
-151 -6 -7 -24 6 -53 39 -44 49 -44 50 -22 61 12 6 22 19 22 30 0 17 -7 20
-53 20 -48 0 -57 3 -78 30 -23 29 -31 55 -18 55 4 0 12 -8 19 -17 11 -15 15
-15 29 -4 13 11 51 24 87 30 4 1 13 -8 20 -19z m146 -56 c-3 -3 -12 -4 -19 -1
-8 3 -5 6 6 6 11 1 17 -2 13 -5z m-1797 -14 c0 -5 -13 -16 -30 -25 -38 -19
-40 -6 -2 17 32 21 32 21 32 8z m1880 -20 c0 -5 -5 -10 -11 -10 -5 0 -7 5 -4
10 3 6 8 10 11 10 2 0 4 -4 4 -10z m-1890 -32 c0 -7 -5 -30 -11 -51 -11 -42
-5 -40 -85 -21 -20 5 -26 3 -22 -7 2 -8 23 -18 47 -24 36 -8 41 -12 37 -30 -3
-11 -6 -27 -6 -35 -1 -11 -6 -8 -20 9 l-20 23 0 -33 c-1 -30 -2 -32 -14 -16
-7 9 -11 28 -9 41 4 21 2 24 -16 19 -32 -8 -37 22 -12 74 17 35 25 43 41 38
10 -3 32 1 47 9 35 19 43 19 43 4z m1805 -58 c-3 -5 -11 -10 -16 -10 -6 0 -7
5 -4 10 3 6 11 10 16 10 6 0 7 -4 4 -10z m-955 -10 c0 -5 -2 -10 -4 -10 -3 0
-8 5 -11 10 -3 6 -1 10 4 10 6 0 11 -4 11 -10z m1381 -52 c11 -21 11 -22 -4
-9 -10 7 -17 17 -17 22 0 15 9 10 21 -13z m-451 -2 c0 -17 -39 -66 -40 -49 0
6 4 23 10 37 10 28 30 35 30 12z m-887 -60 c35 -71 55 -151 63 -248 l7 -78
-35 0 -35 0 0 108 c0 125 -10 199 -29 227 -8 11 -14 25 -14 32 0 28 18 11 43
-41z m1237 -6 c0 -64 -10 -76 -28 -35 -16 34 -15 82 1 88 25 11 27 6 27 -53z
m-2305 5 c-9 -20 -18 -35 -21 -32 -3 3 2 22 11 42 8 21 18 36 20 33 3 -3 -2
-22 -10 -43z m1863 9 c-4 -3 -12 5 -18 18 -12 22 -12 22 6 6 10 -10 15 -20 12
-24z m510 -53 c-7 -11 -16 -21 -20 -21 -12 0 -9 35 4 48 19 19 32 -3 16 -27z
m-2319 -12 c13 -43 9 -63 -7 -32 -15 29 -23 73 -14 73 5 0 14 -18 21 -41z
m1482 -9 c-59 -33 -79 -34 -34 -3 32 23 51 31 73 32 8 0 -9 -13 -39 -29z
m-1441 -13 c0 -18 -2 -19 -10 -7 -13 20 -13 43 0 35 6 -3 10 -16 10 -28z
m1576 -33 c8 -18 14 -50 13 -71 0 -30 -2 -34 -9 -18 -5 11 -9 33 -9 48 -1 15
-7 30 -15 33 -7 3 -13 16 -13 29 0 32 15 22 33 -21z m1232 19 c-3 -25 1 -28
30 -31 48 -5 39 -22 -13 -22 -48 0 -48 1 -39 49 8 38 26 41 22 4z m-1344 -42
c-18 -45 -34 -54 -34 -19 0 20 39 73 47 64 2 -2 -4 -22 -13 -45z m-1526 -12
c2 -32 1 -33 -13 -15 -18 24 -20 59 -2 54 6 -3 13 -20 15 -39z m1451 -52 c13
-13 14 -76 2 -96 -14 -22 -41 51 -41 109 0 56 12 74 21 30 4 -18 12 -37 18
-43z m-608 -147 c16 -108 30 -150 121 -353 96 -217 141 -335 132 -349 -9 -15
-165 -87 -206 -95 -18 -3 -43 -13 -56 -21 -34 -22 -48 -3 -71 101 -35 159 -41
229 -41 467 0 177 3 237 14 258 7 15 17 47 21 72 4 24 17 65 28 90 l20 45 14
-70 c7 -38 18 -104 24 -145z m743 184 c9 -35 -2 -67 -21 -60 -12 5 -14 1 -8
-21 9 -38 23 -53 42 -46 32 13 1 -19 -33 -33 -47 -20 -61 -17 -37 6 18 17 20
25 12 52 -7 25 -5 45 8 81 19 53 28 58 37 21z m-1625 -49 l0 -20 -9 20 c-5 11
-9 29 -9 40 l0 20 9 -20 c5 -11 9 -29 9 -40z m-79 -36 c0 -32 -11 -37 -30 -14
-7 8 -16 12 -21 9 -19 -12 -8 16 13 30 27 19 38 12 38 -25z m2790 -24 c0 -8
-4 -17 -10 -20 -6 -4 -10 5 -10 20 0 15 4 24 10 20 6 -3 10 -12 10 -20z m1150
17 c0 -5 -6 -16 -13 -27 -15 -20 -31 -15 -47 16 -10 17 -7 19 25 19 19 0 35
-4 35 -8z m-3903 -24 c-3 -8 -6 -5 -6 6 -1 11 2 17 5 13 3 -3 4 -12 1 -19z
m43 -20 c0 -5 -4 -8 -10 -8 -5 0 -10 10 -10 23 0 18 2 19 10 7 5 -8 10 -18 10
-22z m2781 -44 c4 -22 8 -57 8 -79 -1 -38 -2 -37 -15 20 -27 117 -28 121 -15
109 7 -6 17 -29 22 -50z m-2892 -9 c47 -54 48 -75 8 -152 -69 -132 -81 -150
-111 -163 -27 -12 -31 -11 -40 5 -21 35 -64 80 -71 73 -9 -8 -7 -13 40 -93 35
-61 42 -85 26 -85 -5 0 -24 30 -41 68 -18 37 -47 88 -65 114 l-34 46 114 111
c62 61 120 111 128 111 8 0 29 -16 46 -35z m3931 20 c-13 -16 -50 -21 -50 -7
0 15 13 22 38 22 21 0 22 -2 12 -15z m-2806 -65 c-7 -6 -24 22 -23 40 0 9 6 5
14 -10 7 -14 11 -27 9 -30z m1486 40 c-8 -6 -24 -15 -35 -21 -16 -8 -15 -6 4
10 13 12 28 21 35 21 6 0 4 -5 -4 -10z m390 -26 c14 -35 13 -36 -10 -22 -11 7
-20 21 -20 30 0 27 19 22 30 -8z m-370 1 c-20 -24 -8 -25 39 -4 24 11 46 17
48 15 7 -7 -64 -50 -240 -143 -89 -47 -188 -101 -220 -119 -31 -18 -64 -31
-72 -28 -10 4 -15 0 -15 -14 0 -15 -10 -24 -37 -33 -64 -20 -111 -47 -205
-119 -50 -38 -117 -82 -147 -97 -31 -15 -58 -31 -61 -34 -3 -3 -9 -8 -15 -10
-27 -11 -282 -185 -377 -257 -107 -81 -166 -118 -175 -109 -9 10 21 45 64 72
51 32 51 43 -1 21 -49 -20 -45 -12 12 25 40 26 43 29 17 23 -38 -9 -142 -10
-151 -1 -23 23 179 133 295 161 39 9 98 35 145 64 109 66 347 194 352 190 5
-5 -202 -129 -319 -192 -132 -71 -97 -68 45 4 203 103 428 240 428 260 0 12
-27 2 -70 -27 -19 -13 -39 -23 -45 -23 -16 0 112 83 257 166 134 78 297 158
304 151 3 -2 -24 -19 -58 -37 -93 -49 -138 -79 -138 -91 0 -16 35 -2 145 59
55 30 122 74 149 98 48 44 69 57 46 29z m-1425 -15 c3 -5 15 -10 26 -10 10 0
19 -4 19 -9 0 -23 -14 -41 -30 -41 -27 0 -36 -21 -17 -35 22 -16 21 -24 -5
-52 l-22 -24 -11 43 c-6 24 -8 51 -3 60 4 9 8 30 8 47 0 31 21 43 35 21z
m-115 -47 c0 -13 5 -33 12 -46 31 -61 35 -72 18 -62 -10 6 -80 138 -80 150 0
2 11 -1 25 -7 16 -7 25 -19 25 -35z m2710 37 c-8 -5 -24 -10 -35 -10 -17 0
-17 2 -5 10 8 5 24 10 35 10 17 0 17 -2 5 -10z m246 -27 c-10 -10 -19 5 -10
18 6 11 8 11 12 0 2 -7 1 -15 -2 -18z m204 1 c0 -8 -4 -12 -10 -9 -5 3 -10 13
-10 21 0 8 5 12 10 9 6 -3 10 -13 10 -21z m-99 -46 l51 -51 -5 -54 c-6 -55
-38 -123 -75 -156 -20 -18 -19 -16 4 52 29 82 23 135 -20 180 -25 26 -36 81
-16 81 5 0 32 -23 61 -52z m-491 38 c0 -3 -4 -8 -10 -11 -5 -3 -10 -1 -10 4 0
6 5 11 10 11 6 0 10 -2 10 -4z m110 -6 c0 -5 7 -10 15 -10 8 0 15 -4 15 -10 0
-16 -37 -30 -77 -29 -38 1 -38 1 -10 12 34 14 36 30 2 21 -23 -6 -33 4 -18 19
10 11 73 8 73 -3z m195 0 c9 -14 -13 -76 -32 -91 -13 -11 -18 -10 -34 10 -28
35 -24 60 14 76 39 17 44 18 52 5z m-105 -9 c0 -5 -7 -12 -16 -15 -14 -5 -15
-4 -4 9 14 17 20 19 20 6z m-203 -51 c17 -13 41 -20 69 -20 l44 0 0 -62 c0
-35 3 -86 6 -115 l7 -51 -39 -11 c-49 -14 -84 -14 -84 -1 0 6 11 15 25 20 14
5 25 15 25 22 0 7 -24 35 -54 63 -30 28 -55 60 -58 71 -3 20 -37 30 -64 20
-23 -9 -2 -38 56 -80 41 -30 50 -41 50 -66 0 -35 -27 -50 -87 -50 -20 0 -53
-5 -75 -12 -54 -16 -60 -4 -55 100 6 96 27 133 98 169 55 28 103 29 136 3z
m-1047 -52 c0 -5 -5 -8 -10 -8 -9 0 -30 41 -30 58 1 9 39 -41 40 -50z m1440
32 c0 -5 -4 -10 -10 -10 -5 0 -10 5 -10 10 0 6 5 10 10 10 6 0 10 -4 10 -10z
m-645 -51 c-9 -17 -19 -29 -21 -26 -7 7 18 57 28 57 5 0 1 -14 -7 -31z m570
-21 c3 -29 8 -60 10 -68 3 -10 -16 -24 -56 -43 -69 -33 -94 -32 -94 3 0 19 7
26 33 32 35 9 51 33 34 50 -13 13 -4 38 14 38 8 0 19 9 26 20 19 31 26 25 33
-32z m-945 3 c-1 -13 -3 -13 -15 3 -19 26 -19 42 0 26 8 -7 15 -20 15 -29z
m1238 -4 c3 -29 -2 -39 -22 -53 -19 -12 -26 -25 -26 -49 0 -24 -7 -37 -26 -50
-14 -9 -28 -15 -30 -12 -2 2 7 24 20 48 13 24 30 64 36 89 7 25 14 51 16 58 8
26 29 5 32 -31z m-378 29 c0 -3 -4 -8 -10 -11 -5 -3 -10 -1 -10 4 0 6 5 11 10
11 6 0 10 -2 10 -4z m185 -46 c0 -40 -3 -45 -24 -48 -30 -5 -41 12 -41 61 0
37 1 38 33 35 31 -3 32 -5 32 -48z m-735 37 c0 -2 -6 -23 -14 -48 -8 -24 -17
-65 -21 -91 -3 -27 -10 -48 -15 -48 -27 0 -39 83 -19 123 20 39 69 84 69 64z
m-3661 -25 c14 -25 43 -143 37 -149 -7 -7 -36 65 -36 88 0 11 -4 19 -9 19 -15
0 -41 30 -41 46 0 20 37 17 49 -4z m2961 -2 c0 -5 -4 -10 -9 -10 -6 0 -13 5
-16 10 -3 6 1 10 9 10 9 0 16 -4 16 -10z m1226 -17 c-7 -7 -26 7 -26 19 0 6 6
6 15 -2 9 -7 13 -15 11 -17z m-4254 -10 c8 -10 35 -53 59 -95 26 -47 49 -76
57 -73 6 2 12 0 12 -4 0 -5 3 -16 6 -25 5 -14 3 -14 -21 -2 -26 13 -165 169
-165 185 0 9 22 31 30 31 4 0 14 -8 22 -17z m3780 -81 c-4 -73 -3 -80 23 -110
15 -18 22 -32 16 -32 -5 0 -13 5 -16 10 -3 6 -14 10 -24 10 -42 0 -54 50 -35
145 9 48 13 55 27 55 11 0 13 -17 9 -78z m-3652 47 c0 -11 -4 -17 -10 -14 -5
3 -10 13 -10 21 0 8 5 14 10 14 6 0 10 -9 10 -21z m4360 -29 c-6 -12 -14 -19
-17 -17 -2 3 1 15 7 27 6 12 14 19 17 17 2 -3 -1 -15 -7 -27z m-4565 -4 c33
-8 95 -51 95 -67 0 -5 -11 -14 -25 -19 -22 -8 -24 -12 -14 -37 16 -41 29 -53
60 -53 33 0 39 16 10 25 -27 8 -42 30 -35 49 9 24 22 20 44 -16 42 -69 26 -89
-131 -172 -124 -66 -173 -73 -214 -31 -20 19 -25 34 -25 73 0 58 17 112 35
112 25 0 65 -60 66 -98 1 -20 4 -48 9 -62 6 -22 8 -23 15 -7 13 31 -2 95 -34
144 -34 51 -39 80 -16 89 22 9 45 -14 45 -43 0 -17 7 -27 20 -30 21 -6 28 -23
32 -82 4 -43 27 -59 65 -45 20 7 29 17 31 37 4 34 -4 34 -31 1 -19 -25 -21
-26 -34 -8 -7 10 -13 38 -13 62 0 35 -4 45 -20 49 -11 3 -20 12 -20 20 0 9 -9
30 -20 49 -12 18 -17 35 -12 38 5 3 31 -2 56 -10 55 -19 71 -12 27 11 -17 8
-31 19 -31 24 0 14 13 21 24 12 6 -4 25 -11 41 -15z m3238 -65 c70 -73 74 -80
55 -99 -19 -19 -33 -14 -58 21 l-24 32 26 -17 c48 -32 42 0 -10 50 -57 55 -78
82 -65 82 5 0 40 -31 76 -69z m464 19 c28 -53 28 -52 1 -48 -25 3 -64 70 -53
88 11 18 28 6 52 -40z m759 -39 c-15 -29 -38 -57 -54 -65 -37 -18 -113 -34
-210 -42 -74 -6 -81 -5 -91 14 -11 20 -9 20 87 20 53 0 110 5 125 11 40 15
126 90 145 126 29 54 27 -6 -2 -64z m-1273 -11 c-6 -6 -73 70 -73 83 0 5 18
-10 39 -34 21 -24 37 -46 34 -49z m-503 60 c0 -5 -5 -10 -11 -10 -5 0 -7 5 -4
10 3 6 8 10 11 10 2 0 4 -4 4 -10z m-2430 -62 c0 -15 -4 -30 -10 -33 -6 -4
-10 12 -10 42 0 35 3 44 10 33 5 -8 10 -27 10 -42z m3430 -51 c0 -14 -37 12
-54 37 -29 45 -16 52 19 11 19 -22 35 -44 35 -48z m-1470 43 c0 -5 -5 -10 -11
-10 -5 0 -7 5 -4 10 3 6 8 10 11 10 2 0 4 -4 4 -10z m1588 -42 c19 -19 14 -30
-8 -18 -11 6 -20 15 -20 20 0 14 14 12 28 -2z m-3608 -33 c-7 -9 -15 -13 -17
-11 -7 7 7 26 19 26 6 0 6 -6 -2 -15z m2982 -242 c15 -14 24 -14 57 -5 52 16
96 15 110 -2 7 -8 15 -31 18 -53 l5 -38 -30 35 c-33 39 -48 37 -32 -4 5 -15
10 -38 10 -51 0 -18 -4 -22 -20 -18 -13 3 -20 14 -20 29 0 28 -18 41 -26 19
-5 -12 -10 -13 -20 -4 -10 8 -14 5 -19 -15 -3 -14 -7 -37 -10 -51 -6 -29 -26
-32 -80 -9 -36 15 -38 14 -62 -8 l-24 -23 -19 25 c-16 21 -20 22 -34 11 -14
-12 -23 -12 -57 -1 -49 16 -138 2 -180 -29 -20 -15 -29 -17 -38 -8 -8 8 -19 8
-43 -1 -29 -11 -35 -10 -58 13 -34 32 -63 32 -89 -1 -26 -33 -26 -42 -1 -46
34 -5 28 -20 -25 -61 -193 -149 -194 -150 -247 -155 -31 -3 -49 -1 -47 5 5 12
232 210 302 262 68 51 142 75 210 68 44 -4 56 -1 80 19 16 13 41 26 55 29 15
3 81 23 147 45 136 44 161 47 187 23z m2908 -22 c0 -26 -40 -74 -89 -105 -61
-40 -92 -48 -46 -11 17 13 33 27 37 32 81 94 98 109 98 84z m-4754 -46 c6 -16
-12 -45 -27 -45 -10 0 -12 44 -2 53 11 11 23 8 29 -8z m194 -26 c23 -41 -1
-53 -41 -20 -20 16 -21 21 -10 34 15 18 37 12 51 -14z m4605 21 c-3 -5 -10
-10 -16 -10 -5 0 -9 5 -9 10 0 6 7 10 16 10 8 0 12 -4 9 -10z m-4715 -20 c0
-5 -5 -10 -11 -10 -5 0 -7 5 -4 10 3 6 8 10 11 10 2 0 4 -4 4 -10z m210 -20
c-14 -10 -27 -16 -30 -13 -6 6 30 33 44 33 6 0 0 -9 -14 -20z m-161 -34 c14
-17 -9 -39 -33 -30 -18 7 -18 7 -10 28 8 20 28 21 43 2z m1888 -43 c-9 -13 -7
-28 9 -68 7 -18 6 -19 -9 -6 -25 20 -30 9 -17 -38 17 -63 6 -86 -52 -111 -27
-12 -62 -20 -76 -18 -24 3 -27 8 -30 43 l-3 40 -22 -54 c-25 -62 -42 -74 -51
-36 -8 33 -24 32 -28 -2 -2 -18 -10 -29 -22 -31 -16 -4 -18 0 -12 29 l6 34
-42 -42 c-89 -87 -212 -116 -307 -73 -46 21 -110 26 -157 11 -16 -5 -41 -12
-56 -15 -16 -4 -28 -11 -28 -16 0 -15 47 -12 101 7 44 16 53 16 91 3 25 -9 44
-22 46 -32 4 -23 -30 -24 -48 -2 -12 13 -16 12 -34 -10 -22 -27 -134 -63 -162
-52 -7 3 -20 20 -28 38 l-14 33 -1 -27 c-1 -33 -21 -38 -21 -5 -1 12 -7 36
-16 52 -14 29 -14 29 -10 -27 5 -63 -7 -84 -26 -44 -13 31 -28 34 -28 6 0 -25
-22 -36 -85 -42 -58 -6 -75 -2 -75 18 0 8 -8 18 -17 21 -44 17 -44 30 0 65 55
45 82 59 101 52 26 -10 97 31 211 120 153 121 143 119 142 39 -3 -91 15 -92
43 -1 12 40 28 81 35 91 13 18 14 18 25 -5 7 -12 14 -24 15 -26 1 -1 18 13 37
31 34 32 94 57 135 57 27 0 43 -19 43 -52 0 -37 19 -36 51 3 23 28 28 30 46
18 18 -11 25 -10 47 4 31 21 50 21 79 3 48 -30 64 -29 77 6 l12 33 10 -28 c12
-33 30 -31 38 4 4 16 8 20 14 11 13 -22 34 -13 46 21 l12 32 8 -25 c4 -14 3
-31 -3 -37z m-2110 15 c-3 -8 -6 -5 -6 6 -1 11 2 17 5 13 3 -3 4 -12 1 -19z
m71 -11 c2 -10 -3 -17 -12 -17 -9 0 -16 2 -16 4 0 2 -3 12 -6 21 -5 13 -2 16
12 13 10 -2 20 -11 22 -21z m246 14 c3 -5 -1 -12 -10 -15 -22 -9 -24 -8 -24 9
0 16 25 21 34 6z m-139 -41 c-10 -11 -24 -20 -32 -20 -11 0 -11 4 -3 20 6 11
20 20 32 20 20 0 21 -1 3 -20z m2842 4 c7 -18 -12 -111 -27 -134 -9 -13 -11
-13 -19 -1 -8 12 -13 11 -28 -8 -16 -20 -23 -22 -40 -13 -17 9 -22 9 -27 -5
-6 -14 -8 -14 -26 2 -25 22 -26 51 -2 64 16 9 16 11 -3 25 -19 14 -19 16 -3
32 22 22 46 12 50 -23 2 -23 7 -27 26 -25 13 2 29 -2 37 -8 24 -20 35 -1 35
56 0 52 14 72 27 38z m-2777 -4 c0 -11 -80 -64 -86 -57 -6 5 67 67 78 67 5 0
8 -4 8 -10z m100 -4 c0 -15 -40 -49 -48 -41 -7 7 27 55 38 55 6 0 10 -6 10
-14z m-285 -36 c3 -5 -1 -10 -10 -10 -9 0 -13 5 -10 10 3 6 8 10 10 10 2 0 7
-4 10 -10z m186 -21 c-13 -11 -27 -17 -30 -13 -7 7 28 34 43 34 6 -1 0 -10
-13 -21z m4569 -164 c14 -8 35 -14 48 -15 12 0 22 -4 22 -10 0 -5 -11 -10 -25
-10 -36 0 -98 27 -90 40 8 13 15 12 45 -5z m-2668 -47 c-7 -7 -12 -8 -12 -2 0
14 12 26 19 19 2 -3 -1 -11 -7 -17z m-158 -49 c-3 -5 -10 -7 -15 -3 -5 3 -7
10 -3 15 3 5 10 7 15 3 5 -3 7 -10 3 -15z m-194 -53 c0 -8 -7 -16 -15 -20 -15
-5 -21 14 -8 27 11 12 23 8 23 -7z m252 -48 c-6 -6 -15 -8 -19 -3 -5 4 -2 10
5 12 6 3 9 10 6 16 -5 8 -2 8 7 0 10 -10 10 -16 1 -25z m-457 -8 c-3 -5 -11
-10 -16 -10 -6 0 -7 5 -4 10 3 6 11 10 16 10 6 0 7 -4 4 -10z m3079 -15 c-4
-8 -8 -15 -10 -15 -2 0 -4 7 -4 15 0 8 4 15 10 15 5 0 7 -7 4 -15z m-3318 -42
c-10 -10 -19 5 -10 18 6 11 8 11 12 0 2 -7 1 -15 -2 -18z m514 7 c0 -5 -7 -10
-15 -10 -8 0 -15 5 -15 10 0 6 7 10 15 10 8 0 15 -4 15 -10z m2751 -63 c-8 -8
-11 -7 -11 4 0 20 13 34 18 19 3 -7 -1 -17 -7 -23z m-3915 9 c9 -24 -15 -58
-39 -54 -26 4 -36 46 -15 59 20 13 48 11 54 -5z m434 -6 c0 -23 -26 -38 -41
-23 -14 14 0 43 22 43 12 0 19 -7 19 -20z m-265 -24 c21 -15 15 -43 -11 -53
-23 -8 -48 20 -39 46 7 24 23 27 50 7z m755 4 c0 -5 -7 -10 -15 -10 -8 0 -15
5 -15 10 0 6 7 10 15 10 8 0 15 -4 15 -10z m-235 -70 c0 -17 -28 -25 -53 -15
-15 6 -15 8 3 21 24 18 50 14 50 -6z m3190 -40 c3 -5 -1 -10 -10 -10 -9 0 -13
5 -10 10 3 6 8 10 10 10 2 0 7 -4 10 -10z m-4061 -45 c-23 -35 -29 -25 -7 13
10 18 19 27 21 22 2 -5 -4 -20 -14 -35z m621 25 c0 -8 -10 -16 -22 -18 -18 -3
-23 2 -23 18 0 16 5 21 23 18 12 -2 22 -10 22 -18z m-487 2 c22 -14 2 -42 -29
-42 -21 0 -29 5 -29 18 0 31 28 42 58 24z m3872 -28 c0 -14 -4 -23 -10 -19 -5
3 -10 15 -10 26 0 10 5 19 10 19 6 0 10 -12 10 -26z m-3639 -10 c11 -14 10
-19 -10 -35 -26 -21 -51 -11 -51 21 0 33 38 42 61 14z m-471 -99 c-13 -14 -27
-25 -32 -25 -14 0 -9 34 8 59 15 21 18 21 32 7 14 -14 14 -18 -8 -41z m4050 4
c0 -5 -4 -9 -10 -9 -5 0 -10 7 -10 16 0 8 5 12 10 9 6 -3 10 -10 10 -16z
m-3550 -18 c0 -10 -7 -25 -16 -32 -15 -12 -16 -11 -10 9 6 17 3 22 -11 22 -24
0 -43 -19 -43 -41 0 -24 -19 -34 -26 -14 -8 20 21 54 61 70 34 15 45 11 45
-14z m-640 -41 c0 -5 -4 -10 -10 -10 -5 0 -10 5 -10 10 0 6 5 10 10 10 6 0 10
-4 10 -10z m-73 -62 c-3 -8 -6 -5 -6 6 -1 11 2 17 5 13 3 -3 4 -12 1 -19z m68
2 c-10 -11 -20 -18 -23 -15 -7 6 18 35 31 35 5 0 2 -9 -8 -20z m477 -30 c10 0
18 -5 18 -10 0 -12 -48 -3 -67 13 -23 17 -14 29 9 13 12 -9 30 -16 40 -16z
m-452 -5 c-7 -9 -23 -21 -34 -27 -20 -11 -20 -10 -6 8 19 24 44 44 49 38 2 -2
-2 -11 -9 -19z m-187 -38 c-14 -37 -15 -50 -5 -72 11 -24 16 -26 52 -20 32 5
40 4 40 -8 0 -35 -77 -58 -104 -32 -23 23 -20 90 5 142 27 56 34 50 12 -10z
m4214 31 c-3 -8 -6 -5 -6 6 -1 11 2 17 5 13 3 -3 4 -12 1 -19z m-4133 -23 c3
-9 -4 -21 -20 -31 -30 -21 -41 -12 -26 21 13 28 37 33 46 10z m372 -72 c-8 -8
-36 5 -36 17 0 7 6 7 21 0 11 -7 18 -14 15 -17z m-156 2 c0 -8 -59 -35 -77
-35 -15 0 -14 4 7 20 22 17 70 28 70 15z m60 -29 c0 -13 -9 -34 -20 -47 l-19
-24 -1 22 c0 26 20 73 32 73 4 0 8 -11 8 -24z m3755 -5 c3 -5 1 -12 -5 -16 -5
-3 -10 1 -10 9 0 18 6 21 15 7z m-3675 -48 c0 -13 -43 -53 -57 -53 -11 0 -9 8
7 30 19 27 50 41 50 23z m-365 -97 c59 -15 70 -46 15 -46 -20 0 -37 10 -59 35
-36 41 -42 68 -8 38 12 -11 35 -24 52 -27z m-115 -97 c-9 -15 -7 -19 6 -19 10
0 14 -5 10 -15 -6 -18 5 -20 22 -3 13 13 27 5 17 -11 -11 -19 -79 -13 -103 10
-23 21 -22 39 2 39 8 0 19 7 26 15 17 20 32 8 20 -16z m3980 21 c0 -5 -4 -10
-10 -10 -5 0 -10 5 -10 10 0 6 5 10 10 10 6 0 10 -4 10 -10z m-3894 -121 c-3
-17 -6 -38 -6 -45 0 -8 -9 -13 -22 -11 -17 1 -24 -4 -26 -21 -3 -23 -4 -23
-23 -6 -18 16 -19 16 -19 -9 0 -20 -5 -27 -19 -27 -11 0 -22 -4 -26 -10 -3 -5
-12 -7 -20 -3 -9 3 -15 -1 -15 -10 0 -18 -67 -60 -81 -51 -6 3 -16 0 -24 -6
-12 -10 -15 -9 -15 3 0 8 -7 18 -16 21 -10 4 -14 14 -11 26 3 12 -1 23 -9 28
-20 11 -3 56 26 72 25 13 23 14 41 -22 l14 -27 55 42 c45 34 63 41 103 43 26
1 53 6 60 13 8 8 7 11 -3 11 -13 0 -13 2 0 10 30 19 43 12 36 -21z m3500 -131
c-20 -28 -20 -52 -1 -68 13 -11 15 -8 15 19 0 24 4 31 19 31 10 0 30 9 44 20
33 26 35 25 29 -7 l-5 -28 25 23 c39 36 42 26 8 -33 -34 -59 -28 -75 8 -25 30
40 45 38 66 -11 23 -52 123 -155 170 -174 33 -14 35 -17 25 -38 -35 -68 -153
-207 -176 -207 -7 0 -19 13 -28 30 -9 16 -20 30 -25 30 -18 0 -41 48 -50 106
-11 67 -28 114 -41 114 -8 0 -5 -48 7 -107 2 -13 0 -23 -4 -23 -5 0 -12 18
-15 40 -6 43 -38 103 -44 83 -3 -7 1 -21 7 -32 21 -40 -5 -20 -32 24 -21 34
-31 42 -47 38 -13 -3 -28 3 -43 19 -13 13 -48 34 -78 48 -30 13 -61 30 -69 37
-25 21 13 50 88 67 36 9 84 22 106 30 54 20 59 20 41 -6z m-301 -128 c-3 -5
-16 -15 -28 -21 -21 -10 -21 -9 2 10 25 23 36 27 26 11z m1000 -40 c27 -30 12
-34 -15 -5 -13 14 -19 25 -13 25 5 0 18 -9 28 -20z m-4625 -54 c0 -8 -8 -20
-17 -27 -15 -12 -16 -12 -10 4 4 10 7 25 7 33 0 9 5 12 10 9 6 -3 10 -12 10
-19z m3579 -40 c1 -15 -2 -16 -14 -6 -16 13 -20 51 -8 64 8 8 20 -25 22 -58z
m1049 22 c19 -19 14 -30 -10 -26 -13 2 -24 11 -26 21 -4 20 18 23 36 5z
m-4798 -8 c0 -5 -4 -10 -10 -10 -5 0 -10 5 -10 10 0 6 5 10 10 10 6 0 10 -4
10 -10z m3539 -31 c13 -17 21 -33 18 -35 -5 -6 -57 46 -57 57 0 18 17 8 39
-22z m141 21 c0 -5 -5 -10 -11 -10 -5 0 -7 5 -4 10 3 6 8 10 11 10 2 0 4 -4 4
-10z m-1154 -36 c-4 -9 -9 -15 -11 -12 -3 3 -3 13 1 22 4 9 9 15 11 12 3 -3 3
-13 -1 -22z m-2551 6 c3 -5 1 -10 -4 -10 -6 0 -11 5 -11 10 0 6 2 10 4 10 3 0
8 -4 11 -10z m4691 -32 c0 -24 2 -50 4 -58 3 -10 -10 -22 -40 -38 -49 -24 -75
-25 -75 -2 0 10 11 15 35 16 54 1 57 4 27 20 -28 15 -28 16 -11 42 10 15 27
34 38 44 12 10 21 17 21 18 0 0 1 -19 1 -42z m168 26 c9 -3 16 -10 16 -16 0
-14 -43 -5 -48 10 -4 13 7 15 32 6z m-4768 -69 l39 -50 -35 22 c-43 27 -75 67
-65 83 4 6 10 8 14 3 4 -4 25 -30 47 -58z m4704 44 c0 -11 -27 -12 -34 0 -3 4
-3 11 0 14 8 8 34 -3 34 -14z m-1710 -4 c-7 -8 -21 -15 -32 -15 -17 0 -18 3
-8 15 7 8 21 15 32 15 17 0 18 -3 8 -15z m420 0 c7 -8 8 -15 2 -15 -5 0 -15 7
-22 15 -7 8 -8 15 -2 15 5 0 15 -7 22 -15z m-2020 -35 l25 -19 -45 -20 c-25
-11 -58 -20 -75 -20 -26 0 -23 2 18 15 50 16 58 29 30 50 -17 13 -17 13 2 13
11 1 31 -8 45 -19z m2150 10 c0 -5 -2 -10 -4 -10 -3 0 -8 5 -11 10 -3 6 -1 10
4 10 6 0 11 -4 11 -10z m275 0 c3 -5 -1 -10 -9 -10 -8 0 -18 5 -21 10 -3 6 1
10 9 10 8 0 18 -4 21 -10z m-665 -10 c0 -5 -9 -10 -21 -10 -11 0 -17 5 -14 10
3 6 13 10 21 10 8 0 14 -4 14 -10z m728 -28 c2 -7 -2 -10 -12 -6 -9 3 -16 11
-16 16 0 13 23 5 28 -10z m-1861 -45 c7 -12 -33 -47 -55 -47 -13 0 -12 3 3 14
19 14 19 15 2 33 -9 11 -17 22 -17 26 0 9 59 -13 67 -26z m1483 23 c0 -5 -4
-10 -10 -10 -5 0 -10 5 -10 10 0 6 5 10 10 10 6 0 10 -4 10 -10z m420 0 c0 -5
-2 -10 -4 -10 -3 0 -8 5 -11 10 -3 6 -1 10 4 10 6 0 11 -4 11 -10z m-3200 -15
c10 -12 10 -15 -4 -15 -9 0 -16 7 -16 15 0 8 2 15 4 15 2 0 9 -7 16 -15z m235
-15 c-68 -19 -101 -19 -54 -1 37 14 62 19 94 19 18 0 3 -7 -40 -18z m2740 10
c-3 -5 -10 -10 -16 -10 -5 0 -9 5 -9 10 0 6 7 10 16 10 8 0 12 -4 9 -10z m275
0 c0 -5 -4 -10 -10 -10 -5 0 -10 5 -10 10 0 6 5 10 10 10 6 0 10 -4 10 -10z
m-3712 -12 c18 -18 15 -58 -5 -65 -10 -3 -46 -19 -81 -35 -35 -16 -66 -28 -68
-25 -3 2 13 19 35 36 22 18 46 47 53 66 13 37 42 47 66 23z m4362 2 c0 -5 -4
-10 -10 -10 -5 0 -10 5 -10 10 0 6 5 10 10 10 6 0 10 -4 10 -10z m-2315 -10
c-3 -5 -18 -10 -33 -9 -24 0 -25 1 -7 9 28 12 47 12 40 0z m2319 -21 c25 1 27
0 16 -14 -24 -29 -70 -47 -101 -40 -39 9 -44 20 -18 46 16 16 27 19 47 13 15
-4 40 -6 56 -5z m-674 -30 c0 -6 -7 -6 -20 1 -11 6 -20 15 -20 21 0 6 7 6 20
-1 11 -6 20 -15 20 -21z m-3150 17 c0 -2 -7 -7 -16 -10 -8 -3 -12 -2 -9 4 6
10 25 14 25 6z m3280 -11 c7 -8 8 -15 2 -15 -5 0 -15 7 -22 15 -7 8 -8 15 -2
15 5 0 15 -7 22 -15z m-5582 -10 c10 -10 -3 -11 -55 -7 -29 2 -53 9 -53 14 0
11 97 4 108 -7z m3652 5 c-19 -13 -30 -13 -30 0 0 6 10 10 23 10 18 0 19 -2 7
-10z m1690 -18 c25 -17 25 -17 3 -20 -22 -3 -72 25 -73 41 0 11 39 -1 70 -21z
m-2045 -2 c-16 -4 -43 -8 -60 -9 -23 0 -26 2 -15 9 8 5 35 9 60 9 41 -1 42 -2
15 -9z m1984 -11 c13 -11 21 -22 19 -25 -3 -3 -19 6 -34 20 -34 30 -20 35 15
5z m239 4 c2 -8 -5 -13 -17 -13 -21 0 -35 13 -24 24 10 10 36 3 41 -11z
m-2468 -12 c38 -5 -23 -9 -190 -14 -135 -4 -301 -9 -370 -11 -115 -4 -119 -4
-45 5 213 24 498 34 605 20z m3136 -1 c9 0 13 -4 10 -9 -7 -11 -56 -2 -56 11
0 6 7 7 16 4 9 -3 22 -6 30 -6z m-614 -22 c-9 -9 -15 -9 -24 0 -9 9 -7 12 12
12 19 0 21 -3 12 -12z m-175 -4 c-3 -3 -12 -4 -19 -1 -8 3 -5 6 6 6 11 1 17
-2 13 -5z m-4187 -15 c0 -11 -60 -39 -85 -39 -24 0 -7 20 29 36 38 16 56 17
56 3z m4575 1 c3 -5 -1 -10 -9 -10 -8 0 -18 5 -21 10 -3 6 1 10 9 10 8 0 18
-4 21 -10z m-5724 -17 c13 -15 11 -16 -11 -10 -14 4 -31 7 -38 7 -7 0 -10 5
-7 10 10 16 41 12 56 -7z m5608 8 c12 -8 9 -11 -13 -17 -19 -5 -32 -2 -44 10
-15 15 -14 16 13 16 17 0 37 -4 44 -9z m-232 -7 c-3 -3 -12 -4 -19 -1 -8 3 -5
6 6 6 11 1 17 -2 13 -5z m403 2 c0 -3 -4 -8 -10 -11 -5 -3 -10 -1 -10 4 0 6 5
11 10 11 6 0 10 -2 10 -4z m40 -17 c0 -11 -4 -18 -10 -14 -5 3 -7 12 -3 20 7
21 13 19 13 -6z m41 -12 c-8 -8 -11 -7 -11 4 0 20 13 34 18 19 3 -7 -1 -17 -7
-23z m52 3 c-3 -11 -10 -23 -16 -27 -7 -4 -8 0 -4 11 4 10 7 22 7 27 0 5 4 9
9 9 5 0 7 -9 4 -20z m-5563 -30 c31 -6 -3 -8 -110 -6 -90 2 -165 8 -180 15
-20 9 3 10 110 5 74 -3 155 -9 180 -14z m5378 11 c18 -11 -17 -21 -75 -21 -41
0 -57 13 -30 23 20 9 91 7 105 -2z m-6410 -148 c-16 -2 -40 -2 -55 0 -16 2 -3
4 27 4 30 0 43 -2 28 -4z m-511 -60 c37 3 84 9 103 12 24 4 30 3 20 -3 -25
-16 -226 -52 -289 -52 -33 0 -63 5 -66 10 -4 6 22 24 56 40 l63 30 23 -22 c20
-19 30 -20 90 -15z m208 27 c3 -5 1 -10 -4 -10 -6 0 -11 5 -11 10 0 6 2 10 4
10 3 0 8 -4 11 -10z"/>
<path d="M8761 7307 c-20 -22 -21 -25 -5 -38 13 -11 18 -11 21 -1 3 6 21 12
41 12 l35 0 -23 25 c-29 31 -41 31 -69 2z"/>
<path d="M4590 7069 c0 -20 4 -29 9 -23 15 15 17 47 4 51 -9 3 -13 -6 -13 -28z"/>
<path d="M4662 7028 c-14 -14 -16 -48 -2 -48 10 0 26 48 18 55 -2 3 -10 -1
-16 -7z"/>
<path d="M4530 6993 c0 -10 5 -25 10 -33 8 -12 11 -13 19 -1 12 18 2 51 -15
51 -8 0 -14 -8 -14 -17z"/>
<path d="M5750 6990 c0 -23 22 -35 46 -26 15 6 15 8 -1 26 -23 26 -45 26 -45
0z"/>
<path d="M5033 6943 c-45 -6 -42 -23 5 -23 80 0 201 13 196 21 -5 9 -138 10
-201 2z"/>
<path d="M4421 6877 c-16 -31 -17 -83 -1 -102 18 -22 67 -19 80 5 11 21 2 48
-27 82 -8 9 -12 22 -8 27 3 6 -2 11 -13 11 -10 0 -24 -10 -31 -23z"/>
<path d="M5195 6870 c-194 -11 -14 -26 255 -22 80 2 129 6 120 11 -19 11 -256
18 -375 11z"/>
<path d="M4712 6851 c-18 -3 -33 -10 -32 -16 0 -10 269 -8 280 2 21 20 -160
31 -248 14z"/>
<path d="M5608 6803 c-20 -5 -24 -23 -5 -23 17 0 41 17 31 22 -5 2 -17 3 -26
1z"/>
<path d="M4990 6794 c-8 -3 -22 -8 -30 -12 -43 -17 261 -27 400 -13 l65 6 -75
7 c-115 11 -343 19 -360 12z"/>
<path d="M5806 6792 c-7 -12 70 -32 123 -32 59 0 50 17 -11 25 -29 3 -65 8
-80 11 -14 3 -29 1 -32 -4z"/>
<path d="M4317 6763 c-4 -3 -2 -12 5 -20 8 -10 6 -19 -11 -37 -41 -44 -10 -81
53 -64 93 25 86 128 -10 128 -17 0 -34 -3 -37 -7z"/>
<path d="M5810 6745 c0 -8 74 -55 87 -55 23 0 3 26 -33 43 -34 17 -54 21 -54
12z"/>
<path d="M5556 6724 c-52 -19 -103 -51 -110 -70 -6 -16 -4 -15 51 22 17 11 59
27 92 34 63 13 82 31 34 29 -16 0 -45 -7 -67 -15z"/>
<path d="M4642 6699 c-31 -9 -51 -33 -39 -46 3 -3 27 2 53 11 26 9 60 16 75
16 35 0 46 16 16 24 -30 8 -65 6 -105 -5z"/>
<path d="M5615 6683 c-63 -33 -119 -76 -146 -114 -37 -52 -12 -44 54 18 37 34
87 69 120 83 31 14 57 28 57 33 0 14 -35 6 -85 -20z"/>
<path d="M5010 6695 c0 -4 25 -29 55 -57 31 -28 63 -64 71 -79 8 -16 19 -29
24 -29 17 0 -10 64 -40 95 -31 32 -110 82 -110 70z"/>
<path d="M5752 6677 c4 -13 89 -59 96 -52 7 7 -40 43 -71 54 -22 8 -28 8 -25
-2z"/>
<path d="M4917 6664 c-8 -8 1 -24 14 -24 5 0 9 7 9 15 0 15 -12 20 -23 9z"/>
<path d="M4447 6644 c-11 -12 3 -24 29 -24 16 0 24 5 22 13 -5 13 -40 22 -51
11z"/>
<path d="M4366 6611 c-7 -10 23 -20 42 -14 6 3 10 9 6 14 -7 12 -41 12 -48 0z"/>
<path d="M5727 6564 c-12 -12 4 -24 34 -24 31 0 39 14 13 24 -20 8 -39 8 -47
0z"/>
<path d="M4102 6543 c5 -25 28 -28 28 -4 0 12 -6 21 -16 21 -9 0 -14 -7 -12
-17z"/>
<path d="M5370 6539 c-25 -47 -22 -194 5 -194 4 0 9 38 10 85 0 47 5 95 9 108
11 29 -9 30 -24 1z"/>
<path d="M4200 6497 c0 -8 9 -34 20 -58 11 -24 20 -64 21 -89 0 -25 4 -56 8
-70 7 -23 8 -21 14 15 11 65 7 97 -17 155 -23 53 -46 76 -46 47z"/>
<path d="M5727 6503 c-13 -12 -7 -52 9 -61 40 -23 74 24 42 56 -13 13 -41 16
-51 5z"/>
<path d="M5065 6443 c4 -10 9 -66 12 -125 6 -114 17 -138 29 -63 10 70 -14
205 -38 205 -6 0 -7 -8 -3 -17z"/>
<path d="M5304 6408 c4 -29 10 -64 13 -77 11 -46 -15 -12 -32 42 -24 72 -35
80 -35 26 0 -54 47 -134 89 -152 14 -6 39 -22 56 -35 44 -36 42 -11 -4 55 -27
38 -47 81 -57 126 -20 81 -40 91 -30 15z"/>
<path d="M4110 6385 c0 -8 9 -15 20 -15 24 0 27 15 4 24 -22 9 -24 8 -24 -9z"/>
<path d="M5430 6356 c0 -59 29 -103 98 -147 71 -45 72 -35 4 34 -40 40 -69 81
-82 112 l-19 50 -1 -49z"/>
<path d="M5185 6298 c5 -29 9 -117 10 -196 1 -78 5 -145 8 -149 4 -3 19 3 34
13 19 12 47 18 88 18 l60 1 -2 33 c0 20 -17 58 -37 90 -20 32 -49 81 -63 110
-15 28 -32 52 -39 52 -7 0 -19 18 -28 40 -23 59 -41 52 -31 -12z m162 -260
c-3 -8 -6 -5 -6 6 -1 11 2 17 5 13 3 -3 4 -12 1 -19z"/>
<path d="M4296 6332 c-15 -24 -16 -79 -2 -97 14 -19 15 -16 16 43 0 59 -3 71
-14 54z"/>
<path d="M4194 6265 c4 -20 12 -49 18 -64 10 -23 12 -24 15 -6 6 31 -11 98
-26 103 -11 4 -12 -4 -7 -33z"/>
<path d="M5349 6183 c5 -10 21 -33 35 -52 19 -25 26 -47 26 -79 0 -24 5 -53
11 -65 9 -16 9 -22 0 -25 -6 -2 -11 -10 -11 -17 0 -10 -9 -12 -35 -8 -41 7
-42 2 -14 -43 20 -32 19 -54 -2 -54 -6 0 -7 9 -4 20 4 13 2 20 -7 20 -8 0 -31
9 -53 20 -47 24 -68 25 -86 4 -7 -8 -25 -22 -41 -30 -15 -8 -28 -21 -28 -30 0
-18 32 -32 38 -16 6 20 16 14 31 -19 16 -37 65 -69 105 -69 35 0 87 38 127 93
33 45 36 72 13 98 -12 13 -13 22 -5 36 6 12 6 25 1 34 -5 7 -9 30 -8 49 1 38
-11 66 -50 118 -26 34 -61 46 -43 15z m-95 -363 c7 -24 6 -24 -8 -6 -9 11 -16
27 -16 35 0 21 16 2 24 -29z m56 24 c0 -17 -22 -14 -28 4 -2 7 3 12 12 12 9 0
16 -7 16 -16z m40 -54 c0 -5 -4 -10 -10 -10 -5 0 -10 5 -10 10 0 6 5 10 10 10
6 0 10 -4 10 -10z"/>
<path d="M5500 6186 c0 -15 50 -56 69 -56 27 0 -1 35 -46 59 -19 10 -23 9 -23
-3z"/>
<path d="M4718 6024 c-54 -16 -79 -41 -32 -31 46 9 84 26 84 37 0 5 -1 10 -2
9 -2 0 -24 -7 -50 -15z"/>
<path d="M5000 6030 c0 -5 4 -10 9 -10 6 0 13 5 16 10 3 6 -1 10 -9 10 -9 0
-16 -4 -16 -10z"/>
<path d="M4670 5970 l-25 -7 29 -8 c37 -10 185 0 199 14 13 13 -162 14 -203 1z"/>
<path d="M4895 5943 c-11 -2 -30 -6 -42 -9 -36 -7 -27 -24 10 -17 45 8 98 31
72 31 -11 0 -29 -2 -40 -5z"/>
<path d="M5077 5925 c-16 -14 -41 -25 -57 -25 -32 0 -49 -17 -26 -26 21 -8
102 30 115 55 15 28 2 26 -32 -4z"/>
<path d="M5570 5924 c0 -23 22 -97 32 -108 14 -17 9 64 -7 94 -17 34 -25 38
-25 14z"/>
<path d="M5530 5879 c7 -11 14 -18 17 -15 8 8 -5 36 -17 36 -7 0 -7 -6 0 -21z"/>
<path d="M5338 5676 c-7 -39 -4 -55 8 -44 3 3 4 23 2 44 l-3 39 -7 -39z"/>
<path d="M5130 5626 c0 -20 5 -36 10 -36 6 0 10 13 10 29 0 17 -4 33 -10 36
-6 4 -10 -8 -10 -29z"/>
<path d="M5291 5614 c0 -11 3 -14 6 -6 3 7 2 16 -1 19 -3 4 -6 -2 -5 -13z"/>
<path d="M7666 7052 c-21 -15 -59 -29 -85 -32 -50 -5 -57 -18 -20 -37 20 -10
26 -10 35 2 6 9 27 15 48 15 29 0 36 4 36 20 0 14 7 20 23 20 13 0 31 8 41 18
15 18 15 19 -11 19 -16 1 -45 -11 -67 -25z"/>
<path d="M4105 6843 c18 -16 31 -21 33 -14 6 18 -18 41 -42 41 -19 -1 -19 -3
9 -27z"/>
<path d="M3970 6846 c15 -19 94 -50 112 -44 15 6 -83 58 -108 58 -13 0 -14 -3
-4 -14z"/>
<path d="M4180 6761 c0 -5 7 -11 15 -15 9 -3 15 0 15 9 0 8 -7 15 -15 15 -8 0
-15 -4 -15 -9z"/>
<path d="M3980 6620 c0 -5 14 -10 30 -10 17 0 30 5 30 10 0 6 -13 10 -30 10
-16 0 -30 -4 -30 -10z"/>
<path d="M3895 6560 c-12 -4 -27 -15 -34 -24 -22 -27 19 -20 54 9 30 24 20 32
-20 15z"/>
<path d="M3903 6503 c-7 -2 -13 -9 -13 -14 0 -15 36 -10 50 6 10 12 9 15 -6
14 -11 0 -25 -3 -31 -6z"/>
<path d="M3818 6444 c-29 -15 -52 -47 -41 -57 9 -10 40 11 63 43 24 33 18 37
-22 14z"/>
<path d="M3970 6219 c-6 -22 -9 -46 -7 -52 5 -13 37 54 37 78 0 30 -20 14 -30
-26z"/>
<path d="M7260 6555 c-14 -8 -33 -14 -42 -15 -9 0 -30 -12 -47 -26 -31 -26
-32 -26 -97 -13 l-66 13 -24 -27 c-54 -63 -34 -178 32 -185 42 -4 93 34 122
91 21 40 29 47 54 47 19 0 40 11 64 35 19 19 39 35 45 35 13 0 7 52 -6 56 -5
2 -21 -3 -35 -11z m-185 -109 c0 -16 -5 -31 -11 -33 -6 -2 -10 7 -10 19 1 17
-5 24 -21 26 -36 5 -27 24 10 20 28 -3 32 -7 32 -32z m-55 -16 c0 -5 -4 -10
-10 -10 -5 0 -10 5 -10 10 0 6 5 10 10 10 6 0 10 -4 10 -10z"/>
<path d="M7597 6494 c-7 -8 14 -54 25 -54 13 0 9 36 -5 49 -8 6 -17 8 -20 5z"/>
<path d="M4842 6465 c-14 -31 -15 -45 -4 -45 9 0 32 44 32 60 0 19 -17 10 -28
-15z"/>
<path d="M4770 6453 c-13 -36 -28 -40 -79 -22 -89 31 -204 -71 -205 -182 0
-58 43 -136 80 -145 64 -16 147 23 183 86 26 47 36 128 22 173 -10 30 -10 40
4 61 9 14 15 33 12 43 -3 14 -7 10 -17 -14z m-75 -82 c-3 -12 -11 -21 -16 -21
-6 0 -8 3 -6 8 2 4 7 16 11 26 9 25 20 13 11 -13z m-78 -3 c-3 -8 -6 -5 -6 6
-1 11 2 17 5 13 3 -3 4 -12 1 -19z m40 0 c-3 -8 -6 -5 -6 6 -1 11 2 17 5 13 3
-3 4 -12 1 -19z m73 -13 c-7 -9 -15 -13 -17 -11 -7 7 7 26 19 26 6 0 6 -6 -2
-15z m-146 -12 c9 -22 -12 -43 -23 -24 -10 15 -4 41 9 41 4 0 11 -8 14 -17z
m155 -29 c-10 -13 -10 -17 2 -25 12 -7 12 -9 -2 -9 -9 0 -19 3 -22 6 -9 9 11
44 25 44 6 0 6 -6 -3 -16z m-179 -53 c0 -16 -6 -33 -12 -39 -10 -8 -13 -1 -15
29 -1 27 3 39 13 39 9 0 14 -11 14 -29z m121 16 c-1 -12 -15 -9 -19 4 -3 6 1
10 8 8 6 -3 11 -8 11 -12z m69 -31 c0 -2 -7 -6 -15 -10 -8 -3 -15 -1 -15 4 0
6 7 10 15 10 8 0 15 -2 15 -4z m-48 -58 c-7 -7 -12 -8 -12 -2 0 14 12 26 19
19 2 -3 -1 -11 -7 -17z m-112 4 c0 -5 -9 -17 -19 -26 -22 -20 -40 -4 -21 19
13 16 40 20 40 7z m71 -27 c1 -12 -59 -31 -68 -22 -3 4 0 14 7 22 14 17 60 17
61 0z"/>
<path d="M4823 6373 c6 -10 82 -33 106 -33 16 0 13 17 -3 23 -31 12 -109 19
-103 10z"/>
<path d="M4810 6200 c0 -16 5 -30 10 -30 6 0 10 14 10 30 0 17 -4 30 -10 30
-5 0 -10 -13 -10 -30z"/>
<path d="M4427 6172 c-23 -25 -21 -41 3 -35 13 3 20 14 20 29 0 29 -2 29 -23
6z"/>
<path d="M4822 6131 c4 -13 18 -16 19 -4 0 4 -5 9 -11 12 -7 2 -11 -2 -8 -8z"/>
<path d="M4700 6110 c0 -5 5 -10 10 -10 6 0 10 5 10 10 0 6 -4 10 -10 10 -5 0
-10 -4 -10 -10z"/>
<path d="M8687 6095 c-36 -25 -48 -45 -27 -45 23 0 90 41 90 55 0 22 -20 18
-63 -10z"/>
<path d="M8262 5721 l-53 -39 29 -4 c42 -6 102 2 102 14 0 6 -17 7 -42 3 l-43
-7 32 24 c31 22 50 48 35 48 -4 0 -31 -18 -60 -39z"/>
<path d="M6887 6113 c-12 -12 -7 -40 9 -54 14 -11 19 -10 35 9 10 13 15 30 12
37 -5 15 -44 21 -56 8z m38 -13 c-3 -5 -11 -10 -16 -10 -6 0 -7 5 -4 10 3 6
11 10 16 10 6 0 7 -4 4 -10z"/>
<path d="M4300 5254 c-17 -43 -35 -308 -24 -349 15 -58 26 -41 30 42 1 43 6
135 9 206 4 70 4 127 1 127 -4 0 -11 -12 -16 -26z"/>
<path d="M4378 5160 c-8 -15 -28 -209 -28 -262 0 -53 19 -28 26 35 4 34 9 55
11 47 12 -43 15 -45 23 -25 14 32 11 72 -5 78 -10 4 -15 26 -17 74 -2 37 -6
61 -10 53z"/>
<path d="M4214 4655 c-11 -28 72 -129 146 -179 30 -20 40 -20 40 -1 0 8 -5 15
-11 15 -18 0 -120 103 -140 142 -21 42 -27 45 -35 23z"/>
<path d="M4453 4560 c-26 -11 -30 -28 -8 -37 18 -6 58 25 49 38 -6 11 -12 11
-41 -1z"/>
<path d="M4860 5276 c0 -7 9 -16 20 -19 23 -6 26 3 8 21 -16 16 -28 15 -28 -2z"/>
<path d="M4906 5221 c-4 -6 -13 -8 -21 -4 -16 6 -18 -2 -6 -32 7 -18 9 -18 26
8 10 15 15 30 12 33 -3 3 -8 1 -11 -5z"/>
<path d="M4935 5211 c-3 -5 -1 -12 5 -16 5 -3 10 1 10 9 0 18 -6 21 -15 7z"/>
<path d="M4930 5160 c0 -5 11 -10 25 -10 14 0 25 5 25 10 0 6 -11 10 -25 10
-14 0 -25 -4 -25 -10z"/>
<path d="M4912 5119 c2 -7 10 -15 17 -17 8 -3 12 1 9 9 -2 7 -10 15 -17 17 -8
3 -12 -1 -9 -9z"/>
<path d="M4975 5090 c-3 -6 1 -13 10 -16 19 -8 30 0 20 15 -8 14 -22 14 -30 1z"/>
<path d="M4952 5049 c2 -7 10 -15 17 -17 8 -3 12 1 9 9 -2 7 -10 15 -17 17 -8
3 -12 -1 -9 -9z"/>
<path d="M4955 4991 c-6 -11 9 -23 19 -14 9 9 7 23 -3 23 -6 0 -12 -4 -16 -9z"/>
<path d="M6995 5129 l-40 -19 35 6 c35 6 58 19 49 28 -2 3 -22 -4 -44 -15z"/>
<path d="M6157 4893 c-12 -11 -8 -23 7 -23 7 0 19 7 26 15 10 12 9 15 -7 15
-11 0 -23 -3 -26 -7z"/>
<path d="M5877 4784 c-61 -14 -111 -37 -139 -62 -33 -28 -18 -32 30 -8 26 13
80 34 120 46 39 12 72 26 72 31 0 11 -12 11 -83 -7z"/>
<path d="M5671 4769 c-19 -8 -21 -12 -11 -24 7 -8 15 -13 19 -12 38 17 61 32
61 39 0 11 -39 9 -69 -3z"/>
<path d="M6098 4754 c-28 -15 -38 -34 -18 -34 18 0 70 30 70 40 0 14 -20 12
-52 -6z"/>
<path d="M5520 4690 c0 -20 8 -24 45 -20 53 5 38 40 -17 40 -21 0 -28 -5 -28
-20z"/>
<path d="M5370 4490 c0 -5 5 -10 10 -10 6 0 10 5 10 10 0 6 -4 10 -10 10 -5 0
-10 -4 -10 -10z"/>
<path d="M4840 4567 c0 -8 7 -21 16 -28 14 -11 15 -10 12 11 -3 26 -28 41 -28
17z"/>
<path d="M5164 4555 c-3 -8 -3 -19 1 -25 8 -13 48 -13 62 1 8 8 17 8 32 -1 38
-20 48 -4 11 18 -40 25 -98 29 -106 7z"/>
<path d="M4762 4530 c7 -11 20 -20 30 -20 9 0 23 -3 32 -6 31 -12 15 11 -20
29 -45 22 -57 22 -42 -3z"/>
<path d="M2895 4260 c11 -53 27 -73 21 -26 -3 22 -10 44 -17 50 -8 8 -9 2 -4
-24z"/>
<path d="M2810 4244 c0 -23 41 -114 51 -114 13 0 11 14 -12 75 -20 53 -39 72
-39 39z"/>
<path d="M3471 4311 c-7 -5 -11 -13 -8 -18 8 -13 69 -3 64 11 -5 14 -38 19
-56 7z"/>
<path d="M3470 4165 c22 -23 23 -29 12 -57 -6 -18 -10 -34 -7 -36 5 -6 55 45
55 56 0 20 -43 62 -62 62 -21 0 -21 0 2 -25z"/>
<path d="M3400 4151 c-15 -30 -9 -65 13 -69 13 -3 17 3 17 30 0 48 -15 67 -30
39z"/>
<path d="M3590 4159 c0 -6 9 -18 21 -27 12 -11 23 -34 26 -60 6 -41 22 -58 24
-24 4 63 -21 122 -51 122 -11 0 -20 -5 -20 -11z"/>
<path d="M3350 4015 c-7 -25 -17 -48 -21 -51 -33 -20 16 -33 52 -14 21 12 26
59 9 91 -16 30 -26 23 -40 -26z"/>
<path d="M3505 3953 c-3 -21 -15 -80 -26 -131 -22 -105 -23 -120 -10 -107 17
17 61 185 61 231 0 54 -17 58 -25 7z"/>
<path d="M3308 3862 c-7 -27 6 -46 27 -39 10 4 15 15 13 29 -4 29 -34 36 -40
10z"/>
<path d="M3397 3863 c-4 -3 -7 -51 -7 -107 0 -127 18 -118 22 11 2 89 -1 110
-15 96z"/>
<path d="M3372 3363 c3 -21 12 -92 21 -158 9 -66 21 -161 26 -210 5 -50 16
-106 25 -125 l16 -35 -5 41 c-3 23 -10 109 -15 190 -10 149 -20 220 -40 295
-14 50 -34 52 -28 2z"/>
<path d="M2640 3439 c0 -5 5 -7 10 -4 6 3 10 8 10 11 0 2 -4 4 -10 4 -5 0 -10
-5 -10 -11z"/>
<path d="M2564 3422 c9 -15 48 -23 43 -9 -2 7 -14 14 -26 15 -13 2 -21 -1 -17
-6z"/>
<path d="M2490 3408 c0 -23 93 -122 110 -116 9 3 -8 26 -48 69 -39 41 -61 58
-62 47z"/>
<path d="M2427 3338 c-8 -27 -1 -38 23 -38 10 0 34 -18 53 -40 54 -63 66 -47
20 26 -20 32 -35 44 -52 44 -16 0 -21 4 -17 15 3 9 0 15 -8 15 -8 0 -16 -10
-19 -22z"/>
<path d="M4200 2824 c-41 -18 -144 -94 -136 -101 6 -6 195 99 196 110 0 11
-21 8 -60 -9z"/>
<path d="M6094 3209 c-3 -5 5 -13 18 -18 13 -5 34 -21 47 -35 24 -26 51 -35
51 -17 0 33 -101 93 -116 70z"/>
<path d="M4632 2458 c-7 -7 -12 -18 -12 -24 0 -22 17 -24 34 -5 14 15 14 20 3
29 -10 9 -17 8 -25 0z"/>
<path d="M4982 2391 c-17 -55 -16 -140 2 -147 17 -6 150 86 154 107 1 8 -4 23
-11 34 -14 18 -16 18 -61 1 -50 -19 -60 -36 -21 -36 14 0 25 -4 25 -10 0 -5
-13 -10 -30 -10 -23 0 -31 5 -36 25 -3 14 -1 32 6 40 12 14 6 35 -9 35 -4 0
-13 -17 -19 -39z"/>
<path d="M4876 2398 c-23 -33 -9 -36 22 -5 21 21 23 27 10 27 -9 0 -24 -10
-32 -22z"/>
<path d="M5184 2392 c18 -34 46 -60 46 -43 0 23 -31 71 -46 71 -13 0 -13 -3 0
-28z"/>
<path d="M4914 2344 c-10 -14 -18 -45 -18 -70 -1 -53 -11 -57 -20 -9 -9 45
-26 45 -26 1 0 -49 21 -66 84 -66 64 0 77 9 37 26 -37 15 -48 52 -34 106 12
44 1 50 -23 12z"/>
<path d="M4780 2276 c0 -8 4 -17 9 -20 10 -7 23 19 14 28 -11 11 -23 6 -23 -8z"/>
<path d="M5053 2244 c-14 -14 -23 -28 -19 -31 9 -9 56 26 56 42 0 21 -7 19
-37 -11z"/>
<path d="M4304 2156 c-10 -8 -15 -18 -11 -22 4 -4 15 0 24 9 22 21 12 31 -13
13z"/>
<path d="M4408 2093 c7 -3 16 -2 19 1 4 3 -2 6 -13 5 -11 0 -14 -3 -6 -6z"/>
<path d="M6864 856 c-10 -27 2 -43 14 -19 8 14 9 24 2 28 -6 3 -13 -1 -16 -9z"/>
<path d="M6902 838 c-18 -18 -15 -25 18 -37 33 -11 37 -4 20 30 -12 22 -21 24
-38 7z"/>
<path d="M7222 803 c-16 -29 -15 -40 8 -115 21 -68 76 -144 99 -137 10 4 5 15
-16 39 -46 53 -64 96 -72 169 -6 59 -8 64 -19 44z"/>
<path d="M7290 735 c0 -14 5 -25 10 -25 6 0 10 11 10 25 0 14 -4 25 -10 25 -5
0 -10 -11 -10 -25z"/>
<path d="M7290 667 c0 -7 14 -26 30 -42 34 -33 40 -17 9 26 -22 31 -39 38 -39
16z"/>
<path d="M11048 9801 c-47 -22 -61 -36 -28 -27 48 14 80 28 80 37 0 12 -9 10
-52 -10z"/>
<path d="M12590 9776 c-54 -20 -219 -105 -279 -143 -93 -60 -46 -48 61 15 180
107 260 134 353 122 36 -5 40 -8 43 -36 5 -54 -63 -96 -323 -195 l-50 -19 25
20 c32 25 15 25 -45 -1 -69 -30 -65 -17 7 27 76 45 73 43 66 50 -3 3 -43 -13
-87 -36 -45 -22 -86 -38 -91 -35 -5 3 -23 -1 -40 -10 -35 -18 -41 -4 -8 19 12
9 18 16 12 16 -22 0 -173 -110 -297 -215 -112 -96 -131 -107 -213 -133 -39
-12 -79 -31 -89 -42 -22 -24 -16 -25 33 -4 71 30 82 34 82 24 0 -5 -35 -51
-78 -102 -43 -51 -121 -149 -174 -218 -158 -206 -382 -411 -608 -557 -334
-214 -563 -315 -797 -350 -90 -13 -124 -14 -203 -4 -115 14 -127 14 -114 2 32
-31 203 -39 334 -16 222 39 469 145 730 312 69 44 139 87 155 96 38 20 211
171 334 290 51 51 145 161 209 246 131 174 230 278 295 310 25 12 98 31 163
42 65 11 130 27 144 36 l25 17 -47 20 c-27 11 -48 23 -48 27 0 9 137 68 380
163 241 94 299 124 328 167 32 47 26 81 -18 96 -46 16 -126 15 -170 -1z m-370
-274 c0 -8 -64 -42 -78 -42 -6 1 69 50 76 50 1 0 2 -4 2 -8z"/>
<path d="M10683 9745 c13 -27 22 -31 32 -15 8 13 -13 40 -30 40 -10 0 -11 -5
-2 -25z"/>
<path d="M10505 9610 c-3 -5 -2 -10 4 -10 5 0 13 5 16 10 3 6 2 10 -4 10 -5 0
-13 -4 -16 -10z"/>
<path d="M10335 9563 c-38 -14 -74 -30 -80 -36 -7 -7 -4 -8 10 -3 11 4 54 19
95 33 41 14 77 27 79 29 12 12 -43 0 -104 -23z"/>
<path d="M10025 9469 c-82 -22 -151 -42 -154 -45 -3 -2 0 -9 6 -15 8 -8 56 4
175 44 192 65 182 71 -27 16z"/>
<path d="M11555 9160 c-7 -12 2 -30 16 -30 12 0 12 27 0 35 -5 3 -12 1 -16 -5z"/>
<path d="M11446 9093 c-11 -11 -6 -23 9 -23 8 0 15 4 15 9 0 13 -16 22 -24 14z"/>
<path d="M10483 8985 c-39 -56 -67 -75 -108 -75 -14 0 -25 -5 -25 -10 0 -6
-10 -25 -22 -42 -17 -22 -19 -32 -10 -35 6 -3 12 -11 12 -18 0 -24 17 -25 43
-5 l26 20 -6 -55 c-7 -66 8 -77 64 -48 52 27 71 75 53 138 -9 33 -18 45 -31
45 -26 0 -24 10 14 66 47 69 49 74 38 74 -5 0 -27 -25 -48 -55z m-68 -121
c-36 -28 -74 -44 -80 -35 -8 15 45 51 74 51 25 -1 26 -1 6 -16z m67 -21 c25
-23 22 -48 -10 -85 -53 -58 -86 -3 -42 70 23 37 27 38 52 15z"/>
<path d="M10451 8817 c-13 -34 -14 -47 -2 -47 20 0 34 30 24 53 -11 22 -11 22
-22 -6z"/>
<path d="M10711 9004 c0 -11 3 -14 6 -6 3 7 2 16 -1 19 -3 4 -6 -2 -5 -13z"/>
<path d="M11355 9010 c-3 -5 1 -10 9 -10 9 0 16 5 16 10 0 6 -4 10 -9 10 -6 0
-13 -4 -16 -10z"/>
<path d="M10715 8951 c-3 -5 -1 -12 5 -16 5 -3 10 1 10 9 0 18 -6 21 -15 7z"/>
<path d="M8413 8809 c-7 -7 -13 -19 -13 -26 0 -7 -4 -13 -9 -13 -4 0 -15 -28
-24 -62 -23 -93 -34 -118 -50 -112 -11 4 -15 -11 -20 -68 -3 -40 -31 -174 -61
-298 -31 -123 -54 -231 -51 -239 8 -22 38 11 96 104 27 45 65 96 83 114 39 38
36 44 57 -94 6 -44 13 -81 15 -83 1 -2 71 67 156 154 176 181 415 369 557 437
73 36 87 39 112 30 26 -10 31 -9 45 13 9 13 22 24 30 24 20 0 160 66 169 80 9
14 -11 9 -99 -26 -41 -16 -65 -20 -76 -14 -11 6 -24 5 -36 -4 -10 -7 -46 -23
-79 -35 -83 -31 -141 -66 -275 -165 -122 -91 -163 -112 -92 -47 39 36 53 61
34 61 -5 0 -69 -55 -143 -122 -172 -155 -250 -214 -260 -195 -5 7 -11 56 -14
108 -10 154 -14 161 -66 110 -16 -16 -29 -25 -29 -20 0 20 31 219 46 292 17
87 16 116 -3 96z m17 -403 c0 -8 3 -22 7 -32 4 -11 3 -15 -4 -11 -13 8 -23 57
-12 57 5 0 9 -6 9 -14z m5 -76 c3 -6 -3 -10 -14 -10 -12 0 -21 2 -21 4 0 2 -3
12 -7 21 -5 15 -3 16 15 6 11 -6 24 -16 27 -21z m140 -125 c-59 -63 -111 -115
-115 -115 -9 0 -30 119 -29 166 1 36 2 34 10 -16 17 -97 40 -96 149 8 46 45
86 79 88 77 3 -2 -44 -56 -103 -120z"/>
<path d="M8598 8774 c-15 -28 -42 -64 -60 -80 -33 -29 -78 -102 -78 -126 0 -7
17 5 38 25 43 42 52 45 52 19 0 -24 19 -42 45 -42 49 0 58 40 18 82 l-28 29
24 43 c13 25 21 56 19 72 -3 28 -4 27 -30 -22z m11 -153 c12 -8 12 -12 2 -25
-16 -19 -31 -12 -31 15 0 21 7 23 29 10z"/>
<path d="M9482 8540 c2 -26 7 -43 13 -40 13 7 10 59 -5 74 -8 8 -10 0 -8 -34z"/>
<path d="M9410 8536 c0 -40 8 -66 21 -66 10 0 12 44 3 78 -9 34 -24 26 -24
-12z"/>
<path d="M9550 8555 c0 -8 5 -15 10 -15 6 0 10 7 10 15 0 8 -4 15 -10 15 -5 0
-10 -7 -10 -15z"/>
<path d="M11278 8434 c-37 -24 -38 -26 -38 -83 0 -44 -4 -60 -16 -65 -23 -9
-13 -39 16 -46 16 -4 31 -19 43 -44 16 -33 21 -37 50 -34 l32 3 -3 57 c-3 49
0 58 17 68 28 15 26 24 -8 37 -25 9 -30 17 -36 60 -9 70 -14 74 -57 47z"/>
<path d="M9311 8431 c-26 -4 -38 -14 -50 -38 -13 -26 -22 -33 -47 -33 -17 0
-37 7 -44 15 -30 36 -35 -5 -8 -62 6 -12 8 -29 5 -37 -5 -13 -297 -163 -512
-262 -49 -22 -56 -28 -37 -32 15 -2 114 41 289 127 146 72 268 129 272 126 4
-2 14 -22 21 -45 21 -62 32 -59 25 7 l-7 58 36 18 c48 22 53 22 60 -8 8 -32
26 -32 26 0 0 29 38 58 150 118 40 21 70 40 67 43 -2 2 -52 -16 -110 -41 -58
-25 -108 -45 -111 -45 -2 0 -8 14 -11 32 -6 26 -3 34 16 49 25 20 24 20 -30
10z m-21 -91 c0 -23 -6 -30 -31 -39 -50 -17 -61 -14 -57 16 4 33 24 41 31 12
7 -27 24 -17 32 21 8 37 25 30 25 -10z"/>
<path d="M10045 8384 c-38 -14 -92 -34 -120 -44 -89 -32 -186 -80 -180 -90 7
-11 91 18 163 55 57 31 76 29 42 -5 -11 -11 -18 -25 -15 -30 8 -13 35 -13 35
0 0 18 42 48 86 60 53 15 79 40 43 41 -21 1 -20 2 9 15 18 8 37 12 43 9 5 -4
9 -1 9 4 0 18 -41 12 -115 -15z"/>
<path d="M9055 8278 c-77 -46 -74 -65 5 -22 48 26 92 64 74 64 -5 0 -40 -19
-79 -42z"/>
<path d="M10025 8301 c-6 -11 9 -23 19 -14 9 9 7 23 -3 23 -6 0 -12 -4 -16 -9z"/>
<path d="M9823 8252 c-68 -25 -73 -25 -91 -9 -27 25 -34 21 -27 -13 9 -43 -18
-51 -54 -16 l-28 27 1 -38 c1 -32 -2 -38 -21 -41 -18 -3 -23 2 -23 17 0 12 -6
21 -15 21 -8 0 -15 -9 -15 -19 0 -26 -14 -34 -78 -42 -67 -9 -77 -18 -112 -95
-32 -71 -30 -71 -160 -77 -85 -4 -127 -18 -192 -61 -26 -17 -28 -17 -28 -1 0
29 -34 12 -54 -28 -22 -46 -15 -103 14 -112 29 -9 79 21 86 53 21 88 75 122
192 122 96 0 130 18 161 86 34 78 35 79 87 85 27 4 61 10 75 14 19 5 28 2 32
-9 8 -21 35 -20 33 1 -1 11 9 19 30 23 17 4 45 17 62 30 31 23 32 23 47 4 14
-19 15 -18 21 4 9 33 56 54 101 46 32 -6 35 -5 29 11 -3 10 -1 24 5 31 15 18
9 17 -78 -14z"/>
<path d="M7745 8249 c-10 -15 3 -25 16 -12 7 7 7 13 1 17 -6 3 -14 1 -17 -5z"/>
<path d="M7364 8219 c-22 -43 -21 -72 5 -132 28 -65 27 -98 -5 -128 -23 -21
-25 -31 -24 -84 3 -89 4 -87 -30 -80 -28 6 -31 4 -49 -37 -10 -24 -28 -52 -40
-62 -37 -33 -20 -97 20 -75 26 13 42 47 49 99 4 40 8 45 28 42 41 -6 52 14 52
94 0 63 3 75 22 88 23 16 36 74 37 159 1 46 -11 62 -23 32 -3 -8 -10 -15 -15
-15 -17 0 -22 38 -11 81 14 52 7 61 -16 18z"/>
<path d="M10203 8192 c-10 -17 -16 -18 -51 -9 -21 6 -48 7 -58 3 -18 -8 -18
-8 1 -16 11 -5 33 -9 49 -9 l30 -1 -42 -36 c-49 -42 -46 -67 3 -30 19 15 36
26 38 26 3 0 7 -13 11 -30 6 -33 18 -36 79 -19 45 12 47 31 6 61 -17 13 -36
36 -42 51 -11 26 -13 27 -24 9z m54 -87 l28 -24 -27 -1 c-39 0 -58 10 -58 31
0 26 23 24 57 -6z"/>
<path d="M7767 8194 c-9 -10 2 -24 19 -24 8 0 14 7 14 15 0 15 -21 21 -33 9z"/>
<path d="M7800 8115 c-10 -12 -10 -15 1 -15 26 0 59 12 59 21 0 15 -47 10 -60
-6z"/>
<path d="M7849 8040 c-23 -19 -23 -19 -3 -20 20 0 44 17 44 32 0 14 -17 9 -41
-12z"/>
<path d="M7876 7967 c-49 -28 -60 -50 -18 -38 36 11 70 32 76 48 8 19 -14 15
-58 -10z"/>
<path d="M7160 7831 c-19 -10 -48 -37 -65 -60 l-30 -43 0 -189 0 -189 -37 -25
c-60 -41 -71 -35 -114 55 -21 44 -41 80 -46 80 -11 0 -11 -3 18 -97 21 -65 24
-87 15 -96 -16 -16 -39 15 -69 93 -13 33 -28 60 -33 60 -15 0 -11 -28 12 -80
11 -27 22 -63 22 -81 2 -30 -3 -36 -87 -88 -82 -51 -114 -81 -87 -81 6 0 42
21 81 46 39 25 74 43 77 40 3 -3 2 -29 -3 -58 -9 -55 -7 -53 -134 -128 -8 -5
-12 -12 -8 -15 4 -4 37 9 73 29 36 20 70 36 75 36 5 0 10 -15 12 -32 5 -50 23
-34 20 17 -3 35 0 46 16 54 26 14 33 4 66 -83 15 -39 29 -72 32 -75 3 -3 2 22
-1 56 -7 61 -7 62 19 69 16 4 32 2 39 -5 32 -32 35 1 5 63 -26 53 -22 60 60
113 30 19 52 36 49 39 -3 3 -24 -6 -47 -21 -67 -43 -88 -48 -100 -24 -16 28
-4 40 26 27 23 -11 28 -9 44 12 21 27 43 92 46 133 3 41 14 48 54 37 37 -11
110 -4 110 11 0 4 7 6 15 3 10 -4 15 0 15 12 0 9 3 14 7 11 8 -9 50 94 57 141
7 42 -4 94 -21 99 -7 3 -14 -12 -18 -34 -12 -74 -16 -85 -41 -108 -38 -35 -82
-42 -107 -16 -33 33 -27 104 17 197 54 113 45 138 -34 95z m-100 -527 c0 -15
-22 -44 -35 -44 -23 0 -29 22 -10 37 19 13 45 18 45 7z m-115 -96 c7 -18 11
-35 8 -38 -6 -6 -42 42 -43 58 0 24 21 11 35 -20z m-71 -20 c10 -38 7 -65 -9
-78 -13 -11 -15 -5 -15 44 0 57 13 75 24 34z"/>
<path d="M10695 7829 c-10 -15 3 -25 16 -12 7 7 7 13 1 17 -6 3 -14 1 -17 -5z"/>
<path d="M10620 7795 c0 -8 5 -15 10 -15 6 0 10 7 10 15 0 8 -4 15 -10 15 -5
0 -10 -7 -10 -15z"/>
<path d="M8862 7779 c2 -7 10 -15 17 -17 8 -3 12 1 9 9 -2 7 -10 15 -17 17 -8
3 -12 -1 -9 -9z"/>
<path d="M10550 7775 c0 -8 5 -15 10 -15 6 0 10 7 10 15 0 8 -4 15 -10 15 -5
0 -10 -7 -10 -15z"/>
<path d="M10345 7735 c-44 -13 -123 -40 -176 -59 -92 -33 -97 -34 -102 -15 -3
10 -11 19 -19 19 -21 0 -78 -39 -85 -58 -8 -22 -34 -52 -45 -52 -5 0 -13 11
-18 25 -5 14 -16 25 -23 25 -17 0 -186 -74 -300 -132 -137 -69 -69 -54 89 20
200 93 189 91 215 47 20 -34 23 -35 43 -20 11 8 28 18 36 22 21 9 30 24 30 50
0 28 36 41 57 20 18 -18 23 -17 199 51 72 27 154 53 183 57 28 4 51 11 51 16
0 15 -51 9 -135 -16z"/>
<path d="M7365 7480 c-3 -5 -1 -10 4 -10 6 0 11 5 11 10 0 6 -2 10 -4 10 -3 0
-8 -4 -11 -10z"/>
<path d="M7363 7437 c-35 -13 -53 -27 -34 -27 16 0 81 28 81 34 0 8 -10 6 -47
-7z"/>
<path d="M7178 7393 c7 -3 16 -2 19 1 4 3 -2 6 -13 5 -11 0 -14 -3 -6 -6z"/>
<path d="M7137 7357 c-9 -33 -2 -47 22 -47 20 0 54 33 45 43 -4 4 -17 4 -30 1
-16 -4 -23 -1 -26 13 -3 14 -6 11 -11 -10z"/>
<path d="M7233 7365 c-9 -24 -1 -25 37 -5 l35 19 -33 1 c-20 0 -35 -6 -39 -15z"/>
<path d="M7105 7291 c-8 -14 10 -22 30 -15 13 5 14 8 3 15 -17 11 -26 11 -33
0z"/>
<path d="M7248 7248 c-3 -18 -8 -41 -12 -50 -6 -13 -3 -15 12 -11 14 3 22 -1
27 -16 9 -29 25 -26 25 3 0 14 7 31 15 40 19 18 19 26 0 26 -8 0 -19 9 -25 20
-16 30 -37 24 -42 -12z"/>
<path d="M9435 7081 c-6 -11 9 -23 19 -14 9 9 7 23 -3 23 -6 0 -12 -4 -16 -9z"/>
<path d="M9235 7050 c-3 -5 1 -10 9 -10 9 0 16 5 16 10 0 6 -4 10 -9 10 -6 0
-13 -4 -16 -10z"/>
<path d="M9355 7041 c-6 -11 9 -23 19 -14 9 9 7 23 -3 23 -6 0 -12 -4 -16 -9z"/>
<path d="M8368 6985 c-18 -40 -15 -45 23 -45 35 0 50 44 22 66 -25 19 -27 18
-45 -21z"/>
<path d="M9270 7004 c0 -9 5 -14 12 -12 18 6 21 28 4 28 -9 0 -16 -7 -16 -16z"/>
<path d="M9035 6978 c-27 -12 -140 -62 -250 -111 -110 -50 -252 -110 -315
-133 -72 -28 -123 -53 -137 -69 -12 -14 -25 -20 -28 -15 -9 14 -42 12 -52 -2
-4 -7 -10 -31 -13 -53 l-6 -40 -29 58 c-51 102 -80 59 -47 -70 35 -136 44
-149 93 -123 26 14 24 43 -3 55 -24 11 -52 54 -62 95 -5 17 0 14 14 -12 18
-33 46 -58 65 -58 3 0 13 16 21 35 10 24 21 35 35 35 14 0 24 11 35 38 8 20
18 43 22 51 5 8 60 37 123 63 63 27 148 65 189 85 41 19 140 64 220 99 80 35
159 71 175 78 46 22 6 17 -50 -6z"/>
<path d="M9180 6985 c0 -9 5 -15 11 -13 6 2 11 8 11 13 0 5 -5 11 -11 13 -6 2
-11 -4 -11 -13z"/>
<path d="M9075 6950 c-8 -14 3 -30 21 -30 8 0 14 9 14 20 0 21 -24 28 -35 10z"/>
<path d="M1442 6921 c2 -7 7 -12 11 -12 12 1 9 15 -3 20 -7 2 -11 -2 -8 -8z"/>
<path d="M1520 6910 c0 -5 4 -10 9 -10 6 0 13 5 16 10 3 6 -1 10 -9 10 -9 0
-16 -4 -16 -10z"/>
<path d="M1600 6890 c0 -5 7 -10 15 -10 8 0 15 5 15 10 0 6 -7 10 -15 10 -8 0
-15 -4 -15 -10z"/>
<path d="M8955 6866 c-11 -8 -16 -19 -12 -30 9 -22 41 -17 45 8 6 27 -11 38
-33 22z"/>
<path d="M8860 6796 c-14 -18 -10 -58 7 -63 14 -5 55 56 47 69 -8 13 -41 9
-54 -6z"/>
<path d="M8586 6648 c-3 -15 1 -32 12 -47 27 -36 42 -37 42 -4 0 15 3 38 6 51
6 19 3 22 -24 22 -22 0 -31 -6 -36 -22z"/>
<path d="M8130 6420 c0 -5 5 -10 10 -10 6 0 10 5 10 10 0 6 -4 10 -10 10 -5 0
-10 -4 -10 -10z"/>
<path d="M6134 6253 c-3 -10 -10 -26 -15 -35 -12 -24 -11 -28 5 -28 7 0 26
-10 41 -22 l28 -22 -6 32 c-3 17 -2 34 3 37 17 10 11 25 -10 25 -11 0 -20 7
-20 15 0 21 -19 19 -26 -2z"/>
<path d="M6464 5986 c-17 -43 26 -71 50 -33 9 15 7 21 -8 33 -25 18 -35 18
-42 0z"/>
<path d="M6090 5898 c1 -7 9 -28 19 -47 l18 -34 5 31 c2 17 0 38 -4 46 -11 19
-38 21 -38 4z"/>
<path d="M6787 5803 c-4 -6 -7 -22 -6 -34 0 -13 -2 -33 -6 -44 -5 -15 1 -24
25 -39 17 -10 34 -15 37 -12 3 3 2 25 -1 50 -8 48 -38 97 -49 79z"/>
<path d="M5994 5676 c-9 -23 7 -38 26 -26 13 8 13 11 -2 26 -16 17 -18 17 -24
0z"/>
<path d="M6714 5595 c-4 -10 -1 -21 7 -26 20 -12 34 -5 34 17 0 24 -33 31 -41
9z"/>
<path d="M7140 5496 c0 -3 7 -12 16 -20 23 -23 40 -19 19 4 -16 18 -35 26 -35
16z"/>
<path d="M6316 5481 c-8 -12 21 -61 36 -61 17 0 4 65 -14 68 -9 2 -19 -2 -22
-7z"/>
<path d="M6117 5433 c-11 -10 -8 -43 3 -43 15 0 24 30 13 41 -5 5 -12 6 -16 2z"/>
<path d="M6620 3935 c-93 -55 -127 -81 -117 -91 4 -4 31 4 60 18 29 14 68 28
87 32 81 16 114 43 89 72 -18 22 -40 17 -119 -31z"/>
<path d="M5720 3449 c0 -26 23 -49 60 -60 44 -13 70 -2 70 32 0 16 -8 19 -49
19 -28 0 -53 5 -56 10 -8 13 -25 13 -25 -1z"/>
<path d="M8310 775 c0 -8 5 -15 10 -15 6 0 10 7 10 15 0 8 -4 15 -10 15 -5 0
-10 -7 -10 -15z"/>
<path d="M7940 650 c0 -5 5 -10 11 -10 5 0 7 5 4 10 -3 6 -8 10 -11 10 -2 0
-4 -4 -4 -10z"/>
<path d="M6570 456 c0 -2 8 -10 18 -17 15 -13 16 -12 3 4 -13 16 -21 21 -21
13z"/>
<path d="M410 380 l-35 -7 45 -2 c25 0 52 4 60 9 12 8 10 9 -10 9 -14 -1 -41
-5 -60 -9z"/>
<path d="M308 353 c7 -3 16 -2 19 1 4 3 -2 6 -13 5 -11 0 -14 -3 -6 -6z"/>
<path d="M218 343 c6 -2 18 -2 25 0 6 3 1 5 -13 5 -14 0 -19 -2 -12 -5z"/>
<path d="M48 333 c-21 -2 -38 -8 -38 -13 0 -11 71 -1 85 11 5 6 5 8 0 7 -6 -1
-27 -3 -47 -5z"/>
<path d="M6478 283 c7 -3 16 -2 19 1 4 3 -2 6 -13 5 -11 0 -14 -3 -6 -6z"/>
</g>
</svg>
