<?xml version="1.0" standalone="no"?>
<!DOCTYPE svg PUBLIC "-//W3C//DTD SVG 20010904//EN"
 "http://www.w3.org/TR/2001/REC-SVG-20010904/DTD/svg10.dtd">
<svg version="1.0" xmlns="http://www.w3.org/2000/svg"
 width="1153.000000pt" height="1280.000000pt" viewBox="0 0 1153.000000 1280.000000"
 preserveAspectRatio="xMidYMid meet">
<metadata>
Created by potrace 1.15, written by Peter Selinger 2001-2017
</metadata>
<g transform="translate(0.000000,1280.000000) scale(0.100000,-0.100000)"
fill="#000000" stroke="none">
<path d="M7160 12793 c-14 -3 -97 -22 -185 -43 -317 -77 -410 -84 -656 -54
-72 9 -153 14 -180 12 -45 -3 -49 -1 -49 20 0 15 -9 26 -27 33 -39 16 -249 4
-353 -19 -47 -10 -157 -34 -245 -52 -122 -25 -167 -39 -189 -57 -63 -53 -161
-85 -356 -118 -248 -42 -350 -95 -410 -215 -38 -75 -80 -96 -80 -39 0 65 -8
69 -138 69 -125 0 -183 -16 -190 -52 -5 -28 34 -37 111 -26 50 8 75 7 97 -2
40 -17 31 -26 -32 -34 -143 -19 -478 -93 -597 -132 -73 -24 -172 -64 -218 -89
-47 -25 -98 -45 -114 -45 -16 0 -59 -13 -95 -30 -36 -16 -81 -32 -100 -36 -19
-3 -34 -10 -34 -14 0 -17 -93 -100 -188 -168 -107 -76 -144 -114 -167 -169
-45 -106 9 -109 126 -7 50 43 104 74 129 74 23 0 -30 -68 -160 -205 -169 -177
-249 -305 -191 -305 49 0 41 -63 -18 -145 -55 -77 -56 -88 -10 -141 l40 -46
-53 -57 c-88 -92 -112 -144 -121 -258 -5 -61 -4 -63 19 -63 18 0 29 11 48 49
14 27 32 51 41 54 22 9 19 -16 -5 -38 -11 -10 -20 -24 -20 -32 0 -22 45 -15
70 12 21 22 60 35 60 20 0 -18 -40 -78 -88 -130 -57 -62 -82 -108 -82 -148 0
-15 -12 -32 -32 -47 -64 -46 -137 -113 -184 -168 -48 -55 -48 -55 -26 -70 12
-8 22 -18 22 -23 0 -5 -31 -43 -69 -84 -58 -64 -73 -88 -99 -163 -17 -48 -36
-109 -42 -137 -6 -27 -20 -64 -31 -81 -15 -25 -18 -42 -13 -72 5 -35 1 -48
-30 -99 -49 -80 -47 -134 11 -226 18 -29 21 -42 13 -57 -23 -44 0 -110 39
-110 7 0 36 22 64 48 65 60 116 102 125 102 4 0 5 -25 4 -56 -3 -46 -10 -65
-39 -103 -42 -54 -90 -152 -100 -201 -4 -24 -20 -47 -47 -71 -23 -20 -63 -74
-90 -120 -27 -46 -60 -99 -73 -117 -30 -39 -23 -52 26 -52 48 0 111 44 143 99
12 22 36 47 53 57 16 10 66 50 110 89 l81 72 25 -28 c14 -15 44 -32 68 -39 95
-25 91 -20 75 -97 -8 -37 -21 -77 -29 -90 -13 -19 -13 -25 0 -50 8 -15 15 -53
15 -83 0 -55 1 -56 35 -69 43 -15 75 -55 75 -92 0 -16 4 -29 10 -29 14 0 42
31 62 68 46 85 58 19 58 -320 0 -119 5 -251 11 -294 18 -134 64 -229 129 -271
63 -40 90 -64 90 -81 0 -11 -52 -50 -133 -103 -73 -48 -211 -141 -307 -207
-267 -182 -394 -252 -536 -292 -142 -40 -203 -65 -269 -112 -28 -19 -99 -56
-160 -83 -149 -65 -263 -123 -301 -151 -17 -13 -42 -24 -56 -24 -26 0 -83 -27
-163 -78 -27 -17 -71 -36 -96 -40 -25 -5 -66 -22 -90 -39 -62 -41 -163 -96
-234 -126 -67 -29 -462 -238 -541 -288 -61 -37 -92 -87 -101 -159 l-6 -50 36
0 c46 0 72 -32 87 -107 l12 -55 -36 -37 c-26 -26 -36 -46 -36 -68 0 -17 -7
-47 -15 -68 -15 -34 -14 -40 3 -88 28 -74 48 -168 81 -384 17 -103 42 -228 57
-278 32 -108 31 -94 13 -180 -8 -43 -14 -131 -14 -225 0 -139 2 -160 23 -204
27 -59 27 -56 2 -56 -17 0 -20 -7 -22 -52 -6 -172 17 -350 76 -602 14 -56 29
-137 35 -181 6 -44 18 -128 26 -187 18 -134 42 -186 139 -312 42 -54 74 -102
71 -106 -3 -5 0 -31 7 -59 9 -41 17 -53 42 -65 62 -29 159 -30 227 -1 24 9 73
-91 63 -129 -5 -23 0 -34 27 -62 19 -20 58 -49 87 -65 49 -29 52 -33 52 -70 0
-63 57 -159 94 -159 29 -1 94 -31 145 -68 23 -17 57 -34 74 -37 18 -4 40 -9
49 -11 22 -7 42 -77 35 -126 -4 -33 -2 -38 24 -49 16 -6 45 -9 64 -6 19 3 35
2 35 -2 0 -4 13 -28 30 -52 16 -24 30 -56 30 -70 0 -21 24 -45 138 -133 169
-132 270 -185 372 -193 63 -5 70 -4 64 11 -4 9 -26 30 -50 47 -58 39 -57 62 1
84 60 23 78 15 69 -30 -5 -26 -1 -43 16 -70 14 -23 20 -47 18 -71 l-3 -36 80
-32 c44 -18 116 -51 160 -73 195 -99 430 -193 481 -193 20 0 18 14 -16 125
-16 54 -30 116 -30 139 0 36 4 43 33 56 33 15 52 60 25 60 -30 1 -40 16 -27
43 9 20 9 43 0 101 -9 57 -10 84 -1 114 11 34 8 51 -20 153 -32 110 -52 269
-34 269 4 0 34 -8 66 -17 53 -16 58 -20 58 -46 0 -16 14 -61 31 -100 27 -60
31 -79 26 -125 -4 -40 1 -83 18 -156 14 -56 45 -213 70 -349 67 -361 72 -384
104 -405 45 -32 110 -52 169 -53 47 -1 66 -7 110 -36 104 -68 250 -103 436
-103 153 0 228 13 285 51 25 16 51 29 60 29 9 0 42 -16 75 -37 53 -33 62 -35
89 -25 49 18 131 72 209 135 116 94 222 161 226 144 5 -24 -31 -86 -88 -152
-48 -57 -81 -127 -66 -142 15 -15 82 35 123 92 118 163 107 154 278 244 167
88 245 112 245 76 0 -10 -31 -49 -70 -86 -69 -68 -70 -69 -70 -122 0 -41 -5
-58 -20 -72 -11 -10 -20 -27 -20 -37 0 -30 27 -75 61 -98 30 -22 37 -22 225
-18 l194 4 182 180 c158 156 354 321 366 310 2 -3 -1 -13 -7 -24 -30 -57 8
-158 104 -275 44 -53 61 -67 83 -67 37 1 105 33 156 75 24 19 46 35 49 35 3 0
11 -17 18 -37 21 -64 68 -140 115 -183 40 -37 48 -40 82 -34 53 10 84 27 153
89 34 30 65 52 70 49 5 -3 33 -38 62 -77 74 -100 78 -102 130 -88 38 11 49 9
111 -14 127 -48 241 -43 306 12 18 14 56 56 85 93 30 37 69 74 89 84 22 11 36
24 36 36 0 35 12 51 69 89 55 38 107 89 269 269 45 50 109 108 142 129 55 35
60 41 60 76 0 31 4 39 27 48 22 8 30 6 50 -13 23 -21 25 -21 52 -5 36 21 81
22 81 3 0 -21 -25 -43 -81 -72 -43 -21 -48 -28 -43 -49 5 -21 -15 -44 -155
-181 -147 -143 -161 -160 -162 -193 -3 -77 -11 -92 -62 -111 -60 -23 -74 -34
-97 -80 -14 -27 -27 -39 -49 -43 -39 -8 -71 -40 -71 -72 l0 -26 100 52 c116
59 199 129 229 194 14 30 35 54 63 71 74 46 178 134 318 269 221 212 349 313
449 355 23 9 30 17 26 29 -13 32 -18 74 -9 70 5 -3 21 -11 36 -18 23 -12 30
-12 43 -1 20 17 16 67 -5 61 -55 -14 -60 -13 -60 8 0 30 41 52 123 68 95 18
105 28 78 81 -11 23 -18 48 -15 56 6 14 62 46 83 46 6 0 17 15 26 33 8 17 24
48 35 67 11 19 20 48 20 65 0 23 11 41 41 70 44 42 78 105 79 143 0 13 18 40
43 65 23 23 60 67 83 98 49 66 94 92 130 75 13 -6 24 -13 24 -16 -1 -3 -23
-36 -51 -73 -37 -50 -63 -74 -94 -88 -24 -11 -47 -28 -50 -40 -9 -28 -34 -213
-30 -218 7 -6 49 8 84 29 31 20 32 22 17 39 -23 25 -22 49 2 28 9 -8 30 -21
46 -26 l28 -11 -42 -46 c-49 -53 -87 -131 -72 -146 16 -16 38 -3 72 43 17 24
58 66 93 94 46 38 68 65 86 106 94 215 178 356 252 425 24 22 52 57 61 77 9
20 57 87 106 149 102 129 185 248 230 329 37 65 57 85 95 94 39 10 35 -6 -19
-76 -63 -82 -87 -141 -81 -196 4 -39 2 -45 -17 -53 -33 -12 -62 -50 -92 -115
-15 -33 -38 -72 -52 -87 -21 -23 -24 -34 -19 -69 5 -39 2 -46 -41 -97 -47 -56
-126 -137 -154 -159 -8 -6 -18 -30 -22 -53 -4 -23 -16 -59 -26 -81 -17 -33
-18 -39 -5 -39 38 0 117 51 193 124 96 92 162 177 273 351 75 117 79 126 79
181 0 47 6 66 30 105 42 64 70 148 77 228 5 54 17 88 68 191 34 69 72 153 83
187 26 74 45 189 37 220 -3 15 5 38 25 69 17 28 30 61 30 80 0 24 5 34 20 39
29 9 56 52 86 136 14 41 37 83 49 94 17 14 30 46 45 113 14 58 35 113 57 150
51 83 54 96 41 148 -12 44 -11 49 20 104 17 32 32 65 32 73 0 19 -77 57 -115
57 -37 0 -105 -71 -105 -110 0 -42 -26 -118 -56 -163 -16 -23 -28 -49 -29 -57
-3 -53 -22 -121 -43 -154 -14 -22 -55 -111 -93 -199 -78 -181 -107 -234 -159
-291 -35 -38 -38 -47 -45 -119 -6 -67 -11 -82 -36 -106 -16 -17 -34 -52 -44
-87 -10 -32 -26 -68 -36 -79 -23 -24 -24 -16 -3 82 20 97 63 221 162 468 89
222 128 341 148 454 14 79 18 181 8 181 -18 0 -68 -39 -84 -65 -10 -16 -33
-86 -50 -155 -30 -119 -60 -190 -81 -190 -6 0 -8 15 -5 33 3 17 8 53 11 79 3
26 28 114 56 195 27 81 52 175 55 208 l6 60 -21 -30 c-11 -16 -30 -70 -41
-119 -26 -107 -43 -143 -76 -158 -56 -26 -56 12 1 201 31 102 37 252 9 216
-30 -38 -45 -88 -60 -197 -17 -130 -32 -171 -84 -221 -31 -30 -45 -54 -65
-121 -14 -47 -35 -91 -47 -102 l-21 -19 7 65 c9 88 39 209 87 359 36 116 79
296 79 337 0 16 -1 16 -20 -1 -10 -9 -24 -43 -31 -74 -16 -80 -24 -91 -61 -88
-32 2 -32 2 -94 -138 -34 -77 -70 -169 -79 -204 -9 -35 -24 -78 -33 -95 l-17
-31 -3 30 c-7 55 20 175 75 333 53 153 103 321 103 347 0 20 -39 6 -55 -19 -8
-11 -21 -54 -29 -95 -15 -71 -29 -101 -47 -101 -17 0 -8 67 26 195 19 72 35
143 35 158 0 24 -2 26 -20 17 -27 -15 -68 -87 -110 -199 -20 -53 -44 -109 -54
-126 l-17 -30 5 53 c3 29 19 103 37 165 39 139 42 218 11 269 -19 30 -50 56
-57 46 0 -2 -9 -37 -19 -80 -15 -67 -38 -108 -59 -108 -15 0 -5 81 18 150 58
172 6 174 -76 3 -39 -81 -59 -103 -59 -64 0 11 11 76 25 145 14 69 25 143 25
163 l-1 38 -23 -26 c-17 -20 -28 -54 -41 -124 -12 -69 -24 -104 -40 -123 -13
-15 -26 -24 -29 -21 -4 3 7 69 23 145 40 193 46 237 29 232 -7 -3 -20 -18 -28
-34 -14 -28 -15 -25 -20 81 -3 61 -8 103 -12 95 -4 -8 -21 -76 -38 -150 -65
-282 -111 -430 -135 -430 -40 0 -42 9 -17 82 25 76 36 156 52 398 5 85 13 167
16 183 4 16 2 27 -5 27 -22 0 -44 -53 -52 -132 -5 -45 -20 -129 -33 -187 -13
-58 -30 -143 -37 -188 l-12 -82 -35 2 -35 2 -28 -84 c-39 -115 -53 -126 -45
-36 3 43 25 129 55 220 27 83 51 168 55 191 5 37 3 42 -19 52 -19 9 -24 17
-20 34 25 117 56 324 53 363 l-3 50 -17 -32 c-22 -39 -33 -93 -53 -246 -8 -64
-21 -133 -29 -151 l-14 -34 -46 15 c-26 9 -46 22 -46 30 0 8 11 62 24 121 33
147 48 256 44 327 l-3 60 -17 -32 c-12 -21 -18 -54 -18 -94 0 -72 -17 -144
-64 -266 -18 -48 -39 -121 -46 -161 -13 -69 -39 -122 -61 -122 -17 0 -9 132
15 228 28 110 41 198 56 360 6 62 16 141 23 175 9 42 10 73 4 97 -8 31 -10 33
-18 15 -14 -33 -100 -491 -106 -567 -6 -75 -30 -118 -64 -118 -27 0 -24 25 16
141 42 121 43 148 10 179 -31 29 -31 36 -1 185 34 168 37 252 10 280 -9 9 -19
14 -21 11 -12 -12 -64 -370 -69 -476 -4 -80 -12 -127 -24 -155 -10 -22 -23
-80 -30 -129 -12 -93 -29 -140 -55 -149 -27 -11 -18 78 20 208 33 112 46 209
30 235 -3 5 -19 10 -35 10 -24 0 -35 8 -54 39 -14 22 -29 42 -34 45 -5 3 -25
-20 -45 -52 -38 -62 -77 -104 -77 -82 0 6 18 110 39 229 56 304 71 408 78 549
3 67 9 122 13 122 4 0 109 -103 233 -230 154 -155 227 -236 227 -250 0 -12 9
-33 20 -47 11 -14 20 -31 20 -38 0 -7 18 -20 40 -30 24 -11 63 -44 94 -80 75
-89 159 -161 298 -257 66 -46 175 -124 242 -173 67 -50 145 -101 174 -113 28
-12 52 -27 52 -32 0 -5 19 -20 43 -33 23 -13 85 -48 137 -77 52 -29 185 -110
295 -180 110 -70 247 -153 305 -185 58 -31 139 -79 180 -106 94 -60 130 -69
159 -40 21 21 21 22 4 53 -25 43 -79 80 -216 149 -64 33 -135 75 -156 94 -28
25 -48 35 -72 35 -27 0 -77 28 -234 131 -239 157 -372 240 -480 299 -44 24
-100 62 -125 85 -70 63 -185 146 -295 210 -157 91 -195 124 -289 249 -56 74
-132 156 -213 231 -68 65 -139 133 -157 154 -37 42 -86 123 -86 143 0 8 -22
25 -50 37 -33 15 -93 64 -180 147 -72 68 -131 126 -133 130 -1 3 21 13 48 22
213 72 354 302 348 567 -2 63 3 111 16 160 11 39 22 96 26 128 4 39 13 65 27
79 l21 21 21 -59 c12 -32 37 -86 55 -119 71 -127 121 -226 121 -241 0 -8 13
-32 29 -52 16 -20 36 -61 46 -90 19 -59 50 -99 80 -104 18 -3 20 3 23 50 2 28
8 52 13 52 5 0 21 11 34 25 34 33 33 99 -2 196 -26 73 -27 78 -32 404 -5 289
-8 334 -23 362 -20 35 -24 73 -8 73 5 0 16 -16 24 -35 10 -23 22 -35 34 -35
29 0 34 25 20 91 -11 53 -10 60 8 80 15 16 19 36 19 89 0 58 -5 77 -39 143
-42 83 -66 98 -120 77 -41 -15 -44 -13 -56 30 -12 44 -35 53 -43 18 -9 -36
-55 -375 -63 -458 -6 -67 -10 -79 -40 -110 -20 -21 -49 -72 -69 -124 -63 -155
-85 -170 -85 -58 l-1 67 -42 20 c-32 15 -41 25 -38 40 1 11 3 50 4 86 1 84
-34 161 -100 219 -62 54 -87 60 -122 26 -15 -14 -35 -26 -45 -26 -15 0 -17 5
-12 30 9 47 -10 35 -23 -14 -26 -103 -32 -286 -21 -563 14 -316 22 -281 -95
-397 -85 -84 -214 -176 -333 -235 -73 -37 -82 -44 -76 -63 4 -14 -5 -44 -27
-89 -18 -38 -30 -72 -26 -75 15 -15 129 19 237 71 64 30 121 55 128 55 8 0 10
-9 6 -27 -11 -46 -40 -85 -108 -146 -53 -47 -69 -68 -87 -118 -18 -49 -34 -70
-81 -111 -38 -34 -58 -59 -58 -74 0 -15 -19 -39 -58 -73 -60 -51 -69 -65 -147
-235 l-45 -98 -53 68 c-62 81 -87 119 -87 134 0 5 15 10 33 10 23 0 41 8 60
28 15 15 27 32 27 36 0 4 -29 49 -64 100 -36 50 -68 104 -72 120 l-7 28 32
-16 c21 -11 46 -43 77 -96 52 -88 67 -105 89 -97 28 11 28 54 1 128 -14 38
-26 74 -26 80 0 21 21 6 50 -36 17 -25 38 -45 47 -45 16 0 15 10 -3 83 -5 21
-3 27 9 27 28 0 29 20 7 108 -31 129 -70 187 -137 207 -37 10 -28 -22 22 -86
50 -64 65 -96 65 -141 0 -31 0 -31 -20 -13 -11 10 -45 56 -75 102 -31 46 -72
101 -92 124 -37 41 -119 96 -129 86 -12 -11 29 -70 87 -124 65 -62 110 -127
108 -159 0 -10 -3 -13 -6 -6 -2 6 -55 51 -116 99 -62 47 -137 111 -168 140
-52 50 -59 54 -90 48 -32 -6 -37 -3 -59 32 -28 42 -76 71 -92 55 -7 -7 -6 -17
2 -32 6 -12 9 -28 6 -36 -5 -13 -10 -13 -33 4 -16 10 -93 52 -173 93 -108 55
-160 88 -205 131 -33 32 -55 57 -50 58 6 0 47 -23 90 -50 83 -53 141 -75 169
-64 21 8 4 21 -138 105 -60 35 -128 83 -152 107 -24 23 -58 49 -76 57 -90 37
-313 240 -347 315 -11 25 -21 53 -21 63 0 31 34 15 52 -25 10 -21 28 -43 40
-49 13 -7 35 -22 50 -35 15 -12 42 -25 60 -29 18 -4 47 -20 63 -36 17 -15 62
-41 100 -57 39 -17 132 -60 208 -96 75 -37 177 -80 225 -96 145 -48 297 -65
322 -35 16 20 4 34 -57 68 -45 24 -82 34 -307 86 -102 24 -161 50 -202 89 -28
26 -28 27 -7 30 12 2 35 -4 52 -12 64 -33 95 -11 44 31 l-28 23 31 -6 c20 -4
34 -1 43 9 10 13 3 22 -48 57 -34 22 -121 73 -193 112 -149 79 -274 158 -332
210 -34 30 -38 38 -32 63 10 38 71 99 94 92 9 -3 54 -15 98 -28 l81 -24 12
-60 c11 -55 16 -63 54 -87 129 -80 240 -113 353 -105 107 8 136 25 256 147 65
67 114 110 126 110 22 0 72 -52 98 -101 8 -17 18 -58 22 -92 l7 -62 52 -21 53
-21 -28 -25 c-15 -14 -45 -37 -67 -51 -53 -35 -68 -47 -88 -77 -24 -35 -22
-39 21 -33 162 22 373 135 439 234 32 48 32 89 -1 163 -32 72 -32 103 -4 183
22 59 22 64 6 90 -65 108 -269 70 -491 -90 -104 -75 -174 -92 -382 -91 -203 2
-244 11 -626 150 l-107 38 -71 -47 c-47 -31 -77 -59 -88 -82 -16 -33 -15 -36
10 -93 29 -64 33 -101 16 -134 -10 -19 -13 -17 -44 30 -39 57 -79 92 -106 92
-15 0 -19 -8 -19 -40 0 -44 -13 -52 -31 -17 -7 12 -33 48 -58 80 -40 52 -43
60 -28 68 26 15 21 54 -10 77 -26 19 -26 21 -15 60 7 23 27 57 46 76 31 34 34
35 71 25 36 -10 45 -8 131 36 l92 47 57 -21 c32 -12 60 -19 63 -17 3 3 21 -9
40 -26 80 -69 194 -98 399 -98 205 0 260 13 521 119 119 49 222 64 263 38 30
-18 78 -29 299 -67 317 -54 457 -35 491 67 10 32 9 38 -7 50 -27 20 -66 16
-120 -14 -119 -65 -139 -72 -197 -73 -58 0 -60 1 -105 50 -95 101 -220 150
-383 150 -70 0 -90 -4 -143 -30 -104 -51 -163 -61 -406 -70 -212 -8 -260 -5
-260 19 0 4 19 14 43 21 23 7 98 34 166 61 152 61 224 79 323 79 42 0 80 4 83
10 3 5 -1 23 -9 39 -23 44 -69 55 -195 47 -147 -9 -531 -90 -539 -114 -2 -6 8
-27 22 -45 36 -47 34 -67 -6 -67 -25 0 -41 10 -74 45 l-41 45 -124 0 c-116 0
-199 12 -199 28 1 11 118 87 189 122 36 18 106 43 157 56 104 26 304 46 369
37 67 -9 110 3 124 33 6 15 10 28 9 29 -22 17 -117 35 -186 35 -97 0 -148 -12
-367 -85 -88 -29 -181 -56 -206 -59 -31 -5 -54 -15 -70 -33 -13 -14 -77 -61
-142 -104 -102 -67 -122 -77 -150 -72 -30 4 -36 1 -66 -39 -18 -23 -41 -58
-52 -75 -13 -24 -26 -33 -44 -33 -19 0 -28 -7 -36 -27 -9 -25 -7 -30 18 -50
l28 -23 -45 6 c-34 4 -54 0 -80 -14 -33 -18 -35 -18 -65 -1 -50 30 -153 52
-210 45 l-50 -6 -28 49 c-15 27 -27 53 -27 57 0 5 89 9 198 9 217 0 287 11
302 49 11 29 36 49 106 84 69 35 114 81 114 118 0 36 -25 30 -78 -20 -38 -35
-63 -49 -122 -66 -106 -30 -260 -37 -379 -16 -174 30 -367 109 -431 175 -21
21 -52 42 -69 46 -17 3 -43 21 -58 39 -39 46 -65 59 -88 42 -17 -13 -16 -16
20 -47 22 -19 80 -71 130 -117 49 -46 107 -95 127 -110 61 -44 91 -164 43
-169 -15 -2 -28 11 -50 49 -36 63 -100 114 -155 123 -34 6 -44 3 -63 -15 -23
-22 -23 -25 -10 -74 31 -116 -19 -226 -103 -226 -42 0 -45 5 -28 52 8 22 14
63 14 90 0 43 -5 55 -41 98 -70 83 -70 83 -208 63 -101 -15 -134 -15 -212 -6
-78 10 -98 17 -129 42 -60 48 -211 75 -420 76 -147 0 -172 -2 -232 -23 -44
-15 -84 -39 -115 -66 -27 -23 -61 -49 -78 -58 -16 -8 -43 -23 -60 -32 -45 -24
-88 -20 -142 14 -48 31 -77 37 -103 20 -22 -14 -1 -60 39 -87 91 -61 181 -56
300 16 79 48 88 51 151 51 103 0 190 -37 190 -82 0 -29 -45 -41 -127 -34 -108
10 -140 -17 -93 -77 46 -58 -21 -35 -79 27 -23 24 -69 35 -84 20 -9 -10 12
-57 40 -86 29 -30 29 -39 17 -173 l-9 -90 -151 -1 c-173 -2 -192 -8 -219 -76
-22 -55 -12 -60 101 -52 104 7 143 -5 236 -74 76 -56 111 -72 163 -72 51 0 61
12 46 53 -17 44 4 41 93 -13 136 -82 189 -97 232 -66 18 14 14 17 -57 50 -86
40 -125 79 -135 134 -4 20 -11 45 -16 56 -6 12 -7 21 -1 25 6 3 15 16 22 29
19 36 39 26 86 -47 41 -63 51 -72 102 -91 127 -48 253 -63 324 -38 60 20 115
66 206 169 48 56 107 112 129 126 l42 24 19 -33 c12 -21 42 -46 82 -67 61 -32
62 -33 44 -53 -34 -38 -138 -105 -274 -176 -75 -40 -166 -94 -204 -122 -77
-57 -61 -55 -331 -50 -116 1 -174 -1 -178 -9 -12 -19 22 -68 61 -87 31 -15 70
-19 218 -24 99 -3 185 -8 191 -12 6 -4 52 6 104 23 51 16 103 29 114 27 18 -3
14 -11 -35 -60 -65 -66 -113 -84 -254 -98 -100 -10 -346 2 -410 21 -22 6 -95
33 -162 60 -163 66 -171 65 -134 -17 34 -76 76 -99 230 -128 209 -40 289 -48
435 -44 121 3 132 1 123 -13 -18 -30 -102 -77 -173 -98 -54 -16 -206 -40 -258
-41 -9 0 -4 -54 8 -82 6 -12 -5 -25 -46 -51 -29 -19 -101 -82 -159 -138 l-106
-104 -6 -100 c-4 -55 -9 -113 -13 -130 -8 -44 45 -100 150 -159 l86 -48 -30
-35 c-17 -18 -30 -38 -30 -43 0 -17 38 -30 86 -30 l47 0 -44 -23 c-40 -21 -49
-34 -99 -133 -30 -61 -59 -116 -64 -124 -6 -9 -15 17 -28 81 -10 52 -53 194
-94 316 l-76 223 -64 67 c-62 65 -130 176 -118 194 8 14 49 11 119 -8 73 -19
64 -23 188 76 72 58 157 165 157 197 0 8 -9 14 -20 14 -37 0 -77 -28 -114 -79
-77 -104 -130 -128 -191 -87 -46 31 -79 41 -214 61 -58 9 -105 17 -106 18 -10
27 -45 85 -80 134 -75 106 -80 158 -39 433 31 206 40 552 16 577 -32 32 -55 2
-68 -89 -5 -41 -10 -48 -34 -53 -40 -9 -74 -50 -114 -135 -19 -42 -45 -88 -57
-104 l-23 -29 -17 104 c-26 150 -26 154 19 176 52 27 101 97 143 202 34 86 43
98 162 224 89 95 142 142 180 162 45 24 58 38 85 89 17 34 55 90 84 126 50 61
53 68 53 121 0 45 7 69 38 128 21 40 37 76 35 80 -7 18 -70 -14 -149 -77 -85
-67 -155 -109 -166 -98 -8 8 50 98 156 241 186 249 200 277 166 316 -15 15
-11 19 50 50 102 51 125 94 53 101 -40 4 -50 33 -19 54 36 25 26 44 -21 44
-39 0 -102 11 -150 26 -14 4 -18 -1 -18 -24 0 -28 -4 -32 -67 -52 -38 -11
-105 -35 -149 -51 -75 -28 -83 -34 -100 -71 -14 -31 -28 -45 -63 -60 -25 -10
-77 -43 -116 -72 -128 -98 -198 -119 -122 -37 49 52 63 86 53 125 -5 19 1 28
34 50 63 42 91 92 91 165 l1 61 58 0 c43 0 75 8 124 29 113 51 257 92 393 112
156 22 208 33 263 55 47 19 51 39 19 91 -29 46 -14 65 45 57 32 -5 45 -2 56
11 13 15 12 19 -5 31 -10 8 -27 14 -36 14 -25 0 -49 11 -49 21 0 12 55 11 120
-1 50 -9 56 -8 91 16 21 14 61 31 90 37 l51 12 42 -40 c23 -22 61 -55 84 -73
23 -18 39 -38 36 -45 -2 -7 2 -21 10 -32 12 -16 16 -17 30 -6 21 17 21 71 0
119 -9 20 -24 75 -34 122 -17 79 -103 328 -136 391 -15 30 -50 59 -71 59 -18
0 -17 -62 2 -122 18 -62 5 -61 -29 2 -46 84 -108 107 -114 42 -3 -27 -7 -32
-30 -32 -15 0 -45 5 -67 10 -86 20 -333 30 -478 20 -78 -6 -158 -13 -177 -16
l-35 -6 35 36 c19 20 78 59 131 86 105 54 132 76 106 86 -26 10 -87 -15 -164
-67 -98 -65 -126 -79 -164 -79 l-33 0 30 31 c16 18 61 55 99 84 39 29 82 66
97 81 27 29 48 84 32 84 -20 -1 -140 -91 -241 -181 -130 -115 -213 -179 -273
-209 l-44 -22 15 23 c9 13 49 49 90 80 41 31 113 101 160 155 122 141 156 174
242 237 81 60 93 75 98 122 3 25 1 29 -16 27 -11 -2 -43 -26 -72 -53 -69 -66
-85 -66 -62 0 14 41 65 66 225 114 162 49 202 67 262 120 42 37 70 52 164 82
62 20 129 49 148 63 43 33 153 61 239 62 61 0 71 4 260 104 108 57 282 147
388 200 171 85 192 93 198 77 11 -37 53 -43 130 -21 188 55 410 87 513 74 68
-8 50 -24 -28 -24 -59 0 -100 -19 -100 -47 0 -16 -6 -17 336 3 l111 6 7 -26
c11 -46 47 -51 163 -26 96 21 104 22 127 6 63 -41 120 -45 474 -39 350 6 540
-1 982 -38 129 -10 251 -19 270 -19 l35 1 -37 32 c-20 17 -51 43 -68 56 -17
13 -36 34 -41 47 -4 13 -16 24 -25 24 -9 0 -78 20 -153 45 -186 62 -234 74
-319 76 -59 2 -75 6 -83 20 -13 25 -54 45 -109 54 -25 4 -81 18 -124 31 -75
23 -119 27 -176 17z m-3650 -1673 c111 -13 181 -33 204 -59 16 -17 15 -19 -6
-25 -49 -13 -132 -6 -174 14 l-41 20 -82 -30 c-102 -37 -143 -39 -177 -5 -14
14 -23 29 -19 34 3 5 34 19 70 31 36 12 68 26 71 32 4 5 18 7 33 4 14 -3 69
-10 121 -16z m718 -193 c41 -60 49 -79 38 -83 -20 -8 -41 9 -108 81 -47 51
-55 65 -51 88 l5 27 32 -18 c17 -10 55 -53 84 -95z m-708 89 c0 -17 -103 -79
-218 -131 -75 -35 -172 -84 -216 -109 -94 -56 -221 -121 -256 -131 -20 -6 -11
7 40 59 128 131 298 222 540 291 86 24 110 28 110 21z m40 -145 c0 -5 -13 -25
-30 -46 -35 -44 -36 -47 -12 -68 17 -16 20 -15 43 9 36 38 70 61 105 68 30 7
32 5 38 -28 l7 -36 57 -1 c31 -1 68 -4 82 -8 24 -7 23 -8 -10 -14 -19 -4 -136
-16 -260 -27 -124 -11 -233 -22 -242 -24 -58 -13 -5 64 72 105 35 18 74 48 88
65 21 26 29 31 44 23 10 -5 18 -13 18 -18z m-220 -892 c0 -17 -61 -68 -185
-152 -66 -44 -142 -105 -170 -135 -27 -30 -68 -73 -90 -97 -41 -43 -81 -62
-110 -51 -23 8 -18 70 13 161 27 80 28 80 60 77 25 -2 43 6 75 32 64 52 167
105 285 146 104 37 122 40 122 19z m1489 -1192 c39 -19 35 -34 -11 -45 -24 -6
-83 -35 -133 -63 -145 -83 -166 -90 -305 -99 -69 -4 -132 -4 -140 0 -8 4 -42
13 -75 20 -71 14 -111 33 -127 60 -10 16 -20 18 -55 13 -50 -7 -120 16 -149
49 -19 20 -19 20 21 15 117 -18 324 -29 439 -24 114 4 143 9 221 37 50 17 108
35 130 40 61 12 157 11 184 -3z m791 -327 c-25 -35 -49 -50 -83 -50 -19 0 -27
-8 -40 -42 -37 -100 -40 -128 -44 -379 l-5 -256 35 -20 c19 -11 58 -55 86 -96
44 -64 86 -107 105 -107 2 0 11 18 20 40 12 30 15 58 10 108 -4 41 0 128 11
222 21 189 16 260 -25 363 -37 93 -37 135 0 155 33 17 134 10 182 -14 36 -17
38 -17 57 0 11 10 17 24 15 31 -4 8 8 17 30 25 20 6 38 20 41 31 8 25 20 21
83 -28 48 -37 49 -40 70 -133 40 -171 129 -338 257 -477 43 -48 78 -74 148
-110 97 -50 393 -243 449 -292 19 -16 75 -46 126 -66 92 -37 143 -78 155 -126
7 -27 -14 -24 -80 11 -31 17 -69 30 -85 30 -24 0 -32 -6 -41 -30 -15 -41 -28
-38 -60 13 -13 19 -25 27 -40 25 -20 -3 -22 -10 -25 -66 -2 -42 2 -73 13 -94
8 -17 14 -33 12 -34 -11 -11 -74 46 -114 103 -89 125 -143 176 -143 134 0
-100 537 -620 633 -613 46 4 173 -71 196 -116 23 -43 66 -86 136 -132 81 -54
133 -100 156 -137 28 -45 18 -52 -27 -17 -117 93 -149 115 -185 124 -52 14
-102 5 -95 -18 2 -10 7 -34 11 -55 3 -21 27 -90 52 -155 69 -178 86 -247 73
-303 -9 -37 -8 -65 5 -135 37 -195 30 -403 -21 -612 -17 -68 -29 -152 -33
-230 -6 -115 -8 -124 -34 -149 l-27 -28 0 46 c0 25 7 68 15 95 8 27 15 62 15
78 0 29 0 29 -20 11 -23 -21 -38 -69 -76 -247 -15 -72 -36 -142 -48 -160 l-21
-33 -3 39 c-2 25 5 55 22 90 16 33 26 75 30 121 2 39 15 111 27 160 16 63 22
123 23 200 l1 110 -26 3 c-26 3 -26 4 -32 105 -11 202 -71 404 -193 651 l-74
151 6 -56 c6 -69 15 -103 92 -344 35 -111 65 -229 72 -283 19 -140 8 -355 -34
-617 -19 -121 -38 -248 -42 -282 -4 -41 -13 -68 -25 -79 -11 -9 -19 -24 -19
-32 0 -33 -13 1 -30 82 -20 89 -38 134 -65 156 -13 11 -19 10 -35 -5 -16 -14
-20 -31 -20 -79 0 -35 -15 -123 -35 -206 -19 -80 -35 -164 -35 -187 0 -24 -4
-43 -9 -43 -27 0 -61 113 -61 202 0 24 -4 37 -10 33 -5 -3 -10 -25 -10 -48 -1
-100 -40 -74 -47 30 -6 84 -9 94 -27 87 -30 -12 -39 -61 -30 -162 16 -179 12
-280 -15 -352 -27 -76 -71 -138 -121 -171 -46 -31 -162 -36 -348 -16 -75 9
-216 18 -312 22 -182 6 -274 16 -373 41 -57 15 -59 14 -88 -10 l-29 -25 -73
20 c-161 44 -321 102 -459 166 l-78 36 0 71 c0 73 2 77 99 346 17 47 31 95 31
106 0 22 -30 37 -53 28 -25 -9 -59 -76 -96 -188 -22 -65 -42 -120 -45 -123 -9
-10 -55 37 -82 83 -44 75 -65 183 -71 374 -5 154 -4 177 11 189 13 11 20 11
41 -3 13 -9 37 -16 53 -16 35 0 37 9 53 213 16 209 44 274 146 329 67 37 555
198 620 205 34 4 74 0 118 -12 59 -16 79 -17 203 -7 217 19 358 -5 676 -116
l139 -49 24 -47 c23 -45 48 -134 93 -326 26 -111 48 -160 70 -160 25 0 58 41
76 96 28 84 73 115 75 52 2 -67 -3 -101 -27 -170 -13 -40 -24 -73 -24 -75 0
-2 9 -3 19 -3 16 0 25 19 51 103 59 186 73 276 74 452 1 129 -3 172 -18 223
-10 34 -22 62 -26 62 -13 0 -16 -91 -6 -217 9 -119 4 -195 -14 -223 -9 -13
-13 -12 -30 9 -15 17 -20 38 -20 81 0 40 -9 84 -30 139 -21 57 -32 111 -38
183 -9 99 -11 108 -72 228 -34 69 -109 247 -166 397 -57 150 -122 308 -144
351 -29 56 -44 99 -50 144 -9 73 -39 138 -103 223 -78 103 -262 272 -358 329
l-32 19 5 -52 c4 -42 13 -61 52 -109 71 -87 86 -123 97 -223 11 -107 20 -130
109 -279 44 -73 75 -138 85 -178 9 -35 72 -180 140 -322 175 -365 265 -567
265 -597 0 -24 -38 -13 -76 22 -20 19 -45 35 -56 35 -19 0 -162 55 -183 70 -5
4 -73 39 -150 78 -227 114 -318 135 -460 108 -49 -10 -133 -16 -216 -16 -116
0 -145 -3 -205 -24 -122 -41 -308 -141 -534 -286 -104 -67 -150 -89 -150 -73
0 14 30 55 73 100 46 48 44 66 -10 83 -21 7 -48 18 -60 26 -20 13 -25 10 -70
-40 -177 -199 -259 -485 -199 -691 13 -44 7 -420 -7 -442 -17 -27 -66 -14
-111 27 -24 22 -48 40 -54 40 -6 0 -15 17 -19 38 -13 60 -9 505 6 663 13 144
14 146 42 163 43 25 59 45 59 72 0 19 5 24 24 24 16 0 35 13 55 39 17 21 42
42 55 45 18 4 29 19 44 59 10 28 65 181 122 338 l103 285 73 39 73 39 29 -21
29 -22 43 21 c40 20 47 21 114 8 39 -7 99 -15 133 -17 48 -4 64 -9 68 -23 3
-9 14 -25 25 -35 25 -22 42 -10 68 49 25 55 43 69 74 57 36 -14 40 -35 17 -93
-35 -89 -3 -214 61 -236 48 -17 60 -7 60 49 0 31 8 66 21 90 11 23 29 73 38
112 10 39 22 72 27 73 5 1 21 5 35 8 21 5 28 14 33 41 10 51 51 92 152 153
104 63 136 89 164 134 30 50 27 57 -26 47 -60 -11 -122 -46 -214 -119 -65 -52
-175 -120 -194 -120 -3 0 -6 14 -6 30 0 27 -3 30 -33 30 -51 0 -120 28 -165
66 -48 41 -84 98 -136 215 l-38 86 26 38 c43 63 28 136 -42 208 -49 50 -132
73 -132 36 0 -6 18 -36 39 -67 56 -79 56 -93 3 -112 -39 -13 -47 -13 -90 2
l-47 17 -62 -37 c-59 -35 -63 -39 -63 -74 0 -21 -4 -38 -8 -38 -5 0 -15 -11
-22 -25 -7 -14 -19 -25 -25 -25 -7 0 -22 -28 -35 -62 -32 -90 -99 -229 -159
-333 -38 -65 -62 -125 -91 -225 -81 -280 -156 -434 -264 -542 -42 -43 -45 -48
-75 -184 -66 -294 -96 -539 -90 -738 5 -136 8 -133 -98 -82 -58 28 -76 42 -97
78 -71 121 -86 240 -78 623 3 198 8 256 20 280 42 83 82 305 54 305 -19 0 -59
-63 -80 -125 -11 -33 -29 -84 -41 -113 -29 -72 -50 -264 -58 -519 -4 -151 -10
-213 -18 -213 -20 0 -64 54 -80 100 -10 27 -22 116 -30 225 -7 99 -23 230 -36
292 l-22 112 21 148 c12 81 22 168 22 193 0 36 12 69 54 150 29 58 75 153 101
212 47 106 48 108 89 118 51 13 151 54 236 96 51 25 69 40 83 68 9 20 17 44
17 52 0 8 15 21 33 29 22 9 43 32 69 77 56 96 138 201 248 320 55 58 100 109
100 112 0 2 -10 6 -22 8 -36 5 -27 31 20 57 39 21 43 26 37 50 -10 37 -10 73
0 95 8 18 5 19 -39 13 -79 -11 -128 -40 -246 -147 -116 -104 -164 -137 -174
-121 -11 17 4 36 47 63 23 15 89 67 147 117 83 72 112 90 136 91 40 0 49 12
83 103 34 89 84 157 118 157 27 0 28 -11 8 -95 -20 -83 -19 -95 8 -95 13 0 42
20 72 49 28 27 78 75 113 108 51 50 62 65 62 92 0 51 25 93 96 161 56 54 64
67 64 99 0 30 6 42 31 60 18 13 44 51 62 89 17 37 33 70 35 75 7 13 -43 7 -83
-12 -23 -10 -74 -46 -115 -81 -41 -34 -88 -69 -105 -77 -46 -22 157 172 228
218 60 39 61 39 159 39 l99 0 -21 -30z m1930 -117 c0 -5 -9 -22 -20 -40 -27
-46 -86 -73 -157 -73 l-57 0 39 40 c21 22 57 49 79 60 40 19 116 28 116 13z
m-1109 -255 c24 -56 56 -119 71 -140 l28 -38 -27 -6 c-33 -9 -63 24 -63 67 0
15 -11 44 -24 64 -13 19 -38 77 -55 128 l-30 92 28 -33 c15 -18 48 -78 72
-134z m3079 -190 c81 -176 181 -485 183 -566 1 -55 -15 -72 -43 -47 -24 22
-54 118 -109 345 -22 91 -49 191 -61 222 -19 54 -27 128 -14 128 3 0 23 -37
44 -82z m-6590 -100 l29 -27 -21 -38 c-16 -30 -19 -47 -14 -76 6 -34 13 -40
60 -61 28 -13 69 -38 89 -56 42 -37 139 -179 131 -192 -9 -14 -86 -9 -162 13
-69 19 -78 20 -112 6 -37 -14 -38 -14 -48 8 -30 66 -36 117 -36 331 l-1 221
28 -51 c15 -28 40 -63 57 -78z m6200 -129 c0 -32 4 -39 19 -39 26 0 31 -19 31
-115 0 -96 -19 -206 -54 -315 -47 -144 -70 -180 -83 -130 -3 11 -6 20 -7 20 0
0 -39 -7 -86 -15 -47 -8 -101 -15 -121 -15 -45 0 -99 18 -99 34 0 6 27 59 61
118 56 100 63 108 97 114 96 18 152 65 152 126 l0 40 -52 -2 c-80 -4 -79 -4
-66 32 6 18 50 72 96 120 93 96 112 101 112 27z m-1385 -1335 c106 -70 202
-196 262 -346 21 -51 22 -64 14 -120 -6 -35 -15 -148 -21 -253 -13 -233 -31
-360 -63 -448 -25 -68 -72 -139 -114 -170 -23 -18 -23 -18 -23 16 0 19 11 113
24 208 14 96 27 200 29 231 5 53 4 57 -16 60 -17 2 -21 9 -20 28 11 134 3 253
-26 400 -48 232 -53 248 -106 300 -52 50 -85 106 -85 144 l0 25 46 -19 c25
-11 70 -36 99 -56z m1251 -851 c-3 -16 -10 -70 -15 -120 -7 -69 -15 -102 -33
-130 -15 -25 -25 -59 -28 -98 -4 -45 -9 -61 -21 -63 -14 -3 -15 4 -7 50 19
113 90 388 100 388 6 0 8 -11 4 -27z m-8752 -186 c28 -28 46 -103 46 -187 0
-63 -7 -71 -33 -42 -23 25 -31 67 -19 101 9 26 7 35 -19 70 -48 68 -29 112 25
58z m10008 -502 c6 -7 -2 -33 -76 -227 -31 -81 -56 -155 -56 -164 0 -29 -25
-8 -28 24 -2 23 8 54 36 105 22 39 43 88 47 107 25 118 54 177 77 155z m-7214
-40 c72 -61 55 -255 -22 -255 -13 0 -38 -3 -55 -6 -27 -6 -31 -4 -31 14 0 12
-13 55 -30 97 -16 42 -30 81 -30 88 0 17 102 87 127 87 6 0 25 -11 41 -25z
m4636 -160 c21 -19 45 -35 54 -35 15 0 15 -2 2 -10 -8 -6 -35 -10 -60 -9 -84
3 -80 6 -80 -64 0 -51 6 -76 30 -123 42 -84 235 -330 361 -459 58 -60 114
-124 122 -141 9 -17 45 -66 82 -108 68 -80 88 -112 99 -159 8 -33 6 -34 -99
-46 -44 -5 -100 -17 -125 -26 -30 -12 -95 -20 -200 -25 -168 -9 -221 -18 -442
-79 -170 -47 -297 -71 -376 -71 l-56 0 28 29 c37 39 115 80 259 135 123 48
193 84 221 115 15 16 15 19 1 31 -13 11 -22 10 -53 -3 -20 -9 -97 -27 -170
-41 -73 -15 -159 -36 -190 -47 -31 -12 -70 -22 -86 -23 -25 -1 -31 4 -38 32
-5 17 -13 32 -18 32 -6 0 -38 -11 -72 -25 -34 -14 -67 -25 -74 -25 -22 0 -25
19 -8 45 26 39 8 50 -58 35 -143 -33 -146 -32 -102 20 34 39 95 70 209 105
107 32 155 56 213 102 55 45 156 169 147 183 -12 20 -67 10 -128 -24 -68 -37
-116 -51 -147 -41 -20 6 -20 7 -1 44 27 52 82 98 197 166 112 66 225 172 289
270 21 33 64 83 94 111 31 28 74 77 96 108 22 30 40 56 41 56 1 0 18 -16 38
-35z m186 -1310 c-45 -26 -121 -45 -274 -66 -82 -11 -177 -29 -211 -40 -75
-23 -119 -24 -141 -1 -17 16 -16 17 22 20 74 5 179 23 305 52 120 28 230 46
294 48 l30 1 -25 -14z m-2010 -383 c0 -19 -83 -53 -149 -61 -40 -5 -85 -18
-104 -30 -19 -12 -50 -21 -68 -21 -38 0 -131 -24 -291 -76 -124 -39 -148 -41
-173 -14 -17 18 -16 19 6 24 128 27 188 43 339 91 185 58 287 81 423 93 9 1
17 -2 17 -6z m969 -467 c-91 -116 -182 -174 -273 -175 -49 0 -49 0 -31 20 11
12 71 56 134 99 64 43 125 88 135 100 12 13 31 21 53 21 l33 0 -51 -65z m-805
-167 c-37 -39 -99 -68 -147 -68 l-38 0 23 31 c13 16 37 39 55 50 36 22 126 40
132 26 2 -5 -10 -22 -25 -39z m-2044 13 c-5 -11 -26 -25 -45 -31 -20 -7 -83
-52 -141 -101 -121 -102 -189 -151 -198 -142 -15 15 -4 91 24 160 17 41 30 83
30 94 0 22 3 22 67 9 38 -8 69 -6 148 9 132 25 128 25 115 2z m1810 -112 c-15
-50 -36 -75 -82 -96 -50 -23 -146 -48 -155 -40 -13 14 37 75 87 105 46 27 123
58 152 61 4 1 3 -13 -2 -30z m-297 -156 c15 -3 27 -9 27 -14 0 -22 -69 -82
-138 -119 -42 -23 -90 -54 -107 -69 -16 -16 -74 -49 -128 -75 -55 -25 -158
-85 -230 -134 -183 -123 -224 -146 -233 -131 -4 7 2 20 17 31 13 10 44 36 69
56 170 143 655 474 680 466 8 -3 27 -8 43 -11z m-1878 -211 c20 -16 21 -20 9
-37 -10 -14 -14 -44 -13 -100 2 -63 -5 -103 -29 -190 -18 -60 -38 -139 -46
-175 l-14 -65 -1 113 c-1 61 6 158 14 215 17 115 46 257 53 257 2 0 14 -8 27
-18z m169 -37 c5 -18 -3 -42 -24 -83 -16 -31 -30 -68 -30 -82 l-1 -25 -19 24
c-44 52 -12 191 44 191 17 0 26 -7 30 -25z m3874 -92 c-21 -25 -78 -122 -78
-132 0 -20 55 -73 131 -126 97 -68 101 -88 21 -93 -37 -2 -52 -7 -52 -17 0
-24 40 -38 92 -33 27 3 51 1 54 -4 7 -11 -20 -53 -55 -86 -32 -31 -111 -67
-120 -55 -4 4 -16 29 -25 56 -15 39 -22 47 -43 47 -50 0 -102 -23 -160 -71
-32 -27 -61 -49 -64 -49 -4 0 4 26 17 58 28 71 44 163 44 267 l1 80 20 -25
c12 -14 32 -46 45 -72 25 -50 51 -72 97 -83 24 -6 27 -4 27 16 0 13 -16 40
-37 62 -35 35 -38 43 -38 95 0 71 25 125 74 158 44 29 72 33 49 7z m-4142
-1103 c4 -36 11 -71 17 -78 7 -9 7 -16 1 -20 -5 -4 -17 -19 -27 -34 -10 -16
-21 -28 -26 -28 -16 0 -23 73 -16 168 7 92 8 93 26 75 13 -12 21 -40 25 -83z"/>
<path d="M4832 7316 c-47 -49 -74 -85 -78 -105 -4 -20 -20 -42 -40 -57 -38
-29 -90 -98 -156 -204 -26 -41 -79 -118 -117 -170 -67 -90 -101 -159 -101
-204 0 -12 -24 -44 -55 -75 -67 -65 -147 -170 -139 -182 12 -20 54 -8 86 27
18 19 62 58 98 86 175 138 296 266 404 427 46 69 56 92 56 126 0 64 24 130 91
250 84 150 85 155 51 155 -21 0 -45 -18 -100 -74z"/>
<path d="M5952 7151 c-54 -102 -70 -163 -58 -225 7 -34 9 -36 47 -36 43 0 39
-3 133 100 l39 43 -7 69 c-3 38 -13 83 -22 99 -13 26 -48 49 -72 49 -4 0 -31
-44 -60 -99z"/>
<path d="M6530 5433 c-14 -2 -72 -14 -130 -26 -134 -28 -323 -27 -675 2 -322
27 -361 27 -433 -2 -31 -13 -91 -36 -134 -51 -143 -51 -208 -110 -208 -189 0
-72 50 -130 141 -162 56 -20 81 -15 214 40 271 114 662 192 1096 220 l97 7 9
31 c12 42 33 39 114 -13 76 -49 114 -53 122 -12 7 34 -6 97 -25 119 -29 36
-103 50 -188 36z"/>
<path d="M5584 4970 c-73 -10 -186 -47 -295 -97 -71 -32 -80 -39 -89 -72 -15
-55 -13 -73 8 -67 9 3 73 17 142 31 148 30 262 59 310 81 l35 15 -3 59 c-4 68
4 64 -108 50z"/>
<path d="M5780 4901 c-17 -41 -8 -58 37 -70 51 -14 243 -14 243 0 0 19 -20 48
-40 59 -11 6 -55 15 -98 21 -42 5 -89 12 -103 15 -22 5 -28 1 -39 -25z"/>
<path d="M5213 4534 c-53 -41 -79 -69 -97 -107 -14 -28 -24 -52 -22 -55 12
-11 46 13 74 53 17 24 46 51 64 61 41 20 78 54 78 70 0 6 -6 16 -13 22 -9 8
-31 -3 -84 -44z"/>
<path d="M5581 4533 c-17 -16 -31 -37 -33 -48 -7 -46 190 -112 301 -102 29 3
55 8 58 11 19 19 -95 114 -177 146 -71 28 -113 26 -149 -7z"/>
<path d="M5277 4478 c-49 -77 -123 -155 -174 -185 -29 -17 -42 -30 -39 -40 3
-8 6 -21 6 -28 0 -7 11 -27 25 -43 26 -31 98 -52 179 -52 23 0 58 -5 79 -11
32 -9 41 -7 66 10 36 26 37 26 44 1 8 -31 30 -23 55 20 39 68 20 108 -29 59
-24 -24 -35 -19 -20 9 17 31 14 43 -24 102 -21 33 -35 67 -35 86 0 32 -13 44
-51 44 -23 0 -25 23 -4 40 25 21 18 40 -15 40 -25 0 -35 -9 -63 -52z"/>
<path d="M6164 4476 c-29 -13 -44 -33 -44 -58 0 -11 68 -6 102 7 11 4 19 -3
26 -24 17 -50 46 -41 69 22 12 28 19 55 16 60 -7 12 -136 7 -169 -7z"/>
<path d="M6726 4373 c-3 -7 2 -46 11 -87 16 -71 15 -76 -3 -103 l-19 -28 -7
69 c-3 38 -11 73 -17 79 -6 6 -11 8 -11 5 0 -36 -24 -172 -36 -205 -22 -59
-39 -56 -28 5 11 59 11 128 1 139 -4 4 -16 2 -25 -3 -13 -9 -18 -29 -20 -94
-2 -61 -8 -90 -21 -109 -33 -46 -83 -153 -69 -148 62 26 92 30 131 19 49 -13
51 -12 102 89 47 93 68 172 67 257 -1 99 -8 128 -32 128 -11 0 -22 -6 -24 -13z"/>
<path d="M5576 12418 c-27 -5 -106 -24 -175 -43 -69 -18 -153 -37 -186 -41
-75 -8 -113 -27 -121 -60 -4 -14 -4 -27 -2 -29 3 -3 27 2 54 10 155 46 469 96
692 111 90 5 102 8 102 25 0 10 -9 23 -19 29 -24 12 -277 11 -345 -2z"/>
<path d="M6583 12404 c-20 -3 -34 -12 -38 -25 -8 -24 -36 -24 -138 -3 -42 8
-97 14 -124 12 -41 -3 -48 -6 -51 -25 -2 -13 0 -23 3 -23 4 0 95 -18 203 -40
240 -48 443 -82 932 -155 474 -71 814 -126 1003 -164 l148 -30 82 -74 c99 -89
286 -243 385 -316 40 -29 71 -55 69 -57 -7 -8 -148 56 -437 196 -281 136 -438
205 -447 196 -3 -2 14 -25 36 -49 35 -38 90 -69 336 -193 163 -81 305 -158
316 -170 l21 -23 -23 6 c-13 4 -121 40 -239 81 -118 41 -273 92 -345 114 -71
22 -156 53 -187 69 -97 50 -245 82 -278 60 -23 -16 14 -48 71 -60 27 -6 106
-35 176 -64 167 -70 259 -100 421 -136 125 -28 181 -48 432 -154 97 -41 229
-81 237 -73 2 2 -21 14 -52 26 -40 16 -60 31 -71 53 l-16 30 28 -7 c15 -4 58
-25 96 -47 81 -47 188 -99 206 -99 6 0 12 9 12 20 0 14 -17 29 -54 50 -30 17
-57 37 -60 45 -3 8 -4 15 -2 15 19 0 98 -37 135 -63 25 -18 58 -38 74 -44 24
-11 27 -11 27 7 0 36 -38 121 -78 173 -21 29 -80 96 -130 151 -50 54 -100 117
-112 140 -17 32 -63 72 -203 176 -100 74 -206 147 -237 162 -128 64 -312 102
-700 143 -129 14 -271 30 -315 37 l-80 12 60 9 c78 11 337 2 495 -18 69 -9
197 -31 285 -51 88 -19 168 -36 178 -38 24 -6 23 36 -2 58 -35 31 -243 76
-408 87 -197 13 -596 16 -748 5 -123 -9 -175 -4 -500 49 -94 15 -336 27 -392
19z m470 -85 c197 -12 282 -29 372 -74 61 -30 80 -35 142 -35 39 0 74 -4 77
-9 6 -9 -8 -13 -85 -26 -40 -7 -325 27 -472 56 -54 11 -128 31 -166 44 -38 14
-90 25 -119 25 -35 0 -57 6 -73 20 l-24 20 95 -5 c52 -3 166 -10 253 -16z"/>
<path d="M5585 12295 c-186 -18 -260 -32 -308 -57 -38 -19 -40 -21 -22 -34 27
-20 44 -18 148 18 80 27 109 32 222 36 81 2 185 -2 274 -12 79 -9 166 -16 195
-16 l50 0 -21 21 c-11 12 -45 28 -74 36 -75 21 -296 25 -464 8z"/>
<path d="M4987 12204 c-16 -8 -27 -17 -25 -19 1 -2 39 -18 83 -36 93 -38 141
-71 164 -111 12 -22 44 -43 127 -83 77 -38 121 -66 147 -94 91 -101 1 -77
-175 46 -142 99 -156 105 -227 97 -54 -6 -62 -3 -148 40 -85 42 -173 68 -173
51 0 -27 52 -70 133 -110 100 -48 129 -68 146 -102 7 -13 18 -23 26 -23 22 0
119 -38 141 -56 37 -30 -70 -7 -146 31 -41 21 -84 35 -106 35 l-37 0 7 -60 c7
-59 7 -60 -19 -60 -14 0 -25 -6 -25 -14 0 -17 42 -79 86 -128 18 -21 36 -49
40 -63 15 -58 -20 -41 -103 52 -33 37 -75 76 -93 87 l-32 18 7 -23 c4 -13 33
-69 64 -124 65 -113 81 -149 81 -173 -1 -26 -48 36 -60 78 -18 66 -253 291
-277 266 -9 -9 28 -65 91 -140 67 -79 79 -95 96 -141 9 -23 1 -19 -55 27 -72
61 -233 156 -276 165 -35 7 -82 -4 -74 -17 3 -6 14 -10 23 -10 27 -1 137 -61
187 -104 46 -38 105 -110 105 -128 0 -5 -12 -1 -27 10 -16 11 -75 43 -133 72
-58 29 -139 74 -180 101 -105 67 -170 88 -170 55 0 -30 45 -67 133 -109 129
-61 184 -97 166 -108 -28 -17 -66 -8 -150 35 -92 47 -149 65 -149 46 0 -22 48
-58 108 -80 83 -30 112 -58 112 -108 0 -100 39 -266 131 -549 27 -84 49 -168
49 -186 0 -30 24 -67 43 -67 19 0 17 79 -3 177 -36 170 -37 178 -30 197 11 32
33 -9 38 -71 3 -39 14 -71 38 -110 65 -108 95 -255 66 -325 -12 -29 -36 -35
-77 -19 -11 4 -35 4 -55 -1 -19 -4 -107 -20 -195 -34 -285 -45 -383 -80 -464
-164 -25 -26 -64 -55 -86 -64 -21 -9 -43 -22 -47 -29 -14 -22 -9 -47 10 -47
29 0 142 58 211 109 167 122 219 136 596 156 l120 7 2 -33 c3 -43 21 -60 37
-35 47 76 62 80 180 41 81 -26 112 -30 134 -16 10 6 6 14 -17 34 -34 28 -35
29 -142 52 -42 9 -83 24 -92 33 -8 9 -20 51 -27 92 -26 162 -79 346 -182 630
-34 91 -71 198 -84 238 l-23 73 22 -7 c32 -9 93 -70 140 -139 22 -33 54 -76
71 -95 17 -19 54 -75 81 -124 49 -87 102 -146 130 -146 19 0 19 23 -1 62 -10
19 -12 34 -6 40 6 6 35 -28 79 -89 278 -391 288 -403 347 -403 l29 0 -6 59
c-9 83 -50 205 -122 361 -34 74 -70 158 -81 185 -10 28 -30 61 -45 75 -41 40
-78 123 -56 129 5 2 78 -60 164 -136 173 -154 230 -197 279 -213 61 -20 61 -5
2 50 -61 56 -76 87 -35 74 12 -4 45 -28 74 -54 45 -42 103 -70 103 -51 0 25
-67 103 -120 141 -119 85 -162 122 -193 166 -17 24 -36 44 -43 44 -17 0 -144
111 -144 126 0 7 -22 36 -48 66 -51 55 -77 96 -68 105 12 13 536 -377 712
-530 116 -101 121 -104 195 -121 126 -28 187 -78 333 -270 89 -118 89 -118 77
-153 -7 -19 -11 -36 -9 -37 1 -2 13 -8 25 -15 12 -6 37 -33 54 -59 18 -26 37
-50 43 -54 18 -12 26 16 20 70 l-6 52 41 0 c42 0 42 1 39 33 -3 31 -5 32 -50
35 -45 3 -48 5 -77 55 -16 29 -45 87 -65 130 -31 69 -33 77 -16 72 20 -6 59 9
72 29 5 7 25 -8 55 -41 49 -54 92 -78 123 -68 12 4 23 -4 35 -22 10 -16 37
-49 59 -74 38 -43 43 -45 69 -36 48 16 101 -7 166 -74 32 -32 61 -59 65 -59
12 0 -4 80 -24 126 -10 23 -45 83 -79 133 -73 108 -108 181 -87 181 32 0 139
-40 183 -68 27 -17 70 -54 98 -82 27 -27 58 -50 68 -50 56 0 105 -27 189 -107
53 -51 99 -86 116 -89 23 -5 31 -13 38 -42 14 -56 34 -53 34 5 0 63 -21 134
-72 242 -66 141 -88 213 -88 286 l0 65 58 -29 c32 -16 76 -49 97 -73 22 -23
46 -42 53 -40 26 6 72 -20 92 -53 11 -18 34 -38 51 -44 29 -10 31 -9 46 27 15
34 15 44 -1 118 -9 45 -16 96 -16 113 0 18 -9 50 -21 72 -11 22 -44 102 -74
177 -71 182 -88 219 -127 273 -46 65 -130 131 -145 115 -15 -15 22 -88 76
-149 73 -82 77 -88 97 -174 8 -37 35 -113 60 -169 30 -70 44 -115 44 -145 l0
-44 -53 100 c-88 168 -179 294 -351 492 -61 70 -87 93 -106 93 -14 0 -36 7
-50 15 -37 21 -71 19 -77 -5 -7 -28 -17 -25 -62 15 -35 32 -91 49 -91 28 0 -5
-4 -14 -9 -22 -8 -12 -20 -7 -63 26 -74 58 -101 67 -130 44 -22 -18 -23 -18
-53 5 -45 34 -99 54 -145 54 -77 0 -62 -42 37 -106 34 -22 55 -43 59 -60 4
-17 18 -31 40 -40 18 -7 52 -36 76 -64 24 -28 66 -65 93 -82 109 -68 129 -85
188 -157 49 -60 72 -79 123 -102 121 -55 207 -196 251 -413 15 -74 34 -138 49
-164 15 -26 24 -54 22 -70 -4 -25 -5 -24 -23 18 -32 75 -74 149 -156 276 -99
153 -107 170 -91 195 7 10 12 24 12 30 0 17 -66 76 -250 224 -158 126 -266
229 -304 288 -11 16 -27 27 -40 27 -12 0 -46 16 -76 35 -57 36 -100 45 -100
22 0 -8 11 -19 25 -25 14 -7 38 -32 53 -58 21 -36 45 -57 118 -100 83 -49 174
-129 174 -154 0 -5 15 -17 33 -25 59 -29 87 -46 87 -55 0 -5 35 -56 79 -113
43 -58 83 -119 89 -136 l11 -32 -43 36 c-24 20 -94 89 -156 155 -102 110 -113
119 -140 113 -51 -10 -82 6 -151 79 -63 66 -70 70 -104 66 -33 -4 -42 1 -100
56 -35 34 -140 109 -234 169 -166 105 -284 198 -263 205 14 4 103 -41 172 -88
30 -20 79 -49 107 -64 51 -25 150 -53 159 -43 10 10 -72 76 -149 122 -45 26
-94 61 -109 77 -19 20 -36 28 -61 28 -19 0 -77 16 -128 36 -67 26 -115 38
-169 42 -41 3 -84 10 -95 17 -11 7 -33 16 -50 19 -70 16 -135 37 -135 45 0 13
164 31 284 31 171 0 465 -41 609 -84 47 -14 47 -14 47 9 0 27 -36 56 -91 74
-100 32 -205 42 -454 40 -137 -1 -298 -3 -356 -3 -90 -1 -110 -4 -128 -20 -27
-24 -19 -36 25 -36 34 0 35 -1 29 -29 -6 -27 -5 -28 42 -35 75 -10 149 -48
157 -82 4 -15 25 -49 47 -75 33 -40 48 -69 36 -69 -13 0 -121 42 -163 63 -52
26 -117 90 -128 125 -4 12 -19 23 -34 27 -16 3 -53 26 -83 51 -106 90 -240
133 -302 98z"/>
<path d="M6427 12173 c-3 -5 -1 -17 3 -29 9 -23 -12 -19 540 -99 207 -30 396
-59 420 -64 63 -15 133 -13 154 2 17 12 7 16 -81 35 -55 12 -242 42 -414 67
-173 25 -376 57 -451 70 -150 27 -165 29 -171 18z"/>
<path d="M4193 11825 c-3 -9 -4 -17 -2 -19 12 -8 265 -97 300 -105 50 -11 53
-10 44 18 -9 28 -46 45 -130 60 -38 7 -89 23 -112 37 -47 27 -91 31 -100 9z"/>
<path d="M7735 11378 c4 -18 40 -134 80 -258 82 -253 81 -245 99 -468 l14
-163 44 -47 c68 -73 120 -169 213 -400 65 -160 85 -219 80 -240 -4 -20 5 -51
34 -112 22 -47 69 -157 106 -245 37 -88 92 -209 123 -268 51 -99 60 -110 101
-130 37 -18 53 -35 83 -85 20 -35 46 -74 58 -87 21 -23 67 -41 78 -31 2 3 -32
60 -78 127 -87 128 -134 218 -128 246 2 12 19 2 70 -42 l66 -59 -5 -52 -6 -53
38 -7 c20 -3 61 -4 91 0 52 6 54 5 60 -20 4 -14 4 -57 0 -94 -9 -104 -3 -113
87 -127 78 -12 149 -43 202 -86 28 -23 30 -30 33 -108 4 -80 18 -119 43 -119
13 0 69 128 86 198 16 61 16 64 -7 109 -18 36 -21 56 -17 98 5 53 5 53 -26 60
l-32 7 33 11 c29 9 48 5 138 -25 73 -25 104 -32 104 -23 0 7 -20 40 -44 72
-85 116 -89 152 -5 51 28 -35 67 -74 86 -87 l34 -25 22 22 c19 19 22 35 25
116 l4 94 -54 70 c-29 39 -104 160 -166 270 -62 109 -131 221 -152 249 l-38
50 58 -29 c54 -28 68 -31 221 -39 90 -5 178 -11 195 -14 24 -4 36 1 58 24 39
40 30 71 -29 105 -24 15 -50 36 -56 48 -10 19 -7 25 20 47 17 14 31 31 31 36
-1 6 -23 27 -51 48 -85 64 -133 148 -94 163 55 22 25 81 -56 110 -56 21 -99
54 -99 79 0 12 8 14 43 9 76 -11 160 -35 225 -65 36 -16 81 -29 101 -29 20 0
61 -7 91 -15 30 -8 58 -15 62 -15 14 0 28 76 28 152 l0 78 -37 16 c-62 26
-182 63 -288 90 -378 95 -523 155 -629 260 -42 42 -92 112 -85 119 3 2 63 -32
134 -76 72 -45 148 -92 170 -105 55 -32 175 -76 175 -64 0 25 -83 86 -184 136
-69 34 -143 80 -191 119 -43 35 -112 82 -154 106 -84 47 -108 65 -123 92 -8
16 -3 15 39 -6 78 -39 531 -207 559 -207 10 0 2 49 -9 58 -7 6 -92 39 -188 73
-212 75 -280 105 -342 152 -26 21 -53 37 -61 37 -8 0 -36 15 -63 34 -57 39
-83 49 -101 37 -11 -6 -5 -23 28 -77 51 -85 119 -174 138 -182 8 -2 22 -25 33
-49 30 -70 85 -146 173 -241 100 -108 156 -176 156 -190 0 -20 -32 -92 -40
-92 -5 0 -18 16 -30 35 -22 36 -57 62 -68 51 -3 -4 4 -37 16 -74 25 -77 27
-104 11 -135 -10 -18 -7 -31 21 -82 20 -37 31 -69 27 -79 -6 -15 -11 -14 -47
9 -42 27 -70 31 -100 15 -16 -8 -25 1 -64 64 -44 70 -68 94 -109 109 -16 6
-18 3 -12 -26 14 -66 54 -135 134 -226 45 -51 86 -102 92 -112 9 -17 6 -19
-24 -19 -38 0 -67 26 -112 100 -15 25 -47 65 -70 90 -30 31 -66 92 -118 200
-54 112 -86 166 -116 195 l-41 39 0 -29 c0 -17 9 -45 20 -63 12 -19 43 -75 69
-125 57 -107 151 -260 227 -368 51 -72 56 -77 116 -96 62 -20 64 -22 181 -164
171 -209 250 -323 299 -434 18 -39 17 -39 -45 25 -36 38 -67 81 -73 100 -7 25
-17 36 -39 42 -17 5 -43 25 -58 46 -15 20 -67 72 -115 115 -48 43 -125 124
-172 180 -89 106 -171 170 -192 149 -11 -11 -7 -19 37 -78 19 -26 -4 -25 -49
1 -36 21 -54 26 -80 21 -32 -6 -34 -5 -59 46 -15 29 -63 100 -108 158 -110
140 -132 176 -234 380 -48 96 -102 198 -120 226 -31 48 -36 52 -73 52 -50 1
-120 36 -131 65 -5 12 -12 54 -16 92 -9 89 -48 225 -83 288 -25 47 -104 127
-124 127 -5 0 -7 -14 -3 -32z m332 -840 c24 -59 43 -112 43 -118 0 -14 -59 55
-89 103 -22 36 -51 136 -51 176 0 24 2 23 27 -14 15 -22 46 -88 70 -147z m974
-1023 c44 -49 79 -93 79 -98 0 -4 -37 20 -82 55 -90 69 -170 160 -213 241
l-28 52 83 -80 c45 -44 118 -120 161 -170z m47 130 c138 -146 193 -207 189
-212 -3 -2 -21 2 -40 11 -22 9 -59 43 -98 91 -35 42 -81 87 -103 100 -29 17
-44 36 -57 69 l-17 46 30 -18 c16 -9 59 -49 96 -87z m-283 -47 c47 -71 143
-164 290 -283 77 -62 165 -138 195 -169 l54 -56 -31 0 c-21 0 -56 16 -105 49
-40 26 -111 72 -158 101 -117 71 -186 126 -226 179 -41 53 -42 61 -9 61 14 0
25 3 25 8 0 4 -23 36 -52 70 -41 51 -49 65 -37 73 22 14 24 12 54 -33z"/>
<path d="M5910 10464 c-36 -8 -84 -13 -107 -12 -35 3 -43 0 -43 -14 0 -29 40
-48 100 -48 76 0 180 35 180 60 0 6 -59 33 -64 29 -1 0 -30 -7 -66 -15z"/>
<path d="M6938 10298 c-34 -12 -36 -23 -5 -33 12 -4 157 -11 322 -15 372 -10
414 -19 662 -144 62 -31 117 -56 123 -56 5 0 10 15 10 34 0 45 -46 86 -97 86
-19 0 -47 9 -63 20 -91 65 -244 99 -470 106 -381 10 -456 11 -482 2z"/>
<path d="M5560 10258 c0 -35 9 -42 90 -72 81 -30 211 -44 293 -32 48 7 98 38
84 52 -5 5 -63 11 -130 15 -97 5 -136 12 -190 33 -37 14 -85 26 -107 26 -35 0
-40 -3 -40 -22z"/>
<path d="M6600 10244 c-30 -8 -104 -40 -165 -71 -351 -181 -384 -193 -550
-193 -165 0 -245 26 -460 151 -146 83 -194 91 -163 24 9 -19 41 -40 124 -80
62 -30 130 -59 151 -65 35 -11 40 -17 53 -63 l15 -52 55 -12 c169 -35 357 1
580 112 47 23 138 66 202 95 113 50 195 107 219 151 11 22 11 22 -61 3z"/>
<path d="M7060 10133 c-89 -6 -207 -25 -315 -49 -60 -14 -120 -27 -132 -29
-11 -3 -70 -38 -130 -78 -196 -132 -387 -196 -608 -204 -175 -7 -238 8 -344
81 -45 30 -123 71 -182 94 -113 44 -455 147 -559 168 -80 16 -219 18 -291 3
-30 -6 -103 -12 -164 -13 -103 -3 -119 -6 -257 -53 l-146 -51 -69 -72 c-100
-106 -110 -137 -31 -102 24 10 77 47 118 81 86 70 133 94 239 123 113 31 405
31 631 0 183 -25 226 -34 273 -62 18 -11 87 -42 154 -69 172 -71 270 -122 328
-171 116 -98 192 -104 407 -34 78 25 192 61 255 79 99 28 123 40 200 96 55 40
105 68 137 76 27 7 59 22 70 32 30 28 176 68 298 82 125 14 278 2 479 -37 348
-67 497 -93 528 -94 33 0 34 1 17 19 -32 36 -109 60 -240 75 -112 13 -136 19
-209 55 -66 33 -99 43 -172 51 -85 9 -184 11 -285 3z"/>
<path d="M4395 9889 c-44 -11 -128 -35 -188 -54 -59 -20 -151 -46 -205 -60
-53 -13 -99 -30 -101 -37 -2 -7 -39 -48 -82 -90 -74 -72 -96 -108 -66 -108 25
1 94 39 162 90 84 63 121 80 176 80 25 0 64 11 94 26 125 61 270 74 619 54
224 -12 229 -13 275 -41 25 -16 103 -51 172 -77 164 -63 214 -93 248 -148 14
-24 31 -44 36 -44 38 -1 94 -28 151 -72 l67 -51 61 6 c82 8 113 21 134 56 12
21 26 31 52 35 19 3 64 17 99 31 35 13 87 28 115 31 38 5 80 24 166 76 147 89
277 151 407 194 219 74 363 81 636 35 162 -28 171 -30 233 -72 35 -24 64 -47
64 -51 0 -12 -85 -9 -215 7 -144 18 -230 18 -310 1 -50 -11 -68 -11 -105 0
-25 8 -61 14 -82 14 -65 0 -238 -68 -476 -187 -220 -111 -235 -120 -272 -169
-44 -58 -117 -100 -220 -125 -81 -21 -280 -18 -355 5 -68 20 -151 60 -180 86
-11 10 -38 23 -60 30 -71 22 -162 67 -237 116 -71 47 -124 68 -200 81 -24 3
-38 2 -38 -5 0 -28 264 -174 403 -223 l67 -24 -6 -42 c-5 -36 -3 -45 19 -65
29 -27 126 -63 211 -78 79 -13 251 -13 353 1 64 9 86 9 97 0 12 -10 47 14 203
144 362 302 496 371 769 397 136 12 304 3 599 -33 l170 -21 70 -74 c67 -71
119 -104 165 -104 40 0 16 44 -53 95 -21 16 -45 41 -52 56 -11 21 -26 30 -67
39 -29 7 -61 17 -71 22 -19 10 -52 56 -45 63 3 3 61 -12 129 -34 158 -50 179
-53 179 -31 0 20 -46 65 -81 79 -15 5 -79 17 -144 26 -130 18 -170 33 -178 67
-6 23 -16 25 -254 57 -214 29 -268 33 -388 29 -129 -5 -149 -8 -245 -42 -58
-20 -129 -39 -158 -43 -41 -4 -71 -18 -135 -60 -93 -61 -313 -172 -400 -203
-90 -30 -257 -45 -361 -31 -96 13 -141 30 -237 89 -82 50 -163 86 -366 161
-319 119 -411 141 -576 140 -75 0 -138 -7 -192 -20z"/>
<path d="M4305 9659 c-121 -17 -235 -57 -265 -94 -12 -15 -12 -19 5 -31 26
-19 76 -17 165 6 97 26 265 50 349 50 36 0 120 -7 186 -16 112 -16 195 -14
195 4 0 11 -166 71 -229 82 -64 12 -321 11 -406 -1z"/>
<path d="M7030 9535 c-149 -54 -326 -147 -416 -218 -89 -71 -137 -127 -109
-127 26 0 80 26 142 68 139 94 337 169 576 217 l78 16 52 -25 c76 -37 188 -63
350 -81 325 -36 319 -34 362 -69 52 -43 78 -56 109 -56 36 0 34 32 -4 62 -17
13 -44 33 -60 46 -19 15 -53 27 -97 33 -37 6 -189 38 -338 71 -189 42 -295 61
-355 63 -47 1 -104 10 -129 19 -55 20 -49 21 -161 -19z"/>
<path d="M3973 9426 c-83 -27 -146 -62 -186 -102 -34 -33 -23 -44 44 -44 35 0
68 11 140 48 l94 47 175 -2 c219 -2 487 -20 561 -39 75 -19 134 -18 153 2 32
32 39 29 -189 59 -118 16 -455 43 -620 51 -87 4 -110 1 -172 -20z"/>
<path d="M9113 6214 c-12 -20 -19 -60 -24 -158 -4 -72 -14 -153 -23 -180 -18
-54 -20 -86 -8 -86 15 0 42 72 57 152 16 86 32 298 22 298 -4 0 -14 -12 -24
-26z"/>
</g>
</svg>
