<?xml version="1.0" standalone="no"?>
<!DOCTYPE svg PUBLIC "-//W3C//DTD SVG 20010904//EN"
 "http://www.w3.org/TR/2001/REC-SVG-20010904/DTD/svg10.dtd">
<svg version="1.0" xmlns="http://www.w3.org/2000/svg"
 width="988.000000pt" height="1280.000000pt" viewBox="0 0 988.000000 1280.000000"
 preserveAspectRatio="xMidYMid meet">
<metadata>
Created by potrace 1.15, written by Peter Selinger 2001-2017
</metadata>
<g transform="translate(0.000000,1280.000000) scale(0.100000,-0.100000)"
fill="#000000" stroke="none">
<path d="M8620 12772 c-261 -77 -742 -302 -1140 -532 -185 -108 -513 -347
-915 -670 -171 -137 -320 -250 -395 -300 -36 -23 -91 -65 -123 -92 l-58 -50
-43 40 c-24 22 -54 43 -67 47 -13 4 -63 25 -111 46 -48 22 -114 44 -148 50
-34 5 -105 27 -158 48 -53 21 -124 42 -157 46 -33 4 -154 24 -270 45 -319 58
-390 65 -690 65 -265 -1 -271 -1 -345 -27 -42 -14 -126 -33 -187 -42 -61 -9
-135 -25 -165 -35 -115 -41 -146 -51 -218 -73 -140 -41 -494 -233 -646 -350
-36 -27 -92 -65 -126 -85 -128 -75 -277 -228 -492 -506 -54 -71 -120 -147
-147 -170 -68 -60 -185 -244 -456 -715 -75 -130 -210 -347 -301 -482 -94 -139
-195 -302 -232 -375 -37 -71 -92 -178 -123 -236 -76 -142 -100 -215 -148 -447
-83 -405 -82 -398 -83 -642 l-1 -225 44 -125 c53 -153 61 -167 114 -189 50
-22 75 -49 152 -161 32 -47 77 -104 99 -128 121 -128 490 -379 525 -357 6 3
11 10 11 14 0 5 -85 72 -188 149 -217 163 -301 245 -400 393 -39 59 -78 109
-87 113 -33 12 -141 299 -170 447 -17 92 -20 245 -5 254 6 3 12 0 14 -7 38
-131 66 -144 66 -30 0 77 -12 135 -46 222 -15 40 -16 49 -3 75 18 38 42 43 57
11 6 -13 22 -84 36 -158 36 -185 92 -352 127 -374 17 -10 6 74 -26 206 -76
311 -85 545 -23 584 46 28 124 -57 183 -199 34 -82 46 -99 100 -133 22 -14 46
-33 53 -43 7 -10 19 -16 27 -13 35 14 118 -62 159 -146 46 -93 204 -309 328
-449 32 -36 68 -85 79 -109 20 -41 20 -72 0 -72 -6 0 -52 37 -103 82 -51 44
-112 90 -135 100 -31 14 -44 26 -49 46 -14 66 -29 101 -65 162 -21 36 -54 99
-73 141 -33 73 -88 149 -107 149 -5 0 -14 -12 -19 -26 -12 -32 -31 -27 -41 10
-10 37 -30 51 -121 81 -91 31 -112 53 -128 133 -39 194 -55 205 -54 34 1 -140
22 -221 91 -354 62 -117 96 -158 134 -158 16 0 29 -5 29 -10 0 -22 -32 -86
-56 -111 l-24 -25 20 -24 c22 -26 12 -50 -20 -50 -33 0 -50 -12 -50 -34 0 -37
57 -143 99 -184 l40 -39 -35 -16 c-52 -25 -70 -21 -95 20 -28 45 -98 123 -110
123 -19 0 -8 -48 21 -94 17 -27 53 -71 79 -100 26 -28 82 -94 123 -146 92
-117 129 -150 216 -194 69 -36 111 -64 231 -155 56 -43 69 -57 62 -70 -14 -26
-114 -117 -148 -134 -30 -16 -33 -15 -80 9 -98 53 -289 194 -405 301 -58 53
-75 55 -49 6 55 -105 191 -235 378 -364 56 -38 105 -74 108 -80 15 -24 -12
-67 -108 -172 -57 -62 -120 -134 -142 -162 -64 -82 -107 -125 -166 -165 -102
-70 -228 -225 -354 -435 -78 -129 -124 -238 -140 -330 -14 -80 -24 -104 -72
-159 -59 -70 -76 -118 -74 -211 1 -72 -3 -90 -29 -146 -44 -95 -53 -181 -47
-434 6 -237 24 -362 68 -451 51 -106 263 -216 441 -230 87 -6 130 11 162 67
12 19 33 55 48 80 32 53 49 122 78 319 24 164 52 285 75 330 37 72 49 12 35
-186 -6 -82 -18 -198 -26 -259 -21 -162 -32 -286 -44 -510 -14 -278 -48 -429
-121 -538 -37 -56 -79 -84 -147 -97 -62 -11 -190 -71 -223 -103 -13 -13 -45
-34 -71 -46 -26 -13 -89 -52 -140 -88 -322 -228 -559 -469 -562 -572 -1 -33 1
-36 29 -39 27 -3 32 1 43 31 27 74 206 281 327 377 108 86 452 260 513 260 27
0 101 52 184 129 144 132 158 139 158 77 0 -77 -11 -96 -107 -191 -75 -73 -94
-97 -91 -116 3 -22 7 -24 63 -24 54 0 60 -2 63 -22 7 -48 -75 -162 -151 -210
-54 -34 -123 -60 -296 -109 -85 -24 -165 -51 -178 -59 -72 -47 75 -45 240 4
146 43 331 119 399 165 107 71 248 209 248 243 0 12 -7 14 -35 9 -39 -8 -41
-3 -20 34 8 14 14 29 15 34 0 8 -7 7 -82 -12 -27 -7 -42 -6 -54 2 -15 12 -15
15 0 44 9 17 36 59 60 94 23 35 57 90 75 123 44 84 74 120 94 112 12 -4 17
-18 17 -44 0 -56 -15 -102 -55 -163 -20 -30 -38 -65 -42 -78 -7 -28 9 -47 30
-36 28 17 98 109 129 173 23 46 41 67 64 78 38 18 64 12 64 -16 0 -40 -51
-157 -90 -206 l-40 -50 62 -7 c149 -17 146 -113 -10 -281 -89 -96 -105 -132
-51 -117 45 13 101 48 224 141 63 47 149 100 202 125 82 38 93 46 101 76 10
42 36 46 116 18 79 -27 127 -70 78 -70 -10 0 -26 -6 -36 -13 -22 -16 -7 -31
43 -41 19 -3 57 -23 85 -44 72 -54 163 -105 381 -215 105 -52 267 -138 360
-191 210 -119 421 -227 675 -344 265 -122 437 -207 615 -302 273 -146 562
-258 820 -320 88 -21 232 -57 320 -81 160 -42 160 -42 355 -44 169 -2 210 -6
310 -29 172 -39 178 -41 280 -102 114 -68 203 -110 253 -119 20 -4 48 -16 62
-27 33 -26 59 -20 63 15 2 15 7 27 11 27 4 0 35 -11 70 -24 90 -36 138 -41
189 -21 53 22 92 70 142 179 22 47 44 86 50 86 16 0 11 -90 -10 -169 -11 -41
-20 -83 -20 -93 0 -29 37 -22 54 10 28 55 76 224 85 299 10 92 61 232 121 330
22 37 40 73 40 80 0 7 33 48 74 91 40 42 81 92 90 110 15 29 19 31 39 21 12
-6 68 -58 125 -115 88 -88 103 -108 100 -131 -4 -40 -38 -41 -115 -3 -48 24
-69 40 -77 61 -6 16 -17 29 -26 29 -23 0 -68 -33 -95 -70 -31 -42 -32 -78 -4
-230 17 -93 21 -153 20 -313 0 -168 2 -199 15 -204 24 -9 53 27 70 86 47 169
118 261 203 261 38 0 86 -23 95 -45 9 -25 7 -96 -5 -180 -13 -83 -5 -105 37
-105 33 0 48 20 86 111 79 194 168 214 254 56 82 -152 137 -174 304 -121 162
51 200 75 200 125 0 42 -84 248 -112 275 -29 28 -130 40 -149 18 -16 -20 -4
-44 24 -44 55 0 116 -86 117 -163 0 -73 -40 -117 -108 -117 -34 0 -156 58
-200 95 -33 27 -33 28 -13 46 20 18 24 34 36 130 8 60 56 160 90 187 36 28 63
28 116 -3 24 -14 50 -25 58 -25 43 0 103 -46 165 -124 118 -149 252 -237 373
-244 106 -7 122 38 26 74 -82 30 -154 84 -279 209 -96 95 -128 134 -154 188
-34 70 -46 146 -23 154 6 2 30 -21 53 -51 46 -61 60 -68 60 -33 0 52 -89 200
-197 326 -95 112 -66 124 151 67 94 -26 134 -32 152 -26 35 14 30 47 -11 86
-46 43 -128 73 -229 83 -45 4 -91 13 -102 19 -11 6 -38 41 -59 79 -57 97 -101
142 -171 173 -63 29 -74 42 -74 90 0 62 -27 79 -56 35 -15 -23 -23 -25 -86
-25 -48 0 -80 -6 -106 -19 -21 -11 -83 -34 -137 -51 -121 -39 -216 -86 -297
-145 -103 -76 -138 -70 -138 26 0 71 13 95 57 109 21 7 55 21 76 32 20 10 97
28 170 39 254 39 430 116 643 281 71 56 220 161 331 235 113 74 217 151 237
174 24 29 45 74 75 162 66 200 72 289 24 381 -9 17 -69 99 -134 181 -83 105
-136 162 -176 190 -119 83 -136 116 -87 174 14 18 73 55 134 86 174 90 237
158 265 291 22 104 19 188 -9 257 -67 163 -246 411 -450 624 -74 79 -138 154
-142 167 -15 62 8 78 227 149 342 112 492 226 493 372 0 28 -6 118 -12 200 -7
83 -19 272 -27 422 l-15 271 76 109 c91 130 148 245 175 355 25 99 43 135 107
215 54 66 55 71 89 268 22 132 25 652 4 760 -15 77 -72 255 -133 413 -44 113
-65 136 -153 168 -38 13 -80 18 -175 18 -138 0 -219 -16 -328 -65 -86 -39
-167 -53 -265 -46 -143 9 -191 35 -351 187 -116 111 -205 226 -254 328 -28 60
-35 87 -37 145 -4 95 -6 104 -87 297 -38 91 -83 201 -100 245 -16 44 -34 93
-40 108 -6 15 -23 45 -37 65 -36 49 -43 62 -37 62 4 0 67 -78 142 -172 198
-251 222 -272 254 -234 17 22 -5 62 -119 209 -106 135 -163 218 -157 224 2 2
19 -6 39 -17 24 -14 48 -20 78 -18 38 3 44 0 47 -18 2 -11 29 -54 61 -94 32
-40 66 -86 76 -103 18 -30 18 -30 -4 -24 -11 3 -21 2 -21 -2 0 -10 57 -63 98
-90 17 -12 37 -32 43 -43 16 -29 -11 -48 -67 -48 -24 0 -46 -5 -49 -10 -11
-18 25 -61 68 -81 120 -54 170 14 113 154 -35 83 -77 150 -160 249 -71 85
-116 162 -103 175 4 3 41 -21 82 -53 128 -100 208 -153 249 -166 22 -7 65 -36
97 -65 74 -69 108 -69 187 1 33 29 27 52 -20 83 -141 89 -215 142 -313 223
-60 50 -153 122 -205 160 -52 37 -129 102 -171 144 -42 42 -83 76 -92 76 -14
0 -178 61 -254 95 -18 8 -33 22 -33 31 0 21 26 16 238 -47 256 -76 691 -159
999 -189 144 -15 157 -9 151 62 -8 78 -48 127 -133 161 -39 15 -83 41 -100 56
-72 69 -233 119 -470 146 -179 20 -287 40 -360 65 -32 11 -72 20 -89 20 -40 0
-121 40 -121 60 0 10 32 26 95 48 80 29 113 34 215 39 135 6 523 -11 750 -32
215 -21 250 -20 269 7 36 52 3 130 -62 148 -22 5 -109 54 -193 107 -85 53
-174 105 -198 116 -67 30 -133 19 -268 -42 -142 -64 -199 -79 -219 -59 -14 13
-14 19 0 53 9 21 16 41 16 45 0 5 -25 6 -56 3 l-57 -6 7 36 c4 21 5 37 2 37
-3 0 -34 -16 -69 -35 -110 -61 -117 -42 -19 54 93 93 191 173 203 165 6 -3 8
-22 4 -43 -7 -42 13 -78 38 -68 9 3 28 25 43 49 15 24 48 63 73 88 25 25 54
58 63 72 10 14 38 36 62 48 82 39 255 245 228 272 -25 25 -166 -92 -229 -189
-35 -55 -58 -73 -92 -73 -36 0 -33 19 12 67 88 97 110 143 69 143 -29 0 -89
-48 -234 -187 -247 -237 -493 -451 -506 -439 -8 9 41 61 549 581 474 486 559
577 559 602 0 6 -9 15 -21 18 -27 9 -52 -15 -91 -88 -23 -43 -55 -79 -124
-137 -50 -43 -204 -186 -340 -316 -137 -130 -316 -297 -399 -370 -82 -74 -193
-172 -245 -220 -52 -47 -103 -90 -112 -95 -46 -25 -6 25 135 170 256 263 707
737 790 829 72 81 87 110 61 119 -35 12 -310 -244 -354 -331 -23 -44 -31 -51
-89 -72 -80 -30 -95 -21 -58 35 26 38 58 68 147 134 27 19 63 62 90 106 31 50
55 78 79 89 36 17 152 126 170 160 6 11 7 23 3 26 -30 18 -418 -161 -525 -243
-72 -56 -114 -77 -167 -86 -28 -4 -40 -15 -62 -49 -26 -45 -73 -84 -85 -72 -3
3 8 26 26 51 21 29 27 45 19 45 -17 0 -131 -70 -237 -144 -42 -29 -101 -65
-133 -80 -63 -30 -184 -149 -193 -191 -3 -14 -7 -36 -10 -50 -3 -16 -64 -83
-156 -173 -83 -81 -264 -270 -402 -421 -229 -249 -352 -371 -378 -371 -15 0
-10 28 15 78 35 68 480 535 691 725 95 85 99 89 109 125 14 43 -22 23 -111
-62 -186 -177 -789 -809 -815 -854 -52 -90 -288 -306 -311 -283 -24 24 20 83
267 361 104 116 273 288 418 425 351 331 438 417 438 432 0 48 -103 -39 -493
-421 -438 -428 -635 -637 -751 -795 -51 -71 -55 -81 -26 -81 16 0 18 -4 11
-22 -5 -14 -33 -35 -73 -55 -40 -19 -92 -58 -133 -98 -77 -74 -101 -90 -110
-75 -9 14 80 164 126 215 20 22 80 96 133 165 54 69 153 186 222 261 200 220
595 602 788 764 98 83 204 172 235 198 80 68 169 110 221 105 41 -4 42 -4 36
26 -8 39 25 76 67 76 25 0 45 15 106 78 66 68 94 87 216 152 77 40 178 96 225
124 47 27 174 92 283 142 109 51 233 113 275 138 170 99 281 136 417 136 139
0 239 -44 339 -150 111 -118 129 -187 76 -299 -51 -107 -150 -222 -482 -557
-175 -177 -318 -326 -318 -332 0 -35 40 -11 175 102 171 144 322 284 454 421
30 31 84 73 120 93 88 49 146 109 184 190 26 57 31 78 31 147 1 128 -50 217
-168 297 -33 23 -73 55 -88 70 -15 16 -70 49 -123 74 -125 59 -169 63 -295 26z
m-529 -620 c-16 -29 -121 -123 -132 -116 -22 13 35 83 101 123 39 23 46 21 31
-7z m-194 -178 c11 -29 -14 -61 -62 -79 -25 -10 -48 -15 -52 -12 -7 8 45 84
66 97 24 14 41 12 48 -6z m-406 -383 c-27 -34 -72 -73 -108 -95 -27 -16 -12
26 25 66 69 77 141 102 83 29z m-2756 -191 c66 -6 163 -17 215 -26 218 -34
651 -144 770 -195 60 -26 110 -79 110 -117 0 -31 16 -52 38 -52 8 0 34 18 58
40 46 43 71 50 81 24 13 -33 -93 -118 -194 -154 -43 -16 -155 -135 -278 -295
-291 -380 -547 -686 -681 -816 -54 -53 -200 -188 -324 -299 -510 -460 -518
-467 -669 -655 -177 -220 -236 -306 -308 -449 -65 -130 -105 -194 -170 -273
-104 -129 -238 -364 -250 -440 -3 -21 -12 -50 -19 -64 -15 -31 -70 -79 -89
-79 -18 0 -62 -51 -207 -240 -138 -180 -199 -250 -216 -250 -25 0 -10 31 34
74 51 51 52 61 6 131 -32 49 -122 165 -129 165 -2 0 -2 -13 2 -28 4 -20 1 -33
-10 -42 -22 -18 -57 8 -101 78 -58 91 -202 278 -262 340 -30 31 -69 86 -87
122 -18 36 -70 121 -114 190 -149 228 -297 550 -254 550 19 0 43 -38 127 -198
131 -250 216 -372 257 -372 10 0 27 -12 38 -27 19 -24 20 -28 6 -43 -14 -16
-14 -20 8 -46 13 -16 58 -81 100 -144 97 -148 177 -232 177 -187 0 7 -30 65
-66 128 -91 158 -181 339 -247 499 -59 144 -187 544 -212 666 -24 115 -17 259
11 231 4 -4 49 -132 99 -285 218 -657 472 -1181 670 -1385 32 -32 59 -56 62
-53 3 3 -11 27 -30 54 -20 27 -45 69 -56 94 -10 24 -60 118 -111 209 -230 407
-366 735 -479 1154 -61 225 -86 394 -61 410 15 9 36 -33 80 -170 48 -149 128
-352 174 -440 27 -54 31 -57 34 -33 2 15 -18 88 -43 163 -52 156 -108 380
-125 505 -13 89 -25 118 -71 161 -60 57 -49 128 52 314 38 72 105 203 149 291
l79 162 120 96 c121 98 433 393 452 428 14 26 4 34 -24 21 -42 -19 -218 -158
-363 -285 -161 -142 -193 -168 -205 -168 -20 0 -6 26 45 89 96 117 266 273
401 367 152 107 165 114 200 114 17 0 35 11 51 30 48 56 386 206 519 229 111
19 447 31 897 31 432 0 451 -1 581 -25 177 -33 477 -108 530 -134 23 -11 61
-23 85 -27 47 -7 47 -7 21 -71 -12 -29 -11 -35 3 -49 12 -12 24 -15 44 -10 34
9 118 90 112 108 -5 15 -375 144 -558 194 -285 78 -611 135 -795 138 -128 2
-161 8 -150 27 8 12 310 11 460 -1z m-575 -5 c0 -23 -167 -63 -196 -47 -16 9
-15 11 7 23 13 7 38 16 54 20 34 8 135 11 135 4z m3322 -660 c77 -18 217 -65
408 -138 80 -31 184 -65 230 -76 100 -25 130 -37 130 -51 0 -32 -184 5 -446
90 -221 72 -235 74 -199 24 27 -40 -6 -45 -91 -13 -94 35 -193 145 -153 170
20 12 49 11 121 -6z m-1004 -89 c6 -49 -6 -78 -31 -74 -28 4 -35 49 -12 84 20
31 39 27 43 -10z m1824 -42 c82 -19 161 -31 278 -43 109 -12 245 -51 284 -82
54 -42 25 -49 -111 -25 -45 8 -147 24 -225 36 -203 30 -394 79 -435 112 -41
32 71 33 209 2z m-1103 -8 c15 -8 34 -22 42 -32 8 -9 41 -29 74 -44 33 -15 71
-39 84 -54 24 -26 24 -26 3 -26 -12 0 -66 21 -119 48 -92 44 -103 47 -178 47
-88 0 -97 9 -49 53 30 26 99 30 143 8z m-227 -145 c29 -10 85 -34 125 -54 75
-38 337 -209 349 -228 3 -6 2 -15 -4 -21 -13 -13 -33 -2 -98 52 -63 52 -204
125 -369 189 -71 28 -141 60 -155 72 l-25 20 62 -6 c35 -3 86 -14 115 -24z
m1519 -6 c105 -15 149 -31 149 -52 0 -22 -24 -25 -102 -14 -156 24 -219 45
-203 70 8 15 41 14 156 -4z m-1670 -55 c85 -29 285 -131 398 -203 108 -69 323
-176 405 -201 65 -21 118 -73 202 -202 132 -202 169 -299 162 -433 -7 -137
-65 -239 -150 -262 -78 -21 -69 25 12 66 49 25 64 50 36 61 -8 3 -42 -9 -75
-26 -34 -18 -68 -29 -77 -26 -14 5 -13 11 6 42 36 56 17 64 -83 31 -124 -40
-182 -37 -415 23 -301 78 -375 78 -677 -4 -88 -24 -204 -53 -258 -64 -159 -34
-355 -137 -440 -232 -48 -52 -46 -76 5 -73 41 3 158 58 204 96 16 13 43 31 60
40 40 20 194 60 203 52 9 -10 -39 -45 -127 -95 -236 -133 -436 -276 -485 -347
-27 -39 -36 -96 -17 -108 6 -3 40 25 78 63 37 39 111 99 167 135 128 82 559
302 633 322 90 25 261 30 374 11 54 -9 112 -16 129 -16 20 0 29 -4 26 -12 -3
-10 -38 -12 -143 -10 -197 5 -364 -33 -438 -98 -49 -44 -13 -48 96 -10 81 28
110 33 224 38 73 2 144 2 159 -2 48 -12 9 -33 -95 -51 -155 -27 -301 -99 -340
-168 -21 -37 -1 -58 32 -33 75 55 121 78 202 105 228 75 334 59 118 -18 -48
-17 -124 -52 -167 -77 -44 -25 -132 -73 -195 -106 -123 -66 -189 -113 -313
-222 -275 -241 -408 -396 -339 -396 30 0 74 34 162 124 115 119 294 266 322
266 5 0 8 -9 8 -20 0 -13 7 -20 20 -20 34 0 151 64 298 164 136 91 260 152
297 145 33 -7 27 -28 -14 -49 -23 -11 -41 -25 -41 -30 0 -24 61 -6 149 44 143
82 289 134 383 138 91 4 77 -31 -24 -62 -91 -27 -218 -85 -218 -99 0 -12 23
-9 167 25 57 13 110 24 120 24 30 0 -26 -49 -97 -85 -36 -18 -120 -69 -187
-112 -68 -43 -149 -93 -180 -111 -32 -18 -100 -70 -152 -116 -52 -46 -133
-108 -182 -137 -205 -125 -210 -129 -207 -147 6 -29 34 -25 130 19 104 47 176
60 197 36 28 -34 -25 -73 -166 -122 -29 -10 -65 -29 -80 -42 -24 -19 -26 -24
-13 -33 21 -15 132 -5 172 16 75 38 108 88 108 164 0 70 17 84 129 104 50 10
112 23 138 31 56 17 68 10 110 -67 104 -192 360 -57 419 220 7 37 14 86 14
108 0 59 18 71 80 55 39 -10 53 -10 72 0 l23 13 -30 6 c-50 9 -40 41 19 63 69
25 100 20 104 -17 2 -18 11 -30 23 -33 46 -12 -2 -62 -98 -103 -58 -25 -60
-35 -8 -44 69 -13 59 -33 -43 -86 -38 -20 -68 -43 -70 -52 -6 -29 36 -22 128
22 46 23 90 39 99 38 26 -6 -39 -59 -132 -108 -102 -54 -167 -99 -167 -117 0
-19 11 -17 113 26 50 22 113 46 139 52 43 12 49 11 61 -5 19 -27 51 -16 58 19
4 17 7 113 8 215 2 207 13 309 39 354 33 57 69 49 175 -37 43 -36 108 -82 144
-103 72 -42 88 -61 97 -116 8 -45 67 -99 135 -123 63 -23 224 -31 292 -15 30
7 110 38 179 70 217 101 284 105 352 25 10 -11 53 -87 95 -170 157 -304 169
-346 117 -411 -16 -19 -38 -47 -49 -61 -16 -20 -21 -44 -25 -137 -6 -128 -9
-135 -84 -173 -92 -46 -133 -49 -101 -7 8 10 15 25 15 32 1 46 -285 -95 -367
-180 -71 -74 -136 -263 -154 -448 -12 -127 -37 -187 -108 -253 -56 -53 -113
-84 -169 -93 -31 -5 -53 -1 -96 19 -122 56 -236 148 -236 191 0 37 23 33 84
-12 121 -91 142 -80 46 24 -112 122 -128 155 -91 188 11 10 22 38 26 67 5 36
18 63 46 99 37 47 38 51 25 73 -13 20 -13 26 3 63 10 22 37 56 60 76 40 34 52
58 29 58 -6 0 -36 -14 -65 -30 -30 -17 -58 -28 -62 -25 -5 3 -5 22 0 42 14 62
13 63 -37 60 -29 -1 -48 3 -51 10 -7 20 69 94 152 148 80 52 113 81 102 91
-12 12 -201 -109 -276 -175 -19 -17 -38 -31 -42 -31 -17 0 -21 24 -9 61 13 37
12 41 -8 55 -12 8 -22 21 -22 29 0 7 23 42 51 77 27 34 46 64 42 65 -5 2 -37
-1 -71 -5 -34 -5 -62 -7 -62 -4 0 2 11 17 25 34 14 16 25 34 25 39 0 23 -66 6
-138 -36 -153 -89 -187 -67 -72 46 38 38 65 69 58 69 -6 0 -42 -18 -79 -41
-78 -47 -107 -48 -128 -4 -11 23 -12 44 -3 110 5 44 9 82 6 84 -2 2 -21 -12
-43 -32 -32 -29 -49 -36 -98 -42 -77 -8 -134 -23 -215 -56 -37 -15 -87 -31
-111 -34 -53 -8 -72 -19 -62 -35 10 -17 167 -8 215 12 103 43 117 27 38 -43
-51 -45 -52 -47 -35 -66 36 -40 15 -58 -118 -103 -82 -28 -125 -52 -125 -71 0
-5 33 -9 73 -11 l72 -3 -32 -18 c-43 -23 -132 -43 -283 -62 -130 -16 -225 -39
-249 -58 -11 -10 -5 -13 34 -17 47 -5 52 -9 75 -60 15 -35 81 -54 197 -58 138
-5 258 14 426 67 171 54 200 58 225 30 20 -21 22 -21 62 -5 57 23 90 21 90 -4
0 -12 -7 -32 -16 -46 -22 -33 -11 -41 31 -21 20 9 40 17 45 17 23 0 7 -42 -35
-91 -25 -29 -45 -57 -45 -61 0 -23 35 -18 75 11 l45 32 20 -33 c48 -77 38
-106 -25 -76 -37 18 -46 19 -60 8 -9 -7 -15 -23 -13 -34 3 -18 10 -21 47 -21
26 0 46 -5 48 -12 3 -7 -16 -34 -41 -61 -78 -83 -59 -99 49 -41 84 44 109 42
87 -6 -7 -14 -12 -40 -12 -57 0 -26 -17 -47 -110 -137 -60 -59 -110 -111 -110
-115 0 -5 20 -6 45 -3 33 5 45 3 45 -6 0 -16 -58 -71 -132 -127 -32 -23 -58
-45 -58 -48 0 -2 24 -3 53 0 58 6 77 2 77 -16 0 -20 -40 -51 -105 -84 -75 -37
-110 -65 -101 -80 12 -20 42 -13 81 18 21 17 42 30 47 30 18 0 19 -29 3 -54
-17 -25 -17 -26 4 -26 12 0 36 7 52 16 17 8 33 13 37 10 11 -12 -73 -119 -150
-190 -43 -40 -78 -76 -78 -79 0 -16 41 -5 81 23 49 33 69 37 69 15 0 -48 -266
-248 -432 -325 -26 -12 -54 -32 -62 -45 -10 -15 -40 -31 -83 -45 -37 -13 -151
-55 -253 -95 -257 -102 -835 -285 -896 -285 -31 0 -144 -42 -138 -51 10 -16
93 -3 301 46 327 78 502 133 747 236 65 28 155 62 200 76 53 17 111 45 168 84
48 32 125 77 172 100 77 38 106 43 106 19 0 -6 -80 -62 -177 -127 -178 -117
-390 -229 -593 -313 -124 -52 -136 -60 -88 -60 76 0 316 91 513 194 76 40 119
56 146 56 35 0 41 4 59 39 11 22 37 52 57 67 69 50 114 98 139 146 13 27 51
77 84 114 66 72 113 149 129 209 6 22 31 64 55 94 64 78 89 146 91 257 3 102
6 111 43 125 43 16 97 0 178 -53 123 -81 317 -142 494 -155 106 -7 151 0 188
32 26 21 31 23 49 10 72 -50 174 -438 177 -670 1 -122 -10 -169 -50 -206 -34
-32 -86 -30 -223 4 -193 50 -310 38 -606 -63 -177 -60 -249 -70 -324 -45 -57
19 -109 16 -181 -8 -25 -9 -57 -18 -72 -21 -35 -8 -36 -32 -4 -57 22 -18 24
-25 19 -69 -5 -48 -4 -52 30 -84 42 -39 100 -57 287 -86 153 -24 202 -38 197
-53 -3 -11 -26 -16 -149 -32 -27 -3 -48 -10 -48 -15 0 -5 24 -13 53 -19 171
-34 219 -46 286 -68 127 -42 183 -70 179 -90 -5 -23 -37 -20 -141 13 -89 27
-117 30 -117 10 0 -17 57 -44 185 -86 55 -18 127 -47 160 -64 l60 -31 -54 -5
c-30 -3 -56 -10 -58 -17 -5 -13 48 -42 109 -62 36 -12 88 -61 88 -83 0 -20 51
-78 89 -102 21 -14 46 -32 55 -42 17 -17 17 -18 -15 -33 -28 -13 -35 -23 -40
-56 -7 -53 -21 -76 -71 -120 -96 -82 -267 -138 -404 -133 -123 5 -102 21 112
88 101 31 223 87 258 118 24 22 39 63 27 75 -5 5 -31 -11 -66 -43 -31 -28 -68
-56 -83 -62 -82 -32 -371 -98 -430 -98 -14 0 -43 12 -63 26 -26 18 -47 24 -71
22 -50 -5 -41 -26 32 -83 99 -76 198 -174 223 -219 26 -48 57 -66 115 -66 29
0 48 -6 62 -20 35 -35 20 -80 -26 -80 -31 0 -47 -24 -46 -73 2 -99 61 -194
161 -259 75 -49 327 -295 355 -348 10 -19 36 -48 58 -63 48 -34 78 -97 85
-176 5 -63 -11 -99 -41 -88 -13 5 -16 17 -14 53 4 61 -15 68 -41 16 -18 -35
-27 -66 -46 -154 -3 -19 -17 -34 -43 -47 -22 -11 -53 -42 -76 -76 -65 -94
-327 -308 -356 -290 -16 10 2 29 70 70 61 37 75 56 57 74 -32 32 -97 3 -187
-84 -73 -70 -138 -107 -223 -125 -32 -8 -60 -17 -62 -21 -3 -3 13 -26 35 -50
37 -40 41 -42 51 -26 12 21 104 67 132 67 30 0 17 -39 -24 -72 -19 -16 -53
-31 -75 -35 -21 -3 -48 -14 -59 -23 -49 -43 -191 -89 -353 -115 -117 -19 -202
-45 -302 -95 -41 -21 -120 -54 -175 -74 -192 -70 -235 -88 -235 -97 0 -5 71
-9 161 -9 145 0 160 -2 157 -17 -21 -109 -633 -110 -1308 -3 -209 34 -334 59
-579 116 -128 30 -308 71 -400 90 -282 59 -632 171 -1061 341 -273 108 -445
190 -607 291 -140 87 -264 152 -288 152 -33 0 -12 -41 27 -55 56 -19 159 -83
283 -175 143 -107 317 -192 738 -359 527 -210 552 -216 1442 -390 752 -146
842 -156 1397 -155 483 1 427 -9 553 94 170 138 256 173 263 104 2 -16 -11
-67 -28 -113 -25 -68 -30 -97 -30 -166 0 -115 6 -112 -261 -140 -67 -7 -81
-19 -134 -110 -22 -37 -80 -111 -129 -164 l-89 -95 7 -74 6 -74 -50 -48 c-39
-37 -62 -74 -101 -157 -84 -182 -104 -217 -140 -241 -53 -37 -107 -27 -247 44
-181 92 -171 88 -182 59 -15 -39 -53 -42 -108 -8 -164 102 -472 170 -882 196
-69 5 -150 31 -290 93 -81 36 -90 38 -202 40 -167 3 -287 44 -418 143 -57 44
-623 328 -719 362 -30 10 -66 19 -81 19 -38 0 -133 34 -204 74 -62 35 -99 69
-131 119 -10 16 -41 42 -69 58 -42 24 -63 29 -117 29 -74 0 -113 19 -209 105
-29 26 -76 62 -104 80 -80 51 -281 148 -401 194 -173 67 -227 95 -301 159 -80
69 -169 128 -239 159 -188 82 -183 79 -196 121 -13 44 -6 92 14 92 7 0 29 -16
48 -36 44 -46 88 -76 237 -163 67 -39 175 -106 241 -150 132 -87 205 -121 223
-103 13 13 0 26 -162 171 -109 97 -146 120 -242 146 -70 19 -87 41 -134 172
-39 112 -59 134 -138 157 -61 18 -80 41 -70 81 8 32 44 42 77 21 24 -17 24
-16 31 24 3 23 4 45 1 51 -23 36 102 -59 131 -100 9 -12 22 -51 29 -85 31
-149 172 -341 199 -271 8 22 50 18 73 -7 11 -13 32 -44 46 -69 32 -56 81 -100
147 -134 115 -58 106 -14 -15 77 -108 82 -154 144 -155 211 0 26 2 27 50 27
59 0 61 6 25 86 -14 30 -25 57 -25 59 0 18 38 -5 115 -71 50 -42 133 -107 186
-144 89 -64 115 -89 178 -171 27 -34 83 -63 144 -74 68 -13 45 15 -80 96 -36
23 -83 67 -113 105 -29 35 -104 110 -168 167 -68 60 -143 138 -180 187 -35 47
-90 112 -122 145 -97 102 -216 305 -208 357 2 19 22 0 109 -107 106 -129 323
-350 367 -374 61 -33 29 36 -64 139 -162 178 -296 399 -257 423 5 3 29 -20 54
-51 77 -96 338 -370 495 -520 170 -161 431 -370 482 -384 23 -7 4 19 -38 51
-68 52 -597 539 -659 607 -78 84 -222 317 -221 355 1 20 96 -86 200 -221 109
-144 207 -252 323 -357 107 -98 128 -108 87 -41 -42 69 -6 80 64 18 50 -42
103 -58 145 -44 38 14 35 48 -4 52 -79 7 -138 25 -168 51 -18 15 -61 44 -98
64 -358 197 -536 901 -397 1572 26 130 56 225 70 225 7 0 8 -61 2 -212 -24
-586 24 -1060 116 -1143 26 -24 26 -13 0 97 -99 422 -101 1056 -3 1288 31 75
37 16 44 -435 7 -445 17 -567 58 -725 30 -119 59 -185 107 -249 82 -109 97
-85 35 56 -73 167 -99 340 -108 703 -13 554 60 1143 159 1290 62 91 62 32 4
-325 -75 -460 -81 -516 -81 -840 1 -319 10 -389 74 -579 63 -185 157 -331 345
-536 105 -114 147 -173 133 -187 -4 -4 -38 3 -75 15 -112 36 -145 26 -91 -27
38 -39 166 -101 206 -101 16 0 37 8 45 18 15 17 78 187 78 211 0 7 -47 59
-104 116 -57 57 -126 138 -155 180 -198 297 -265 700 -180 1085 25 112 34 192
25 216 -6 15 -9 16 -21 3 -56 -56 -105 -593 -76 -829 24 -195 131 -453 230
-551 58 -59 136 -175 123 -183 -12 -7 -137 81 -199 142 -46 46 -71 84 -126
192 -101 201 -111 248 -111 515 0 306 16 390 164 840 48 149 100 324 115 390
15 66 31 124 36 130 18 19 8 -126 -16 -249 -17 -87 -25 -159 -25 -233 0 -103
-11 -197 -45 -383 -40 -214 -36 -486 9 -663 41 -159 92 -254 236 -438 124
-157 150 -175 178 -116 17 35 0 128 -34 183 -85 142 -205 411 -228 515 -8 35
-17 144 -21 242 -9 225 -22 245 -46 70 -25 -189 6 -345 117 -593 98 -217 118
-269 110 -277 -10 -10 -162 149 -172 179 -3 13 -21 43 -39 68 -45 62 -73 162
-87 306 -15 163 0 344 52 624 22 118 43 237 47 264 9 54 27 70 37 34 10 -38 7
-197 -6 -264 -9 -51 -9 -66 2 -79 40 -48 160 -74 175 -37 4 9 13 181 20 382 7
201 16 373 20 383 12 30 23 19 44 -45 34 -103 51 -190 60 -310 12 -147 0 -259
-35 -338 -35 -77 -26 -90 60 -90 l61 0 -3 157 c-5 319 -21 441 -91 697 -47
170 -76 333 -67 369 3 15 19 33 35 42 35 18 41 12 65 -63 12 -35 64 -116 162
-250 160 -220 208 -275 232 -270 9 2 28 23 42 48 38 69 34 183 -12 360 -42
158 -58 296 -58 504 0 341 50 667 134 869 40 97 59 180 80 342 18 135 20 201
7 209 -12 8 -21 -18 -21 -57 0 -18 -7 -45 -16 -62 -9 -16 -24 -77 -35 -135
-17 -103 -71 -316 -143 -575 -77 -274 -102 -451 -93 -665 7 -159 25 -262 83
-458 29 -98 38 -145 38 -207 1 -74 -1 -80 -20 -83 -29 -4 -45 23 -83 142 -34
108 -52 138 -119 206 -81 81 -120 198 -96 288 11 41 28 17 71 -97 23 -62 44
-116 48 -119 12 -12 25 23 25 68 0 82 -20 356 -30 409 -5 29 -19 64 -30 78
-24 31 -26 59 -3 71 11 7 18 27 21 66 4 55 -3 67 -26 44 -38 -38 -56 79 -49
317 5 159 11 213 36 334 19 86 35 201 41 290 5 80 16 178 25 216 8 39 22 185
31 325 9 140 24 296 33 345 17 86 17 94 0 170 -10 44 -19 108 -19 143 0 63 20
132 39 132 20 0 40 -46 48 -109 4 -35 13 -66 20 -68 15 -5 48 47 69 110 l16
48 -36 39 c-20 22 -36 50 -36 63 0 34 29 125 42 133 20 13 38 -28 38 -87 0
-61 7 -89 21 -89 4 0 37 48 72 108 35 59 79 128 99 154 20 26 42 63 49 82 l12
34 21 -31 c14 -20 37 -37 62 -45 35 -11 43 -19 53 -51 11 -38 36 -69 47 -58 3
3 10 117 14 254 5 139 13 261 20 277 10 27 12 28 27 14 14 -15 14 -23 -2 -88
-31 -129 -9 -528 51 -915 60 -386 80 -636 70 -870 -7 -186 -39 -345 -64 -320
-4 4 -10 167 -14 363 -6 347 -10 408 -42 617 -9 55 -20 166 -26 247 -6 81 -15
158 -19 170 -9 22 -9 22 -17 3 -16 -37 -10 -372 9 -500 24 -162 33 -540 18
-769 -14 -206 -32 -324 -61 -387 -23 -52 -26 -117 -5 -145 13 -18 15 -18 45
-2 22 13 30 14 30 4 0 -27 -31 -114 -45 -126 -13 -11 -16 -8 -21 19 -6 30 -9
32 -43 29 -35 -3 -36 -2 -39 36 -2 21 3 82 12 135 8 53 17 116 21 141 5 44 30
449 41 665 l5 110 -21 -38 c-32 -58 -85 -227 -124 -397 -20 -85 -63 -245 -96
-355 -100 -332 -137 -554 -147 -870 -11 -369 37 -677 137 -880 79 -160 117
-176 106 -46 -8 107 -38 239 -86 380 -53 160 -70 275 -70 493 0 283 47 584
131 846 44 133 41 35 -5 -183 -61 -290 -81 -536 -66 -804 20 -351 83 -551 172
-551 44 0 44 31 -2 175 -64 200 -82 306 -83 475 -1 178 13 247 82 402 28 63
51 122 51 131 0 24 9 21 42 -10 l28 -26 20 45 c10 24 29 57 40 71 47 59 55 24
30 -123 -26 -153 -26 -170 3 -170 34 0 119 44 150 77 22 23 39 67 72 181 50
174 65 259 65 371 0 144 -24 102 -50 -89 -19 -137 -66 -294 -123 -406 -32 -63
-54 -84 -63 -60 -9 25 1 88 45 275 57 241 69 313 92 541 35 361 36 855 2 1049
-8 49 17 36 39 -20 10 -24 29 -73 44 -109 38 -93 78 -247 109 -417 30 -161 37
-336 22 -530 -9 -120 -9 -121 83 -76 43 21 50 27 33 30 -51 9 -57 142 -9 212
22 32 26 48 26 113 0 136 -70 422 -165 678 -87 233 -146 470 -145 583 l1 52
20 -38 c11 -20 37 -97 58 -170 21 -72 74 -229 119 -347 44 -118 84 -233 87
-255 8 -41 21 -65 36 -65 26 0 -8 181 -57 300 -72 174 -94 237 -109 309 -14
66 -14 76 0 97 21 32 19 65 -11 244 -31 179 -36 318 -15 344 25 30 34 1 42
-146 5 -79 15 -170 23 -203 9 -33 30 -134 47 -225 17 -91 42 -194 54 -230 13
-36 37 -105 54 -153 50 -139 80 -272 92 -402 12 -127 29 -185 53 -185 35 0 33
180 -4 359 -21 103 -77 307 -158 571 -76 249 -123 516 -107 609 5 30 13 44 33
54 33 16 32 47 -2 88 -31 37 -40 103 -27 207 32 255 148 506 255 553 26 11 81
20 151 24 121 7 175 20 175 40 0 7 -17 28 -37 45 l-38 32 35 -7 c132 -27 347
-110 411 -158 187 -141 323 -217 390 -217 48 0 54 26 10 41 -17 6 -56 43 -93
87 -105 127 -118 152 -75 152 27 0 52 -16 133 -87 87 -75 107 -71 58 13 -15
25 -25 47 -23 49 9 8 269 -173 334 -232 50 -47 97 -78 170 -113 187 -91 233
-74 123 46 -45 49 -53 51 -80 28 -16 -16 -21 -16 -60 0 -53 20 -153 92 -376
269 -95 75 -216 161 -271 191 -126 71 -150 90 -134 107 18 18 75 -1 151 -51
34 -22 80 -49 101 -60 22 -11 101 -60 177 -110 131 -86 164 -102 164 -80 0 35
-173 162 -370 270 -282 156 -297 167 -209 157 34 -4 88 -23 144 -51 92 -46
145 -60 152 -40 4 12 -46 48 -113 82 -53 27 -106 71 -98 83 8 14 28 11 95 -11z
m-542 -203 c8 -10 5 -22 -14 -47 l-25 -34 29 -12 c25 -10 51 -40 51 -57 0 -6
-105 25 -167 49 -71 26 -53 59 52 101 40 16 60 16 74 0z m-749 -62 c-24 -24
-45 -43 -47 -41 -3 2 2 19 10 39 17 40 56 72 71 57 7 -7 -5 -25 -34 -55z
m-3370 3 c0 -21 -71 -98 -90 -98 -15 0 -12 23 7 50 45 68 83 90 83 48z m5830
-54 c25 -20 55 -40 68 -45 28 -11 32 -59 4 -59 -20 0 -132 110 -132 129 0 18
13 13 60 -25z m-2725 -4 c3 -5 20 -10 36 -10 27 0 30 -3 23 -22 -30 -99 -143
-242 -170 -216 -9 10 26 69 77 131 67 80 66 99 -2 52 -38 -27 -84 -85 -114
-145 -10 -19 -39 -64 -65 -100 -73 -100 -140 -231 -140 -273 0 -49 -78 -152
-140 -186 -64 -35 -208 -182 -346 -356 -66 -82 -176 -220 -245 -305 -156 -192
-455 -580 -523 -677 -47 -69 -66 -86 -66 -63 0 19 79 169 152 288 110 181 221
345 306 451 211 264 337 445 330 477 -8 41 -131 -100 -276 -318 -51 -75 -120
-172 -155 -215 -139 -173 -398 -560 -563 -843 -167 -288 -280 -451 -519 -750
-311 -389 -710 -812 -1015 -1075 -243 -210 -435 -415 -489 -523 -13 -24 -56
-80 -97 -123 -54 -59 -74 -87 -74 -107 0 -41 -34 -88 -131 -184 -71 -71 -89
-94 -94 -125 -12 -76 -56 -200 -98 -278 -34 -63 -50 -84 -80 -98 -33 -17 -37
-23 -37 -58 0 -47 16 -57 58 -35 56 29 144 148 163 221 6 22 32 78 59 125 26
47 64 115 83 151 19 36 97 162 175 280 77 118 146 230 154 249 22 51 148 162
148 130 0 -20 -29 -68 -170 -281 -77 -116 -163 -252 -191 -302 -29 -51 -91
-155 -139 -232 -113 -184 -153 -255 -190 -345 -42 -101 -71 -137 -123 -151
-73 -19 -86 -27 -106 -66 -29 -57 -48 -135 -66 -263 -26 -182 -43 -214 -82
-153 -15 22 -18 48 -17 143 0 106 3 124 38 225 20 61 41 131 46 156 31 162
377 780 526 942 30 32 54 64 54 71 0 18 71 117 156 217 40 47 196 214 346 370
496 516 783 831 1041 1139 180 216 498 637 566 749 100 167 408 623 485 721
327 414 418 531 501 645 105 145 212 266 274 309 74 52 68 34 -48 -133 -63
-90 -25 -113 40 -23 23 31 108 122 189 202 83 82 188 199 242 270 53 69 121
153 152 188 31 35 68 81 82 103 23 38 55 51 69 29z m-3237 -144 c-6 -11 -22
-37 -35 -56 -12 -20 -30 -58 -38 -85 -15 -51 -55 -121 -55 -97 0 7 16 61 35
121 39 121 68 169 91 150 11 -9 11 -16 2 -33z m3102 -191 c0 -29 -63 -101
-108 -125 -54 -27 -35 16 37 83 45 42 71 57 71 42z m-3340 -54 c0 -5 -18 -64
-40 -132 -68 -215 -100 -387 -86 -464 5 -27 12 -35 24 -33 14 3 18 19 23 83 5
58 14 92 32 125 13 25 39 89 57 143 17 53 34 97 37 97 17 0 -37 -235 -73 -322
-28 -68 -31 -148 -9 -253 18 -86 32 -122 61 -158 13 -15 26 -44 29 -65 13 -82
28 -128 71 -225 76 -168 86 -197 69 -197 -8 0 -28 20 -45 45 -39 57 -136 290
-156 372 -19 85 -28 106 -69 168 -44 66 -59 72 -91 38 -13 -14 -28 -23 -32
-19 -4 4 -9 47 -10 94 -4 87 6 176 29 284 11 47 11 61 0 82 -18 33 -9 55 87
219 67 113 92 145 92 118z m3653 -209 c-2 -48 -19 -85 -35 -76 -11 7 -5 94 7
115 14 22 30 0 28 -39z m-259 -384 c17 -472 43 -874 66 -1023 30 -193 32 -310
4 -310 -15 0 -73 215 -89 330 -35 265 -54 754 -36 955 11 135 30 240 41 240 4
0 10 -87 14 -192z m1613 125 c14 -36 -79 -73 -147 -58 -47 10 -35 37 25 57 66
22 114 23 122 1z m329 -19 c55 -26 37 -39 -59 -42 -98 -3 -151 7 -155 30 -7
39 140 47 214 12z m-1821 -263 c-17 -17 -26 32 -20 119 9 158 20 168 23 21 1
-73 0 -136 -3 -140z m-3871 147 c-4 -7 -18 -27 -30 -45 -28 -38 -29 -45 -8
-106 18 -54 13 -92 -17 -107 -17 -9 -24 -6 -49 20 -18 20 -36 30 -45 26 -25
-9 -18 9 31 81 64 94 104 143 115 143 6 0 7 -6 3 -12z m6383 -221 c-17 -26
-73 -54 -84 -43 -11 11 10 38 47 64 41 27 61 16 37 -21z m261 -69 c4 -19 -44
-48 -78 -48 -27 0 -25 16 5 46 28 28 68 29 73 2z m-343 -49 c14 -22 -61 -79
-105 -79 -43 0 -8 64 43 79 44 13 55 13 62 0z m-6595 -53 c0 -44 -79 -228
-133 -308 -97 -145 -60 64 39 220 56 89 94 124 94 88z m190 -61 c0 -12 -9 -32
-19 -44 -10 -12 -22 -38 -26 -58 -4 -21 -15 -43 -26 -51 -19 -13 -26 -42 -11
-42 4 0 23 16 42 35 62 64 83 43 73 -76 -6 -69 -6 -69 20 -69 38 0 57 10 57
30 0 24 15 33 28 17 5 -6 17 -37 27 -67 23 -71 79 -183 161 -321 36 -61 95
-170 130 -241 100 -202 175 -303 404 -547 108 -115 150 -166 150 -183 0 -20
-51 -19 -84 1 -126 78 -555 616 -587 735 -13 50 -85 200 -133 280 -29 47 -36
69 -36 110 0 28 -4 56 -8 62 -8 13 -77 44 -98 44 -39 0 5 -143 70 -229 14 -19
26 -47 26 -63 0 -68 80 -233 231 -474 64 -102 124 -181 210 -276 66 -73 136
-157 156 -186 34 -49 35 -54 20 -69 -15 -15 -19 -15 -59 0 -66 26 -116 72
-148 141 -17 33 -55 93 -87 131 -120 149 -242 364 -344 605 -29 69 -55 128
-59 133 -5 6 -74 -2 -148 -18 -22 -5 -21 -3 12 62 42 83 60 167 51 234 -8 58
-17 66 -51 44 -14 -9 -27 -15 -29 -13 -2 2 1 25 6 52 11 60 6 68 -31 54 -38
-13 -54 -36 -80 -113 -31 -94 -100 -153 -92 -79 2 16 16 72 32 124 16 52 32
111 36 130 10 52 40 106 87 157 64 70 127 89 127 38z m6698 3 c-31 -47 -196
-105 -222 -78 -8 9 -4 17 17 33 29 22 153 64 196 66 22 1 23 0 9 -21z m-6409
-74 c11 -14 32 -63 46 -107 50 -164 182 -416 359 -687 99 -151 169 -233 343
-406 90 -89 133 -138 133 -153 0 -134 -387 230 -584 549 -138 222 -307 609
-341 777 -11 56 11 69 44 27z m7250 -203 c19 -12 -17 -31 -59 -31 -42 0 -120
20 -120 31 0 12 161 11 179 0z m-4934 -202 c14 -22 -8 -61 -57 -100 -56 -44
-67 -40 -48 16 21 63 86 116 105 84z m3590 -19 c9 -14 -22 -68 -44 -75 -22 -7
-108 13 -117 27 -9 14 15 37 50 47 42 12 104 13 111 1z m-3225 -69 c0 -76 -9
-121 -25 -121 -28 0 -34 88 -11 145 22 52 36 43 36 -24z m-120 -77 c0 -63 -30
-156 -87 -271 -54 -109 -55 -115 -64 -225 -10 -135 -25 -188 -58 -204 -13 -7
-28 -19 -32 -27 -18 -31 -28 -213 -33 -594 -5 -399 -11 -473 -36 -409 -37 99
-49 573 -17 716 17 77 16 86 -18 92 -36 6 -30 62 21 199 25 68 60 169 76 224
63 208 208 535 238 535 6 0 10 -16 10 -36z m81 -417 c-7 -84 -25 -280 -41
-437 -16 -157 -38 -384 -50 -505 -29 -321 -41 -418 -50 -435 -19 -34 -22 72
-6 278 9 119 23 324 31 454 18 276 30 401 50 513 8 44 19 123 26 175 6 52 16
106 21 120 9 23 10 24 20 7 7 -13 6 -66 -1 -170z m-753 -151 c7 -37 -9 -66
-46 -85 -21 -11 -43 -30 -49 -43 -7 -14 -12 -17 -12 -8 -1 20 46 120 66 143
19 20 37 18 41 -7z m6181 10 c32 -38 21 -198 -19 -276 -26 -51 -162 -115 -279
-130 -135 -18 -212 7 -115 37 166 52 204 67 251 95 55 33 72 55 49 64 -17 7
-268 -61 -322 -86 -80 -39 -87 -14 -16 53 55 51 91 71 142 81 49 9 184 89 228
136 39 42 62 49 81 26z m-2449 -103 c-70 -33 -157 -43 -166 -19 -4 9 -4 20 0
23 11 11 80 21 151 21 l70 0 -55 -25z m-3162 -198 c-7 -27 -17 -49 -23 -47
-17 4 -11 112 10 187 l20 70 3 -80 c1 -44 -3 -102 -10 -130z m-2690 -4 c12
-24 34 -58 48 -74 30 -36 28 -58 -8 -71 -31 -11 -58 5 -58 34 0 10 -11 42 -25
73 -41 89 -2 124 43 38z m8252 -106 c0 -43 -90 -95 -209 -120 -96 -20 -124
-19 -146 5 -26 28 -11 39 66 50 74 11 150 32 211 60 52 24 78 25 78 5z m-5594
-126 c7 -125 -11 -518 -25 -532 -23 -23 -31 50 -31 266 1 355 39 539 56 266z
m-2353 50 c23 -13 22 -26 -4 -34 -48 -15 -149 26 -117 47 15 10 94 1 121 -13z
m1747 -99 c0 -133 -38 -401 -61 -424 -27 -29 -1 363 32 462 17 52 29 37 29
-38z m-1956 24 c10 -26 7 -102 -5 -110 -16 -10 -29 15 -29 58 0 40 8 68 20 68
4 0 11 -7 14 -16z m3625 -92 c-1 -75 -9 -112 -24 -115 -15 -3 -18 81 -5 141
15 70 30 57 29 -26z m4429 57 c-7 -46 -50 -63 -166 -67 -84 -3 -111 0 -127 11
-20 15 -20 16 5 25 14 5 72 17 129 26 58 9 107 19 110 21 2 3 15 5 28 5 19 0
24 -5 21 -21z m-6314 -164 c-6 -100 -20 -165 -34 -165 -18 0 -40 46 -40 86 0
39 26 128 50 174 21 40 31 2 24 -95z m-1324 46 c11 -22 22 -59 26 -83 l7 -43
-28 25 c-55 50 -91 130 -69 153 12 12 44 -14 64 -52z m7591 -36 c16 -11 -8
-32 -56 -51 -39 -14 -55 -15 -127 -5 -128 18 -148 23 -148 32 0 25 294 46 331
24z m-491 -114 c5 -11 10 -33 10 -49 0 -67 -125 -146 -220 -140 -28 2 -51 8
-52 13 -1 6 21 22 49 38 46 24 70 47 140 131 25 31 58 34 73 7z m380 -22 c0
-31 -60 -51 -176 -57 -70 -3 -103 -1 -108 7 -13 20 150 69 237 70 41 1 47 -2
47 -20z m-93 -123 c-3 -8 -17 -22 -31 -32 -31 -19 -127 -25 -133 -7 -5 14 45
42 107 58 47 13 67 6 57 -19z m-5867 -207 c0 -67 -16 -112 -31 -88 -12 19 -11
66 2 112 15 56 29 45 29 -24z m-1086 -573 c-2 -93 -54 -147 -68 -72 -7 38 1
111 16 140 10 18 11 18 32 -3 15 -16 21 -33 20 -65z m-401 7 c-9 -27 -105
-171 -152 -230 -48 -62 -82 -74 -55 -20 9 17 31 52 48 77 17 25 38 68 47 95
11 35 26 57 49 73 41 27 72 30 63 5z m2088 -39 c11 -51 11 -84 -1 -84 -12 0
-30 65 -30 110 0 44 18 28 31 -26z m-276 -254 c0 -113 -4 -171 -12 -185 -10
-16 -12 21 -12 190 0 166 3 205 12 185 7 -15 11 -88 12 -190z m-2096 58 c-12
-24 -65 -115 -117 -203 -53 -88 -142 -250 -199 -360 -96 -185 -149 -272 -159
-262 -2 2 10 53 26 113 37 133 111 286 196 404 35 49 64 93 64 99 0 5 23 36
51 68 28 32 58 72 66 88 17 33 72 95 85 95 5 0 -1 -19 -13 -42z m1402 -48 c-6
-19 -20 -46 -31 -60 l-20 -25 0 39 c0 25 10 56 27 85 25 42 28 44 31 21 2 -13
-1 -40 -7 -60z m-261 -10 c14 -25 5 -55 -27 -97 -26 -36 -53 -43 -53 -15 0 46
39 132 60 132 5 0 14 -9 20 -20z m6135 1 c0 -11 -27 -20 -95 -32 -52 -9 -144
-31 -204 -48 -122 -35 -170 -40 -146 -17 27 26 138 76 212 96 89 24 233 24
233 1z m-5275 -96 c0 -77 -23 -269 -41 -340 -6 -22 -19 -62 -29 -90 -11 -27
-22 -66 -25 -86 -3 -19 -12 -44 -20 -55 -13 -18 -14 -16 -15 19 0 22 16 118
35 215 20 97 40 223 46 280 10 105 22 148 40 137 5 -4 9 -40 9 -80z m-435 -71
c-3 -23 -13 -50 -21 -60 -14 -17 -15 -13 -11 46 3 36 11 79 18 95 l13 30 4
-35 c2 -19 1 -53 -3 -76z m5988 69 c20 -12 -26 -23 -214 -48 -107 -14 -237
-36 -289 -47 -52 -12 -126 -23 -165 -25 l-70 -3 95 41 c131 56 212 72 460 93
54 4 169 -2 183 -11z m-6673 -20 c-4 -16 -24 -82 -44 -148 -116 -379 -210
-845 -177 -878 20 -20 35 11 65 140 117 500 198 787 232 830 26 31 10 -137
-21 -227 -57 -163 -215 -904 -239 -1119 -7 -65 -16 -106 -24 -109 -7 -2 -12 6
-12 22 0 14 -4 26 -9 26 -13 0 -31 -89 -32 -153 0 -29 -4 -61 -8 -71 -7 -19
-8 -19 -15 0 -15 35 -19 463 -6 590 38 374 152 860 246 1047 39 77 59 100 44
50z m960 -314 c-41 -238 -49 -378 -26 -402 16 -16 16 -17 -6 -26 -37 -14 -47
-32 -57 -106 -6 -37 -15 -73 -22 -79 -38 -36 47 574 114 819 l22 80 3 -51 c2
-29 -11 -134 -28 -235z m5570 222 c0 -11 -101 -42 -295 -92 -134 -34 -165 -39
-189 -30 -28 11 -28 12 -11 32 26 28 131 57 286 78 153 21 209 25 209 12z
m-5780 -38 c0 -35 -51 -228 -66 -251 -21 -33 -38 -15 -36 39 2 45 41 166 66
204 19 29 36 32 36 8z m-1424 -125 c-8 -61 -40 -140 -66 -163 -17 -15 -19 -15
-25 5 -19 61 39 210 83 210 12 0 13 -10 8 -52z m455 -77 c-87 -204 -159 -670
-167 -1076 -3 -132 -7 -265 -11 -295 l-6 -55 -8 40 c-4 22 -15 126 -25 231
-14 161 -15 213 -6 320 31 358 150 835 231 928 16 18 16 18 19 -2 2 -11 -10
-52 -27 -91z m587 -54 c4 -105 -5 -172 -27 -206 -8 -12 -12 -12 -25 -2 -21 17
-21 93 -1 224 16 110 22 124 39 107 6 -6 12 -58 14 -123z m-123 73 c21 -40 20
-99 -2 -107 -37 -14 -68 70 -43 118 15 27 27 24 45 -11z m295 -80 c0 -59 -30
-125 -53 -117 -19 6 -14 124 8 181 l19 50 13 -30 c6 -16 12 -54 13 -84z m834
-153 c-1 -321 -22 -465 -70 -484 -36 -14 -39 14 -15 150 35 200 50 324 51 407
0 112 11 183 24 170 7 -7 11 -86 10 -243z m-1774 218 c19 -22 8 -50 -21 -53
-31 -4 -86 38 -75 56 10 17 81 15 96 -3z m1671 -84 c2 -77 -1 -153 -7 -173 -8
-27 -33 -21 -45 10 -14 36 -7 200 10 231 13 24 14 24 27 6 8 -10 15 -44 15
-74z m-1867 20 c8 -12 -42 -71 -60 -71 -19 0 -18 30 2 58 15 22 48 30 58 13z
m-347 -57 c4 -13 -41 -34 -82 -37 -38 -3 -48 29 -13 43 30 12 90 8 95 -6z
m493 -16 c0 -16 -94 -349 -120 -422 -29 -84 -27 -129 7 -155 l26 -21 -21 -23
c-59 -62 -73 -197 -59 -549 4 -117 4 -222 -1 -240 l-9 -33 -12 50 c-18 72 -25
449 -12 608 31 362 98 678 161 767 22 31 40 39 40 18z m528 -120 c2 -19 -10
-86 -26 -149 -18 -70 -32 -156 -37 -224 -7 -114 -22 -165 -65 -215 l-21 -25 6
90 c13 183 71 497 100 542 22 32 39 25 43 -19z m106 -140 l48 -73 -5 -90 c-16
-244 -38 -497 -47 -520 -14 -36 -36 -31 -52 13 -10 27 -12 86 -9 227 2 105 5
263 5 353 1 89 3 162 6 162 3 0 28 -33 54 -72z m-1030 -156 c6 -9 -24 -202
-54 -348 -19 -93 -39 -412 -40 -644 0 -111 -19 -54 -32 96 -8 108 -8 192 2
375 7 130 9 242 6 248 -4 6 -16 11 -27 11 -20 0 -26 15 -9 25 6 3 15 27 22 53
l12 47 12 -30 c12 -28 13 -24 14 51 0 48 5 87 13 96 16 22 71 35 81 20z m-220
-45 c9 -39 -14 -98 -58 -152 -24 -27 -64 -83 -89 -122 -53 -84 -77 -94 -77
-33 0 85 46 149 118 165 46 10 62 30 62 78 0 55 9 87 25 87 7 0 15 -10 19 -23z
m-594 -207 c0 -12 -68 -80 -80 -80 -21 0 -1 54 29 77 19 15 51 17 51 3z m8337
-42 c57 -54 -4 -205 -114 -277 -45 -30 -166 -74 -236 -87 -42 -7 -97 11 -97
32 0 8 29 22 73 35 131 40 297 139 297 179 0 20 -27 9 -48 -19 -27 -36 -103
-66 -222 -87 -95 -16 -255 -16 -255 1 0 6 45 21 100 34 241 56 373 113 387
165 4 16 13 33 20 37 24 16 71 9 95 -13z m61 -228 c3 -29 -4 -40 -62 -97 -67
-65 -125 -98 -222 -126 -50 -15 -83 -9 -70 11 3 6 36 20 74 32 115 37 188 94
233 182 23 46 43 45 47 -2z m-6748 -110 c0 -26 27 -80 40 -80 23 0 8 -29 -22
-43 -23 -11 -36 -13 -45 -5 -16 13 -17 101 -3 129 14 25 30 24 30 -1z m-1934
-337 c15 -27 42 -71 61 -100 34 -50 36 -73 8 -73 -31 0 -86 96 -109 193 -10
42 10 32 40 -20z m584 -3 c0 -31 -31 -104 -50 -115 -15 -10 -12 70 4 110 19
44 46 47 46 5z m-266 -205 c39 -8 74 -19 80 -25 19 -19 -16 -31 -77 -26 -60 6
-104 23 -126 50 -12 14 -9 16 20 16 19 0 65 -7 103 -15z m8312 -236 c6 -18 9
-39 7 -46 -9 -23 -32 -14 -39 15 -3 15 -8 33 -10 40 -2 8 -1 18 2 23 11 18 29
3 40 -32z m-6723 -188 c59 -60 107 -114 107 -120 0 -36 -105 -33 -140 4 -11
12 -36 58 -55 101 -34 77 -44 124 -27 124 5 0 57 -49 115 -109z m-156 -58 c15
-21 42 -56 60 -77 40 -49 44 -86 9 -86 -53 0 -126 98 -126 168 0 44 22 41 57
-5z m-577 -86 c39 -30 84 -118 103 -197 37 -157 30 -239 -23 -283 -31 -27
-117 -63 -126 -54 -3 3 13 39 35 79 33 59 41 85 41 124 -1 70 -22 157 -58 243
-51 117 -42 144 28 88z m6667 -1039 c26 -21 11 -48 -73 -126 -82 -77 -158
-127 -176 -116 -41 26 78 215 157 250 31 14 70 10 92 -8z m171 -84 c29 -20 38
-39 85 -174 l41 -115 4 -194 c4 -221 -3 -267 -51 -307 -25 -21 -38 -25 -70
-21 -46 6 -119 -14 -199 -54 -68 -34 -84 -36 -93 -9 -7 21 -53 50 -79 50 -22
0 -36 32 -36 81 0 27 14 72 40 130 22 49 40 94 40 99 0 6 -13 10 -28 10 -40 0
-52 17 -52 72 0 81 32 151 126 274 48 63 91 114 95 114 24 0 -6 -100 -82 -277
-49 -115 -61 -159 -37 -135 6 6 57 109 112 229 77 164 108 221 126 230 32 16
31 16 58 -3z m-500 -426 c37 -37 -27 -178 -69 -152 -16 9 -4 109 16 140 17 26
35 30 53 12z m800 -310 c16 -16 16 -81 0 -76 -21 7 -51 56 -45 72 8 19 28 21
45 4z m-1075 -97 c116 -85 179 -100 253 -57 39 22 41 22 53 5 6 -11 22 -19 35
-19 34 0 40 -14 20 -52 -26 -53 -55 -78 -87 -78 -19 0 -38 -9 -53 -25 -13 -15
-34 -25 -50 -25 -18 0 -37 -12 -60 -37 -27 -29 -36 -34 -48 -24 -28 24 -140
351 -120 351 3 0 28 -17 57 -39z m713 -147 c-25 -99 -116 -113 -116 -18 0 38
8 42 74 43 47 1 48 0 42 -25z m-245 -90 c9 -11 22 -14 41 -10 15 3 28 2 28 -2
0 -4 -21 -28 -46 -52 -44 -43 -46 -44 -60 -26 -23 32 -16 106 11 106 7 0 18
-7 26 -16z"/>
<path d="M2278 10053 c-39 -44 -85 -170 -69 -186 5 -5 12 4 16 21 3 16 21 47
39 68 38 45 56 76 56 98 0 21 -23 20 -42 -1z"/>
<path d="M2220 9809 c0 -6 11 -41 24 -78 13 -36 27 -93 30 -126 9 -76 27 -148
72 -282 90 -270 234 -577 234 -498 0 21 -80 225 -114 293 -14 28 -35 91 -47
139 -11 48 -33 131 -49 183 -16 52 -39 138 -51 190 -12 52 -30 112 -40 132
-20 38 -59 70 -59 47z"/>
<path d="M2344 8458 c13 -35 56 -139 95 -233 40 -93 76 -180 81 -192 11 -26
30 -31 30 -9 0 33 -67 202 -136 344 -76 155 -113 202 -70 90z"/>
<path d="M2645 8230 c13 -42 136 -278 152 -292 14 -11 15 -10 8 12 -12 38
-135 273 -152 290 -13 13 -14 12 -8 -10z"/>
<path d="M7245 7826 c-61 -27 -121 -95 -96 -110 9 -6 144 68 160 88 27 33 -10
46 -64 22z"/>
<path d="M6890 7805 c-77 -24 -91 -75 -20 -75 27 0 48 8 69 26 26 21 34 24 46
14 8 -7 15 -21 15 -32 0 -10 7 -21 16 -25 19 -7 87 23 111 49 17 19 17 21 -6
39 -19 15 -39 19 -105 18 -44 0 -101 -7 -126 -14z"/>
<path d="M6244 7684 c-44 -29 -154 -134 -154 -146 0 -10 27 7 129 80 40 28 79
52 87 52 8 0 14 9 14 20 0 28 -29 26 -76 -6z"/>
<path d="M6372 7560 c-91 -32 -187 -94 -176 -111 10 -17 42 -9 79 21 45 36
136 80 164 80 41 0 20 -36 -75 -128 -101 -99 -113 -125 -59 -130 88 -9 251
189 217 263 -10 21 -18 25 -54 25 -24 -1 -67 -9 -96 -20z"/>
<path d="M4641 7426 c-14 -17 -49 -174 -86 -386 -15 -85 -38 -188 -51 -228
-26 -79 -51 -248 -40 -260 13 -13 33 27 40 78 6 46 18 85 77 247 22 60 75 361
85 481 7 82 1 99 -25 68z"/>
<path d="M5820 6891 c-185 -60 -352 -141 -292 -141 55 0 360 122 378 152 11
18 -1 16 -86 -11z"/>
<path d="M5792 6756 c-45 -19 -119 -47 -165 -62 -96 -31 -157 -60 -157 -74 0
-30 229 28 373 94 59 27 78 40 75 54 -5 27 -37 24 -126 -12z"/>
<path d="M8496 6781 c-4 -5 5 -23 19 -39 27 -32 99 -62 148 -62 29 0 29 1 13
19 -18 20 -146 91 -164 91 -6 0 -13 -4 -16 -9z"/>
<path d="M4329 6753 c-18 -47 -38 -251 -37 -373 0 -111 1 -113 9 -50 5 36 21
137 34 226 27 175 30 224 15 224 -6 0 -15 -12 -21 -27z"/>
<path d="M6080 6733 c-54 -19 -130 -57 -130 -65 0 -5 21 -8 47 -6 39 2 48 0
51 -15 5 -25 -23 -54 -79 -82 -47 -24 -76 -51 -66 -61 15 -15 270 88 295 119
12 14 9 18 -25 34 -31 15 -39 24 -41 51 -3 32 -15 38 -52 25z"/>
<path d="M8732 6621 c-20 -17 -49 -31 -74 -34 -49 -7 -70 -23 -48 -38 39 -26
215 36 215 76 0 33 -53 31 -93 -4z"/>
<path d="M5767 6619 c-29 -17 -9 -29 48 -29 69 0 90 7 74 26 -13 16 -95 18
-122 3z"/>
<path d="M5587 6549 c-28 -17 -10 -29 44 -29 58 0 100 17 78 31 -19 12 -100
11 -122 -2z"/>
<path d="M6217 6531 c-21 -16 -65 -36 -104 -45 -67 -17 -93 -30 -93 -47 0 -27
116 4 228 60 64 32 74 44 46 55 -27 11 -40 7 -77 -23z"/>
<path d="M5719 6470 c-75 -13 -198 -49 -237 -70 -51 -27 -77 -48 -69 -57 8 -8
204 32 261 54 23 8 62 21 89 28 58 17 67 22 67 41 0 16 -34 17 -111 4z"/>
<path d="M5957 6400 c-27 -5 -55 -14 -63 -20 -17 -15 -19 -40 -1 -40 13 0 117
58 117 65 0 3 -1 4 -2 4 -2 -1 -25 -5 -51 -9z"/>
<path d="M6175 6371 c-33 -15 -78 -34 -100 -41 -71 -23 -88 -50 -30 -50 61 0
245 83 245 111 0 18 -56 8 -115 -20z"/>
<path d="M5700 6326 c-19 -7 -52 -21 -73 -30 -21 -9 -61 -21 -90 -27 -61 -11
-177 -63 -177 -79 0 -7 13 -9 38 -4 77 14 298 72 335 87 41 18 58 44 36 58
-18 11 -27 11 -69 -5z"/>
<path d="M5852 6235 c-29 -13 -51 -39 -40 -50 9 -9 108 27 108 40 0 10 -23 27
-33 25 -1 -1 -17 -7 -35 -15z"/>
<path d="M6213 6230 c-36 -21 -44 -50 -15 -50 20 0 102 50 102 62 0 15 -55 8
-87 -12z"/>
<path d="M6565 6195 c-26 -14 -71 -31 -99 -37 -28 -6 -76 -22 -106 -36 -30
-13 -80 -32 -110 -42 -31 -10 -55 -24 -55 -31 0 -24 75 -12 140 22 33 18 87
37 120 45 66 14 229 87 218 97 -14 14 -62 6 -108 -18z"/>
<path d="M4947 6138 c-30 -78 -39 -151 -39 -313 0 -171 6 -211 62 -400 42
-144 59 -185 76 -185 22 0 17 35 -21 168 -73 252 -88 330 -88 447 0 61 7 157
17 214 9 57 14 106 12 108 -2 2 -10 -16 -19 -39z"/>
<path d="M5661 6171 c-21 -14 -3 -31 32 -31 38 0 62 13 53 29 -8 13 -65 14
-85 2z"/>
<path d="M6010 6152 c-19 -9 -34 -21 -32 -27 7 -23 142 10 142 34 0 17 -72 13
-110 -7z"/>
<path d="M5430 6103 c-79 -12 -316 -77 -362 -98 l-53 -25 70 6 c142 12 395 74
440 108 19 14 17 15 -25 14 -25 0 -56 -3 -70 -5z"/>
<path d="M5830 6077 c-92 -27 -350 -100 -395 -111 -27 -7 -65 -20 -83 -30 -19
-10 -74 -22 -122 -27 -159 -16 -235 -68 -81 -55 43 3 142 26 231 52 362 106
417 123 463 143 26 11 47 25 47 31 0 12 -13 12 -60 -3z"/>
<path d="M6608 6054 c-40 -17 -56 -41 -33 -50 19 -8 103 21 135 46 l25 20 -45
-1 c-25 0 -62 -7 -82 -15z"/>
<path d="M6355 5960 c-71 -22 -236 -76 -366 -120 -235 -79 -376 -117 -519
-140 -168 -26 -435 -98 -370 -99 50 -1 219 19 296 34 314 64 817 212 871 257
8 6 36 15 63 19 54 8 180 64 180 80 0 14 -15 11 -155 -31z"/>
<path d="M6820 5958 c-14 -5 -117 -40 -230 -77 -113 -38 -270 -91 -350 -119
-214 -75 -533 -169 -630 -186 -97 -16 -140 -31 -140 -46 0 -21 35 -23 133 -5
175 30 466 119 822 250 94 35 200 72 236 83 72 22 203 85 214 102 7 12 -20 11
-55 -2z"/>
<path d="M5755 5914 c-16 -8 -59 -22 -95 -30 -81 -18 -113 -31 -105 -44 3 -6
24 -10 46 -10 76 0 315 72 304 91 -10 15 -117 10 -150 -7z"/>
<path d="M7025 5880 c-21 -17 -50 -33 -64 -36 -88 -18 -126 -30 -216 -65 -55
-21 -125 -54 -155 -74 -30 -19 -70 -37 -88 -41 -45 -9 -51 -24 -9 -24 130 0
617 207 617 262 0 19 -50 6 -85 -22z"/>
<path d="M5370 5815 c-41 -14 -122 -30 -180 -36 -102 -10 -147 -26 -158 -57
-6 -19 44 -15 247 19 255 42 233 35 229 67 -4 37 -41 39 -138 7z"/>
<path d="M7195 5775 c-49 -25 -98 -45 -107 -45 -9 0 -20 -4 -23 -10 -11 -18
58 -10 127 14 73 26 131 62 123 77 -10 15 -27 10 -120 -36z"/>
<path d="M7565 5803 c-51 -13 -62 -53 -15 -53 41 0 103 27 98 42 -5 14 -50 20
-83 11z"/>
<path d="M7308 5672 c-26 -9 -50 -21 -55 -26 -12 -13 116 0 132 14 39 33 -2
39 -77 12z"/>
<path d="M6855 5651 c-16 -4 -91 -33 -166 -64 -75 -31 -147 -57 -159 -57 -12
0 -37 -9 -54 -19 -17 -11 -71 -29 -121 -41 -49 -12 -116 -33 -147 -46 -34 -14
-95 -28 -146 -33 -91 -10 -145 -27 -139 -45 7 -23 88 -17 193 13 59 17 119 31
133 31 40 0 112 22 281 85 85 31 205 75 265 97 61 23 133 51 160 64 l50 22
-60 0 c-33 0 -73 -3 -90 -7z"/>
<path d="M6246 5579 c-126 -47 -586 -153 -719 -165 -39 -4 -83 -11 -96 -16
-23 -8 -23 -10 -8 -25 27 -27 164 -30 240 -5 34 12 143 41 243 66 99 25 211
57 250 71 38 15 104 37 147 51 48 16 77 30 74 37 -7 21 -51 17 -131 -14z"/>
<path d="M7083 5570 c-39 -10 -123 -39 -187 -64 -63 -25 -189 -68 -278 -95
-90 -27 -182 -56 -206 -65 -24 -9 -158 -41 -299 -71 -196 -43 -289 -58 -402
-66 -159 -11 -204 -19 -199 -34 5 -16 173 -9 328 14 277 42 617 118 819 183
209 67 511 191 511 209 0 12 -2 11 -87 -11z"/>
<path d="M5153 5514 c-45 -20 36 -48 139 -48 91 -1 124 17 62 33 -48 12 -185
22 -201 15z"/>
<path d="M5140 5375 c-10 -12 -10 -18 0 -30 18 -21 165 -17 165 4 0 33 -141
55 -165 26z"/>
<path d="M5650 5310 c0 -22 107 -32 183 -17 71 15 38 27 -73 27 -65 0 -110 -4
-110 -10z"/>
<path d="M5316 5292 c-11 -18 29 -32 90 -32 54 0 57 1 42 17 -20 19 -122 31
-132 15z"/>
<path d="M7405 5223 c-143 -64 -387 -163 -504 -204 -63 -22 -127 -47 -142 -54
-15 -8 -80 -28 -145 -44 -66 -16 -157 -44 -204 -60 -47 -17 -102 -31 -123 -31
-21 0 -57 -8 -80 -19 -26 -11 -79 -21 -141 -25 -101 -7 -140 -18 -133 -39 7
-21 103 -19 249 7 202 35 625 168 887 278 53 23 160 67 238 98 145 59 207 94
200 113 -6 20 -21 17 -102 -20z"/>
<path d="M4085 5228 c13 -42 58 -117 66 -112 12 7 11 41 -2 67 -15 29 -50 67
-61 67 -5 0 -6 -10 -3 -22z"/>
<path d="M5195 5163 c-16 -2 -34 -8 -39 -13 -14 -14 59 -23 154 -18 85 4 111
10 97 24 -8 8 -173 14 -212 7z"/>
<path d="M6670 5114 c-180 -42 -259 -65 -272 -82 -12 -14 -7 -15 49 -9 34 4
92 18 130 33 37 14 108 37 156 49 159 42 108 49 -63 9z"/>
<path d="M5867 5089 c-25 -15 -11 -29 29 -29 38 0 74 15 74 30 0 13 -80 12
-103 -1z"/>
<path d="M4853 5054 c-22 -10 -14 -34 15 -45 91 -35 556 -10 519 28 -3 2 -88
6 -189 7 -100 2 -217 6 -258 9 -41 4 -81 4 -87 1z"/>
<path d="M7249 4991 c-30 -15 -92 -49 -139 -74 -47 -26 -136 -67 -197 -93 -62
-26 -113 -51 -113 -55 0 -5 4 -9 8 -9 28 0 141 37 227 75 56 24 137 53 180 65
90 24 158 65 163 98 3 20 -1 22 -36 22 -24 0 -60 -11 -93 -29z"/>
<path d="M6233 4997 c-53 -15 -74 -34 -53 -47 8 -6 29 -7 45 -4 45 9 115 41
115 53 0 14 -53 12 -107 -2z"/>
<path d="M5927 4933 c-40 -10 -8 -28 54 -31 66 -2 97 7 85 27 -7 11 -102 14
-139 4z"/>
<path d="M5670 4910 c-13 -9 -13 -11 0 -20 32 -21 120 -6 120 20 0 13 -101 13
-120 0z"/>
<path d="M5200 4874 c-46 -12 -70 -12 -146 -3 -98 13 -156 7 -135 -14 9 -9 80
-12 254 -12 246 0 319 7 284 27 -31 17 -196 19 -257 2z"/>
<path d="M7295 4810 c-38 -21 -106 -51 -150 -65 -100 -32 -114 -40 -98 -56 35
-35 353 93 353 141 0 30 -26 25 -105 -20z"/>
<path d="M4344 4669 c24 -369 44 -426 160 -459 37 -10 49 -10 61 0 20 17 19
41 -5 125 -13 47 -20 100 -20 161 0 108 -1 110 -121 209 l-81 68 6 -104z m124
-182 c26 -28 38 -78 24 -104 -9 -16 -14 -11 -36 37 -39 83 -33 115 12 67z"/>
<path d="M4823 4750 c-13 -5 -23 -14 -23 -19 0 -20 42 -31 157 -41 65 -6 138
-15 163 -20 51 -10 342 -12 378 -2 62 18 15 28 -184 39 -116 6 -265 21 -332
32 -135 23 -129 23 -159 11z"/>
<path d="M5747 4726 c-70 -19 -68 -26 9 -26 76 0 110 13 84 30 -19 12 -34 12
-93 -4z"/>
<path d="M6574 4730 c-47 -19 -36 -30 30 -30 50 0 66 3 66 14 0 25 -53 34 -96
16z"/>
<path d="M7440 4704 c-75 -20 -157 -53 -205 -82 -22 -14 -75 -37 -119 -51 -44
-14 -82 -32 -84 -38 -6 -22 84 -16 130 8 23 12 98 44 166 71 147 58 202 85
202 98 0 13 -24 12 -90 -6z"/>
<path d="M6295 4663 c-149 -19 -591 -85 -597 -89 -26 -16 3 -24 87 -24 158 0
295 19 630 88 l40 9 -28 11 c-27 12 -70 13 -132 5z"/>
<path d="M6798 4643 c-10 -2 -18 -11 -18 -19 0 -10 12 -14 44 -14 48 0 106 17
106 31 0 9 -100 11 -132 2z"/>
<path d="M6570 4571 c-45 -9 -60 -18 -60 -37 0 -19 11 -17 110 16 l85 28 -50
0 c-27 0 -66 -3 -85 -7z"/>
<path d="M7510 4559 c-30 -11 -94 -34 -141 -50 -100 -34 -131 -54 -110 -68 7
-5 30 -5 55 1 42 9 273 112 291 129 16 16 -37 9 -95 -12z"/>
<path d="M5195 4553 c-81 -9 -98 -14 -87 -25 25 -25 415 -18 512 9 l25 7 -30
7 c-31 7 -367 9 -420 2z"/>
<path d="M6185 4503 c-22 -2 -123 -15 -224 -29 -246 -34 -466 -36 -558 -5 -78
26 -77 26 -91 -3 -20 -45 2 -51 207 -54 327 -6 881 50 881 88 0 9 -125 11
-215 3z"/>
<path d="M6810 4481 c-32 -10 -70 -34 -70 -43 0 -12 131 -8 170 5 56 19 45 42
-20 44 -30 1 -66 -2 -80 -6z"/>
<path d="M7533 4435 c-71 -31 -25 -95 69 -95 67 0 118 -18 118 -40 0 -25 37
-50 76 -50 49 0 367 80 384 96 43 42 -71 41 -250 -1 -117 -27 -194 -33 -188
-12 3 6 37 32 77 56 40 24 70 45 68 47 -2 3 -36 -2 -76 -11 -99 -21 -147 -19
-178 5 -30 23 -56 25 -100 5z"/>
<path d="M6520 4410 c-304 -54 -491 -84 -618 -100 -170 -22 -236 -36 -227 -50
8 -13 81 -13 181 0 43 5 164 19 268 30 103 12 216 27 250 34 270 60 286 65
286 87 0 11 -77 10 -140 -1z"/>
<path d="M7007 4393 c-35 -9 -10 -28 39 -31 55 -3 109 12 99 28 -6 10 -103 12
-138 3z"/>
<path d="M6690 4304 c-100 -26 -574 -109 -685 -120 -36 -4 -67 -10 -69 -13 -6
-8 149 -4 319 10 158 12 502 79 623 122 99 34 -52 35 -188 1z"/>
<path d="M5252 4296 c33 -30 106 -46 203 -46 124 0 101 27 -48 55 -43 8 -102
15 -130 15 l-52 -1 27 -23z"/>
<path d="M8315 4293 c-11 -3 -81 -22 -155 -43 -74 -21 -151 -41 -170 -45 -56
-10 -70 -16 -70 -26 0 -26 223 6 357 52 100 34 130 84 38 62z"/>
<path d="M7220 4270 c-30 -11 -81 -26 -112 -35 -32 -9 -58 -21 -58 -26 0 -23
191 3 240 33 25 16 27 48 3 47 -10 0 -43 -9 -73 -19z"/>
<path d="M4914 4205 c-11 -27 4 -45 36 -45 38 0 52 27 25 46 -25 18 -54 18
-61 -1z"/>
<path d="M8485 4213 c-46 -12 -351 -114 -364 -122 -8 -5 -11 -16 -8 -25 11
-28 79 -19 174 23 48 21 113 46 143 55 108 34 140 48 140 62 0 14 -41 17 -85
7z"/>
<path d="M5131 4201 c-12 -8 -12 -12 -3 -24 19 -22 91 -37 181 -37 132 0 112
28 -39 56 -89 16 -120 17 -139 5z"/>
<path d="M5572 4172 c-53 -16 -15 -38 70 -41 20 0 49 4 65 10 25 9 26 11 10
20 -23 13 -115 20 -145 11z"/>
<path d="M8601 4130 c-13 -11 -35 -20 -50 -20 -28 0 -70 -24 -60 -34 6 -6 189
37 208 49 23 14 9 25 -31 25 -28 -1 -51 -8 -67 -20z"/>
<path d="M7304 4125 c-9 -22 4 -35 36 -35 34 0 47 15 30 35 -16 19 -59 19 -66
0z"/>
<path d="M6475 4099 c-71 -5 -177 -16 -235 -25 -58 -8 -150 -20 -205 -25 -156
-16 -705 -16 -896 0 -170 14 -219 11 -219 -13 0 -19 14 -23 147 -41 65 -9 154
-28 198 -43 l80 -26 -70 -16 c-64 -15 -68 -18 -45 -27 58 -24 650 -35 689 -13
28 15 -97 32 -300 39 -210 7 -240 14 -206 48 14 14 49 18 219 24 357 14 759
55 931 95 155 37 151 38 -88 23z"/>
<path d="M4145 4038 c-16 -56 -20 -194 -6 -217 5 -8 16 -11 24 -8 27 10 33
256 6 273 -4 2 -15 -19 -24 -48z"/>
<path d="M7080 4062 c-14 -2 -31 -9 -38 -15 -20 -16 4 -27 59 -27 48 0 98 24
69 33 -30 10 -65 14 -90 9z"/>
<path d="M4007 4042 c-65 -71 -32 -348 57 -480 61 -92 84 -44 41 90 -22 68
-28 109 -32 223 -3 77 -9 150 -14 163 -10 27 -30 28 -52 4z"/>
<path d="M3856 4009 c-11 -54 -7 -204 4 -193 15 15 26 224 13 224 -6 0 -13
-14 -17 -31z"/>
<path d="M6770 3994 c-57 -14 -277 -41 -555 -69 -178 -18 -239 -30 -229 -47
10 -15 327 -4 482 17 147 20 460 79 469 89 13 13 -22 26 -67 25 -25 -1 -70 -7
-100 -15z"/>
<path d="M7075 3905 c-159 -36 -213 -46 -365 -65 -237 -28 -449 -47 -740 -65
-140 -8 -268 -19 -285 -24 l-30 -8 40 -9 c22 -5 141 -9 265 -8 202 0 253 4
495 37 452 62 703 109 763 142 26 14 26 14 -28 14 -30 0 -82 -7 -115 -14z"/>
<path d="M7356 3817 c-52 -16 -57 -34 -11 -43 73 -13 195 13 195 43 0 17 -127
17 -184 0z"/>
<path d="M5236 3794 c-24 -23 -4 -50 41 -58 21 -3 79 -6 129 -6 169 0 207 26
68 46 -43 6 -97 16 -119 23 -56 15 -101 14 -119 -5z"/>
<path d="M6978 3744 c-272 -46 -632 -84 -958 -102 -126 -7 -141 -10 -117 -20
35 -15 346 -16 507 -2 117 11 594 74 686 91 58 11 91 30 80 47 -10 16 -36 14
-198 -14z"/>
<path d="M7618 3709 c-25 -14 -22 -38 6 -45 31 -7 68 12 64 34 -4 20 -45 27
-70 11z"/>
<path d="M5577 3648 c-18 -13 -18 -15 -2 -28 22 -18 152 -27 168 -11 34 34
-124 71 -166 39z"/>
<path d="M7353 3648 c-43 -14 -41 -22 7 -37 50 -15 130 -1 130 24 0 26 -74 33
-137 13z"/>
<path d="M7001 3595 c-159 -30 -699 -70 -796 -59 -43 5 -60 3 -81 -11 -18 -11
-23 -20 -16 -27 30 -30 487 -17 764 22 78 11 189 24 246 29 110 9 140 21 101
41 -34 19 -135 21 -218 5z"/>
<path d="M5356 3561 c10 -9 93 -31 118 -31 24 0 19 27 -6 34 -35 9 -123 7
-112 -3z"/>
<path d="M7622 3538 c2 -18 12 -24 46 -31 46 -9 123 2 125 18 3 15 -62 34
-121 34 -50 1 -53 -1 -50 -21z"/>
<path d="M5741 3540 c-34 -15 -16 -29 45 -36 59 -7 120 11 92 27 -27 15 -110
20 -137 9z"/>
<path d="M3940 3520 c0 -20 42 -120 51 -120 16 0 9 64 -11 98 -19 31 -40 43
-40 22z"/>
<path d="M7365 3489 c-132 -42 -476 -69 -987 -78 -376 -6 -421 -11 -367 -43
30 -16 598 -16 839 1 193 13 591 91 625 122 12 12 -71 10 -110 -2z"/>
<path d="M5599 3416 c23 -28 112 -47 203 -44 66 2 83 6 83 18 0 12 -18 16 -80
21 -44 3 -111 9 -150 14 -63 6 -68 6 -56 -9z"/>
<path d="M7744 3380 c-47 -19 -36 -30 30 -30 50 0 66 3 66 14 0 25 -53 34 -96
16z"/>
<path d="M7295 3314 c-205 -19 -561 -42 -790 -50 -110 -3 -206 -10 -214 -14
-60 -32 270 -50 588 -31 303 18 719 65 738 84 29 30 -88 34 -322 11z"/>
<path d="M5918 3274 c-26 -8 -22 -29 7 -42 34 -16 205 -44 222 -37 22 8 -2 34
-52 56 -41 18 -147 32 -177 23z"/>
<path d="M7868 3246 c-140 -22 -165 -32 -155 -60 9 -23 55 -20 224 14 147 30
171 39 159 59 -10 15 -70 12 -228 -13z"/>
<path d="M7285 3149 c-238 -12 -605 -39 -631 -45 -31 -8 -30 -22 2 -34 95 -37
930 32 978 80 12 12 -105 11 -349 -1z"/>
<path d="M8023 3125 c-63 -27 -37 -45 67 -45 81 0 100 6 100 30 0 10 -7 21
-16 24 -28 11 -118 6 -151 -9z"/>
<path d="M5970 3091 c0 -5 9 -13 20 -16 30 -10 81 -55 91 -82 17 -45 193 -97
214 -63 10 16 -9 27 -60 36 -76 12 -115 34 -136 76 -11 21 -31 43 -45 48 -32
13 -84 13 -84 1z"/>
<path d="M6245 3092 c-19 -8 -18 -9 5 -22 27 -15 164 -20 194 -7 37 15 0 28
-90 33 -49 2 -98 0 -109 -4z"/>
<path d="M7705 3060 c-16 -5 -133 -23 -260 -40 -284 -39 -454 -66 -463 -74
-15 -15 24 -31 86 -34 49 -3 159 12 402 52 184 31 358 62 385 70 l50 13 -40
11 c-46 14 -116 14 -160 2z"/>
<path d="M8000 2945 c-41 -7 -163 -27 -270 -45 -107 -17 -233 -40 -280 -51
-215 -50 -566 -75 -811 -56 -188 14 -269 14 -270 2 -1 -5 30 -21 67 -34 88
-31 241 -37 549 -23 235 12 413 38 835 122 198 40 303 69 324 90 14 14 -49 11
-144 -5z"/>
<path d="M6623 2933 c-27 -5 -30 -18 -7 -27 25 -9 177 -7 194 4 34 22 -104 39
-187 23z"/>
<path d="M8007 2794 c-43 -13 -126 -28 -185 -35 -103 -11 -160 -24 -150 -34 7
-7 381 32 428 45 36 10 56 31 43 44 -11 11 -56 4 -136 -20z"/>
<path d="M8350 2733 c-14 -2 -95 -17 -180 -33 -85 -17 -245 -41 -355 -55 -110
-14 -204 -27 -210 -30 -5 -2 34 -4 88 -4 183 -2 613 54 695 89 69 30 49 48
-38 33z"/>
<path d="M7462 2699 c-96 -12 -105 -16 -97 -47 10 -42 20 -45 50 -18 15 14 59
36 98 50 78 26 65 30 -51 15z"/>
<path d="M6810 2661 c-29 -20 5 -32 81 -29 70 3 72 4 45 16 -41 18 -108 25
-126 13z"/>
<path d="M8535 2639 c-116 -15 -166 -38 -112 -53 37 -10 90 -7 152 9 68 18 93
34 73 46 -15 10 -17 10 -113 -2z"/>
<path d="M8120 2553 c-19 -2 -114 -13 -210 -25 -141 -18 -236 -22 -490 -24
-173 -1 -331 -3 -350 -4 l-35 -2 35 -8 c44 -11 351 -30 481 -30 87 0 449 41
624 70 33 5 63 10 68 10 4 0 7 5 7 10 0 10 -55 11 -130 3z"/>
<path d="M8682 2551 c-25 -15 -10 -46 22 -46 35 0 59 30 36 45 -19 12 -41 12
-58 1z"/>
<path d="M2975 2460 c-4 -6 1 -22 10 -36 16 -26 162 -139 203 -157 50 -23 32
9 -44 82 -88 82 -158 128 -169 111z"/>
<path d="M8210 2440 c-129 -18 -317 -36 -630 -60 -153 -12 -197 -23 -146 -36
65 -16 466 10 856 56 164 19 230 34 230 51 0 15 -164 8 -310 -11z"/>
<path d="M6050 2430 c-27 -17 12 -44 66 -44 59 -1 69 19 20 39 -41 17 -65 19
-86 5z"/>
<path d="M8685 2393 c-16 -2 -86 -17 -155 -33 -158 -36 -232 -46 -450 -60
-196 -12 -336 -26 -351 -36 -6 -4 -6 -11 2 -20 17 -20 97 -18 368 11 262 28
285 31 355 51 28 8 90 21 140 30 101 17 161 39 151 54 -3 5 -12 9 -18 9 -7 -1
-25 -4 -42 -6z"/>
<path d="M6152 2258 c-41 -11 -40 -24 3 -45 29 -14 41 -15 75 -4 22 6 40 16
40 20 0 26 -66 42 -118 29z"/>
<path d="M2776 2191 c-9 -15 72 -90 123 -113 52 -24 77 -12 45 23 -54 59 -154
113 -168 90z"/>
<path d="M7605 2180 c-13 -21 8 -30 65 -30 70 0 86 15 33 29 -48 14 -90 14
-98 1z"/>
<path d="M3310 2120 c45 -58 241 -161 264 -139 18 16 -47 69 -139 115 -49 24
-103 47 -120 50 l-30 7 25 -33z"/>
<path d="M8282 2099 c-23 -4 -47 -11 -52 -14 -13 -8 -13 -32 1 -41 13 -8 179
46 179 58 0 10 -71 9 -128 -3z"/>
<path d="M6233 2065 c-46 -33 9 -68 98 -63 61 3 70 19 28 50 -36 27 -98 34
-126 13z"/>
<path d="M3584 1899 c-24 -40 184 -128 235 -100 13 8 -2 18 -69 49 -103 48
-157 64 -166 51z"/>
<path d="M6317 1868 c-18 -13 -18 -15 -1 -29 20 -16 155 -20 161 -4 10 31
-126 59 -160 33z"/>
<path d="M2980 1801 c0 -31 230 -165 249 -145 11 11 -69 72 -149 113 -79 42
-100 48 -100 32z"/>
<path d="M6401 1706 c-23 -27 17 -50 122 -70 103 -19 145 -41 134 -69 -4 -10
-14 -17 -24 -17 -36 0 -93 -21 -93 -35 0 -15 39 -25 240 -55 176 -28 340 -37
340 -21 0 17 -63 41 -108 41 -90 0 -231 54 -250 95 -7 14 -24 31 -39 37 -16 7
-48 25 -73 41 -87 54 -224 83 -249 53z"/>
<path d="M3940 1659 c0 -18 60 -69 81 -69 28 0 23 25 -12 54 -31 27 -69 35
-69 15z"/>
<path d="M3470 1641 c0 -13 49 -51 65 -51 7 0 19 7 26 16 11 14 10 18 -6 30
-21 16 -85 19 -85 5z"/>
<path d="M5623 534 c-24 -11 -13 -35 23 -50 20 -8 88 -19 152 -25 355 -29 450
-48 632 -125 58 -24 113 -44 123 -44 80 0 -145 129 -303 174 -138 39 -324 67
-475 72 -77 2 -146 1 -152 -2z"/>
<path d="M2285 4000 c-11 -34 -8 -151 4 -163 16 -16 26 19 26 95 0 71 -17 109
-30 68z"/>
<path d="M8462 1103 c-27 -10 -112 -214 -112 -270 0 -74 69 28 110 164 23 76
24 113 2 106z"/>
<path d="M8698 12491 c-45 -29 -69 -61 -45 -61 19 0 120 63 125 78 7 21 -32
13 -80 -17z"/>
<path d="M8866 12079 c-51 -55 -75 -101 -43 -83 55 32 127 109 127 136 0 23
-33 2 -84 -53z"/>
<path d="M8648 12013 c-34 -39 -31 -81 5 -67 27 10 42 84 18 84 -4 0 -15 -8
-23 -17z"/>
<path d="M1072 7228 c-16 -16 -15 -53 2 -67 20 -17 48 14 44 48 -3 28 -27 38
-46 19z"/>
<path d="M957 7073 c-12 -12 -7 -60 8 -73 29 -24 47 18 25 61 -11 20 -22 24
-33 12z"/>
<path d="M655 1840 c-67 -26 -198 -102 -203 -117 -7 -23 35 -14 129 26 104 45
172 87 164 101 -9 14 -34 11 -90 -10z"/>
<path d="M628 1688 c-39 -14 -35 -28 7 -28 34 0 105 23 105 34 0 10 -83 5
-112 -6z"/>
<path d="M450 1616 c-35 -13 -54 -46 -27 -46 22 0 104 36 111 49 10 15 -39 13
-84 -3z"/>
<path d="M350 1390 c-49 -26 -87 -67 -73 -81 17 -17 45 -3 88 41 46 47 38 68
-15 40z"/>
<path d="M9313 1068 c-41 -44 -32 -80 32 -133 55 -45 79 -43 83 5 5 50 -14
106 -45 129 -33 27 -45 26 -70 -1z"/>
<path d="M9466 835 c-23 -23 -10 -42 58 -81 33 -20 94 -66 134 -103 95 -85
131 -111 158 -111 20 0 34 17 34 42 0 34 -205 208 -291 248 -53 24 -73 25 -93
5z"/>
<path d="M9310 475 c0 -33 202 -170 301 -204 85 -29 131 -34 154 -17 26 19 20
24 -43 36 -66 12 -127 43 -172 86 -34 32 -157 95 -212 108 -21 5 -28 3 -28 -9z"/>
</g>
</svg>
