<?xml version="1.0" standalone="no"?>
<!DOCTYPE svg PUBLIC "-//W3C//DTD SVG 20010904//EN"
 "http://www.w3.org/TR/2001/REC-SVG-20010904/DTD/svg10.dtd">
<svg version="1.0" xmlns="http://www.w3.org/2000/svg"
 width="1280.000000pt" height="942.000000pt" viewBox="0 0 1280.000000 942.000000"
 preserveAspectRatio="xMidYMid meet">
<metadata>
Created by potrace 1.15, written by Peter Selinger 2001-2017
</metadata>
<g transform="translate(0.000000,942.000000) scale(0.100000,-0.100000)"
fill="#000000" stroke="none">
<path d="M2655 9410 c-409 -46 -787 -216 -1123 -505 -239 -206 -437 -457 -622
-790 -125 -224 -191 -311 -279 -362 -64 -39 -150 -41 -344 -9 -262 43 -282 37
-282 -83 1 -74 17 -132 107 -386 78 -219 94 -250 252 -484 73 -108 163 -245
200 -306 299 -485 806 -1039 1321 -1440 308 -241 742 -487 829 -471 40 8 99
68 190 195 73 101 74 110 6 111 -19 1 -53 4 -75 8 l-40 7 -5 54 c-7 71 -22 81
-91 58 -35 -11 -57 -13 -65 -7 -6 6 -17 44 -23 84 -7 43 -19 80 -28 88 -10 8
-43 13 -87 13 l-71 0 -11 72 c-15 99 -22 106 -105 98 -76 -8 -73 -11 -84 80
-8 63 -23 102 -42 109 -8 3 -34 1 -59 -5 -71 -18 -75 -14 -89 114 -9 78 -22
90 -104 85 l-66 -3 -5 87 c-7 113 -15 121 -116 126 l-77 4 8 52 c16 101 8 173
-15 137 -8 -14 -82 -29 -112 -23 -16 3 -18 16 -18 105 0 98 -2 105 -36 167
-169 311 -205 452 -207 815 -2 171 2 226 17 295 112 512 529 975 1072 1191
170 67 408 107 562 95 309 -25 541 -167 732 -446 58 -86 161 -200 233 -258 18
-15 27 -31 27 -51 0 -48 30 -75 80 -73 59 3 88 11 390 112 146 48 300 94 342
100 115 19 351 8 458 -20 215 -57 385 -156 550 -320 129 -130 194 -224 266
-391 106 -245 154 -452 161 -704 11 -379 -76 -682 -285 -989 -288 -424 -766
-657 -1530 -746 -101 -12 -208 -30 -239 -41 -130 -45 -237 -146 -308 -292 -68
-141 -80 -197 -79 -372 0 -130 3 -163 26 -250 15 -55 40 -185 57 -290 17 -104
43 -227 58 -273 64 -204 199 -322 410 -359 110 -19 256 -7 447 37 70 16 133
27 138 24 5 -3 -20 -33 -56 -65 -44 -41 -75 -80 -96 -122 -31 -62 -55 -174
-45 -206 3 -11 -18 -40 -68 -91 -115 -117 -132 -159 -317 -794 -177 -608 -185
-648 -156 -785 8 -41 29 -102 45 -137 26 -55 29 -72 28 -156 0 -60 6 -114 17
-153 52 -178 200 -332 379 -395 32 -11 223 -59 425 -106 202 -47 446 -104 542
-127 145 -34 193 -41 280 -42 62 0 126 6 155 14 81 23 184 79 239 130 50 47
52 48 146 58 52 6 122 20 154 32 65 23 1022 553 1098 608 137 99 238 287 238
443 l0 55 51 29 c118 66 216 201 240 331 23 123 -10 269 -83 365 -21 27 -35
50 -33 50 3 0 50 -35 104 -79 209 -166 349 -251 494 -299 177 -59 333 -53 476
19 134 67 225 164 425 455 53 78 126 177 163 220 74 90 130 170 162 231 12 24
23 43 25 43 3 0 55 -27 118 -59 132 -69 194 -91 463 -165 269 -73 298 -79 387
-80 63 -1 81 3 105 20 42 32 41 80 -8 284 -37 152 -43 190 -43 290 -1 115 -1
116 34 174 48 80 134 156 290 256 420 271 536 358 744 560 450 437 697 899
787 1475 17 106 17 456 1 570 -68 470 -269 914 -594 1311 -32 39 -58 81 -58
93 0 39 -29 79 -75 107 -25 14 -73 55 -107 91 -114 119 -220 173 -383 199 -75
12 -115 26 -245 88 -393 188 -742 296 -1090 336 -213 25 -542 5 -745 -45 -617
-151 -1168 -603 -1670 -1369 -199 -303 -350 -708 -417 -1115 l-22 -134 -43 47
-42 47 -113 -89 c-174 -138 -225 -201 -212 -260 11 -47 103 -212 199 -357 96
-145 196 -279 317 -422 57 -68 74 -97 93 -156 66 -207 79 -408 36 -547 -29
-93 -49 -134 -174 -345 -229 -388 -289 -577 -225 -715 49 -106 143 -188 448
-390 181 -119 172 -113 165 -131 -4 -11 -31 -14 -128 -14 -100 0 -132 -4 -179
-22 -107 -40 -203 -121 -259 -219 l-30 -54 -64 0 c-142 0 -129 6 -750 -330
-452 -244 -470 -255 -523 -304 l-32 -30 -180 44 c-107 26 -180 49 -180 56 0 7
48 167 107 355 107 344 107 344 108 449 0 164 -46 269 -177 406 l-69 72 12 65
c38 207 -123 431 -333 462 -30 5 -48 12 -48 20 0 15 32 23 259 60 262 43 355
73 429 139 91 83 114 230 87 568 -27 339 -22 405 36 536 43 96 109 182 261
339 75 78 164 176 197 217 222 280 366 675 410 1126 22 230 22 328 1 495 -93
712 -303 1213 -654 1560 -280 276 -644 440 -1121 505 -44 6 -201 13 -350 17
l-270 5 -50 38 c-447 332 -773 486 -1180 556 -108 18 -389 26 -500 14z m7627
-1845 c188 -39 346 -105 503 -210 102 -68 253 -207 290 -265 47 -75 184 -200
284 -260 267 -160 377 -249 481 -390 206 -280 258 -669 144 -1089 -172 -635
-716 -1224 -1297 -1406 -168 -52 -266 -66 -503 -72 -373 -10 -542 25 -885 182
-169 77 -434 233 -506 299 -77 70 -196 215 -276 336 -352 534 -379 1239 -70
1843 194 380 540 739 873 907 290 146 642 192 962 125z m-5112 -4481 c0 -2 -9
-4 -20 -4 -11 0 -20 4 -20 9 0 5 9 7 20 4 11 -3 20 -7 20 -9z m55 -23 c71 -44
116 -109 135 -193 7 -31 10 -67 6 -81 l-6 -26 -73 34 c-39 18 -92 39 -115 46
-44 13 -44 13 -38 52 4 21 18 66 32 99 14 33 23 67 20 74 -7 19 3 18 39 -5z
m-315 -26 c0 -2 -10 -10 -22 -16 -21 -11 -22 -11 -9 4 13 16 31 23 31 12z m50
-156 c0 -4 -19 -10 -42 -14 -24 -4 -60 -14 -82 -21 -21 -8 -41 -12 -44 -9 -8
7 18 90 40 125 l19 33 55 -54 c30 -29 54 -56 54 -60z m166 -221 c73 -32 126
-67 118 -79 -15 -25 -97 -51 -163 -51 -78 -1 -137 21 -195 73 l-39 34 49 22
c66 31 163 31 230 1z m-326 -133 c123 -127 314 -149 494 -58 53 27 51 28 82
-31 37 -68 54 -139 54 -225 0 -81 -6 -107 -100 -410 -54 -178 -102 -326 -105
-329 -3 -3 -74 11 -158 31 -171 41 -260 47 -348 21 -123 -37 -233 -113 -319
-222 -30 -37 -58 -71 -63 -77 -6 -6 -7 22 -4 75 4 63 21 139 65 290 33 113 95
324 137 470 43 146 90 294 106 329 29 64 102 171 117 171 5 0 24 -16 42 -35z
m2911 -403 c-7 -2 -18 1 -23 6 -8 8 -4 9 13 5 13 -4 18 -8 10 -11z m-67 -84
c-1 -51 -9 -121 -17 -155 -14 -60 -14 -64 5 -88 30 -39 76 -34 167 19 42 25
101 54 131 66 30 12 60 28 66 35 16 21 36 -53 36 -130 -1 -71 -20 -128 -62
-190 -28 -40 -92 -95 -112 -95 -4 0 -14 15 -22 33 -25 57 -145 194 -228 261
-45 36 -115 82 -157 102 -42 21 -78 39 -80 40 -7 6 38 69 71 100 37 35 97 70
143 83 61 19 61 19 59 -81z m345 -75 c13 -28 13 -28 -8 -9 -22 20 -27 36 -13
36 5 0 14 -12 21 -27z m-764 -322 c22 -68 83 -159 136 -205 70 -60 188 -113
292 -131 34 -5 37 -8 31 -33 -21 -100 -123 -239 -224 -309 -104 -71 -897 -504
-958 -523 -99 -31 -96 -33 -88 63 7 90 -5 227 -29 322 -25 98 -100 238 -165
305 l-58 60 62 34 c331 183 801 431 845 446 31 11 75 19 98 20 41 0 42 -1 58
-49z m288 -35 c54 -34 147 -127 147 -146 0 -11 -22 -8 -90 12 -79 23 -183 117
-204 186 l-7 22 51 -20 c28 -11 75 -35 103 -54z m-2480 -378 c50 -12 96 -25
101 -29 16 -14 -57 -129 -120 -188 -105 -99 -216 -141 -369 -141 -81 0 -95 3
-140 29 -77 44 -82 54 -58 104 47 95 156 187 268 226 81 28 198 27 318 -1z
m520 -129 c67 -16 138 -34 158 -39 l36 -10 -9 -62 c-18 -129 25 -334 99 -482
40 -79 127 -175 192 -214 l44 -26 -40 -17 c-134 -57 -264 -52 -568 20 -121 29
-335 79 -475 111 -292 68 -381 105 -473 194 -52 50 -115 142 -104 152 3 3 20
-2 37 -11 18 -9 72 -23 119 -31 377 -61 728 102 821 382 12 35 26 64 31 64 6
0 65 -14 132 -31z m528 -216 c99 -104 162 -284 143 -410 -8 -53 -27 -56 -100
-13 -63 35 -104 86 -135 165 -19 50 -23 78 -23 170 0 63 5 122 12 138 l12 28
28 -19 c15 -11 43 -38 63 -59z"/>
</g>
</svg>
