<?xml version="1.0" standalone="no"?>
<!DOCTYPE svg PUBLIC "-//W3C//DTD SVG 20010904//EN"
 "http://www.w3.org/TR/2001/REC-SVG-20010904/DTD/svg10.dtd">
<svg version="1.0" xmlns="http://www.w3.org/2000/svg"
 width="1227.000000pt" height="1280.000000pt" viewBox="0 0 1227.000000 1280.000000"
 preserveAspectRatio="xMidYMid meet">
<metadata>
Created by potrace 1.15, written by Peter Selinger 2001-2017
</metadata>
<g transform="translate(0.000000,1280.000000) scale(0.100000,-0.100000)"
fill="#000000" stroke="none">
<path d="M9720 12437 c47 -14 13 -22 -37 -8 -25 7 -39 7 -41 1 -2 -6 -27 -11
-55 -11 l-52 -2 40 -7 40 -7 -47 -2 c-50 -1 -69 -21 -21 -21 17 0 23 -4 18 -9
-6 -5 -65 -13 -132 -17 -68 -4 -123 -10 -123 -15 0 -4 -10 -11 -22 -15 -22 -7
-22 -7 -3 -14 19 -7 -65 -25 -155 -34 -27 -2 -24 -3 13 -4 70 -3 48 -22 -26
-23 -44 -1 -53 -3 -33 -8 l30 -6 -27 -12 c-14 -7 -50 -15 -79 -18 -29 -4 -84
-14 -123 -23 l-70 -17 45 -5 c69 -8 23 -20 -75 -20 -46 0 -87 -4 -90 -10 -3
-5 -18 -10 -32 -10 -18 0 -24 -4 -19 -15 4 -10 -1 -15 -17 -16 -21 0 -21 -1
-2 -8 16 -7 13 -9 -18 -15 -22 -4 -35 -11 -31 -17 4 -7 -9 -8 -40 -4 -31 5
-51 3 -61 -5 -9 -7 -26 -10 -42 -6 -21 5 -24 4 -13 -4 12 -7 8 -10 -18 -10
-18 0 -31 -4 -27 -9 3 -6 -18 -8 -52 -5 l-58 5 40 -19 c22 -11 49 -27 60 -37
l20 -17 -20 7 c-11 4 -40 11 -65 15 -25 5 -58 14 -75 21 -16 6 -42 11 -56 10
-14 0 -45 6 -69 14 -57 20 -67 19 -39 -6 24 -20 24 -20 1 -9 -28 13 -45 4 -37
-20 5 -16 -3 -15 -82 10 -48 15 -91 23 -94 18 -3 -4 -20 -3 -38 3 -17 6 -35 9
-38 5 -4 -3 -1 -6 6 -6 7 0 10 -4 7 -9 -4 -5 14 -19 39 -31 61 -30 52 -35 -15
-9 -30 11 -63 18 -74 15 -11 -3 -38 -1 -61 4 -22 5 -58 11 -80 14 -36 5 -38 4
-21 -9 17 -13 15 -14 -20 -9 -22 3 -52 10 -68 15 -39 12 -46 11 -40 -4 4 -10
-7 -13 -46 -11 -44 2 -49 0 -34 -11 14 -10 5 -10 -46 1 -72 15 -93 11 -34 -6
22 -5 48 -18 59 -26 19 -16 18 -16 -17 -11 -21 3 -38 2 -38 -4 0 -13 -37 -11
-100 5 -112 28 -110 28 -103 10 5 -15 2 -16 -28 -10 -19 4 -58 11 -87 16 -29
5 -56 11 -61 14 -14 9 -247 66 -268 66 -15 0 -16 -2 -3 -10 12 -7 8 -10 -15
-10 -19 0 -25 -3 -17 -8 7 -5 -34 -8 -90 -7 -122 1 -136 -2 -111 -21 19 -15
22 -15 -62 2 -17 4 -17 2 3 -7 12 -7 22 -16 22 -21 0 -14 -73 -8 -200 18 -19
3 -22 2 -10 -6 25 -16 -17 -12 -101 10 -78 21 -124 25 -115 12 2 -4 -12 -6
-32 -5 -49 4 -15 -11 47 -22 40 -7 138 -44 117 -45 -5 0 -58 9 -118 21 -126
24 -166 21 -60 -5 39 -10 72 -20 72 -23 0 -9 -86 5 -205 32 -60 13 -111 23
-113 21 -2 -2 23 -13 55 -24 l58 -20 -55 -1 c-30 0 -75 4 -100 9 -41 7 -43 7
-25 -7 18 -14 17 -14 -25 -8 -25 3 -53 9 -62 11 -10 3 -18 3 -18 0 0 -2 23
-12 51 -21 59 -20 61 -28 4 -16 -59 13 -201 21 -186 11 9 -5 -16 -8 -61 -9
-45 0 -113 -11 -172 -26 -113 -29 -145 -43 -126 -55 8 -5 3 -10 -15 -14 -15
-4 -24 -10 -21 -13 4 -4 -4 -13 -16 -21 -23 -13 -23 -13 5 -9 15 2 27 3 27 1
0 -2 -21 -15 -47 -29 -104 -57 -148 -85 -146 -94 2 -6 -15 -20 -37 -32 -22
-13 -40 -28 -40 -36 0 -7 -23 -28 -51 -47 -28 -18 -45 -36 -38 -38 7 -2 -2
-16 -21 -33 -19 -17 -75 -71 -125 -121 -51 -50 -106 -101 -123 -113 -18 -12
-31 -25 -29 -29 1 -4 -13 -22 -30 -39 -18 -18 -33 -36 -33 -40 0 -3 -10 -17
-22 -30 -17 -18 -19 -26 -10 -32 10 -6 3 -17 -25 -41 -21 -18 -60 -59 -88 -89
-44 -49 -46 -53 -15 -30 19 14 46 32 60 39 20 10 17 4 -15 -31 -23 -24 -50
-55 -60 -69 l-20 -24 27 17 c16 10 28 15 28 13 0 -3 -20 -30 -45 -61 -25 -30
-40 -55 -35 -55 6 0 8 -6 4 -12 -4 -7 3 -4 16 7 l24 20 -24 -40 c-13 -22 -44
-64 -68 -93 -29 -33 -38 -50 -26 -45 17 6 17 5 5 -10 -7 -9 -10 -17 -7 -17 4
0 -1 -12 -12 -27 -11 -16 -22 -38 -26 -49 -4 -12 -29 -47 -56 -78 -49 -56 -60
-74 -40 -61 30 18 -15 -50 -75 -113 l-40 -43 44 6 45 5 -21 -22 c-32 -36 -40
-56 -13 -33 25 21 20 5 -9 -29 -16 -19 -15 -19 14 0 24 15 20 7 -21 -38 -28
-31 -54 -66 -57 -78 -6 -22 -6 -22 20 1 22 21 24 21 15 4 -5 -11 -20 -29 -32
-40 -11 -10 -32 -42 -46 -69 -24 -49 -25 -50 -3 -31 18 16 16 11 -9 -30 -33
-53 -33 -77 1 -48 12 10 -2 -9 -30 -42 -28 -33 -74 -104 -103 -158 -29 -54
-55 -96 -58 -93 -3 3 -11 -3 -19 -14 -8 -11 -20 -20 -27 -20 -8 0 -19 -7 -27
-16 -7 -9 -27 -23 -45 -32 -65 -35 -120 -76 -170 -126 -68 -69 -221 -207 -253
-228 -14 -10 -22 -18 -17 -18 6 0 -3 -14 -20 -32 -16 -17 -22 -27 -14 -23 12
7 13 6 3 -7 -7 -8 -11 -17 -8 -20 3 -3 -24 -31 -60 -62 -36 -32 -65 -62 -65
-67 0 -9 76 40 150 98 l35 27 -30 -33 c-16 -18 -64 -57 -105 -86 -81 -59 -163
-149 -212 -235 -30 -55 -31 -55 -4 -31 14 14 26 21 26 17 0 -5 7 -3 16 5 9 7
-1 -17 -21 -54 -24 -45 -34 -73 -30 -87 4 -11 11 -17 17 -14 10 6 8 -2 -10
-56 -3 -9 2 -6 11 5 20 25 21 21 1 -44 -8 -28 -12 -60 -9 -71 9 -27 -19 -126
-65 -232 -43 -99 -47 -112 -27 -83 13 17 14 16 20 -13 3 -16 1 -45 -4 -64 -14
-44 -18 -207 -5 -211 9 -3 -5 -129 -20 -186 -5 -18 -4 -22 5 -16 10 6 11 2 6
-16 -7 -23 -7 -24 9 -4 15 19 15 18 18 -20 1 -22 2 -53 1 -70 -1 -27 2 -25 23
20 l24 50 -4 -75 c-3 -61 -2 -71 9 -57 24 34 24 16 0 -49 -27 -70 -31 -99 -15
-89 6 4 10 -17 10 -57 1 -55 2 -61 14 -45 11 14 13 -3 10 -114 -4 -111 -2
-130 10 -120 11 9 15 4 20 -26 3 -21 6 -51 6 -68 l1 -30 15 30 14 30 -5 -44
c-5 -37 -4 -42 8 -32 18 15 27 -4 27 -60 0 -22 5 -39 11 -39 8 0 10 -18 5 -60
-7 -63 0 -93 15 -69 6 10 9 2 9 -21 0 -26 3 -31 10 -20 7 11 10 3 11 -30 1
-25 3 -36 6 -25 9 36 23 40 23 6 0 -18 4 -30 9 -27 10 6 21 -41 21 -87 0 -35
16 -26 23 13 4 23 4 22 6 -5 1 -16 10 -59 21 -95 16 -57 19 -61 20 -30 0 31 3
28 24 -35 13 -38 29 -71 35 -73 6 -2 40 -63 76 -135 42 -83 82 -149 111 -179
25 -27 44 -54 41 -61 -2 -7 -19 -11 -38 -11 -215 10 -300 4 -374 -25 -11 -5
-45 -18 -75 -30 -107 -41 -210 -103 -280 -166 l-70 -65 -68 0 c-48 0 -101 10
-187 36 -105 31 -133 36 -225 35 -200 0 -314 -52 -408 -188 -12 -18 -22 -42
-22 -54 0 -12 -11 -37 -25 -55 -29 -37 -68 -124 -60 -132 3 -3 14 3 25 13 31
28 34 12 10 -42 -30 -65 -39 -108 -49 -239 -5 -61 -16 -133 -25 -160 -8 -27
-31 -105 -51 -174 -20 -69 -72 -233 -116 -365 -43 -132 -92 -284 -108 -337
-54 -175 -127 -330 -208 -441 -87 -119 -93 -129 -123 -222 -29 -89 -43 -117
-92 -179 -111 -140 -132 -272 -78 -486 16 -65 30 -137 30 -159 0 -40 12 -59
88 -140 8 -8 11 -23 7 -35 -4 -12 -9 -46 -12 -77 -4 -44 -1 -64 16 -97 l21
-40 -46 -61 c-25 -33 -48 -75 -51 -93 -11 -74 40 -170 107 -198 20 -8 33 -23
41 -49 7 -20 25 -59 40 -86 25 -44 36 -53 81 -70 29 -10 72 -32 96 -49 37 -27
42 -35 37 -61 -18 -95 1 -97 96 -6 93 89 100 84 75 -59 -3 -13 -15 -46 -27
-72 -12 -26 -20 -51 -16 -54 14 -14 101 51 141 106 60 81 137 296 143 400 6
107 7 110 63 174 28 31 57 71 66 87 14 28 14 33 0 54 -9 14 -16 37 -16 51 0
15 -5 42 -12 61 -10 28 -9 38 10 72 24 43 29 108 11 159 -23 65 113 673 163
728 10 11 36 65 57 120 22 54 68 155 102 224 34 69 70 149 80 177 10 29 29 68
43 85 13 18 36 63 49 100 32 83 36 90 182 278 215 277 215 277 368 337 156 59
368 88 537 71 252 -24 343 -39 439 -75 53 -19 142 -51 198 -72 57 -20 103 -39
103 -42 0 -8 -138 -56 -255 -89 -124 -35 -251 -84 -277 -107 -11 -10 -32 -23
-46 -30 -19 -8 -22 -12 -9 -12 16 -1 26 -21 9 -21 -11 0 -107 -81 -107 -91 0
-4 -22 -23 -50 -41 -45 -29 -47 -33 -26 -36 23 -4 22 -6 -20 -50 -33 -34 -37
-41 -17 -29 35 22 55 23 38 3 -6 -8 -14 -47 -16 -87 -3 -39 -7 -77 -10 -83 -3
-6 2 -2 10 8 14 17 16 18 16 3 0 -9 5 -17 10 -17 6 0 10 -8 10 -17 0 -14 2
-15 9 -5 6 10 13 6 26 -15 13 -20 20 -53 23 -112 4 -79 6 -82 18 -55 11 26 12
21 13 -64 1 -59 5 -91 11 -87 6 3 10 -3 10 -14 0 -12 5 -21 10 -21 6 0 10 -17
11 -37 l1 -38 12 35 13 35 6 -45 c4 -25 9 -75 13 -112 4 -38 11 -68 15 -68 5
0 10 33 10 73 2 71 2 70 11 -32 5 -57 13 -111 19 -120 9 -14 10 -14 5 2 -3 9
-1 17 4 17 6 0 10 -20 10 -45 0 -25 4 -45 10 -45 5 0 14 -19 21 -42 12 -46 56
-128 69 -128 4 0 5 12 3 28 -4 23 -3 24 7 9 15 -23 29 -13 24 16 -2 12 2 6 10
-13 7 -20 25 -58 38 -85 14 -28 33 -75 43 -105 9 -30 23 -60 30 -65 13 -11 37
-75 84 -225 16 -52 45 -140 65 -195 20 -55 44 -136 52 -179 8 -43 31 -122 50
-175 19 -53 41 -121 49 -151 7 -30 29 -102 48 -160 20 -58 43 -145 52 -195 9
-49 30 -121 46 -160 15 -38 37 -101 48 -140 26 -87 72 -169 109 -191 15 -9 41
-33 58 -52 31 -34 34 -35 135 -44 187 -17 1067 -4 1149 16 14 4 107 10 207 14
170 7 184 9 206 30 13 13 42 25 63 28 21 3 46 8 54 10 23 8 -8 24 -46 24 -28
0 -31 3 -26 25 2 14 9 25 15 25 5 0 3 8 -6 18 -10 10 -17 23 -17 29 0 6 -7 16
-15 23 -8 7 -15 17 -15 22 0 29 121 -85 140 -133 16 -37 34 -38 27 -2 l-5 28
25 -30 25 -30 -6 44 c-6 40 -5 43 9 31 9 -7 28 -34 43 -59 23 -39 27 -43 30
-24 9 61 -55 227 -116 302 -46 57 -49 60 -147 125 -44 29 -110 83 -148 120
-91 91 -126 106 -252 105 -71 0 -116 -5 -153 -18 -29 -10 -55 -14 -58 -10 -3
5 -21 9 -39 9 -30 0 -37 5 -54 39 -27 52 -129 131 -170 131 -23 0 -153 100
-195 150 -16 19 -34 48 -41 65 -7 16 -38 86 -68 155 -30 69 -58 141 -62 160
-4 19 -14 55 -22 80 -8 25 -28 106 -43 180 -16 74 -33 148 -39 163 -6 16 -11
42 -11 59 0 18 -4 45 -9 62 -12 38 -32 141 -36 180 -2 16 -6 49 -10 74 -4 30
-3 42 4 37 6 -3 11 1 11 9 0 9 -4 16 -8 16 -14 0 -22 179 -12 274 5 48 16 98
24 111 18 28 98 85 125 90 11 2 32 12 47 22 31 20 29 14 -15 -47 l-26 -35 34
28 c19 16 61 42 95 59 l61 30 -28 -29 c-27 -30 -27 -29 60 12 48 23 99 45 111
50 22 6 23 5 13 -14 -7 -12 -10 -21 -9 -21 2 0 32 9 68 20 75 23 83 24 53 7
-13 -7 -19 -17 -15 -24 5 -8 28 -1 76 23 38 19 72 32 74 29 3 -3 -5 -17 -19
-32 -25 -27 -15 -24 35 11 16 11 26 14 22 7 -5 -7 9 -4 32 8 45 23 61 17 35
-12 -17 -19 -17 -19 22 1 22 11 61 38 87 59 86 69 143 110 177 128 l35 18 -17
-27 c-20 -29 -12 -33 21 -10 12 8 32 17 44 19 11 3 33 15 47 27 14 13 19 15
12 6 -7 -10 -10 -18 -6 -18 4 0 -5 -17 -20 -37 l-28 -38 39 36 c21 20 54 46
73 59 29 20 34 21 28 6 -5 -11 11 -3 40 21 65 53 78 61 70 39 -4 -10 -3 -15 3
-11 6 3 10 1 10 -6 0 -7 10 -3 24 10 13 12 27 18 30 13 3 -5 -1 -15 -9 -22
-31 -26 -13 -30 19 -4 18 15 36 25 39 23 3 -2 17 7 31 20 22 21 26 22 32 8 5
-13 17 -5 59 36 29 29 70 68 91 87 22 20 52 51 67 70 l28 35 -5 -38 c-3 -22
-1 -35 5 -32 5 4 9 0 9 -7 0 -7 13 1 27 17 15 17 24 22 20 13 -3 -10 -3 -18 2
-18 8 0 53 88 66 129 6 18 9 20 16 10 6 -11 9 -11 9 -1 0 7 11 17 24 22 15 5
27 20 31 39 3 16 13 32 21 35 8 3 14 12 14 20 0 8 16 45 35 83 54 108 98 272
99 374 0 72 3 84 13 70 10 -13 11 -6 7 39 -3 30 -7 63 -9 72 -2 10 0 18 5 18
4 0 11 20 14 44 5 33 1 63 -18 122 -14 44 -28 97 -32 119 -6 36 -8 38 -14 15
-6 -23 -7 -22 -14 14 -4 21 -5 41 -2 44 3 3 6 -3 6 -13 0 -10 2 -16 5 -14 13
13 -19 200 -45 264 -15 39 -28 78 -27 87 0 10 -7 32 -16 50 -8 18 -30 69 -47
113 -18 44 -39 94 -48 110 -9 17 -19 37 -22 45 -4 8 -15 29 -24 47 -18 36 -20
47 -6 38 15 -9 12 8 -6 33 -9 13 -13 26 -10 29 3 3 -8 30 -24 58 -17 29 -30
62 -30 73 0 12 -5 24 -11 28 -8 5 -8 8 0 13 8 5 3 22 -14 55 -14 27 -24 51
-21 53 3 3 -15 42 -40 87 -41 78 -61 131 -28 76 15 -24 15 -24 9 15 -4 22 -11
44 -16 50 -12 12 -12 28 1 20 17 -10 11 6 -18 54 -70 113 -86 145 -66 137 16
-6 16 -5 3 11 -26 32 -40 63 -29 63 6 0 -8 25 -31 55 -41 55 -51 91 -10 39 27
-34 27 -24 -1 29 -12 23 -23 47 -23 52 -1 6 -3 13 -5 18 -1 4 -3 10 -4 15 -1
4 -20 26 -41 48 -59 61 -130 147 -130 156 0 5 -13 18 -30 29 -16 12 -21 18
-11 15 20 -7 20 -7 0 16 -10 12 -26 28 -34 35 -13 11 -13 12 0 13 11 0 10 4
-5 16 -19 16 -19 16 5 9 l25 -6 -25 20 c-14 11 -21 21 -16 21 5 0 -4 10 -20
22 -44 33 -52 42 -30 34 11 -4 2 9 -20 29 -68 62 -103 98 -102 104 0 3 -1 9
-2 14 -1 4 -3 12 -4 19 0 6 -8 13 -16 15 -13 4 -13 3 0 -7 13 -10 13 -11 0 -7
-8 2 -14 9 -13 15 2 6 -13 23 -32 38 -55 42 -64 69 -50 150 7 38 14 60 15 49
1 -18 3 -17 13 5 6 14 16 30 20 35 5 6 28 43 50 84 23 41 46 73 51 72 5 -1 23
24 42 56 26 46 34 54 40 40 6 -17 7 -17 20 0 13 16 14 15 9 -12 l-6 -30 16 28
c9 15 19 27 23 27 4 0 18 21 31 46 17 31 42 57 78 80 61 39 84 43 78 14 -2
-11 1 -20 7 -20 6 0 5 -7 -3 -17 -13 -15 -12 -15 11 -3 14 7 32 19 42 27 9 8
23 16 32 17 9 1 27 12 40 25 30 28 52 20 35 -12 -9 -18 -5 -16 21 8 27 25 31
26 21 8 -13 -26 0 -31 19 -8 16 19 34 20 27 1 -5 -11 1 -12 36 -1 71 22 171
57 192 68 19 10 19 9 5 -8 -12 -15 -12 -17 -1 -10 18 11 73 17 67 7 -10 -16
53 -6 73 12 17 15 26 17 44 9 28 -14 142 -33 193 -33 65 0 116 -12 110 -25 -3
-8 4 -10 19 -7 32 6 37 -17 37 -157 0 -102 1 -112 12 -86 l13 30 6 -40 c4 -22
7 -57 7 -78 0 -23 4 -36 10 -32 6 4 10 -14 11 -47 1 -43 3 -48 8 -23 6 26 9
21 15 -35 11 -88 24 -120 26 -60 0 29 3 40 9 32 4 -8 12 -13 17 -11 5 1 23
-22 41 -52 17 -30 36 -59 41 -65 6 -6 17 -25 26 -43 9 -17 21 -29 26 -26 6 4
13 0 16 -8 3 -8 14 -17 24 -20 18 -5 18 3 -5 68 -4 11 2 6 13 -11 21 -33 81
-84 99 -84 5 0 24 -21 42 -46 18 -25 35 -44 38 -40 3 3 30 -16 60 -41 30 -26
53 -42 52 -37 -6 32 3 35 35 10 38 -28 52 -33 39 -13 -4 6 15 -7 42 -30 34
-29 53 -39 61 -32 8 7 27 -7 63 -48 28 -32 48 -49 44 -38 -6 19 65 -39 110
-90 18 -20 18 -20 11 5 -3 14 -10 29 -15 35 -5 5 -9 13 -9 17 0 13 21 5 48
-19 34 -31 57 -31 41 -1 -9 17 -3 14 30 -13 24 -19 52 -41 63 -49 20 -14 21
-13 9 8 -11 20 -8 20 43 -8 57 -32 71 -36 61 -20 -16 26 18 5 59 -36 25 -25
46 -42 46 -38 0 4 11 -3 26 -17 22 -21 24 -21 18 -4 -12 37 76 -70 97 -117 12
-27 27 -48 34 -48 7 0 16 -15 20 -32 8 -32 9 -32 15 17 l6 50 13 -60 c7 -33
15 -73 16 -90 2 -16 3 -37 4 -45 1 -12 5 -11 16 4 15 19 15 19 15 -2 0 -13 5
-20 13 -16 9 3 17 -12 27 -48 7 -29 24 -71 38 -93 38 -62 172 -246 209 -287
18 -21 35 -50 39 -65 13 -53 74 -140 128 -182 81 -63 169 -216 179 -311 3 -30
15 -77 27 -105 15 -35 20 -61 16 -85 -24 -144 -14 -194 49 -231 31 -19 35 -25
35 -62 -1 -23 -7 -60 -15 -82 -8 -21 -12 -41 -10 -44 3 -2 25 16 49 40 56 57
82 135 71 218 -3 31 -6 67 -4 81 5 71 2 161 -7 213 -6 31 -8 57 -4 57 15 0 28
-26 35 -68 4 -23 26 -82 50 -131 39 -81 42 -91 28 -103 -27 -22 -43 -75 -44
-141 -1 -76 19 -124 57 -133 24 -6 26 -10 20 -48 -4 -22 -18 -61 -32 -85 -13
-24 -22 -46 -20 -49 3 -2 26 6 51 18 87 42 143 158 131 271 -4 45 -1 67 14
101 26 56 25 104 -2 164 -18 40 -22 65 -20 139 2 89 2 90 -33 134 -38 47 -41
56 -24 67 6 3 35 -18 65 -47 45 -44 54 -59 54 -89 0 -19 16 -71 35 -115 19
-44 35 -84 35 -90 0 -5 -11 -32 -25 -59 -30 -58 -34 -159 -10 -206 18 -35 52
-60 82 -60 15 0 23 -6 24 -17 3 -50 -4 -92 -22 -129 -26 -55 -25 -57 20 -35
72 37 117 107 127 198 6 50 12 62 41 86 18 16 43 47 54 68 27 55 35 152 16
207 -13 37 -13 47 -1 71 25 51 29 115 8 147 -16 24 -19 45 -17 141 3 108 2
113 -24 144 -15 17 -55 44 -89 60 -80 35 -236 178 -279 253 -16 30 -58 88 -93
131 -73 89 -88 121 -113 228 -11 51 -31 101 -55 140 -25 41 -45 92 -60 155
-13 51 -32 108 -43 126 -12 18 -21 44 -21 56 0 14 -17 39 -44 64 -25 24 -42
48 -41 58 2 11 -8 25 -26 35 -16 10 -29 23 -29 29 0 7 -21 20 -46 30 -37 14
-43 19 -28 25 15 5 11 9 -22 19 -23 7 -59 28 -80 47 -39 34 -39 34 -9 24 l30
-11 -25 18 c-32 23 -160 148 -160 157 0 3 10 4 23 0 22 -6 22 -6 2 9 -11 8
-25 20 -31 25 -6 5 -30 19 -52 30 -23 12 -47 31 -53 44 -6 12 -21 30 -33 39
-16 14 -18 18 -5 18 26 0 18 30 -13 46 -16 8 -27 18 -24 22 2 4 -13 25 -35 47
-21 21 -39 43 -39 49 0 5 -11 22 -25 36 -13 14 -26 37 -28 50 -2 15 -21 38
-44 56 -21 16 -38 35 -35 42 2 7 -1 12 -6 12 -6 0 -13 13 -17 29 -9 42 -73 92
-133 106 -18 4 -45 13 -60 21 -15 8 -32 14 -39 14 -7 0 -24 11 -39 25 -15 14
-33 25 -40 25 -7 0 -17 6 -21 14 -4 7 -25 21 -45 31 -32 14 -36 20 -28 35 6
10 10 28 10 39 0 12 5 21 10 21 6 0 10 -9 10 -21 0 -21 0 -21 20 2 10 13 19
20 20 16 0 -4 10 2 22 13 l23 21 9 -21 c9 -21 11 -20 28 12 12 20 16 24 13 11
-14 -50 8 -17 59 90 29 61 67 135 85 162 29 46 31 44 14 -15 -10 -34 65 64
105 136 31 57 41 70 37 47 -4 -18 -3 -33 2 -33 9 0 93 161 93 180 0 6 10 34
22 62 17 40 23 47 28 32 5 -14 11 -6 24 34 10 28 19 52 20 52 2 0 1 -24 -1
-52 -5 -69 9 -47 32 50 21 87 29 90 15 6 -16 -98 -10 -104 15 -14 13 47 35
119 49 160 22 69 24 71 19 28 -3 -27 -3 -48 0 -48 2 0 15 41 28 92 15 61 24
86 29 74 4 -13 13 3 29 55 15 50 30 80 46 92 22 15 25 16 25 2 0 -28 39 6 71
64 17 29 33 50 36 47 3 -3 12 2 20 12 12 15 13 14 7 -13 -5 -28 -2 -27 48 27
29 31 73 70 97 87 44 31 68 40 56 21 -9 -15 19 -12 41 5 10 8 28 14 39 14 11
0 14 -3 8 -6 -37 -14 15 -27 110 -25 20 0 37 -4 37 -9 0 -10 62 0 70 11 9 13
50 22 50 11 0 -6 22 0 50 14 52 26 86 33 74 14 -8 -14 20 -5 89 27 50 23 50
23 87 4 37 -19 38 -19 55 0 25 28 79 54 83 40 2 -5 8 -8 13 -4 25 15 67 -8 90
-51 18 -34 26 -41 32 -30 9 16 47 21 47 6 0 -5 9 -12 19 -16 12 -4 18 -12 14
-21 -3 -7 0 -14 6 -14 6 0 11 -7 11 -16 0 -11 6 -15 20 -11 13 3 20 0 20 -9 0
-8 5 -14 10 -14 6 0 10 -7 10 -15 0 -16 108 -91 126 -87 5 1 16 -13 24 -32 18
-48 46 -58 109 -39 45 13 56 21 84 66 18 29 45 90 60 137 22 68 35 91 65 117
l37 32 -37 70 c-30 58 -34 72 -23 81 15 12 75 103 75 112 0 18 -36 14 -69 -7
-42 -28 -71 -25 -71 9 0 11 -7 44 -16 71 -10 33 -16 88 -16 161 -1 104 1 115
36 200 53 130 89 147 102 47 5 -40 2 -71 -10 -108 -18 -59 -21 -105 -6 -105
35 0 111 71 164 153 22 32 42 35 51 6 6 -19 4 -46 -11 -121 -8 -38 15 -37 60
2 25 22 35 27 39 16 7 -18 52 -26 92 -15 22 6 40 21 54 44 l20 34 44 -19 c35
-16 50 -18 80 -9 47 13 63 37 82 127 8 39 21 87 28 104 8 18 20 57 26 86 7 28
17 54 21 57 12 7 -3 55 -36 116 -18 31 -50 68 -84 94 -58 45 -139 128 -204
207 -31 38 -41 64 -57 135 -13 61 -28 100 -49 128 -16 22 -53 78 -81 125 -29
47 -98 146 -153 221 -56 75 -117 158 -136 185 -45 63 -96 97 -194 129 -44 14
-102 38 -130 52 -78 39 -187 82 -179 70 4 -7 0 -8 -13 -3 -10 4 -79 23 -152
42 -94 24 -150 44 -190 69 -94 57 -153 64 -186 20 -9 -12 -23 -11 -95 11 -55
17 -86 23 -93 16 -6 -6 -22 -7 -41 -1 -46 13 -80 10 -37 -4z m107 -3 c-3 -3
-12 -4 -19 -1 -8 3 -5 6 6 6 11 1 17 -2 13 -5z m-2010 -450 c-3 -3 -12 -4 -19
-1 -8 3 -5 6 6 6 11 1 17 -2 13 -5z m-2092 -1400 c48 -1 105 -23 105 -41 0 -7
-6 -13 -14 -13 -22 0 -66 -40 -66 -60 0 -14 -13 -23 -47 -34 -36 -11 -42 -15
-23 -16 18 -1 10 -7 -30 -20 -30 -10 -50 -18 -45 -19 6 -1 -4 -10 -22 -21 -18
-10 -39 -30 -49 -44 -9 -14 -20 -23 -26 -20 -11 7 -1 64 14 79 7 7 9 3 5 -13
-3 -12 -1 -20 4 -16 5 3 9 11 9 19 0 7 6 15 14 18 7 3 18 23 23 44 5 21 15 37
21 36 11 -3 14 6 26 58 7 32 46 84 55 72 3 -4 24 -8 46 -9z m4005 -844 c0 -5
-10 -10 -22 -10 -19 0 -20 2 -8 10 19 13 30 13 30 0z m486 -4697 c-11 -11 -19
6 -11 24 8 17 8 17 12 0 3 -10 2 -21 -1 -24z m-5336 -268 c19 -19 41 -35 50
-35 9 0 34 -18 55 -40 21 -22 44 -39 50 -38 5 1 23 -6 38 -16 21 -14 25 -21
15 -27 -9 -6 -6 -11 12 -19 19 -8 2 -9 -70 -4 -131 10 -187 10 -246 0 l-51 -8
7 48 c5 27 13 62 20 79 15 40 58 95 74 95 6 0 27 -16 46 -35z"/>
<path d="M2560 8488 c-12 -22 -12 -22 6 -6 10 10 15 20 12 24 -4 3 -12 -5 -18
-18z"/>
</g>
</svg>
