<?xml version="1.0" standalone="no"?>
<!DOCTYPE svg PUBLIC "-//W3C//DTD SVG 20010904//EN"
 "http://www.w3.org/TR/2001/REC-SVG-20010904/DTD/svg10.dtd">
<svg version="1.0" xmlns="http://www.w3.org/2000/svg"
 width="1280.000000pt" height="706.000000pt" viewBox="0 0 1280.000000 706.000000"
 preserveAspectRatio="xMidYMid meet">
<metadata>
Created by potrace 1.15, written by Peter Selinger 2001-2017
</metadata>
<g transform="translate(0.000000,706.000000) scale(0.100000,-0.100000)"
fill="#000000" stroke="none">
<path d="M10390 6431 l0 -620 83 -54 c45 -29 112 -71 149 -93 l68 -39 0 -46 0
-46 -542 167 c-299 92 -630 193 -735 225 l-193 59 0 62 0 63 55 31 55 31 0
280 0 280 -67 -3 -66 -3 2 -82 2 -83 -45 0 -46 0 0 85 0 85 -70 0 -70 0 0 -85
0 -85 -60 0 -60 0 0 89 0 89 -67 -1 -68 -2 -3 -87 -3 -88 -49 0 -50 0 0 85 0
85 -65 0 -65 0 0 -91 c0 -79 -2 -90 -16 -85 -9 3 -29 6 -44 6 l-29 0 -3 88 -3
87 -62 2 -63 2 0 -280 0 -279 40 -26 c31 -21 40 -33 40 -55 l0 -29 -75 0 -75
0 0 -90 0 -90 -70 0 -70 0 0 90 0 90 -75 0 -75 0 0 -90 0 -90 -60 0 -60 0 0
90 0 90 -75 0 -75 0 0 -90 0 -90 -60 0 -60 0 0 90 0 90 -80 0 -80 0 0 -90 0
-90 -70 0 -70 0 0 90 0 90 -75 0 -75 0 0 -90 0 -90 -70 0 -70 0 0 90 0 90 -75
0 -75 0 0 -90 0 -90 -60 0 -60 0 0 90 0 90 -75 0 -75 0 0 -90 0 -90 -60 0 -59
0 -3 88 -3 87 -77 3 -78 3 0 -91 0 -90 -60 0 -60 0 0 90 0 90 -75 0 -75 0 0
-90 0 -90 -65 0 -65 0 0 90 0 90 -80 0 -80 0 0 -90 0 -90 -60 0 -60 0 0 90 0
91 -77 -3 -76 -3 2 -87 2 -88 -60 0 -60 0 -3 88 -3 87 -77 3 -78 3 0 -91 0
-90 -60 0 -60 0 0 90 0 90 -80 0 -80 0 0 -90 0 -90 -60 0 -60 0 0 90 0 91 -77
-3 -78 -3 -3 -87 -3 -88 -60 0 -60 0 2 88 2 87 -66 3 c-85 4 -87 18 -9 69 l57
38 3 278 2 277 -70 0 -70 0 0 -85 0 -85 -45 0 -45 0 0 85 0 85 -70 0 -70 0 0
-85 0 -85 -55 0 -55 0 0 85 0 85 -70 0 -70 0 0 -85 0 -85 -50 0 -49 0 -3 83
-3 82 -67 3 -68 3 0 -91 0 -90 -45 0 -45 0 0 90 0 90 -65 0 -65 0 0 -275 0
-274 45 -31 46 -32 -3 -66 -3 -67 -630 -222 c-346 -123 -638 -225 -647 -228
-15 -5 -18 0 -18 32 l0 38 137 86 138 85 3 622 2 622 -155 0 -155 0 0 -190 0
-190 -95 0 -95 0 0 190 0 190 -155 0 -155 0 0 -190 0 -190 -130 0 -130 0 0
195 0 195 -155 0 -155 0 0 -195 0 -195 -115 0 -115 0 0 190 0 190 -150 0 -150
0 0 -190 0 -190 -100 0 -100 0 0 195 0 195 -145 0 -145 0 0 -623 0 -622 148
-93 149 -92 6 -1128 c4 -620 10 -1794 14 -2610 l6 -1483 61 -61 c147 -147 362
-250 611 -293 120 -21 356 -24 465 -6 83 14 224 48 255 61 92 41 139 60 150
60 8 0 15 4 17 8 2 4 37 31 78 60 41 28 94 69 118 91 l42 39 0 96 0 96 144 0
145 0 4 -27 4 -28 2 28 1 27 180 0 180 0 0 -30 c0 -16 5 -30 10 -30 6 0 10 14
10 30 l0 30 180 0 180 0 0 -31 c0 -17 4 -28 10 -24 5 3 10 17 10 31 l0 24 184
0 185 0 4 -32 4 -33 1 33 2 32 220 0 220 0 0 -31 c0 -17 4 -28 10 -24 6 3 10
17 10 31 l0 24 235 0 235 0 0 -30 c0 -16 5 -30 10 -30 6 0 10 14 10 30 l0 30
254 0 255 0 4 -27 4 -28 2 28 1 27 160 0 160 0 0 -30 c0 -29 2 -30 43 -30 23
0 72 3 110 7 l67 6 0 808 0 808 48 58 c155 185 357 321 547 368 98 24 257 22
360 -4 164 -42 369 -169 489 -302 l46 -51 0 -819 c0 -721 2 -819 15 -819 8 0
15 -9 15 -20 0 -19 7 -20 115 -20 108 0 115 1 115 20 0 19 7 20 239 20 l238 0
-5 -25 c-2 -15 0 -25 7 -25 6 0 11 11 11 25 l0 25 255 0 255 0 0 -30 c0 -16 5
-30 10 -30 6 0 10 14 10 30 l0 30 235 0 235 0 0 -30 c0 -16 5 -30 10 -30 6 0
10 14 10 30 l0 30 221 0 221 0 -4 -25 c-3 -14 -1 -28 3 -31 5 -3 9 9 9 25 l0
31 185 0 185 0 0 -30 c0 -16 5 -30 10 -30 6 0 10 14 10 30 l0 30 180 0 180 0
0 -30 c0 -16 5 -30 10 -30 6 0 10 14 10 30 l0 30 175 0 175 0 0 -25 c0 -14 5
-25 10 -25 6 0 10 11 10 25 l0 25 130 0 130 0 0 75 c0 60 3 75 15 75 13 0 15
-23 15 -143 l0 -144 51 -49 c77 -73 80 -76 140 -116 147 -96 323 -161 509
-188 203 -30 547 1 685 60 11 5 50 22 88 39 37 16 67 27 67 23 0 -4 4 -2 8 3
4 6 39 32 77 57 39 26 94 68 122 93 l53 47 2 2635 3 2636 138 86 137 85 0 617
0 618 -102 3 c-57 2 -127 2 -155 0 l-53 -3 0 -190 0 -189 -95 0 -95 0 0 190 0
190 -160 0 -160 0 0 -190 0 -190 -130 0 -130 0 0 195 0 195 -155 0 -155 0 0
-195 0 -195 -115 0 -115 0 0 190 0 190 -150 0 -150 0 0 -190 0 -190 -100 0
-100 0 0 195 0 195 -145 0 -145 0 0 -619z m-9300 492 c0 -82 -1 -84 -22 -81
-21 3 -23 9 -26 77 -4 89 0 101 27 94 19 -5 21 -13 21 -90z m150 7 l0 -90 -65
0 -65 0 0 88 0 87 65 3 65 3 0 -91z m66 80 c11 0 14 -18 14 -85 l0 -85 -30 0
-30 0 0 91 c0 79 2 90 16 85 9 -3 22 -6 30 -6z m-656 -88 l0 -78 -42 5 c-29 4
-35 6 -18 9 24 3 25 5 22 67 l-4 64 -36 4 c-27 3 -21 4 21 5 l57 2 0 -78z
m130 -2 l0 -80 -55 0 -55 0 0 80 0 80 55 0 55 0 0 -80z m860 0 c0 -47 -4 -80
-10 -80 -6 0 -10 33 -10 80 0 47 4 80 10 80 6 0 10 -33 10 -80z m125 0 l0 -80
-52 0 -53 0 0 80 0 80 53 0 52 0 0 -80z m83 73 c-27 -4 -28 -6 -28 -73 0 -67
1 -69 28 -73 19 -3 14 -4 -15 -6 l-43 -1 0 80 0 80 43 -1 c29 -2 34 -3 15 -6z
m39 -115 c-2 -24 -4 -5 -4 42 0 47 2 66 4 43 2 -24 2 -62 0 -85z m-1309 -150
l-2 -93 -3 87 c-3 72 -7 87 -21 91 -12 3 -11 5 6 6 21 1 22 -1 20 -91z m142 2
l0 -90 -55 0 -55 0 0 90 0 90 55 0 55 0 0 -90z m60 0 c0 -79 -2 -90 -17 -90
-16 0 -18 11 -18 90 0 79 2 90 18 90 15 0 17 -11 17 -90z m390 5 c0 -50 4 -85
10 -85 6 0 10 35 10 85 l0 85 65 0 65 0 0 -90 0 -90 -140 0 -140 0 0 90 0 90
65 0 65 0 0 -85z m530 -5 l0 -90 -40 0 -40 0 0 90 0 90 40 0 40 0 0 -90z m130
-2 l0 -88 -55 0 -55 0 0 91 0 90 55 -2 55 -2 0 -89z m37 -45 c-2 -27 -3 -5 -3
47 0 52 1 74 3 48 2 -27 2 -69 0 -95z m20 -6 c-2 -23 -3 -1 -3 48 0 50 1 68 3
42 2 -26 2 -67 0 -90z m-1350 -164 c-2 -21 -4 -4 -4 37 0 41 2 58 4 38 2 -21
2 -55 0 -75z m133 37 l0 -70 -62 2 c-37 1 -48 3 -28 5 l35 4 -3 59 c-4 58 -4
59 -35 63 -18 2 -4 5 31 5 l62 2 0 -70z m210 1 c0 -39 -4 -72 -9 -75 -4 -3
-45 -3 -90 1 l-81 6 0 68 0 69 90 0 90 0 0 -69z m200 -6 l0 -75 -90 0 -90 0 0
75 0 75 90 0 90 0 0 -75z m210 0 l0 -75 -95 0 -95 0 0 75 0 75 95 0 95 0 0
-75z m178 3 l-3 -73 -80 -3 -80 -3 3 76 4 75 79 0 80 0 -3 -72z m170 0 l-3
-73 -72 -3 -73 -4 0 76 0 76 75 0 76 0 -3 -72z m152 3 l0 -69 -65 -4 -65 -3 0
73 0 72 65 0 65 0 0 -69z m68 62 c-25 -4 -27 -8 -30 -63 -3 -59 -3 -59 27 -63
27 -3 26 -4 -7 -5 l-38 -2 0 70 0 70 38 -1 c28 -2 31 -3 10 -6z m-678 -233 l0
-80 -90 0 -90 0 0 75 0 74 88 4 c48 1 88 4 90 5 1 1 2 -34 2 -78z m200 -6 l0
-74 -90 0 -90 0 0 73 c0 41 2 76 4 78 2 2 43 3 90 1 l86 -3 0 -75z m-802 69
c-10 -2 -28 -2 -40 0 -13 2 -5 4 17 4 22 1 32 -1 23 -4z m202 -69 l0 -77 -61
7 c-34 3 -73 6 -85 6 -23 0 -24 3 -24 70 l0 70 85 0 85 0 0 -76z m200 1 l0
-75 -90 0 -90 0 0 75 0 75 90 0 90 0 0 -75z m560 0 l0 -75 -70 0 -70 0 0 75 0
75 70 0 70 0 0 -75z m170 0 l0 -75 -75 0 -75 0 0 75 0 75 75 0 75 0 0 -75z
m140 6 l0 -69 -60 -4 -60 -3 0 73 0 72 60 0 60 0 0 -69z m-1273 -28 c-2 -16
-4 -3 -4 27 0 30 2 43 4 28 2 -16 2 -40 0 -55z m103 -143 l0 -70 -72 2 c-58 1
-65 2 -33 7 l40 6 0 55 0 55 -40 6 c-32 5 -25 6 33 7 l72 2 0 -70z m200 0 l0
-70 -90 0 -90 0 0 70 0 70 90 0 90 0 0 -70z m210 0 l0 -70 -95 0 -95 0 0 70 0
70 95 0 95 0 0 -70z m200 0 l0 -70 -90 0 -90 0 0 70 0 70 90 0 90 0 0 -70z
m180 0 l0 -70 -80 0 -80 0 0 70 0 70 80 0 80 0 0 -70z m170 0 l0 -70 -75 0
-75 0 0 70 0 70 75 0 75 0 0 -70z m150 0 l0 -70 -65 0 -65 0 0 70 0 70 65 0
65 0 0 -70z m68 63 c-27 -4 -28 -7 -28 -63 l0 -59 33 -4 c31 -4 31 -4 -5 -5
l-38 -2 0 70 0 70 33 -1 c30 -2 30 -2 5 -6z m-1088 -228 l0 -75 -80 0 -80 0 0
70 0 69 58 4 c31 2 67 4 80 5 21 2 22 -1 22 -73z m208 -2 l3 -73 -96 0 -95 0
0 68 c0 38 3 72 7 76 4 4 46 5 93 4 l85 -3 3 -72z m202 -4 c0 -79 -1 -81 -22
-75 -13 3 -54 6 -93 6 l-70 0 2 72 c1 40 2 74 3 76 0 1 41 2 90 2 l90 0 0 -81z
m198 6 l-3 -76 -87 -4 -88 -4 0 79 0 80 90 0 91 0 -3 -75z m162 0 l0 -75 -70
0 -70 0 0 75 0 75 70 0 70 0 0 -75z m160 -2 l0 -73 -70 0 -70 0 0 76 0 75 70
-2 70 -2 0 -74z m145 -4 l0 -69 -57 0 -58 0 0 73 0 72 57 -3 58 -4 0 -69z
m-1265 1 c0 -66 -1 -70 -22 -69 -17 1 -19 2 -5 6 14 4 17 16 17 69 0 35 2 64
5 64 3 0 5 -31 5 -70z m1297 -37 c-2 -21 -4 -4 -4 37 0 41 2 58 4 38 2 -21 2
-55 0 -75z m-999 -137 l3 -79 -47 7 c-26 3 -66 6 -90 6 l-44 0 0 73 0 72 88 0
87 0 3 -79z m202 -1 c0 -97 10 -90 -112 -78 l-68 6 0 78 0 79 90 0 90 0 0 -85z
m210 6 l0 -78 -46 -7 c-26 -3 -69 -6 -95 -6 l-49 0 0 85 0 85 95 0 95 0 0 -79z
m178 3 l3 -71 -32 -7 c-17 -3 -53 -6 -80 -6 l-49 0 0 80 0 81 78 -3 77 -3 3
-71z m170 5 l3 -66 -38 -7 c-21 -3 -55 -6 -75 -6 l-38 0 0 75 0 76 73 -3 72
-3 3 -66z m152 2 l0 -58 -46 -7 c-87 -12 -84 -14 -84 62 l0 67 65 -3 65 -4 0
-57z m-1253 -33 c-2 -18 -4 -4 -4 32 0 36 2 50 4 33 2 -18 2 -48 0 -65z m133
27 l0 -65 -47 1 c-30 1 -40 3 -28 7 16 6 20 16 20 57 0 49 0 50 -35 56 -28 5
-22 6 28 8 l62 1 0 -65z m1183 58 c-20 -4 -23 -11 -23 -53 0 -29 5 -50 13 -53
6 -3 2 -6 -10 -6 -21 -1 -23 3 -23 59 l0 60 33 -1 c23 -1 26 -3 10 -6z m10
-140 c-29 -4 -33 -8 -33 -34 0 -26 3 -29 32 -29 40 0 34 -6 -14 -13 l-38 -6 0
39 c0 41 9 49 55 48 l30 -1 -32 -4z m-1239 -9 c44 -6 46 -8 46 -40 0 -38 -9
-40 -85 -25 -38 8 -38 9 -9 10 39 1 55 36 20 45 -44 12 -55 7 -59 -26 -4 -32
-4 -32 -5 5 -2 42 2 43 92 31z m1016 -38 c0 -52 -7 -56 -91 -56 l-59 0 0 45 0
44 63 4 c34 2 68 4 75 5 8 1 12 -12 12 -42z m150 5 c0 -35 -3 -39 -31 -45 -17
-3 -47 -6 -65 -6 -34 0 -34 1 -34 45 l0 45 65 0 65 0 0 -39z m-977 22 l67 -6
0 -40 0 -40 -37 7 c-21 3 -62 6 -90 6 l-53 0 0 40 c0 45 -3 44 113 33z m655
-40 l-3 -48 -77 -3 -78 -3 0 45 0 45 58 4 c31 2 67 4 80 5 22 2 23 -1 20 -45z
m-449 31 l61 -7 0 -40 0 -40 -67 6 c-38 4 -78 7 -90 7 -20 0 -23 5 -23 40 0
45 1 46 119 34z m271 -39 l0 -45 -95 0 -95 0 0 39 0 40 48 4 c26 2 68 4 95 5
l47 2 0 -45z m10800 -228 c-23 -11 -25 -18 -25 -73 0 -56 2 -61 20 -57 11 2 5
-3 -14 -11 -18 -9 -37 -16 -42 -16 -5 0 -9 36 -9 79 0 87 -2 85 75 89 17 1 16
-1 -5 -11z m-10363 -13 c-3 -3 -12 -4 -19 -1 -8 3 -5 6 6 6 11 1 17 -2 13 -5z
m9481 -9 c2 -2 2 -32 0 -68 l-3 -66 -40 19 c-22 10 -35 19 -30 19 6 1 10 20
10 43 0 36 -4 45 -25 55 -22 10 -17 11 30 6 30 -3 56 -7 58 -8z m782 -69 l0
-83 -75 -15 -75 -15 0 88 0 88 38 6 c20 4 44 8 52 10 59 12 60 11 60 -79z
m-10310 4 l-5 -69 25 6 c35 8 23 -1 -27 -20 l-43 -17 0 85 0 85 28 0 27 0 -5
-70z m-862 45 c13 -5 18 -135 5 -134 -5 0 -30 11 -58 25 -27 13 -40 21 -28 18
20 -4 22 -1 25 38 3 40 1 44 -27 55 -28 12 -27 12 20 7 28 -3 56 -7 63 -9z
m790 -67 l-3 -83 -70 -16 -70 -16 -3 85 c-2 46 -1 87 2 89 5 5 90 20 124 22
22 1 23 -1 20 -81z m9763 72 l39 0 0 -85 c0 -47 -3 -85 -7 -85 -5 0 -24 4 -43
9 -19 6 -54 15 -77 21 l-43 11 0 71 0 71 46 -7 c26 -3 64 -6 85 -6z m449 -79
l0 -89 -27 -6 c-16 -3 -55 -6 -88 -8 l-60 -2 -5 90 -4 89 -6 -90 -5 -90 -80 3
c-122 5 -116 0 -113 93 l3 80 169 4 c93 3 171 7 174 10 3 3 14 5 24 5 16 0 18
-9 18 -89z m-10834 59 l44 0 0 -85 c0 -47 -3 -85 -7 -85 -10 1 -87 18 -135 31
l-38 10 0 71 0 71 46 -7 c26 -3 66 -6 90 -6z m454 -80 c0 -103 9 -95 -112
-104 l-68 -5 0 89 c0 53 -4 90 -10 90 -6 0 -10 -37 -10 -91 l0 -90 -82 6 c-46
4 -89 8 -95 10 -9 3 -13 30 -13 87 l0 83 171 0 c94 0 173 3 176 8 2 4 13 7 24
7 17 0 19 -8 19 -90z m9788 -49 l72 -22 0 -84 c0 -69 3 -85 15 -85 12 0 15 16
15 80 0 44 4 80 10 80 5 0 43 -5 85 -11 l75 -11 0 -79 c0 -43 5 -81 10 -84 6
-4 10 25 10 79 l0 86 105 0 105 0 0 -90 0 -89 -62 -3 c-153 -7 -372 27 -490
77 l-38 15 0 86 c0 47 3 83 8 81 4 -3 40 -15 80 -26z m892 25 c0 -2 -7 -7 -16
-10 -8 -3 -12 -2 -9 4 6 10 25 14 25 6z m-11393 -139 c-2 -23 -3 -1 -3 48 0
50 1 68 3 42 2 -26 2 -67 0 -90z m10380 41 c-2 -18 -4 -4 -4 32 0 36 2 50 4
33 2 -18 2 -48 0 -65z m-10226 42 l39 -11 0 -84 c0 -50 4 -85 10 -85 6 0 10
34 10 81 l0 81 48 -6 c26 -4 66 -9 90 -13 l42 -5 0 -84 c0 -49 4 -84 10 -84 6
0 10 35 10 84 l0 83 105 1 105 1 0 -90 0 -89 -52 -2 c-190 -6 -339 16 -493 73
l-50 19 3 84 3 85 40 -14 c22 -8 58 -19 80 -25z m839 -52 l-5 -93 -3 79 c-3
70 1 106 10 106 2 0 1 -42 -2 -92z m10350 8 c0 -79 -1 -84 -22 -90 -13 -3 -44
-12 -70 -20 l-48 -15 0 88 0 89 58 15 c87 23 82 27 82 -67z m27 -18 c-2 -18
-4 -4 -4 32 0 36 2 50 4 33 2 -18 2 -48 0 -65z m-10417 -2 l0 -84 -52 -17
c-29 -9 -59 -18 -65 -20 -10 -3 -13 18 -13 84 l0 89 58 15 c31 8 60 15 65 16
4 1 7 -37 7 -83z m10228 -23 l-3 -87 -40 -7 c-22 -3 -57 -9 -77 -12 l-38 -6 0
89 0 89 48 6 c26 4 52 8 57 10 6 2 20 4 33 4 22 1 23 -1 20 -86z m-10388 -13
c0 -44 1 -83 3 -87 2 -6 -111 -30 -150 -32 -10 -1 -13 23 -13 88 l0 89 63 10
c106 16 97 22 97 -68z m10600 -4 c0 -2 -7 -6 -15 -10 -8 -3 -15 -1 -15 4 0 6
7 10 15 10 8 0 15 -2 15 -4z m-941 -47 l41 -12 0 -83 0 -83 -40 14 c-48 17
-89 40 -55 31 19 -5 20 -1 20 62 0 56 -3 69 -20 80 -13 9 -15 12 -4 8 10 -2
35 -10 58 -17z m-10341 -119 c3 -81 3 -82 -20 -75 -31 10 -99 47 -73 40 19 -5
20 -1 17 65 -2 39 -7 70 -11 70 -4 0 -16 7 -27 14 -11 9 8 5 46 -8 l65 -24 3
-82z m11244 111 c-17 -10 -23 -151 -7 -151 16 0 -18 -20 -35 -20 -12 0 -15 15
-13 82 1 78 3 83 25 89 34 10 45 10 30 0z m-10384 -22 c-14 -8 -18 -24 -18
-79 0 -45 4 -70 12 -72 7 -3 -2 -10 -20 -16 l-33 -11 3 86 c3 83 4 87 28 94
37 10 47 10 28 -2z m9665 -19 l57 -11 0 -86 0 -85 -32 7 c-18 3 -57 13 -85 21
l-53 15 0 84 0 84 28 -9 c15 -5 53 -14 85 -20z m637 -58 l0 -89 -57 -12 c-32
-7 -66 -15 -75 -17 -16 -5 -18 4 -18 85 0 88 1 91 23 91 16 0 95 18 125 29 1
1 2 -39 2 -87z m-11027 38 l67 -12 0 -84 c0 -46 -4 -84 -9 -84 -13 0 -136 29
-155 36 -13 5 -16 23 -16 90 0 82 0 83 23 75 12 -4 52 -14 90 -21z m647 -58
l0 -89 -57 -12 c-32 -7 -66 -15 -75 -17 -16 -5 -18 4 -18 85 0 88 1 91 23 91
16 0 95 18 125 29 1 1 2 -39 2 -87z m9938 58 l72 0 0 -91 0 -91 -87 7 c-49 4
-91 9 -95 12 -5 2 -8 43 -8 90 0 84 0 85 23 79 12 -3 55 -6 95 -6z m272 -75
c0 -97 9 -89 -112 -100 l-68 -7 0 91 0 90 63 4 c34 2 74 4 90 5 l27 2 0 -85z
m-10659 55 l79 0 0 -91 0 -92 -67 6 c-38 4 -80 7 -95 7 l-28 0 0 91 c0 79 2
90 16 85 9 -3 51 -6 95 -6z m279 -74 c0 -97 7 -91 -107 -101 l-73 -7 0 91 0
90 63 4 c34 2 74 4 90 5 l27 2 0 -84z m9670 -86 c0 -44 -3 -80 -7 -80 -5 0 -7
36 -5 80 2 44 5 80 8 80 2 0 4 -36 4 -80z m151 30 l39 -11 0 -85 0 -86 -25 6
c-14 4 -50 16 -80 27 l-55 20 0 84 0 84 41 -14 c22 -8 58 -19 80 -25z m-10531
-56 c0 -47 -3 -83 -7 -81 -8 5 -5 167 3 167 2 0 4 -39 4 -86z m118 45 l72 -22
0 -84 c0 -49 4 -83 10 -83 6 0 10 34 10 81 l0 82 38 -7 c20 -3 61 -9 90 -12
l52 -7 0 -83 c0 -49 4 -84 10 -84 6 0 10 34 10 83 l0 82 100 0 100 0 0 -87 0
-88 -107 0 c-160 0 -294 23 -425 71 l-58 21 0 85 c0 64 3 83 13 79 6 -2 45
-15 85 -27z m11220 -51 l-3 -82 -60 -18 c-33 -10 -63 -18 -67 -18 -5 0 -8 38
-8 84 l0 84 58 14 c89 23 83 28 80 -64z m-10351 -35 c-2 -21 -4 -4 -4 37 0 41
2 58 4 38 2 -21 2 -55 0 -75z m10380 15 c-2 -18 -4 -4 -4 32 0 36 2 50 4 33 2
-18 2 -48 0 -65z m-10417 -1 l0 -84 -60 -16 c-33 -10 -63 -17 -67 -17 -5 0 -7
37 -6 82 l1 83 59 16 c32 9 61 17 66 18 4 0 7 -37 7 -82z m9768 47 l52 -7 0
-83 c0 -49 4 -84 10 -84 6 0 10 34 10 83 l0 83 105 1 106 1 -3 -87 -3 -86
-130 0 c-71 0 -164 6 -205 13 l-75 14 3 85 4 85 36 -5 c20 -3 61 -9 90 -13z
m462 -68 l0 -83 -57 -12 c-106 -21 -103 -23 -103 73 l0 84 63 10 c106 16 97
23 97 -72z m-10390 -20 c0 -96 4 -92 -95 -102 l-65 -7 0 85 0 86 68 9 c37 6
73 11 80 12 9 1 12 -22 12 -83z m9648 -42 l52 -18 0 -83 0 -83 -52 21 c-72 28
-90 39 -58 36 24 -2 25 1 30 58 5 58 4 61 -25 78 -16 10 -23 16 -15 13 8 -2
39 -13 68 -22z m-10363 -28 l30 -11 -5 -81 -5 -82 -60 29 c-33 16 -50 26 -38
23 21 -5 22 -1 25 58 2 46 -1 66 -12 76 -13 11 -11 12 10 6 14 -4 39 -12 55
-18z m11268 16 c-6 -4 -13 -39 -15 -79 l-3 -72 25 5 c16 3 13 -1 -10 -10 -19
-8 -38 -15 -42 -15 -5 -1 -8 37 -8 83 0 88 2 91 50 95 10 0 11 -2 3 -7z
m-10398 -27 c-16 -7 -24 -14 -17 -14 10 -1 13 -17 10 -66 -3 -66 -3 -66 22
-60 30 6 8 -9 -27 -19 -23 -7 -23 -6 -23 78 0 72 3 85 18 89 36 10 46 6 17 -8z
m9672 -9 l68 -12 3 -88 c3 -80 1 -87 -15 -83 -10 3 -51 13 -90 22 l-73 17 0
85 c0 79 1 84 20 78 10 -3 50 -12 87 -19z m648 -61 l0 -85 -35 -10 c-19 -6
-52 -13 -72 -16 l-38 -7 0 85 0 85 68 16 c37 8 69 15 72 16 3 1 5 -37 5 -84z
m-10967 -59 c3 -80 1 -87 -15 -83 -10 3 -31 8 -48 12 -16 3 -47 11 -67 16
l-38 10 0 82 0 83 83 -16 82 -17 3 -87z m575 -46 c-10 -9 -95 -30 -122 -30
-20 0 -21 6 -21 83 l0 83 73 15 72 15 3 -80 c2 -43 -1 -82 -5 -86z m9978 140
l49 0 0 -85 0 -85 -72 0 c-121 0 -118 -2 -118 98 l0 85 46 -7 c26 -3 69 -6 95
-6z m249 -74 l0 -83 -46 -7 c-26 -3 -66 -6 -90 -6 l-44 0 0 84 0 85 43 4 c23
2 63 4 90 5 l47 2 0 -84z m-10642 54 l63 0 -3 -87 -3 -88 -70 3 c-131 5 -125
0 -125 99 l0 86 38 -7 c20 -3 65 -6 100 -6z m252 -74 l0 -83 -31 -7 c-17 -3
-58 -6 -90 -6 l-59 0 0 84 0 85 48 4 c26 2 66 4 90 5 l42 2 0 -84z m9675 -6
c3 -6 -1 -7 -9 -4 -18 7 -21 14 -7 14 6 0 13 -4 16 -10z m-10387 -102 c-1 -95
-5 -83 -10 30 -2 34 0 62 5 62 4 0 6 -42 5 -92z m10497 68 l80 -24 3 -86 c4
-112 22 -112 22 0 0 77 2 85 18 80 9 -3 33 -7 52 -10 19 -3 52 -8 73 -11 l37
-6 0 -79 c0 -47 4 -80 10 -80 6 0 10 33 10 80 l0 80 100 0 100 0 0 -84 c0 -78
-1 -84 -22 -90 -77 -20 -339 9 -477 53 l-86 27 -3 87 c-1 48 -1 87 0 87 2 -1
39 -11 83 -24z m845 -70 l0 -85 -55 -15 c-30 -9 -61 -19 -70 -22 -13 -5 -15 7
-15 79 l0 85 53 12 c28 7 59 16 67 21 8 5 16 9 18 9 1 0 2 -38 2 -84z m-11230
51 l75 -24 5 -81 c7 -108 24 -111 28 -6 l3 81 47 -8 c26 -5 64 -11 85 -14 l37
-6 0 -79 c0 -43 5 -82 10 -85 6 -4 10 25 10 79 l0 86 105 0 105 0 0 -84 c0
-78 -1 -84 -22 -90 -72 -19 -317 5 -457 44 -115 33 -111 28 -111 125 0 47 1
85 3 85 1 0 36 -11 77 -23z m850 -76 c0 -73 -2 -79 -22 -85 -13 -3 -44 -12
-70 -20 l-48 -15 0 83 0 83 53 15 c90 27 87 29 87 -61z m10218 -23 l-3 -82
-35 -7 c-19 -4 -54 -10 -77 -14 l-43 -6 0 85 c0 81 1 86 23 91 28 6 74 12 110
14 l28 1 -3 -82z m-1221 -350 c-1 -79 -3 -15 -3 142 0 157 2 221 3 143 2 -79
2 -207 0 -285z m-9159 330 l-3 -82 -35 -7 c-19 -4 -54 -10 -77 -14 l-43 -6 0
85 c0 81 1 86 23 91 28 6 74 12 110 14 l28 1 -3 -82z m9587 12 c3 -5 2 -10 -4
-10 -5 0 -13 5 -16 10 -3 6 -2 10 4 10 5 0 13 -4 16 -10z m46 -55 l44 -15 0
-80 c0 -47 -4 -80 -10 -80 -5 0 -28 9 -50 20 -22 11 -29 17 -15 13 22 -5 23
-4 11 11 -9 11 -12 33 -9 71 4 44 1 58 -11 65 -23 14 -10 12 40 -5z m-10397
-16 l56 -22 0 -78 c0 -44 -2 -79 -5 -79 -12 0 -116 43 -112 46 2 3 15 0 28 -5
24 -9 24 -8 24 58 0 63 -1 67 -30 83 -41 23 -28 22 39 -3z m11306 8 c-22 -18
-16 -144 8 -149 10 -2 1 -8 -21 -15 l-37 -11 0 83 c0 82 1 84 28 93 36 14 40
14 22 -1z m-10387 -25 c-6 -4 -13 -39 -15 -78 -3 -70 -3 -70 22 -67 19 2 17 0
-10 -11 -19 -8 -38 -15 -42 -15 -14 -2 -9 167 5 172 20 9 53 8 40 -1z m9660
-13 l67 -12 0 -84 c0 -96 3 -94 -110 -65 l-65 17 -3 84 c-3 83 -3 83 20 78 13
-3 53 -11 91 -18z m647 -64 c0 -84 0 -85 -27 -91 -16 -3 -44 -10 -63 -15 -61
-15 -60 -16 -60 76 0 94 -9 83 85 104 68 15 65 19 65 -74z m-11032 44 l62 -12
0 -84 c0 -96 3 -94 -108 -65 l-64 17 -1 83 -2 83 25 -5 c14 -3 53 -11 88 -17z
m652 -63 l0 -84 -65 -16 c-35 -9 -69 -16 -75 -16 -6 0 -10 33 -10 85 0 80 1
85 23 89 12 3 40 9 62 14 68 17 65 20 65 -72z m10210 -15 l0 -88 -67 -6 c-123
-12 -113 -20 -113 83 l0 89 78 4 c42 1 83 4 90 5 9 1 12 -21 12 -87z m-246 73
l46 -7 0 -83 0 -84 -49 0 c-26 0 -69 3 -95 6 l-46 7 0 83 0 84 49 0 c26 0 69
-3 95 -6z m-10134 -93 l0 -88 -67 -6 c-123 -12 -113 -19 -113 77 l0 85 53 5
c70 8 110 13 120 15 4 0 7 -39 7 -88z m-261 73 l61 -7 0 -83 0 -84 -54 0 c-29
0 -74 3 -100 6 l-46 7 0 83 0 84 39 0 c21 0 66 -3 100 -6z m-462 -227 c-2 -23
-3 -1 -3 48 0 50 1 68 3 42 2 -26 2 -67 0 -90z m10511 108 l72 -19 0 -88 c0
-48 -2 -88 -3 -88 -9 0 -134 43 -149 51 -15 8 -18 24 -18 90 0 59 3 80 13 77
6 -2 45 -12 85 -23z m842 -70 l0 -84 -66 -21 c-36 -11 -68 -20 -70 -20 -2 0
-4 40 -4 88 l0 88 68 16 c37 8 68 16 70 17 1 0 2 -37 2 -84z m-11223 49 l62
-18 3 -88 c2 -48 2 -88 0 -88 -1 0 -39 12 -82 26 l-80 27 0 84 c0 77 2 85 18
80 9 -3 45 -14 79 -23z m843 -69 l0 -84 -66 -21 c-36 -11 -68 -20 -70 -20 -2
0 -4 40 -4 88 l0 88 68 16 c37 8 68 16 70 17 1 0 2 -37 2 -84z m27 -22 c-2
-21 -4 -6 -4 32 0 39 2 55 4 38 2 -18 2 -50 0 -70z m9716 71 l67 -7 0 -83 c0
-49 4 -84 10 -84 6 0 10 33 10 80 l0 80 105 0 105 0 0 -85 c0 -83 0 -85 -27
-91 -61 -16 -385 17 -383 39 0 4 0 44 0 88 0 79 1 81 23 75 12 -3 52 -9 90
-12z m477 -73 l0 -88 -69 -12 c-39 -6 -75 -11 -80 -11 -7 0 -11 33 -11 89 l0
88 73 10 c39 6 75 11 80 12 4 0 7 -39 7 -88z m-10850 50 l55 -6 3 -82 c2 -46
6 -83 10 -83 4 0 6 36 4 80 l-4 80 106 0 106 0 0 -91 0 -92 -132 6 c-73 2
-164 10 -203 17 l-70 12 0 90 0 89 35 -7 c19 -3 60 -9 90 -13z m460 -70 l0
-88 -57 -12 c-108 -21 -104 -24 -101 76 l3 88 75 11 c41 6 76 12 78 13 1 0 2
-39 2 -88z m9580 -21 c8 -5 11 -10 5 -10 -5 0 -17 5 -25 10 -8 5 -10 10 -5 10
6 0 17 -5 25 -10z m73 -26 l47 -16 0 -79 c0 -90 -1 -91 -75 -54 -27 14 -41 23
-29 20 19 -5 20 -1 18 60 -2 35 -5 69 -9 75 -8 13 -7 13 48 -6z m-10398 -17
l60 -22 -5 -81 -5 -81 -60 29 c-33 15 -50 26 -38 23 20 -5 21 -2 25 61 3 62 1
67 -22 80 -36 19 -23 17 45 -9z m11303 11 c-27 -9 -28 -13 -28 -78 0 -45 -4
-70 -12 -74 -7 -3 3 -3 22 0 42 7 36 -3 -9 -16 l-31 -9 0 84 c0 82 0 84 28 93
15 6 34 10 42 10 8 0 3 -4 -12 -10z m-10380 -19 c-25 -10 -27 -14 -30 -84 l-3
-74 25 6 c34 8 23 -1 -17 -15 l-33 -11 0 84 c0 82 0 84 28 93 15 6 34 10 42
10 8 0 3 -4 -12 -9z m9655 -21 l67 -12 0 -83 c0 -96 5 -93 -107 -66 l-73 17 0
84 c0 83 0 84 23 78 12 -3 52 -12 90 -18z m642 -62 l0 -85 -62 -15 c-34 -9
-67 -16 -73 -16 -6 0 -10 33 -10 85 0 80 1 85 23 90 57 13 103 23 112 24 6 1
10 -33 10 -83z m-11034 42 l69 -11 0 -88 c0 -66 -3 -87 -12 -85 -7 3 -46 12
-85 21 l-73 17 0 85 c0 74 2 84 16 79 9 -3 47 -11 85 -18z m649 -63 l0 -84
-37 -11 c-21 -5 -55 -13 -75 -16 l-38 -7 0 86 0 86 58 11 c31 6 62 13 67 15 6
2 13 4 18 4 4 1 7 -37 7 -84z m9077 -67 c-2 -29 -3 -6 -3 52 0 58 1 81 3 53 2
-29 2 -77 0 -105z m1143 58 c0 -47 -4 -87 -8 -90 -5 -3 -46 -8 -90 -12 l-82
-7 0 86 0 86 53 5 c70 8 110 13 120 15 4 0 7 -37 7 -83z m-261 68 l61 -7 0
-83 0 -84 -57 0 c-32 0 -75 3 -95 6 l-38 7 0 83 0 84 34 0 c18 0 61 -3 95 -6z
m-10132 -180 c-2 -2 -42 -7 -90 -10 l-87 -7 0 86 0 85 68 7 c37 3 76 7 87 8
18 2 20 -5 23 -82 2 -46 1 -85 -1 -87z m-210 156 c22 0 23 -2 23 -85 l0 -85
-62 0 c-35 0 -80 3 -100 6 l-38 7 0 85 0 85 77 -7 c42 -3 87 -6 100 -6z
m10066 -130 c15 0 17 -11 17 -86 l0 -86 -28 5 c-15 3 -53 15 -85 27 l-57 21 0
83 0 83 68 -23 c37 -13 75 -24 85 -24z m-10563 -46 c0 -47 -3 -83 -7 -81 -8 5
-5 167 3 167 2 0 4 -39 4 -86z m11328 -85 c-13 -8 -110 -39 -122 -39 -4 0 -6
37 -4 81 l3 82 65 16 65 16 3 -74 c2 -53 -1 -77 -10 -82z m-11205 125 l67 -18
0 -84 0 -84 -32 7 c-18 4 -53 15 -78 25 l-45 18 -3 82 c-2 64 0 81 10 77 7 -3
43 -13 81 -23z m825 -145 c-13 -8 -110 -39 -122 -39 -4 0 -6 37 -4 81 l3 82
65 16 65 16 3 -74 c2 -53 -1 -77 -10 -82z m9774 122 l53 -6 3 -87 3 -87 -38 5
c-21 3 -62 10 -90 15 l-53 10 0 85 0 85 35 -7 c19 -3 58 -9 87 -13z m458 -65
l0 -83 -57 -12 c-106 -21 -103 -23 -103 72 l0 84 78 10 c42 5 78 11 80 11 1 1
2 -36 2 -82z m-10880 49 c97 -13 90 -6 90 -95 0 -47 4 -80 10 -80 6 0 10 33
10 80 l0 80 105 0 105 0 0 -86 0 -87 -152 6 c-84 2 -175 10 -203 16 l-50 12 0
85 c0 80 1 85 20 80 11 -3 40 -8 65 -11z m500 -69 l0 -83 -57 -12 c-106 -21
-103 -23 -103 74 l0 85 38 1 c29 0 106 12 120 18 1 0 2 -37 2 -83z m9157 -83
c-2 -32 -3 -8 -3 52 0 61 1 87 3 58 2 -29 2 -78 0 -110z m1043 72 l0 -85 -102
0 -103 0 0 85 0 85 103 0 102 0 0 -85z m-615 25 c3 -6 -1 -7 -9 -4 -18 7 -21
14 -7 14 6 0 13 -4 16 -10z m53 -56 l52 -18 0 -83 0 -83 -52 21 c-72 28 -90
39 -58 36 24 -2 25 1 28 60 3 59 1 63 -25 78 -15 9 -21 14 -13 11 8 -2 39 -13
68 -22z m-10363 -28 l30 -11 -5 -81 -5 -82 -60 29 c-33 16 -50 26 -38 23 21
-5 22 -1 25 58 2 46 -1 66 -12 76 -13 11 -11 12 10 6 14 -4 39 -12 55 -18z
m11255 9 c-19 -7 -29 -14 -22 -14 8 -1 12 -21 12 -66 l0 -65 28 5 c22 4 20 2
-8 -9 -19 -8 -38 -15 -42 -15 -5 -1 -8 37 -8 83 0 90 2 93 55 94 12 0 6 -5
-15 -13z m-10345 -4 c-6 -5 -18 -11 -28 -13 -16 -2 -19 -14 -20 -76 -2 -73 -2
-73 23 -67 30 6 8 -9 -27 -19 -23 -7 -23 -6 -23 77 l0 85 38 10 c20 5 39 10
42 11 2 1 0 -3 -5 -8z m9632 -25 l68 -12 3 -88 c3 -80 1 -87 -15 -83 -10 3
-51 13 -90 22 l-73 17 0 85 c0 79 1 84 20 78 10 -3 50 -12 87 -19z m648 -61
l0 -85 -35 -10 c-19 -6 -52 -13 -72 -16 l-38 -7 0 86 0 86 58 11 c31 6 62 13
67 15 6 2 12 4 15 4 3 1 5 -37 5 -84z m-11030 41 l60 -11 3 -88 3 -88 -28 7
c-15 3 -54 13 -85 21 l-58 16 0 84 c0 83 0 84 23 77 12 -4 49 -12 82 -18z
m638 -146 c-10 -9 -95 -30 -122 -30 -20 0 -21 6 -21 84 l0 84 73 14 72 14 3
-80 c2 -43 -1 -82 -5 -86z m9978 140 l49 0 0 -85 0 -85 -72 0 c-121 0 -118 -2
-118 98 l0 85 46 -7 c26 -3 69 -6 95 -6z m249 -74 l0 -83 -46 -7 c-26 -3 -66
-6 -90 -6 l-44 0 0 84 0 85 38 4 c20 2 61 4 90 5 l52 2 0 -84z m-10395 -104
c-3 -3 -43 -8 -90 -10 l-85 -5 0 85 0 85 88 9 87 9 3 -84 c2 -46 0 -86 -3 -89z
m-247 158 l63 0 -3 -87 -3 -88 -70 3 c-131 6 -125 0 -125 99 l0 86 38 -7 c20
-3 65 -6 100 -6z m9499 -162 c-2 -29 -3 -6 -3 52 0 58 1 81 3 53 2 -29 2 -77
0 -105z m-9958 -15 c-2 -92 -6 -82 -11 25 -2 34 0 62 5 62 4 0 6 -39 6 -87z
m10496 63 l80 -24 3 -85 3 -85 -58 18 c-121 37 -113 29 -113 120 0 44 1 80 3
80 1 -1 38 -11 82 -24z m838 -146 c-10 -9 -102 -40 -120 -40 -10 0 -13 20 -13
80 0 79 0 80 28 86 15 3 45 11 67 17 l40 12 3 -74 c2 -41 -1 -77 -5 -81z
m-11223 126 l75 -24 3 -85 3 -85 -81 26 -80 26 0 83 c0 46 1 83 3 83 1 0 36
-11 77 -24z m848 -73 l-3 -76 -50 -18 c-85 -30 -85 -30 -85 60 l0 78 53 15
c91 27 88 29 85 -59z m9712 53 c19 -3 52 -8 73 -11 l37 -6 0 -79 c0 -47 4 -80
10 -80 6 0 10 33 10 80 l0 80 100 0 100 0 0 -86 0 -87 -162 6 c-90 3 -180 11
-200 17 l-38 11 0 85 c0 77 2 85 18 80 9 -3 33 -7 52 -10z m510 -76 c0 -90 8
-82 -102 -98 l-58 -9 0 83 c0 79 1 84 23 89 27 6 73 12 110 14 l27 1 0 -80z
m-10828 45 l37 -6 3 -84 c2 -52 -1 -85 -7 -85 -15 0 -138 20 -155 25 -12 4
-14 21 -12 88 l3 84 47 -8 c26 -5 64 -11 84 -14z m448 -64 l0 -80 -52 -10
c-29 -5 -65 -11 -80 -14 l-28 -4 0 83 c0 79 1 84 23 89 27 6 73 12 110 14 l27
1 0 -79z m-180 -26 l0 -85 -105 0 -105 0 0 85 0 85 105 0 105 0 0 -85z m9765
45 c3 -5 2 -10 -4 -10 -5 0 -13 5 -16 10 -3 6 -2 10 4 10 5 0 13 -4 16 -10z
m-428 -142 c-2 -29 -3 -8 -3 47 0 55 1 79 3 53 2 -26 2 -71 0 -100z m492 81
l41 -12 0 -84 c0 -45 -3 -83 -7 -83 -5 1 -35 14 -68 30 -33 17 -50 27 -38 24
21 -5 22 -1 25 58 2 46 -1 67 -12 76 -13 12 -13 13 1 9 10 -3 35 -11 58 -18z
m-10349 -116 l0 -83 -51 21 c-58 22 -89 38 -89 44 0 2 15 -2 33 -10 l32 -13 0
69 c0 38 -3 69 -6 69 -3 0 -14 6 -25 14 -12 9 5 6 44 -7 l62 -22 0 -82z
m11238 106 c-15 -8 -18 -24 -18 -81 l0 -70 28 6 c27 5 27 5 -3 -9 -53 -25 -55
-22 -55 69 0 80 1 85 23 89 38 7 43 7 25 -4z m-10388 -22 c-19 -15 -16 -147 3
-147 16 0 -14 -20 -30 -20 -10 0 -13 23 -13 84 0 80 1 85 23 89 12 2 24 5 27
5 3 1 -2 -4 -10 -11z m9683 -17 l57 -11 0 -86 0 -85 -32 7 c-18 4 -59 14 -90
22 l-58 16 0 83 0 82 33 -8 c17 -5 58 -14 90 -20z m630 -57 c-1 -48 -5 -89
-10 -90 -4 -1 -36 -9 -70 -17 l-63 -14 0 87 0 88 68 15 c37 9 69 16 72 17 3 0
4 -38 3 -86z m-11020 37 l57 -11 0 -86 0 -85 -32 7 c-18 3 -57 13 -85 21 l-53
15 0 84 0 84 28 -8 c15 -5 53 -14 85 -21z m637 -58 l0 -89 -57 -12 c-32 -7
-66 -15 -75 -17 -16 -5 -18 4 -18 83 l0 89 73 16 c39 8 73 16 75 17 1 0 2 -39
2 -87z m9956 58 l64 0 0 -90 0 -90 -72 6 c-127 10 -118 2 -118 100 l0 87 31
-7 c17 -3 60 -6 95 -6z m264 -75 c0 -47 -3 -85 -7 -86 -5 0 -45 -4 -90 -7
l-83 -7 0 87 0 87 53 4 c28 2 69 4 90 5 l37 2 0 -85z m-10649 55 l69 0 0 -85
c0 -60 -4 -87 -12 -90 -7 -3 -51 -1 -98 3 l-85 7 -3 89 -3 89 32 -7 c17 -3 62
-6 100 -6z m259 -74 c0 -97 5 -93 -105 -98 l-70 -3 -3 87 -3 87 58 4 c32 2 73
4 91 5 l32 2 0 -84z m9259 -138 c1 -27 -3 -48 -9 -48 -6 0 -9 40 -9 103 2 91
3 96 9 47 5 -30 8 -76 9 -102z m416 132 c3 -5 2 -10 -4 -10 -5 0 -13 5 -16 10
-3 6 -2 10 4 10 5 0 13 -4 16 -10z m-10387 -106 l-3 -79 -5 87 c-3 48 -1 83 3
79 4 -4 7 -43 5 -87z m10512 65 l70 -21 0 -83 0 -84 -52 16 c-29 8 -68 21 -85
29 l-33 13 0 82 c0 69 2 80 15 75 9 -3 47 -15 85 -27z m-10323 -42 c2 -3 3
-40 1 -84 l-3 -79 -77 24 -78 25 0 82 0 83 76 -24 c42 -13 78 -25 81 -27z
m11153 -22 l0 -74 -57 -17 c-32 -9 -64 -19 -70 -21 -10 -4 -13 15 -13 75 l0
80 58 14 c87 23 82 27 82 -57z m-10380 -19 l0 -73 -57 -18 c-32 -10 -64 -20
-70 -23 -10 -3 -13 16 -13 76 l0 80 58 14 c87 23 82 27 82 -56z m9820 -53 l0
-84 -35 6 c-19 3 -52 7 -72 11 -75 11 -73 7 -73 98 l0 82 90 -15 90 -14 0 -84z
m400 29 l0 -79 -64 -11 c-102 -19 -96 -23 -96 67 l0 80 48 6 c26 4 52 8 57 10
6 2 20 4 33 4 21 1 22 -3 22 -77z m-10865 47 l75 -11 0 -85 0 -85 -27 6 c-16
3 -48 8 -73 11 -79 11 -75 7 -75 95 0 56 4 80 12 80 7 0 46 -5 88 -11z m485
-67 l0 -79 -64 -11 c-102 -19 -96 -23 -96 67 l0 79 58 10 c109 18 102 23 102
-66z m10200 -7 l0 -85 -102 0 -103 0 3 85 3 85 100 0 99 0 0 -85z m-10382 -18
l-3 -82 -102 -3 -103 -3 0 85 0 85 105 0 106 1 -3 -83z m9810 -13 l52 -18 0
-83 0 -83 -37 16 c-21 9 -48 20 -60 25 -28 11 -30 19 -4 12 18 -5 20 1 23 58
3 62 2 65 -27 82 -16 10 -23 16 -15 13 8 -2 39 -13 68 -22z m-458 -89 c0 -57
-4 -95 -10 -95 -6 0 -10 38 -10 95 0 57 4 95 10 95 6 0 10 -38 10 -95z m-9905
61 l30 -11 -5 -81 -5 -81 -50 23 c-27 13 -41 23 -30 21 18 -4 20 2 20 62 0 55
-3 68 -20 79 -19 12 -18 12 5 6 14 -4 39 -12 55 -18z m11270 16 c-6 -4 -9 -37
-7 -75 4 -68 4 -69 30 -63 25 5 25 4 -3 -8 -78 -35 -75 -37 -75 58 0 72 3 85
18 89 28 8 48 7 37 -1z m-10365 -23 c12 -8 10 -9 -7 -4 -20 6 -22 2 -25 -68
l-3 -74 29 8 c49 14 41 2 -10 -15 -26 -9 -49 -16 -51 -16 -2 0 -3 38 -3 84 0
72 3 85 18 89 29 8 36 7 52 -4z m9637 -13 l68 -12 3 -88 c3 -80 1 -87 -15 -83
-10 3 -51 13 -90 22 l-73 17 0 85 c0 79 1 84 20 78 10 -3 50 -12 87 -19z m653
-61 l0 -84 -37 -11 c-21 -5 -55 -13 -75 -16 l-38 -7 0 86 0 86 58 11 c31 6 62
13 67 15 6 2 13 4 18 4 4 1 7 -37 7 -84z m-11038 43 l68 -12 0 -89 c0 -79 -2
-88 -17 -83 -28 8 -144 36 -149 36 -2 0 -4 39 -4 86 0 76 2 85 17 80 9 -4 47
-12 85 -18z m641 -148 c-10 -9 -95 -30 -122 -30 -20 0 -21 6 -21 84 l0 84 73
14 72 14 3 -80 c2 -43 -1 -82 -5 -86z m9985 140 l42 0 0 -85 0 -85 -72 0
c-121 0 -118 -2 -118 98 l0 85 53 -7 c28 -3 71 -6 95 -6z m242 -74 l0 -83 -46
-7 c-26 -3 -66 -6 -90 -6 l-44 0 0 84 0 85 38 4 c20 2 61 4 90 5 l52 2 0 -84z
m-10633 54 l54 0 -3 -87 -3 -88 -70 3 c-131 5 -125 0 -125 99 l0 86 46 -7 c26
-3 71 -6 101 -6z m243 -74 l0 -83 -37 -7 c-21 -3 -62 -6 -90 -6 l-53 0 0 84 0
85 43 3 c23 2 63 4 90 6 l47 2 0 -84z m9680 -87 c0 -43 -3 -79 -7 -79 -5 0 -8
38 -8 84 0 46 3 82 8 79 4 -2 7 -40 7 -84z m-10390 61 c0 -5 -2 -10 -4 -10 -3
0 -8 5 -11 10 -3 6 -1 10 4 10 6 0 11 -4 11 -10z m10500 -14 l75 -24 3 -86 c4
-112 22 -112 22 0 0 77 2 85 18 80 9 -3 33 -7 52 -10 19 -3 52 -8 73 -11 l37
-6 0 -79 c0 -47 4 -80 10 -80 6 0 10 33 10 80 l0 80 100 0 100 0 0 -91 0 -92
-147 6 c-163 5 -214 14 -350 59 l-93 30 0 84 c0 46 3 84 8 84 4 0 41 -11 82
-24z m882 -38 c-5 -107 -9 -117 -11 -25 0 48 2 87 7 87 4 0 6 -28 4 -62z
m-1402 -163 c0 -134 -4 -215 -10 -215 -6 0 -10 79 -10 209 0 184 3 221 17 221
2 0 3 -97 3 -215z m1360 126 l0 -88 -58 -17 c-32 -9 -64 -16 -70 -16 -8 0 -12
26 -12 85 0 84 0 85 28 91 15 3 45 12 67 19 22 7 41 14 43 14 1 1 2 -39 2 -88z
m-11211 49 l72 -21 -2 -82 c-1 -54 2 -82 9 -85 9 -3 12 21 12 81 l0 85 43 -9
c23 -4 62 -10 87 -14 l45 -5 -3 -76 c-2 -46 1 -81 7 -87 8 -8 11 14 11 76 l0
87 105 0 105 0 0 -90 0 -90 -114 0 c-151 0 -317 29 -438 77 l-38 15 0 85 c0
68 3 84 14 80 7 -3 46 -15 85 -27z m831 -69 l0 -88 -58 -17 c-32 -9 -64 -16
-70 -16 -8 0 -12 26 -12 85 0 84 0 85 28 91 15 3 45 12 67 19 22 7 41 14 43
14 1 1 2 -39 2 -88z m4835 49 c171 -44 365 -164 476 -295 24 -28 14 -22 -33
22 -278 256 -617 330 -924 202 -144 -60 -300 -179 -419 -320 l-65 -77 0 -800
0 -800 -22 -6 c-13 -3 -53 -6 -90 -6 -61 0 -68 2 -68 20 0 18 7 20 80 20 l80
0 0 813 0 814 28 39 c116 160 298 297 477 359 142 49 328 55 480 15z m5385
-69 c0 -101 4 -97 -96 -107 l-65 -7 3 89 3 89 75 11 c41 6 76 12 78 13 1 0 2
-39 2 -88z m-10380 -26 c0 -96 9 -87 -102 -103 l-58 -9 0 88 c0 84 1 89 23 94
27 6 73 12 110 14 l27 1 0 -85z m9659 -46 l41 -12 0 -84 c0 -45 -3 -83 -7 -83
-5 1 -35 14 -68 30 -33 17 -50 27 -37 24 21 -5 22 -3 22 55 0 42 4 61 13 61 6
1 1 8 -13 16 -14 8 -18 13 -9 10 10 -2 35 -10 58 -17z m-10349 -115 l0 -83
-47 20 c-45 19 -76 38 -43 27 12 -5 15 6 15 63 0 38 -3 69 -6 69 -3 0 -14 7
-25 15 -13 10 -1 8 44 -6 l62 -21 0 -84z m11238 105 c-15 -8 -18 -24 -18 -79
0 -49 4 -70 13 -70 8 0 7 -4 -3 -10 -35 -22 -40 -12 -40 74 0 88 2 92 50 95
11 0 11 -2 -2 -10z m-10393 -24 c-16 -8 -24 -14 -17 -15 10 0 13 -16 10 -65
-3 -66 -3 -66 22 -60 l25 5 -25 -15 c-46 -27 -50 -21 -50 69 0 72 3 85 18 89
36 10 46 5 17 -8z m9672 -9 l68 -12 3 -87 3 -88 -28 7 c-15 3 -54 12 -86 20
-32 8 -61 14 -63 14 -2 0 -4 39 -4 86 0 80 1 85 20 79 10 -3 50 -12 87 -19z
m648 -61 l0 -85 -35 -10 c-19 -6 -52 -13 -72 -16 l-38 -7 0 85 0 85 68 16 c37
8 69 15 72 16 3 1 5 -37 5 -84z m-10967 -59 c3 -80 1 -87 -15 -83 -10 3 -31 8
-48 12 -16 3 -47 11 -67 16 l-38 10 0 82 0 83 83 -16 82 -17 3 -87z m575 -46
c-10 -9 -95 -30 -122 -30 -20 0 -21 6 -21 83 l0 83 73 15 72 15 3 -80 c2 -43
-1 -82 -5 -86z m9964 140 l64 0 -3 -87 -3 -88 -65 3 c-126 6 -120 1 -120 99
l0 86 31 -7 c17 -3 60 -6 96 -6z m263 -74 l0 -83 -37 -7 c-21 -3 -62 -6 -90
-6 l-53 0 0 84 0 85 48 4 c26 2 66 4 90 5 l42 2 0 -84z m-10642 54 l63 0 -3
-87 -3 -88 -70 3 c-131 6 -125 0 -125 99 l0 86 38 -7 c20 -3 65 -6 100 -6z
m252 -74 l0 -84 -37 -6 c-21 -3 -60 -7 -88 -8 l-50 -2 -3 86 -3 87 53 4 c29 2
70 4 91 5 l37 2 0 -84z m9675 -6 c3 -6 -1 -7 -9 -4 -18 7 -21 14 -7 14 6 0 13
-4 16 -10z m-10385 -105 c0 -78 3 -95 15 -95 12 0 15 16 15 86 0 77 2 85 17
80 14 -6 75 -25 131 -42 8 -2 12 -29 12 -89 0 -70 3 -85 16 -85 13 0 15 13 13
78 -1 42 1 79 5 80 3 2 24 1 46 -2 22 -3 58 -9 80 -12 l40 -6 0 -78 c0 -43 5
-82 10 -85 6 -4 10 25 10 79 l0 86 105 0 105 0 0 -90 c0 -53 4 -90 10 -90 6 0
10 36 10 89 l0 89 28 6 c15 3 51 8 80 11 l52 7 0 -86 c0 -51 4 -86 10 -86 6 0
10 36 10 89 l0 89 65 16 c35 9 67 16 70 16 3 0 5 -40 5 -89 l0 -88 -72 -22
c-281 -83 -557 -76 -823 20 -47 17 -88 36 -92 41 -4 7 -1 8 6 3 10 -5 12 14 9
84 -2 50 0 91 5 91 4 0 7 -43 7 -95z m10509 65 l71 -21 0 -84 c0 -50 4 -85 10
-85 6 0 10 35 10 84 l0 84 43 -9 c23 -4 63 -11 90 -14 l47 -6 0 -85 c0 -54 4
-83 10 -79 6 3 10 42 10 86 l0 79 100 0 100 0 0 -90 c0 -53 4 -90 10 -90 6 0
10 36 10 89 0 102 -6 95 98 106 l62 7 0 -86 c0 -51 4 -86 10 -86 6 0 10 36 10
89 l0 89 65 16 c35 9 67 16 70 16 3 0 5 -40 5 -89 l0 -88 -72 -21 c-109 -32
-153 -40 -276 -52 -190 -18 -431 18 -573 85 -30 13 -44 22 -31 19 22 -5 22 -4
22 81 0 70 3 86 14 82 7 -3 46 -15 85 -27z m-539 -135 c0 -57 -4 -95 -10 -95
-6 0 -10 38 -10 95 0 57 4 95 10 95 6 0 10 -38 10 -95z m-8970 -29 c0 -3 -4
-8 -10 -11 -5 -3 -10 -1 -10 4 0 6 5 11 10 11 6 0 10 -2 10 -4z m9450 -31 l35
-12 3 -81 c3 -94 3 -94 -73 -56 -27 13 -41 22 -30 19 18 -4 20 0 20 63 0 56
-3 69 -20 80 -19 12 -18 12 5 6 14 -4 41 -12 60 -19z m-10348 -115 c-3 -78 -4
-81 -25 -74 -30 9 -97 46 -72 39 19 -4 20 -1 17 62 -3 48 -9 71 -20 80 -10 7
10 4 43 -7 l60 -20 -3 -80z m11241 107 c-19 -11 -21 -20 -20 -77 2 -46 6 -67
16 -71 10 -4 4 -9 -17 -17 l-33 -11 3 86 c3 83 4 87 28 94 39 11 47 9 23 -4z
m-10380 -19 c-21 -10 -23 -18 -23 -79 0 -44 -4 -69 -12 -73 -7 -3 -1 -3 15 0
36 8 35 -1 -3 -15 l-31 -10 3 86 c3 83 4 87 28 94 38 10 48 9 23 -3z m9662
-19 l65 -11 0 -84 c0 -97 5 -94 -105 -66 l-70 18 -3 87 -3 87 25 -10 c14 -5
55 -14 91 -21z m638 -61 l-1 -83 -39 -11 c-21 -6 -53 -14 -70 -17 l-33 -6 0
87 0 88 53 11 c99 19 92 24 90 -69z m-11025 41 l62 -12 0 -84 0 -85 -42 7
c-23 4 -60 13 -83 19 l-40 12 -3 83 c-3 82 -3 83 20 78 13 -3 51 -11 86 -18z
m642 -63 l0 -84 -69 -16 c-39 -9 -73 -16 -76 -16 -3 0 -4 39 -3 87 l3 87 55
12 c96 20 90 25 90 -70z m9090 -21 c0 -57 -4 -95 -10 -95 -6 0 -10 38 -10 95
0 57 4 95 10 95 6 0 10 -38 10 -95z m930 -6 l0 -89 -34 0 c-18 0 -61 3 -95 6
l-61 7 0 86 0 86 95 -3 95 -3 0 -90z m200 17 c0 -97 7 -91 -107 -101 l-73 -7
0 91 0 90 73 4 c39 1 80 4 90 5 15 2 17 -8 17 -82z m-10390 -25 l0 -88 -67 -6
c-123 -12 -113 -20 -113 83 l0 89 78 4 c42 1 83 4 90 5 9 1 12 -21 12 -87z
m-192 -13 l3 -88 -48 0 c-26 0 -72 3 -100 6 l-53 7 0 84 0 85 98 -4 97 -3 3
-87z m-543 42 c3 -5 1 -10 -4 -10 -6 0 -11 5 -11 10 0 6 2 10 4 10 3 0 8 -4
11 -10z m10405 -30 c8 -5 11 -10 5 -10 -5 0 -17 5 -25 10 -8 5 -10 10 -5 10 6
0 17 -5 25 -10z m200 -149 l0 -83 -28 5 c-15 3 -53 15 -85 27 l-57 21 0 83 0
83 85 -26 85 -26 0 -84z m-10580 44 c0 -75 -2 -84 -17 -78 -11 4 -12 8 -5 11
8 2 12 29 12 78 0 41 2 74 5 74 3 0 5 -38 5 -85z m192 -66 l3 -86 -46 13 c-26
8 -63 21 -83 29 l-36 15 0 83 0 83 79 -25 80 -25 3 -87z m11148 58 l0 -84 -60
-16 c-33 -10 -64 -17 -70 -17 -6 0 -10 33 -10 83 l0 82 63 16 c34 9 65 17 70
17 4 1 7 -36 7 -81z m-10382 -19 l-3 -83 -50 -17 c-86 -28 -85 -29 -85 65 l0
82 63 16 c34 9 66 17 70 17 4 1 7 -35 5 -80z m9760 46 l62 -7 0 -84 c0 -57 3
-82 11 -78 6 4 9 37 8 82 l-2 75 101 1 102 2 0 -89 0 -89 -157 6 c-87 3 -178
11 -203 17 l-45 11 3 85 4 86 26 -5 c15 -3 55 -9 90 -13z m462 -69 c0 -96 9
-87 -102 -103 l-58 -9 0 87 0 87 68 10 c37 5 73 11 80 11 9 2 12 -21 12 -83z
m-10847 48 l57 -6 0 -83 c0 -108 18 -110 22 -3 l3 81 103 1 102 2 0 -87 0 -88
-117 0 c-105 0 -230 12 -273 25 -12 4 -15 23 -15 91 l0 86 30 -7 c17 -3 56 -8
88 -12z m467 -68 c0 -96 9 -87 -102 -103 l-58 -9 0 87 0 87 73 10 c39 6 75 11
80 12 4 0 7 -37 7 -84z m9170 -25 c0 -60 -4 -100 -10 -100 -6 0 -10 40 -10
100 0 60 4 100 10 100 6 0 10 -40 10 -100z m415 40 c3 -6 -1 -7 -9 -4 -18 7
-21 14 -7 14 6 0 13 -4 16 -10z m53 -56 l52 -18 0 -83 0 -83 -51 21 c-61 23
-89 38 -89 45 0 2 9 0 19 -6 11 -5 22 -10 25 -10 3 0 6 31 6 68 0 61 -2 70
-22 81 -25 13 -18 11 60 -15z m-10369 -25 l41 -12 0 -85 c0 -63 -3 -83 -12
-79 -81 32 -98 41 -89 46 17 11 18 124 1 139 -13 12 -13 13 1 9 10 -3 35 -11
58 -18z m11266 6 c-16 -8 -24 -14 -17 -15 8 0 12 -19 12 -58 0 -33 -5 -63 -12
-71 -11 -10 -8 -10 15 -2 16 6 34 11 40 10 13 -1 -51 -27 -70 -28 -7 -1 -11
25 -11 80 0 73 2 81 21 89 36 14 55 10 22 -5z m-10345 -1 c0 -3 -12 -9 -27
-15 -27 -9 -28 -11 -25 -80 l4 -70 31 5 c18 3 25 3 17 0 -8 -4 -30 -13 -47
-20 l-33 -13 0 88 0 87 38 11 c20 6 38 11 40 12 1 0 2 -1 2 -5z m9605 -24
c105 -22 95 -10 95 -105 0 -47 -3 -85 -7 -85 -5 0 -43 9 -87 20 -43 11 -80 20
-82 20 -2 0 -4 39 -4 86 0 77 2 85 18 80 9 -3 40 -10 67 -16z m668 -150 c-4
-5 -38 -15 -75 -23 l-68 -15 0 87 0 87 73 15 72 14 3 -79 c2 -44 -1 -82 -5
-86z m-11030 124 c38 -8 70 -14 73 -14 2 0 4 -38 4 -85 0 -47 -3 -85 -7 -85
-10 1 -87 18 -135 31 l-38 10 0 85 c0 78 2 85 18 79 9 -3 48 -13 85 -21z m657
-59 c0 -60 -4 -87 -12 -90 -7 -3 -41 -11 -75 -19 l-63 -14 0 89 c0 85 1 89 23
90 12 0 42 6 67 13 25 8 48 14 53 15 4 0 7 -37 7 -84z m9946 55 l64 0 0 -90 0
-90 -72 6 c-127 10 -118 2 -118 100 l0 87 31 -7 c17 -3 60 -6 95 -6z m264 -74
l0 -83 -31 -7 c-17 -3 -58 -6 -90 -6 l-59 0 0 84 0 85 53 4 c28 2 69 4 90 5
l37 2 0 -84z m-10652 54 l72 0 0 -91 0 -90 -82 6 c-46 4 -89 8 -95 10 -9 3
-13 30 -13 91 0 85 0 86 23 80 12 -3 55 -6 95 -6z m272 -75 l0 -84 -32 -5
c-18 -3 -59 -7 -90 -10 l-58 -5 0 89 0 89 53 4 c28 2 69 4 90 5 l37 2 0 -85z
m9250 -30 c0 -57 -4 -95 -10 -95 -6 0 -10 38 -10 95 0 57 4 95 10 95 6 0 10
-38 10 -95z m420 -62 c0 -47 -3 -83 -7 -80 -3 4 -5 41 -4 83 2 63 -1 78 -16
90 -17 14 -16 14 5 4 20 -10 22 -17 22 -97z m-10382 -16 c3 -79 1 -86 -15 -80
-10 4 -12 8 -5 11 15 5 17 148 2 155 -6 3 -5 4 2 3 9 -2 14 -29 16 -89z
m10570 -41 c4 -111 22 -113 22 -2 l0 84 43 -9 c23 -4 63 -11 90 -14 l47 -6 0
-85 c0 -49 4 -84 10 -84 6 0 10 35 10 85 l0 85 105 0 105 0 0 -91 0 -92 -162
6 c-167 6 -251 21 -378 67 l-55 21 3 83 3 83 77 -23 77 -22 3 -86z m799 -9
c-2 -23 -3 -1 -3 48 0 50 1 68 3 42 2 -26 2 -67 0 -90z m-11247 92 l70 -21 0
-84 c0 -49 4 -84 10 -84 6 0 10 35 10 84 l0 84 33 -8 c17 -5 58 -11 90 -15
l57 -6 0 -85 c0 -49 4 -84 10 -84 6 0 10 35 10 85 l0 85 100 0 100 0 0 -89 0
-89 -62 -4 c-147 -8 -335 21 -469 71 l-56 21 -2 86 c-2 75 0 86 14 80 9 -3 47
-15 85 -27z m11210 -54 l0 -84 -57 -17 c-32 -9 -61 -18 -65 -21 -5 -2 -8 36
-8 86 l0 90 38 7 c20 4 44 10 52 15 35 20 40 11 40 -76z m-10380 -19 l0 -85
-55 -15 c-30 -9 -61 -19 -70 -22 -13 -5 -15 7 -15 84 l0 90 43 7 c23 4 49 11
57 16 35 20 40 11 40 -75z m10225 -21 c0 -96 6 -90 -92 -103 l-63 -9 0 88 0
88 38 6 c20 4 44 8 52 10 8 1 26 3 40 4 25 1 25 0 25 -84z m-10387 -22 l-3
-87 -35 -7 c-19 -4 -54 -9 -77 -13 l-43 -6 0 89 0 89 63 10 c107 16 98 24 95
-75z m9172 -63 c0 -60 -4 -100 -10 -100 -6 0 -10 40 -10 100 0 60 4 100 10
100 6 0 10 -40 10 -100z m530 -77 c0 -46 -2 -83 -5 -83 -12 0 -135 59 -135 65
0 3 9 1 19 -5 11 -5 21 -10 23 -10 2 0 2 31 0 70 -2 38 -7 70 -11 70 -4 0 -16
6 -27 14 -10 8 16 2 58 -12 l78 -27 0 -82z m-10397 67 c15 0 17 -11 17 -86 0
-97 7 -94 -97 -48 l-53 23 0 79 0 80 58 -24 c31 -13 65 -24 75 -24z m11230 13
c-9 -3 -13 -29 -13 -78 0 -71 1 -73 23 -69 15 4 13 1 -8 -9 l-30 -14 -3 75
c-3 87 1 102 25 101 11 0 13 -3 6 -6z m-10370 -15 c-19 -9 -22 -20 -25 -84
l-3 -73 25 4 c14 3 18 2 10 -1 -8 -4 -23 -11 -32 -16 -17 -8 -18 -1 -18 81 0
85 1 90 23 94 38 7 43 6 20 -5z m9660 -14 c38 -8 70 -14 73 -14 2 0 4 -38 4
-85 0 -47 -3 -85 -7 -85 -10 1 -87 18 -135 31 l-38 10 0 85 c0 78 2 85 18 79
9 -3 48 -13 85 -21z m650 -144 c-4 -5 -38 -15 -75 -23 l-68 -15 0 87 0 87 73
15 72 14 3 -79 c2 -44 -1 -82 -5 -86z m-10953 22 l0 -84 -37 6 c-21 4 -62 14
-90 22 l-53 15 0 83 0 83 90 -21 90 -20 0 -84z m573 36 c-1 -45 -5 -84 -10
-85 -4 -1 -36 -9 -70 -17 l-63 -14 0 87 0 88 53 10 c98 19 92 24 90 -69z
m9945 62 l72 0 0 -91 0 -90 -82 6 c-46 4 -89 8 -95 10 -9 3 -13 30 -13 91 0
85 0 86 23 80 12 -3 55 -6 95 -6z m272 -75 l0 -84 -32 -5 c-18 -3 -59 -7 -90
-10 l-58 -5 0 89 0 89 63 4 c34 2 74 4 90 5 l27 2 0 -85z m-10659 55 l79 0 0
-91 0 -92 -67 6 c-38 4 -80 7 -95 7 l-28 0 0 91 c0 79 2 90 16 85 9 -3 51 -6
95 -6z m279 -75 c0 -97 9 -89 -112 -100 l-68 -7 0 91 0 90 63 4 c34 2 74 4 90
5 l27 2 0 -85z m9240 -70 c0 -63 -4 -105 -10 -105 -6 0 -10 42 -10 105 0 63 4
105 10 105 6 0 10 -42 10 -105z m426 -21 l0 -89 -3 85 c-2 50 -9 88 -16 93 -8
6 -8 7 3 4 12 -3 15 -22 16 -93z m-10376 -20 c0 -85 -3 -92 -30 -73 -13 9 -12
10 3 5 15 -5 17 3 17 67 0 45 -5 78 -12 86 -11 10 -10 11 5 6 14 -6 17 -20 17
-91z m10499 66 l71 -21 0 -84 c0 -50 4 -85 10 -85 6 0 10 33 10 80 0 91 -8 86
105 69 l75 -11 0 -84 c0 -49 4 -84 10 -84 6 0 10 35 10 84 l0 83 105 1 106 1
-3 -87 -3 -87 -145 0 c-153 1 -250 16 -375 58 l-67 22 -1 88 c-2 61 1 86 9 83
6 -2 44 -14 83 -26z m-10309 -127 c0 -49 4 -83 10 -83 6 0 10 34 10 81 l0 82
38 -6 c20 -3 61 -9 90 -13 l52 -7 0 -84 c0 -54 4 -82 10 -78 6 3 10 41 10 84
l0 77 100 0 100 0 0 -88 0 -88 -117 0 c-137 0 -261 18 -385 56 l-88 27 0 87 0
87 85 -25 85 -26 0 -83z m11140 58 l0 -79 -52 -17 c-29 -9 -59 -18 -65 -20
-10 -3 -13 17 -13 79 l0 84 58 15 c31 8 60 15 65 16 4 1 7 -35 7 -78z m-10380
-21 l0 -79 -66 -21 c-36 -11 -68 -20 -70 -20 -2 0 -4 37 -4 83 l0 83 63 16
c34 8 65 16 70 17 4 0 7 -35 7 -79z m10220 -24 l0 -84 -63 -11 c-103 -18 -97
-23 -97 73 l0 83 63 10 c106 17 97 24 97 -71z m-10380 -20 l0 -84 -63 -11
c-103 -18 -97 -23 -97 73 l0 84 68 9 c37 6 73 11 80 12 9 1 12 -22 12 -83z
m9565 16 c-3 -3 -11 0 -18 7 -9 10 -8 11 6 5 10 -3 15 -9 12 -12z m-405 -69
c0 -27 3 -72 6 -100 5 -45 4 -53 -10 -53 -14 0 -16 15 -16 100 0 60 4 100 10
100 6 0 10 -21 10 -47z m520 -89 l0 -84 -57 25 c-59 26 -83 42 -48 31 19 -5
20 -2 17 61 -3 48 -9 71 -20 80 -10 7 11 3 46 -8 l62 -21 0 -84z m-10432 80
l52 -18 0 -83 0 -83 -52 21 c-61 24 -96 43 -61 34 20 -5 21 -2 25 61 3 62 1
67 -22 80 -26 16 -25 15 58 -12z m11275 4 c-21 -10 -23 -18 -23 -80 0 -58 3
-68 18 -68 14 0 15 -2 2 -10 -33 -21 -38 -11 -38 73 0 67 3 83 16 89 28 11 49
8 25 -4z m-10378 -23 c-22 -7 -34 -13 -27 -14 8 -1 12 -21 12 -66 l0 -65 28 5
c24 5 23 4 -7 -10 -18 -8 -37 -15 -42 -15 -5 0 -9 38 -9 84 0 91 1 93 60 94
19 0 15 -3 -15 -13z m9668 -7 l67 -12 0 -89 c0 -79 -2 -88 -17 -83 -10 3 -39
10 -64 15 -101 22 -99 20 -99 112 0 80 0 81 23 75 12 -3 52 -12 90 -18z m647
-63 l0 -84 -37 -11 c-21 -5 -55 -13 -75 -16 l-38 -7 0 85 0 85 68 15 c37 9 70
16 75 17 4 0 7 -37 7 -84z m-11033 41 l68 -12 3 -87 3 -88 -28 7 c-15 3 -54
12 -86 20 -32 8 -61 14 -63 14 -2 0 -4 39 -4 86 0 80 1 85 20 79 10 -3 50 -12
87 -19z m653 -61 l0 -84 -37 -11 c-21 -5 -55 -13 -75 -16 l-38 -7 0 85 0 85
68 15 c37 9 70 16 75 17 4 0 7 -37 7 -84z m10207 -102 c-3 -2 -43 -7 -91 -10
l-86 -6 0 85 0 86 88 8 87 9 3 -84 c2 -46 1 -85 -1 -88z m-239 157 l42 0 0
-85 0 -85 -64 0 c-35 0 -78 3 -95 6 l-31 7 0 85 0 85 53 -7 c28 -3 71 -6 95
-6z m-10395 -20 l57 0 0 -85 0 -85 -72 0 c-121 0 -118 -2 -118 97 l0 86 38 -7
c20 -3 63 -6 95 -6z m257 -74 l0 -83 -46 -7 c-26 -3 -66 -6 -90 -6 l-44 0 0
84 0 85 43 4 c23 2 63 4 90 5 l47 2 0 -84z m9670 -86 c0 -77 -2 -89 -16 -83
-11 4 -12 8 -4 13 8 5 11 33 8 84 -1 42 0 76 5 76 4 0 7 -40 7 -90z m-10382
-28 l-2 -87 -3 84 c-3 65 -8 88 -21 98 -15 13 -14 13 6 3 21 -10 22 -16 20
-98z m10492 75 l75 -24 3 -86 c4 -113 22 -114 22 -1 0 77 2 85 18 80 9 -3 34
-7 55 -10 20 -4 53 -8 72 -11 l35 -6 0 -79 c0 -47 4 -80 10 -80 6 0 10 33 10
80 l0 80 105 0 105 0 0 -84 c0 -67 -3 -85 -16 -90 -29 -11 -198 -6 -299 9
-103 16 -132 23 -225 56 l-55 20 3 84 c2 47 4 85 5 85 1 0 36 -11 77 -23z
m877 -110 c-2 -23 -3 -1 -3 48 0 50 1 68 3 42 2 -26 2 -67 0 -90z m-11247 85
l65 -19 3 -86 c4 -113 22 -114 22 -1 0 75 2 85 16 80 9 -3 34 -9 57 -12 23 -3
57 -7 75 -10 l32 -5 0 -85 c0 -54 4 -83 10 -79 6 3 10 42 10 86 l0 79 100 0
100 0 0 -91 0 -92 -152 6 c-154 6 -262 25 -378 65 l-55 19 -3 88 c-3 81 -2 87
15 82 10 -3 47 -15 83 -25z m11210 -52 l0 -79 -62 -19 -63 -20 -3 80 c-2 44
-1 83 2 85 5 5 95 31 114 32 9 1 12 -21 12 -79z m-10380 -20 l0 -79 -66 -21
c-36 -11 -68 -20 -70 -20 -2 0 -4 38 -4 84 l0 84 58 15 c87 23 82 26 82 -63z
m10223 -22 c-1 -93 3 -88 -102 -103 l-51 -7 0 91 0 90 48 4 c26 2 61 4 77 5
l30 2 -2 -82z m-10383 -22 l0 -84 -63 -11 c-103 -18 -97 -23 -97 74 0 80 1 85
23 90 27 6 73 12 110 14 l27 1 0 -84z m5770 -1 c0 -12 -17 -15 -95 -15 -78 0
-95 3 -95 15 0 12 17 15 95 15 78 0 95 -3 95 -15z m3863 -37 l57 -20 0 -83 0
-84 -62 26 c-66 26 -88 40 -50 30 21 -5 22 -3 22 62 0 66 -1 68 -32 85 -35 18
-29 16 65 -16z m-10388 -21 l60 -22 -5 -81 -5 -81 -60 29 c-33 15 -50 26 -38
23 20 -5 21 -2 25 61 3 62 1 67 -22 80 -36 19 -23 17 45 -9z m11275 -2 c-14
-8 -19 -14 -12 -15 8 0 12 -19 12 -59 0 -38 -5 -62 -12 -65 -7 -4 3 -4 22 -1
36 5 26 -6 -17 -19 -23 -7 -23 -6 -23 78 0 72 3 85 18 89 33 9 37 6 12 -8z
m-10380 -20 c-14 -8 -19 -14 -12 -15 10 0 13 -16 10 -65 -3 -66 -3 -66 22 -60
30 6 8 -9 -27 -19 -23 -7 -23 -6 -23 78 0 72 3 85 18 89 33 9 37 6 12 -8z
m9665 -4 l80 -17 3 -79 c2 -43 -1 -81 -5 -85 -4 -4 -45 2 -90 13 l-83 20 0 84
c0 45 3 83 8 82 4 0 43 -8 87 -18z m660 -65 l0 -85 -62 -15 c-34 -9 -67 -16
-73 -16 -6 0 -10 33 -10 85 0 80 1 85 23 90 57 13 103 23 112 24 6 1 10 -33
10 -83z m-11033 42 l68 -12 0 -88 c0 -65 -3 -86 -12 -84 -7 3 -46 12 -85 21
l-73 17 0 85 c0 75 2 84 17 79 9 -4 47 -12 85 -18z m648 -63 l0 -84 -37 -11
c-21 -5 -55 -13 -75 -16 l-38 -7 0 85 0 85 68 15 c37 9 70 16 75 17 4 0 7 -37
7 -84z m10220 -14 l0 -88 -52 -7 c-29 -3 -70 -6 -90 -6 l-38 0 0 84 0 84 68 7
c37 3 74 8 82 9 8 2 18 4 23 5 4 0 7 -39 7 -88z m-267 72 l67 -6 0 -83 0 -84
-64 0 c-35 0 -78 3 -95 6 l-31 7 0 83 0 84 28 0 c15 0 57 -3 95 -7z m-10126
-180 c-3 -2 -43 -7 -91 -10 l-86 -6 0 86 0 85 78 7 c42 4 82 8 87 9 10 3 21
-162 12 -171z m-226 157 l39 0 0 -85 0 -85 -69 0 c-38 0 -83 3 -100 6 l-31 7
0 85 0 85 61 -7 c34 -3 79 -6 100 -6z m-482 -177 c-2 -92 -6 -82 -11 25 -2 34
0 62 5 62 4 0 6 -39 6 -87z m10501 64 l75 -24 3 -82 3 -83 -32 7 c-18 4 -55
15 -83 25 l-51 17 -3 81 c-2 45 1 82 5 82 4 0 42 -11 83 -23z m840 -70 l0 -84
-60 -16 c-33 -10 -64 -17 -70 -17 -6 0 -10 32 -10 80 l0 79 43 11 c23 6 53 15
67 20 14 5 26 9 28 9 1 1 2 -37 2 -82z m-11218 47 l67 -18 3 -83 c3 -96 7 -93
-92 -59 l-65 22 -3 83 c-2 65 0 82 10 78 7 -3 43 -13 80 -23z m878 22 c0 -3
-4 -8 -10 -11 -5 -3 -10 -1 -10 4 0 6 5 11 10 11 6 0 10 -2 10 -4z m-47 -166
c-10 -9 -102 -40 -120 -40 -10 0 -13 20 -13 80 l0 79 43 11 c23 6 53 15 67 19
25 8 25 8 28 -67 2 -41 -1 -78 -5 -82z m9732 125 c102 -12 95 -5 95 -96 l0
-82 -62 7 c-127 15 -118 7 -118 103 0 76 2 84 18 79 9 -3 40 -8 67 -11z m495
-69 l0 -83 -57 -12 c-106 -21 -103 -23 -103 74 l0 85 38 1 c29 0 106 12 120
18 1 0 2 -37 2 -83z m-10880 49 c97 -13 90 -6 90 -96 l0 -82 -62 7 c-113 13
-106 6 -110 102 -3 81 -2 85 17 80 11 -3 40 -8 65 -11z m500 -69 c0 -95 6 -89
-103 -102 l-57 -7 0 87 0 86 38 1 c29 0 106 12 120 18 1 0 2 -37 2 -83z
m10200 -5 c0 -92 1 -91 -103 -90 -102 1 -102 0 -102 92 l0 77 103 0 102 0 0
-79z m-10382 -23 l-3 -83 -100 0 -100 0 -3 83 -3 82 106 0 106 0 -3 -82z
m9767 42 c3 -5 2 -10 -4 -10 -5 0 -13 5 -16 10 -3 6 -2 10 4 10 5 0 13 -4 16
-10z"/>
<path d="M1803 6920 c0 -41 2 -58 4 -37 2 20 2 54 0 75 -2 20 -4 3 -4 -38z"/>
<path d="M1813 6730 c0 -41 2 -58 4 -37 2 20 2 54 0 75 -2 20 -4 3 -4 -38z"/>
<path d="M1809 6431 c9 -6 12 -24 10 -60 -3 -36 0 -51 9 -51 8 0 12 19 12 60
0 56 -2 60 -22 60 -17 0 -19 -3 -9 -9z"/>
<path d="M1815 6040 c0 -33 3 -60 8 -60 4 0 7 27 7 60 0 33 -3 60 -7 60 -5 0
-8 -27 -8 -60z"/>
<path d="M1673 4820 c0 -41 2 -58 4 -37 2 20 2 54 0 75 -2 20 -4 3 -4 -38z"/>
<path d="M12063 4460 c0 -41 2 -58 4 -37 2 20 2 54 0 75 -2 20 -4 3 -4 -38z"/>
<path d="M1683 4440 c0 -41 2 -58 4 -37 2 20 2 54 0 75 -2 20 -4 3 -4 -38z"/>
<path d="M12063 4070 c0 -41 2 -58 4 -37 2 20 2 54 0 75 -2 20 -4 3 -4 -38z"/>
<path d="M12058 3703 c5 -83 9 -90 11 -20 0 37 -2 67 -7 67 -4 0 -6 -21 -4
-47z"/>
<path d="M1678 3683 c5 -83 9 -90 11 -20 0 37 -2 67 -7 67 -4 0 -6 -21 -4 -47z"/>
<path d="M12063 3300 c0 -41 2 -58 4 -37 2 20 2 54 0 75 -2 20 -4 3 -4 -38z"/>
<path d="M1680 3283 c-3 -40 -1 -68 3 -64 4 4 7 37 5 72 l-3 64 -5 -72z"/>
<path d="M12063 2925 c0 -38 2 -53 4 -32 2 20 2 52 0 70 -2 17 -4 1 -4 -38z"/>
<path d="M1679 2968 c-4 -23 -2 -128 4 -128 4 0 7 29 7 65 0 36 -2 65 -5 65
-3 0 -5 -1 -6 -2z"/>
<path d="M12043 2325 c0 -33 2 -45 4 -27 2 18 2 45 0 60 -2 15 -4 0 -4 -33z"/>
<path d="M1678 2120 c-2 -44 0 -80 5 -80 4 0 7 36 7 80 0 44 -2 80 -4 80 -3 0
-6 -36 -8 -80z"/>
<path d="M12063 2140 c0 -47 2 -66 4 -42 2 23 2 61 0 85 -2 23 -4 4 -4 -43z"/>
<path d="M12042 1950 c0 -19 2 -27 5 -17 2 9 2 25 0 35 -3 9 -5 1 -5 -18z"/>
<path d="M12058 1758 c5 -89 9 -97 11 -20 0 39 -2 72 -6 72 -5 0 -7 -24 -5
-52z"/>
<path d="M1675 1720 c0 -38 3 -70 8 -70 4 0 7 32 7 70 0 39 -3 70 -7 70 -5 0
-8 -31 -8 -70z"/>
<path d="M12063 1355 c0 -44 2 -61 4 -37 2 23 2 59 0 80 -2 20 -4 1 -4 -43z"/>
<path d="M1683 1335 c0 -44 2 -61 4 -37 2 23 2 59 0 80 -2 20 -4 1 -4 -43z"/>
<path d="M720 1181 c0 -67 7 -81 38 -81 14 0 4 132 -9 141 -26 16 -29 9 -29
-60z"/>
<path d="M12065 1034 c-12 -5 -7 -134 6 -134 5 0 9 32 9 70 0 39 -1 70 -2 69
-2 0 -7 -2 -13 -5z"/>
<path d="M1685 1012 c-15 -11 -13 -141 3 -135 8 4 12 28 12 74 0 38 -1 69 -2
69 -2 0 -7 -4 -13 -8z"/>
<path d="M12063 580 c0 -41 2 -58 4 -37 2 20 2 54 0 75 -2 20 -4 3 -4 -38z"/>
<path d="M1683 560 c0 -41 2 -58 4 -37 2 20 2 54 0 75 -2 20 -4 3 -4 -38z"/>
<path d="M12055 190 c0 -38 3 -70 8 -70 4 0 7 32 7 70 0 39 -3 70 -7 70 -5 0
-8 -31 -8 -70z"/>
<path d="M1675 170 c0 -38 3 -70 8 -70 4 0 7 32 7 70 0 39 -3 70 -7 70 -5 0
-8 -31 -8 -70z"/>
</g>
</svg>
