<?xml version="1.0" standalone="no"?>
<!DOCTYPE svg PUBLIC "-//W3C//DTD SVG 20010904//EN"
 "http://www.w3.org/TR/2001/REC-SVG-20010904/DTD/svg10.dtd">
<svg version="1.0" xmlns="http://www.w3.org/2000/svg"
 width="640.000000pt" height="1280.000000pt" viewBox="0 0 640.000000 1280.000000"
 preserveAspectRatio="xMidYMid meet">
<metadata>
Created by potrace 1.15, written by Peter Selinger 2001-2017
</metadata>
<g transform="translate(0.000000,1280.000000) scale(0.100000,-0.100000)"
fill="#000000" stroke="none">
<path d="M3700 12697 l0 -105 -35 -6 c-19 -4 -47 -13 -62 -21 -15 -8 -35 -15
-43 -15 -8 0 -29 -9 -47 -19 -26 -17 -36 -18 -61 -9 -25 10 -35 9 -57 -6 -29
-19 -55 -71 -55 -110 0 -19 -7 -26 -29 -31 -50 -11 -73 -41 -70 -94 1 -25 -1
-76 -5 -112 l-8 -67 -31 9 c-48 14 -120 12 -115 -3 3 -7 22 -14 44 -16 95 -6
102 -9 109 -55 4 -23 17 -89 30 -147 13 -58 27 -132 31 -165 l7 -59 -32 27
c-43 35 -101 51 -147 38 -106 -29 -165 -136 -180 -327 -7 -81 -7 -81 19 -88
33 -8 43 -38 21 -71 -16 -25 -16 -25 14 -25 16 0 35 -7 42 -15 11 -13 9 -21
-9 -45 -20 -28 -20 -30 -4 -30 10 0 29 -7 42 -16 18 -13 22 -23 17 -44 -4 -23
-1 -29 17 -34 66 -18 156 9 194 58 12 14 24 26 27 26 3 0 6 -91 6 -202 0 -112
6 -302 12 -423 7 -121 12 -240 11 -265 -1 -79 -151 -732 -173 -754 -6 -6 -17
-3 -28 7 -25 23 -36 22 -98 -14 -55 -31 -75 -54 -67 -76 3 -8 -30 -28 -82 -53
-131 -60 -291 -159 -350 -215 -29 -28 -64 -73 -78 -101 -39 -77 -94 -258 -157
-519 -33 -132 -69 -267 -80 -300 -30 -85 -150 -468 -147 -470 1 -1 27 -10 59
-20 54 -18 57 -18 84 -1 l27 18 -5 -28 c-3 -16 -23 -143 -44 -282 l-38 -254
-50 7 c-27 3 -54 7 -60 8 -6 1 -22 -29 -35 -68 -35 -102 -35 -294 2 -490 40
-213 47 -282 54 -511 6 -226 -6 -425 -33 -515 -9 -29 -40 -109 -71 -178 -40
-92 -53 -134 -49 -154 7 -32 6 -32 -70 25 -55 41 -64 44 -81 27 -9 -9 -8 -19
2 -40 13 -24 13 -28 -1 -33 -48 -18 -80 -5 -222 89 -137 92 -142 96 -135 123
14 47 8 101 -13 129 -27 37 -88 58 -139 49 -79 -15 -158 -129 -134 -193 5 -13
9 -53 9 -88 0 -93 21 -114 122 -125 88 -10 82 -8 241 -103 99 -60 114 -73 97
-79 l-21 -8 20 -29 c12 -16 21 -33 21 -38 0 -5 -19 -23 -41 -40 l-42 -32 92
-42 c50 -23 91 -45 91 -49 0 -4 -10 -12 -23 -17 -24 -11 -41 -53 -52 -133 -9
-65 8 -82 155 -141 267 -108 337 -106 371 8 7 24 13 43 15 43 1 0 56 -43 121
-95 83 -67 133 -100 171 -112 28 -9 52 -20 52 -24 0 -37 -94 -815 -155 -1278
-19 -146 -35 -280 -35 -299 0 -34 1 -35 35 -29 32 5 35 4 30 -16 -5 -23 -108
-801 -174 -1324 l-40 -312 -97 -288 c-89 -263 -98 -296 -102 -380 -5 -115 2
-154 35 -194 24 -28 31 -31 68 -26 l42 4 12 -48 c25 -96 93 -115 168 -47 l21
20 16 -30 c47 -90 152 -96 218 -12 l23 29 45 -36 c63 -50 125 -76 164 -69 65
12 136 119 136 204 0 44 -7 58 -86 173 -47 68 -101 152 -120 186 -66 117 -118
285 -154 498 -10 65 -26 128 -35 141 -8 13 -42 42 -75 66 -56 39 -60 45 -60
81 0 93 54 386 92 505 17 51 25 62 42 62 23 0 82 -38 102 -66 15 -19 10 -49
88 526 38 278 74 503 87 544 l21 68 39 -38 c63 -62 67 -47 41 183 -20 188 -20
207 -7 368 21 245 54 568 59 572 2 3 7 -14 11 -36 8 -48 41 -101 75 -119 35
-18 101 -8 122 18 27 34 40 97 36 175 -3 55 -11 85 -38 140 -19 39 -36 75 -38
80 -3 6 9 -2 25 -17 18 -18 37 -53 51 -98 34 -103 87 -136 145 -90 15 12 31
38 37 58 14 53 12 161 -4 216 -13 41 -12 50 2 78 46 93 20 180 -83 276 -78 73
-156 114 -220 114 l-46 0 5 31 c3 18 10 97 16 177 16 215 39 418 53 475 l12
50 50 7 c28 3 103 7 167 7 93 1 120 -2 132 -15 9 -8 16 -18 16 -22 0 -4 7 -39
15 -78 22 -108 42 -259 74 -584 37 -368 45 -480 76 -1065 26 -479 45 -699 62
-716 7 -7 16 -5 26 5 9 9 17 16 19 16 2 0 0 -107 -3 -237 -5 -168 -13 -275
-27 -363 -123 -742 -182 -1056 -276 -1470 -67 -293 -80 -390 -81 -571 0 -150
2 -169 19 -188 32 -35 81 -41 344 -41 l253 0 187 -46 c275 -67 319 -68 409 -7
33 23 49 26 128 27 105 2 141 16 185 77 70 97 59 291 -19 320 -35 14 -98 -3
-162 -42 l-50 -31 -137 40 c-75 23 -200 57 -277 77 -175 45 -339 93 -370 107
-20 9 -25 20 -31 74 -13 124 -10 794 4 874 44 251 74 401 158 798 84 394 94
454 94 545 0 93 2 103 21 115 19 12 25 10 53 -15 72 -66 81 -72 95 -64 11 7 8
38 -14 172 -67 405 -131 717 -161 787 -51 118 -158 629 -229 1093 -18 119 -34
406 -35 610 l0 136 40 16 c31 12 44 25 56 53 20 48 13 84 -37 187 -46 96 -133
362 -183 562 -37 146 -91 434 -83 442 4 3 74 -276 118 -467 6 -25 24 -72 41
-105 32 -65 157 -255 167 -255 22 1 33 21 28 48 l-6 30 47 -15 c111 -35 105
-34 134 -13 16 12 29 16 33 10 3 -6 10 -10 16 -10 5 0 -5 28 -23 63 -18 34
-34 65 -36 70 -2 4 17 7 42 7 112 0 120 33 34 142 -126 158 -298 572 -442
1063 -63 218 -63 179 -11 872 14 183 25 373 25 422 l0 89 -47 42 c-26 22 -54
53 -64 69 -23 39 -104 90 -130 84 -19 -5 -20 -3 -14 18 7 23 83 207 91 220 2
4 21 1 42 -6 79 -28 284 -47 516 -50 127 -1 287 -6 357 -10 122 -7 168 -1 247
31 6 3 12 -1 12 -10 0 -9 7 -16 15 -16 11 0 14 7 9 26 -7 28 22 104 40 104 6
0 25 -9 41 -20 36 -24 45 -25 45 -6 0 8 -22 25 -48 38 -36 17 -51 31 -58 53
-8 26 -76 84 -114 97 -7 2 -3 25 10 62 11 33 20 63 20 69 0 12 -32 4 -105 -27
-33 -13 -92 -30 -130 -36 -67 -11 -71 -10 -85 11 -97 140 -267 228 -391 200
-55 -12 -67 -2 -115 93 -51 105 -67 197 -60 336 4 63 9 132 13 152 5 35 6 36
32 26 14 -6 93 -13 174 -16 l149 -5 -7 -31 c-21 -101 -22 -99 16 -93 19 4 86
14 149 23 63 9 117 18 119 20 3 3 -4 33 -16 68 l-21 64 122 42 c66 23 172 66
235 96 63 30 115 53 116 52 1 -2 12 -32 25 -68 13 -36 26 -68 29 -72 3 -4 48
33 100 81 l94 87 -46 30 c-26 16 -47 32 -47 35 0 3 25 23 55 44 31 21 58 42
61 47 3 5 -18 36 -46 69 l-52 60 20 22 c50 55 72 151 53 224 -13 48 -42 73
-84 73 -32 0 -33 -5 2 90 37 101 21 295 -30 357 -7 8 -12 64 -14 146 -2 168
-16 210 -95 288 -31 30 -77 65 -101 77 l-44 22 60 0 c33 0 93 -9 133 -20 80
-22 92 -24 92 -12 0 28 -116 53 -280 62 -114 5 -193 17 -389 56 l-24 5 21 15
c35 24 125 52 196 59 95 10 85 29 -11 22 -85 -5 -166 -32 -216 -70 -31 -23
-35 -24 -157 -16 -165 10 -420 -2 -537 -27 -22 -4 -22 -1 -25 93 -2 66 -7 98
-15 101 -10 3 -13 -22 -13 -101z m-868 -4162 c2 -35 -1 -49 -15 -58 -23 -16
-43 -128 -52 -292 -9 -173 -22 -263 -115 -775 -112 -614 -113 -630 -107 -905
7 -293 26 -534 43 -561 8 -14 27 -23 54 -27 23 -3 44 -8 47 -11 14 -14 -67
-956 -95 -1098 l-7 -37 -119 84 -119 84 -24 68 c-29 82 -52 171 -63 237 -6 39
-2 70 17 145 23 88 26 123 33 401 9 333 22 455 101 910 117 678 131 774 109
740 -5 -8 -32 -19 -59 -26 -61 -13 -59 -25 -31 161 11 72 20 134 20 138 0 5 9
5 20 2 15 -5 30 3 58 31 20 21 40 37 44 36 4 -1 10 20 13 46 23 184 70 350
162 583 37 93 71 169 74 169 4 0 9 -20 11 -45z"/>
<path d="M1561 4834 c-49 -63 -50 -154 -1 -154 11 0 20 3 21 8 1 24 4 172 2
172 -1 0 -11 -12 -22 -26z"/>
<path d="M1600 4438 c0 -11 -12 -61 -26 -109 -22 -73 -25 -91 -14 -104 18 -22
45 -19 76 9 l28 23 -12 75 c-13 85 -27 128 -42 128 -5 0 -10 -10 -10 -22z"/>
</g>
</svg>
