<?xml version="1.0" standalone="no"?>
<!DOCTYPE svg PUBLIC "-//W3C//DTD SVG 20010904//EN"
 "http://www.w3.org/TR/2001/REC-SVG-20010904/DTD/svg10.dtd">
<svg version="1.0" xmlns="http://www.w3.org/2000/svg"
 width="1280.000000pt" height="1114.000000pt" viewBox="0 0 1280.000000 1114.000000"
 preserveAspectRatio="xMidYMid meet">
<metadata>
Created by potrace 1.15, written by Peter Selinger 2001-2017
</metadata>
<g transform="translate(0.000000,1114.000000) scale(0.100000,-0.100000)"
fill="#000000" stroke="none">
<path d="M2014 11126 c-13 -9 -25 -11 -35 -5 -30 19 -73 10 -99 -21 -24 -29
-29 -30 -116 -34 -109 -4 -147 -20 -196 -86 -24 -32 -53 -55 -103 -80 -39 -19
-110 -62 -160 -95 -99 -66 -267 -155 -291 -155 -9 0 -62 -25 -119 -55 -100
-54 -302 -136 -367 -150 -79 -17 -221 -110 -314 -207 -97 -100 -111 -121 -124
-184 -7 -32 -19 -59 -30 -67 -28 -19 -40 -60 -41 -135 0 -37 -4 -76 -8 -87
-11 -27 24 -211 46 -243 l18 -27 5 40 5 40 18 -57 c10 -32 23 -60 28 -64 7 -4
9 0 6 12 -3 11 -9 42 -13 69 l-6 50 28 -27 28 -28 18 38 c16 33 18 35 24 16 3
-12 16 -43 29 -70 l23 -49 1 90 c2 137 17 172 40 93 7 -24 26 -78 43 -120 32
-85 54 -112 45 -57 -4 31 7 124 19 159 4 10 16 -5 35 -42 16 -32 34 -58 39
-58 6 0 10 21 11 48 l0 47 24 -53 c23 -50 45 -62 45 -24 0 9 11 -7 25 -36 14
-29 29 -51 34 -48 5 3 7 34 4 69 l-6 62 21 -25 21 -25 1 55 c1 86 14 92 41 21
13 -34 34 -74 45 -89 l22 -26 7 60 c4 40 14 70 29 89 33 41 61 28 92 -43 14
-31 32 -68 41 -81 21 -32 33 -12 33 55 0 126 26 146 65 51 39 -97 72 -120 61
-42 -9 58 2 135 19 135 8 0 18 -15 24 -33 13 -37 66 -94 74 -80 3 5 2 27 -3
48 -11 48 -2 125 14 125 7 0 17 -15 24 -32 22 -62 106 -134 87 -75 -4 12 -9
52 -12 90 -5 61 -4 67 14 67 11 0 26 -14 38 -36 21 -39 91 -104 112 -104 10 0
12 10 7 40 -11 68 32 110 126 124 32 5 78 -1 167 -21 113 -24 130 -26 190 -16
37 7 69 10 71 8 9 -9 -60 -34 -148 -55 -246 -57 -294 -71 -382 -105 -137 -55
-327 -148 -375 -183 -45 -34 -83 -95 -83 -136 0 -19 -7 -26 -30 -31 -24 -5
-30 -12 -30 -32 0 -13 -7 -31 -15 -39 -9 -9 -15 -11 -15 -4 0 6 -4 8 -10 5 -5
-3 -7 -20 -4 -38 4 -30 4 -30 -7 -9 -17 32 -27 27 -39 -20 -15 -60 -18 -66
-19 -41 -2 51 -41 24 -41 -29 l0 -23 -20 25 c-19 26 -19 26 -33 -20 -3 -10 -9
-5 -17 15 -11 29 -12 29 -26 11 -8 -11 -14 -31 -15 -45 0 -25 -1 -25 -17 7
-20 42 -34 36 -48 -19 l-11 -44 -13 43 c-17 55 -35 70 -50 42 -7 -14 -17 -19
-29 -15 -13 4 -20 -1 -25 -17 -6 -23 -6 -23 -22 -3 -13 17 -16 18 -24 5 -5 -8
-10 -31 -11 -50 -1 -34 -1 -34 -14 13 -15 56 -19 62 -35 52 -17 -10 -30 -51
-45 -135 -8 -41 -16 -82 -20 -91 -4 -10 11 -38 39 -76 38 -51 57 -65 118 -94
68 -31 81 -33 201 -37 143 -5 219 7 438 63 95 25 173 38 269 45 426 31 475 37
535 67 17 9 103 90 193 182 l162 166 -6 -58 c-4 -35 -2 -68 5 -85 10 -24 6
-47 -25 -152 -42 -148 -57 -286 -31 -305 14 -10 12 -21 -13 -107 -33 -111 -55
-246 -46 -283 5 -20 13 -25 36 -25 16 0 33 7 38 16 6 10 11 -32 15 -119 3 -75
11 -145 17 -158 13 -23 19 -79 22 -179 3 -93 -3 -102 -86 -145 -88 -45 -140
-92 -156 -141 -19 -56 -8 -160 23 -227 38 -84 157 -201 254 -252 1 -1 -6 -19
-17 -41 -46 -95 -108 -479 -95 -594 8 -69 47 -153 82 -175 15 -10 56 -27 92
-39 l66 -21 14 -56 14 -56 -39 -39 c-21 -22 -51 -63 -67 -92 -30 -58 -65 -86
-210 -170 -120 -70 -174 -91 -212 -81 -34 10 -55 -4 -55 -36 0 -16 -7 -25 -23
-29 -33 -8 -137 -86 -137 -103 0 -23 -34 -53 -60 -53 -19 0 -30 -9 -45 -37
-11 -21 -31 -43 -45 -50 -40 -19 -76 -64 -93 -115 -9 -27 -12 -48 -7 -48 5 0
11 8 15 19 5 15 13 18 49 14 49 -6 78 14 89 59 4 14 17 32 30 41 l24 15 -19
-37 c-10 -21 -21 -62 -24 -92 -5 -47 -4 -52 8 -37 8 9 26 20 41 23 32 8 47 32
47 72 0 21 17 46 64 96 35 37 68 67 75 67 6 0 11 6 11 13 0 20 44 57 68 57 11
0 24 5 28 11 4 7 21 9 41 6 44 -8 62 0 74 30 17 44 263 145 436 179 68 13 131
28 142 34 24 12 36 47 22 63 -6 8 -6 18 -1 27 6 8 10 26 10 39 0 13 8 30 18
37 14 10 20 10 35 -3 9 -9 17 -22 17 -29 0 -7 16 -33 35 -58 19 -26 35 -50 35
-56 0 -5 20 -34 44 -63 24 -30 51 -67 59 -83 8 -16 25 -38 37 -49 12 -11 28
-32 36 -47 7 -14 32 -48 54 -75 22 -26 69 -82 103 -123 79 -95 252 -267 339
-337 277 -221 503 -324 1117 -510 90 -27 96 -30 132 -79 59 -80 123 -130 243
-189 168 -82 321 -218 629 -560 135 -148 149 -175 155 -282 6 -110 -9 -165
-64 -231 -25 -31 -50 -76 -59 -104 -13 -46 -13 -54 1 -85 9 -18 31 -43 48 -55
17 -12 33 -23 35 -24 2 -2 -11 -22 -29 -44 -33 -42 -64 -115 -55 -129 2 -5 -4
-16 -15 -26 -34 -31 -26 -80 20 -132 22 -25 40 -55 40 -67 0 -12 -22 -59 -50
-106 -27 -47 -50 -88 -50 -92 0 -4 -34 -80 -76 -168 -55 -117 -74 -169 -72
-192 3 -31 1 -33 -36 -39 -44 -7 -86 -47 -86 -81 0 -12 10 -32 23 -46 l22 -24
-28 7 c-22 6 -35 1 -72 -30 -39 -32 -45 -41 -45 -76 0 -21 -1 -39 -3 -39 -2 0
-30 -5 -62 -11 -44 -8 -69 -8 -102 2 -32 8 -50 9 -66 1 -12 -5 -30 -13 -40
-16 -9 -3 -30 -27 -46 -53 -72 -118 -112 -142 -230 -143 -63 0 -82 -4 -125
-29 -35 -19 -71 -30 -113 -34 -39 -3 -76 -13 -98 -27 -36 -22 -157 -182 -159
-209 -2 -31 33 -20 90 27 64 53 85 66 126 76 23 5 27 3 30 -21 4 -39 68 -81
144 -94 l61 -11 -49 -81 c-26 -44 -47 -86 -45 -91 10 -29 43 -15 103 45 59 58
65 62 77 45 16 -22 152 -55 230 -56 80 0 148 18 155 42 3 14 14 18 46 18 50 0
66 13 66 55 0 63 101 143 214 171 l30 7 -23 -31 c-16 -23 -30 -32 -51 -32 -15
0 -37 -8 -48 -17 -49 -43 -151 -296 -152 -376 0 -25 3 -28 27 -25 20 2 34 14
49 42 l22 39 124 -2 c105 -2 128 1 158 17 21 12 34 26 32 36 -2 10 8 18 30 24
39 10 49 43 22 73 -12 14 -15 28 -11 56 9 50 32 80 102 128 48 33 60 47 71 85
7 25 21 72 30 105 18 59 41 89 99 129 26 18 27 22 22 82 l-5 64 40 12 c66 19
88 86 43 128 -24 23 -24 24 -8 49 10 16 19 60 24 116 6 65 19 121 48 205 36
102 41 125 41 207 l0 92 75 74 c66 64 75 78 75 109 0 20 -6 38 -12 41 -8 3 1
17 24 36 38 33 78 103 78 138 0 24 -50 70 -86 79 -23 6 -34 24 -15 24 5 0 19
16 31 36 49 79 8 212 -128 420 -170 260 -532 888 -532 924 0 5 6 10 14 10 7 0
40 18 72 39 33 22 96 53 142 70 45 16 153 70 240 120 179 102 204 113 437 188
94 30 196 68 228 84 111 56 178 139 157 193 -28 74 -159 90 -523 61 -197 -15
-216 -13 -237 25 -25 47 1 179 73 375 324 872 309 835 338 835 24 0 28 -5 38
-47 12 -46 62 -113 85 -113 22 0 136 -80 136 -95 0 -8 41 -124 91 -257 194
-516 315 -879 388 -1160 35 -134 61 -218 86 -280 5 -12 2 -18 -7 -18 -8 0 -42
-17 -75 -39 -67 -43 -89 -81 -78 -133 33 -149 174 -290 360 -359 163 -61 236
-153 414 -520 148 -304 194 -493 156 -635 -23 -86 -16 -140 23 -175 16 -15 35
-28 42 -31 9 -3 0 -22 -26 -58 -29 -41 -39 -63 -39 -94 0 -28 -6 -46 -23 -63
-30 -30 -24 -64 29 -155 21 -36 39 -79 39 -95 0 -16 -20 -62 -44 -103 -75
-126 -183 -468 -171 -540 7 -39 6 -39 -34 -50 -48 -13 -65 -39 -57 -88 5 -31
1 -41 -35 -79 -29 -32 -39 -49 -33 -61 4 -9 7 -28 8 -41 1 -21 -6 -26 -54 -39
-43 -11 -63 -11 -93 -2 -32 9 -43 9 -62 -4 -14 -9 -32 -16 -42 -16 -24 -1 -53
-26 -88 -75 -48 -67 -78 -96 -125 -120 -63 -31 -103 -39 -194 -36 -73 2 -82 0
-135 -32 -46 -27 -71 -35 -127 -39 -122 -9 -183 -50 -297 -203 -33 -43 -42
-63 -35 -72 13 -16 37 -4 103 54 55 48 120 83 153 83 16 0 21 -7 24 -32 2 -27
12 -37 58 -65 78 -47 150 -67 251 -67 l87 0 -25 -56 c-45 -99 -44 -98 -21
-106 18 -5 30 3 62 42 23 27 53 62 68 79 l27 30 16 -23 c22 -30 56 -46 155
-70 131 -32 197 -36 264 -17 42 12 56 21 54 33 -2 13 7 18 42 22 25 3 54 10
65 17 16 9 17 15 8 36 -7 14 -9 36 -6 48 8 34 50 88 87 110 34 21 187 71 195
64 11 -12 -20 -55 -39 -55 -43 0 -60 -18 -60 -63 0 -23 -11 -69 -24 -102 -30
-76 -62 -253 -48 -267 20 -20 47 -2 69 44 25 52 14 50 152 27 81 -13 164 -11
187 5 10 8 19 25 19 38 0 15 7 24 20 26 52 10 51 34 -6 100 -22 24 -29 43 -29
73 0 42 4 47 87 121 29 26 30 30 36 135 3 59 8 115 11 123 3 8 23 24 44 35 20
11 38 28 40 37 5 28 -18 127 -34 142 -8 8 -14 18 -14 22 0 4 -9 17 -20 29 -11
12 -24 43 -29 70 -7 36 -18 57 -40 77 -27 24 -30 31 -20 49 6 11 8 31 6 42 -3
12 -2 31 2 42 7 18 9 18 25 -8 10 -15 15 -34 12 -43 -3 -8 1 -25 9 -37 8 -12
15 -34 15 -49 0 -16 4 -28 8 -28 18 0 32 26 32 57 0 18 5 33 10 33 6 0 6 7 -2
19 -9 15 -8 24 5 45 16 24 16 27 -4 61 -13 22 -18 42 -14 53 8 19 11 39 20
132 4 36 13 84 21 108 18 56 18 116 -2 153 -8 17 -14 45 -12 62 3 29 10 35 80
69 91 43 122 81 114 137 -5 31 -1 38 35 69 48 41 79 99 79 147 0 48 -13 70
-50 85 l-32 13 41 37 c48 44 53 79 21 160 -22 56 -33 73 -160 250 -49 69 -116
177 -149 240 -99 191 -274 651 -342 895 -18 66 -22 109 -23 242 l-1 162 -35
36 c-55 58 -126 106 -165 112 l-35 6 6 67 c8 85 5 88 -164 189 -68 40 -141 90
-163 112 -47 47 -112 146 -161 244 -38 74 -128 297 -128 315 0 6 24 -18 53
-52 35 -42 62 -64 79 -66 34 -4 39 17 27 115 -17 139 -58 262 -201 608 l-75
180 -6 125 c-7 138 -31 252 -78 378 -31 81 -32 83 -13 103 18 20 18 21 -1 36
-11 8 -26 18 -33 22 -14 8 -31 69 -32 112 0 15 14 42 35 67 32 37 40 41 68 35
44 -8 66 -21 102 -59 20 -21 50 -38 88 -49 54 -16 57 -18 57 -49 0 -19 7 -53
16 -77 54 -152 65 -218 78 -490 12 -230 16 -271 34 -310 12 -24 27 -51 34 -60
20 -25 74 -49 110 -50 70 -2 81 -10 95 -72 26 -116 70 -167 146 -167 24 0 41
-8 63 -31 40 -42 95 -69 144 -69 39 0 42 -2 60 -44 23 -54 75 -91 142 -101 34
-4 49 -11 53 -26 9 -28 53 -78 84 -93 14 -7 47 -16 72 -20 43 -6 48 -10 53
-39 8 -40 22 -58 70 -91 25 -17 52 -26 78 -26 31 0 41 -5 50 -25 23 -50 145
-97 191 -74 21 12 22 58 2 149 -7 36 -12 66 -10 68 5 5 33 -93 40 -143 14 -91
29 -141 47 -162 29 -31 106 -61 166 -65 48 -3 53 -5 62 -34 20 -60 82 -98 176
-109 43 -5 64 -3 69 5 5 8 14 5 30 -10 13 -12 48 -25 85 -32 59 -11 64 -11 79
8 15 20 15 20 72 -3 33 -13 86 -25 125 -27 38 -2 85 -11 104 -19 19 -8 61 -18
94 -22 32 -4 76 -13 97 -20 46 -16 110 -22 127 -11 19 12 14 49 -17 135 -28
78 -36 116 -32 174 3 57 20 24 36 -70 36 -212 51 -235 157 -247 34 -4 73 -13
87 -20 59 -30 231 -40 231 -14 0 6 19 7 48 3 71 -9 76 1 50 109 -14 58 -17 91
-11 97 7 7 12 -5 16 -35 7 -51 45 -132 73 -158 19 -16 45 -21 93 -19 21 1 23
4 17 44 -9 64 -16 185 -10 162 13 -47 58 -152 76 -177 19 -28 70 -39 82 -20 3
5 -1 33 -9 63 -16 60 -19 108 -7 127 6 9 19 -9 42 -55 45 -90 66 -113 105
-113 43 0 46 6 29 50 -9 21 -14 55 -12 76 l3 39 34 -58 c39 -67 63 -87 108
-87 37 0 39 4 18 40 -16 28 -20 70 -6 70 5 0 12 -11 15 -25 4 -14 17 -30 30
-35 27 -10 206 -10 221 0 6 4 55 3 110 -1 65 -5 102 -4 106 2 4 7 24 8 53 4
33 -5 46 -4 46 5 0 7 13 11 33 9 17 -1 39 1 48 5 8 4 31 5 50 4 33 -3 34 -2
34 32 0 41 19 53 105 69 153 27 166 36 153 102 -5 27 -7 28 -85 31 -43 2 -91
-1 -106 -5 -26 -8 -48 -10 -227 -22 -44 -2 -89 -6 -100 -7 -17 -3 -20 3 -20
41 0 40 -3 45 -28 52 -40 11 -54 3 -69 -37 -16 -46 -29 -43 -26 7 2 45 -10 59
-55 59 -23 0 -31 -7 -43 -35 -19 -46 -31 -45 -26 2 5 43 -15 63 -63 63 -26 0
-34 -6 -50 -37 l-19 -38 -6 44 c-4 39 -9 46 -35 53 -43 11 -65 1 -83 -40 l-17
-37 -3 42 c-3 47 -13 58 -60 66 -25 5 -37 2 -52 -13 -11 -11 -20 -26 -20 -34
0 -8 -5 -18 -11 -21 -7 -5 -8 4 -4 27 9 48 -11 71 -66 72 -40 1 -45 -2 -59
-31 -19 -41 -27 -41 -27 -3 0 38 -26 67 -71 80 -29 8 -40 6 -54 -7 -10 -9 -18
-22 -18 -30 0 -7 -4 -13 -9 -13 -4 0 -6 10 -4 23 6 29 -11 43 -64 52 -40 6
-43 5 -63 -27 l-20 -33 0 27 c0 42 -10 58 -51 78 -50 26 -95 26 -111 0 -7 -11
-23 -20 -34 -20 -20 0 -22 4 -17 38 6 48 -5 58 -84 67 -58 6 -64 5 -88 -19
-14 -14 -27 -26 -29 -26 -2 0 -1 19 1 43 6 54 -15 75 -84 84 -54 6 -67 -1
-105 -57 -16 -25 -17 -24 -15 35 l2 60 -45 23 c-63 31 -102 29 -133 -8 -14
-17 -28 -30 -30 -30 -3 0 -2 19 0 43 6 53 -15 76 -83 88 -54 10 -87 -4 -106
-46 -6 -14 -15 -22 -19 -19 -18 11 -8 36 32 75 23 22 39 47 37 57 -4 20 -69
58 -116 67 -44 8 -75 -12 -103 -67 -15 -29 -23 -37 -29 -28 -12 19 -1 40 37
78 18 18 33 41 33 51 0 33 -103 111 -148 111 -13 0 -20 4 -17 10 11 17 -13 47
-62 78 -94 58 -149 50 -185 -30 -17 -37 -27 -48 -45 -48 -33 0 -29 25 11 71
59 69 65 130 25 254 -28 86 -48 108 -101 114 -4 1 -2 15 4 31 9 27 7 36 -16
70 -31 47 -95 96 -138 105 l-30 7 30 32 c73 78 80 124 32 199 -87 137 -221
212 -312 174 -29 -12 -39 -25 -60 -78 -23 -58 -26 -61 -37 -41 -16 30 15 89
85 165 65 70 76 103 45 128 -29 24 -162 53 -216 47 l-44 -5 50 59 c27 32 49
67 49 77 0 41 -141 74 -235 57 -44 -9 -105 -62 -141 -123 -23 -39 -28 -43 -36
-29 -12 22 26 83 77 123 47 37 125 140 119 157 -8 22 -52 37 -141 47 -146 18
-218 -14 -243 -110 -8 -32 -14 -41 -23 -32 -16 16 9 61 80 149 61 74 103 146
103 176 0 34 -85 60 -191 61 l-96 0 15 32 c20 42 8 57 -64 80 -44 14 -56 22
-60 42 -10 44 -25 79 -42 95 -10 8 -91 42 -181 75 -197 73 -237 94 -506 271
-224 147 -267 171 -355 202 -134 46 -211 54 -755 74 -211 8 -364 -20 -435 -81
-8 -7 -33 -16 -55 -19 -35 -6 -41 -4 -50 16 -5 12 -25 31 -43 41 -41 24 -151
34 -191 18 -24 -11 -35 -10 -67 7 -45 22 -152 36 -174 22 -11 -7 -19 -4 -31
12 -11 13 -34 23 -69 29 -60 9 -96 4 -122 -18 -16 -14 -17 -13 -11 20 5 32 2
37 -25 51 -39 20 -134 21 -171 1 -37 -19 -59 -76 -76 -200 -8 -59 -31 -108
-48 -102 -9 3 -11 35 -9 113 1 60 -2 115 -7 123 -6 9 -33 16 -70 19 -54 4 -62
2 -87 -23 -25 -25 -26 -30 -20 -95 3 -41 2 -80 -5 -97 -11 -29 -47 -73 -60
-73 -4 0 -12 28 -18 63 -13 77 -34 97 -103 97 -89 0 -127 -35 -113 -106 8 -44
-16 -47 -32 -4 -9 25 -17 30 -45 30 -18 0 -44 -7 -57 -16 -33 -24 -71 -110
-71 -164 0 -25 -5 -52 -10 -60 -6 -10 -9 7 -7 55 l2 70 -37 3 c-20 2 -49 -3
-65 -12 -37 -19 -90 -72 -99 -98 -6 -20 -6 -19 -18 3 -17 35 -73 37 -124 5
-44 -28 -92 -81 -92 -102 0 -8 -4 -14 -10 -14 -5 0 -10 8 -10 18 0 29 -29 62
-56 62 -29 0 -75 -22 -93 -44 -11 -14 -15 -14 -28 -1 -21 22 -79 19 -103 -5
-26 -26 -30 -25 -30 3 0 29 -18 47 -46 47 -21 0 -21 1 -8 58 26 109 11 162
-47 162 l-30 0 21 29 c44 63 50 92 31 150 -9 30 -25 59 -34 66 -24 17 -22 21
23 64 32 30 40 45 40 73 0 41 -20 62 -50 53 -18 -6 -20 -2 -20 40 0 36 6 54
25 77 18 21 25 42 26 76 3 74 4 80 12 88 4 4 7 22 7 40 0 31 -13 46 -57 69 -2
1 6 19 17 40 11 22 20 52 20 67 0 21 7 31 24 37 26 11 36 30 36 72 0 34 -23
60 -80 89 -22 11 -40 22 -40 23 0 2 7 28 16 57 9 31 14 71 11 93 -5 40 -40 87
-64 87 -25 0 -13 15 31 39 81 42 102 86 62 126 -23 23 -33 25 -109 25 l-84 0
-12 39 c-9 30 -21 45 -53 63 -78 44 -78 47 2 202 47 92 70 149 70 172 0 33 -1
34 -37 34 -35 0 -46 -8 -138 -103 -90 -94 -102 -103 -122 -94 -35 15 -29 44
38 179 64 131 69 167 28 189 -25 13 -84 -3 -114 -31 l-22 -21 -37 50 c-53 72
-147 155 -211 186 -63 31 -89 58 -144 153 -61 105 -112 140 -157 108z m-107
-417 c19 -12 32 -26 31 -33 -4 -13 -80 -51 -120 -60 -25 -6 -26 -5 -19 22 15
50 41 92 58 92 8 0 31 -9 50 -21z m-642 -331 c9 -29 19 -76 22 -104 5 -43 2
-54 -18 -77 -13 -15 -51 -39 -84 -52 -60 -25 -60 -25 -77 -5 -20 24 -34 143
-22 179 6 16 35 41 79 68 38 24 73 43 77 43 4 0 14 -24 23 -52z m-932 -199
c-10 -17 -24 -36 -32 -42 -12 -10 -12 -8 -1 13 13 26 40 60 47 60 2 0 -4 -14
-14 -31z m484 -46 c-2 -16 -4 -5 -4 22 0 28 2 40 4 28 2 -13 2 -35 0 -50z
m1498 -310 c11 -35 10 -43 -2 -47 -29 -11 -33 -5 -33 45 0 61 17 62 35 2z
m2646 -1265 c-5 -13 -12 -47 -16 -75 -6 -44 -10 -53 -27 -53 -17 0 -19 4 -13
33 7 29 52 117 61 117 2 0 0 -10 -5 -22z m184 -142 c-4 -20 -12 -36 -17 -36
-5 0 -6 10 -3 23 4 12 9 30 12 40 9 32 15 11 8 -27z m-1398 -303 c-3 -10 -5
-4 -5 12 0 17 2 24 5 18 2 -7 2 -21 0 -30z m-1147 -531 c0 -5 16 -27 36 -51
l36 -42 -31 -68 c-44 -97 -55 -165 -41 -269 6 -46 10 -85 8 -86 -2 -1 -11 -8
-20 -15 -15 -11 -25 -7 -76 32 -143 111 -206 231 -181 346 6 28 14 51 19 51 4
0 13 -21 19 -46 13 -51 59 -145 90 -184 15 -19 23 -22 31 -14 9 9 9 34 -1 103
-11 77 -11 102 2 163 12 63 18 73 39 79 36 10 70 10 70 1z m2230 -141 c0 -9
-5 -34 -11 -56 l-11 -40 -23 29 c-40 51 -50 73 -36 90 16 19 81 0 81 -23z
m-2041 -45 l23 -24 -20 -87 c-20 -83 -43 -122 -66 -108 -12 8 -1 182 15 216
15 33 19 33 48 3z m1829 -19 c11 -13 -5 -167 -17 -167 -3 1 -24 23 -46 51 -31
40 -39 58 -36 82 1 18 5 35 8 40 7 12 80 8 91 -6z m337 -79 c14 -26 25 -53 25
-61 0 -7 -15 -28 -34 -46 l-34 -33 -21 40 -21 41 21 67 c23 73 22 73 64 -8z
m185 37 c0 -18 -48 -31 -62 -17 -16 16 0 32 33 32 19 0 29 -5 29 -15z m97 -91
c-9 -10 -48 59 -42 74 6 13 12 7 26 -27 11 -24 18 -45 16 -47z m206 39 c33
-20 73 -39 90 -42 34 -7 40 -21 83 -211 l26 -114 -59 -155 c-57 -153 -58 -154
-66 -115 -31 142 -112 460 -142 551 -19 61 -35 113 -35 116 0 18 48 3 103 -30z
m-686 -163 c1 -41 3 -84 5 -94 6 -38 -18 -24 -50 28 -31 52 -32 56 -22 108 23
114 18 107 43 68 17 -27 22 -52 24 -110z m991 120 l36 0 -26 -27 c-14 -16 -35
-43 -46 -61 l-20 -34 -17 54 c-10 29 -20 59 -23 67 -4 11 2 13 28 8 18 -4 49
-7 68 -7z m-1203 -111 c31 -39 40 -59 40 -90 0 -21 -2 -39 -4 -39 -2 0 -25 23
-51 51 -44 47 -47 54 -43 90 3 21 8 39 12 39 3 -1 24 -23 46 -51z m768 -129
c63 -226 82 -302 116 -477 l30 -151 -55 -209 c-31 -114 -57 -209 -57 -210 -1
-1 -2 80 -2 180 0 245 -39 485 -123 775 -21 72 -35 132 -31 132 18 0 59 76 59
109 0 59 15 24 63 -149z m-2144 151 l23 -18 -11 -145 c-6 -80 -11 -179 -11
-220 l0 -74 -52 -59 -53 -59 -6 30 c-11 48 -10 303 1 394 17 144 18 148 48
158 36 14 34 14 61 -7z m307 -54 c1 -1 -6 -62 -16 -135 -16 -133 -24 -151 -60
-152 -8 0 -34 -9 -58 -20 -37 -17 -44 -17 -49 -5 -4 13 16 197 34 294 l6 34
70 -7 c39 -4 72 -8 73 -9z m242 -20 c13 -10 15 -71 6 -163 l-6 -59 -79 0 c-59
-1 -79 2 -79 12 0 14 38 199 45 220 5 15 92 7 113 -10z m424 -18 c61 -37 68
-45 68 -73 0 -63 -12 -63 -94 5 -49 40 -75 68 -71 77 3 7 5 18 5 23 0 17 24 9
92 -32z m-1175 -151 c-1 -101 2 -233 6 -294 l8 -111 -30 -13 c-25 -10 -56 -10
-164 1 l-133 12 -62 99 -61 99 20 53 c10 29 34 70 52 90 43 50 54 40 106 -109
45 -124 72 -168 92 -148 8 8 3 61 -19 200 -16 103 -27 192 -23 196 4 4 17 -63
29 -150 12 -87 29 -185 37 -218 16 -60 40 -99 56 -89 5 3 9 116 9 252 0 136 3
256 6 268 5 17 38 39 66 43 5 1 7 -81 5 -181z m1394 151 c54 -43 49 -58 -6
-18 -25 18 -45 36 -45 41 0 14 11 9 51 -23z m4379 -38 c-11 -40 -30 -56 -30
-25 0 17 32 76 38 70 2 -2 -2 -22 -8 -45z m-3600 -176 c57 -177 96 -343 116
-497 43 -341 -21 -724 -197 -1161 -44 -111 -86 -211 -94 -222 -20 -32 -231
-140 -330 -170 -49 -15 -100 -30 -111 -35 -17 -7 -27 -3 -44 15 -18 19 -20 26
-9 29 88 31 158 60 229 96 90 45 274 160 267 167 -2 2 -87 -39 -188 -91 -190
-98 -398 -173 -407 -148 -2 7 -8 12 -13 12 -4 0 -6 -7 -3 -15 9 -23 -26 -19
-53 7 -13 12 -23 16 -23 10 0 -6 5 -14 10 -17 14 -9 3 -25 -17 -25 -15 0 -42
27 -43 43 0 4 8 7 19 7 45 0 302 94 405 148 125 66 230 131 223 138 -3 3 -60
-23 -128 -57 -225 -112 -378 -167 -514 -185 -45 -5 -53 -3 -73 19 l-23 25 53
12 c98 23 252 77 348 122 109 51 244 127 237 134 -3 3 -60 -19 -128 -49 -189
-84 -246 -106 -344 -132 -190 -51 -329 -62 -367 -29 -12 10 -18 13 -14 7 10
-19 -5 -15 -33 6 l-25 19 55 1 c102 1 310 54 480 121 115 46 283 129 276 136
-3 3 -47 -11 -98 -30 -303 -113 -416 -145 -587 -166 -90 -10 -138 -4 -210 28
l-43 19 78 6 c87 6 269 44 383 81 184 59 388 141 377 152 -3 3 -52 -8 -109
-26 -305 -95 -426 -124 -577 -140 -101 -11 -142 -5 -218 32 -47 22 -56 32 -20
23 33 -9 215 21 368 59 239 61 471 137 458 151 -3 2 -106 -20 -229 -49 -124
-30 -256 -59 -295 -66 -38 -6 -79 -14 -90 -16 -19 -5 -19 -4 -2 9 9 8 17 19
17 25 0 6 7 9 15 6 36 -14 115 35 115 71 0 8 12 18 28 21 248 59 350 89 339
100 -2 2 -78 -9 -168 -26 -90 -16 -171 -30 -179 -30 -11 0 -16 13 -18 45 -3
51 -17 43 141 75 104 21 154 39 107 40 -14 0 -70 -7 -125 -15 -137 -20 -127
-22 -123 32 l3 48 80 13 c106 17 118 32 21 25 l-76 -6 0 41 c0 38 3 42 33 51
l32 9 -32 1 c-31 1 -38 10 -35 42 9 71 18 114 34 157 24 64 19 117 -18 200
-13 30 -23 56 -22 57 9 8 130 66 132 63 1 -2 10 -48 19 -103 30 -175 86 -315
126 -315 28 0 32 26 16 100 -45 197 -56 251 -61 315 l-6 70 121 79 c67 43 123
77 125 75 2 -2 18 -47 35 -100 30 -92 53 -129 79 -129 14 0 15 22 1 120 -16
115 -20 182 -11 176 9 -5 26 -77 37 -156 13 -88 37 -169 56 -186 11 -9 22 -15
25 -11 3 3 10 43 16 88 10 81 -1 236 -22 308 -10 36 -1 40 25 11 10 -11 24
-20 31 -20 22 0 48 -108 64 -258 18 -187 -13 -385 -106 -659 -46 -139 -55
-197 -29 -207 47 -18 131 163 190 405 62 258 49 560 -34 780 -12 30 -21 56
-21 59 0 8 69 44 74 39 11 -11 80 -212 101 -292 52 -199 70 -470 44 -682 -10
-85 -66 -322 -110 -464 -20 -66 -25 -176 -9 -201 7 -12 13 -12 33 -1 52 28
126 213 171 429 83 391 52 790 -91 1171 l-35 95 22 18 c46 38 56 27 100 -107z
m-1246 20 c-3 -38 -9 -90 -13 -115 l-7 -45 -18 27 c-17 26 -17 36 -6 127 12
95 13 99 32 88 17 -11 19 -19 12 -82z m454 41 c22 -24 47 -57 56 -74 15 -30
15 -30 -16 -41 -45 -16 -50 -15 -81 24 -25 31 -27 40 -21 85 4 27 10 50 14 50
4 0 26 -20 48 -44z m170 0 c28 -39 32 -56 11 -56 -10 0 -49 68 -49 86 0 21 4
18 38 -30z m-2058 25 c0 -6 -4 -13 -10 -16 -5 -3 -10 1 -10 9 0 9 5 16 10 16
6 0 10 -4 10 -9z m1638 -136 c45 -27 82 -53 82 -56 0 -4 -37 -16 -83 -27 -46
-12 -92 -24 -101 -28 -16 -6 -18 -2 -12 32 3 21 8 61 12 87 3 26 10 47 14 45
4 -2 44 -25 88 -53z m2199 -512 c-13 -293 -55 -555 -122 -759 -39 -119 -117
-304 -127 -304 -19 0 7 612 32 752 14 75 50 178 90 258 35 70 118 200 127 200
4 0 3 -66 0 -147z m-3498 -84 l30 -55 -28 -17 c-30 -18 -54 -7 -44 20 4 11 0
14 -18 11 -23 -3 -24 0 -24 52 0 30 4 64 8 75 8 19 9 19 27 -5 11 -14 33 -50
49 -81z m6539 -71 c-20 -38 -23 -40 -26 -20 -2 13 4 32 14 43 29 33 35 21 12
-23z m-6454 -86 c3 -4 -8 -13 -25 -19 -23 -9 -29 -9 -29 2 0 20 43 34 54 17z
m-122 -72 c-7 -9 -32 34 -32 54 0 16 5 12 18 -14 10 -19 16 -37 14 -40z m58
61 c0 -15 -29 -33 -45 -27 -28 10 -17 36 15 36 17 0 30 -4 30 -9z m1030 -51
c0 -17 -7 -20 -50 -20 -35 0 -50 4 -50 13 0 22 11 27 57 27 36 0 43 -3 43 -20z
m-650 0 c0 -5 -2 -10 -4 -10 -3 0 -8 5 -11 10 -3 6 -1 10 4 10 6 0 11 -4 11
-10z m468 -7 c-4 -23 -96 -32 -109 -11 -6 10 1 15 29 19 71 12 84 10 80 -8z
m-198 -13 c0 -18 -7 -20 -75 -20 -58 0 -75 3 -75 14 0 20 16 24 88 25 56 1 62
-1 62 -19z m380 -60 c0 -28 -2 -30 -40 -30 -22 0 -43 0 -47 -1 -11 0 -16 29
-9 47 4 9 20 14 51 14 43 0 45 -1 45 -30z m-190 -10 c0 -23 -5 -31 -24 -36
-40 -10 -61 -1 -64 28 -3 23 1 27 30 31 18 2 39 5 46 5 7 1 12 -10 12 -28z
m-176 -16 c4 -15 6 -27 4 -29 -2 -1 -33 -5 -71 -8 -60 -4 -69 -3 -78 15 -6 11
-8 22 -5 25 4 5 55 13 132 22 7 0 15 -11 18 -25z m2361 -194 c-26 -298 -68
-557 -117 -725 -18 -62 -71 -191 -83 -204 -10 -10 -55 44 -55 66 0 12 -23 67
-51 120 -50 97 -51 99 -46 170 7 89 48 197 163 423 74 144 189 328 199 318 2
-2 -3 -78 -10 -168z m-2925 134 c0 -21 -17 -25 -34 -8 -23 22 -20 32 9 26 14
-2 25 -10 25 -18z m930 -13 c0 -41 -13 -51 -67 -51 -19 0 -23 6 -23 30 0 17 0
33 0 38 -1 6 38 17 78 21 8 1 12 -13 12 -38z m-830 11 c0 -11 -70 -33 -82 -26
-4 3 -8 12 -8 20 0 10 12 14 45 14 25 0 45 -4 45 -8z m650 -37 c0 -29 -4 -34
-31 -40 -37 -8 -38 -7 -46 38 -5 34 -4 36 28 39 46 5 49 2 49 -37z m-166 -1
c15 -40 7 -43 -46 -21 -47 19 -50 22 -28 28 43 12 68 10 74 -7z m6270 -32 c-7
-33 -24 -44 -24 -16 0 18 20 58 26 51 2 -2 1 -18 -2 -35z m-6803 -32 c20 -11
27 -44 7 -38 -13 5 -44 48 -34 48 4 0 16 -5 27 -10z m865 -12 c-3 -13 -6 -29
-6 -36 0 -9 -10 -12 -27 -10 -22 2 -29 9 -31 30 -3 22 1 27 25 31 15 2 32 5
37 6 4 0 6 -9 2 -21z m-743 -13 c-1 -5 -18 -14 -38 -19 -29 -8 -38 -7 -46 5
-16 26 -10 30 39 27 26 -2 46 -7 45 -13z m587 -5 c0 -5 -6 -10 -14 -10 -8 0
-18 5 -21 10 -3 6 3 10 14 10 12 0 21 -4 21 -10z m-264 -55 c24 -18 7 -19 -26
0 -16 9 -19 14 -9 15 8 0 24 -7 35 -15z m-359 -50 c9 -24 -1 -27 -15 -5 -8 13
-8 20 -2 20 6 0 13 -7 17 -15z m127 -16 c16 -14 -2 -23 -50 -23 -38 -1 -48 3
-54 20 -8 20 -6 21 43 16 29 -2 56 -8 61 -13z m386 -55 c6 -14 10 -29 10 -34
0 -12 -74 11 -125 38 l-40 21 73 1 c69 0 73 -1 82 -26z m100 -29 c10 -12 10
-15 -4 -15 -9 0 -16 7 -16 15 0 8 2 15 4 15 2 0 9 -7 16 -15z m-532 -30 c-3
-3 -9 2 -12 12 -6 14 -5 15 5 6 7 -7 10 -15 7 -18z m42 -4 c0 -5 3 -18 6 -28
5 -16 4 -16 -10 1 -18 23 -20 36 -6 36 6 0 10 -4 10 -9z m100 -11 c19 -12 10
-20 -33 -27 -29 -4 -37 -2 -46 16 -11 20 -9 21 26 21 21 0 45 -4 53 -10z m489
-56 c12 -19 21 -38 21 -41 0 -3 -35 -3 -77 -1 -57 3 -93 12 -135 32 -32 15
-58 29 -58 31 0 2 24 1 53 -1 28 -3 70 -1 92 4 70 17 81 15 104 -24z m-485
-93 c-7 -7 -34 28 -34 43 1 6 10 0 21 -13 11 -13 17 -27 13 -30z m62 28 c39 3
54 -16 22 -28 -17 -6 -26 -4 -36 8 -12 15 -13 14 -8 -1 7 -24 -11 -23 -24 1
-13 26 -13 34 2 25 7 -5 27 -7 44 -5z m44 -141 c0 -6 -7 -5 -15 2 -8 7 -15 17
-15 22 0 6 7 5 15 -2 8 -7 15 -17 15 -22z m40 7 c7 -9 10 -18 7 -22 -8 -7 -37
15 -37 28 0 14 16 11 30 -6z m48 -3 c3 -9 -2 -13 -14 -10 -9 1 -19 9 -22 16
-3 9 2 13 14 10 9 -1 19 -9 22 -16z m27 -120 c-6 -7 -35 18 -35 31 0 5 9 2 20
-8 11 -10 18 -20 15 -23z m45 -4 c0 -6 -7 -5 -15 2 -8 7 -15 17 -15 22 0 6 7
5 15 -2 8 -7 15 -17 15 -22z m50 12 c0 -5 -6 -10 -14 -10 -8 0 -18 5 -21 10
-3 6 3 10 14 10 12 0 21 -4 21 -10z m6137 -128 c8 -30 12 -56 10 -59 -6 -5
-47 115 -47 136 1 27 21 -16 37 -77z m-6122 37 c11 -17 -1 -21 -15 -4 -8 9 -8
15 -2 15 6 0 14 -5 17 -11z m56 -5 c11 -14 10 -15 -11 -12 -13 1 -25 9 -28 16
-5 17 23 15 39 -4z m6463 -51 c9 -25 14 -49 11 -51 -6 -6 -35 62 -35 83 0 26
8 16 24 -32z m221 -39 c21 -82 17 -97 -11 -39 -13 28 -24 68 -24 90 1 50 13
32 35 -51z m-6195 15 c0 -15 -42 -10 -62 8 -24 21 -23 31 5 35 21 4 57 -23 57
-43z m-86 16 c17 -26 17 -26 -11 -19 -15 4 -37 12 -48 17 -19 10 -18 12 10 18
17 4 31 7 31 8 1 0 9 -10 18 -24z m870 -33 c-6 -37 -12 -45 -60 -72 -55 -31
-184 -83 -184 -74 0 2 -9 0 -21 -6 -16 -9 -25 -8 -42 6 -12 10 -16 12 -9 4 16
-18 15 -30 -1 -30 -17 0 -51 36 -40 43 4 2 33 12 63 22 61 19 205 91 260 129
19 13 36 23 38 21 1 -1 0 -21 -4 -43z m5824 -60 l-3 -57 -12 38 c-13 43 -6
120 9 93 5 -9 8 -42 6 -74z m-7027 61 c13 -15 12 -15 -8 -4 -24 12 -29 21 -14
21 5 0 15 -7 22 -17z m54 7 c3 -5 -1 -10 -9 -10 -8 0 -18 5 -21 10 -3 6 1 10
9 10 8 0 18 -4 21 -10z m430 -60 c18 -20 17 -20 -11 -20 -29 0 -54 15 -54 32
0 16 47 7 65 -12z m-80 -1 c11 -17 2 -18 -19 -3 -17 12 -17 14 -4 14 9 0 20
-5 23 -11z m-280 -19 c3 -5 2 -10 -4 -10 -5 0 -13 5 -16 10 -3 6 -2 10 4 10 5
0 13 -4 16 -10z m52 4 c-3 -3 -12 -4 -19 -1 -8 3 -5 6 6 6 11 1 17 -2 13 -5z
m552 -28 c22 -23 22 -24 2 -29 -12 -3 -27 3 -37 14 -20 22 -33 17 -14 -6 11
-13 9 -15 -12 -15 -24 0 -48 16 -48 32 0 4 10 8 23 8 12 0 29 5 37 10 21 14
24 13 49 -14z m456 -23 c-3 -44 -18 -52 -48 -27 -22 19 -22 19 -4 -2 29 -35
-9 -48 -47 -16 -21 17 -21 17 -3 -4 17 -20 17 -22 1 -28 -11 -4 -25 1 -38 15
-15 16 -18 23 -8 26 7 3 41 20 75 38 34 17 65 33 68 34 3 0 5 -16 4 -36z
m-570 -3 c18 -19 17 -20 -7 -20 -26 0 -53 22 -41 33 12 12 30 7 48 -13z m-64
-6 c11 -14 9 -15 -21 -12 -18 2 -35 9 -38 16 -6 18 43 15 59 -4z m-294 -10
c-3 -3 -12 -4 -19 -1 -8 3 -5 6 6 6 11 1 17 -2 13 -5z m588 -24 c18 -19 17
-20 -2 -20 -11 0 -28 9 -38 20 -18 19 -17 20 2 20 11 0 28 -9 38 -20z m-50
-10 c18 -19 17 -20 -1 -20 -20 0 -44 17 -44 32 0 15 27 8 45 -12z m-50 -10
c18 -19 17 -20 -7 -20 -30 0 -57 25 -36 33 21 9 24 8 43 -13z m287 3 c23 -21
23 -33 -1 -33 -22 0 -45 25 -36 40 9 14 15 13 37 -7z m-342 -24 c0 -14 -36
-10 -49 5 -10 11 -8 15 6 18 19 5 43 -8 43 -23z m304 2 c14 -16 15 -19 2 -24
-13 -5 -46 21 -46 36 0 14 27 6 44 -12z m-45 -10 c6 -10 7 -21 4 -25 -7 -7
-43 23 -43 36 0 16 29 8 39 -11z m231 10 c0 -11 -31 -24 -39 -16 -3 3 1 10 9
15 19 12 30 12 30 1z m-274 -39 c-24 -5 -51 19 -34 29 7 5 20 1 31 -9 17 -15
17 -17 3 -20z m221 16 c-2 -7 -11 -12 -19 -12 -9 1 -15 -6 -14 -14 2 -23 -48
-39 -69 -22 -11 9 -13 16 -6 23 7 7 18 4 33 -9 19 -16 20 -16 9 -1 -16 20 -16
19 24 34 41 15 47 15 42 1z m-267 -13 c10 -12 9 -15 -8 -15 -11 0 -25 7 -32
15 -10 12 -9 15 8 15 11 0 25 -7 32 -15z m-49 -11 c11 -14 9 -15 -16 -12 -16
1 -30 9 -33 16 -6 18 33 15 49 -4z m-66 -4 c3 -5 -1 -10 -9 -10 -8 0 -18 5
-21 10 -3 6 1 10 9 10 8 0 18 -4 21 -10z m265 -25 c10 -12 10 -15 -3 -15 -8 0
-20 7 -27 15 -10 12 -10 15 3 15 8 0 20 -7 27 -15z m-39 -11 c11 -14 10 -15
-11 -12 -13 1 -25 9 -28 16 -5 17 23 15 39 -4z m-51 -9 c10 -12 10 -15 -3 -15
-8 0 -20 7 -27 15 -10 12 -10 15 3 15 8 0 20 -7 27 -15z m-55 -5 c3 -5 -1 -10
-9 -10 -8 0 -18 5 -21 10 -3 6 1 10 9 10 8 0 18 -4 21 -10z m185 -20 c0 -5 -5
-10 -11 -10 -5 0 -7 5 -4 10 3 6 8 10 11 10 2 0 4 -4 4 -10z m-20 -15 c13 -16
3 -20 -24 -9 -9 3 -13 10 -10 15 8 13 20 11 34 -6z m-50 -10 c14 -16 10 -18
-14 -9 -9 3 -16 10 -16 15 0 14 16 11 30 -6z m1065 -240 c-21 -13 -42 -22 -45
-18 -3 3 0 8 6 10 6 2 20 10 30 18 10 8 26 14 34 14 8 0 -3 -11 -25 -24z m-38
9 c-3 -3 -12 -4 -19 -1 -8 3 -5 6 6 6 11 1 17 -2 13 -5z"/>
</g>
</svg>
