<?xml version="1.0" standalone="no"?>
<!DOCTYPE svg PUBLIC "-//W3C//DTD SVG 20010904//EN"
 "http://www.w3.org/TR/2001/REC-SVG-20010904/DTD/svg10.dtd">
<svg version="1.0" xmlns="http://www.w3.org/2000/svg"
 width="1040.000000pt" height="1280.000000pt" viewBox="0 0 1040.000000 1280.000000"
 preserveAspectRatio="xMidYMid meet">
<metadata>
Created by potrace 1.15, written by Peter Selinger 2001-2017
</metadata>
<g transform="translate(0.000000,1280.000000) scale(0.100000,-0.100000)"
fill="#000000" stroke="none">
<path d="M5435 12790 c-149 -17 -665 -110 -745 -136 -47 -14 -128 -48 -180
-74 -53 -27 -156 -69 -230 -95 -149 -52 -196 -74 -317 -147 -45 -27 -104 -56
-129 -65 -73 -25 -229 -194 -275 -298 -11 -24 -34 -55 -52 -69 -54 -40 -153
-85 -224 -102 -44 -10 -90 -30 -133 -59 -87 -57 -119 -72 -176 -85 -54 -12
-151 -72 -259 -160 -97 -79 -151 -140 -179 -202 -12 -29 -52 -90 -88 -134 -80
-100 -108 -148 -163 -275 -23 -54 -59 -123 -80 -154 -60 -91 -197 -399 -262
-590 -43 -124 -86 -340 -113 -560 -25 -206 -45 -319 -67 -377 -14 -37 -17
-135 -23 -753 -5 -390 -11 -729 -15 -752 -5 -27 -13 -43 -22 -43 -8 0 -49 35
-91 79 -91 93 -114 101 -300 101 -131 0 -162 -11 -162 -57 0 -14 17 -78 39
-142 21 -64 46 -156 55 -206 74 -400 98 -485 199 -703 78 -166 81 -175 106
-282 11 -47 47 -170 81 -275 56 -175 71 -237 99 -413 5 -34 30 -106 54 -160
58 -127 76 -185 137 -436 70 -287 157 -518 244 -649 28 -42 46 -58 81 -72 25
-9 59 -28 75 -41 41 -35 106 -61 179 -73 34 -6 69 -15 75 -20 19 -16 33 -73
51 -206 21 -159 46 -260 93 -386 22 -57 43 -126 46 -152 9 -59 80 -271 131
-392 36 -84 50 -109 118 -209 31 -44 35 -92 12 -135 -8 -16 -52 -58 -98 -94
-130 -101 -243 -253 -271 -360 -17 -67 -49 -96 -148 -136 -135 -55 -330 -156
-378 -196 -79 -66 -602 -316 -849 -405 -35 -13 -83 -40 -107 -61 -33 -29 -109
-63 -351 -159 -169 -67 -369 -152 -443 -189 -179 -89 -380 -235 -380 -276 0
-40 111 5 320 130 216 129 439 241 567 286 32 11 93 24 136 30 66 8 97 19 190
69 62 32 211 97 332 145 283 111 404 170 487 237 37 30 121 85 186 122 65 37
144 89 175 116 38 32 70 51 95 55 98 16 134 28 148 50 75 114 131 -63 209
-650 56 -419 97 -623 160 -790 34 -92 74 -154 86 -133 10 17 42 235 64 438 30
268 57 410 77 410 15 0 82 -73 117 -129 45 -70 47 -93 17 -162 -35 -77 -42
-118 -23 -144 14 -18 27 -20 114 -20 115 0 136 -9 258 -107 101 -81 206 -157
267 -192 66 -39 72 -62 50 -208 -12 -79 -15 -118 -8 -118 6 0 56 9 111 19 55
11 135 23 179 27 67 6 84 11 111 36 18 15 39 28 47 28 24 0 53 -39 101 -135
69 -138 58 -130 179 -130 81 0 110 -4 138 -19 56 -29 98 -76 115 -127 9 -25
25 -55 36 -65 29 -26 109 -26 138 0 27 25 27 45 -3 89 -37 55 -47 99 -53 248
-6 136 -6 137 18 152 31 19 132 29 169 16 38 -14 55 -58 54 -144 0 -56 -7 -85
-32 -142 -82 -188 -93 -215 -88 -220 3 -3 128 1 278 8 150 8 352 14 448 14
159 -1 181 -3 237 -24 115 -43 196 -18 222 69 14 48 43 65 126 75 190 23 358
124 425 255 34 68 86 117 146 139 76 29 129 64 206 139 l67 65 79 2 c58 1 88
7 113 21 l34 20 0 112 0 112 31 25 c35 27 48 55 64 136 26 134 79 112 130 -54
34 -112 69 -196 99 -241 16 -23 52 -88 81 -146 87 -174 125 -209 148 -133 61
205 82 1047 33 1291 -36 178 -28 193 70 123 76 -54 140 -84 244 -116 296 -88
1028 -386 1546 -628 123 -58 232 -97 269 -97 36 0 60 32 60 78 0 68 -31 91
-185 137 -175 52 -341 108 -440 147 -55 22 -154 60 -220 83 -66 23 -212 80
-325 125 -259 104 -319 125 -427 145 -162 30 -427 159 -518 251 -27 28 -81
104 -120 169 -83 140 -125 179 -242 231 -49 21 -92 41 -96 45 -5 3 8 47 27 98
47 123 55 153 71 290 15 128 27 166 75 236 41 60 70 124 70 157 0 15 13 54 30
85 16 32 50 135 74 229 28 106 62 210 90 270 49 108 67 183 91 376 22 187 23
188 135 219 89 24 120 40 171 86 52 47 79 100 90 182 7 45 22 88 51 140 22 42
49 109 60 150 10 42 50 141 88 221 38 80 76 175 85 212 8 37 33 101 54 142 22
41 42 96 46 123 15 122 25 164 45 191 15 20 24 54 31 123 20 190 25 207 103
364 50 101 78 171 86 214 6 36 32 109 56 164 56 123 91 229 105 316 29 186 45
246 104 410 90 250 100 357 39 409 -25 22 -35 24 -88 19 -38 -3 -107 -22 -181
-50 -66 -25 -141 -48 -166 -51 -25 -3 -74 -19 -110 -36 -67 -32 -120 -38 -136
-17 -36 44 -50 175 -63 587 -21 659 -32 766 -101 934 -53 128 -66 199 -89 471
-31 377 -132 858 -215 1030 -19 41 -61 101 -100 144 -90 100 -123 147 -136
194 -8 32 -34 64 -118 146 -131 129 -172 178 -291 351 -172 250 -367 492 -437
546 -21 16 -68 56 -104 90 -121 113 -208 141 -474 154 -184 8 -229 19 -258 63
-24 37 -164 102 -283 133 -274 69 -668 101 -919 74z m726 -223 c36 -17 66 -41
86 -69 33 -46 93 -161 93 -178 0 -29 -96 3 -165 56 -60 45 -77 48 -340 48
l-250 1 -88 44 -89 44 -76 -11 c-42 -7 -143 -17 -223 -22 -155 -11 -202 -20
-229 -45 -25 -23 -72 -29 -95 -11 -20 14 -20 15 10 46 35 37 99 77 158 98 64
22 181 27 687 27 l466 -1 55 -27z m439 -142 c59 -30 110 -68 192 -143 72 -65
121 -95 178 -107 19 -4 96 -30 170 -57 74 -27 166 -56 203 -63 76 -14 114 -39
96 -62 -6 -7 -20 -13 -30 -13 -25 0 -24 -5 11 -49 17 -21 33 -55 37 -77 7 -47
21 -77 62 -128 63 -79 35 -75 -146 19 -181 93 -297 170 -352 232 -23 26 -53
60 -66 75 -14 14 -46 34 -72 43 -102 35 -118 47 -118 86 0 48 -12 60 -103 105
-84 41 -182 129 -182 163 0 18 3 18 38 9 20 -6 57 -21 82 -33z m-2002 -59 c49
-48 20 -120 -97 -248 -104 -114 -183 -152 -318 -152 -93 -1 -114 87 -31 130
23 12 44 14 84 9 41 -5 55 -3 58 7 18 68 22 73 63 86 39 13 43 18 58 67 34
119 118 165 183 101z m557 -61 c0 -25 -4 -30 -24 -30 -32 0 -49 28 -31 50 7 9
23 15 34 13 16 -2 21 -10 21 -33z m692 -106 c12 -12 34 -57 48 -100 14 -42 32
-82 38 -87 18 -15 44 -16 119 -8 82 10 110 4 123 -25 7 -17 24 -25 65 -34 30
-6 71 -20 91 -32 20 -13 64 -30 99 -39 35 -9 72 -21 82 -27 24 -15 41 -61 33
-87 -14 -44 -105 -76 -144 -51 -8 5 -16 32 -19 65 -5 66 -13 68 -107 36 -74
-25 -88 -25 -144 3 -42 20 -59 22 -206 21 -290 -1 -383 -39 -410 -167 -3 -17
-15 -31 -29 -37 -32 -12 -69 -2 -62 17 13 32 -54 114 -133 165 -49 31 -78 35
-105 15 -15 -11 -16 -18 -5 -61 20 -82 -18 -88 -105 -16 -32 27 -58 40 -78 40
-22 0 -303 -109 -327 -127 -3 -2 27 -36 67 -76 40 -40 72 -76 72 -80 0 -4 -24
-18 -53 -31 -51 -22 -97 -65 -97 -91 0 -20 33 -42 73 -48 47 -7 67 -22 67 -51
1 -49 16 -52 66 -13 51 40 79 45 110 22 28 -21 55 -18 108 10 70 37 147 61
276 85 90 16 137 31 215 69 128 63 184 75 325 76 l115 0 145 -94 c80 -51 166
-111 192 -133 55 -45 122 -77 161 -78 37 0 96 25 127 55 35 33 103 62 182 75
60 11 70 10 110 -8 23 -11 81 -54 127 -96 46 -42 87 -76 91 -76 11 0 46 43 64
77 9 18 21 67 27 110 6 43 20 99 31 126 22 50 68 97 96 97 26 0 126 -110 156
-173 16 -31 31 -77 34 -102 4 -40 1 -48 -30 -79 -26 -26 -48 -37 -93 -46 -33
-6 -68 -14 -78 -17 -14 -4 14 -24 100 -75 207 -122 275 -186 288 -271 10 -67
25 -95 60 -116 24 -14 37 -31 44 -59 11 -40 28 -59 73 -81 35 -18 88 -119 123
-236 35 -113 101 -278 151 -375 l39 -75 -2 -114 c-1 -82 2 -122 12 -141 22
-43 154 -120 205 -120 29 0 50 55 50 130 0 73 13 104 41 95 24 -8 25 11 4 78
-8 27 -19 87 -25 135 -6 48 -19 112 -30 142 -29 84 -39 158 -50 375 -12 235
-16 268 -40 315 -34 65 -162 173 -272 229 -58 30 -87 53 -140 114 -90 105
-138 179 -154 239 -8 31 -25 62 -43 80 -46 45 -101 208 -70 208 7 0 65 -39
128 -87 210 -159 419 -390 496 -548 18 -38 54 -94 80 -124 124 -145 202 -425
240 -863 9 -101 26 -235 37 -298 30 -165 32 -189 18 -215 -28 -52 25 -200 100
-281 22 -24 40 -46 40 -48 0 -3 -9 -28 -20 -56 -23 -59 -25 -135 -8 -292 10
-94 10 -122 -5 -211 -10 -56 -24 -167 -32 -247 -27 -263 -38 -294 -104 -288
-26 2 -39 10 -48 28 -16 31 -17 233 -2 498 11 201 4 279 -26 318 -15 19 -15
19 -30 -1 -25 -32 -63 -165 -75 -261 -22 -183 -32 -227 -66 -290 -40 -76 -42
-109 -9 -189 28 -69 34 -169 11 -200 -8 -11 -29 -24 -47 -30 l-34 -12 -1 -74
c-1 -66 -5 -82 -41 -150 -53 -99 -74 -206 -50 -252 27 -55 29 -74 12 -192 -9
-66 -17 -212 -20 -343 -2 -135 -8 -243 -15 -267 -36 -121 -86 -162 -212 -177
-117 -14 -128 -17 -128 -34 0 -21 94 -62 188 -82 74 -15 82 -15 148 2 108 29
133 31 140 11 5 -12 -8 -31 -45 -66 -45 -43 -52 -54 -49 -82 3 -29 6 -32 38
-32 35 0 35 0 33 -42 -2 -52 -28 -103 -52 -103 -20 0 -31 26 -31 72 0 34 -42
83 -94 110 -31 17 -64 23 -138 26 -54 2 -109 1 -123 -2 -22 -6 -55 -50 -55
-74 0 -5 26 -9 58 -9 43 1 76 -8 133 -32 113 -48 142 -76 164 -156 21 -79 13
-95 -34 -70 -18 9 -64 45 -102 81 -110 100 -192 140 -223 108 -9 -8 -16 -19
-16 -23 0 -11 61 -67 88 -80 28 -15 62 -68 62 -98 0 -13 12 -28 35 -42 22 -13
35 -28 35 -41 0 -29 32 -88 75 -140 53 -63 67 -94 52 -113 -7 -9 -56 -36 -109
-61 -115 -53 -127 -69 -109 -142 15 -60 6 -70 -50 -56 -53 14 -63 9 -81 -37
-13 -34 -23 -42 -74 -61 -33 -12 -67 -29 -76 -37 -37 -33 -9 -143 36 -143 10
0 41 20 67 45 29 27 58 45 72 45 26 0 178 -60 202 -80 19 -16 19 -25 -1 -44
-11 -11 -34 -16 -75 -16 -55 0 -60 -2 -54 -20 5 -15 0 -21 -22 -26 -49 -10
-53 -13 -65 -40 -11 -24 -10 -29 15 -49 21 -19 44 -25 106 -30 70 -7 80 -10
90 -31 9 -21 14 -22 37 -14 36 14 70 -9 84 -57 19 -68 32 -294 27 -483 -5
-187 -10 -214 -48 -261 -13 -17 -24 -50 -30 -99 -15 -126 -87 -328 -134 -380
-23 -25 -45 -87 -45 -124 0 -20 -14 -61 -34 -98 -36 -69 -59 -151 -75 -270
-21 -155 -53 -254 -110 -343 -22 -33 -62 -108 -89 -167 -28 -59 -84 -158 -125
-220 -80 -122 -296 -413 -421 -568 -49 -61 -95 -132 -128 -200 -37 -77 -65
-119 -103 -156 -43 -42 -55 -61 -64 -103 -23 -109 -113 -240 -217 -319 -232
-175 -630 -291 -999 -292 -140 0 -210 13 -302 55 -55 25 -182 114 -249 175
-43 40 -43 40 -253 68 -89 13 -111 30 -135 110 -10 31 -33 91 -51 132 -35 81
-193 380 -220 418 -10 13 -60 43 -112 68 -103 47 -139 73 -253 178 -41 38 -88
75 -106 82 -32 14 -44 31 -44 65 0 10 -32 52 -71 92 -130 131 -384 449 -428
535 -11 20 -51 74 -90 120 -83 99 -103 129 -131 204 -15 42 -41 79 -94 135
-101 108 -107 122 -146 346 -11 66 -30 144 -41 175 -40 108 -60 188 -80 317
-25 166 -35 443 -20 550 21 143 56 182 180 192 l70 6 -45 46 c-62 64 -96 132
-102 208 -5 65 13 113 42 113 18 0 22 -13 32 -86 l7 -59 12 58 c12 62 49 111
91 121 29 8 98 93 114 142 19 55 5 61 -87 39 -43 -10 -99 -20 -125 -22 -44 -5
-49 -3 -58 21 -15 41 6 73 80 116 62 36 150 118 150 139 0 5 3 17 7 26 5 14 2
16 -15 11 -16 -5 -27 0 -43 18 -30 34 -48 33 -152 -9 -47 -20 -108 -38 -135
-42 -48 -5 -49 -5 -93 45 -50 56 -112 164 -107 188 2 9 36 29 78 46 41 17 93
43 115 57 45 30 54 64 17 69 -26 4 -46 35 -37 61 7 23 60 46 150 66 92 20 123
40 155 100 18 35 40 57 69 74 48 26 59 44 41 66 -25 30 -159 11 -200 -27 -19
-18 -21 -28 -16 -64 3 -25 1 -46 -5 -50 -20 -12 -59 7 -74 36 -28 53 -104 49
-160 -10 -34 -35 -51 -38 -60 -9 -7 22 -60 49 -96 49 -57 0 -78 69 -34 110 30
28 87 39 215 40 117 0 144 12 148 61 4 48 -15 65 -80 74 -75 10 -135 41 -193
100 -60 59 -79 97 -111 216 -13 49 -33 107 -44 129 -25 49 -25 67 0 105 25 38
25 49 -1 84 -13 18 -24 54 -30 102 -11 91 -24 130 -61 191 -16 25 -33 73 -39
105 -19 102 -21 108 -54 111 -56 5 -75 12 -91 36 -21 33 -6 59 46 86 22 11 45
30 52 43 18 31 18 477 0 528 -7 19 -35 62 -63 95 -57 66 -84 115 -105 184 -18
60 -36 77 -68 62 -33 -15 -58 -75 -57 -136 0 -63 14 -102 47 -137 36 -37 48
-151 39 -379 -11 -307 -27 -385 -87 -416 -72 -37 -87 8 -98 290 -9 206 -19
285 -41 312 -33 41 -38 538 -6 654 16 58 61 110 96 110 25 0 78 44 96 81 8 15
15 43 15 62 0 36 23 70 148 216 71 85 85 115 79 169 -6 53 -32 92 -74 111 -41
18 -64 61 -70 132 -6 66 2 84 46 92 18 4 37 20 55 47 19 30 43 49 80 65 39 17
56 32 66 54 17 41 5 79 -30 99 -37 21 -48 46 -62 138 -16 105 -2 175 50 244
22 29 66 101 98 159 70 129 103 181 116 181 39 0 -106 -345 -177 -420 -58 -62
-69 -105 -40 -160 29 -57 91 -49 200 25 82 57 138 85 168 85 29 0 64 38 107
115 65 117 211 226 360 269 67 20 120 51 120 71 0 12 16 14 108 8 172 -9 215
14 205 113 -5 50 -4 54 18 62 13 5 62 12 109 15 116 8 184 30 232 76 33 30 40
43 40 75 0 21 -4 42 -9 47 -6 6 -39 0 -89 -16 -89 -30 -154 -29 -234 1 -32 13
-76 18 -154 18 l-109 1 -11 40 c-10 34 -17 42 -51 53 -22 7 -43 18 -47 25 -16
25 -7 59 22 89 41 40 77 33 141 -27 61 -57 91 -59 120 -10 12 19 24 35 27 35
4 0 27 -16 51 -36 26 -20 54 -34 65 -32 19 3 21 9 18 56 -3 64 9 82 54 82 37
0 74 29 74 58 0 24 -32 69 -74 104 -20 16 -36 35 -36 42 0 16 77 50 162 72 51
14 94 16 229 11 189 -7 191 -6 235 70 35 58 91 99 159 114 68 15 100 6 138
-37 17 -18 36 -34 42 -34 6 0 34 18 64 40 59 45 159 79 311 107 73 13 144 17
309 16 121 -1 223 2 233 8 10 5 36 37 59 72 66 99 94 114 136 76z m-476 -735
c17 -21 0 -49 -32 -49 -24 0 -36 23 -25 51 7 19 40 18 57 -2z m-2156 -299 c21
-20 25 -34 25 -79 0 -77 -10 -85 -125 -106 -33 -5 -87 -23 -120 -40 -33 -16
-78 -32 -99 -35 -24 -4 -47 -16 -60 -32 -46 -56 -66 -73 -86 -73 -11 0 -20 7
-20 15 0 31 139 149 210 178 98 41 108 48 140 108 48 90 90 110 135 64z m6409
-3251 c29 -29 20 -93 -29 -196 -34 -71 -60 -156 -104 -329 -83 -326 -156 -563
-228 -739 -19 -47 -39 -90 -44 -96 -22 -27 -70 -183 -95 -306 -54 -273 -201
-726 -254 -783 -31 -33 -74 -138 -135 -330 -94 -293 -116 -332 -219 -390 -90
-50 -108 -48 -184 27 -34 34 -65 73 -69 86 -17 68 32 364 89 537 16 50 45 122
64 162 32 66 53 93 134 165 20 18 30 36 30 55 0 15 5 35 10 43 9 13 13 12 30
-9 15 -17 20 -38 20 -80 0 -79 -15 -122 -60 -177 -22 -26 -42 -61 -46 -77 -13
-62 68 -118 121 -83 90 59 154 266 185 601 18 193 47 340 83 419 32 70 32 73
33 236 1 200 21 300 67 339 23 19 47 -23 48 -84 0 -62 19 -119 40 -123 9 -2
30 11 47 27 98 98 126 497 41 587 -30 32 -72 31 -105 -1 -70 -70 -228 -511
-288 -804 -15 -71 -38 -149 -55 -185 -26 -53 -31 -78 -39 -189 -9 -141 -21
-168 -52 -129 -23 28 -27 58 -40 307 -10 198 -21 270 -54 333 -25 49 -37 124
-25 166 15 53 42 48 105 -19 41 -42 59 -55 82 -55 43 0 54 19 46 78 -7 52 2
69 52 98 18 11 18 13 -8 41 -16 16 -28 34 -28 40 0 6 15 22 34 37 48 36 52 57
21 123 -37 82 -46 129 -34 185 17 75 76 132 216 208 189 103 283 159 345 205
32 24 82 52 111 63 28 11 59 22 67 25 28 10 59 7 74 -9z m-8199 -200 c92 -46
171 -121 327 -306 245 -292 269 -328 292 -449 14 -72 29 -120 90 -286 14 -40
26 -94 26 -119 0 -76 80 -184 148 -200 64 -16 68 -49 15 -143 -34 -61 -37 -73
-39 -150 -1 -75 -3 -86 -24 -103 -53 -43 -65 -20 -73 138 -7 133 -13 157 -49
196 -13 15 -47 97 -79 190 -31 90 -68 190 -82 223 -16 37 -30 98 -37 155 -6
52 -16 109 -21 127 -13 40 -73 109 -152 171 -134 107 -187 114 -187 24 1 -64
29 -122 89 -182 63 -63 92 -113 140 -239 21 -55 50 -116 65 -135 37 -50 46
-78 61 -198 19 -146 61 -310 161 -630 105 -331 110 -352 123 -453 13 -106 40
-127 109 -85 50 31 59 61 37 121 -32 90 -8 330 39 394 14 19 15 19 26 -10 6
-16 20 -73 31 -125 10 -52 32 -133 48 -180 32 -91 69 -233 96 -370 27 -134 53
-207 85 -240 30 -31 36 -55 30 -130 -3 -45 -26 -90 -46 -90 -28 0 -91 -39
-124 -77 -68 -77 -79 -78 -169 -3 -63 53 -127 141 -186 260 -55 110 -67 147
-70 230 -3 63 -12 99 -53 206 -28 71 -57 159 -66 194 -15 64 -29 104 -99 270
-45 109 -97 287 -136 471 -47 218 -76 312 -141 444 -33 66 -71 163 -85 215
-71 255 -90 315 -120 364 -48 81 -61 121 -94 293 -31 158 -38 233 -24 247 12
11 62 -1 118 -30z m1228 -1682 c21 -19 22 -51 1 -80 -19 -27 -50 -29 -64 -3
-15 29 -12 77 6 95 16 17 26 14 57 -12z m5545 -694 c18 -18 15 -46 -6 -57 -39
-21 -73 36 -34 58 22 13 26 13 40 -1z m-5343 -147 c0 -55 -20 -65 -39 -20 -16
39 -5 72 22 67 13 -2 17 -14 17 -47z m886 -3674 c60 -41 74 -103 44 -205 -22
-73 -66 -114 -138 -129 -42 -9 -75 -25 -119 -58 -78 -58 -111 -59 -116 -2 -5
60 102 287 180 382 25 30 35 35 72 35 28 0 55 -8 77 -23z m3569 -291 c30 -8
61 -23 67 -33 7 -10 42 -58 78 -106 102 -137 130 -203 102 -241 -14 -18 -17
-18 -114 27 -73 35 -111 47 -145 47 -35 0 -54 6 -77 26 -39 32 -102 159 -108
217 -5 38 -2 47 18 61 29 20 106 21 179 2z m-3019 -228 c45 -61 97 -174 111
-239 21 -101 -11 -140 -171 -209 -127 -55 -131 -54 -131 19 0 118 67 390 111
444 28 37 44 34 80 -15z m1936 -448 c43 -26 63 -67 72 -153 6 -54 0 -241 -8
-275 -2 -7 -124 101 -194 169 -37 37 -74 84 -82 103 -21 50 -6 104 40 145 30
26 44 31 88 31 34 0 63 -7 84 -20z"/>
<path d="M4357 11584 c-24 -24 14 -119 58 -148 99 -65 185 8 100 83 -55 48
-140 83 -158 65z"/>
<path d="M7324 11422 c-27 -21 -47 -59 -39 -72 11 -18 36 -10 66 19 51 51 27
98 -27 53z"/>
<path d="M5784 11393 c-19 -45 -7 -79 31 -89 31 -8 73 9 82 32 8 22 -17 63
-49 80 -40 21 -47 18 -64 -23z"/>
<path d="M5110 10995 c-7 -8 -16 -48 -20 -88 -8 -86 -20 -107 -82 -152 -84
-61 -75 -119 25 -168 72 -36 85 -56 96 -144 11 -91 25 -114 111 -196 65 -62
71 -70 57 -84 -27 -28 -105 -8 -147 37 -19 20 -45 42 -57 49 -25 13 -103 15
-103 2 0 -5 27 -40 59 -79 107 -128 171 -237 171 -292 0 -24 10 -40 40 -67 43
-39 49 -62 24 -87 -25 -26 -55 -18 -118 29 -73 55 -93 56 -192 11 -98 -46
-140 -76 -122 -87 24 -16 200 -70 338 -104 221 -54 314 -55 327 -5 7 28 33 25
116 -12 100 -45 138 -43 257 14 110 52 137 76 121 107 -6 11 -41 41 -78 67
l-66 48 39 34 c68 58 129 82 215 82 95 0 141 -25 149 -80 4 -31 9 -35 42 -41
20 -3 47 -13 60 -23 12 -9 38 -27 56 -41 19 -13 72 -33 125 -45 128 -30 166
-51 281 -159 56 -51 121 -103 146 -115 27 -13 55 -37 73 -63 15 -24 35 -43 42
-43 35 0 53 62 55 186 0 17 11 46 25 65 74 102 77 108 71 134 -10 39 -72 72
-194 103 -131 33 -152 49 -159 116 -7 59 10 99 58 137 22 17 37 35 34 39 -3 5
-22 14 -43 20 -20 7 -49 24 -64 38 -43 40 -51 80 -44 208 l7 114 -24 9 c-34
13 -84 -2 -128 -38 -47 -39 -71 -89 -68 -146 3 -49 -3 -60 -25 -52 -18 7 -36
68 -36 125 0 75 -40 137 -102 161 -23 8 -29 7 -42 -13 -9 -14 -29 -26 -50 -30
-21 -4 -45 -19 -60 -36 -29 -35 -42 -38 -51 -9 -18 54 -116 55 -168 2 -63 -67
-72 -145 -28 -273 16 -47 26 -88 22 -92 -12 -14 -305 -70 -371 -71 -55 -2 -72
2 -112 25 -57 34 -103 88 -124 148 -9 25 -41 98 -72 163 l-55 119 32 92 c33
98 40 184 19 231 -7 15 -35 38 -70 57 -34 18 -72 49 -90 72 -48 62 -91 106
-104 106 -6 0 -17 -7 -24 -15z m1229 -663 c20 -22 23 -33 19 -79 -7 -78 -54
-119 -89 -76 -15 17 -20 144 -7 176 10 24 45 15 77 -21z"/>
<path d="M4578 10809 c-22 -12 -23 -38 -3 -45 20 -8 45 13 45 37 0 21 -16 24
-42 8z"/>
<path d="M4702 10744 c-30 -20 -27 -68 4 -72 26 -4 56 30 52 60 -4 28 -26 33
-56 12z"/>
<path d="M4465 10627 c-34 -19 -40 -28 -43 -60 -3 -31 1 -39 22 -48 40 -19 95
-2 138 41 40 40 49 74 22 84 -34 13 -100 5 -139 -17z"/>
<path d="M4704 10561 c-18 -11 -67 -51 -110 -90 -43 -40 -89 -74 -102 -78 -15
-3 -37 2 -61 15 -48 27 -143 52 -197 52 -55 0 -95 -29 -161 -115 -62 -82 -84
-141 -74 -205 9 -57 -3 -106 -29 -120 -12 -6 -20 -21 -20 -36 0 -61 186 -93
263 -45 21 13 41 20 45 17 3 -4 -8 -36 -26 -72 -37 -75 -40 -108 -11 -149 11
-16 36 -61 56 -100 39 -78 78 -125 104 -125 25 0 67 38 89 79 27 55 84 101
122 101 l32 0 -37 34 c-20 18 -37 37 -37 40 0 4 14 34 30 67 36 70 52 173 39
245 -10 52 -15 60 -51 78 -53 27 -20 129 47 142 19 3 35 8 35 11 0 2 -11 24
-25 47 -23 39 -24 45 -10 56 38 32 185 -64 185 -120 0 -20 -3 -22 -35 -17 -25
4 -35 2 -35 -7 0 -34 124 -167 170 -181 42 -13 46 8 16 102 -50 156 -57 173
-88 196 -39 29 -58 67 -58 117 0 41 -14 80 -28 80 -4 0 -21 -9 -38 -19z m-572
-258 c31 -28 16 -93 -22 -93 -34 0 -55 71 -28 98 16 16 28 15 50 -5z m302
-449 c21 -20 20 -27 -4 -49 -19 -17 -21 -17 -40 0 -11 10 -20 22 -20 26 0 10
29 39 40 39 5 0 16 -7 24 -16z"/>
<path d="M5590 10305 c-29 -31 -30 -76 -3 -113 30 -41 99 -90 145 -104 38 -11
42 -10 59 11 23 29 18 57 -25 130 -54 93 -129 126 -176 76z"/>
<path d="M7680 10243 c0 -5 13 -30 30 -55 51 -77 186 -131 235 -94 31 23 10
45 -96 99 -92 47 -169 70 -169 50z"/>
<path d="M4958 9955 c-57 -31 -43 -85 21 -85 63 0 96 45 61 80 -23 23 -45 25
-82 5z"/>
<path d="M3672 9678 c-18 -18 -14 -46 7 -58 15 -7 23 -6 35 6 21 21 20 41 -3
54 -24 13 -24 13 -39 -2z"/>
<path d="M3520 9561 c-36 -10 -81 -25 -100 -33 -38 -16 -90 -70 -90 -93 0 -17
31 -35 59 -35 27 0 47 -34 55 -91 8 -56 47 -100 74 -83 20 13 30 44 31 101 1
60 27 115 64 138 53 33 48 116 -7 114 -11 0 -50 -8 -86 -18z"/>
<path d="M3726 9549 c-48 -37 -25 -98 31 -84 38 9 154 85 147 96 -3 5 -38 9
-78 9 -59 0 -78 -4 -100 -21z"/>
<path d="M4061 9516 c-37 -28 -66 -64 -57 -73 13 -14 99 10 128 36 61 54 -3
87 -71 37z"/>
<path d="M3316 9344 c-20 -20 -21 -88 -1 -104 35 -29 89 35 66 79 -18 33 -47
44 -65 25z"/>
<path d="M7802 9088 c2 -12 15 -29 30 -38 25 -13 29 -13 45 3 25 25 6 51 -41
55 -34 3 -37 1 -34 -20z"/>
<path d="M2642 9073 c-7 -3 -26 -32 -43 -65 -17 -34 -61 -93 -99 -133 -37 -39
-78 -91 -90 -115 -29 -56 -37 -138 -16 -165 23 -31 44 -11 103 99 54 101 82
144 139 208 66 74 70 193 6 171z"/>
<path d="M7154 9051 c-45 -20 -61 -46 -43 -67 26 -31 101 -8 119 37 22 51 -6
62 -76 30z"/>
<path d="M7326 9054 c-3 -9 -6 -42 -6 -74 0 -80 16 -93 79 -60 60 32 64 56 15
109 -38 43 -77 54 -88 25z"/>
<path d="M3077 8913 c-15 -14 -5 -46 27 -93 21 -31 39 -73 46 -108 6 -31 16
-81 21 -110 10 -48 30 -74 46 -59 3 3 8 26 10 52 7 55 21 57 103 19 77 -37
119 -36 167 2 44 36 86 58 126 68 41 10 36 49 -13 98 -51 51 -79 49 -100 -9
-8 -22 -24 -50 -34 -62 -66 -72 -239 -2 -313 127 -43 76 -66 96 -86 75z"/>
<path d="M6486 8609 c-98 -10 -263 -51 -346 -85 -84 -34 -127 -63 -177 -118
-53 -59 -104 -81 -235 -105 -112 -21 -152 -33 -163 -52 -14 -22 21 -30 110
-25 176 10 251 37 346 122 75 67 173 115 296 146 121 30 350 30 468 0 44 -11
84 -17 88 -12 27 25 -56 100 -132 119 -59 15 -171 20 -255 10z"/>
<path d="M3626 8552 c-8 -14 18 -56 44 -69 55 -28 146 -7 125 28 -20 32 -154
65 -169 41z"/>
<path d="M3030 8470 c-48 -48 -6 -105 90 -125 102 -22 110 -20 72 15 -29 26
-32 34 -27 64 6 31 4 36 -24 50 -41 22 -87 20 -111 -4z"/>
<path d="M3355 8448 c-24 -21 -26 -27 -16 -46 6 -12 21 -22 32 -22 27 0 81 24
97 42 16 20 -3 37 -50 45 -27 4 -41 0 -63 -19z"/>
<path d="M3913 8450 c-35 -14 -28 -38 15 -50 70 -19 157 -31 207 -28 42 2 50
6 50 23 0 14 -13 24 -49 38 -57 21 -191 31 -223 17z"/>
<path d="M7235 8254 c-304 -45 -585 -119 -585 -153 0 -30 282 0 435 46 81 25
105 28 230 27 159 -1 255 -18 351 -63 51 -24 64 -35 75 -65 15 -40 44 -55 66
-34 39 40 -48 147 -165 205 l-76 38 -150 2 c-83 0 -164 -1 -181 -3z"/>
<path d="M3532 8226 c-219 -42 -422 -142 -410 -202 6 -32 38 -27 133 20 140
70 201 80 510 80 369 0 607 -35 906 -133 172 -57 199 -61 199 -32 0 47 -116
103 -330 159 -358 95 -817 144 -1008 108z"/>
<path d="M3324 7908 c-5 -7 -7 -28 -5 -46 2 -25 -5 -41 -28 -68 -64 -72 -30
-90 83 -44 115 46 148 68 144 94 -5 36 -177 92 -194 64z"/>
<path d="M3655 7868 c-2 -7 -6 -30 -10 -50 -4 -29 -2 -38 12 -42 44 -13 221
-26 508 -36 407 -14 503 -24 580 -61 33 -16 105 -38 160 -49 130 -26 162 -37
186 -63 20 -22 26 -22 287 -21 369 1 415 11 712 152 69 32 150 67 180 77 64
20 83 35 75 57 -17 45 -106 27 -283 -56 -253 -118 -307 -131 -547 -130 -212 0
-284 10 -631 90 -105 24 -234 50 -285 59 -123 19 -374 35 -574 35 -176 0 -287
13 -322 35 -27 18 -42 19 -48 3z"/>
<path d="M7377 7865 c-127 -24 -297 -69 -583 -155 -148 -45 -323 -94 -389
-111 -279 -68 -414 -120 -555 -214 -75 -50 -110 -87 -110 -116 0 -15 7 -19 33
-19 33 0 52 10 126 67 27 20 58 34 90 38 27 4 64 17 82 30 39 29 169 73 475
160 288 81 499 145 586 178 146 56 274 81 408 82 104 0 125 2 125 15 0 45
-156 70 -288 45z"/>
<path d="M7686 7727 c-18 -13 -17 -14 9 -35 15 -12 46 -27 69 -32 22 -6 55
-16 71 -22 124 -47 223 -176 273 -357 27 -93 63 -166 82 -166 22 0 24 45 5
138 -35 175 -126 343 -218 403 -90 59 -254 99 -291 71z"/>
<path d="M3160 7691 c-7 -15 -6 -23 6 -35 19 -20 29 -20 48 0 19 19 20 26 4
42 -18 18 -46 14 -58 -7z"/>
<path d="M3523 7624 c-17 -45 52 -81 185 -100 54 -7 216 -17 362 -23 270 -10
323 -18 344 -47 7 -9 36 -20 66 -25 38 -6 60 -16 74 -33 26 -30 39 -37 172
-84 60 -22 129 -49 153 -62 37 -18 56 -21 103 -17 53 5 61 3 94 -24 41 -33 94
-39 115 -13 11 14 10 19 -8 34 -12 9 -39 20 -60 23 -22 4 -77 30 -124 58 -46
29 -122 69 -169 91 -47 22 -125 59 -175 83 -101 49 -162 60 -525 90 -215 18
-444 43 -514 56 -68 13 -86 11 -93 -7z"/>
<path d="M3062 7598 c-18 -18 -14 -46 7 -58 15 -7 23 -6 35 6 21 21 20 41 -3
54 -24 13 -24 13 -39 -2z"/>
<path d="M3350 7594 c-107 -38 -314 -207 -381 -313 -32 -49 -39 -101 -14 -101
8 0 68 51 133 113 150 144 199 183 274 221 74 37 92 61 64 82 -24 17 -20 17
-76 -2z"/>
<path d="M6985 7429 c-265 -23 -410 -58 -460 -113 -20 -22 -42 -36 -57 -36
-25 0 -81 -34 -155 -94 -23 -19 -68 -44 -100 -55 -85 -30 -108 -44 -111 -68
-7 -49 98 -30 270 48 153 69 233 99 267 99 18 0 44 13 70 34 55 46 167 70 561
121 211 27 249 35 250 50 1 6 -9 13 -22 17 -33 9 -394 7 -513 -3z"/>
<path d="M3990 7341 c-25 -17 1 -44 61 -64 30 -11 107 -22 179 -27 146 -10
156 -13 275 -73 146 -74 315 -93 292 -33 -7 19 -33 30 -129 57 -37 10 -105 37
-150 59 -48 23 -123 48 -178 60 -110 24 -327 37 -350 21z"/>
<path d="M7741 7069 c-138 -117 -150 -124 -213 -124 -53 0 -60 -3 -71 -25 -20
-39 -70 -40 -106 -1 -35 38 -41 38 -72 5 -40 -44 -97 -63 -221 -73 -111 -9
-137 -16 -291 -75 -37 -14 -82 -26 -100 -26 l-32 0 33 26 c17 14 32 35 32 46
0 20 -4 21 -87 15 -140 -9 -357 -84 -456 -158 -28 -22 -56 -39 -62 -39 -5 0
-24 17 -41 37 l-32 38 -65 -61 c-70 -66 -161 -126 -226 -149 -49 -17 -81 -8
-123 33 -46 43 -39 69 66 236 65 103 74 149 29 144 -19 -2 -29 -10 -31 -23
-13 -70 -75 -129 -129 -123 -22 2 -36 17 -69 71 -22 37 -50 78 -62 90 l-22 21
0 -39 c0 -22 12 -75 25 -119 38 -118 42 -181 13 -236 -27 -53 -94 -106 -145
-116 -45 -9 -112 22 -145 67 -13 17 -45 42 -71 55 -63 32 -256 80 -382 94
-128 15 -211 36 -249 63 -23 17 -52 22 -140 28 -143 10 -221 23 -326 54 -47
14 -111 28 -142 31 -54 6 -58 5 -58 -13 0 -12 11 -28 25 -37 31 -20 32 -40 3
-60 -47 -33 -108 -7 -108 47 0 22 -55 47 -103 47 -47 0 -62 20 -48 61 6 18 9
35 6 38 -3 2 -36 -5 -73 -17 -171 -55 -222 -49 -316 38 -80 74 -105 90 -138
90 -21 0 -29 -6 -34 -25 -8 -32 0 -63 37 -147 34 -78 36 -98 9 -121 -43 -37
-12 -64 60 -52 45 8 80 -1 80 -19 0 -16 -44 -26 -119 -26 -79 0 -132 -11 -138
-27 -9 -22 74 -100 127 -120 67 -27 269 -23 370 5 195 56 266 72 355 81 137
14 246 0 348 -45 58 -25 91 -34 121 -32 40 3 41 4 42 41 1 47 14 57 76 57 54
0 90 -12 120 -39 11 -11 42 -23 67 -26 99 -13 113 -17 143 -46 17 -16 37 -29
44 -29 23 0 33 33 24 74 -5 21 -6 45 -3 53 9 23 47 11 61 -20 28 -59 218 -168
327 -188 60 -11 204 -9 605 10 237 12 287 25 559 150 74 34 160 69 190 78 44
12 174 18 601 28 532 14 713 24 761 45 13 5 36 19 50 31 14 11 44 23 67 26 47
6 72 27 54 45 -15 15 -86 27 -159 28 -35 0 -63 4 -63 8 0 5 23 28 51 52 115
97 111 221 -8 237 -36 5 -44 1 -102 -48z m-117 -271 c20 -11 19 -12 -13 -25
-38 -16 -206 -21 -258 -9 -45 10 -42 34 5 41 20 4 44 8 52 10 28 7 193 -6 214
-17z m-1030 -57 c8 -12 -140 -50 -198 -51 -24 0 -26 2 -16 14 10 13 33 20 135
40 38 7 74 6 79 -3z"/>
<path d="M6935 6489 c-203 -18 -287 -39 -670 -174 -236 -82 -306 -116 -372
-181 -47 -44 -53 -55 -53 -90 0 -25 13 -67 36 -114 20 -41 46 -105 58 -141 24
-69 123 -246 151 -269 25 -21 45 -66 45 -103 0 -64 14 -71 120 -61 156 16 298
-12 370 -73 26 -21 30 -31 28 -66 -3 -37 0 -42 19 -45 17 -3 26 4 35 25 7 15
13 29 14 31 1 2 20 -9 43 -23 35 -24 47 -26 87 -20 88 13 254 -62 254 -115 0
-10 8 -26 17 -35 16 -16 18 -16 35 5 22 27 24 90 4 129 -10 18 -31 34 -60 45
-24 9 -47 24 -50 31 -10 27 52 81 217 194 176 120 231 168 225 197 -6 32 -44
27 -141 -17 -109 -50 -154 -56 -307 -39 -60 6 -118 9 -130 5 -48 -15 -3 -65
87 -96 34 -11 69 -29 78 -39 16 -18 15 -19 -21 -26 -50 -9 -286 11 -350 31
-33 9 -58 24 -68 40 -10 15 -29 26 -53 31 -66 11 -201 82 -253 132 -42 41 -49
54 -55 102 -9 66 -14 78 -45 93 -35 18 -35 34 2 54 26 14 63 18 169 21 127 4
140 2 215 -24 111 -39 138 -43 329 -53 94 -5 178 -12 187 -16 9 -4 18 -16 20
-28 2 -18 11 -23 42 -25 79 -7 156 43 156 100 0 35 27 67 63 76 19 5 37 18 44
33 7 14 30 33 50 41 21 9 57 24 81 33 l42 18 0 54 c0 60 17 109 48 137 12 10
58 33 104 52 45 18 76 35 68 38 -8 2 -71 14 -139 26 -68 12 -172 37 -231 56
-165 50 -323 63 -545 43z m299 -109 c114 -38 285 -122 316 -155 22 -23 22 -27
8 -41 -23 -24 -63 -11 -162 52 -52 33 -119 65 -169 80 -113 36 -157 55 -157
69 0 35 47 33 164 -5z m-634 -61 c0 -22 -207 -214 -270 -251 -61 -36 -110 -49
-110 -29 0 31 128 155 235 228 80 54 145 78 145 52z m410 -54 c34 -18 80 -71
80 -93 0 -28 -57 -119 -87 -140 -44 -30 -101 -45 -149 -38 -94 13 -144 64
-144 148 0 41 5 52 35 82 62 62 187 81 265 41z m226 -54 c75 -35 97 -62 88
-110 l-7 -34 37 6 c20 3 36 2 36 -3 0 -29 -186 -150 -230 -150 -38 0 -44 25
-25 103 20 78 25 172 11 200 -12 26 18 22 90 -12z m-1060 -39 c-25 -49 -94
-130 -117 -137 -30 -10 -53 16 -45 49 7 28 127 116 159 116 16 0 16 -2 3 -28z
m444 -37 c15 -32 26 -72 28 -112 4 -57 2 -63 -15 -63 -10 0 -34 15 -52 34 -27
27 -35 45 -39 84 -5 52 19 116 41 110 7 -2 23 -26 37 -53z"/>
<path d="M6866 6225 c-21 -21 -22 -113 -2 -141 12 -15 19 -17 33 -8 49 29 53
120 7 151 -19 12 -24 12 -38 -2z"/>
<path d="M3980 6405 c-83 -17 -126 -33 -225 -83 -108 -54 -195 -80 -352 -102
-128 -19 -213 -43 -213 -61 0 -11 28 -17 113 -22 38 -3 74 -10 79 -15 17 -17
27 -97 27 -224 1 -65 5 -118 10 -118 4 0 60 23 122 52 126 58 155 62 254 35
85 -24 368 -32 600 -18 415 25 452 26 479 7 33 -21 35 -79 5 -131 -16 -27 -21
-51 -20 -97 2 -97 -46 -154 -199 -237 -112 -60 -291 -120 -438 -146 -51 -9
-94 -23 -113 -37 -28 -21 -40 -23 -162 -21 -150 1 -210 15 -215 50 -4 30 40
41 213 53 124 9 206 21 245 36 23 9 -16 22 -68 23 -32 1 -49 7 -66 26 -29 31
-114 44 -288 45 -64 0 -140 5 -167 11 -45 9 -56 17 -94 67 -32 42 -49 57 -67
57 -25 0 -25 -1 -24 -85 0 -73 4 -93 28 -139 15 -29 48 -73 73 -98 50 -48 179
-115 302 -156 79 -27 91 -37 91 -79 0 -34 8 -35 68 -3 59 32 90 31 152 -1 47
-25 51 -25 73 -10 12 9 37 28 56 41 18 14 50 27 70 30 85 13 142 38 222 96 97
71 151 98 195 99 38 0 50 -13 59 -62 17 -88 61 -62 131 77 54 108 68 124 92
108 28 -17 60 -83 72 -148 11 -58 9 -72 -19 -191 -48 -198 -78 -264 -120 -264
-24 0 -110 -53 -163 -99 -71 -63 -88 -107 -88 -228 0 -92 2 -105 30 -156 17
-31 30 -67 30 -79 0 -60 77 -129 165 -148 57 -13 122 -53 215 -135 80 -71 153
-120 249 -170 56 -30 77 -46 87 -71 7 -17 27 -43 44 -58 47 -39 180 -100 220
-100 41 -1 148 61 285 164 123 93 131 103 139 175 14 123 30 157 116 250 60
64 91 109 126 181 30 60 58 103 77 116 29 21 29 23 25 92 -5 79 -64 241 -87
241 -7 0 -21 -19 -30 -42 -9 -24 -24 -51 -34 -60 -16 -16 -18 -16 -33 -1 -13
13 -18 42 -21 125 -5 129 -25 203 -68 249 -40 42 -83 45 -131 9 -46 -35 -61
-32 -74 14 -6 22 -18 49 -28 61 -18 22 -21 22 -71 9 -49 -12 -52 -15 -45 -39
12 -40 8 -67 -15 -98 -28 -39 -27 -42 12 -42 47 0 99 -40 150 -117 46 -69 93
-186 81 -204 -3 -6 -24 -7 -50 -3 -57 8 -78 -9 -94 -77 -9 -38 -9 -65 0 -117
16 -93 62 -254 70 -245 4 5 20 39 36 77 34 83 83 139 116 134 44 -6 35 -52
-41 -219 -38 -85 -77 -179 -87 -209 -25 -77 -102 -157 -206 -210 -95 -50 -107
-49 -205 11 -37 23 -93 53 -123 66 -65 29 -90 50 -90 73 0 10 -22 48 -50 86
-27 38 -50 73 -50 79 0 6 11 27 25 47 27 40 33 86 13 106 -20 20 -69 14 -104
-13 -42 -32 -51 -32 -92 8 l-33 32 -142 3 c-78 2 -148 9 -154 14 -24 20 -13
63 32 129 65 96 170 163 216 138 10 -5 19 -16 19 -24 0 -19 53 -58 144 -105
94 -49 126 -52 126 -12 0 51 -21 104 -56 138 -31 32 -34 40 -34 93 0 45 4 62
20 76 26 24 43 15 72 -37 17 -32 29 -43 48 -43 48 0 48 108 0 132 -34 17 -43
38 -24 57 8 9 24 16 35 16 28 0 75 26 93 52 45 63 -20 156 -108 156 -32 -1
-56 23 -56 54 0 11 -16 67 -37 126 l-36 107 -8 323 c-14 558 -28 595 -250 636
-46 9 -190 41 -319 71 -129 29 -283 61 -341 69 -127 19 -329 19 -419 1z m508
-92 c31 -16 105 -65 163 -109 59 -43 127 -91 152 -106 53 -31 86 -73 69 -90
-19 -19 -56 0 -171 92 -134 106 -219 159 -330 201 -45 17 -81 35 -81 41 0 7
25 9 71 6 52 -4 85 -13 127 -35z m407 -98 c59 -32 159 -108 180 -138 19 -28
19 -66 0 -73 -8 -4 -27 2 -43 12 -36 23 -212 201 -212 214 0 16 24 12 75 -15z
m-650 -9 c28 -12 65 -40 84 -61 30 -35 33 -43 29 -87 -8 -80 -28 -92 -151 -96
-120 -4 -175 8 -219 47 -27 24 -32 36 -36 89 -5 68 11 106 51 122 12 5 60 9
107 9 69 1 95 -4 135 -23z m-418 -62 c-6 -57 -40 -144 -56 -144 -5 0 -24 29
-41 64 -38 76 -32 97 32 126 60 27 72 18 65 -46z m731 -33 c68 -35 122 -80
122 -102 0 -15 -15 -27 -62 -48 -61 -27 -187 -66 -193 -59 -6 7 78 228 87 228
5 0 25 -9 46 -19z"/>
<path d="M4102 6158 c-19 -19 -15 -92 6 -111 27 -24 65 -21 91 7 33 35 22 70
-29 96 -46 23 -52 24 -68 8z"/>
<path d="M3055 6018 c-10 -26 -2 -52 19 -56 33 -7 39 14 12 44 -21 25 -25 27
-31 12z"/>
<path d="M3070 5829 c-30 -5 -86 -25 -125 -44 -43 -21 -85 -35 -107 -35 -47 0
-71 -31 -66 -87 3 -35 6 -38 36 -41 51 -5 136 25 184 64 23 20 76 52 116 70
64 29 94 55 80 69 -10 11 -67 13 -118 4z"/>
<path d="M3667 5763 c-15 -15 -6 -82 16 -114 56 -83 162 -126 287 -117 107 8
104 43 -6 77 -89 28 -137 54 -199 111 -51 46 -82 60 -98 43z"/>
<path d="M5899 5603 c-16 -43 -23 -229 -11 -312 22 -151 53 -102 60 95 4 130
-9 244 -29 244 -5 0 -14 -12 -20 -27z"/>
<path d="M7842 5575 c-82 -38 -221 -138 -321 -230 -89 -81 -115 -96 -194 -110
-42 -7 -56 -27 -37 -50 28 -34 171 -7 209 39 20 24 58 42 106 50 22 4 61 21
88 38 59 38 189 177 216 231 32 64 17 71 -67 32z"/>
<path d="M7442 4908 c-27 -27 -6 -196 34 -265 13 -23 47 -61 75 -85 59 -50
160 -172 189 -228 l20 -39 -25 -29 c-14 -17 -25 -33 -25 -37 0 -4 21 -5 46 -2
54 6 94 39 94 76 0 34 -5 40 -70 88 -71 52 -94 78 -86 99 9 23 67 11 218 -47
140 -54 160 -58 134 -31 -16 19 -132 75 -261 128 -146 60 -278 172 -289 248
-3 17 -8 47 -11 67 -7 49 -26 74 -43 57z"/>
<path d="M6830 4817 c0 -48 91 -164 217 -274 49 -44 79 -80 98 -119 48 -98
357 -399 515 -502 63 -41 167 -82 210 -82 37 0 63 25 51 49 -7 12 -32 22 -80
30 -38 7 -78 19 -88 26 -17 13 -16 14 10 24 16 6 43 11 62 11 19 0 36 4 39 9
11 18 -53 35 -149 41 -78 4 -110 10 -145 29 -101 52 -150 137 -89 156 31 10
22 19 -39 37 -76 23 -145 68 -177 116 -28 42 -44 124 -45 222 -1 68 -32 143
-57 138 -11 -2 -19 -14 -21 -28 -6 -60 -13 -90 -21 -90 -5 0 -56 43 -113 95
-56 52 -120 104 -140 115 l-38 21 0 -24z"/>
<path d="M3657 4648 c-23 -24 -67 -79 -98 -123 -31 -44 -73 -95 -94 -114 -37
-32 -39 -32 -109 -26 -92 8 -120 -5 -124 -58 -4 -50 9 -54 126 -33 101 18 122
30 122 72 0 13 12 34 28 48 15 13 50 45 79 71 58 52 119 136 129 178 9 39 -9
34 -59 -15z"/>
<path d="M2887 4512 c-67 -70 -89 -114 -68 -135 18 -18 152 -21 175 -4 34 25
10 40 -54 34 -31 -4 -60 -4 -63 0 -4 3 14 25 38 48 39 36 45 47 45 83 0 23 -2
42 -3 42 -2 0 -33 -31 -70 -68z"/>
<path d="M4113 4512 c-63 -56 -132 -141 -163 -202 -21 -41 -74 -100 -207 -230
-98 -96 -211 -214 -251 -262 -56 -68 -84 -92 -127 -113 -60 -28 -71 -42 -61
-80 5 -18 17 -27 47 -35 l40 -11 -3 -82 c-3 -82 -3 -82 22 -82 24 0 25 3 26
60 0 67 26 155 52 178 9 8 34 20 55 27 l38 12 -7 72 -7 73 38 29 c118 90 164
136 212 209 32 48 100 125 175 199 89 87 132 138 156 182 52 100 39 122 -35
56z"/>
<path d="M3760 4459 c-55 -33 -118 -98 -171 -176 -64 -94 -84 -108 -152 -99
-29 4 -61 7 -72 9 -26 3 -31 -27 -11 -58 11 -17 26 -25 45 -25 16 0 31 -6 34
-12 8 -22 -22 -67 -65 -98 -35 -26 -50 -30 -103 -30 -75 0 -123 -27 -207 -119
-59 -63 -79 -104 -60 -123 20 -20 59 2 105 58 64 77 81 89 189 129 111 43 185
91 217 142 13 21 47 85 75 143 49 100 54 107 115 147 77 50 133 101 128 117
-6 19 -30 17 -67 -5z"/>
<path d="M6820 4394 c0 -8 36 -71 79 -139 86 -134 131 -215 131 -240 0 -8 12
-21 26 -27 28 -13 29 -33 4 -94 -15 -35 -7 -79 16 -88 26 -10 53 12 79 64 14
28 29 50 34 50 13 0 21 -38 21 -101 0 -49 5 -65 39 -115 74 -111 229 -264 267
-264 27 0 13 38 -52 146 -36 60 -83 141 -105 179 -21 39 -52 84 -68 99 -29 28
-30 32 -24 87 6 62 7 61 -48 73 -40 9 -95 71 -184 207 -94 143 -131 179 -181
179 -24 0 -34 -5 -34 -16z"/>
<path d="M4233 3978 c-54 -60 -98 -125 -138 -209 -55 -116 -58 -203 -8 -236
32 -21 43 -7 43 58 0 47 30 158 57 214 8 17 35 48 60 71 41 36 46 46 51 92 6
66 -10 69 -65 10z"/>
<path d="M3956 3638 c-9 -12 -16 -28 -16 -36 0 -25 -39 -88 -91 -147 -30 -33
-69 -80 -88 -103 -40 -51 -139 -124 -236 -173 -81 -41 -117 -89 -113 -149 l3
-35 58 3 c54 3 60 1 86 -27 31 -33 38 -36 60 -22 27 18 4 55 -51 81 -46 22
-53 29 -53 55 0 33 -2 31 145 98 71 32 107 60 156 120 16 19 35 28 73 33 l51
7 -20 27 c-26 36 -26 40 12 113 28 56 37 82 55 155 7 28 -11 29 -31 0z"/>
<path d="M7651 3651 c-19 -12 -9 -35 53 -119 77 -104 123 -107 111 -8 -7 58
-27 99 -57 120 -25 18 -85 21 -107 7z"/>
<path d="M6461 3580 c-221 -20 -379 -43 -444 -66 -52 -19 -301 -41 -537 -49
-363 -12 -533 -33 -651 -81 -163 -67 -349 -243 -349 -331 0 -10 16 -31 35 -46
19 -15 60 -71 92 -125 136 -232 252 -351 364 -372 28 -6 90 -26 138 -46 179
-75 281 -102 471 -124 116 -13 176 -27 215 -50 17 -10 42 -20 58 -24 41 -10
174 9 385 55 103 22 233 49 290 59 121 22 169 47 252 131 135 137 143 171 138
556 -3 246 -5 272 -24 313 -25 55 -184 220 -210 219 -11 -1 -111 -9 -223 -19z
m-271 -89 c24 -46 6 -193 -25 -205 -36 -13 -103 91 -89 138 9 30 65 86 86 86
9 0 22 -9 28 -19z m309 -55 c42 -50 31 -447 -12 -433 -26 8 -76 90 -106 172
-56 156 -36 234 68 266 37 11 37 10 50 -5z m-1451 -87 c53 -11 101 -24 105
-28 18 -17 -72 -229 -112 -266 -30 -26 -49 -13 -83 56 -32 64 -82 235 -73 249
9 15 55 12 163 -11z m-249 -86 c40 -80 35 -193 -9 -193 -36 0 -71 155 -48 213
12 28 36 20 57 -20z m1252 -155 c41 -106 43 -163 6 -235 -39 -76 -71 -90 -112
-48 -21 20 -25 33 -25 87 0 35 5 83 11 108 10 48 68 170 80 170 4 0 22 -37 40
-82z m716 -79 c8 -77 -17 -148 -71 -204 -65 -68 -135 -73 -128 -9 4 34 46 129
116 264 l50 95 14 -45 c7 -25 16 -70 19 -101z m-1461 91 c1 -8 8 -47 14 -86
16 -88 4 -129 -53 -191 -63 -68 -136 -96 -151 -57 -34 89 102 365 174 352 8
-2 16 -10 16 -18z m483 -6 c32 -41 45 -93 46 -184 0 -96 -23 -173 -58 -191
-18 -10 -24 -8 -44 15 -20 24 -23 38 -23 112 0 131 26 274 49 274 5 0 19 -12
30 -26z m504 -115 c21 -64 22 -138 2 -185 -20 -50 -51 -44 -85 16 -22 39 -25
57 -25 140 1 55 6 108 14 125 l13 30 32 -37 c18 -21 40 -61 49 -89z m-729 74
c23 -46 66 -184 60 -194 -7 -12 -60 -11 -106 1 -68 19 -87 84 -48 160 32 64
71 77 94 33z m-754 -283 c90 -73 131 -89 254 -100 57 -5 130 -18 162 -30 77
-27 122 -37 273 -60 149 -22 244 -50 290 -84 45 -33 111 -40 255 -26 65 6 121
8 124 5 4 -4 -4 -15 -18 -24 -14 -9 -53 -42 -87 -73 -60 -56 -65 -58 -117 -58
-66 0 -99 11 -143 51 -34 29 -38 30 -120 27 -75 -3 -87 -1 -97 16 -37 62 -44
66 -118 66 -68 0 -70 1 -109 40 -22 22 -45 40 -52 40 -7 0 -28 -11 -47 -25
-46 -34 -78 -32 -179 14 -47 21 -109 46 -137 54 -71 21 -102 39 -152 87 -56
54 -96 115 -88 135 7 20 21 13 106 -55z m2040 -22 c-1 -40 -38 -106 -86 -153
-56 -55 -135 -102 -257 -154 -131 -56 -143 -58 -173 -30 -34 32 -31 68 9 106
58 55 93 68 191 68 l88 0 12 35 c11 35 22 41 91 55 17 4 47 25 70 50 46 50 55
54 55 23z"/>
<path d="M3610 3399 c-35 -14 -60 -39 -60 -61 0 -23 21 -23 69 1 83 43 76 93
-9 60z"/>
<path d="M7654 3321 c-47 -22 -84 -64 -84 -97 0 -30 21 -31 95 -3 61 23 115
63 115 85 0 15 -39 34 -68 34 -9 0 -35 -9 -58 -19z"/>
<path d="M7680 3086 c-12 -38 -5 -79 16 -97 32 -27 62 44 43 101 -15 42 -44
40 -59 -4z"/>
<path d="M3764 2891 c-21 -10 -45 -25 -53 -34 -12 -16 -8 -17 42 -17 58 0 91
18 81 45 -9 22 -29 24 -70 6z"/>
<path d="M7586 2784 c-42 -42 -126 -188 -126 -219 0 -23 42 -19 81 8 40 27 78
111 79 174 0 48 -11 60 -34 37z"/>
<path d="M3630 2728 c-43 -71 -34 -138 19 -138 28 0 103 44 136 80 22 24 11
42 -46 71 -57 28 -86 25 -109 -13z"/>
<path d="M3874 2247 c-8 -21 10 -58 51 -107 20 -24 50 -73 67 -107 32 -68 79
-115 165 -164 63 -36 84 -35 95 6 14 50 0 83 -45 112 -23 14 -82 67 -132 117
-144 147 -187 177 -201 143z"/>
<path d="M4684 2195 c-21 -33 -12 -70 28 -107 24 -23 39 -28 79 -28 38 0 51
-4 59 -20 12 -23 67 -40 128 -40 36 0 49 -6 73 -31 25 -27 34 -31 65 -26 62
10 109 39 109 67 0 21 -11 30 -60 55 -45 23 -62 37 -70 60 -11 34 -22 45 -48
45 -31 0 -89 -32 -95 -52 -6 -24 -27 -23 -63 3 -21 15 -41 20 -72 17 -40 -3
-42 -2 -45 27 -2 17 -8 36 -14 43 -17 21 -56 14 -74 -13z"/>
<path d="M6907 2140 c-97 -88 -158 -119 -248 -129 -111 -12 -118 -41 -22 -87
99 -47 242 -44 306 6 33 26 50 100 45 203 l-3 77 -78 -70z"/>
<path d="M5742 1778 c-109 -13 -250 -52 -343 -93 -52 -23 -103 -39 -134 -40
-27 -2 -53 -4 -57 -4 -18 -2 -6 -49 17 -71 34 -32 74 -24 216 38 63 28 132 55
154 61 83 23 305 11 539 -29 113 -19 139 -18 134 8 -8 39 -138 94 -231 96 -34
1 -61 7 -66 14 -19 30 -95 37 -229 20z"/>
<path d="M6496 1669 c-35 -28 -48 -62 -36 -94 22 -57 83 -6 84 69 1 47 -12 54
-48 25z"/>
<path d="M5733 1060 c-69 -35 -206 -170 -201 -198 2 -9 18 -26 35 -38 69 -46
158 -38 169 15 13 64 47 75 74 26 21 -39 76 -47 105 -15 16 18 30 20 120 20
71 0 107 4 120 14 19 14 19 15 1 35 -11 12 -23 21 -27 21 -36 0 -130 50 -180
96 -54 50 -63 54 -107 54 -34 0 -67 -9 -109 -30z"/>
</g>
</svg>
