<?xml version="1.0" standalone="no"?>
<!DOCTYPE svg PUBLIC "-//W3C//DTD SVG 20010904//EN"
 "http://www.w3.org/TR/2001/REC-SVG-20010904/DTD/svg10.dtd">
<svg version="1.0" xmlns="http://www.w3.org/2000/svg"
 width="1157.000000pt" height="1280.000000pt" viewBox="0 0 1157.000000 1280.000000"
 preserveAspectRatio="xMidYMid meet">
<metadata>
Created by potrace 1.15, written by Peter Selinger 2001-2017
</metadata>
<g transform="translate(0.000000,1280.000000) scale(0.100000,-0.100000)"
fill="#000000" stroke="none">
<path d="M6435 12789 c-205 -26 -402 -108 -528 -219 -88 -77 -158 -207 -171
-320 -6 -46 -5 -52 6 -39 24 28 47 29 216 4 347 -52 999 -116 1322 -131 l145
-7 -27 22 c-28 22 -36 45 -20 55 5 3 32 -13 61 -34 29 -22 64 -40 77 -40 22 0
24 4 24 43 0 112 -77 290 -168 388 -198 214 -569 324 -937 278z m92 -339 c116
-21 356 -87 503 -139 47 -16 82 -30 78 -30 -4 -1 -56 5 -115 13 -136 18 -178
22 -568 46 -286 19 -542 44 -553 55 -11 11 149 64 230 75 92 13 297 4 425 -20z"/>
<path d="M5553 12028 c-6 -40 -23 -149 -38 -243 -36 -231 -55 -434 -55 -590
l0 -131 -152 -76 c-84 -42 -195 -105 -247 -139 -105 -70 -250 -203 -317 -290
-84 -109 -166 -288 -180 -393 -6 -38 -3 -45 20 -63 29 -24 33 -33 11 -33 -25
0 -87 -71 -115 -134 -27 -58 -51 -148 -115 -431 -43 -186 -43 -186 -70 -79
-24 97 -76 229 -101 260 -14 17 -15 12 -10 -66 3 -47 17 -141 30 -210 14 -68
24 -126 22 -127 -2 -2 -16 1 -32 7 -15 6 -91 20 -167 30 -140 20 -210 42 -237
75 -14 16 -13 17 5 12 11 -3 90 -20 175 -37 85 -17 165 -33 178 -35 17 -4 22
-1 22 16 0 37 -54 75 -148 105 -57 18 -97 38 -116 56 -28 28 -28 30 -10 42 11
7 63 32 116 56 100 43 158 91 158 129 0 14 -51 53 -172 134 -334 222 -534 402
-660 593 -38 57 -43 62 -79 62 -20 0 -51 8 -68 16 -37 20 -55 20 -71 2 -9 -12
-4 -17 32 -26 84 -21 133 -44 166 -76 33 -33 40 -61 21 -96 -10 -19 -12 -18
-30 22 -10 23 -19 51 -19 61 0 17 -8 19 -72 19 -81 0 -135 -23 -171 -72 -24
-32 -18 -42 43 -73 47 -24 70 -49 70 -76 0 -6 -15 0 -32 13 -52 39 -131 76
-256 120 -181 62 -180 61 -81 87 125 33 175 52 206 79 l28 23 -25 -6 c-14 -3
-63 -9 -110 -12 -69 -4 -100 -1 -163 16 -74 20 -322 125 -331 140 -3 4 2 52
10 106 18 132 18 288 -2 383 -15 75 -77 222 -93 222 -20 0 -35 -146 -61 -630
-11 -198 -31 -323 -58 -354 -35 -40 -172 -118 -282 -161 -63 -25 -227 -77
-365 -116 -303 -86 -370 -107 -333 -108 76 -2 374 64 479 106 22 8 43 13 46 9
10 -9 -47 -84 -97 -127 -25 -22 -78 -56 -118 -76 -132 -66 -279 -55 -358 28
l-28 29 -215 0 -216 0 -29 26 c-80 75 -114 168 -157 434 -37 228 -51 292 -82
362 -39 87 -45 75 -21 -35 12 -56 34 -172 49 -257 59 -334 129 -485 256 -555
47 -25 67 -30 151 -33 l98 -4 -74 -54 c-41 -29 -158 -107 -261 -173 -146 -95
-308 -206 -344 -237 -2 -2 -2 -7 2 -10 3 -3 31 6 63 20 57 26 98 33 108 18 3
-5 -13 -16 -34 -26 -22 -9 -53 -34 -70 -54 l-30 -37 -50 28 c-74 42 -99 35
-133 -36 -45 -93 -66 -212 -73 -421 -6 -158 -9 -184 -21 -174 -11 9 -19 6 -39
-15 -24 -26 -25 -31 -22 -149 l3 -123 35 2 c19 1 49 5 66 8 22 5 34 2 44 -10
11 -14 10 -18 -9 -31 -60 -43 -78 -157 -46 -304 49 -230 53 -281 23 -329 -10
-17 0 -33 88 -137 225 -267 422 -464 637 -637 l94 -75 46 -144 c25 -79 71
-226 102 -328 31 -102 75 -234 98 -294 26 -71 37 -111 29 -114 -6 -2 -16 -20
-23 -40 -15 -47 -27 -62 -50 -62 -12 0 -21 10 -25 28 -27 109 -119 184 -256
207 -35 5 -37 4 -44 -27 -19 -88 3 -200 64 -332 l27 -59 -24 -71 c-19 -54 -24
-92 -25 -161 0 -150 45 -235 229 -435 167 -182 242 -305 270 -447 5 -24 13
-33 34 -38 43 -9 67 -42 98 -130 l28 -80 55 -1 c30 0 60 -1 66 -2 7 -1 13 -53
17 -144 13 -300 57 -461 257 -933 136 -322 197 -517 216 -695 4 -43 13 -72 26
-86 31 -34 47 -108 63 -283 22 -230 39 -298 93 -354 43 -46 112 -74 112 -47 0
5 -22 70 -49 142 -48 132 -71 228 -53 228 21 0 137 -304 155 -406 5 -28 4 -31
-17 -27 -33 7 -86 -51 -86 -93 0 -110 42 -239 150 -454 128 -257 164 -360 198
-580 9 -57 10 -56 27 25 8 36 23 31 31 -11 9 -51 -3 -172 -32 -298 -28 -125
-24 -136 40 -136 53 0 61 -6 76 -56 11 -36 10 -46 -10 -91 -13 -31 -20 -65
-18 -89 3 -38 5 -39 53 -52 85 -22 172 -10 345 49 154 53 156 54 278 54 l124
0 -6 25 c-2 14 -10 44 -17 68 -12 37 -11 44 1 52 19 12 28 2 32 -35 3 -25 8
-30 34 -33 25 -2 37 3 54 25 20 25 22 35 16 108 -3 44 -9 90 -12 103 -10 35
21 28 52 -13 17 -22 35 -35 50 -35 22 0 21 4 -32 110 -37 73 -89 211 -155 411
l-99 301 25 32 c47 61 75 140 90 252 43 312 44 317 81 393 45 91 40 108 -45
150 -33 17 -63 35 -66 41 -4 6 5 28 20 49 71 104 84 227 45 446 -34 188 -28
286 22 357 17 24 -5 46 -79 80 -63 28 -76 44 -48 54 30 12 38 68 21 150 -19
93 -20 164 -3 188 12 16 17 4 44 -102 17 -66 46 -155 64 -198 58 -140 180
-234 303 -234 49 0 55 -6 80 -72 27 -72 102 -181 211 -303 98 -111 185 -225
185 -242 0 -5 -18 -20 -41 -32 -61 -35 -67 -57 -36 -133 15 -35 34 -90 43
-123 17 -61 94 -507 89 -513 -2 -2 -18 3 -37 12 -20 10 -50 41 -77 81 -24 36
-55 72 -68 80 -22 14 -23 14 -23 -5 0 -43 40 -99 111 -154 99 -76 103 -84 82
-138 -24 -61 -24 -296 0 -391 38 -153 114 -302 136 -268 6 9 6 21 0 32 -6 11
-5 20 1 24 11 7 73 -43 115 -93 l27 -32 -21 -43 c-26 -54 -26 -74 -1 -162 11
-38 20 -80 20 -92 0 -21 4 -23 58 -23 65 0 82 -11 82 -52 l0 -28 72 0 c40 0
140 -10 223 -21 138 -20 295 -22 312 -5 3 3 19 81 35 173 115 669 202 1131
274 1463 53 243 145 623 149 618 2 -2 33 -87 68 -188 141 -404 227 -569 341
-650 27 -19 46 -41 46 -52 0 -10 7 -54 15 -96 64 -316 220 -521 399 -523 l57
-1 -7 -33 c-5 -31 -3 -34 29 -44 19 -7 43 -21 52 -31 18 -20 17 -20 -63 -20
l-82 0 0 -30 c0 -40 29 -54 113 -53 37 1 67 -1 67 -3 0 -2 -12 -22 -26 -44
-26 -39 -26 -41 -9 -66 16 -25 20 -26 90 -22 127 8 264 94 344 215 36 54 37
59 13 72 -14 7 -32 3 -72 -15 -29 -14 -56 -21 -60 -17 -9 11 187 196 203 190
6 -2 19 -22 27 -44 21 -56 47 -83 82 -83 26 0 28 3 28 41 0 61 -25 104 -96
159 -35 27 -70 60 -78 73 -36 54 -66 380 -66 725 l0 173 -29 24 c-15 14 -39
48 -52 77 -21 49 -23 69 -27 288 -3 207 -6 237 -22 255 -59 67 -101 175 -174
447 -63 235 -92 318 -141 398 -64 105 -143 156 -259 167 l-64 6 46 61 c51 66
99 147 209 351 39 72 79 144 89 162 19 32 19 32 -6 58 -14 15 -65 46 -115 70
-86 42 -156 97 -141 112 15 15 126 -19 229 -71 95 -48 107 -52 107 -34 0 26
-36 57 -90 77 -27 10 -50 27 -60 43 -13 25 -13 33 1 85 9 32 28 91 43 132 17
47 26 89 24 115 l-3 41 -26 -26 c-19 -18 -30 -44 -38 -85 -6 -32 -15 -83 -21
-113 -9 -49 -40 -101 -61 -101 -4 0 1 25 11 55 15 45 60 230 60 250 0 12 -21
3 -39 -16 -20 -22 -30 -58 -51 -196 -9 -53 -18 -79 -37 -100 l-26 -27 -9 24
c-6 14 -8 79 -5 145 5 125 29 239 66 317 l21 43 -3 -45 c-2 -25 -7 -52 -11
-61 -6 -15 3 -17 76 -22 46 -2 154 -10 241 -18 151 -13 293 -6 349 16 14 6 22
-4 41 -47 13 -29 31 -59 40 -67 15 -12 17 -10 17 16 0 16 -7 38 -15 49 -8 10
-15 33 -15 49 0 28 7 33 117 89 178 90 230 101 332 70 44 -13 54 -20 68 -52
107 -251 241 -458 391 -606 l61 -59 20 34 c34 56 22 148 -30 220 -36 52 -15
42 62 -28 124 -113 211 -174 227 -158 4 3 -7 31 -23 62 -21 41 -50 73 -104
117 -119 97 -169 145 -180 177 -5 16 -6 29 -2 29 5 0 51 -15 102 -34 375 -135
676 -218 997 -276 187 -34 174 -38 -25 -9 -91 14 -155 19 -180 14 -36 -7 -33
-9 72 -35 124 -31 151 -40 355 -117 202 -76 351 -113 483 -120 108 -6 108 -6
124 -36 70 -136 111 -409 100 -662 -7 -145 -2 -148 38 -19 58 188 50 440 -21
602 -33 75 -81 138 -132 172 -61 40 -95 46 -140 23 -65 -32 -158 -24 -287 26
-93 36 -217 81 -275 99 -8 3 3 9 25 14 65 15 191 2 299 -31 109 -33 206 -49
206 -34 0 12 -30 26 -145 68 -154 56 -165 63 -165 104 0 96 -66 325 -285 991
-133 405 -159 533 -130 645 35 130 108 182 369 260 156 47 301 124 277 148 -6
6 -11 26 -11 44 0 30 -4 33 -42 44 -66 17 -156 4 -308 -46 -129 -42 -210 -56
-210 -37 0 4 16 64 35 133 58 210 65 301 30 386 -13 31 -13 32 33 75 26 24
117 102 202 173 200 168 311 269 384 353 63 73 141 184 173 247 20 39 20 42 4
95 -27 85 -65 155 -153 280 -77 110 -154 238 -147 243 2 2 40 20 83 41 168 82
294 259 304 426 6 102 -13 155 -74 208 -63 56 -132 75 -252 70 -107 -4 -154
-21 -343 -128 -49 -28 -91 -50 -94 -50 -11 0 -73 145 -125 295 -74 212 -113
288 -187 365 -35 35 -59 68 -54 73 4 4 22 9 40 9 17 1 31 2 31 4 0 14 -69 192
-92 238 -48 96 -131 223 -222 341 l-84 110 34 18 c37 19 59 47 69 88 6 23 3
27 -24 32 -43 9 -61 -1 -61 -32 0 -59 -16 -52 -70 31 -65 101 -210 247 -305
310 -189 123 -404 198 -659 229 -101 12 -454 8 -488 -6 -15 -6 -18 -2 -18 25
0 19 -10 46 -24 64 -38 51 -40 70 -9 105 15 16 36 53 46 81 12 34 26 55 43 62
22 10 23 13 9 28 -17 19 -30 83 -44 212 -9 93 -32 148 -54 129 -7 -5 -33 -11
-57 -13 -45 -3 -45 -3 -63 -58 -14 -41 -20 -103 -26 -240 -8 -202 -25 -278
-33 -148 -6 88 -29 134 -89 178 l-38 27 24 23 c14 13 25 31 25 41 0 29 -51 81
-105 105 l-50 23 81 -6 c54 -4 88 -2 103 6 12 7 21 15 18 17 -11 12 -345 36
-727 54 -407 19 -625 33 -774 49 -88 9 -110 -5 -126 -84 -12 -57 -24 -70 -33
-35 -3 11 -14 20 -25 20 -18 0 -20 -9 -26 -97 -3 -54 -8 -177 -11 -273 -4 -96
-11 -218 -16 -270 -10 -94 -39 -211 -60 -240 -16 -23 -4 321 20 540 25 238 35
419 24 448 -7 19 -11 9 -20 -50z m374 -193 c234 -26 294 -42 354 -93 l39 -34
31 26 c20 17 43 26 65 26 39 0 41 -8 19 -70 -17 -49 -20 -90 -5 -90 20 0 42
51 47 110 8 88 23 84 23 -5 0 -56 3 -76 12 -73 15 5 26 40 27 86 1 21 6 32 16
32 12 0 13 -9 9 -44 -4 -26 -2 -46 4 -50 14 -9 44 36 46 69 1 18 5 23 16 19
71 -30 118 -37 296 -41 l191 -6 -8 -50 c-8 -50 -16 -138 -39 -432 -13 -165
-39 -293 -76 -375 -32 -72 -48 -88 -69 -70 -8 7 -15 21 -15 32 0 19 -6 19
-232 11 -591 -21 -850 4 -1056 103 -57 28 -73 40 -68 52 3 9 14 43 25 74 31
84 49 219 61 448 10 189 24 342 36 381 4 14 10 14 59 -3 30 -10 117 -25 192
-33z m2354 -608 c69 -3 130 -11 151 -20 41 -17 73 -59 64 -83 -13 -34 -200 10
-313 72 -69 38 -90 58 -46 44 15 -4 80 -11 144 -13z m347 -157 c108 -49 199
-165 176 -224 -16 -42 -84 9 -183 139 -69 91 -77 105 -58 105 12 0 41 -9 65
-20z m362 -360 c82 -112 120 -190 127 -259 l6 -56 -31 29 c-39 36 -91 134
-135 256 -19 52 -38 104 -42 115 -11 29 3 13 75 -85z m-3920 26 c0 -15 -244
-150 -261 -144 -6 2 5 18 24 36 42 40 237 129 237 108z m1238 -29 c55 -46 94
-61 138 -52 48 9 31 27 -34 35 l-47 6 30 13 c21 9 81 11 202 9 167 -3 173 -4
167 -23 -9 -30 -44 -64 -89 -88 -59 -32 -242 -31 -336 1 -96 33 -178 109 -136
125 33 14 68 5 105 -26z m1452 -189 c0 -40 37 -121 74 -165 l27 -32 -38 -16
c-21 -9 -50 -28 -65 -42 -14 -14 -31 -22 -36 -19 -6 3 -22 37 -37 75 -31 82
-44 96 -85 87 -37 -7 -52 17 -27 42 16 15 163 98 180 101 4 0 7 -14 7 -31z
m-4496 -120 c10 -14 16 -44 16 -75 0 -46 -3 -53 -19 -53 -29 0 -51 39 -51 91
0 25 3 49 7 52 12 13 32 7 47 -15z m2490 -38 c48 -21 69 -37 76 -55 14 -36 13
-37 -9 -25 -28 15 -38 13 -61 -12 -26 -29 -27 -82 0 -101 11 -8 17 -17 13 -20
-16 -17 -79 -4 -147 31 l-75 38 49 27 c61 34 80 60 80 109 0 21 2 38 4 38 2 0
34 -13 70 -30z m-2554 -188 c45 5 47 4 37 -14 -17 -26 -66 -46 -131 -54 -45
-5 -60 -4 -67 7 -14 23 -11 29 27 45 29 12 34 18 28 36 -6 21 -6 21 26 -2 25
-18 41 -22 80 -18z m316 -12 c76 -26 127 -61 274 -184 137 -114 232 -176 310
-202 27 -9 50 -18 50 -20 0 -2 -25 -20 -56 -40 -178 -114 -350 -113 -531 2
-89 56 -284 224 -276 237 3 7 21 31 40 54 40 51 63 102 63 143 0 28 3 30 35
30 20 0 61 -9 91 -20z m3918 -222 c23 -88 30 -141 17 -134 -14 9 -47 119 -55
186 -6 53 -6 54 9 28 8 -14 21 -50 29 -80z m-2894 -213 c-18 -190 -32 -277
-43 -266 -23 23 -20 163 7 305 14 77 27 151 27 165 1 14 5 -1 10 -34 6 -38 6
-101 -1 -170z m-1356 185 c14 -5 67 -49 119 -97 51 -48 102 -94 112 -101 18
-11 17 -12 -10 -7 -39 8 -88 40 -161 107 -32 30 -74 66 -92 81 -28 23 -30 27
-13 27 11 0 31 -4 45 -10z m3610 -56 c3 -9 6 -33 6 -55 0 -39 0 -39 -40 -39
-36 0 -40 2 -40 25 0 60 57 113 74 69z m2604 -40 c28 -20 54 -70 81 -159 11
-38 30 -85 41 -102 11 -18 16 -33 12 -33 -14 0 -68 63 -95 110 -43 76 -86 200
-69 200 4 0 18 -7 30 -16z m-7033 -97 c4 -23 5 -60 3 -82 l-3 -40 -19 39 c-10
22 -21 69 -23 105 l-4 66 20 -23 c11 -13 23 -42 26 -65z m-1565 -171 c0 -13 9
-53 20 -88 20 -63 25 -115 14 -154 -5 -19 -11 -21 -49 -16 -41 4 -43 3 -50
-27 -8 -37 -15 -38 -42 -8 -27 30 -31 37 -62 125 -16 42 -32 85 -36 95 -6 14
-2 17 23 17 18 0 51 14 81 34 79 54 101 58 101 22z m6915 -121 c81 -14 203
-62 248 -96 15 -12 8 -14 -55 -14 -110 -1 -251 -17 -236 -26 21 -14 105 -36
223 -59 170 -34 231 -70 253 -152 6 -21 9 -38 8 -38 -1 0 -29 11 -61 23 -57
23 -60 25 -57 55 l2 32 -53 0 c-161 0 -378 107 -435 214 -8 17 -15 9 -45 -56
-41 -89 -67 -111 -128 -106 -42 3 -44 4 -52 46 -5 24 -15 46 -24 49 -24 9
-142 -13 -225 -42 -151 -53 -276 -152 -313 -248 -10 -26 -16 -50 -13 -53 3 -2
20 18 38 46 41 64 103 117 153 132 22 7 41 17 44 24 3 7 21 18 41 25 21 6 45
18 54 26 15 14 20 12 42 -12 36 -39 33 -70 -14 -130 -40 -52 -41 -53 -28 -94
7 -23 16 -41 19 -41 16 0 42 43 43 70 1 33 10 39 20 14 15 -38 4 -66 -44 -119
-54 -59 -58 -70 -35 -79 34 -13 87 27 120 92 19 38 22 130 5 161 -9 18 -8 21
8 21 11 0 38 18 59 41 28 28 47 40 62 37 21 -3 21 -4 -9 -66 -34 -71 -37 -99
-15 -128 14 -18 16 -18 29 -1 7 9 17 45 20 78 9 81 14 89 45 89 32 0 62 20
109 72 29 32 41 38 73 38 34 0 39 -3 39 -24 0 -32 -34 -72 -81 -96 -47 -25
-71 -60 -39 -60 30 0 100 37 138 73 l32 31 63 -13 c80 -16 145 -52 208 -114
51 -50 179 -213 179 -228 0 -5 -9 -13 -20 -19 -29 -16 -96 17 -144 70 -34 37
-38 47 -33 80 5 37 4 38 -37 50 -60 18 -112 46 -155 85 l-37 34 -50 -23 c-70
-34 -96 -61 -92 -99 2 -26 -1 -33 -18 -35 -12 -2 -35 8 -51 22 l-30 25 -59
-61 c-176 -180 -326 -262 -506 -277 -86 -6 -88 -6 -88 15 0 16 -8 23 -32 29
-33 7 -390 24 -396 19 -10 -8 53 -37 95 -43 l48 -8 -45 -12 c-51 -15 -217 -10
-264 8 l-29 11 57 40 c31 22 90 69 131 104 97 85 166 129 245 157 52 18 80 37
143 96 129 122 321 236 496 292 74 25 139 39 251 55 58 8 123 5 205 -9z
m-5517 -193 c2 -20 -6 -47 -22 -75 -39 -66 -33 -105 22 -136 15 -9 15 -11 -1
-28 -9 -11 -46 -30 -82 -42 -36 -13 -68 -27 -71 -32 -14 -23 -20 -4 -16 55 4
57 2 65 -19 80 -13 9 -38 16 -56 16 -27 0 -31 3 -26 18 13 36 61 75 145 118
47 24 89 48 93 54 12 20 30 4 33 -28z m7247 -37 c70 -20 74 -23 55 -35 -44
-28 -147 4 -193 59 -40 48 -33 53 26 21 28 -16 79 -36 112 -45z m-4420 50
c125 -19 217 -39 580 -130 160 -40 328 -78 375 -84 165 -23 157 -21 135 -38
-11 -8 -51 -30 -90 -48 -38 -18 -79 -40 -90 -50 -40 -33 56 -10 176 43 115 51
178 72 213 72 35 0 5 -16 -106 -59 -121 -48 -253 -127 -364 -220 -56 -46 -79
-60 -87 -52 -15 15 -10 193 6 203 7 4 29 8 49 8 20 0 44 3 53 6 19 8 50 64 35
64 -5 0 -10 7 -10 15 0 23 -13 18 -45 -15 -39 -40 -68 -40 -80 2 -6 20 -25 43
-50 60 -80 56 -291 87 -368 55 -42 -18 -54 -13 -72 29 -20 47 -48 47 -39 -1 7
-42 2 -43 -38 -10 -33 28 -43 30 -54 13 -4 -6 4 -19 19 -30 41 -30 35 -61 -15
-91 -57 -33 -94 -74 -166 -179 -32 -48 -62 -85 -66 -81 -20 21 0 121 49 237 8
19 8 19 -15 3 -34 -24 -37 -22 -44 23 -7 46 -17 49 -46 18 -26 -29 -40 -79
-40 -152 0 -52 -2 -57 -16 -46 -25 22 -43 76 -64 198 -12 63 -28 131 -37 151
l-16 36 -7 -33 c-9 -41 3 -167 25 -252 26 -100 86 -222 126 -253 l34 -27 -33
0 c-64 0 -102 71 -171 323 -51 183 -55 194 -66 176 -22 -35 -8 -115 39 -224
25 -59 44 -111 41 -114 -14 -13 -42 20 -63 75 -31 83 -54 126 -74 138 -46 28
-33 -33 22 -103 59 -74 38 -94 -47 -44 -42 24 -48 25 -82 13 -158 -56 -315
-261 -370 -485 -42 -172 -46 -221 -45 -535 0 -286 3 -326 38 -630 24 -208 42
-330 51 -339 14 -15 137 -51 173 -51 33 0 18 -17 -25 -29 -54 -15 -106 12
-173 90 -63 73 -92 99 -102 92 -17 -10 -6 -31 27 -55 30 -21 33 -27 21 -37 -9
-8 -21 -9 -30 -4 -25 14 -86 101 -86 122 0 12 22 41 50 68 27 26 50 51 50 55
0 4 -28 -8 -63 -27 -81 -45 -106 -44 -157 2 -59 53 -72 29 -15 -27 46 -45 57
-76 30 -86 -22 -9 -62 10 -151 72 -42 29 -80 52 -83 49 -3 -3 42 -53 100 -111
81 -82 120 -113 177 -141 39 -20 72 -38 72 -41 0 -8 -124 9 -180 25 -108 30
-212 100 -246 166 -13 24 -20 28 -42 22 -15 -4 -49 -20 -77 -37 -48 -30 -94
-39 -125 -25 -11 5 -23 -6 -44 -39 -20 -31 -43 -53 -70 -65 -22 -10 -42 -16
-43 -15 -4 4 53 96 93 149 26 36 36 42 67 42 29 0 37 4 37 18 0 40 -56 123
-155 227 -109 115 -166 209 -181 294 -7 38 -6 39 17 32 172 -49 240 -53 312
-17 26 12 53 21 60 18 7 -3 48 -27 90 -55 l76 -50 -35 -41 c-19 -22 -72 -67
-117 -100 -45 -32 -93 -71 -107 -86 l-25 -27 45 22 c25 13 101 59 170 102 166
107 246 146 354 173 59 15 85 26 74 30 -9 4 -43 0 -75 -8 -62 -15 -93 -12 -93
8 0 7 11 20 25 29 29 19 34 63 9 73 -12 4 -34 -12 -73 -55 -32 -34 -61 -62
-64 -62 -4 0 -18 7 -30 14 -42 28 -139 46 -247 46 -276 1 -405 33 -436 106
-56 133 -76 327 -51 489 33 209 24 192 145 283 324 242 593 375 848 418 172
29 437 10 567 -41 10 -4 17 -3 17 4 0 17 -59 49 -104 56 -80 13 -79 11 -47 58
80 117 222 211 362 241 86 19 271 19 394 1z m2196 -6 c27 -12 49 -24 49 -28
-1 -8 -48 -61 -54 -61 -3 0 -5 10 -3 22 2 19 -4 24 -33 28 -37 5 -54 35 -28
51 17 11 12 12 69 -12z m-4344 -152 c4 -6 15 -39 24 -72 9 -33 19 -68 24 -77
11 -28 -32 -23 -46 4 -11 20 -48 152 -49 171 0 10 37 -10 47 -26z m221 -39
c68 -37 74 -43 55 -51 -17 -7 -35 -2 -86 27 -36 20 -75 36 -87 36 -19 0 -20 2
-10 15 20 24 47 18 128 -27z m-2393 -6 c33 -24 65 -77 65 -108 0 -51 -25 -104
-49 -104 -18 0 -19 3 -11 26 6 14 10 43 10 66 0 41 -25 108 -41 108 -5 0 -9 5
-9 10 0 12 20 13 35 2z m7021 -18 c19 -9 48 -34 65 -55 16 -21 45 -44 64 -51
38 -13 41 -21 36 -128 -5 -94 -43 -158 -110 -187 -18 -8 -35 -13 -37 -11 -1 2
2 23 8 46 12 46 37 67 69 57 19 -6 20 -4 14 27 -12 54 -40 100 -104 171 -75
83 -95 113 -87 132 7 20 39 19 82 -1z m-1315 -63 c-23 -42 -107 -101 -257
-182 -162 -86 -241 -140 -288 -195 -32 -39 -76 -131 -76 -161 0 -29 -19 -29
-54 -2 -32 25 -33 54 -5 140 12 35 23 65 24 67 2 2 12 -2 23 -9 11 -7 30 -9
48 -5 38 10 130 105 138 143 6 24 11 29 29 26 15 -3 59 19 132 63 114 70 247
134 278 134 14 0 16 -4 8 -19z m-3606 -193 c29 -13 33 -43 8 -53 -19 -7 -143
25 -143 37 0 9 50 26 82 27 15 1 39 -4 53 -11z m6708 -24 c81 -7 88 -16 30
-40 -28 -12 -48 -13 -118 -3 -86 12 -99 20 -67 38 20 12 53 13 155 5z m-3123
-143 c0 -26 -151 -104 -168 -87 -11 12 47 54 103 76 58 22 65 23 65 11z m574
-194 c9 -39 20 -149 25 -242 6 -94 13 -180 16 -190 6 -18 5 -18 -5 -3 -23 37
-40 117 -49 233 -16 204 -19 285 -11 280 5 -3 16 -38 24 -78z m-624 -47 c0
-16 -42 -49 -79 -61 -72 -23 -112 -49 -123 -81 -8 -22 -13 -26 -19 -16 -32 50
16 109 118 144 74 25 103 29 103 14z m2550 -7 c93 -65 125 -201 74 -309 -18
-37 -66 -74 -97 -74 -14 0 -16 5 -10 28 10 35 10 309 0 345 -9 31 -1 34 33 10z
m-7734 -89 c-20 -37 -10 -60 45 -105 58 -49 74 -79 29 -52 -40 23 -106 93
-114 120 -5 15 0 28 15 42 31 28 41 26 25 -5z m4301 -126 c-9 -141 -2 -431 14
-563 16 -130 53 -266 93 -341 l34 -65 -75 -87 c-93 -108 -133 -187 -136 -271
-1 -33 -3 -61 -4 -61 -1 0 -26 21 -55 48 -130 117 -188 176 -209 218 -13 24
-28 44 -34 44 -24 -1 -38 -19 -33 -44 3 -14 2 -26 -3 -26 -18 0 -18 22 1 82
11 34 20 78 20 97 0 27 -3 32 -17 26 -47 -17 -74 -17 -108 4 -43 25 -45 25
-45 7 0 -33 34 -57 85 -59 44 -2 50 -5 47 -22 -10 -53 -54 -87 -192 -147 -43
-18 -44 -20 -26 -34 27 -19 140 -19 159 0 11 11 17 12 26 3 17 -17 14 -26 -21
-47 -20 -12 -51 -20 -77 -20 -37 0 -42 -2 -36 -17 4 -10 9 -32 12 -49 l5 -30
29 27 c16 15 45 37 65 48 l37 22 -6 -31 c-10 -45 -36 -79 -81 -103 -59 -32
-201 -31 -306 2 -142 44 -267 123 -305 194 -20 37 -38 46 -51 26 -3 -6 8 -26
26 -44 l32 -33 -31 -16 c-25 -14 -37 -14 -69 -4 l-38 12 -13 205 c-13 221 -35
459 -51 556 -16 96 -19 90 73 110 98 21 148 44 166 78 12 23 16 24 87 19 68
-4 79 -2 139 27 39 19 102 66 160 119 194 176 207 186 221 168 27 -37 66 -183
71 -268 6 -84 5 -88 -15 -88 -21 0 -57 -37 -67 -70 -3 -11 -15 -22 -26 -25
-10 -4 -19 -11 -19 -17 0 -7 22 -8 65 -3 l65 7 0 -36 c0 -19 -5 -38 -10 -41
-16 -10 -40 14 -40 38 0 19 -3 18 -29 -10 -25 -27 -28 -37 -22 -65 11 -48 38
-95 93 -166 27 -34 58 -78 67 -98 l17 -35 12 75 c22 145 94 290 187 381 l43
41 -10 55 c-14 77 -4 243 18 303 18 47 72 116 90 116 5 0 6 -51 1 -122z m938
82 c11 9 15 4 21 -24 14 -75 -41 -209 -118 -289 -38 -38 -54 -48 -75 -45 -23
2 -28 8 -30 33 l-2 30 12 -27 13 -28 48 58 c63 75 115 177 98 194 -31 31 -122
-1 -122 -43 0 -27 18 -33 46 -14 14 9 33 15 42 13 17 -3 14 -6 -121 -113 l-58
-46 -21 48 c-12 26 -23 71 -26 99 -4 43 -1 55 17 73 31 31 41 27 30 -13 -7
-25 -5 -43 7 -72 l17 -39 9 32 c5 19 24 44 45 60 90 69 99 80 86 102 -18 30
-17 30 28 15 30 -11 45 -12 54 -4z m2745 -112 c0 -13 -23 -43 -59 -78 -32 -32
-61 -63 -64 -71 -5 -12 -7 -12 -17 1 -27 37 18 112 90 150 45 25 50 24 50 -2z
m51 -156 c-16 -31 -44 -50 -132 -90 -47 -22 -95 -51 -106 -66 -27 -33 -35 -33
-27 2 9 37 38 77 79 107 38 30 128 64 168 65 23 0 26 -3 18 -18z m165 -33
c113 -42 188 -155 239 -354 13 -55 25 -106 25 -113 0 -27 -18 -1 -29 42 -12
49 -41 71 -41 32 0 -13 7 -43 15 -66 25 -71 35 -150 18 -150 -7 0 -21 16 -30
35 -10 21 -24 35 -35 35 -24 0 -22 -17 7 -65 27 -43 34 -89 13 -83 -7 2 -24
28 -38 57 -26 54 -43 71 -71 71 -15 0 -15 -5 -3 -47 8 -27 29 -170 49 -320 19
-149 42 -304 51 -342 17 -71 17 -71 -6 -121 -13 -28 -28 -50 -33 -50 -6 0 -8
30 -4 77 l6 77 -34 -84 c-128 -312 -354 -587 -764 -932 l-96 -81 -6 71 c-7 74
-34 134 -66 146 -9 4 -17 5 -18 4 -8 -10 38 -187 54 -208 l19 -27 -43 -37
c-24 -20 -48 -36 -53 -36 -4 0 -16 35 -26 78 -20 85 -73 222 -86 222 -5 0 -13
-16 -19 -35 -12 -44 1 -95 54 -213 27 -62 35 -90 30 -112 -4 -17 -9 -30 -11
-30 -3 0 -25 13 -48 30 -59 40 -109 102 -199 245 -42 66 -92 138 -112 160
l-36 40 5 -38 c7 -55 51 -124 181 -287 114 -143 167 -232 179 -299 l6 -35 -26
25 c-15 13 -92 112 -173 219 -173 230 -220 286 -309 363 -71 62 -102 83 -102
69 0 -27 87 -130 260 -307 207 -212 256 -275 288 -370 22 -65 20 -80 -8 -65
-25 14 -54 55 -84 123 -14 32 -35 71 -47 88 -26 37 -90 71 -110 58 -11 -7 -6
-16 26 -43 59 -51 43 -61 -81 -46 -126 15 -216 43 -259 81 -19 17 -35 28 -35
24 0 -3 18 -33 40 -66 29 -42 54 -66 87 -83 l47 -23 -80 -31 c-43 -16 -170
-55 -281 -86 -233 -64 -268 -76 -383 -123 -76 -31 -88 -34 -122 -24 -20 7 -50
23 -66 36 -17 14 -37 25 -46 25 -19 0 -19 1 -20 112 -1 49 -1 88 -1 88 0 -4
147 -50 160 -50 18 0 18 -1 4 -16 -15 -14 -20 -14 -54 0 -60 26 -73 21 -39
-15 62 -66 126 -74 292 -38 53 12 126 23 162 23 l65 2 0 35 0 34 138 3 c75 1
137 6 137 11 0 19 -54 42 -113 48 -54 5 -138 -4 -227 -23 -22 -5 -30 2 -63 53
-35 54 -133 151 -142 141 -11 -10 44 -98 92 -147 29 -30 50 -58 47 -63 -12
-19 -220 -105 -230 -95 -2 1 -8 54 -14 117 -13 140 -32 209 -66 250 -35 41
-82 66 -98 50 -8 -9 -5 -16 13 -31 13 -10 29 -19 37 -19 8 0 14 -4 14 -10 0
-17 -32 -11 -77 16 -25 14 -46 24 -48 22 -10 -10 15 -163 32 -197 17 -34 18
-41 5 -46 -18 -7 -41 12 -53 43 -5 14 -14 84 -20 156 -5 72 -12 142 -15 155
-8 38 -24 11 -30 -50 -7 -65 -22 -109 -38 -109 -9 0 -16 41 -23 128 -5 70 -9
128 -8 130 1 1 14 -2 29 -8 37 -14 131 -12 256 5 115 16 194 18 225 6 18 -7
18 -10 -13 -41 l-33 -33 -142 7 c-78 4 -155 3 -172 -2 l-30 -9 35 -22 c62 -38
104 -44 255 -35 77 4 196 8 265 9 117 0 129 -2 183 -28 32 -16 71 -46 89 -68
17 -21 35 -36 39 -33 15 9 -7 39 -50 68 -22 16 -38 32 -35 37 9 15 57 10 103
-11 51 -23 132 -39 116 -22 -30 32 -487 189 -632 218 -51 10 -93 21 -93 24 0
16 68 43 121 47 107 10 262 -41 459 -151 55 -31 103 -56 105 -56 3 0 -1 13
-10 29 -28 55 -171 128 -357 182 -43 12 -78 26 -78 32 0 5 38 47 84 93 93 94
99 96 229 74 101 -16 257 -24 257 -13 0 16 -115 44 -215 51 l-90 7 27 18 c31
21 77 23 193 9 96 -13 117 -12 112 2 -6 19 -100 45 -164 46 l-61 0 185 183
c262 259 377 339 556 391 100 29 278 49 352 40 l50 -7 -20 23 c-76 86 -283 94
-489 19 -43 -16 -85 -34 -92 -40 -8 -7 -16 -10 -19 -7 -2 2 44 53 102 113 102
105 107 109 111 82 4 -33 33 -47 95 -47 38 0 260 31 331 46 29 6 29 7 10 21
-15 12 -40 14 -126 9 -60 -4 -108 -2 -108 2 0 22 86 47 160 47 66 0 84 -5 152
-37 42 -20 110 -59 152 -87 42 -29 76 -48 76 -43 0 21 -84 101 -127 122 -44
21 -46 23 -28 36 37 27 69 20 229 -51 l40 -17 -16 23 c-21 33 -120 85 -185 98
-151 30 -411 -2 -570 -70 -50 -21 -54 -14 -15 24 70 67 170 86 462 87 l195 1
-50 18 c-67 24 -116 56 -200 131 -38 34 -87 74 -107 88 -21 13 -38 30 -38 36
1 21 82 98 92 88 7 -7 1 -16 -16 -27 -52 -34 -27 -62 120 -134 43 -21 94 -50
112 -66 18 -15 36 -25 39 -22 7 7 -23 56 -46 75 -26 21 -135 72 -155 72 -15 0
-16 3 -6 15 19 23 89 28 168 11 89 -19 82 -19 82 -1 0 24 -36 35 -110 34 -71
-2 -100 9 -100 37 0 11 23 14 105 14 85 0 107 3 111 15 13 32 -17 48 -75 42
-62 -7 -91 4 -91 35 0 19 4 20 54 15 74 -7 105 -26 208 -123 48 -46 94 -84
100 -84 6 0 0 12 -14 28 -13 15 -50 64 -81 108 -81 116 -153 174 -217 174 -29
0 -20 29 31 100 22 30 49 74 61 98 20 38 25 42 60 42 20 0 63 -10 94 -21z
m-7246 -74 c0 -9 7 -29 16 -46 8 -16 12 -39 9 -50 -10 -29 -25 -13 -25 26 0
29 -4 36 -26 41 -45 11 -97 -3 -126 -36 -45 -49 -34 -100 27 -120 l36 -12 -25
-19 c-14 -11 -28 -28 -31 -39 -19 -59 88 -113 176 -90 36 10 39 13 33 38 -11
45 -24 62 -45 62 -12 0 -19 5 -17 13 9 24 41 18 75 -15 23 -21 37 -29 40 -20
8 21 32 13 48 -18 23 -44 20 -70 -9 -70 -13 0 -57 -14 -97 -31 -58 -25 -83
-30 -121 -27 -43 5 -46 3 -37 -13 5 -10 17 -23 27 -28 16 -9 16 -10 -1 -16
-12 -5 -31 6 -67 39 -27 25 -54 46 -60 46 -7 0 -5 9 4 22 24 34 19 98 -15 193
-17 47 -30 87 -28 89 35 27 108 70 137 81 52 19 102 19 102 0z m6934 -110
c-23 -75 -37 -100 -62 -103 -20 -3 -22 0 -16 25 24 106 29 117 69 125 11 2 21
4 22 3 1 0 -5 -23 -13 -50z m-6794 25 c12 0 16 -13 18 -56 2 -57 -9 -84 -34
-84 -9 0 -12 8 -8 28 5 25 -3 51 -34 116 -3 5 6 6 19 3 13 -4 31 -7 39 -7z
m6640 -127 c0 -44 -39 -114 -79 -142 -16 -12 -31 -21 -33 -21 -3 0 18 45 46
100 28 55 54 100 59 100 4 0 7 -16 7 -37z m-3822 -80 c5 -10 12 -33 16 -52 3
-19 13 -42 22 -52 13 -15 13 -17 -1 -22 -23 -10 -43 2 -65 38 -19 31 -27 85
-13 98 12 13 32 7 41 -10z m-3449 -39 c-16 -17 -24 -37 -24 -63 0 -37 -1 -38
-24 -30 -35 14 -79 -14 -146 -94 -51 -61 -97 -97 -124 -97 -14 0 244 250 292
282 52 35 57 35 26 2z m674 -143 c-3 -14 -17 -47 -30 -74 l-23 -47 -56 30
c-31 16 -60 27 -65 24 -20 -12 -7 17 14 30 18 12 30 13 65 4 52 -13 61 -6 69
52 5 39 7 41 19 25 8 -11 11 -29 7 -44z m662 38 c11 -35 -4 -89 -61 -209 -29
-63 -56 -131 -60 -150 l-6 -35 22 25 c33 39 75 127 106 223 15 48 31 87 34 87
12 0 152 -164 167 -196 l16 -32 -67 -84 c-81 -100 -133 -203 -142 -281 -4 -31
-4 -57 0 -57 28 0 159 84 222 142 l42 39 40 -17 c23 -9 53 -32 68 -52 50 -68
77 -93 86 -80 13 21 10 26 -53 94 -71 77 -74 99 -14 120 22 7 41 18 43 24 6
17 20 12 81 -30 129 -88 341 -166 588 -215 70 -14 136 -27 146 -29 36 -8 14 5
-95 60 -130 65 -232 129 -268 168 -24 27 -21 26 55 -12 207 -103 443 -185 655
-227 117 -24 302 -17 381 14 90 35 129 87 129 175 0 47 2 54 16 49 9 -3 29
-34 44 -69 29 -64 63 -95 82 -76 7 7 4 22 -11 45 -27 44 -27 57 3 57 19 0 29
-14 64 -87 39 -87 112 -278 168 -443 l29 -85 3 45 c1 26 -10 92 -27 158 -16
61 -25 112 -20 112 19 0 105 -90 138 -144 18 -31 53 -111 76 -178 38 -111 43
-119 49 -91 16 72 -38 231 -104 306 -30 34 -31 37 -11 37 34 0 83 -25 113 -56
43 -46 74 -127 128 -333 54 -205 76 -264 91 -240 19 30 9 100 -26 183 -35 85
-42 116 -27 116 4 0 35 -27 69 -60 33 -33 66 -60 72 -60 31 0 2 43 -88 129
-68 65 -102 106 -106 126 -4 17 -8 36 -11 43 -4 15 11 16 36 2 10 -6 80 -24
155 -41 137 -31 217 -58 230 -78 10 -17 -20 -24 -44 -11 -27 14 -26 6 3 -33
13 -18 43 -70 66 -117 45 -91 100 -180 113 -180 18 0 4 59 -24 100 -45 67 -79
136 -79 162 0 18 9 26 40 36 60 18 65 16 78 -35 7 -27 44 -116 83 -200 72
-157 109 -253 109 -285 0 -22 25 -24 34 -3 3 9 -3 38 -14 66 -11 28 -18 55
-15 60 9 14 52 11 85 -6 38 -19 58 -59 66 -127 9 -89 -32 -403 -96 -718 -55
-275 -84 -450 -75 -458 5 -5 31 55 61 141 31 91 56 209 99 476 20 123 40 233
44 245 15 38 22 -167 11 -285 -17 -181 -47 -317 -106 -483 -27 -76 -104 -240
-127 -271 -14 -18 -16 -17 -22 29 -12 75 2 254 30 416 27 154 45 430 28 430
-13 0 -57 -83 -77 -145 -8 -27 -31 -120 -51 -205 -41 -180 -68 -268 -101 -329
-27 -48 -30 -61 -12 -43 50 50 -3 -67 -74 -163 -48 -65 -124 -134 -198 -180
-60 -38 -188 -83 -256 -91 -56 -7 -56 -7 -49 17 10 34 43 67 95 97 25 14 55
34 68 46 15 13 26 16 32 10 7 -7 -2 -22 -25 -44 -58 -57 -39 -56 28 1 103 88
241 210 262 232 l20 20 -30 -18 c-189 -119 -459 -226 -654 -259 -143 -24 -367
-19 -358 8 2 6 31 12 65 14 148 7 9 67 -165 71 -34 1 -28 16 15 34 52 22 87
32 245 67 201 46 268 79 285 143 8 30 12 32 66 39 31 4 80 20 107 35 50 27
187 168 175 180 -11 11 -55 -16 -106 -63 -85 -80 -59 -22 33 74 77 80 117 132
102 132 -10 0 -168 -117 -259 -191 -92 -75 -131 -126 -156 -201 l-17 -52 -66
-12 c-37 -7 -122 -27 -189 -44 -224 -58 -316 -69 -405 -50 -64 14 -82 25 -65
42 28 28 12 45 -84 88 -96 44 -144 84 -144 121 0 27 30 24 71 -6 50 -36 98
-60 106 -52 12 13 -79 96 -172 159 -130 87 -181 127 -216 170 l-30 38 35 15
c19 8 78 20 132 27 84 10 94 13 78 25 -27 20 -89 16 -195 -12 -104 -27 -153
-30 -185 -12 -17 9 -20 17 -13 34 14 38 64 55 161 56 49 0 85 3 81 7 -25 23
-98 33 -278 40 -117 4 -212 13 -230 20 l-30 12 25 10 c14 5 77 16 140 24 230
29 296 70 244 149 -10 15 -12 25 -5 25 20 0 12 15 -18 33 -34 20 -114 22 -205
6 -34 -5 -84 -9 -111 -7 l-50 3 34 22 c19 12 60 25 90 28 149 17 221 52 221
109 0 26 -34 60 -69 71 -14 4 -81 7 -149 6 -140 -1 -145 3 -68 56 69 47 152
69 369 98 234 32 357 61 357 86 0 10 -127 3 -200 -12 -30 -6 -128 -28 -218
-50 -90 -21 -167 -39 -172 -39 -4 0 -10 40 -12 89 -3 97 -17 127 -69 158 -49
30 -85 6 -220 -144 -93 -103 -131 -101 -190 11 -21 39 -45 76 -55 83 -16 12
-17 15 -4 23 22 14 22 14 105 -30 68 -36 135 -52 135 -32 0 10 -91 75 -203
145 -229 143 -277 175 -353 233 -78 60 -174 157 -174 175 0 5 14 16 31 25 110
56 263 70 578 50 133 -9 259 -16 279 -16 l37 1 -26 14 c-15 8 -62 25 -105 37
-71 21 -100 23 -289 23 -232 -1 -315 -11 -572 -70 -20 -5 -23 -1 -23 24 0 47
-27 115 -81 207 -39 66 -49 91 -44 112 11 50 44 91 119 146 41 31 84 69 96 86
20 28 20 30 3 30 -39 0 -161 -98 -227 -183 l-25 -31 -20 44 c-28 61 -27 133 3
217 14 37 42 118 63 180 21 62 41 112 45 113 4 0 10 -9 13 -21z m-1130 -99
c-10 -11 -38 -31 -62 -46 -31 -18 -45 -34 -50 -55 -7 -34 -19 -38 -28 -8 -10
31 22 69 85 102 64 32 80 34 55 7z m7082 -36 c49 -24 123 -93 123 -114 0 -6
-51 -10 -131 -10 -116 0 -130 2 -119 15 9 11 10 18 1 28 -29 35 51 37 118 2
27 -13 51 -22 54 -19 14 14 -10 38 -59 60 -56 25 -91 64 -56 64 10 0 41 -12
69 -26z m-5724 -219 c-19 -50 -76 -125 -88 -113 -3 3 1 21 11 40 21 42 85 130
90 125 2 -2 -4 -25 -13 -52z m6423 -40 c-3 -27 -6 -70 -6 -95 -1 -42 -2 -44
-15 -26 -11 15 -15 47 -15 120 l1 101 20 -25 c18 -21 20 -33 15 -75z m-8401
-103 c71 -67 74 -72 43 -72 -27 0 -56 18 -114 70 -22 21 -47 40 -55 43 -12 5
-12 7 1 16 25 19 62 2 125 -57z m1015 -22 c0 -6 20 -32 43 -58 43 -47 64 -82
48 -82 -4 0 -27 15 -50 33 -114 87 -126 91 -182 61 -33 -17 -45 -14 -36 10 3
8 34 21 69 29 77 19 108 20 108 7z m3374 -62 c11 -69 26 -212 22 -216 -2 -2
-14 2 -26 8 -20 11 -21 18 -18 126 3 112 12 146 22 82z m3046 -12 c0 -8 -15
-19 -32 -25 -43 -13 -148 -25 -148 -17 0 4 24 18 53 31 59 28 127 34 127 11z
m-440 -162 c0 -3 -20 -31 -44 -63 -68 -88 -186 -193 -336 -299 -224 -158 -314
-229 -387 -305 -38 -39 -76 -83 -85 -95 -12 -18 -22 -22 -37 -17 -27 8 -27 29
1 67 l21 31 -26 -6 c-86 -21 -86 -21 -44 16 21 19 82 58 136 87 116 60 144 87
145 134 l1 34 61 5 c97 7 145 40 300 203 115 122 146 148 206 179 70 34 88 41
88 29z m-5417 -219 c21 -9 22 -19 1 -39 -32 -32 -114 -8 -114 34 0 28 50 31
113 5z m-893 -133 c50 -34 53 -37 29 -40 -14 -2 -51 11 -83 28 -32 16 -68 30
-80 30 -21 1 -21 1 -1 16 28 21 69 11 135 -34z m7413 -304 c33 -151 196 -805
227 -915 17 -59 56 -185 86 -280 29 -94 54 -176 54 -182 0 -17 -80 -33 -129
-26 -25 4 -93 25 -151 47 -58 22 -125 43 -150 47 l-45 6 0 101 c0 110 -9 134
-51 134 -27 0 -31 12 -10 29 26 22 78 152 96 244 23 111 40 398 40 675 0 111
3 202 8 202 4 0 15 -37 25 -82z m-6828 52 c3 -5 -13 -14 -35 -20 -90 -24 -26
-60 109 -60 100 0 135 -13 139 -53 3 -24 1 -26 -20 -18 -39 14 -208 44 -215
38 -12 -12 7 -37 29 -37 16 0 19 -3 11 -11 -12 -12 -223 -19 -223 -8 0 17 83
129 108 145 49 34 85 43 97 24z m1540 -160 c21 -41 19 -68 -11 -128 -30 -61
-118 -144 -204 -193 -101 -57 -99 -55 -67 -84 37 -33 59 -32 207 10 125 35
271 48 285 25 18 -29 -135 -83 -319 -112 -80 -12 -146 -27 -146 -32 0 -6 7
-30 16 -53 l17 -43 181 0 c128 -1 190 -5 211 -14 l30 -14 -45 -19 c-51 -23
-160 -45 -337 -69 -104 -15 -123 -20 -123 -35 0 -50 31 -71 130 -89 94 -16
128 -29 145 -53 15 -22 15 -22 -72 -27 l-88 -5 3 -34 c4 -39 -11 -53 -46 -44
-20 5 -23 2 -20 -13 2 -13 17 -22 46 -29 24 -6 46 -16 50 -22 4 -6 24 -14 45
-18 21 -4 36 -9 34 -11 -5 -5 -244 24 -277 34 -14 4 -63 47 -110 96 l-84 89
-88 2 c-48 1 -91 5 -95 9 -12 12 14 181 37 233 26 62 72 108 128 127 23 8 42
13 42 11 0 -3 -27 -44 -60 -92 -33 -47 -60 -91 -60 -96 0 -6 38 27 84 74 97
99 130 154 124 211 -3 37 -1 42 39 69 23 17 87 68 140 116 107 94 206 163 234
163 28 0 33 19 9 38 -14 11 -19 23 -15 35 9 23 12 22 30 -13z m-1304 -53 c15
-12 47 -50 73 -84 25 -34 52 -64 58 -66 10 -4 9 -8 -2 -17 -18 -13 -66 -7
-145 20 -35 11 -87 20 -124 20 -47 0 -62 3 -54 11 6 6 55 12 117 13 58 0 106
4 106 7 0 13 -47 38 -84 44 l-36 7 25 24 c14 13 25 28 25 34 0 16 13 12 41
-13z m-231 -47 c-45 -34 -189 -55 -205 -30 -13 21 77 50 155 50 l75 0 -25 -20z
m-1525 -67 c11 -16 22 -69 30 -147 7 -66 16 -130 21 -141 7 -20 7 -20 -15 0
-34 30 -52 70 -67 154 -18 105 -18 172 0 165 8 -3 22 -17 31 -31z m1779 -88
c130 -29 387 -99 424 -115 15 -7 22 -18 22 -38 0 -29 -11 -52 -88 -193 -23
-42 -45 -96 -48 -122 -6 -44 -5 -47 16 -47 52 0 100 86 140 250 6 25 20 75 31
113 l20 67 89 0 c89 0 104 -6 75 -30 -28 -23 -106 -139 -145 -217 -91 -177
-88 -343 7 -445 24 -25 24 -26 5 -32 -51 -17 -278 42 -429 111 l-53 24 21 42
c12 23 35 58 50 78 l29 37 -25 6 c-27 7 -29 13 -25 96 1 50 0 54 -14 40 -9 -9
-25 -58 -36 -110 -16 -75 -25 -100 -46 -118 -15 -13 -28 -21 -31 -19 -2 3 5
26 15 53 20 50 82 265 82 284 0 5 -6 10 -13 10 -25 0 -49 -38 -54 -84 -3 -25
-12 -51 -21 -58 -14 -12 -15 -7 -9 42 4 30 10 66 13 79 6 21 5 22 -15 12 -28
-16 -39 -46 -47 -132 -4 -38 -10 -69 -14 -69 -3 0 -26 20 -51 44 -43 44 -63
78 -150 261 -32 66 -59 105 -101 147 -69 69 -71 68 122 64 103 -3 163 -10 254
-31z m5856 -202 c-34 -42 -106 -147 -113 -166 -7 -21 -37 13 -37 42 0 32 49
83 124 130 28 17 52 31 54 31 2 0 -10 -17 -28 -37z m-497 -215 c43 -11 95 -33
118 -50 41 -30 78 -94 79 -135 0 -21 -5 -23 -50 -23 -47 0 -63 11 -40 25 18
11 11 43 -14 63 -14 10 -62 34 -108 52 -85 34 -112 51 -130 84 -9 17 -7 18 28
12 22 -4 74 -16 117 -28z m-1619 -471 c0 -77 -40 -261 -54 -252 -22 13 -20 69
4 164 14 55 26 119 26 142 0 34 3 41 13 31 7 -8 12 -40 11 -85z m1910 32 c26
-44 67 -159 56 -159 -15 0 -56 61 -75 112 -9 25 -28 57 -41 69 -13 12 -21 26
-18 31 8 13 59 -21 78 -53z m-4999 -64 c112 -31 126 -31 164 1 l31 26 0 -26
c0 -34 -26 -46 -100 -46 -63 0 -183 23 -210 40 -13 9 -13 11 0 20 19 13 11 14
115 -15z m3059 -280 c3 -8 -1 -33 -9 -56 -8 -23 -15 -57 -15 -76 0 -23 -5 -35
-17 -39 -10 -2 -48 -20 -85 -39 -37 -19 -81 -35 -98 -35 l-31 0 58 51 c62 54
119 119 153 174 23 38 35 43 44 20z m339 0 c18 -8 53 -30 79 -49 26 -19 52
-36 59 -38 12 -4 -12 -122 -33 -161 -11 -21 -11 -21 -18 -2 -4 11 -4 48 -1 82
4 35 4 59 0 55 -4 -4 -37 -74 -74 -157 -67 -153 -142 -291 -152 -281 -8 8 23
86 74 190 45 89 83 214 83 269 0 30 0 30 -21 11 -33 -30 -56 -83 -89 -204 -17
-61 -36 -126 -44 -143 -20 -48 -75 -95 -123 -105 -24 -6 -43 -9 -43 -7 0 2 33
70 73 152 77 157 143 317 153 371 7 37 26 41 77 17z m-373 -234 c0 -5 -3 -17
-6 -26 -9 -23 -326 -179 -453 -223 -102 -35 -111 -36 -248 -37 -79 0 -143 0
-143 -1 0 0 23 -15 50 -33 108 -70 171 -190 254 -483 31 -109 67 -227 81 -263
23 -61 23 -65 6 -65 -10 0 -35 -7 -55 -15 l-36 -15 0 -73 c0 -43 12 -120 29
-194 l28 -122 -37 30 c-39 31 -124 51 -176 41 -25 -4 -25 -4 -17 49 4 30 8
119 7 199 -1 129 -4 154 -27 226 -41 124 -129 242 -229 308 -25 17 -26 18 -12
63 10 32 14 101 14 222 l0 177 153 12 c242 18 370 53 622 167 131 59 195 77
195 56z m-825 -120 c18 -7 17 -10 -15 -29 -67 -41 -172 -39 -178 4 -2 17 2 20
30 16 18 -2 51 1 73 6 50 12 65 13 90 3z m1215 -60 c0 -19 -22 -62 -65 -126
-36 -54 -65 -106 -65 -116 0 -11 -6 -19 -12 -19 -18 0 -98 34 -98 41 0 3 9 14
20 24 20 18 20 19 33 -25 8 -27 89 69 137 163 25 48 46 87 48 87 1 0 2 -13 2
-29z m-584 -40 c-21 -21 -78 -63 -127 -92 -49 -29 -88 -57 -86 -63 2 -6 25
-11 50 -11 26 0 47 -4 47 -8 0 -16 -52 -56 -88 -69 -52 -18 -150 -15 -189 6
-32 16 -71 62 -61 72 3 2 81 36 174 74 93 39 198 83 234 99 86 39 91 38 46 -8z
m-2611 -103 c20 -68 33 -328 15 -311 -23 21 -41 116 -47 247 -7 140 3 160 32
64z m1725 -667 c-29 -23 -120 -53 -258 -86 -57 -13 -129 -36 -160 -50 l-57
-26 28 29 c33 35 129 83 213 108 56 16 195 41 239 43 18 0 18 -1 -5 -18z
m1055 -292 c37 -10 38 -12 20 -25 -24 -18 -58 -18 -119 1 -27 8 -68 15 -90 16
l-41 1 30 14 c33 16 130 12 200 -7z m-3166 -125 c12 -10 -18 -13 -169 -18 -91
-3 -218 -10 -283 -17 -65 -6 -121 -9 -124 -6 -8 9 54 37 100 47 39 8 467 2
476 -6z m39 -388 c-98 -90 -282 -142 -473 -134 -116 6 -178 21 -253 65 -52 30
-50 37 4 20 56 -17 380 -16 469 2 90 18 215 55 252 75 49 27 50 17 1 -28z
m4020 -103 c12 -29 18 -81 22 -221 3 -100 2 -182 -2 -182 -9 0 -44 59 -53 89
-7 24 3 351 12 351 2 0 11 -17 21 -37z m-4069 -479 c-7 -8 -31 -25 -53 -37
-36 -19 -57 -22 -166 -22 -86 0 -150 6 -205 19 -132 30 -124 38 30 29 205 -12
324 -9 365 10 45 20 45 20 29 1z m2201 -383 c14 -28 12 -160 -5 -271 -8 -52
-15 -113 -15 -135 -1 -36 -2 -38 -14 -22 -25 33 -27 110 -5 262 11 81 18 156
16 166 -7 25 9 24 23 0z m1856 -418 c-18 -35 -82 -96 -126 -118 -71 -37 -40
17 47 81 34 25 67 52 74 60 19 23 22 9 5 -23z"/>
<path d="M3538 10010 c-15 -4 -37 -15 -49 -23 -21 -16 -21 -16 25 -38 26 -12
54 -34 63 -48 9 -14 28 -45 44 -68 24 -36 26 -43 11 -43 -9 0 -39 14 -67 30
-49 29 -95 39 -95 21 0 -16 73 -73 119 -94 54 -25 172 -29 236 -8 57 18 115
43 115 50 0 15 -87 105 -142 147 -95 73 -181 98 -260 74z m158 -37 c30 -19 70
-96 53 -102 -15 -5 -94 27 -124 50 -14 12 -33 35 -41 51 l-16 31 51 -6 c27 -3
62 -14 77 -24z"/>
<path d="M6980 9122 c0 -37 44 -69 71 -51 11 7 8 15 -19 39 -37 34 -52 38 -52
12z"/>
<path d="M7025 8910 c-4 -11 -31 -39 -61 -62 -60 -45 -64 -64 -15 -61 39 1 99
45 107 78 12 47 -17 89 -31 45z"/>
<path d="M4157 8728 c-52 -74 -128 -98 -453 -143 -129 -18 -217 -45 -259 -80
-36 -30 -50 -31 159 15 153 34 309 51 391 43 49 -5 53 -4 60 18 4 12 37 50 72
84 46 44 64 68 61 82 -3 18 -7 15 -31 -19z"/>
<path d="M3127 8325 c-70 -116 -96 -172 -97 -212 0 -39 16 -26 58 45 67 113
102 190 109 237 3 25 4 45 2 45 -2 0 -35 -52 -72 -115z"/>
<path d="M3217 8331 c-4 -16 -23 -55 -43 -87 -35 -55 -50 -115 -30 -123 6 -2
29 32 53 75 31 58 43 90 43 122 0 48 -15 56 -23 13z"/>
<path d="M3917 8041 c-10 -213 -9 -315 3 -389 13 -76 44 -163 71 -194 l19 -23
-15 36 c-25 64 -36 159 -46 414 -11 313 -23 368 -32 156z"/>
<path d="M3570 7398 c-150 -127 -162 -139 -158 -144 3 -2 36 18 74 45 70 50
192 166 183 175 -3 3 -47 -31 -99 -76z"/>
<path d="M4795 7839 c-72 -7 -159 -34 -176 -55 -10 -12 -10 -20 -1 -35 11 -17
9 -19 -13 -19 -72 0 -215 -81 -260 -148 -38 -56 -30 -59 24 -8 55 50 108 77
281 138 124 43 191 74 229 105 l24 20 -24 4 c-13 2 -51 2 -84 -2z"/>
<path d="M4656 7632 c-7 -22 -45 -44 -138 -83 -86 -35 -108 -53 -108 -88 0
-50 10 -51 114 -5 54 24 121 51 149 59 53 16 137 20 137 8 0 -5 -35 -19 -77
-31 -124 -38 -195 -90 -217 -159 -7 -21 -4 -23 24 -23 17 0 46 -7 65 -14 19
-8 36 -11 37 -5 4 31 0 34 -51 39 -30 3 -56 10 -58 16 -4 11 75 44 105 44 9 0
23 -7 33 -16 22 -20 41 -8 92 57 20 27 47 51 60 54 22 6 23 10 20 78 -3 73
-16 105 -27 69 -11 -32 -35 -34 -93 -7 -66 30 -60 29 -67 7z"/>
<path d="M9236 7811 c-4 -6 -3 -11 3 -11 5 0 60 -50 121 -111 61 -61 113 -109
116 -107 9 10 -102 181 -133 205 -35 27 -97 41 -107 24z"/>
<path d="M9269 7693 c39 -78 164 -193 186 -171 6 6 -140 163 -176 189 l-31 22
21 -40z"/>
<path d="M8533 6602 c-28 -4 -30 -22 -3 -22 10 0 48 -16 83 -35 86 -47 128
-46 75 2 -44 39 -109 62 -155 55z"/>
<path d="M8300 6563 c1 -15 185 -93 218 -93 17 0 32 3 31 8 -1 16 -175 92
-211 92 -21 0 -38 -3 -38 -7z"/>
<path d="M3451 6847 c29 -33 282 -174 414 -230 249 -106 535 -168 763 -166
l97 1 -100 18 c-110 19 -156 39 -227 98 -46 39 -47 39 -24 50 13 6 33 24 45
40 l21 29 -38 -13 c-63 -23 -247 -18 -386 11 -155 31 -399 102 -551 161 -11 4
-17 4 -14 1z m640 -221 c215 -47 335 -84 320 -99 -27 -27 -133 -11 -292 43
-85 29 -172 61 -194 71 -64 28 -12 23 166 -15z"/>
<path d="M5192 6604 c10 -58 26 -120 36 -138 l17 -31 3 29 c8 64 -43 246 -69
246 -3 0 2 -48 13 -106z"/>
<path d="M5259 6641 c6 -10 17 -77 26 -149 15 -131 31 -188 60 -212 14 -11 15
-10 7 11 -5 13 -12 62 -16 109 -10 128 -26 207 -48 235 -23 30 -43 34 -29 6z"/>
<path d="M3510 6473 c-88 -6 -196 -25 -248 -45 -29 -11 -52 -22 -50 -24 7 -7
336 25 385 37 27 7 62 18 78 25 28 12 25 13 -45 12 -41 -1 -95 -3 -120 -5z"/>
<path d="M3375 6315 c31 -25 113 -45 179 -44 l61 0 -80 25 c-44 14 -102 27
-130 30 -47 5 -49 4 -30 -11z"/>
<path d="M5877 6274 c-3 -5 38 -35 91 -66 79 -48 104 -58 141 -58 51 0 50 2
-10 33 -24 13 -67 38 -95 55 -51 33 -117 51 -127 36z"/>
<path d="M3435 6220 c8 -14 149 -56 263 -80 220 -44 475 -45 607 -1 l60 20
-65 -6 c-36 -4 -164 -7 -285 -7 -235 -1 -269 4 -437 55 -97 29 -154 37 -143
19z"/>
<path d="M3625 6090 c-7 -11 137 -60 177 -60 32 0 68 14 58 23 -3 2 -48 12
-100 21 -52 10 -103 19 -112 21 -10 2 -20 0 -23 -5z"/>
<path d="M4201 5970 c-116 -25 -48 -45 149 -45 117 0 141 3 180 22 l45 21 -70
1 c-38 1 -113 3 -165 6 -52 2 -115 0 -139 -5z"/>
<path d="M4410 5850 c-147 -7 -185 -15 -209 -44 -12 -14 -8 -16 37 -16 107 0
288 35 317 61 5 5 7 8 5 7 -3 -1 -70 -4 -150 -8z"/>
<path d="M6322 5652 c-41 -132 -136 -294 -275 -470 -57 -73 -64 -86 -54 -103
10 -16 6 -25 -31 -62 -33 -34 -40 -46 -28 -50 26 -10 134 123 252 314 74 121
76 123 71 79 -4 -25 -26 -98 -51 -162 -44 -111 -69 -228 -50 -228 6 0 17 19
26 43 9 23 37 92 62 152 83 203 122 387 107 510 l-7 50 -22 -73z"/>
<path d="M6377 5487 c-27 -84 -34 -132 -19 -141 9 -5 62 149 62 180 -1 53 -18
38 -43 -39z"/>
<path d="M5614 5219 c-126 -133 -350 -251 -782 -410 -175 -64 -174 -64 -127
-79 58 -19 132 -6 247 43 152 65 148 64 128 26 -31 -58 88 14 215 130 100 91
178 141 222 141 31 0 29 -9 -12 -63 -36 -47 -100 -100 -215 -177 -36 -24 -87
-64 -113 -89 -49 -45 -94 -116 -79 -124 13 -8 116 24 162 50 71 41 169 151
237 265 57 96 158 307 150 314 -2 2 -17 -10 -33 -27z"/>
<path d="M5810 5142 c-14 -25 -63 -95 -109 -156 -97 -125 -151 -211 -151 -239
0 -15 7 -10 26 19 15 21 52 70 84 109 84 102 147 201 166 257 9 27 14 51 12
53 -2 2 -15 -17 -28 -43z"/>
<path d="M5795 4975 c-39 -79 -97 -155 -217 -285 -68 -73 -125 -137 -127 -143
-5 -14 49 24 143 102 140 116 232 252 224 332 l-4 34 -19 -40z"/>
<path d="M2730 5573 c0 -13 161 -100 209 -113 24 -6 55 -8 70 -5 24 7 23 9
-24 25 -27 9 -81 33 -120 52 -72 37 -135 56 -135 41z"/>
<path d="M2700 5511 c0 -13 54 -58 95 -79 63 -31 205 -62 205 -44 0 10 -161
83 -246 112 -30 11 -54 16 -54 11z"/>
<path d="M3017 5281 c-45 -90 -60 -151 -37 -151 6 0 10 8 10 18 0 9 18 49 41
87 41 70 59 128 43 137 -5 3 -31 -38 -57 -91z"/>
<path d="M1195 12083 c-280 -59 -469 -162 -604 -328 -112 -138 -163 -275 -167
-454 -3 -90 -7 -117 -20 -132 -9 -11 -15 -19 -12 -19 9 0 474 123 733 195 293
80 641 186 834 254 80 28 147 49 149 46 2 -2 13 -30 24 -62 14 -40 22 -95 25
-176 4 -92 8 -115 18 -107 10 8 9 -3 -1 -47 -8 -32 -14 -62 -14 -67 0 -16 29
15 32 35 4 26 22 25 26 -1 6 -38 22 -20 22 25 0 32 -6 51 -21 66 l-20 20 60
65 c59 62 75 96 83 169 3 32 -5 35 -49 21 -19 -6 -23 -4 -23 13 0 15 9 22 35
27 42 7 43 15 10 48 -14 14 -25 32 -25 41 0 25 -88 20 -152 -10 -29 -14 -66
-25 -83 -25 -27 0 -34 7 -65 67 -41 79 -151 193 -231 241 -119 70 -254 102
-424 101 -66 -1 -129 -3 -140 -6z m515 -238 c122 -86 203 -193 111 -146 -40
21 -201 138 -213 156 -4 5 -8 28 -8 50 0 38 1 39 15 18 9 -12 51 -47 95 -78z
m-620 -163 c0 -96 -21 -169 -57 -204 -36 -33 -73 -45 -73 -24 0 16 15 33 58
68 27 22 28 52 2 78 -20 20 -60 28 -60 11 0 -5 12 -19 28 -30 21 -16 24 -23
13 -30 -16 -11 -46 -4 -62 15 -9 11 -9 27 0 69 7 30 10 64 6 75 -5 17 -2 20
22 20 15 1 39 7 53 15 14 8 35 14 48 15 21 0 22 -4 22 -78z"/>
<path d="M7640 11909 c5 -18 7 -58 3 -90 -6 -63 5 -89 38 -89 17 0 19 8 19 76
0 90 -18 133 -57 134 -8 0 -9 -9 -3 -31z"/>
<path d="M1925 11920 c-3 -5 0 -10 9 -10 8 0 46 -29 85 -65 72 -66 114 -86
134 -66 8 8 8 11 0 11 -7 0 -38 24 -70 53 -32 29 -69 61 -83 70 -27 19 -66 22
-75 7z"/>
<path d="M1945 11394 c-33 -7 -161 -32 -285 -54 -620 -113 -848 -172 -1020
-261 -75 -39 -160 -102 -150 -112 6 -7 132 30 434 128 339 109 574 170 786
204 118 19 331 34 339 25 4 -5 16 -56 26 -114 21 -125 49 -206 77 -221 28 -15
31 -8 12 37 -9 21 -27 90 -40 152 -27 127 -45 176 -76 209 -24 26 -22 26 -103
7z"/>
<path d="M312 11055 c-48 -73 -100 -188 -118 -260 l-7 -30 23 20 c13 11 36 48
51 81 39 86 69 108 137 101 28 -3 52 -2 52 2 0 5 -12 26 -26 47 -15 21 -34 57
-44 78 l-16 40 -52 -79z"/>
<path d="M1985 10573 c-11 -3 -53 -19 -94 -36 -68 -28 -72 -31 -50 -40 l24 -9
-22 -11 c-24 -11 -32 -47 -10 -47 6 0 27 9 45 20 34 21 92 27 92 10 0 -5 -19
-14 -42 -20 -69 -17 -98 -31 -109 -51 -9 -17 -6 -19 26 -19 41 0 42 -3 15 -30
-30 -30 -26 -52 8 -44 136 29 211 70 196 107 -5 13 -9 14 -25 4 -13 -8 -22 -8
-29 -1 -8 8 -3 13 17 17 46 9 66 72 43 131 -10 26 -33 31 -85 19z"/>
<path d="M7982 4923 c19 -21 72 -85 117 -142 86 -110 147 -181 156 -181 3 0
-7 24 -21 53 -65 127 -167 252 -236 288 -53 27 -57 24 -16 -18z"/>
<path d="M7328 4891 c-26 -10 -60 -29 -76 -42 -37 -29 -126 -138 -119 -145 7
-7 132 25 183 46 48 21 114 76 114 96 0 19 -5 18 -60 -13 -61 -34 -74 -25 -26
20 20 19 36 39 36 46 0 6 -1 11 -2 11 -2 -1 -24 -9 -50 -19z"/>
<path d="M7030 4796 c0 -13 -14 -57 -31 -97 -30 -71 -40 -132 -22 -150 11 -11
83 170 83 210 0 35 -9 61 -21 61 -5 0 -9 -11 -9 -24z"/>
<path d="M7200 4310 c40 -56 45 -128 21 -292 -28 -188 -18 -264 27 -201 56 79
74 251 38 367 -19 64 -65 140 -91 150 -13 4 -12 -1 5 -24z"/>
<path d="M7040 4248 c0 -13 18 -40 41 -64 34 -34 40 -47 37 -75 l-3 -34 -36
38 c-35 37 -53 44 -76 29 -10 -6 -9 -17 4 -51 14 -36 15 -51 5 -97 -15 -71
-55 -150 -100 -197 l-36 -37 34 6 c166 29 249 121 280 308 9 58 9 58 -32 112
-22 30 -42 54 -43 54 -1 0 -19 7 -39 15 -35 15 -36 15 -36 -7z"/>
<path d="M8163 4089 c-48 -74 -183 -308 -183 -317 0 -17 99 92 140 156 46 69
96 190 88 213 -2 7 -23 -17 -45 -52z"/>
<path d="M8250 4017 c-66 -111 -106 -204 -94 -216 4 -3 9 -1 11 6 2 6 35 60
73 119 65 99 87 151 78 187 -1 8 -32 -35 -68 -96z"/>
<path d="M7972 3989 c-20 -6 -71 -46 -132 -104 -54 -52 -101 -95 -104 -95 -15
0 11 33 50 65 24 20 44 41 44 48 0 6 -13 -2 -28 -16 -49 -47 -121 -67 -276
-77 -157 -11 -220 -19 -211 -28 3 -3 58 -11 121 -18 132 -13 152 -23 103 -53
-49 -30 -121 -35 -274 -17 -162 19 -269 20 -331 5 -102 -26 -38 -40 226 -48
188 -5 208 -8 243 -28 44 -26 36 -29 178 57 46 27 88 50 94 50 5 0 -15 -25
-45 -55 -45 -46 -52 -57 -40 -65 30 -19 47 -10 126 69 30 30 60 51 73 51 31 0
26 -15 -14 -46 -19 -14 -35 -33 -35 -40 0 -20 8 -17 47 16 27 24 43 30 79 30
47 0 91 -17 113 -44 12 -14 4 -16 -78 -16 -50 0 -91 -2 -91 -5 0 -4 6 -18 14
-33 44 -86 88 -357 126 -772 28 -307 48 -458 75 -566 l23 -91 -24 -49 c-53
-110 -52 -208 7 -513 46 -239 50 -328 27 -516 -4 -28 72 -66 222 -110 156 -45
206 -74 245 -143 l30 -53 48 5 c96 10 152 47 284 184 82 85 123 134 123 150 0
25 -22 50 -69 78 -39 23 -36 41 13 74 21 15 42 34 47 42 21 38 -25 69 -92 60
-49 -5 -55 10 -19 46 35 36 37 61 9 118 l-20 43 39 69 c77 136 97 197 97 297
0 80 -3 96 -28 140 l-28 51 25 45 c46 81 68 237 86 609 11 216 27 428 38 495
l7 40 55 3 c119 7 245 -41 328 -125 131 -135 185 -340 199 -760 l6 -202 -21 6
c-20 5 -22 1 -22 -36 0 -47 -16 -59 -52 -40 -13 6 7 -16 44 -50 37 -34 117
-122 178 -196 222 -267 370 -344 639 -332 l115 6 52 -48 c68 -62 194 -124 320
-158 84 -22 120 -26 239 -26 125 0 149 3 220 26 44 15 97 38 119 53 l39 27 -6
61 c-14 152 -77 243 -248 358 -194 132 -231 161 -270 213 -21 29 -40 67 -44
90 -24 148 -51 232 -175 545 -144 361 -176 476 -188 687 l-7 111 -54 -126
c-63 -146 -76 -224 -46 -282 l17 -33 12 24 c6 13 19 25 29 27 14 3 17 -1 12
-21 -9 -35 12 -143 40 -205 24 -53 51 -75 65 -52 5 7 10 -3 14 -27 12 -68 54
-185 120 -341 36 -84 76 -188 90 -231 23 -77 23 -80 6 -108 -57 -94 -220 -179
-423 -220 -109 -22 -334 -22 -436 1 -143 32 -262 108 -303 197 -10 20 -20 62
-23 95 l-5 59 15 -46 c14 -43 49 -88 60 -77 3 3 -2 25 -12 49 -18 48 -21 169
-12 614 3 205 2 224 -17 275 l-21 55 -71 -4 c-59 -2 -77 1 -111 20 -38 21 -75
74 -65 91 3 4 28 -2 57 -13 172 -69 265 -86 361 -66 l39 8 -6 -108 c-4 -86
-12 -129 -39 -210 -19 -57 -31 -103 -27 -103 19 0 69 64 84 107 9 27 21 115
28 197 l11 149 61 27 c33 16 93 40 134 56 45 16 89 41 110 62 24 22 29 31 16
26 -11 -4 -60 -22 -110 -41 -114 -45 -214 -65 -292 -61 l-61 3 31 -26 31 -26
-53 -13 c-61 -14 -149 -2 -213 31 -68 35 -69 34 122 94 63 20 191 62 285 93
l170 57 -115 5 c-112 5 -140 11 -140 31 0 21 76 90 182 166 128 91 190 153
207 206 24 73 8 74 -42 4 -143 -200 -346 -341 -585 -404 -172 -46 -433 -32
-611 31 -60 22 -68 20 -41 -9 30 -31 67 -42 201 -54 110 -11 152 -21 165 -42
16 -26 -343 6 -530 47 -94 21 -236 66 -236 76 0 4 7 5 15 2 22 -9 386 14 505
32 169 25 327 68 355 97 11 11 -12 6 -62 -14 -25 -10 -35 -11 -45 -1 -6 6 -10
14 -7 16 3 3 92 35 199 71 178 61 450 179 438 190 -8 8 -189 -52 -453 -150
-358 -133 -455 -162 -633 -190 -102 -17 -315 -21 -431 -10 -86 9 -77 18 33 34
69 10 166 42 166 54 0 3 -19 1 -42 -5 -201 -45 -500 -61 -632 -33 -71 15 -198
68 -217 91 -8 10 0 24 30 57 47 50 49 57 21 57 -12 0 -38 -19 -59 -41 -25 -28
-41 -38 -45 -30 -5 7 20 37 63 77 69 64 121 125 104 123 -4 0 -23 -5 -41 -10z
m976 -1781 c-3 -7 -27 -24 -53 -38 -48 -24 -58 -25 -290 -30 -132 -3 -248 -4
-257 -2 -39 9 -15 22 40 22 31 0 84 7 117 14 162 37 451 59 443 34z m2125
-719 c33 -11 80 -19 105 -20 l47 -1 -30 -13 c-64 -30 -181 -11 -204 33 -15 29
-14 35 7 27 9 -4 43 -16 75 -26z"/>
<path d="M9995 3816 c-115 -51 -239 -107 -274 -125 -73 -37 -173 -102 -167
-108 9 -9 357 140 471 202 88 49 206 125 190 124 -5 0 -104 -42 -220 -93z"/>
<path d="M10293 2378 c-23 -10 -85 -29 -136 -42 -52 -13 -112 -33 -133 -44
-38 -20 -81 -58 -73 -66 5 -5 304 95 334 111 23 13 60 51 54 57 -2 2 -23 -5
-46 -16z"/>
<path d="M10341 2280 c-93 -38 -141 -72 -141 -97 0 -7 2 -13 5 -13 6 0 226
130 240 142 18 16 -10 7 -104 -32z"/>
<path d="M10480 2235 c-8 -14 -44 -50 -80 -80 -36 -30 -75 -64 -85 -76 -17
-19 -9 -17 45 12 84 44 150 107 150 142 0 34 -13 34 -30 2z"/>
</g>
</svg>
