<?xml version="1.0" encoding="UTF-8" standalone="no"?>
<svg
   xmlns:dc="http://purl.org/dc/elements/1.1/"
   xmlns:cc="http://creativecommons.org/ns#"
   xmlns:rdf="http://www.w3.org/1999/02/22-rdf-syntax-ns#"
   xmlns:svg="http://www.w3.org/2000/svg"
   xmlns="http://www.w3.org/2000/svg"
   xmlns:sodipodi="http://sodipodi.sourceforge.net/DTD/sodipodi-0.dtd"
   xmlns:inkscape="http://www.inkscape.org/namespaces/inkscape"
   version="1.0"
   width="1280.000000pt"
   height="1022.000000pt"
   viewBox="0 0 1280.000000 1022.000000"
   preserveAspectRatio="xMidYMid meet"
   id="svg5536"
   sodipodi:docname="umbrella.red.svg"
   inkscape:version="0.92.3 (2405546, 2018-03-11)">
  <defs
     id="defs5540" />
  <sodipodi:namedview
     pagecolor="#ffffff"
     bordercolor="#666666"
     borderopacity="1"
     objecttolerance="10"
     gridtolerance="10"
     guidetolerance="10"
     inkscape:pageopacity="0"
     inkscape:pageshadow="2"
     inkscape:window-width="717"
     inkscape:window-height="480"
     id="namedview5538"
     showgrid="false"
     inkscape:zoom="0.17050781"
     inkscape:cx="0"
     inkscape:cy="681.33333"
     inkscape:window-x="0"
     inkscape:window-y="0"
     inkscape:window-maximized="0"
     inkscape:current-layer="svg5536" />
  <metadata
     id="metadata5524">
Created by potrace 1.15, written by Peter Selinger 2001-2017
<rdf:RDF>
  <cc:Work
     rdf:about="">
    <dc:format>image/svg+xml</dc:format>
    <dc:type
       rdf:resource="http://purl.org/dc/dcmitype/StillImage" />
    <dc:title></dc:title>
  </cc:Work>
</rdf:RDF>
</metadata>
  <g
     transform="translate(0.000000,1022.000000) scale(0.100000,-0.100000)"
     fill="#000000"
     stroke="none"
     id="g5534"
     style="fill:#ff0000;fill-opacity:0.96470588">
    <path
       d="M5595 10185 c-426 -44 -827 -122 -1275 -246 -295 -82 -413 -118 -340 -105 167 31 277 38 423 27 84 -7 229 -26 322 -43 159 -29 193 -39 526 -163 502 -187 633 -259 1229 -669 420 -289 940 -751 1282 -1140 433 -492 752 -946 953 -1354 38 -78 72 -142 75 -142 3 0 15 24 28 54 50 114 219 417 297 531 179 260 361 463 560 624 285 231 393 304 656 447 314 170 438 220 839 335 359 103 504 129 845 150 184 11 489 8 695 -6 l75 -5 -290 145 c-686 343 -1499 689 -2135 908 -694 240 -1189 381 -1596 457 -700 129 -900 162 -1203 195 l-315 35 -670 -1 -671 -1 -310 -33z"
       id="path5526"
       style="fill:#ff0000;fill-opacity:0.96470588" />
    <path
       d="M3721 9788 c-5 -13 -54 -136 -109 -274 l-101 -251 -65 -350 c-61 -323 -68 -377 -99 -730 l-32 -381 22 -419 c19 -371 28 -467 77 -843 53 -408 57 -435 120 -670 35 -135 83 -315 105 -400 22 -85 101 -336 175 -557 l134 -402 151 -295 c84 -162 162 -314 175 -337 l24 -42 77 154 c125 250 241 421 488 717 195 234 234 275 356 376 75 62 188 160 251 217 200 182 442 336 856 542 216 108 654 266 864 312 417 90 895 121 1185 76 66 -10 121 -18 123 -16 2 1 -42 76 -96 166 -221 367 -868 1220 -1182 1559 -69 74 -189 209 -267 300 -203 235 -397 407 -929 822 -136 106 -393 262 -616 374 -332 166 -622 257 -1088 339 -183 32 -216 35 -395 35 -193 0 -196 0 -204 -22z"
       id="path5528"
       style="fill:#ff0000;fill-opacity:0.96470588" />
    <path
       d="M3348 9392 c-153 -147 -370 -369 -483 -493 -679 -749 -1301 -1708 -1720 -2655 -134 -304 -327 -780 -368 -909 -14 -44 -52 -165 -86 -270 -250 -785 -472 -1761 -575 -2530 -36 -267 -117 -1027 -111 -1034 2 -2 38 65 79 148 131 261 218 391 454 674 246 296 343 390 607 588 280 210 340 250 490 331 284 152 531 250 880 347 269 75 368 92 665 115 l285 22 280 -22 c154 -12 281 -20 283 -19 2 2 -80 155 -182 340 -178 325 -191 352 -336 715 l-151 377 -109 426 c-106 410 -112 441 -175 848 l-65 422 -11 431 -12 431 43 385 42 385 109 338 c60 186 113 346 118 355 5 10 78 125 163 257 175 273 170 265 166 265 -2 0 -128 -121 -280 -268z"
       id="path5530"
       style="fill:#ff0000;fill-opacity:0.96470588" />
    <path
       d="M6198 5337 c-147 -83 -265 -153 -264 -156 66 -112 2184 -3904 2251 -4031 257 -484 628 -868 1011 -1043 133 -61 146 -65 291 -86 140 -20 164 -21 305 -10 l153 11 163 65 c163 65 164 66 293 174 109 91 144 128 217 226 84 116 87 121 129 263 45 150 62 280 63 462 0 104 -60 359 -146 616 -56 167 -82 229 -176 406 -93 177 -340 580 -383 625 -12 12 -46 -7 -227 -124 -117 -76 -214 -139 -216 -140 -1 -1 30 -58 69 -126 241 -419 330 -615 395 -869 46 -177 60 -329 45 -461 -9 -84 -17 -112 -53 -184 -40 -78 -48 -88 -123 -140 -135 -95 -226 -136 -332 -149 -134 -18 -225 -2 -323 55 -138 79 -240 164 -313 257 -180 230 -266 360 -345 517 -93 187 -2199 3989 -2210 3991 -4 1 -127 -66 -274 -149z"
       id="path5532"
       style="fill:#ff0000;fill-opacity:0.96470588" />
  </g>
</svg>
